<svg xmlns="http://www.w3.org/2000/svg" viewBox="0 0 52 52"><g data-name="Layer 2"><g data-name="Working Layer"><rect x="7" y="7" width="45" height="45" rx="22.5" fill="#fffa0c"/><path d="M45.8 21h.7a1.5 1.5 0 000-3h-.7l1.63-3.06A2 2 0 0045.67 12h-7.24a2 2 0 00-1.76 1.06L34 18H20a1.5 1.5 0 000 3h14l2.64 4.94A2 2 0 0038.43 27h7.24a2 2 0 001.76-2.94zM39 15h5l-1.15 2.15a5.2 5.2 0 00-.34.85h-5.08zm0 9l-1.6-3h5.08a5.2 5.2 0 00.34.85L44 24z" fill="#28282a"/><path d="M35.82 27.2a1.51 1.51 0 00-2 .55 16.5 16.5 0 110-16.5 1.5 1.5 0 002.6-1.5A19.49 19.49 0 1011 37l-5.32 9.78a1.51 1.51 0 00.6 2A1.57 1.57 0 007 49a1.51 1.51 0 001.32-.78l5.49-10.07a19.27 19.27 0 004.19.77v9.58a1.5 1.5 0 003 0v-9.56a18.78 18.78 0 003.75-.68l5.43 10a1.51 1.51 0 001.32.74 1.57 1.57 0 00.72-.18 1.51 1.51 0 00.6-2l-5.22-9.61a19.61 19.61 0 008.77-8 1.5 1.5 0 00-.55-2.01z" fill="#28282a"/><path d="M29.56 15.55a1.5 1.5 0 102.79-1.1 13.82 13.82 0 100 10.1 1.5 1.5 0 10-2.79-1.1 10.82 10.82 0 110-7.9z" fill="#28282a"/><path d="M19.5 14.84a4.64 4.64 0 013.17 1.26 1.5 1.5 0 002-2.2 7.66 7.66 0 100 11.2 1.5 1.5 0 00-2-2.2 4.66 4.66 0 11-3.17-8.06z" fill="#28282a"/></g></g></svg>