<svg xmlns="http://www.w3.org/2000/svg" viewBox="0 0 54.01 54"><g data-name="Layer 2"><g data-name="Working Layer"><path d="M23.59 51v-.08a.1.1 0 000-.07h-.06v.05zm-6.9-12.27c-.17 0-.18.14-.28.21s0-.09-.06-.1-.12-.15-.08-.26.15-.15.22-.07.13.1.19.16c0-.15-.05-.3-.07-.46a.51.51 0 00-.14-.32.63.63 0 00-.75-.14.6.6 0 00-.43.66v.27c0 .32.1.63.16.93a.1.1 0 010 .05c.22 1 .54 2 .81 3.06h.16c.07 0 .1 0 .12.08a.41.41 0 010 .08.34.34 0 00-.22 0 2 2 0 00.35.64 1 1 0 00.22.19.81.81 0 00.83 0 .65.65 0 00.18-.89h-.29c.07 0 .1-.1.13-.09h.11a3 3 0 01-.33-.74 25.92 25.92 0 01-.86-3.22zm-1.19-.48l-.16-.07h.14s.02.06.02.07zm.06-.35h.05zm.16 1h-.05.05zm.48-.9zm1.62 4.83zm-.5.78zm.25-.34v.18c0 .07.05.14 0 .21s-.09.05-.11 0-.14-.21 0-.34.03-.06.11-.02zm-.29-1a.14.14 0 01.17 0c.05 0 .1.07.07.12s-.06.07-.09.09a.16.16 0 01-.17-.12.14.14 0 01.02-.05zm0 .41v.07c0 .02 0 .05-.06.05h-.13a.58.58 0 00-.18 0c-.05 0-.08.06-.12 0a.16.16 0 010-.18.08.08 0 01.08 0zm-.46-1.66zm0-.11zm.34-3.85c0 .16.06.32.1.48a.29.29 0 01.13 0 .5.5 0 00-.12.08c.15.57.32 1.13.45 1.71l.39 1.67a1 1 0 00.73.79.74.74 0 001-.73.86.86 0 00-.14-.34 4 4 0 01-.44-1.09c-.17-.58-.32-1.16-.49-1.74s-.3-1-.48-1.56-.05 0 0-.07a.5.5 0 00-.85 0 .8.8 0 00-.19.35 1.47 1.47 0 00-.09.45zm2.34 3.69a.22.22 0 010 .06h-.07c-.02 0 0 0 0-.07zm-.66.68v-.09c0-.02.05 0 .08 0a.19.19 0 010 .2.14.14 0 01-.11 0 .24.24 0 01-.12-.08c.03-.1.09-.05.15-.03zm-.2-2.06l.08.05-.07.06v-.07c0-.07-.01-.04-.01-.04zm-.22-.67a.08.08 0 010-.05zm0 .84l.05-.06.07.08a.86.86 0 01-.07.1.28.28 0 01-.09-.12zM18.31 37h-.05zm0 .49v.06h-.06c-.06 0 0 0 0 0zm-.5 1.65l.05-.1v.1zm0-1.92zm.22-.82zm-.32.27l.16-.07h-.12v-.06l.09.07c.06 0 .13 0 .14.09v.3c-.11-.07-.19-.18-.31-.21s.02-.07.06-.09zm14.34-5.08a.53.53 0 00.14.76.8.8 0 001 .22c.45-.24.41-.62.68-1a13.23 13.23 0 00.92-1.49 2.86 2.86 0 00.21-.58.4.4 0 000-.32.72.72 0 00-1.2-.18.14.14 0 01.09 0 .2.2 0 000 .2c-.08 0-.1-.05-.14-.1a.06.06 0 010-.06l-.12.2-.28.47c-.17.26-.33.52-.51.77a.07.07 0 010 .08h-.07c-.08.1-.15.2-.23.29a3.31 3.31 0 00-.49.74zm2.15-1.14c.12 0 .16 0 .18.17a.24.24 0 010 .12h-.11a.18.18 0 01-.13-.15c-.05-.1-.01-.15.06-.14zm-.92.32zm.07.55h-.05zm.21-1.79a.39.39 0 01.15 0 .46.46 0 00-.12.23.91.91 0 00-.07-.14.08.08 0 01.04-.09zm-.26.86s.05 0 .1.08l-.1.05a.31.31 0 01-.07-.09s.05-.05.07-.04zm-9.75 9.81a.27.27 0 010 .23.81.81 0 00.47.65h.14a.08.08 0 01.08.07.92.92 0 00.33 0l.17-.06a.57.57 0 00.33-.58.19.19 0 010-.07v-.06a1.29 1.29 0 00-.64-.66.56.56 0 00-.88.48zm.92.13a.13.13 0 01.07 0c.11 0 .18.06.2.19a.22.22 0 00-.22 0 .1.1 0 01-.07 0 .1.1 0 01.02-.19zm-.24-.42h.08V40a.2.2 0 01-.08 0s-.02-.07 0-.09zM19 49.86h-.13a.68.68 0 00-.37 0l.1.07h.76a2.17 2.17 0 00-.36-.07zm-1.39-6.45zm-3.01-7.79a.11.11 0 010 .06h-.12c-.06 0-.13 0-.16.13s0 0-.06.05l-.3.38v.05a.26.26 0 010 .37l-.23.13a.79.79 0 010-.16.31.31 0 000-.13l-.35.46.22-.05c.05 0 .09 0 .1.06a.1.1 0 010 .09s-.07.07-.1 0a.27.27 0 00-.21-.12l-.1.13a.68.68 0 000 .8.8.8 0 00.68.47c.29 0 .43-.18.53-.41a4.53 4.53 0 01.43-.7.14.14 0 010-.09.1.1 0 01.07 0h.06l.07-.09c.13-.18.28-.35.42-.52.26-.3.53-.58.79-.88s.31-.53.11-.8a.11.11 0 01-.19.05c-.08 0-.1 0-.06.09s0 0-.05.06-.07 0-.07-.05a.77.77 0 01.1-.47c-.25-.19-.48-.15-.76.09A2.13 2.13 0 0015 35l-.52.63zm-1 1.31zm.15 1.19l-.06.05a.27.27 0 00.08-.07s.01.01 0 .02zm.1-.73l-.06.06a.13.13 0 010-.08s.09.01.08.02zm.1.4h-.06c-.06 0 0 0 0 0a.37.37 0 01.11 0c0-.01 0 .01 0 0zm1.95-2.08a.08.08 0 01.02 0zm-.07.24h.05-.05zm-.22-.95zm-.14.83s-.01.01 0 .01zm4.19 12.07zm24.41-20.22a.46.46 0 00-.23.06.9.9 0 00-.4.76.62.62 0 00.23.51.06.06 0 01.07 0h.06a.41.41 0 00.52 0 .78.78 0 00.35-.62.81.81 0 00-.6-.71zm.16.11c-.08.05-.14 0-.2 0a.08.08 0 010-.05c.07 0 .15 0 .19.06s.01-.01.01-.01zM44 21.56a.52.52 0 00-.2-.69 1.24 1.24 0 00-.58-.19.8.8 0 00-.74.51 5.36 5.36 0 01-.82 1.33 2.71 2.71 0 00-.24.35.57.57 0 00.38.88.48.48 0 00.48-.11A8.79 8.79 0 0044 21.56zm-.31-.28s-.04.01-.03 0zm-.17.07l.06.12v-.13zm-.13.36s.1-.07.15-.11l.05.09v.13c0 .03-.11.06-.17 0a.07.07 0 01-.06-.11zm-.32.08h.05H43zm-.55-.47a1.65 1.65 0 01.31 0 .1.1 0 01.07.12.1.1 0 01-.11.1h-.09v-.08l-.21-.07s-.02-.07 0-.07zm.38.6zm-.33-.12zm-.19.3zm-.41.34zm.47 1zm.19-1a.87.87 0 01-.39 0 .65.65 0 01.37-.1 1.19 1.19 0 00.59-.06.15.15 0 01.09 0v.05a.6.6 0 01-.37.06.39.39 0 00-.32.06zM26.28 40.6c-.43.68-.86 1.36-1.31 2a.18.18 0 01.1.26.32.32 0 01-.07.14c-.09 0-.15 0-.18-.09-.28.41-.56.82-.86 1.21a1.64 1.64 0 00-.24.52.8.8 0 00.67 1 .58.58 0 00.57-.41c.18-.38.39-.74.6-1.1l.72-1.17.27-.45a1.28 1.28 0 00-.32.06h-.07a.17.17 0 010-.12.88.88 0 01.15-.12l.12-.09a.87.87 0 00.2.15c.41-.67.81-1.34 1.21-2s.85-1.45 1.27-2.18a.07.07 0 010-.06c.09-.16.18-.32.28-.48l.09-.19c0-.05 0-.07.08-.08v-.08a.3.3 0 000-.23.73.73 0 00-.88-.23 2.31 2.31 0 00-.6.72c-.53.9-1.14 1.97-1.8 3.02zM23.76 45zm.78-1.23zm0 .43a.06.06 0 01-.07 0 .07.07 0 01-.05-.09c0-.06.08-.12.18-.1a1 1 0 01-.09.17zm1.76-3.35zm-1 3.27h-.12c-.05 0-.08 0-.07-.09a.08.08 0 01.09-.06.24.24 0 01.12 0v.08zm.16-.44c-.06.05-.11.09-.19 0l-.13-.07a.38.38 0 01.31 0s-.02.04-.03.05zm.21-.33zm0-.29s-.06 0 0-.06a.06.06 0 01.06 0v.11zm.1-.54a.15.15 0 01-.16.07.07.07 0 01-.06 0 .08.08 0 010-.06l.06-.05h.06c.02-.05.08-.02.06.02zm.11.25zm.08-1.44v-.05c0-.05 0 0 .05 0zm.37.07h-.06a.83.83 0 010-.15.12.12 0 01.02.13zm.28-.08a.08.08 0 01-.08 0 .11.11 0 01-.06-.07.15.15 0 01.06-.16.08.08 0 01.13 0 .28.28 0 000 .08.35.35 0 01-.09.13zm.36-.88l.07.06-.06.05h-.05a.59.59 0 000-.13zm.12.72h-.14c-.06 0-.12 0-.14-.11s0-.12.12-.16a.15.15 0 01.17 0 .2.2 0 01-.05.25zm2.4-4.1h.06s-.05.07-.09 0-.05-.06-.01-.06zm-.75 1.37zm0-.81c0 .07.05.15.08.23a.07.07 0 010 .05h-.06a.2.2 0 01-.07-.3zm-.23 1.16h.05zm-2.95.38a.58.58 0 00.52-.3c.32-.57.7-1.11 1-1.69l-.08-.05c.05 0 .06-.06.17 0 .08-.15.15-.3.22-.46a2.09 2.09 0 00.13-.35.33.33 0 00-.23-.42.62.62 0 00-.34 0 .92.92 0 00-.59.28c-.17.24-.35.47-.53.7-.09.11-.17.22-.25.34-.21.29-.43.58-.62.89a.72.72 0 00.6 1.06zm1.5-2.74a1 1 0 01.13-.09.06.06 0 01.06 0v.06a.44.44 0 010 .1h-.15a.08.08 0 01-.04-.07zm-.5-.09h-.06zm-.16 1.85zm-.13-.11zm-.49.38c.08 0 .19.08.18.14a.16.16 0 01-.2-.09s.01-.03.02-.05zm-.54-.07h.11v.06h-.09zM30.63 37a3 3 0 00-.06.86.08.08 0 01.1 0c0 .09 0 .15-.09.17a2.81 2.81 0 000 .43.54.54 0 00.45.49c.29.08.45-.12.67-.23a.66.66 0 00.38-.73c0-.4-.07-.82-.11-1.23v-.13h-.07s-.08 0-.06-.07a.11.11 0 01.08-.07.7.7 0 00-.51-.56c-.29-.06-.44.13-.57.33a1.49 1.49 0 00-.21.74zm.85-.5zm0 1.48a.11.11 0 01.09-.11.07.07 0 01.05 0 .14.14 0 010 .17h-.11c-.03 0 0-.06 0-.07zm-.16-2h.05a.16.16 0 01-.06.18v-.19zm-.22 1.2zm0 .24l.06.07-.05.12h-.05a.76.76 0 010-.11s.04-.12.07-.11zm-.17.53L31 38l.06.11.3.07.05.07c.05.07-.06 0-.08 0l-.27-.16v-.1c-.11 0-.12 0-.13-.06a.14.14 0 010-.06zm-5.57 15.2L25.2 53c-.27-.29-.52-.32-.74-.11.29.11.59.18.9.26zm-.63-.4h.05a.25.25 0 010 .07l-.06-.07h.01zm.19-30.6a.73.73 0 001.08-.54 2.79 2.79 0 01.17-.69c.08-.26.16-.51.22-.77s-.05-.41-.35-.41a1.31 1.31 0 00-.81.36v.07a4 4 0 00-.58.93c-.32.52-.23.83.27 1.05zm1.16-1.48zm-.11.49a.2.2 0 01-.08.08c-.06 0-.07 0-.07-.08a.13.13 0 010-.06v-.09a.08.08 0 01.07 0 .13.13 0 01.11.15zm0-.45a.12.12 0 010 .05v-.07l-.03.02zm0-.78a1.7 1.7 0 010 .26h-.07l-.14-.14zm-.36.94zm-.42.27l.18-.05h.06c.06 0 0 .13-.05.19a.07.07 0 01-.07 0 .35.35 0 01-.14-.06.09.09 0 01-.03-.08zm-.47.58a.36.36 0 010 .09h-.09c-.09 0-.1 0-.07-.12v-.05zm-8.25 9.39zm5.17 7.31a.81.81 0 00-.88-.79.58.58 0 00-.45.22 4.22 4.22 0 00-.48.71.65.65 0 000 .59A.18.18 0 0120 39c.11 0 .14 0 .14.14a.56.56 0 000 .13l-.14-.1-.09.1a.58.58 0 00.67.19 2 2 0 00.84-.5.64.64 0 00.22-.54zm-1.41.2s-.05 0 0 0h.06l.06.06zm.58-1H21a.18.18 0 01-.18.08.19.19 0 01-.08 0s.02-.04.07-.04zm-.06 1.71zm0-.17a.52.52 0 01-.12-.07.4.4 0 01.14-.09c.05 0 .07 0 .07.08a.07.07 0 01-.11.12zm.47-.84a.22.22 0 00-.18.15.44.44 0 01.11-.31s.18 0 .19.06-.12.1-.14.14z" fill="#281e53"/><path d="M23.41 52.06a2.73 2.73 0 01.5-.05.08.08 0 010-.08c.05 0 .14 0 .13.09l1.45.13a.28.28 0 000-.13c0-.07.06-.11.13-.09s0 0 .07.06 0 .07 0 .09v.08l.73.08c1 .14 2.06.32 3.11.39a.11.11 0 010-.12.34.34 0 01.08-.09l.17-.09c0 .09-.09.18-.14.27h.09a6.56 6.56 0 001.4-.1h.17a.52.52 0 00.35-.8.73.73 0 00-.58-.37h-.57a25.07 25.07 0 01-2.9-.33c-.91-.14-1.82-.25-2.73-.35l-.63-.07a4.32 4.32 0 00-.95 0 .8.8 0 00-.69.58.6.6 0 00.55.87.7.7 0 00.26.03zm8.06.12h-.05c-.05 0 0 0 0 0h.05zm-.51.06h.07c.02 0 0 0 0 0h-.11zm-.22-.92zm-.26.33zm-.05-.23zm-1.69.38s.06-.11.13-.08 0 0 0 .06l-.12.11h-.05s.02-.07.04-.09zm-1 .06zm-.37.07zm-1.57-.83zm-.87.88zm-1.55-1.22h.17l.23.09c0 .09-.09.12-.14.16-.06.07-.16.14-.07.25s0 0 0 .05h-.05a.83.83 0 010-.15c0-.08 0-.16-.05-.24s-.22-.11-.14-.16zm20.83-24.58a.16.16 0 010 .12h-.08a.63.63 0 00.4.68 1.05 1.05 0 00.78 0 1 1 0 00.54-.64 7.33 7.33 0 01.39-.91 3.38 3.38 0 00.26-.62c.11-.43-.15-.69-.61-.65a.83.83 0 00-.62.39c-.26.39-.56.77-.84 1.15a1.49 1.49 0 00-.22.48zm1.65-.28zm0-.79h-.06zm0 .2v.05l-.12.13c.01-.08.07-.13.12-.18zm-.16 1.22zm-.1-.6h.06v.05h-.05a.17.17 0 01-.01-.05zm-.1.15a1.42 1.42 0 010 .2v-.08a.31.31 0 010-.12zm-.3-.15zm-.23.36v.05-.05zm-.19-.35zm-.13-.16zm-.12.29h.31-.14a.88.88 0 010 .16.06.06 0 01-.06 0 .17.17 0 01-.11-.16zM50.15 38zM19.61 49.81h-.08.16a.12.12 0 00-.08 0zM43.11 38l.1.11s-.04-.11-.1-.11zm4.79-3.08h-.08c-.02 0 0 0 0 .08H48s-.08-.06-.1-.08zm-4.01 8.19a.6.6 0 00-.53-.45.23.23 0 00-.23.09l.09.11h-.15A1 1 0 0043 43a2.82 2.82 0 00-.07.31l.15.11v.07c0 .01-.06.12-.11.1l-.16-.08a5.1 5.1 0 00-.1 1.11l.32.1.18-.2v.09h.16c.03 0 .17-.11.27-.12a.43.43 0 01.16 0 .18.18 0 01.1 0v-.17a.34.34 0 01-.14 0 .72.72 0 01-.2-.09 2 2 0 01.34 0 1.93 1.93 0 010-.24v-.38a3.82 3.82 0 00-.01-.5zM43 44zm.32.41h-.02.09a.56.56 0 01-.04-.04zm.14-1.5zm.14.08zm-30.85-9.1a9.12 9.12 0 00-1.13 1.63l-.07.18a.82.82 0 00.48 1c.34.15.56.06.81-.34l.11-.21.44-.79c.15-.29.31-.58.45-.88a1.63 1.63 0 00.09-.37c0-.29-.09-.4-.32-.45a.8.8 0 00-.86.23zm-.92 2.48s-.05 0-.05-.07a.08.08 0 010-.08.5.5 0 010 .12zm.25-.44a.09.09 0 01-.08-.11l.05-.08a.41.41 0 01.12.09s-.04.1-.09.1zm0-.26v-.05l.08-.07v.06a.07.07 0 01-.07.06zm.27-.17v-.09s.09 0 .09.07 0 .1-.07.08a.1.1 0 01-.01-.06zm.06.48h.06V36zm.08-1a.12.12 0 01-.16 0v-.05a.21.21 0 01.1 0 .24.24 0 01.1.05.16.16 0 01-.03.02zm.51-.08h.15H13v.04zm-.22.12v-.05h.06v.05h-.05zm.4.49c-.14 0-.22-.07-.33-.15.26 0 .26 0 .33.15zm.52-1.22v.05a.11.11 0 01-.07 0 .22.22 0 01-.22-.2c.18-.06.25.05.32.15zm-.32-.61zm31.32-7.6zm-5.28-12.26c-.16.19-.15.29 0 .5a1 1 0 00.66.43 9.2 9.2 0 001.74.21h.57c.33 0 .66 0 1 .06a.5.5 0 00.4-.1.61.61 0 00.21-.62.79.79 0 00-.33-.62.2.2 0 01-.08 0 .11.11 0 010-.07 2.41 2.41 0 00-.88-.16h-2.55a.9.9 0 00-.74.37zm3.77-.11zm-.12.85s0-.01 0 0zm-.23 0zm-.34-.52a.23.23 0 010-.05.71.71 0 01.09.07v.07a1.56 1.56 0 01-.16.2h-.08c-.02 0 0 0 0 0s.13-.14.15-.24zm-.18-.39h.09a.29.29 0 01-.1 0s0 .05.01.05zm-.29.71s-.09-.05-.07-.08 0 0 .05 0-.01.13-.01.13zm0-.2zm-.12-.51h.1v.06h-.08zm-.1.37h.06v.06c0 .01 0 0 0 0zm-.81-.33l.07.05h-.06l-.01-.05zm-.84.6c.08-.08.08-.08.2 0-.08.07-.16 0-.23 0zM9.06 33h3.24a.83.83 0 00.63-.29c.31-.32.13-1-.33-1h-.3a.43.43 0 010 .05l-.23.09a.29.29 0 01.1-.12h-.27L9 31.57c0 .48 0 .96.06 1.43zm4-.51zm-.26-.67zm-.07.79zm-.9-.42zm-1-.38a.56.56 0 01.4 0h-.4.04zm-.06.74zm-.77-.72a.43.43 0 01-.35-.06.62.62 0 01.35.06zm-.66-.21h-.06s.04-.01.05 0zm.78-.86a.58.58 0 001-.42v-.24a.78.78 0 00-.34-.59l-1.53-1.33c-.08.57-.15 1.16-.19 1.74l.16.13c.3.24.59.48.9.71zm0-.88s.07 0 .07.08a.13.13 0 000 .06l-.06-.02-.05-.07zm-.11.26zm.05.25l.06.06c.06.06 0 .08-.06.09a.1.1 0 01-.11-.08c.05-.05.05-.07.12-.07zm-.3-.39c.06 0 .12.05.12.16a.25.25 0 010 .07.08.08 0 01-.13 0 .32.32 0 010-.09c-.07-.14-.04-.14.01-.14zm-.1-1.3zm-.29.6h.08a.11.11 0 010 .08.11.11 0 010-.07.14.14 0 010-.06zM24 42.5h-.1l.1-.09c0-.28-.11-.41-.35-.36h-.05a1.33 1.33 0 00-.76.43c-.45.53-.84 1.11-1.32 1.61a1.19 1.19 0 00-.16.23.74.74 0 000 .81.72.72 0 00.7.4.58.58 0 00.52-.4 4.61 4.61 0 01.46-.77 8.82 8.82 0 001-1.79zm-2.62 1.87c0-.02-.03-.01-.05 0zm.26.63a.06.06 0 01-.06 0c0-.06 0-.06.09-.07s.05 0 .05.06a.06.06 0 01-.13.01zm.48.42zm.14-.08l-.26-.25.12-.15h.05zm-.12-1.28a.14.14 0 01-.12-.18.1.1 0 01.11-.09c.08 0 .14.08.13.15a.13.13 0 01-.17.12zm.22-.61zm.24 1.2h-.05v-.29a.2.2 0 010 .07c.07 0 .1 0 .14.08s0 .05 0 .08a.3.3 0 01-.14.06zm.27-1.73v.05zm.1-.32l-.06-.06h.06v.06s-.04.01-.05 0zm.72 0c-.06 0-.11-.05-.18 0s-.11.05-.12 0 0-.08.07-.12h.06l.27.12s-.12-.03-.15-.04zm-7.22-18.07c.18.12.38-.06.53-.21l.1-.1a38.42 38.42 0 002.64-2.92 4.15 4.15 0 00.3-.43.55.55 0 000-.54 1 1 0 00-.47-.41h-.1a.08.08 0 01-.09-.07.83.83 0 00-.44 0 .62.62 0 00-.34.3c-.15.26-.33.51-.5.75l-.81 1.1a.14.14 0 010 .06v.06h-.08c-.02 0 0 0 0 0l-.36.47h.07-.09l-.42.57a.08.08 0 010 .14h-.13a1 1 0 00-.19.52.62.62 0 00.38.71zM19 19.87zM18.93 21zm-.37.65c.07-.12.13-.12.19 0a.12.12 0 010 .08h-.05a.59.59 0 01-.14-.06zm-.1-.36v-.06zm-.2.86h-.05v-.07s.04.03.05.04zm-.11.4h.05l.07.05h-.07l-.05-.08zm-.57 0v-.03zm-.12.66h-.05zm-.18.41a.48.48 0 010 .12h-.08v-.18c0-.07.08.03.08.03zm-.42-.36h.06-.08zM34.46 25a.89.89 0 000 .94v-.21l.16-.1s.07-.06.1 0 0 .13 0 .14-.09.22-.21.3l.17.06a.11.11 0 010 .05h-.06l.06.08c.14-.06.24 0 .37.07a.19.19 0 01-.18.09h-.13a13 13 0 00.9 1.17l.27.19a.09.09 0 010 .08A14.27 14.27 0 0037 29c.59.52 1.17 1.05 1.73 1.6s0-.06 0-.12a.34.34 0 01.18.15h-.08c.61.6 1.2 1.23 1.76 1.88a17.77 17.77 0 001.55 1.58l.37.33.39.35A13.18 13.18 0 0144.12 36l.06.08h.09-.06l.17.17a.53.53 0 01.18 0c.06 0 .09.11.05.12a.14.14 0 01-.11 0h-.08A3.25 3.25 0 0045 37a1.2 1.2 0 00.25.13.46.46 0 00.47-.08.14.14 0 01.12-.15h.07a.9.9 0 00.15-.24 1.57 1.57 0 00.08-.29h-.1a.08.08 0 010-.05h.08a1 1 0 00-.31-.69c-.18-.2-.38-.4-.57-.59l-.21.08v.22l.07.08-.06-.07h-.09a.15.15 0 000 .08.28.28 0 000 .09c0 .2 0 .19-.18.24a.56.56 0 01-.34 0 .62.62 0 00-.33 0 2.22 2.22 0 01.63 0 .39.39 0 010-.16.22.22 0 00-.1-.34v-.07c0-.07.23-.08.27-.21s0 0 .06 0h.15a.2.2 0 00.08 0c-.78-.78-1.58-1.52-2.4-2.25A16.14 16.14 0 0141 31c-.37-.42-.74-.84-1.12-1.25-.24-.25-.47-.5-.72-.74a.47.47 0 010 .17h-.08c0-.1-.16-.17-.12-.3l-.51-.47a17.07 17.07 0 01-2.22-2.28l-.04-.13-.1-.12-.29-.41a.17.17 0 01-.06.06.05.05 0 01-.08-.05v-.06h.08a4.76 4.76 0 00-.5-.61.53.53 0 00-.25-.16.45.45 0 000 .23v.11a.57.57 0 010 .13.1.1 0 01.12.05.35.35 0 01.31.08.08.08 0 010 .05h-.15c-.1 0-.12 0-.14-.19a.12.12 0 01-.12-.05c-.05 0-.05-.08-.05-.13v-.11a.43.43 0 01-.21-.19h-.16a.69.69 0 00-.13.37zM45.8 36.47zm-.31.51zm-.07-1.22zM44.24 35h.08v.06a1.52 1.52 0 010 .21l-.19-.05c.04-.14.12-.22.11-.22zm-.3.33zM43.8 35h-.08a.07.07 0 01-.06 0l-.13-.15h.15l.11.17a.13.13 0 01.01-.02zm-.12-1.31zm-.35-.33v-.06s-.02.03 0 .04zm0 .61c.09 0 .13 0 .17.06s0 .07.07.08a.8.8 0 010 .21h-.32a.27.27 0 00-.15-.26.35.35 0 000-.06c.12.12.15 0 .23 0zm-.1-.27zm-.18-.4h.11l.05.07h-.08v-.07h-.09zm-.62.87zM41.72 33zm0 .24l.27.16a.75.75 0 01-.13.16.14.14 0 01-.11 0s-.07-.06-.07-.09a1.32 1.32 0 01.04-.26zm-.19-1.33zm0 1.15zm-.18-.1zm-.55-.27v.07a.09.09 0 01.01-.1zm-.24-1.54v.05a.17.17 0 01.01-.08zm-.56-.26c.07 0 .15-.08.22 0a.64.64 0 00.14.08h-.13a.17.17 0 01-.22 0s-.11-.06-.01-.08zm-.15-.13a.13.13 0 010 .17h-.13a2 2 0 010-.24c-.01-.04.04.02.09.07zm-.18.4v-.06zM39 30.07h.12s0-.11.06-.12h.19c.09 0 .19.07.19.14s0 .21-.07.28a.57.57 0 01-.13.08.11.11 0 01-.13-.11v-.06a.1.1 0 00-.06-.17.18.18 0 01-.07-.05l-.1.14s-.08 0-.07-.09.07-.05.07-.04zm-.85-.22zm.43.14zm-.23-.93a.25.25 0 01.21.16v.07c0 .01-.1 0-.11 0a1.11 1.11 0 01-.09-.19s.01-.03.02-.04zm-.27-.62s.09-.06.11 0 0 .09.05.12 0 .06 0 .07a.15.15 0 01-.1.06c-.06-.03-.08-.15-.03-.25zm-.16 0a.11.11 0 01.08.11h-.05l-.07-.09s.12.04.12.02zm-.18-.72c.06 0 .14.06.16.15l-.06.06s0 .05-.07 0l-.2-.18c.07-.01.13-.04.2.01zm-.92.32zm-.1-.32zm-.11.51h-.09l-.09-.08c0-.06.1 0 .15 0s.09.12.06.12zm-.26-.3l.15.1v.05s-.11 0-.15-.09zm-.6-1.64h.07c.07 0 0 0 0 .05h-.09s.01 0 .05-.01zm-.2-.59h.07v.08c0 .03.06.07 0 .1a.13.13 0 01-.1 0s0-.11.06-.14zM26.4 42.3l-.01-.02-.01.02h.02zm18.31-6.69v.05z" fill="#281e53"/><path d="M46.5 35.18a1 1 0 00.35.14.84.84 0 00.46-.07l.34-.15V35a.11.11 0 01.08-.12 1.49 1.49 0 00.14-.12H48a.33.33 0 00.15.14c.61-.25 1.23-.48 1.86-.68a.91.91 0 00.4-.24.49.49 0 00.15-.24.56.56 0 00-.57-.64 7.22 7.22 0 00-.8.08c-.55.08-1.07.29-1.67.41l-.67.23-.31.11-.12.06a.08.08 0 01.1.06v.11c0 .02-.12.1-.16.18s-.14.05-.18 0a.39.39 0 000 .15.85.85 0 00.32.69zm3.73-1.8c.09 0 .16 0 .22.09s0 .06 0 .07h-.22a.24.24 0 01-.05-.1s.02-.05.05-.06zm-.68.32h.05v.05s-.06-.04-.05-.05zm-.6.55zm-.4-.09v-.05h.05zm-.07-.31zm-.35.21a.6.6 0 01.08-.08.14.14 0 01-.09.15s0-.05.01-.07zm-.07-.53zm-.79.8v-.05.05zm.26-.4zm-.31 0h.11a.28.28 0 010 .09h-.06a.14.14 0 01-.06-.07.09.09 0 01.01.05zm0 .9s.06 0 .07.05 0 .06 0 .06h-.08c.01 0-.03-.04-.01-.07zm-.44-.12v.05zm.11-.78L47 34s0 .16-.06.26l-.21-.15a.21.21 0 01.14-.11zm-.39.37zm-.07.33c0-.06.06-.1.11-.09s.1.08.08.12a.57.57 0 01-.09.08c-.1.03-.13-.02-.12-.07zm-31.95 4.6s-.06-.12-.14-.08-.43.17-.46.43a2.47 2.47 0 000 .9c.12.57.21 1.15.32 1.72.25 1.37.51 2.74.77 4.11v.07h.05v.07l.06.13a.6.6 0 00.72.21.45.45 0 00.37-.5L16 45.8a.1.1 0 01-.05-.07s-.09-.06-.07-.13a.11.11 0 01.07 0c-.17-.87-.36-1.74-.56-2.61a.83.83 0 01-.23-.15.22.22 0 01.19 0c-.25-1.08-.51-2.16-.76-3.24a1.21 1.21 0 00-.11-.37zm-.35 2.63zm.36 1.94zm0-.92s.05 0 0 0zm1.32 2.21zm-.16 1.39a.09.09 0 01.08.09.08.08 0 01-.06 0 .08.08 0 01-.1 0 .07.07 0 01.1-.09zm-.21-1.19zm-.44-.91a.2.2 0 010-.08h.08c.02 0 0 0 .06.06a.12.12 0 01-.13.14c-.01-.02-.01-.06-.01-.12zm-.27-1.86a.35.35 0 010-.08.43.43 0 000 .07zm.11-1.73v.05zm0 .42a.13.13 0 01-.06-.13.1.1 0 010 .13zm-.11-.92h-.05zM21 51.27a.47.47 0 00-.67-.24l.84.46zM51.09 34v.07c-.07.07-.09.18-.19.23s-.08 0-.1 0c-.51.41-1 .83-1.51 1.26-.24.21-.47.42-.69.64h.16a1 1 0 01.1.17c0 .09.08.1.15.12a.1.1 0 01.08 0 .11.11 0 010 .08.24.24 0 01-.22-.15l-.15-.26h-.14l-.26.25s-.07.1-.11.1l-.54.52a.44.44 0 00-.07.66 1.33 1.33 0 01.21.09c.06 0 .08.07 0 .12l.17.12a.48.48 0 00.58 0 2.83 2.83 0 00.3-.3c.27-.3.55-.59.84-.88l.66-.67.49-.47h-.21c0-.09.06-.15 0-.23s0-.07.06-.06l.38.11C52 34.75 53 34 53.94 33.29c0-.47.06-.94.07-1.41l-.93.67c-.67.45-1.34.97-1.99 1.45zm-3.27 3.63s0-.09.09-.11.07 0 .07.08-.08.07-.16.06zm.17.19zm.23-.63zm.09.74s-.08 0-.07-.06l.06.05s.03.08.01.08zm.26-1.59zm.43.3zm0 .44c-.07 0-.16 0-.14-.09a.63.63 0 01.1-.12.14.14 0 01.16.1s-.12.13-.12.14zm.27-.14v-.06zm.06-1.25v-.06c0-.06 0-.19.11-.22s.08.16.13.23 0 0 0 .06a.5.5 0 01-.28.02zm.34.76s0-.07.06 0zm.19.13v.05zm.58-1.9zm.54-.23zm.68.49a.37.37 0 010-.11v.05c0 .05.01.12-.04.12zm.53-1.16zm-.08-.33a.3.3 0 01.38-.08v.05a.78.78 0 01-.42.06zm.41.48v-.06l.06.06zm1.13-1.38zm0 .78h.07-.14s.04.03.07.03zm-.25-.52zm-.19.57zM53 25.76a.55.55 0 00.15.48.68.68 0 00.33.18c-.12-.53-.26-1-.42-1.55zm.39.58zm-.11-.34zM30 23.42a6.34 6.34 0 002.37.34 28.14 28.14 0 003.31.08h.74a.43.43 0 00.41-.22.69.69 0 000-.13c.08-.29.1-.63-.14-.8a1.35 1.35 0 00-1-.31c-.7.08-1.42.09-2.13.13h-.95c-.65 0-1.3 0-2 .05h-.13l.13.05-.37.05h-.12c-.12.25-.5.56-.12.76zm6.26-.84a.07.07 0 01.08-.07.09.09 0 01.09.1.1.1 0 01-.11.09c-.02-.02-.02-.07-.02-.12zm-.25.55a.11.11 0 01.14 0h-.1v-.05s-.05.05 0 .05zm-.17-.6zm-.37 1.31a.43.43 0 010-.05v.06zM35 22.53s0-.05.07-.06a.18.18 0 01.1 0 .27.27 0 00.25-.09h.11c.03 0 0 .06 0 .09s.06.07 0 .09a1.3 1.3 0 01-.34.08s-.09-.05-.13-.08zm-.38 0s.05-.05.07 0 0 0 .08.07h-.13l-.02-.06zm-.39.66v.01zm-.31.14l.17.05a.41.41 0 010 .1.06.06 0 01-.1 0 .52.52 0 01-.1-.11.06.06 0 01.03-.03zm-.53-.09l.06-.06c.06-.06 0 .08 0 .08a.24.24 0 01-.08.06s.01-.05.02-.07zm-.33 0zm-.24 0zm-1-.71h.13a.35.35 0 01-.11.09.06.06 0 01-.09-.05.07.07 0 01.03-.02zm-.65.55a.25.25 0 000-.13l.08.15h-.05s-.1.05-.07 0zm-4.84 7.27a3.4 3.4 0 001.92.43c.43 0 .59-.27.58-.71a.55.55 0 00-.6-.54l-.52-.05-.53-.08h-.3a1.56 1.56 0 00-.36 0 .62.62 0 00-.41.54c-.11.22.08.33.22.41zm1.77.27c.06.06.13 0 .2 0s0 .05 0 .05a.66.66 0 01-.15 0h-.1l.05-.11zm-1.16-.47l.06.06h-.07c-.02 0 0 0-.07-.06zm21.95-2.86a5.35 5.35 0 01-.11-1v-.13a.13.13 0 010-.06v-.58c0-.19-.06-.37-.09-.55a1.47 1.47 0 00-.19-.49.39.39 0 00-.53-.16 1.08 1.08 0 00-.49.72c0 .23-.05.47-.06.71a10.28 10.28 0 01-.1 1.75v.07h.09a.1.1 0 00-.08.08.59.59 0 00.14.3.85.85 0 00.77.27h.09a.66.66 0 00.56-.93zm-.73-1.66v-.05zm-.26.13zm-.15 2.3v-.05s.01.04 0 .05zm.24-.7h-.14a.22.22 0 01.06-.07.11.11 0 01.08 0 .06.06 0 01.01.07zm.16-.85l-.14.16s-.12 0-.12-.05v-.1c0-.03 0-.1.1-.08a.51.51 0 01.15.07zm.07.35zm0-.94c-.05 0-.1 0-.08-.06s0 0 .08-.08l.07.1s-.09.04-.12.04zm.14 1.84h.05zm0-2.2h-.01zm0 1.55zm.16-1l.06.05-.08.07h-.06a.6.6 0 01.1-.11zm.14 1.62v-.18a.12.12 0 01-.08 0h-.11s.08-.06.13 0h.05v.18zM28 32.36a.59.59 0 00-.45-.69 3.22 3.22 0 00-.93-.14h-1.29c-1.11 0-2.21-.07-3.32-.12h-1.74a.18.18 0 00.08.12c-.09.05-.15 0-.15-.06v-.11a8.2 8.2 0 01-1.1-.11.45.45 0 00-.56.28 1 1 0 00.17.9.46.46 0 00.19.18.15.15 0 01.24.08h.31c.91.05 1.82 0 2.74.05h.05v.05h.28c.52 0 1 .13 1.56.12h2.33a5.59 5.59 0 001-.05c.42-.1.59-.21.59-.5zm-9.39-.74zm.14.18a.13.13 0 010 .06c-.1 0-.14 0-.15-.08a.06.06 0 01.08-.07c.04 0 .09.05.07.09zm.81-.22zm1.2-.07zm.27 1h-.07c-.07 0 0 0 0 0l.06-.05c.06-.05 0 0 .05 0a.18.18 0 00-.05-.07v-.16c0-.04.09 0 .13 0l-.11.19zm.27-1h-.05c-.05 0-.08 0-.09-.07s.07 0 .1 0a.07.07 0 01.04.08zm.11.76zm1.87-.75h-.06v-.05zM23 32.77zm.07-.2c-.09.09-.21 0-.3.07 0-.11.11-.16.11-.27s.13-.13.21-.06.17.12.25.18c-.04.14-.17 0-.24.08zm.51.24h-.05a.06.06 0 010-.06.05.05 0 01.05 0c.09 0 .14-.14.25-.11.06.02-.1.15-.22.17zm.26-1.22v.05zm.1.51zm.18.14v-.05zm.52-.21zm.06.59v-.05s.04.03.03.05zm.3-.32l-.24-.12.08-.07s.08-.1.16-.06a.2.2 0 01.09.19s-.04.08-.09.06zm2.12.44zm-7.05-6.16a.69.69 0 00.11.75.84.84 0 00.59.36 8.7 8.7 0 001.69.23c.79.06 1.58 0 2.37.16a.73.73 0 00.34 0h.1a.6.6 0 00.21-.45 1 1 0 00-1-1.15h-2.09a13.5 13.5 0 01-1.56-.15.68.68 0 00-.76.25zm2.78-.19s.07.06 0 .09 0 0-.05 0a.2.2 0 010-.08zm-.75.71h-.07A.13.13 0 0122 27h.05a.25.25 0 010 .07s.06.03.05.03zm-.1-.32h.07a.9.9 0 01-.05.09zm.09-.38h.1c.03 0 .08.12.13.18-.14 0-.21-.08-.33-.09zm-.33.81zm2.11 2.5h.07l-.07.06a1.4 1.4 0 00.19.46.63.63 0 00.94.31 1 1 0 00.36-1.54.76.76 0 00-.92-.25 1.05 1.05 0 00-.57.89zm24.21 1.51h.01v-.01l-.01.01zm3.99-4.75a.43.43 0 00-.19-.13v-.12a.38.38 0 01.25.09.71.71 0 000-.15v-1.35a.3.3 0 010-.08h.07V23.2c0-.37-.06-.83-.1-1.24a19.66 19.66 0 00-1.19-2.22l-.24-.36c0 1 .1 2 .17 3s.08 2 .06 3.05c.09 0 .14.05.12.11a.16.16 0 01-.08.08v.43c0 .58.21.81.79.78.08-.01.27-.11.34-.36zm-1.46-4.77zm.09-.33zm.07 2.63zm.39-1.05h.05-.07zm-.06-2.46zm-.1 1.2l.07-.08v.06c0 .06 0 .09-.06.06s-.01-.04-.01-.04zm0 1.86a.11.11 0 01.15.06.79.79 0 000 .13s0 .09-.09.11a.1.1 0 01-.13 0c-.09-.14-.08-.22.07-.3zm-.07 1a.08.08 0 01.08 0 .57.57 0 01.08.08h-.14s-.06-.04-.05-.05zm.21 1.64zm.21-.6l-.23-.13a.15.15 0 010 .17h-.11a.05.05 0 01-.05 0v-.05l.17-.12c.17-.09.18-.08.19.13zm.61-2.24zm-.33-.61v.05-.07s-.04.04-.03.05zm.07 3zm-.07-1.26zm.08 2l-.07-.1v.09s.04.09.04.1zm.09-.47c-.08 0-.07.12-.14.15a.08.08 0 01-.08 0 .15.15 0 010-.22c0-.05.14 0 .19 0s.01.16 0 .16zm0-.86s-.07-.07-.1-.11 0 0 0-.05l.11-.15c.07.14.06.26.2.31l-.09.06-.08.09c-.09.04-.04-.02-.07-.06zm.11 1.46v-.06c0-.05 0-.07.08-.07v.06zM43.51 30c-.61-.57-1.24-1.13-1.8-1.75a4.62 4.62 0 00-.78-.62 1.43 1.43 0 00-.49-.17.55.55 0 00-.48.14c-.13.13 0 .26.09.38a1.33 1.33 0 00.2.37l1.53 1.76c.5.57 1 1.12 1.5 1.71l.41.52h.06c.09 0 .12 0 .16.09a.45.45 0 00-.14-.1c.21.27.41.54.62.8a.65.65 0 001.11-.08 1 1 0 00.17-.59.87.87 0 00-.33-.7 6.52 6.52 0 01-.92-.9c-.33-.29-.61-.6-.91-.86zm-2.45-2.2c-.05 0-.11 0-.1-.09a.3.3 0 010-.06c.04.02.12.08.1.13zm.13.87zm.92.81zm.33-.12v-.06l.09-.08v.07zm.39 1.22a.34.34 0 01-.23-.11.06.06 0 010-.06.15.15 0 010-.06.16.16 0 01.15 0c.08.06.15.13.28.1a.3.3 0 01-.2.11zm.52 0a.06.06 0 01-.06-.06.06.06 0 01.06-.07h.06c.06 0-.01.11-.06.1zm.27 0v-.13h.05a.15.15 0 010 .09.07.07 0 01-.05 0zm.21.57h-.15c-.01 0 0-.06 0-.09l.07-.05h.06a.24.24 0 01.02.1zM44 31a.2.2 0 01.13.15h-.11A.5.5 0 0144 31zm.1.86v-.07c0-.02 0 0 0 0l.07.07s-.08 0-.1-.01zm.2-.2zm1.09 1.26h.11v-.1a.13.13 0 01.12 0v.1h-.17zm-.21-.61zM45 33v.06zm-.49-.11v.06zm0-.62h.29s0 .16-.11.19a1.32 1.32 0 00-.27.13.3.3 0 01.17-.3zM40 16.93a.19.19 0 00-.2 0 1.08 1.08 0 01-.55.12 3.25 3.25 0 01-.44 0 .71.71 0 00.37.29 7.3 7.3 0 001.24.21s0-.07.07-.07h.12v-.07a.21.21 0 01.15 0h-.17v.06c.63-.05 1.26-.14 1.89-.25a.53.53 0 00.36-.25h-.17c0-.09.05-.1.09-.12s.1 0 .08-.07-.07 0-.11 0a.3.3 0 00-.33.11s-.06.09-.09.1a.16.16 0 01-.19-.07h.26a.14.14 0 00-.15-.11h-.32c-.11 0 0 0-.05-.06a.07.07 0 01.05 0h.99a.91.91 0 00-.74-1 .45.45 0 01-.07.07v-.09a.77.77 0 00-.3 0 9.26 9.26 0 01-2.39.34.93.93 0 00-.74.46.24.24 0 000 .24c.24-.07.5 0 .74-.1a.26.26 0 01.15 0 1.08 1.08 0 00.56.06.56.56 0 01.4.05h.13c.04 0 .07.06.12.09a.46.46 0 01-.33 0 .32.32 0 00-.27 0h.06s-.22.13-.22.06zm1.72-.93zm-.24-.12c.05 0 .12 0 .11.1s0 0 0 .05-.13 0-.13-.06a.11.11 0 01.02-.05zm-.06.94c0-.05.08 0 .12 0s-.07.09-.13 0l.01.04zm-.26 0s.07.05 0 .09 0 0-.07 0a.52.52 0 010-.11s.06.01.07.02zm-.08.23s-.01.01 0 0zm-.13.26zm-.74-.08v-.06zm0 .22zm1.44 8.89h.17-.16zm-3.41-8.83v-.01.01z" fill="#281e53"/><path d="M46.85 32a2.13 2.13 0 00.49.1h1v-.07c.14 0 .24-.07.35-.08l.28.14h.74v-.06h-.07c-.01 0 0-.13-.06-.21l.23-.05c-.11.17-.11.18-.1.3a.55.55 0 01.18 0H50a9.43 9.43 0 002-.13 2.87 2.87 0 001-.24.47.47 0 00.31-.54.7.7 0 00-.88-.68c-.41.08-.83.14-1.25.18a1.83 1.83 0 01.17.42L51 30.9a.14.14 0 010-.09h-.1c0 .05-.11.08-.15.06l-1 .07a.15.15 0 01-.09 0 .09.09 0 01-.06 0l-.88.05h-.05a6.06 6.06 0 00-1.7 0 1.1 1.1 0 00-.35.2c-.57.41-.19.7.23.81zm5.64-1.2v.05h.01s-.02-.01-.01-.01zM51 31.94zm-.34-.51zm-.08-.19zM50 31a.11.11 0 01.14.1L50 31zm.09.27s0 .05.06.09H50a.09.09 0 010-.08c0-.06.06-.09.11-.06zm-1.69 0zm-.4.58h-.09.16c.03 0 0 0 0 0l-.07-.02zm0-.78l.05.17-.13.07a.07.07 0 01-.05 0c0-.15.04-.22.13-.26zm-10.36-4.61a1.48 1.48 0 00.86.12 21.12 21.12 0 012.52-.2.21.21 0 00-.16-.1.29.29 0 01.3 0h.11c.08.1.22 0 .31.09.08 0 .17-.05.23 0h.26a.67.67 0 00.63-.74.56.56 0 00-.61-.58 3.74 3.74 0 00-.58 0h-1.19v.05h-.11a.15.15 0 01-.08 0v-.05a6.62 6.62 0 01-.77 0 9.41 9.41 0 00-1.3 0 1.62 1.62 0 00-.44.07.87.87 0 00.38 0c-.19.12-.19.12-.27.26l-.25-.24a.75.75 0 00-.43.69c.08.34.31.51.59.63zm4.56-1.36a.08.08 0 01.11 0v.15c0 .05 0 .12-.06.16s-.1 0-.09 0-.1-.16-.17-.25zm-.73.75h.1c.02 0 0 0 0 .07a.19.19 0 01-.08 0s-.07-.05-.02-.07zm-.27-.33a.15.15 0 010 .07.15.15 0 00-.06 0 .12.12 0 01.06-.07zm-.7.46zm.27-.5s-.01 0 0 0zm-.25-.14a.28.28 0 010 .15s0 .08-.06.13a1.12 1.12 0 010-.13c-.03-.07.04-.17.06-.15zm-.43.28zm0 .27zm-.09.41c0-.13 0-.16.12-.12a.6.6 0 01.08.08h-.09a.2.2 0 01-.11 0h-.08zm-1.2-.93a.55.55 0 01.17.17v.1h-.3zm-.27.89s.07 0 .08.08a.14.14 0 010 .07h-.07a.31.31 0 01-.04-.15zm-.4-.39zm-.13-.31h.08l-.08.02zm-20 3.91a.79.79 0 00.62.57 14.15 14.15 0 002.82.37h.63l.09.07a.56.56 0 00.63-.52 1.2 1.2 0 000-.38 1.07 1.07 0 00-.44-.8.64.64 0 00-.66-.09 3.05 3.05 0 01-.9.08l-1.39-.05h-.71a.62.62 0 00-.69.75zm4.72 0h.11a.08.08 0 010 .08.26.26 0 01-.09.09h-.05c-.05 0 0 0 0-.06a.75.75 0 01-.02-.08zm-.22-.15a.17.17 0 01.09-.08c.05 0 .05.05.06.09a.1.1 0 01-.09.11.09.09 0 01-.11-.09zm-.09.21a.18.18 0 01-.07 0 .18.18 0 01.02.03zm-1.52.47zm-.43-.91l.06.08h-.08a.35.35 0 01.02-.06zm-.15-.09v.05a.07.07 0 010 .06h-.05zm-.33.93h.07a.17.17 0 010 .05v-.05H20a.09.09 0 010-.05zm-.87-.48c.06 0 .07.09.09.14.13.09.12.24.19.36l-.14.09a.55.55 0 01-.05-.45c-.08 0-.12 0-.13-.11zm-.07.54zm-.11-.55zM18.52 45a.81.81 0 000 .15.57.57 0 00.5.6.59.59 0 00.69-.28c.07-.11.12-.22.18-.33.22-.39.42-.79.65-1.16q.59-.94 1.2-1.86a.2.2 0 010-.08c.41-.63.81-1.26 1.18-1.91S23.68 39 24 38.42a.14.14 0 010-.11c0-.05.06 0 .11 0l.09-.14c0-.05 0-.08.05-.09.26-.39.52-.79.77-1.19a.39.39 0 000-.44.7.7 0 00-.57-.44.64.64 0 00-.64.34c-.21.35-.39.71-.6 1.07-.09.16-.19.31-.29.47a15.75 15.75 0 00-.89 1.4c-.83 1.46-1.77 2.85-2.74 4.22-.22.32-.46.64-.67 1a.92.92 0 00-.1.49zm5.22-7.78h.05-.05zm-.45 1.89h.05-.05s-.01.03 0 .03zM21 42.89h.05s-.05.01-.05 0zm.17 0v-.06zm.55-1.16s-.09 0-.08-.08a.12.12 0 01.12-.08h.06c-.03.15-.05.19-.11.19zm1.18-3.37zm-.27.29zm0 .24zm-.45 1.47a.45.45 0 01.07.07.19.19 0 010 .08v-.06c0-.06-.08-.01-.08-.06zm-.58 0h.11a.28.28 0 00.27.18.16.16 0 01.07.07c.1 0 .08.12 0 .18s-.1.14-.15.21a.42.42 0 01-.12-.26c0-.07-.06-.07-.11-.08s-.07 0-.06 0a.18.18 0 00-.07-.22.11.11 0 01.05-.1zm-.23 2.26a.51.51 0 00-.3.06h-.08a.11.11 0 010-.14s.08-.07.11 0a.29.29 0 00.28.07zm-.51-1.3a.16.16 0 01.09-.07h.22a.08.08 0 01.05.14v.05l-.07.06c-.05-.06-.09-.12-.17-.11s-.15-.03-.13-.09zm-.37 1.3zm0-.6zm-.28.66s-.04-.03-.03-.02zM20 44.33zm-.1-1zm-.43 1.32h.06-.05s-.04-.03-.03-.03zm-2.17 2.92c.1.35.25.48.71.45h.32a.15.15 0 01.09 0h.68a.86.86 0 00-.07-.21c0-.06 0-.12.09-.12a.43.43 0 01.16 0 .24.24 0 00.27-.1c.1.08.12.23.25.28a.08.08 0 010 .08l1.82-.13c1.09-.08 2.18-.17 3.26-.27s1.89-.19 2.83-.3h.09a.24.24 0 01.09-.08.09.09 0 01.15 0l.51-.11c.15 0 .28-.09.3-.26v-.11h-.05a.76.76 0 00-.39-.57h-.06v-.05a.47.47 0 00-.2 0h-.57l.06.12h-.07a.33.33 0 01-.13-.12h-.11a.11.11 0 01.06.09c0 .05-.11.1-.19.08a.49.49 0 00-.22-.1.71.71 0 00-.24.06h-.29a.07.07 0 010 .08.35.35 0 01-.17.24h-.05a.65.65 0 010-.24h-.43s-.05.08-.12.07v-.06H25a.07.07 0 01.05 0v.23l-.05-.21-.82.07h-.91c-.39 0-.78.07-1.18.09-1 .06-2 .16-2.94.16H17.9l-.06-.09a.6.6 0 00-.47.35c.07 0 .11.07.15.11l.06.1a.33.33 0 01-.1.06.2.2 0 01-.11 0v-.09a.21.21 0 000-.07.64.64 0 00-.07.57zm11.2-1.32a.2.2 0 01.12.19s-.07.06-.1.05a.16.16 0 01-.02-.24zm-.5-.12h.12H28a.12.12 0 010 .08.23.23 0 01-.07.1.28.28 0 01-.07-.09c.03-.08.06-.11.14-.09zm-.68 1zm-.32-.36s0-.05.06-.05h.15v.06c0 .06 0 .06-.05.06a1.15 1.15 0 01-.17-.06s.01 0 .01-.01zm-.21 0l-.05.06v-.06zm-.57 0l.08-.08.07.11s-.07.06-.1.06a.06.06 0 01-.02-.12zm-.42.28zm-.33-.39a.16.16 0 01.07-.09.08.08 0 01.08 0 .18.18 0 01.06.08s0 .09-.08.12a.13.13 0 01-.11 0s-.02-.1.01-.14zm-.57.3zm-1.9.44zm-1.17-.4v.05h-.05zm-.6.65a.14.14 0 010 .06v-.05zm-.5.05h.05v.05h-.05s-.01-.03 0-.04zm-1.36-.29v.08a.09.09 0 010-.07zM19.2 47h.06-.05zm-.36 0c0-.06.1-.07.19 0s0 0 0 .05-.16.07-.19 0a.08.08 0 010-.05zm-.65.08zm-.29.92zm-.07-.8s-.01-.05 0-.05zm2.42-9.84h.42c.5-.11 1-.2 1.5-.28s0-.08 0-.16a1.14 1.14 0 01.08.16l.38-.06a1.86 1.86 0 00.46-.13.58.58 0 00.36-.51.61.61 0 00-.48-.71 3.56 3.56 0 00-1 0l-.31.09a.19.19 0 010 .07s-.06 0-.05-.09l-1.44.39a.07.07 0 01-.07 0 .25.25 0 01-.12 0 1.18 1.18 0 00-.29.16h-.09a.46.46 0 00-.07.6.69.69 0 00.72.47zm2.15-1.23zm-.53-.1zm-.05.37h.05-.12a.15.15 0 01.07 0zm-1.35.2zm-.11-.39l-.07.05zm-.22.18zm-.64.22zm9.21-9.54L27.58 27a.76.76 0 00-.7.42.46.46 0 00.23.67 1.24 1.24 0 00.31.1 7.63 7.63 0 001.52.18 1.86 1.86 0 00.88-.08.51.51 0 00.18-.85 1 1 0 00-.58-.31zm-.86.85zm.59.1l-.15.08-.05-.1.12-.1h.1a.08.08 0 01-.02.1zm.61 0v-.06c0-.06 0 0 .05 0l.08.06s-.11-.02-.13-.02zm.68-.1a.08.08 0 01.11 0 1.17 1.17 0 01.05.11h-.11l-.09-.03s.02-.08.04-.1zm-.24-.51a.09.09 0 01.05 0h-.05zm0 .52c0 .05-.07.1-.14.11a.33.33 0 010-.14h.13c.03 0-.04.01-.03.01zm-9.64 6.61v.06h.07v-.05h-.07zm-.03.07zm.18 1.54zm10.17-5.45c-.07 0-.1.06-.12.06l-.34.47c-.18.26-.4.48-.59.74s-.2.51 0 .65a1.86 1.86 0 00.59.38.38.38 0 00.46-.15c.58-.8 1.19-1.59 1.74-2.43a.86.86 0 00.1-.16v-.05c0-.05 0-.13.08-.14h.05A18.44 18.44 0 0133.59 28h-.31c.14 0 .28-.06.42 0a2.09 2.09 0 01.2-.22 1.12 1.12 0 00.2-.46v-.15a1.33 1.33 0 00-.35-.36l-.16.06a.1.1 0 01-.07 0 .09.09 0 010-.11 1 1 0 00-.18 0 .73.73 0 00-.78.4c-.33.61-.7 1.21-1.08 1.79a1.07 1.07 0 01.09.27v.07l-.24.07-.06-.06c-.06-.06 0 0 0 0l-.34.5.22.12a.18.18 0 00.12 0c.12-.06.18.07.28.09s0 .06 0 .08a.13.13 0 01-.14.1.66.66 0 01-.34-.06c-.09-.05-.1-.15-.17-.21a.19.19 0 010-.08l-.72 1zm-.52 1.3zM33 26.59h.08v.05h-.16a.1.1 0 01.08-.05zm-.31 1.2l.08.07v.06c0 .01-.07 0-.07-.07s.01-.04.02-.06zm-.91 1.34zm-.63.31zm-.32 1.3a.21.21 0 01.14 0 1.79 1.79 0 01.14.18v.05h-.05a.22.22 0 01-.21-.15c-.02-.03-.03-.09.01-.08zm-.29.66l.09.07h-.06l-.08-.07zM46.62 29s.08.07.05.14a.17.17 0 01-.16.11h-.13a1.1 1.1 0 000-.18 1.17 1.17 0 00-.2.06c-.19.08-.32.38-.21.53s.25.41.54.42h.34A7.62 7.62 0 0048 30l1.36-.09v-.05h.07v.06h-.06l1-.07.53-.05h.05a.15.15 0 01.09 0c.62-.06 1.24-.12 1.85-.22h.09a.08.08 0 010-.05l.9-.17c0-.42-.08-.83-.14-1.24a32.36 32.36 0 01-3.26.46c-1.07.09-2.13.22-3.19.29a.24.24 0 00.15.24l-.06-.07c-.1-.06-.17 0-.2.09v.1a.83.83 0 00-.16-.12h-.19l.07-.2h.1v-.06h-.4zm-.44.38zm.34.65zm7.19-1.18v-.05zm.12.54v.06h-.08a2.45 2.45 0 01-.11-.3.37.37 0 01.19.2zm-.74-.39h.06c.06 0 0 .12-.1.11a.11.11 0 01.04-.11zm-.85-.25v.06zm-.24-.07zm-2 .63l.06.05v-.06s-.06 0-.06.01zm-.29.57zm-.71-.95zm-.24.51a.12.12 0 01.16.14h-.06a.16.16 0 01-.13-.11s.01-.03.02-.03zm-1.35.46zm-.64-.45h.05a.29.29 0 010 .09.14.14 0 010-.09h-.06zM10.7 37.51a8.64 8.64 0 01-.88 0c.13.45.26.89.41 1.32h1.29l-.09-.09c.05-.1.18 0 .2-.15l.08.2c.24-.07.31-.23.28-.55a.75.75 0 00-.46-.62 1.58 1.58 0 00-.83-.11zm-.23.22l-.13.05-.15-.05v-.09h.06c0 .05.1.12.15 0h.08a.07.07 0 01-.01.09zm.95-.11h.1c0 .09 0 .11-.1.13a.13.13 0 01-.07 0 .09.09 0 01.07-.13zm27.17-13.54c.26 0 .27 0 .44-.11a6.68 6.68 0 00.74-.67l.12-.13L40 23l.48-.53s-.11-.05-.09-.11a.19.19 0 01.09-.12.36.36 0 01.15 0 .12.12 0 01.09 0c.48-.53 1-1.05 1.42-1.6s.86-1.07 1.32-1.59a.22.22 0 000-.14.37.37 0 010-.15.12.12 0 010-.07h.08c0 .08.07.11.08.18l.16-.17.31-.32c.33-.33.24-.67-.17-.88a.92.92 0 00-1.18.3l-.14.22v.06a.33.33 0 01-.13.07 9.5 9.5 0 01-.62.8 1.72 1.72 0 00.6 0s.05 0 .07.05a.51.51 0 01-.48.14.73.73 0 00-.33 0l-.19.23c-.55.69-1.11 1.37-1.67 2.05H40a.06.06 0 010 .06c-.09.12-.17.13-.28 0l-.06.08c-.37.45-.76.89-1.14 1.33a1.19 1.19 0 00-.3.73c.02.38.09.45.37.46zM43.85 18h.08l-.05.05zm-.13-.26h.09-.07zm-.18.26l-.36.09c-.11 0-.16-.05-.27-.16zm-.77 0s.11.06.1.09-.12-.07-.11-.1zm0 .77s.04 0 .05.02zm-.11.42a.58.58 0 010-.1s.09-.06.13 0 .09.06.08.11a.15.15 0 01-.08.16c-.02.01-.09-.03-.08-.15zm-.68-.3a.43.43 0 000-.05zm.34 1.15zm-.7.45s.07.06.08.1 0 .09 0 .11-.07 0-.11 0h-.11zm-.7.21c0-.06 0-.12.06-.12h.1c.03 0 .11.1.07.19s-.08.11-.21.09 0 0-.05 0a1.13 1.13 0 00.11-.14zm-.1.56h-.06zm-1.52 1.83s-.1-.05-.07-.07a.08.08 0 01.08 0l.08.05zm.54-1.3zm-.69.71c0-.05 0-.1.1-.1a.27.27 0 01.12 0c.09 0 .22 0 .3-.09s.1 0 .16 0a.22.22 0 00.11 0s.05-.05.08 0a.37.37 0 010 .11v.05h-.13a.08.08 0 00-.09.07c0 .07 0 .1-.1.06a.28.28 0 00-.44 0h-.06s-.05-.08-.05-.1zm-.18.36h.05c.05 0 0 0 0 0a.29.29 0 010 .27c-.07 0-.08-.07-.09-.12a.77.77 0 01.07-.15zm-.06.51a.27.27 0 01.09-.07.57.57 0 010 .13h-.07a.11.11 0 01-.02-.06zm-.17.68zm-.07-.92v.05h-.07s.05-.04.07-.05zm0 .57v-.05zM20.61 49.68a3.65 3.65 0 01.47 0 1.48 1.48 0 01.42 0h.39a2.09 2.09 0 01.56-.06 1.37 1.37 0 00.28 0 .81.81 0 01.22 0l1.11-.07 3.94-.34a3.55 3.55 0 00.65-.12h.16-.26v-.18a2 2 0 01.32 0c0-.1 0-.21-.15-.26l-.17-.08a3.53 3.53 0 00-1.25-.25h-2.87v.06l-.06.06c-.06.06-.05 0-.06 0l-.06-.08h-.96c-1.53 0-3.06.21-4.6.22a1.92 1.92 0 00-.32 0 .66.66 0 00-.5.72h.08a.25.25 0 00.15 0c.07 0 .12-.12.2-.08a1.73 1.73 0 01.28.19.13.13 0 000 .05l-.08.07a.15.15 0 01-.09 0c-.08 0-.15-.13-.25 0l-.29-.07.47.35h.65c.21 0 .46-.06.69 0a1.66 1.66 0 01.22 0 .11.11 0 010 .07l.7-.08a.06.06 0 01.01-.12zm7-.6v.05zm-.28 0zm-.18 0zm-.62-.56v-.07s.05 0 0 .08 0 0-.06.07.06-.08.07-.11zm-1.06.61h.06c.06 0 .12 0 .11-.07a2.21 2.21 0 000-.29c.13.11.13.11.15.41a.38.38 0 01-.27 0s-.08-.06-.07-.09 0 0 .03.01zm-1.08.09zm0-.38zm0-.2zm-.09.37h.08a.15.15 0 01-.07 0zm-.26 0l.01-.01zm0 .22h.06-.1zm-.83-.51s-.05.01-.02.01zm-1.07.07v.06zM22 49zm-.25 0h.05zm-.13-.29h.09c0 .05-.09.13-.13.11a.13.13 0 01-.08-.08c-.07.02-.04-.02.08-.01zm-2.27.64s0-.07-.08-.08a.55.55 0 00-.22 0 .63.63 0 00-.17.08v-.26c0-.08.06 0 .06 0a.6.6 0 00.22.09.19.19 0 01.16.2zm.35.18h-.08c.06 0 .07 0 0 .07zm.63.15v-.05h.05zm27.26-33.92l-.33-.33a.49.49 0 00.33.33zM13 43.4a1 1 0 00-.38.39c.3.46.62.92 1 1.36 0-.4-.08-.8-.14-1.19a1.11 1.11 0 00-.12-.45c-.07-.12-.19-.21-.36-.11zm35.43-25.97a1 1 0 00-.54.2l.06.07c.06.07-.07.09-.12.08s0 0-.06 0a.62.62 0 00-.19.48v.39l.05.05v1.52a6.42 6.42 0 010 1.24.88.88 0 000 .23s.07.05 0 .1a.1.1 0 010 .05c0 .1.05.2.06.3a.51.51 0 00.21.28.49.49 0 00.25.08.36.36 0 00.38-.29 5 5 0 00.25-.92c.16-1.05.25-2.1.31-3.16.12-.5-.09-.73-.66-.7zM48 19.84zm.08-.65c0 .08-.09.11-.14.06a.31.31 0 00-.27-.09v-.05a.09.09 0 010-.05h.26c.08 0 .07-.06.07-.06s0-.09.06-.07.06.08.09.11-.02.09-.04.15zm.11-.46v-.05a.17.17 0 01.03.05zm.05.34zm.16-1l-.5.07c-.07 0-.15 0-.24-.05a.23.23 0 01.27-.11.89.89 0 00.46 0s.05.02.04.02zm0 3.76zm.07.26a.41.41 0 01-.05-.11s.12.02.1.07zm.1-.27zm.06-1.31zm.23.33zm0-1.56v-.06a.37.37 0 010-.11h.05a.12.12 0 01-.01.13z" fill="#281e53"/><path d="M17.52 34.3a1.79 1.79 0 00.22.38.14.14 0 01.09 0 .2.2 0 01.09.07.08.08 0 010 .08.58.58 0 00.47.19h1c.87 0 1.74-.1 2.61-.11h1.21s-.05 0-.07-.06a.14.14 0 01.17.11h6.25c.05-.07.05-.07.19 0h.73a.12.12 0 010-.07s0-.06.05-.06a.57.57 0 01.13.08h.45a.37.37 0 00.36-.41 1.13 1.13 0 000-.32.76.76 0 00-.7-.48h-.42c-.73 0-1.46 0-2.19.06a.58.58 0 01-.19.37c.1-.05.17 0 .25.06a.06.06 0 010 .06l-.07.12-.18-.24c-.1-.08 0-.2-.07-.3s0-.08.09-.11c-1.34 0-2.68 0-4-.06-.84 0-1.68-.07-2.52 0a11.87 11.87 0 01-3.26-.11.57.57 0 00-.69.75zm13.33-.38a.11.11 0 01.07-.06 1.39 1.39 0 01.15.19c0 .08 0 .13-.08.19h-.14l-.06-.06c.15-.11.03-.18.06-.26zm-.24.28h.05v.09h-.06a.19.19 0 010-.08.08.08 0 01.01-.01zm-.78.5zm.26-.92h.05a.1.1 0 01-.05 0zm-.36.31c.09 0 .1-.17.23-.11s.06 0 .15.25h-.19c-.03 0-.06-.1-.12 0s0 .06-.06.08-.14 0-.14 0a.21.21 0 010-.13s.1-.08.13-.09zm-.1-.31zm-.37.4h.07l-.06.05s-.02-.05-.01-.05zm-.39-.27h.05-.05zm-.19.23a.08.08 0 01.08 0c.1 0 .15 0 .16.12s0 .05-.05.06a.14.14 0 01-.18-.06.15.15 0 01-.01-.12zm-.17.48zm-.26-.62h.14a.26.26 0 01.09.23h-.07a.11.11 0 01-.08 0 .56.56 0 01-.09-.17.26.26 0 01.01-.06zm0 .52zm-.66.34l-.01.03zm-.13-.53h.08v.1a.11.11 0 01-.09-.07zm-.13.12a.43.43 0 000-.05zm0-.24zm-.33 0h-.1.05zm-.5-.37zm-.69.5s0 .12.08.17a.11.11 0 010 .06h-.08l-.09-.22a.08.08 0 01.04.03zm-1.9-.07a.08.08 0 01.12-.05c.1.08.09.16 0 .23a.13.13 0 01-.09 0zm-.28.34v.06zm-.13-.6zm-.16.44h-.07c-.02 0 0-.05 0-.07s0 0 .08-.06a.51.51 0 01-.06.17zm0-.42h-.06a1.36 1.36 0 01-.12-.12.15.15 0 01.1.16zm-.34-.2h.03-.06zm-.59 0s.21 0 .26.09 0 .06 0 .08-.06 0-.09 0h-.09a.15.15 0 01-.05-.16zm-.06.48v-.19a.07.07 0 01.05 0h.07a1.55 1.55 0 010 .22s0 .1.1.09h.2v-.12h.05c0 .1.07.19.09.29s0 .12 0 .2c-.19-.12-.32-.32-.57-.23s0-.06 0-.09-.11-.07.04-.16zm-.13-.23s.01.02.03.01zm-.38.36l.05.06h-.07zm-.37.06h-.33a.61.61 0 00.36.01zm-.34-.45a1 1 0 01.11.17l-.11-.18zM21 34v.14h-.06A.12.12 0 0121 34zm-.51.36a.24.24 0 010-.12v.07a.53.53 0 010 .17v.11l-.07.15c-.01-.15 0-.27.02-.39zm-.31-.52c.07 0 .1 0 .08.06l-.06.06a.08.08 0 01-.1-.06c-.1-.08 0-.06.03-.07zm-.68.24c0-.08.09-.14.14-.23s0 0 .05.07.08.13.22.09.09 0 .1 0h-.05c-.08 0-.14 0-.13.15a.39.39 0 010 .15c.09 0 .12-.09.15-.16a.08.08 0 010 .11l-.09.15v.1a.29.29 0 01.24 0 .08.08 0 010 .06.34.34 0 01-.14 0 .32.32 0 00-.3 0 .08.08 0 01-.11 0c0-.09-.11-.12-.19-.18.13-.05.25 0 .36 0v-.05l-.09-.1a.19.19 0 01-.18-.14s0-.07-.08-.07.03.08.05.04zm0 .16l.05.05v.11a.06.06 0 01-.06 0 .83.83 0 01-.03-.17zM19 34l.08.06v.05L19 34zm0 .65a.1.1 0 01.05 0H19zm-.19.07a.2.2 0 01-.08 0v-.13h.06zm-.09-.83h.05-.05a.09.09 0 01.02.01zm0 .3h.05v.05h-.05zm-.1.4h.13-.13zm-.26-1zm0 .42a.37.37 0 01.23.23s0 .08-.05.08h-.2s-.06 0-.06-.08-.01-.24.03-.18zm-.6.37h.07v.05l-.07-.09zM50.44 38a.22.22 0 010 .09.09.09 0 01-.05 0h-.18s-.07.05 0 .09l.07.06c0 .06 0 .13-.05.13a.57.57 0 00-.29 0 .47.47 0 000 .17.93.93 0 00.56.45V39a.93.93 0 00.39.06.39.39 0 00.32-.15l.3-.25s-.08-.08 0-.12a.17.17 0 01.14 0h.06l1.5-1c.1-.34.18-.68.26-1h-.13a.13.13 0 010-.07v-.06h.16c0-.19.09-.38.12-.58a.11.11 0 010-.06.43.43 0 010-.11c-.39.31-.79.61-1.2.89l-2 1.3-.2.15a.34.34 0 00.22 0zm1.77-.15h.12c.02 0 0 0 0 0a.1.1 0 01-.13 0s-.01-.05.01-.05zm-.49 0a.07.07 0 01.05 0s.07 0 .07.05a1.29 1.29 0 00.08.39v.05c-.06 0-.15 0-.15-.12a.17.17 0 000-.14c-.11-.17-.08-.22-.05-.26zm-.68.72l.19.05h-.2l-.03-.08zm-.4-.76a.14.14 0 01.09 0 .07.07 0 01.07.08s0 .06-.07.08-.11-.16-.09-.19zm0 .21c.08 0 .08 0 .09.1a.56.56 0 010 .12.07.07 0 01-.06.09c-.06 0-.1 0-.1-.07v-.09s0-.17.1-.17zm.1.58v.07c0 .07 0 0 0 0l-.22.07-.2-.07zM12 39.92a.16.16 0 010 .08h-.15c-.22.3-.46.6-.69.89.19.42.4.83.61 1.23.33-.39.66-.79 1-1.17h-.07l-.17-.08a2.16 2.16 0 01.26-.08l.06.06.14-.16a.5.5 0 00.14-.56.73.73 0 00-.66-.45h-.09a.08.08 0 01-.1-.07.81.81 0 00-.33.14zm-.73 1zm.53.49zm.28-.49h.06s.06.08 0 .1H12v-.1zm-2.22-5.17a.08.08 0 01.1.08h.48c.47 0 .65-.26.57-.72a.67.67 0 00-.27-.43 1.23 1.23 0 00-.82-.31 4.57 4.57 0 01-.74 0c.06.47.14.93.22 1.39h.3c.04-.01.1-.01.16-.01zm31.8.73h-.09l.06.06a1 1 0 01.18-.06.12.12 0 00-.15 0zm5.55 3.3a2.75 2.75 0 000 1.53l.21.06c.08 0 .07.07.05.14s0 .13-.09.08-.11 0-.15 0a6.08 6.08 0 010 .61s.06 0 .06.08 0 .23-.08.2v1.3h.08a1.62 1.62 0 00.44.07v.06c-.14-.07-.27 0-.4 0h-.11v1.11a1.64 1.64 0 01.54 0h.06a1.06 1.06 0 00.58.08v-.83a.42.42 0 01-.25-.12l.23-.05v-1.14a.23.23 0 01-.18 0v-.08c0-.02 0 0 .06 0l.14.1v-.71l-.07-.05.07-.07v-.53a2.36 2.36 0 00-.11-.63h.01-.13c-.02 0 .06 0 .08-.07a9.76 9.76 0 00-.46-.91c-.12-.39-.42-.63-.58-.23zm.49 3.12v-.1a.25.25 0 010 .07zm0-.75zm.09 2.2h.05a.43.43 0 00-.08 0zm.5-1.87zm-.06 1.39h.14-.17zm0-1.88a.08.08 0 01-.06.01zm-.07 2.66c0 .05 0 0 0 0l-.09.06c-.14.14-.28.1-.45 0a.86.86 0 01.34-.09h.23zM48 42.19zm0 1.51zm0-2.18a1 1 0 01-.17.14h-.1a.06.06 0 010-.1c.11-.08.18-.15.27-.04zm-.2-.52s-.06.06-.09.05a.66.66 0 01-.13-.08l-.07.07a.09.09 0 01-.13 0l-.19-.14a3.19 3.19 0 01.34-.11.14.14 0 01.09 0l.15.09s.04.12.03.12zm-.11-.85c.05 0 .1.05.08.12s-.05.11-.12.08h-.21a.08.08 0 01-.09-.07c0-.06 0-.08.06-.07a.55.55 0 00.28-.05zM36 31c-.06 1.14-.17 2.27-.29 3.4v.16a.13.13 0 01.17.1v.06c0 .06 0 .09.08.1a.29.29 0 01.28.29v.07s-.09.07-.15 0-.18-.07-.19 0-.05.14-.14.17h-.11c0 .3-.05.6-.07.89s0 0 0 .06c0 .54-.06 1.08-.08 1.62a8.64 8.64 0 01-.25 2v.13c.1 0 .15.09.21.16s.07.08 0 .13-.1.06-.16 0a.11.11 0 00-.11 0v.33a.54.54 0 00.83.39 1.21 1.21 0 00.25-.17.07.07 0 01.1 0 1 1 0 00.28-.64v-1.57a.09.09 0 010-.06v-.8c0-.42.06-.84.08-1.26s-.09 0-.1-.05a.13.13 0 010-.09.16.16 0 01.12 0v-.32c0-.11 0 0 0 0h-.05a.38.38 0 01-.09-.13.13.13 0 010-.1h.1a.12.12 0 01.1.05v-.26a.32.32 0 01-.23.13l-.16.06v.05c0 .05 0 0 0 0a.11.11 0 010-.05.32.32 0 000-.14c0-.19 0-.18.12-.22a.53.53 0 01.28 0v-.61h-.07a.57.57 0 00-.1-.31s0-.06.05-.06a.29.29 0 01.16.1v-.5c0-.16 0 0 0 0 0-.21 0-.42.07-.62h-.1s-.05 0-.05-.06.07-.1.11-.09a.09.09 0 01.05.07.29.29 0 010 .13H37l.09-1a10.5 10.5 0 000-1.38 3.36 3.36 0 00-.21-1.1c-.1-.26-.24-.32-.48-.24s-.43.23-.44.65c.04 0 .04.26.04.53zm.76 3.32h-.08a.11.11 0 010-.08v-.05c0-.05 0 0 0 0 .04.08.05.11.04.12zm0-.42s-.02-.01-.03-.01zm0-1.67a1.68 1.68 0 01.24.06s.06.06.07.1 0 0 0 .06-.08 0-.11.07 0 0 0 .07v.08l-.24-.11v-.22a.11.11 0 01.01-.12zM36.59 31v.08a.08.08 0 010-.08zm-.17 3.56v.05a.14.14 0 010-.06zm-.6 3.71a.47.47 0 01.06.09.11.11 0 01-.09-.1zm-.15-2.43h.05a.56.56 0 010 .08h-.07a.25.25 0 01.02-.09zm.09 3.29zm-.08-2h-.07s.06.02.07.03zm0 .47zm-.18 2.68zm-.13.64v-.05c0-.05 0 0 0 0a.93.93 0 01.16.11zm.47-.83c-.06.12 0 .23 0 .34v.06h-.07c-.08 0-.11 0-.06-.1s0-.13 0-.2a.11.11 0 01.09-.14c-.02-.05.06.04.05.07zm0-.15c-.08 0-.11 0-.07-.11a.94.94 0 01.09-.12l-.27-.06a.2.2 0 010-.09s.07-.06.1 0l.19.19v.26zm0-3.69a.33.33 0 00.17-.42h.14c0 .13 0 .26-.08.38s-.01.17-.16.07zm.17 4.3zm.23-.42c0 .15 0 .19-.14.19s-.1 0-.1-.15 0-.11.13-.11.18.05.18.1zm-.08-9.31zm0 2.88s.04.04.04.03zm0 .27s.08 0 .07.08-.05 0-.05 0a.2.2 0 01-.06-.07.14.14 0 00.09.02zM36 32.13h.05a.43.43 0 000 .03zm.08 1v.22a.16.16 0 01-.07.07s-.1.06-.14 0-.05-.1 0-.16 0-.14 0-.23.21.03.26.11z" fill="#281e53"/><path d="M38.87 34.08c.81.7 1.61 1.42 2.39 2.15a.23.23 0 00.21-.12h.08c.01 0 0-.06.07-.12s.09.08.11.12.13.08.22 0 .11 0 .09.09a1.13 1.13 0 000 .18c0 .07.07.09.16 0h.05c.06-.09.12-.05.18 0l.15.1v.07a.1.1 0 01-.07.05c-.06 0-.15 0-.17-.09l-.16-.11a.19.19 0 010 .08c0 .05 0 .08-.06.08s-.21-.08-.31-.12a.19.19 0 01-.11.12l.3.29a.37.37 0 01.23 0 .17.17 0 01.06.06.1.1 0 010 .07h-.1l.16.15c.19.17.37.35.55.53a.08.08 0 000-.1.11.11 0 01.08 0 4 4 0 01.37.35.93.93 0 01.08.2l-.07.07.09.1a.54.54 0 001-.25.57.57 0 000-.14l-.12-.06v-.11c0-.04.07 0 .08 0l.08.05a1 1 0 000-.24 1 1 0 00-.19-.38 7.41 7.41 0 00-1-1c-.43-.37-.85-.76-1.26-1.15-.12.08-.2 0-.26-.09l.09-.08c-.38-.37-.74-.77-1.14-1.12l-.23-.2a.14.14 0 01-.1-.08l-.9-.76h-.07v-.05h.05c-.19-.16-.37-.33-.55-.5a1.33 1.33 0 00-.38-.27.49.49 0 00-.21 0 .11.11 0 01-.12-.08c-.21 0-.37.07-.37.41a2.87 2.87 0 001.02 1.9zm3.29 2.72a.25.25 0 01-.09 0v-.06a.09.09 0 01.06-.06s.05.1.03.12zm2 .65zm-.12.36zm-.23-.9a.53.53 0 000 .13v.1a.08.08 0 01-.11 0zm-.25.27zm-.07-.58zm-.28 0s.03.02.04.01zm.06.83l.18.05a.11.11 0 010 .08c0 .08-.12.08-.22.1s-.05-.05-.06-.08.1-.14.14-.14zm-.4-1h.05c.05 0 0 .06 0 .06h-.14zm-.49-.63zm-.17.24a.08.08 0 01.08 0 .1.1 0 010 .07v.06h-.11s.05-.1.07-.17zm-.45-.39h.41c-.06 0-.12.06-.14.09a.16.16 0 01-.25 0l-.18-.11zm-.74-1h.06s.06 0 .07.07 0 .06 0 .07-.15-.06-.09-.1zm-.12-.14h.05-.05a.09.09 0 01.04.04zm-.3.44l.12.13a.15.15 0 01-.08-.08zm-.1-.33zm-.15.26h.09-.08c-.03 0 .02.04.03.04zm-1.06-.53zm.83-.86l.05.07h-.05v-.07zm-.4.63zm-.54-.73h.12a1.13 1.13 0 01.18.12c.09.08.09.09 0 .17s0 0-.06.07 0 0-.07 0a.19.19 0 01-.08 0l-.14-.07c0-.11.12-.12.28-.11-.19-.09-.33-.12-.37-.31zm5.69 8.44v.05a5.42 5.42 0 010 .57c0 .47 0 .93-.08 1.39 0 .5-.07 1-.1 1.52v.62a.2.2 0 01.13 0 .08.08 0 00.08 0c.12-.09.27 0 .4-.08l.23.12a.65.65 0 01-.45.11.47.47 0 00-.31 0h-.08v1.56s.06-.07.08-.06a1.32 1.32 0 00.44.08.13.13 0 01-.11.1h-.2c-.05 0-.14 0-.21-.08v2.01l.12-.06c.1 0 .11-.07.06-.16v-.05c0-.08 0-.11.08-.12h.07a2.89 2.89 0 010 .29l.87-.67a1.29 1.29 0 010-.19h.24v-1l-.06-.06h.06v-.58a.22.22 0 010-.08v-1.1a.09.09 0 01-.08 0v.09a.1.1 0 01-.13.06c0-.07 0-.09.1-.1h.16v-.75a.83.83 0 01-.21-.06.37.37 0 00-.18 0h-.31.09a1.08 1.08 0 01.56-.08H46l.06-.79h-.08v-.15c0-.05 0-.09-.13 0h-.06v-.08a1.74 1.74 0 01.11-.25h.24v-.58c0-.46.08-.92.13-1.43v-.2c0-.37-.22-.57-.66-.5h-.19a.72.72 0 00-.6.74zm-.14 3.35zm.09.51zm.22 3.5h-.22a.12.12 0 01-.13-.16 1.4 1.4 0 01.1-.16.14.14 0 01.26 0 .43.43 0 010 .19.12.12 0 01-.05.13zm0-2.1a.15.15 0 01-.18 0s0-.06-.05-.09h.14a.18.18 0 01.17.05zm-.22-.42a.09.09 0 01.05 0 .72.72 0 01.46 0h.13v.07s-.11.06-.17.08-.35-.13-.49-.15zm.57 1zm0 .57zm.36-1.23s-.05-.01-.05.05zm0-.31zm-.07 1h-.11zm-.2.8l.07-.09v.06zm.86-7.14zm-.14 1.39zm-.18-1.52zm0 .16zm0 .34h.13a.66.66 0 010 .14l-.13-.07a.22.22 0 01-.14-.01zm-.06.38h.18c-.07.11-.08.11-.17 0zm-.72 2.76zm.11-1h-.06.06zm.29.42v.17c0 .02 0 .16.05.25l-.11.07a.08.08 0 01-.13-.07 1.08 1.08 0 010-.18v-.14a.14.14 0 01.2 0v-.09s-.15.01-.15.02zm.29 0h.08a1.14 1.14 0 01-.11.11s-.06 0 0-.09-.16.01-.11.01zm-.23-3c0 .11.1.14.15.21a1.15 1.15 0 01-.19-.14s-.11-.06-.1-.09zm-.44.92h.06l.4.05a.12.12 0 01.06.2.2.2 0 01-.34 0l-.13-.13s-.22-.09-.19-.14zm0-.81zm-.36 3.3c0-.06.09-.11.13-.16a.61.61 0 01.07.1v.14a.25.25 0 01-.15 0s-.08-.05-.05-.08zM17.05 17.64l-.06.09v.15a1 1 0 00-.08.52c0 .31.16.52.4.57a.57.57 0 00.7-.34 3.05 3.05 0 01.28-.5c.22-.31.43-.63.63-.95s.47-.77.71-1.16h.06v-.06a.11.11 0 000-.07.06.06 0 010-.06l.06-.1c.24-.37.47-.74.7-1.11-.1 0-.17 0-.14-.07a.44.44 0 01.15-.08h.12a43.01 43.01 0 001.79-3.27l.11-.21c-.57.25-1.12.52-1.67.81-.11.21-.22.42-.34.62a.12.12 0 00.09.08v.08c0 .02 0 0-.06.07s-.05 0-.05 0l-.05-.1c-.27.48-.55 1-.84 1.44-.76 1.16-1.64 2.4-2.51 3.65zm.17 1.17s0-.07.08 0 0 0 0 .07zm.16-1.09h-.05a.28.28 0 010-.09h.05c.05 0 .29 0 .45.06-.15.1-.31.01-.45.03zm.85-.06zm.22.07a.43.43 0 000-.05v.06zm.14-.2h-.05a.13.13 0 010-.06.14.14 0 010 .06s.06-.02.05 0zm.46-1.85zm2.6-4.21a.16.16 0 01.08.16h-.06a.17.17 0 01-.02-.16zm-.34 1.06a.1.1 0 01.05-.06.41.41 0 010 .08h-.07s.02-.01.02-.02zm-.53 1.22h.1-.09l-.06-.06zm-.58.65a.11.11 0 010-.05s-.01.04 0 .05zm-.33.68zm-.15-.49a.3.3 0 01-.07.08s-.08 0-.07-.07 0 0 0-.08zM44.3 39.06h.11c0 .16 0 .16.11.33v.06a.12.12 0 01-.08 0h-.12c-.04 0-.16 0-.21-.1l-.11-.07.14-.22H44c-.48 0-1 .08-1.44.11-.45 0-.9 0-1.34.09a6.2 6.2 0 00-.62.06l-.09.06h-.09c-.54.08-.67.23-.7.77v.07l.06-.09h.06s.07.27-.05.39a.52.52 0 00.11.1s.06 0 .07.05a.84.84 0 00.24.06 2.62 2.62 0 00.28 0h.65v-.06h-.18a.14.14 0 01-.1-.07.28.28 0 01.14-.3c.09 0 .18-.12.28 0a.07.07 0 010-.05h.02a.26.26 0 000 .21l.08.17 1.87-.21h.25c-.07-.07-.18-.07-.26-.11a.09.09 0 010-.05h.14c.02 0 .22.07.33.12v.08c.68-.1 1.35-.24 2-.29a.65.65 0 00.19 0c.11-.06.23-.12.24-.27s-.08-.23-.18-.31a.75.75 0 00-.13-.06 5.11 5.11 0 00-1.58-.36zm-4.18 1.07v-.05c0-.05 0 0 0 0zm.49.28a.12.12 0 01-.17 0l-.21-.22a.26.26 0 01.38 0 .11.11 0 010 .22zm.85-.62zm.34.65v-.2c0-.06 0 0 0 0s.11 0 .11.09zm.42-.18zm.85-.53h.05a.07.07 0 01-.05 0zm.2-.29c-.05 0-.08 0-.1-.06s0 0 0-.06h-.07a.13.13 0 010-.08h.07a.28.28 0 010 .09c.06 0 .09 0 .11.05s.04.05-.01.06zm.38-.28zm0 .35a.08.08 0 01-.08 0 .14.14 0 010-.09.39.39 0 01.11-.06.14.14 0 010 .09s-.01.05-.03.06zm.67-3.23zM20.9 21.84l-.34.43.13.1a.92.92 0 01-.28.09c-.7.87-1.39 1.74-2.11 2.59a17.65 17.65 0 00-1.9 2.66c0 .1-.13.19-.1.31a1 1 0 00.57.77.38.38 0 00.55-.1l.12-.13v-.13a.22.22 0 01.14 0 3.16 3.16 0 00.18-.27l.2-.35v-.12a.41.41 0 01.19 0c.24-.4.49-.78.76-1.16a37.39 37.39 0 012.29-3.23c.3-.33.57-.68.84-1a1.6 1.6 0 00.29-.6c-.06-.14 0-.34-.19-.42a.65.65 0 00-.62 0 2.49 2.49 0 00-.72.56zM17.81 28zm.07-.6zm1.75-3.72zm-.45.92zm-1.1 2.81zm.24-.43s-.11-.05-.1-.08h.07l.06.07s-.01.03-.03.03zm.35-.83zm.27-.72c-.05 0-.08.1-.16.05a.16.16 0 01-.05-.17.25.25 0 010-.07h.18s.09 0 .11.05-.02.11-.08.14zm.32-.19l-.07-.08h-.06v-.05.06h.09s.05.06.04.07zm.39-.52s0 .12-.09.1-.09-.07-.13-.11 0-.05 0-.05h.14c.07-.03.09.01.08.06zm1.18-2.4zm1.24-.69l-.05-.05zm-.67.67a.07.07 0 01.06 0h-.06c-.06 0-.03 0 0 0zm0-.22zm3.68-8.92c.15 0 .31.09.47.12h-.09v-.06l.13-.12v.16l.3.07c.55.1 1.11.07 1.72.15h1a.56.56 0 00.39-.11h-.11s-.13 0-.13-.12v-.06a.06.06 0 01.06 0c.1 0 .1.06.07.19H29a.48.48 0 00.13-.22.84.84 0 00-.1-.81.77.77 0 00-.74-.33h-.44a.08.08 0 01-.08 0c-.79.05-1.58.07-2.37.05a1 1 0 00-.46.1.43.43 0 00-.22.18.55.55 0 00.36.81zm2.72.2zm-.29-1.07zm-.91.83l.06.06a.15.15 0 01-.06-.05s-.02.01 0-.01zm-.47.1zm-.49-.83zm11.47 34.24h.07a3.86 3.86 0 011.35-.15h.48a3.47 3.47 0 00.56-.11.32.32 0 00.27-.16h-.28c0-.11.09-.14.16-.13l.16.05v-.07a.54.54 0 00-.24-.62 1.78 1.78 0 00-.59-.28c-.38-.08-.76-.14-1.15-.19a.14.14 0 000 .18v.08c0 .02-.06 0-.08 0a.29.29 0 01-.12-.1.32.32 0 01-.07-.19h-.62a.56.56 0 00-.37.23 1.23 1.23 0 00-.27 1 .1.1 0 010 .09c.11.38.34.58.69.5zm2.71-.82v-.05zm-.41-.51c.07.05.14.08.2.13a.15.15 0 010 .19.12.12 0 01-.17.09l-.14-.09zm-.45.27h.07l-.05-.06zm-.18.3A.37.37 0 0039 46c.09 0 .07.11.14.14l.16.07s-.06-.08 0-.1a.27.27 0 01.13-.07c.06 0 .07.06.08.1a.07.07 0 010 .1h-.23c-.03 0-.24.05-.35.07a.09.09 0 01-.06-.06v-.3c0-.1-.12-.1-.09-.08zm-.42.14a.15.15 0 01.1 0 1.52 1.52 0 010 .21v.11c0 .01-.08 0-.1-.07v-.06s-.11 0-.11-.08.06-.12.11-.12zm-.18-.86zm-.14.34l.05.06a.43.43 0 000-.07zm-.65 1zm.35-.06zm-1.14.11zm.21-.4c-.05 0-.11.07-.15.11s-.06.07-.1 0 0-.06 0-.09a.1.1 0 01.04-.16h.29c.01 0-.05.09-.08.11zm.11-.38a.78.78 0 00-.05-.46.94.94 0 00-.09-.12 4.31 4.31 0 01.37.37c.08.1 0 .21-.1.24zm.11.68a.1.1 0 01-.05 0h.14c.07 0 .08-.09 0-.17a.07.07 0 010-.11 1.32 1.32 0 01.2-.12c.06 0 .1 0 .14.05s.11.1.19.08A.7.7 0 0138 46a1 1 0 01-.2.11c-.08 0-.16-.06-.25 0a.53.53 0 01.06.1.09.09 0 010 .09.12.12 0 01-.08 0h-.06c-.06 0-.1 0-.18.05l-.1.06H37zm-6.8-35.79a.45.45 0 00.39-.47.88.88 0 00-.08-.49h-.14s-.08 0-.08-.08a.23.23 0 00-.11-.22.84.84 0 00-.29-.05 16.91 16.91 0 01-1.74-.1h-.21a20.83 20.83 0 00-3 .69c.75.17 1.52.3 2.28.47a10.12 10.12 0 002 .25 2.85 2.85 0 00.98 0zm0-.5h-.05zm-.51-.46v.05h-.07zm-.52.39v-.24c0-.08 0-.1.07-.07s.07.06.07.09a.29.29 0 01-.13.22zm-3.82-.18zm24.04 34.38h.06v.05h-.07v.45h.09-.12v.29h.1c.09-.11.17-.22.25-.34s0 0 0-.06h.08c.28-.39.54-.78.8-1.19a.39.39 0 00-.35-.19c-.44 0-.64.1-.71.57-.1.14-.11.29-.13.42zm0 .33zm.71-.74v.07h-.06a.11.11 0 010-.05zm-9.96 5.38zM21.59 19.69h.06-.07a.43.43 0 00.1.27.7.7 0 00.66.29.72.72 0 00.5-.32c.3-.4.61-.8.94-1.18l.09-.11c.34-.4.69-.79 1.06-1.18a11.6 11.6 0 001.23-1.63.87.87 0 00.21-.54c0-.28-.05-.35-.29-.45a1 1 0 00-.51 0 1 1 0 00-.68.55c-.2.32-.4.63-.63.93s0 .06-.06.08a6.8 6.8 0 01-.5.57c-.52.55-1 1.12-1.53 1.68a3.57 3.57 0 00-.54.79 1.48 1.48 0 00-.04.25zm4-4.36zm-.09.22a.15.15 0 01.18 0 .21.21 0 01.06.23c0 .07-.09.08-.15.09s-.09 0-.1-.09v-.17zm-.5 1.69h-.05zm-.16-1.38s.08 0 .09.07-.09.15-.11.13a.38.38 0 01-.09-.13s.06-.07.14-.07zm-.29 1.58h.05v-.07c0-.08 0-.13.05-.15a.14.14 0 01.18.07.12.12 0 01-.09.16.22.22 0 01-.11 0 .11.11 0 010 .05h-.05s-.01-.06 0-.06zm-.27-.19zm0 1l-.09.07a.21.21 0 010-.07s0-.05.05-.07zm-.11-1.36zm-1.69 3.3s-.02-.02-.01-.04zm1.22-2.36l-.01-.04zm-.07.41c.07-.07.1-.07.25 0l-.21.06-.05-.1zm-.48 1.28s-.02-.03-.01-.04zM23 18.06zm-.43 1.59a.78.78 0 00.37 0 .43.43 0 010 .05h-.46c-.05 0 .03-.05.06-.05zm-.75 0s0-.07.05-.07l.43.06h-.46a.19.19 0 01-.05.04zM39.23 47.8a.26.26 0 00-.24 0 1.22 1.22 0 01-.8 0c0-.14 0-.13.14-.16s.18-.06.27 0a.12.12 0 00.15 0h.08a.21.21 0 00.26 0 .31.31 0 01.19 0h.09a.81.81 0 00-.66-.55.63.63 0 00-.73.4.14.14 0 000 .07c.06.14 0 .14-.08.19a1.07 1.07 0 000 .4c0 .32.17.45.49.45a1.5 1.5 0 00.61-.1.82.82 0 00.37-.63zm-1.1-.3c0-.06 0 0 .08 0h.1l-.12.07s-.05-.04-.06-.07zm.2.81zm.51 0zM34 33.07a.47.47 0 00-.63 0l-.12.13a1.82 1.82 0 00-.33 1c.19 0 .21 0 .41.26-.12 0-.21-.08-.29-.06a.32.32 0 01-.14 0v.16c0 .21 0 .42-.05.63a.07.07 0 01.07.09h-.06c-.05.86-.08 1.73-.09 2.6h.15c.05 0 0 .07 0 .08a.12.12 0 01-.13 0v1.22s.08 0 .08.1a.25.25 0 01-.09 0V41a.1.1 0 010 .14v.14a.81.81 0 00.12.28.51.51 0 00.48.14 1.13 1.13 0 00.51-.19h-.27a2.07 2.07 0 000-.22c0-.08.07-.11.13-.06s.21 0 .3.09a1 1 0 00.13-.46v-.14a1 1 0 010-.17 1.44 1.44 0 00-.33-.16.07.07 0 010-.1c0-.05 0 0 .08 0h.11c.01 0 .1-.09.16-.07v-2.07a.18.18 0 01-.12 0H34c-.07-.06-.17-.09-.18-.2a.26.26 0 01.21.25.25.25 0 01.12 0q0-.94.06-1.89c0-.76.15-1.51.12-2.27a1.18 1.18 0 000-.42.85.85 0 00-.33-.52zm-1.18 6.43zm0-1.29a.07.07 0 01-.11 0h.15s.02-.01-.01 0zm.06 3.27zm1-.58h.05l-.06.06-.06-.06zm-.13.17a.25.25 0 000 .07h-.06zm.06-2.84zm.26-4.29a1 1 0 010 .12V34zm-.47-1h.11l-.1-.05zm-.17.69v.07h-.06s-.05 0 0-.06.09.03.12.01zm0 3.43h-.05zm0 2a1 1 0 01-.15.09s-.06 0-.06-.08 0-.07.08-.06a.36.36 0 01.24.1zm-.14-4l-.07.05zm-.16 3.43v-.08c0-.01 0 0 .07.06s0 .18 0 .26c.04.05.04-.06.04-.18zm-.12-4zm0 3.61h.07l-.06.06-.06-.06zm0 1.07zm.16 2.09a.13.13 0 01-.11.14.1.1 0 01-.13 0v-.17a.17.17 0 01.2 0v.05c0 .05.13.03.13.05zm.27-1a.57.57 0 01-.56-.06.68.68 0 01.15 0 .36.36 0 00.36 0h.05s.1.1.09.1zm0-6.22zm.15 4.72v.07h.07v.09h-.06c-.06-.01-.04-.06.09-.12zm0-1.74a.88.88 0 010-.15.12.12 0 01.12.11s.01.02-.02.08zm.17-.71s.11.03.1.04zm.24-2.18a.64.64 0 01-.38.1.11.11 0 010-.06 1 1 0 00.13-.09.16.16 0 01.25.05zm-.14-.51a.84.84 0 01-.14-.06c.1-.1.16-.1.19 0s.01.07-.03.06zm-.17 5.28v-.06zm4.52-2.56zm-2.6-1.04zm-1.1 13.52h-.06a2 2 0 010-.24c0-.11.16-.11.23 0l.06.07a.64.64 0 00.08-.52.41.41 0 000-.22c0 .06-.05.13-.09.11s-.17 0-.24.08-.15 0-.27-.06a.92.92 0 00-.22-.17h.21a.11.11 0 00.13-.07.1.1 0 000-.14 1.38 1.38 0 01.2 0 .27.27 0 01.23.08 1.8 1.8 0 00-.32-.36l-.58-.54a.19.19 0 01-.07.06h-.12c-.03 0 0-.06 0-.09h.05a.34.34 0 00.13-.1l-.51-.47h-.06l-.26-.25-.09.17c-.13 0-.19.08-.15.22s-.07 0-.08 0-.1-.17 0-.23h.06s.11-.16.07-.2a.23.23 0 01-.08-.14c-.3-.29-.6-.59-.89-.89l-.15.11c0-.1 0-.14.09-.17a15.13 15.13 0 01-1.5-1.79.5.5 0 00-.43-.23 1.05 1.05 0 00-1.06 1.1.32.32 0 00.19.31 3.12 3.12 0 01.76.64c.42.45.84.91 1.27 1.35S31 46 31 46s.11 0 .13.09a.07.07 0 010 .06H31c.29.3.59.61.89.9.6.59 1.2 1.18 1.81 1.75a.58.58 0 00.81.02zm-5-5.3zm.09-.71zm.4 1.09zm1.92 2.35zm-.06-.84zm-1.15-1a.48.48 0 01.27 0s-.07.06-.1.05a.84.84 0 01-.2-.08zm.54.46c-.07.12-.16.16-.25.08s-.21-.14-.26-.28a1.31 1.31 0 01.28 0 .84.84 0 01.24.14.13.13 0 01-.05.03zm.41 1.4s-.06.07-.09 0a.17.17 0 010-.12s0-.05.05-.07l.21-.09c-.09.11-.07.23-.21.25zm.29.42c-.06 0-.11.08-.17 0 0-.09.11 0 .16 0H32zm.14.2h.07zm.18-.21zm.68 1.27zM33 46.8s-.08.08-.14.05a.11.11 0 010-.16c0-.07 0-.09-.06-.13s0-.05 0-.08h.25v.26a.85.85 0 01-.05.06zm.34 1zm.27.4a.19.19 0 010-.07l.06.06zm0-.28a.2.2 0 010-.08l.08.06a.18.18 0 01-.04.01zm.2-.31h-.05s.09-.03.09-.01zM10.79 26.29a.5.5 0 010-.12l-.65-.59a1.32 1.32 0 00-.25-.16c-.14.51-.27 1-.38 1.54.44.43.91.85 1.36 1.26l.62.58c1.45 1.42 3.06 2.63 4.6 3.94a1 1 0 00.2.15.7.7 0 00.17.09v-.07s.06.06.06.09a.51.51 0 00.55-.28.78.78 0 00.13-.52.66.66 0 00-.11-.43 2.75 2.75 0 00-.54-.59l-.09-.07c0 .16.06.3.26.28 0 .09-.06.11-.1.1a1.48 1.48 0 01-.29-.12.31.31 0 01-.11-.25v-.05l.09-.06a4 4 0 01-.39-.3v-.06l-1-.84c-.45-.38-.9-.76-1.34-1.16l-.05-.07-1.71-1.53-1-.88a.36.36 0 01-.03.12zM17 31.62l.05.07h-.11zm-.45.17zm-.36-.35zm-.38.13l.06.07h-.08v-.06a.18.18 0 01-.01-.01zm-.27-.29h.15l-.05.05a.13.13 0 01-.08 0v-.1zm-1.17-1.46h.06v.09l-.09-.08a.43.43 0 000-.01zm.05 1.06h.07l-.09.12-.08-.08zm-.52-.1h-.03zM13 30zm.21-1.43zm-.39 0l.15-.06h.08a.11.11 0 010 .08h-.22c-.05 0-.12.05-.12 0s.12-.03.15-.04zm-.09 1.12h.05v.05h-.05a.11.11 0 01.04-.07zm-.24 0zm-.37-1.1h.13a.64.64 0 01-.06.1.06.06 0 01-.09-.06s.05-.03.06-.03zm-.9-1zm0-.26c0-.08.11-.15.17-.23s.25.12.27.27a.25.25 0 00-.37 0s-.08 0-.07-.01zm2.51-7.2zm25.49 23.18a1.07 1.07 0 00.85-.36.46.46 0 00-.21-.79 2.26 2.26 0 00-.74-.14h-.65l.16.18a.14.14 0 01-.09 0 .21.21 0 01-.06-.1v-.09c0-.02 0 0 0 0l-1.26-.07c-.52 0-1-.08-1.56-.09a1 1 0 00-.65.24.22.22 0 00.15.12 2.62 2.62 0 00.28 0v.05c0 .05-.23 0-.32.1s-.07 0-.09 0a.45.45 0 01-.1-.13 1 1 0 00-.17.39c-.12.54 0 .8.58.83a1 1 0 00.24 0c.71-.11 1.42 0 2.13-.1.43-.04.97-.02 1.51-.04zm.59-.19zm-.36-.2s.13.14.12.25h-.08c-.05-.12-.06-.17-.04-.25zm-.27-.57s.08.07.06.09h-.09a.29.29 0 010-.09zm-.46-.26zm-3 .15h-.05.05zm.37.66h-.06a.49.49 0 010-.11h.05a.07.07 0 01-.01.11zm.43-.64c-.08 0-.13 0-.19-.08.07-.06.14-.08.21 0s-.02.07-.04.08zm.42-.29zm.41.25s-.01-.01-.02 0zm2.78 7.01v.06zm-2.58-13.84a1.07 1.07 0 00.16.82s.06 0 .1.07a.61.61 0 00.07.14.1.1 0 00.16 0v-.16h.37c0 .07 0 .13.06.15h.12a.15.15 0 010 .08.09.09 0 01-.06.06 1.37 1.37 0 01-.28 0 .2.2 0 00-.2 0h-.16a2 2 0 00.25.25l.15.14a7.56 7.56 0 001.28 1 1.69 1.69 0 01.37.29 1.93 1.93 0 00.63.42.44.44 0 00.48-.08.78.78 0 00.06-1.1l-.12-.12v.1h-.05c-.05 0-.19-.11-.28-.18s0 0 0-.08 0-.05 0 0h.19l-.08-.19c-.18-.15-.37-.28-.56-.41a.27.27 0 01-.18 0c-.09 0 0-.05 0-.08l-.25-.18-.12.1a.53.53 0 010-.15 7.85 7.85 0 01-1-1.07.49.49 0 00-.58-.21.6.6 0 00-.53.39zm.14.59h.05l-.05.02zm3.54 1.94zm-.14.09zm-.12.27h.05v.06a.14.14 0 01-.02-.06zm-.08-.51h.06a.14.14 0 010 .09c-.05.06.07.15 0 .21s0-.16 0-.23a.2.2 0 010-.09s-.09.02-.06.02zm-.64.49v.06zM40.13 37zm-.42.83zm-.12-1zm-.59-.28zm0-.28a.16.16 0 01.06 0 .14.14 0 01-.21.11.08.08 0 010-.08.15.15 0 01.15-.03zm-.17-.35V36a.8.8 0 010-.08zm-.43-.38v.05zm-.45.4L38 36l-.06-.06zM11.23 24.32c.06.09.14.16.21.25.45.56 1 1 1.49 1.53s.75.81 1.08 1.26a.74.74 0 00.64.37.88.88 0 00.9-.47v-.09h-.05a.2.2 0 010-.08v-.05a.11.11 0 01.07 0 .78.78 0 00-.32-.57l-.44-.47h-.07l-2-1.94a2.2 2.2 0 00-.8-.58.65.65 0 00-.2 0h-.09s-.07 0-.07-.05a.53.53 0 00-.3.17.71.71 0 00-.05.72zm4 2.57h.06v.05-.05h-.04zm-.45-.77v.05h-.05s.06-.05.07-.05zm-.25.05zm-.23.27zm-.15 1zM14 25.53h.09a.17.17 0 01-.06.06h-.09s.06-.05.06-.06zm-.11.68a.06.06 0 01.06 0l.09.06h-.06a.18.18 0 01-.07 0s-.01-.05-.01-.06zm-.42-.21a.8.8 0 010 .15.16.16 0 01-.18.08.23.23 0 01.18-.23zm-.39-.06zM13 24.85zm-.81-.16c0-.05.05-.08.09-.06l.15.12c0 .11-.05.12-.11.1s-.15-.08-.14-.16zm-.2-.83zm-.08-.36v.05a.08.08 0 01-.01-.05zm26.82 16.38a2.55 2.55 0 000-.39 7.3 7.3 0 01-.09-.94c0-.31-.12-1.16-.45-1.4-.13-.1-.3-.09-.51.07a.76.76 0 00-.24.59h.14c.07 0 .07 0 .09.07a1.27 1.27 0 01.06.18v.06c0 .01-.06 0-.08 0a.33.33 0 00-.18-.11v.34a8.42 8.42 0 010 .87.1.1 0 01.05.12s0 .07-.08.07a3.33 3.33 0 01-.11.53 1.05 1.05 0 00.05.74.53.53 0 00.62.32 1 1 0 00.57-.53 2.22 2.22 0 00.16-.59zm-.2-1.88zm-.35 0a.14.14 0 010-.09h.06c.06 0 0 0 .07.06s0 .05 0 .07a.09.09 0 01-.09.11c-.03-.03-.06-.06-.04-.15zm-.41-.77h.19c.06 0 .14 0 .15.08a.15.15 0 01-.1.15h-.06l-.1-.08s-.12-.06-.08-.13zM38 38zm-.2.58v-.06s.07 0 .09.06-.07.1-.09.15c.02-.07 0-.12-.01-.17zm-.07.57c.05 0 .1 0 .1.11s0 .06-.06.07-.11 0-.1-.09a.13.13 0 01.05-.11zm-.17.33l.07.06-.07.09a.18.18 0 01-.07-.08s.02-.1.06-.09zm.44 1.2a.1.1 0 01-.12-.1v-.07c0-.07-.05-.09-.13 0l-.07.05-.12-.17s-.11-.09-.05-.16.1 0 .15 0h.23a.52.52 0 01.12.18.61.61 0 01.05.18.1.1 0 01-.06.09zm.11-.53h-.05zm0-.88v-.05zm.07-.38a.14.14 0 01.11 0 2.44 2.44 0 01.26.06c0 .16 0 .16.11.38l-.34.15v-.3c0-.07-.08-.09-.11-.15a.14.14 0 01-.03-.14zm.27 1.67a.19.19 0 01-.08 0h-.11a.74.74 0 01-.07-.21l.2.2zm12.6-.15a1 1 0 00.89.37H52c.17-.38.33-.77.48-1.16h-.78a1.21 1.21 0 00-.59.16.39.39 0 00-.06.63zm0-.17zm.9 0a1.81 1.81 0 01.1-.17c0 .06.06.1.06.15a.09.09 0 01-.1.09.07.07 0 01-.06 0l.05-.05zm-.17-.52zm0 .18s.08 0 .14.08l-.12.06a.07.07 0 01-.1-.04s.02-.09.07-.08zm-.44.35h-.05zm-9.72 1.59a4.07 4.07 0 00-.43.95c-.06.26-.13.53-.19.79 0 .21-.1.41-.14.62l-.06.34h.08c.07 0 .11 0 .14.1h-.24v.25h.11a.16.16 0 01.08.08.08.08 0 01-.07.09h-.1l-.36 2.46c.08 0 .17 0 .24-.05s.08 0 .12 0h.42a.11.11 0 00.1 0c0-.1.11-.09.18-.06l.18.08h.16v-.23c0-.28 0-.55.08-.82a.81.81 0 01-.27-.15s-.08 0-.09.05 0 0 0 .07a.08.08 0 01-.08.1h-.26a.21.21 0 00-.25-.09s-.1 0-.1-.1a.15.15 0 01.11-.16h.08l-.2-.1-.1-.07a.08.08 0 010-.13l.3-.12h.32a.08.08 0 01.09.09.19.19 0 01-.1.18c-.09.05-.07.13 0 .16l.37.1a.09.09 0 00.06.1h.05v-.26a1.55 1.55 0 00-.23-.19c.09-.08.16-.16.28-.07l.09-.79h-.17a2.34 2.34 0 00-.24.09.07.07 0 01-.06 0c-.14-.08-.33-.06-.46-.2L41 45a1 1 0 00.4-.06.29.29 0 01.34.06.3.3 0 00.25.11v-.34h-.28.16a.13.13 0 010-.13c0-.06.06-.06.1 0v-.43c0-.14 0-.22.05-.33a.12.12 0 01-.1 0c-.15 0-.29 0-.41.09a.16.16 0 01-.12 0c-.08 0-.15-.07-.24 0s0-.08 0-.08a2.69 2.69 0 01.4 0 .6.6 0 00.34-.09l-.13-.15.18-.13a.33.33 0 01.06.1v.26c.08-.54.18-1.07.26-1.61a1.36 1.36 0 00-.14-.6c0-.09-.1-.15-.18-.1s-.21.06-.32.27zm-.81 3.09h-.07zm.59 2.4zm.27.13zm-.32-.46a.11.11 0 01.13-.07.24.24 0 01.14.05v.08l-.07.07a.37.37 0 01-.15 0c-.04-.07-.07-.13-.05-.13zm-.58 0H41h-.18a.09.09 0 010-.05zm.84-1.41zm-.43 0a.43.43 0 010 .07v-.06zm.15-.88a.19.19 0 00.1-.25v-.17l.16.08a.09.09 0 010 .15c0 .07-.1.13-.07.23s-.06.08-.1.1a.11.11 0 01-.14 0s.01-.19.05-.21zm-.33-.8l.14-.05v.05zm.17.88zm0-.21s.03-.01.02 0zm1.06-2.73a.15.15 0 010 .06h-.06l-.05-.06s.12-.01.13 0zm-.26.36l.18-.11a.17.17 0 01.18 0 .1.1 0 010 .1s0 .08-.08.07a1.91 1.91 0 01-.33-.06zm-.44.93v-.05zm.29 0h-.02zm-.07.21zm-.04-.35h-.06a.12.12 0 01-.07-.12l.09.11s.06.01.04.01zM22.9 12.22a1.34 1.34 0 00-.71.73c-.05.12-.11.25-.17.37h.07c.07 0 .06.11 0 .17s-.05 0-.06 0l-.03-.03c-.25.52-.49 1-.73 1.56-.12.24-.24.48-.38.71a15.53 15.53 0 00-.89 1.72v.07a1.2 1.2 0 00-.12.59c0 .12 0 .23.06.33s.19.15.31 0 .31-.48.52-.68a2.61 2.61 0 00.27-.31c-.07 0-.11 0-.14-.07s0-.09.06-.08h.2c.08-.12.17-.24.24-.37l.12-.18h-.15v-.17a.1.1 0 01.12-.07c.07 0 .11 0 .11.09l.3-.48c-.05 0-.1-.05-.08-.11s0 0 .06-.07.09.06.08.11c.27-.43.54-.86.8-1.29a12 12 0 001.05-2c.11-.3.07-.5-.19-.64a.68.68 0 00-.72.1zm-2.37 5.37a.08.08 0 01-.11 0 .32.32 0 010-.09.19.19 0 01.08 0c.07 0 .12 0 .11.09a.15.15 0 01-.08 0zm.88-1.59v-.05.05zm.35-.37c.05 0 0 0 0 0zm.24-1.21v-.05h.06v.05zm.55-.75zm.08 1.18zm0-.53a.11.11 0 01-.08 0v-.07a.19.19 0 01.08 0h.08zm.3 0zm.09-.65c-.07 0-.07 0-.08-.1s.11 0 .06.09zm.34-.27zm25.69 27.3a.36.36 0 00-.05.3.84.84 0 00.22.4.08.08 0 01.05.05.94.94 0 00.7.3c.31 0 .51-.07.6-.25a.45.45 0 01-.21-.24.12.12 0 010-.08h.09l.16.16a.84.84 0 000-.35.89.89 0 00-.37-.53l-.21-.05a.65.65 0 00-.34-.07h.09v.11c0 .03 0 0-.07 0a.42.42 0 01-.15 0 .11.11 0 010-.08 1.43 1.43 0 00-.27.09.13.13 0 010 .06l-.05.06a.6.6 0 00-.19.12zm.05.07v-.05zm1.21.75v.05h-.05zm-1-.82h.22l.08-.19c.17.07.22.26.36.35a.54.54 0 01.13-.07c.07 0 .09 0 .11.08s0 .08 0 .09-.31.07-.45 0-.1 0-.12 0h-.44zM14.14 17.92h.17c.17 0 .26-.14.34-.38s.12-.41.21-.61h-.11a.14.14 0 010-.06c.13 0 .15-.07.15-.18s.06-.11.13-.07c.13-.24.24-.48.35-.73a22.42 22.42 0 00-1.75 2 .78.78 0 00.51.03zm.77 4.78a1.24 1.24 0 00-.23-.17 3.85 3.85 0 01-.76-.64c-.33-.35-.67-.71-1-1a.62.62 0 00-1 .69 1.36 1.36 0 00.21.37c.45.57.92 1.13 1.37 1.69a.79.79 0 00.6.28 1.08 1.08 0 00.82-.34.52.52 0 00-.01-.88zm-2.36-.83s-.06 0-.09-.06 0-.08.07-.08.06 0 .11.06-.07.08-.09.08zm.19-.33h-.05c-.06-.09-.18 0-.24-.12s.11-.06.14 0a1 1 0 01.17.13.15.15 0 01-.02-.01zm.33 1.25zm.19-1c0 .16-.09.17-.22.06a.23.23 0 00-.17-.05h-.1c-.01 0 .08-.15.12-.12a.25.25 0 00.34 0s.04.11.03.14zm1 1.54h-.35v-.08h.15s.07-.06.09-.05a.35.35 0 01.13.08s.02.08.01.08zm1.49-1.98a.33.33 0 01.1-.26.23.23 0 01.07.08.65.65 0 00.12-.39.55.55 0 00-.44-.49l-.31-.14h-.38c0-.05 0-.11.05-.12L15 20l-.17-.12c-.21-.17-.41-.34-.63-.5a.39.39 0 00-.48-.06c-.18.12-.32.26-.26.49a1.15 1.15 0 00.29.79c.21.26.46.48.67.73a1 1 0 001.22.1zm-1.53-1.19a.27.27 0 00-.29.09h-.08a.32.32 0 01-.14-.08v-.18h.4c.14 0 .16 0 .25-.18 0 .14 0 .14.15.21a.38.38 0 01-.29.14zm1 1h-.05a.65.65 0 01.12-.11c.03.04-.01.08-.08.11zm.64-.41s.05 0 .05.07a.19.19 0 01-.21.17v-.08a.14.14 0 01.15-.16zm.68-5.63v.33a.53.53 0 00.32.39c.15.07.23-.12.33-.21a3.83 3.83 0 00.36-.44l.42-.56v-.06a.29.29 0 010-.09h.1l.19-.26c.44-.6.89-1.19 1.28-1.82a23.55 23.55 0 00-2.9 2.17.87.87 0 00-.1.55zM18 13.73h-.06s.06-.01.06 0zm21.37 38.86h.08l.85-.35-.81-.91h-.07c-.01 0 0 0 0-.06l-.8-.9-1.27-1.44h-.06v-.07c-.26-.28-.52-.57-.79-.85a.68.68 0 00-.63-.25.6.6 0 00-.23.06.2.2 0 01-.08.12.16.16 0 01-.15 0 .82.82 0 00-.23.8.39.39 0 01.1.19 2.79 2.79 0 00.28.32 1.45 1.45 0 01.3 0c.06 0 .13.06.11.08s-.08.09-.12.09a.58.58 0 01-.19 0c1 1.11 2 2.26 3.09 3.36zm.14-1.15c.05 0 .07 0 .09.07a1.4 1.4 0 00.09.17v.06c0 .06 0 0-.05 0h-.11a.57.57 0 01-.1-.19.09.09 0 01.08-.11zm-.16.41zm-2.79-3.68h.08c.08 0 0 0 0 .06a.09.09 0 01-.12.08v-.07a.19.19 0 01.04-.07zm-.56-.31h-.15c0-.08 0-.1.09-.14a.2.2 0 01.08 0v.08s.03.06-.02.06zm.22 1.59zm0-.58h-.05a.06.06 0 010-.06.58.58 0 01.15-.11.42.42 0 01.14 0 .74.74 0 01.15.08.1.1 0 010 .14s-.15.06-.17 0-.13-.09-.21 0 .05-.04.04-.05zm.42.18zm-.32.1v-.08c0-.02 0 0 .06 0s.06 0 .06.06-.04-.01-.07.02zm.37.67zm-.1-.39h-.18a.41.41 0 01.24 0l.4.07c-.13-.06-.26 0-.41-.07zm1 .35h-.05c-.05 0 0 0 0 0a.43.43 0 00.09 0zm.65 1.4c-.12 0-.25 0-.35-.06s-.08 0-.08-.08 0 0 .08 0h.25a.17.17 0 01.15.11s.03.04-.01.03zm5.08-6.13a.1.1 0 00.08 0 .24.24 0 000-.12c0-.08-.08-.16-.12-.24v.37c0 .1.03 0 .04-.01zm-8.01 8.29l.31.27q.52-.09 1-.21a.36.36 0 00-.23 0h-.07c-.01 0 0-.08.06-.08h.79l-.46-.42c-1-.9-2-1.8-3-2.78-.05 0-.14-.06-.11-.08h.06l-.27-.28c-.33-.35-.64-.71-1-1.05a2.87 2.87 0 01-.36-.5c-.11-.1-.14-.27-.3-.32v-.05a.35.35 0 00-.55-.06h.05a.67.67 0 01-.14.11h-.05a1.16 1.16 0 00-.23.71s0 .12.11.14A.86.86 0 0031 49a3.07 3.07 0 00.17.31c.09-.11.17 0 .27 0a.49.49 0 00.21 0H32s.07.06.06.12c.08 0 .16-.08.25 0s0 0 .06-.06a.53.53 0 01.06-.1.08.08 0 01.13 0v.22c-.07.06-.13 0-.2 0a.41.41 0 01-.19 0s-.08-.06-.11-.09a.51.51 0 01-.2 0c-.12 0-.23-.05-.34 0a.1.1 0 01-.09 0 .25.25 0 00-.17-.07l.15.17.31.31.11.06.1.07v.05l.52.52c.94.93 1.9 1.82 2.87 2.71zm1.36-.26zm-.45-.2zm-.27.43v.06c0 .06 0 .11-.08.12a.12.12 0 01-.08 0 .83.83 0 01-.09-.15zm-4.63-4.15h-.09a.18.18 0 010-.06h.07s.03.06.02.06zm.23-1.32zm.2.46zm.33.2zm.38 1.82a.06.06 0 01-.08-.06v-.07c0-.01.07 0 .07.08s.03.05.01.05zm.23-.34h.08s-.07.02-.08.02zm.43-.13v-.05c0-.05 0-.07.1 0a.22.22 0 010 .08zm.23.76zm.12-.75zm.42 1.19zm.78.08h-.05v-.11s.05.07.05.11zm-5.96-8.73c-.14-.12-.31 0-.45 0-.07.11-.15.08-.24 0s-.06 0-.09 0-.08 0-.1.09-.08.11-.14.06a.27.27 0 00-.33-.11.09.09 0 01-.06 0l-.5.82a5.32 5.32 0 00-.6 1.19.8.8 0 00.32.93.79.79 0 00.38.09.51.51 0 00.54-.44 5.57 5.57 0 01.56-1.19 15 15 0 00.72-1.45zM26.56 45v-.06h.08s-.06.06-.08.06zm.3 0zm.95-1.29a.15.15 0 01-.05-.06h.05c.05 0 .02-.05 0-.02zm.28-.81s-.06 0-.14.1v-.33a.15.15 0 01.09-.06s.07 0 .1.07-.02.07-.05.14zm.5 10.92zm2.25.01a.39.39 0 01-.11.06.2.2 0 010-.17l-.07-.07a.52.52 0 00-.62-.08l.08.11h-.22a.73.73 0 00-.24.29c.42 0 .84.06 1.27.07a.56.56 0 00-.09-.21zm-.56-.09a.33.33 0 010-.06v.06c0 .06 0 .02 0 0zm-3.2-.34l-.1.15 1.25.22h.34a.8.8 0 00-.83-.73.93.93 0 00-.66.36zm.87-.26v-.05zm.17.17a.81.81 0 01-.43 0zm2.63-32.24c.66-.06 1.34 0 2-.05.74 0 1.48-.06 2.22 0 1.17 0 2.34.12 3.51.11h.72a1 1 0 00.46-.06.46.46 0 00.25-.2v-.05a.35.35 0 000-.14.81.81 0 00-.76-.82H37c-.91 0-1.81-.06-2.71-.07a13.77 13.77 0 01-3.68-.29.72.72 0 00-.85.73.89.89 0 00.99.84zM37.23 20s-.02 0 0 0zm-.37.54c0 .13.06.21.07.28a.09.09 0 010 .07h-.06s-.04-.22-.01-.36zm-1.33 0a.43.43 0 000 .05v-.05zm-1.16 0a.56.56 0 01.21.19.18.18 0 00-.21 0zm-.37-.8zm-.35.81zm.07-.46s.05.05.06.08a.09.09 0 01-.09.1.08.08 0 01-.09-.07c.04-.05.08-.1.16-.11zm-.83.24a.39.39 0 01.14.05 1 1 0 01-.15.09s-.07 0-.07-.08a.06.06 0 01.12-.06zm-.66.06zm-.15.51l.1.06v.05h-.15c-.01 0 .06-.08.09-.11zm-.37-.85h-.05zm-.06.65h.15-.14zm-.52-.06a.07.07 0 010 .05c0 .07 0 .1-.07.09a.1.1 0 010-.07.07.07 0 01.11-.07zm-.73.36a.16.16 0 010-.07l.07.06zm.15-.07zm-.19-.33a.24.24 0 000-.27h.05l.26.2a1.07 1.07 0 00-.26.26h-.05a.05.05 0 010-.05.36.36 0 010-.16zm13.2 24.26v.06c0 .06.18.18.33.09A.12.12 0 0144 45v-.2a.16.16 0 01-.09 0 2.62 2.62 0 01-.28 0 .09.09 0 00-.07.06zm.17-.19l-.1-.06h.07zm-.88.64v.1a1.07 1.07 0 00.19.49.25.25 0 00.22 0h.08a.52.52 0 00.45.09.88.88 0 00.18-.69.38.38 0 010-.1h-.07a.69.69 0 00-.37.06h-.36a1.38 1.38 0 01-.32.05zm.8.29h.05zm-.21 0zm-.13 0zm-.14 0zM36.33 11a1.41 1.41 0 00.16.69.05.05 0 010 .05.5.5 0 00.14.15c.27.25.46.27.62 0a.12.12 0 00-.09.06h-.09a1.11 1.11 0 010-.13.15.15 0 01.17-.17s.06 0 .06.05v.1-.06c.26-.59.55-1.17.85-1.74-.43-.13-.86-.25-1.3-.36l-.24.41a1.83 1.83 0 00-.28.95zm1.49-1zm-3.38 43.39a4.58 4.58 0 00-.42-.46.47.47 0 00-.78.17.86.86 0 000 .78v.06c.51 0 1-.1 1.51-.17zm-.6-.26zm-.35.71zm.37-.41h-.24c.09-.05.17-.12.26-.07a.14.14 0 010 .08s0-.01-.02-.01zM44.91 14.2a3 3 0 01.09.66V15c0 1.19.07 2.39.11 3.58s0 2.58.05 3.87l.14-.1a1.33 1.33 0 01.1.24.57.57 0 01-.22.07.52.52 0 00.46.48.85.85 0 00.92-.45.81.81 0 000-.38 6.06 6.06 0 01-.15-1 .19.19 0 00-.11 0h-.21s.13-.14.24-.13h.09a1.55 1.55 0 000-.22l-.06-.95V19c-.06 0-.1.09-.16.1s-.08.17-.18.14a.63.63 0 01-.2-.13.13.13 0 01-.06-.07 1 1 0 01-.07-.21c.08-.06.08.05.12.05h.18c.05 0 .1 0 .15.05s.06 0 .06 0a.36.36 0 010-.15.19.19 0 01.15-.11v-.46h-.11s0-.14.14-.14v-3.55c-.33-.29-.68-.57-1-.83a.55.55 0 00-.47.51zm1.32 7.49l.08.09h-.06a.11.11 0 01-.07-.06s.02.01.05-.03zm-.25 0h.05s-.03.06-.03.05zm.09-5h.05zm0-1.88v-.06zm-.8 6.9l-.05-.06h.07zm0-1s-.12 0-.15-.12 0-.1 0-.15 0-.08.06-.08h.13v.16c0 .05.08.22.01.26zm-.07-4.34zm0-1.09zm.51 7.53zm0-1.15h-.07v-.05zm-.15-2.61l.1.14h-.31c-.08 0-.08-.06-.08-.12s-.05 0-.06 0h.05a.31.31 0 00.09.07.08.08 0 00.08 0 .31.31 0 00.07-.09s.07.06.07.07zm.12-1.8a.16.16 0 01-.2 0 .19.19 0 01.12-.2.17.17 0 01.09.27zm.15.82h-.05c-.05 0 0 0 0 0l.09-.12h.05-.05c.04.05.05.15-.03.19zm-.06-3zm.13 1.54v.1a.45.45 0 00-.34.09.73.73 0 01-.21.06c-.06-.06 0-.11 0-.15v-.14l.41-.06a.16.16 0 01.15.18zm-.55-2.75v.28l-.22.09v-.05c0-.11.05-.22.08-.33a.07.07 0 01.15.09zm-.19-.24h.06v.05c0 .05 0 0 0 0h-.1zm2.95 31.65h-.09c-.17.11-.35 0-.51 0h-.25v.43c-.06.69-.11 1.37-.15 2a18.37 18.37 0 001.3-1.35v-.23c0-.07 0 0 0 0v-.06a.18.18 0 010-.07c0-.26 0-.51.05-.77a1.69 1.69 0 01-.35.05zm-.22.33h-.05.05zm-.32 1.11zm-.18-.51l.11-.1a.41.41 0 00.07-.11.76.76 0 01-.21 0s-.06 0-.08-.08l.15.09h.08l.07.2zm.44-.2a.12.12 0 01.08 0c.05 0 .16.13.16.19a.22.22 0 01-.21-.11.11.11 0 01-.03-.08zm.2.38l-.18-.08h.18l.06.06c.06.06-.04.02-.09.02zM42.39 12.5l.14-.22a3.07 3.07 0 00.17-.28c-.43-.24-.87-.48-1.33-.7v.06a1.35 1.35 0 00-.08 1.19.56.56 0 00.35.37l.12-.15c.11.06.25 0 .37.09l.12-.11.08-.1h-.07a.86.86 0 00-.07-.1c0-.05-.11-.1-.07-.16a.4.4 0 01.18-.1c.06 0 .14.06.12.11zm-.86-.5h-.05a.93.93 0 01.05-.1l.08.06c0 .04-.04.09-.08.04zm.55-.22a.37.37 0 010 .11v.08a.37.37 0 01-.28.09s-.05 0-.08-.05l.06-.07h.06c.15 0 .21 0 .26-.15zm1.79 37.66V48.3a.83.83 0 00-.08-.36.19.19 0 01-.3 0 .16.16 0 010-.27.41.41 0 00-.48.05c.07 0 .16 0 .16.06s0 .3-.09.42h-.06l-.02-.07v-.06a.16.16 0 00-.13-.18.9.9 0 00-.16.39c0 .35-.11.71-.16 1.06a.28.28 0 01.17.11 1.09 1.09 0 01-.17 0 14.13 14.13 0 00-.1 1.45.18.18 0 010 .2v.07c.35-.2.7-.4 1-.62a.12.12 0 010-.1.2.2 0 01.2-.05l.16-.1v-.87zm-.75-.78zm-.23 1zm-.16-.45zm0 .78s.06 0 .13.07h-.14V50c0-.06-.05 0-.03 0zm.31.76c0-.05-.08-.13-.17-.1h-.17a.12.12 0 01-.07-.15l.1-.13.23.1a.33.33 0 01.13.13c.04.08-.03.13-.09.18zm.08-1.29l-.06-.06a.07.07 0 01.07-.08c.06 0 .1 0 .12.07s-.07.1-.17.1zm.59-.64h-.13l-.07.05v-.12h.13s.05.1.03.1zM43 44.83a.23.23 0 01-.18 0v.21a.41.41 0 01.19 0 .12.12 0 00.12-.15c0-.04-.08-.1-.13-.06zm-5.35-32.02c.05 0 0 .1 0 .15a.33.33 0 010 .14c-.05.09 0 .14 0 .2a.23.23 0 01-.07.07h-.15c-.01 0-.1-.19-.21-.19-.4.48-.81.95-1.24 1.41a.73.73 0 00-.23.44.79.79 0 00.47.82c.26.11.4.06.66-.29s.64-.82 1-1.23l.45-.58s0-.11.08-.1a.08.08 0 010 .06l.57-.75h-.09c0-.06 0-.09.05-.12a.07.07 0 01.13 0l.44-.6 1-1.37c-.35-.15-.71-.3-1.06-.43-.59.81-1.19 1.61-1.83 2.39zm-1.23 2.52a.09.09 0 010 .05s-.08 0-.08-.09a.07.07 0 01.08.04zm0-.21a.15.15 0 01-.07 0h.08zm.6-.72l.07-.07zm.06-.31zm.21-.2a.73.73 0 01-.09-.08.18.18 0 010-.25c.07 0 .1.05.14.09s.06.15-.05.24zm.36.2zm2.23-3.21h.07l-.06-.06zm-.15.34s0 .01 0 0zm0-.29h-.05zm-.38.64zm-.56.48h.08s-.11.05-.08 0zm0 .3zm-.44.38zm-.16.19zm-.24-.49zm-4.32 6.06c.51 0 1 .08 1.61.09a7.94 7.94 0 001.07-.06c.48-.05 1-.12 1.49-.13a.48.48 0 00.34-.14v-.07l.05-.06a.66.66 0 000-.32c0-.1 0-.19-.07-.29a1 1 0 00-.24-.4.08.08 0 01-.08 0 .88.88 0 00-.69-.15.35.35 0 000 .08s0 .07 0 0a.3.3 0 00-.22-.08l-1 .14c-.6.1-1.2.07-1.8.17a1 1 0 00-.49.24 1 1 0 01.08.11l-.19.18a5.27 5.27 0 01.56 0s.07 0 .07.08a.53.53 0 010 .13.18.18 0 01-.09.07.39.39 0 01-.36-.21.16.16 0 00-.17-.11 1.12 1.12 0 01-.05-.13 1.13 1.13 0 00-.1.13.45.45 0 00.28.73zm4.58-.49zm-.21-.63h.06H38zm-.06.43a.92.92 0 01.24-.17c0 .14-.07.22-.19.25s0 0-.05 0v-.08zm-.2.08l.07.05-.07-.06s-.01.02 0 .01zm-.11.21h.09l-.15.11a.2.2 0 010-.08.09.09 0 010-.07h.09zm-.11-.63zm.06-.4v.14c0 .02 0 0-.06 0a.17.17 0 010-.05.62.62 0 01.06-.09zm-.16-.1h.06-.08zm-.09.37zm0 .79zm-.11-.18h-.05zm-.29-.39l.16.1-.12.2a.25.25 0 01-.09.07c0-.11 0-.21-.05-.31a.07.07 0 01.06-.06zm-.25.5c.06.11.16.05.25.06a.24.24 0 01-.33 0s.04-.03.04-.06zm-.23.09zm-.78-.14h.22-.15c0 .1 0 .11-.06.08s-.07 0-.07 0 .03-.08.06-.08zm-.67-.3zm-.49.68l-.06.05a.17.17 0 010-.05s.06.01.07 0zM29.28 40.2a.55.55 0 00.22.67h.07s.06-.06.11 0a.14.14 0 010 .09c0 .06 0 0-.08.06l.71.61.08.07.61.55a.07.07 0 010-.06h.05l.17.16a.12.12 0 01-.09.06l1.52 1.53.12.12 1.64 1.72a1.32 1.32 0 00.29.24.31.31 0 00.12 0c.11-.13.21-.06.3 0 .28-.06.56-.28.56-.54a1.07 1.07 0 00-.2-.69.27.27 0 01-.14 0 .11.11 0 01.08 0l-1-1a.2.2 0 000 .11v.05a1.57 1.57 0 01-.08-.31l-.06-.06c-.42-.41-.85-.81-1.26-1.22h-.11v-.06c-.39-.38-.78-.77-1.15-1.16h-.1s0-.06-.06-.09h.07l-.32-.33-.19-.19a2.34 2.34 0 00-.38 0c-.09 0-.15.14-.26.06l-.06.07a.61.61 0 01-.07.1h-.09v-.05a1.61 1.61 0 010-.22c0-.12.07-.14.19-.16s.35.07.53 0a2 2 0 01-.37-.48.5.5 0 00-.45-.24 1.08 1.08 0 00-.92.59zM35 44.63a.26.26 0 010-.08h.05H35zm-2.54-1.17v-.06h.08zm1.36-.35zm-.17.37s.07 0 .06.08l-.09-.07zm-.31 0c.06 0 .07 0 .06.08l-.07-.09zm0 .45a.11.11 0 01.13-.05c.08 0 .11-.11.19-.07s.1 0 .15-.08.1 0 .13 0v.06s.14 0 .13.12a.46.46 0 01-.06.23 1.39 1.39 0 01-.15.19c-.19 0-.17-.19-.23-.33h-.17c-.15 0-.23-.09-.21-.12zM33 42.79v-.05zm0 .58s.1.05.11.08 0 .09-.05.13h-.05l-.06-.14s.05-.09.05-.07zm-.16-.69a.07.07 0 010 .06h-.05zm-.12.64a.14.14 0 01.08.07s0 .07-.06.07-.07 0-.08-.07v-.06a.14.14 0 01.05-.01zm-.17-.74h.14l-.08.05a.06.06 0 01-.06 0s-.02-.05-.01-.05zm-.17-.79zm-.11.34a1.4 1.4 0 00.17-.09l.09.13a.86.86 0 00-.07.1.11.11 0 01-.14.05s-.11 0-.12-.07.01-.1.06-.12zm-.14-.49zM32 42.78h.16l.27.07v.09c0 .02-.09.1-.16 0a.53.53 0 010 .12h-.06a.49.49 0 01-.13-.28H32zm-.81-.78zm-1.14-1a.61.61 0 01.3.13.07.07 0 01-.05 0A.49.49 0 0130 41zm-.35-.64a.09.09 0 01.14 0s-.13 0-.14-.06-.01.06 0 .06zm-7.09-16.62a.43.43 0 00-.42.33.51.51 0 00.33.52 3.26 3.26 0 00.44.15l.47.14v-.13l.1.09a.1.1 0 010 .08c1.16.33 2.35.58 3.54.8a20.8 20.8 0 002.34.4h.43a.5.5 0 00.52-.55 1 1 0 00-.95-1c-.4 0-.79-.07-1.19-.13l-.66-.11a31.11 31.11 0 00-4.07-.67c-.33-.01-.59.07-.88.08zm7.26 1.62h-.05zm-.08.13s-.03 0 0 0zm-.83.38h.05s-.01-.01-.01 0zM28.5 25zm-.93.13zm-.38-.13h.08l-.05.08-.06-.07c-.06-.07.02-.01.03-.01zm-.36.26zm-.23-.39zm.2.69h.16-.16l-.23-.08c.14 0 .15 0 .23.11zm-.41-1.34l.07.06-.07.05s-.01-.05 0-.08zm-.32.44v.05zm0 .16a.06.06 0 01.07.07L26 25v-.15zm-.42-.2a.08.08 0 01.08 0l.11.1a.09.09 0 010 .06.12.12 0 01-.16-.05.08.08 0 01-.07-.08zm-.36.64zm-.47-1.09zm0 .49a.86.86 0 01.07.1v.17c0 .05-.11 0-.18 0zm2.63 17.61c.17 0 .22-.07.23-.24a.2.2 0 010-.11h.08c.03 0 0 0 0 .05a1.17 1.17 0 000 .11.13.13 0 000 .12c0 .06.06.09.12.07l.14-.07a.14.14 0 01.17 0 .1.1 0 00.12 0 .94.94 0 01.37.07.1.1 0 01.05 0 .53.53 0 00-.14-.56.8.8 0 00-.57-.22c-.17 0-.23.14-.31.25a5.48 5.48 0 00-.35.49zm1.18-.41v.05-.05zm-.33 0h.09a.39.39 0 000 .06h-.09zm-.18-.34zm-.76-25.2h-.05c0 .23.06.47.1.71a18.25 18.25 0 01.13 2.34.28.28 0 01.13 0c0 .09-.06.16-.15.19s0 .21 0 .32v.7l.09 1.44a.58.58 0 00.2.46 1.05 1.05 0 00.85.23.62.62 0 00.24-.08.13.13 0 010-.07.12.12 0 01.14 0 .56.56 0 00.06-.64c0-.1-.07-.19-.1-.28a.11.11 0 01-.09 0s-.05 0-.05-.06 0-.14.09-.13a.51.51 0 010-.13v-.57h-.07.06V19.4l-.08.09-.06-.06a.07.07 0 01.07-.08l.07.05v-1.13h-.08v-.08h.07c0-.25 0-.49-.05-.74a7.23 7.23 0 00-.31-1.72c-.13-.37-.46-.41-.79-.36a.55.55 0 00-.47.66l.09.05c.02.12.02.17-.04.24zm1.78 5.75zM28.76 21zm-1.1-1.81zm.05-.24zm.09 1.87a.47.47 0 01-.06-.09.1.1 0 01.06 0h.06zm.08-.22zm0-1.14h-.06v-.05a.07.07 0 010 .05zm0-.24zm.31-.59s.07-.03.07-.01zm.16.91zm0-1.22v-.05zm.21 4.42s.1-.01.09-.01zm0-1.87s0 .11-.07.11h-.07c-.02 0 0-.12.08-.11a.06.06 0 01.17-.01zm-.11-4.73zm-.41.95h.25c.08 0 .06.06.07.11h.09a.13.13 0 01.07 0 .19.19 0 010 .08h-.11c-.02 0 0-.07 0-.11h-.07a.14.14 0 00-.22 0 .08.08 0 01-.07 0s.07-.09.1-.09zm0 1.74s-.06.05-.08 0 0 0-.05-.06 0 0 .06 0 .1.02.13.05zm-.07-.7s0 .06-.06.05 0 0-.06 0 0-.05.05-.05.1-.03.1-.01zm-.37-1.77h-.05zm-.11.64s0-.08.08-.08h.08c.01 0 .08.1.16.06s.06 0 .08 0a.11.11 0 010 .08c0 .15-.22.08-.28.19s-.06 0-.06 0a.45.45 0 010-.25zm13.74 31.4h.14c.04 0 .17.14.29.11 0-.23 0-.46.07-.69s-.07 0-.11-.05-.15.09-.22.14 0 0 0 .06a.81.81 0 01-.11.43z" fill="#281e53"/><path d="M40.44 51.05a.92.92 0 001.16-.85v-1.12l-.2.1c-.12 0-.19 0-.25-.11s0 0 0-.06 0-.13.1-.16.16-.06.11-.17a2.39 2.39 0 00-.13-.28.56.56 0 01-.26-.47.15.15 0 00-.23-.11c-.06 0-.1.08-.17 0a.26.26 0 01-.22 0c0 .25-.07.5-.1.75h.21c.05.15.21.16.32.23s.12.05.13.08-.08.08-.14.1a.27.27 0 00-.16.1c-.06.09 0 .16.07.17h.22a.78.78 0 01.37 0h-.01a.7.7 0 00-.43 0h-.61l-.09.14c0 .25 0 .51-.07.76a.58.58 0 00.38.9zm.38-2.82zm.41 1.54a.76.76 0 010 .15h-.06v-.15h.06zm-.29.5zm-.16-.19l.07-.08c.07-.08 0 .08 0 .11s0 0-.06 0a.06.06 0 01-.01-.03zm-.15-.08zm-.26.53l.25-.06c.1 0 .17.09.27.06a.72.72 0 01.25 0h.06c.06 0 0 .09 0 .11a.31.31 0 01-.29.08c-.14 0-.26-.1-.4 0l-.17-.08a.11.11 0 01.03-.11zm-8.6-39.37a16.46 16.46 0 01-1.24 1.5c-.38.37-.75.77-1.11 1.16a.61.61 0 00.26 1 .71.71 0 00.85-.19l.48-.49h-.06a.06.06 0 01-.08-.06v-.32a.8.8 0 00.43 0l.12-.13a.29.29 0 00-.16 0c-.06 0-.11 0-.1-.08s0-.07.09-.06.13 0 .14-.09a.23.23 0 01.08-.09.1.1 0 01.14 0v.06c.2-.22.4-.46.58-.7.51-.7 1-1.39 1.58-2.08a1 1 0 00.24-.6.42.42 0 00-.26-.41.83.83 0 00-.92.13 11.87 11.87 0 00-1.06 1.45zm-1.9 3.26zm.34-.14H30a.09.09 0 01-.05-.12c0-.05.1-.08.13-.06a1.07 1.07 0 01.16.14l-.03.04zM32 11.22s0-.05-.05-.07.05-.05.07 0a.51.51 0 01.17.07v.05zm.35.63a3.54 3.54 0 01-.16-.34h.06a.39.39 0 01.32.16 2.06 2.06 0 01-.12.26s-.13-.05-.14-.08zm.17.34v-.06c0-.06 0 0 .06-.07s0 .06 0 .09-.08.04-.1.04zm.16-.91zM30 17.15zm4-4.93c-.47.49-.91 1-1.34 1.53a.2.2 0 010 .11.13.13 0 01-.09.07c-.25.31-.51.61-.77.91-.62.71-1.13 1.49-1.79 2.15a.55.55 0 01.35.2c-.25.09-.25.09-.39 0a.25.25 0 00-.09 0 .94.94 0 01-.1.1c-.29.26-.28.48 0 .79l.19.21a.24.24 0 00.21-.15c0-.05.08 0 .1 0s.09.15 0 .28l-.06.07h.27v-.1c0-.02.13-.06.2-.05s.08.06.14.1c-.13 0-.25-.05-.34 0h-.36a.73.73 0 00.9-.19 10 10 0 00.88-1.07.16.16 0 01-.24-.08.11.11 0 010-.08h.05a1.11 1.11 0 01.25 0A.2.2 0 0032 17l.1-.14a30.39 30.39 0 012.35-2.95l.41-.46.61-.66a.74.74 0 00.2-.45.45.45 0 00-.13-.36c0 .06 0 .1-.05.2s-.08 0-.13-.07L35.2 12a.33.33 0 01.18-.17.67.67 0 00-.47-.12s-.06.08-.09.06h-.06a.89.89 0 00-.23.1 2 2 0 00-.53.35zm-3.55 5.11a.14.14 0 010 .06h-.05zm0 .79v-.08c0-.02 0 0 0 0s.03.06 0 .08zm.21-.49h-.15a.41.41 0 010 .11.09.09 0 01.06-.11c0-.11.08-.13.13-.08s0 .04-.04.08zm.36-.54l-.36.1s-.05 0-.05-.07v-.08a.27.27 0 01.13-.07.36.36 0 00.17-.07c.05-.06.09-.05.14 0a.1.1 0 01-.05.19zm.1 1v-.05zm.17-.43zm.42-.95zm.16-1.71zm3-3.08zM33.11 14c0 .05 0 .12-.07.11s0-.08-.07-.13a.58.58 0 010-.1v-.07a.18.18 0 01.1-.07s.08 0 .07.08a.57.57 0 01-.03.18zm1 0c-.07.22-.08.22-.28.13 0 0-.06 0 0-.09s0-.1 0-.16l.42-.07c-.15.06-.16.11-.18.19zm.41-.82zm0 .23a.08.08 0 010-.05v.05zm.25-.41h-.21zm-.28-.68h.07c.02 0 0 0 0 .05a.43.43 0 01-.12.37h-.05a1.12 1.12 0 01-.26-.08.13.13 0 010-.17l.06-.11a.21.21 0 00.28-.08zm16.4 23.39z" fill="#281e53"/><path d="M28.5 51A22.5 22.5 0 016 28.5 22.5 22.5 0 0128.5 6 22.5 22.5 0 0151 28.5 22.5 22.5 0 0128.5 51z" fill="#fffa0c"/><path d="M47.5 45H47V19.49A2.48 2.48 0 0044.51 17h-4A2.48 2.48 0 0038 19.49V45h-3V24a2 2 0 00-2-2h-5a2 2 0 00-2 2v21h-3V16.91A1.92 1.92 0 0021.09 15h-5.18A1.92 1.92 0 0014 16.91V45h-3V32.19A2.19 2.19 0 008.81 30H4.19A2.19 2.19 0 002 32.19V45h-.5a1.5 1.5 0 000 3h46a1.5 1.5 0 000-3zM29 25h3v19.5h-3zm12-5h3v25h-3zm-24-2h3v27h-3zM5 33h3v12H5z" fill="#28282a"/><path d="M6.5 23a3 3 0 003-3 2.9 2.9 0 00-.28-1.25L18.24 6a2.06 2.06 0 00.26 0 3 3 0 001-.19l8 6.68a2.94 2.94 0 00-.05.51 3 3 0 006 .39l7.23-3a3 3 0 10-1.15-2.77l-7.23 3a3 3 0 00-1.8-.62 3 3 0 00-1 .19l-8-6.68a2.94 2.94 0 000-.51 3 3 0 00-6 0 2.9 2.9 0 00.28 1.25L6.76 17a2.3 2.3 0 00-.26 0 3 3 0 000 6z" fill="#28282a"/></g></g></svg>