<svg xmlns="http://www.w3.org/2000/svg" viewBox="0 0 51 51"><g data-name="Layer 2"><g data-name="Working Layer"><rect x="6" y="6" width="45" height="45" rx="22.5" fill="#fffa0c"/><path d="M46.5 23.89a1.5 1.5 0 001.5-1.5V15.5a1.5 1.5 0 00-1.5-1.5h-6.89a1.5 1.5 0 00-1.5 1.5v1.94h-7.55V9.89h1.94a1.5 1.5 0 001.5-1.5V1.5A1.5 1.5 0 0032.5 0h-6.89a1.5 1.5 0 00-1.5 1.5v1.94H9.89V1.5A1.5 1.5 0 008.39 0H1.5A1.5 1.5 0 000 1.5v6.89a1.5 1.5 0 001.5 1.5h1.94v14.22H1.5a1.5 1.5 0 00-1.5 1.5v6.89A1.5 1.5 0 001.5 34h6.89a1.5 1.5 0 001.5-1.5v-1.94h7.55v7.55H15.5a1.5 1.5 0 00-1.5 1.5v6.89a1.5 1.5 0 001.5 1.5h6.89a1.5 1.5 0 001.5-1.5v-1.94h14.22v1.94a1.5 1.5 0 001.5 1.5h6.89a1.5 1.5 0 001.5-1.5v-6.89a1.5 1.5 0 00-1.5-1.5h-1.94V23.89zM41.11 17H45v3.89h-3.89zm-14-14H31v3.89h-3.89zM3 3h3.89v3.89H3zm3.89 28H3v-3.89h3.89zm3-3.44v-1.95a1.5 1.5 0 00-1.5-1.5H6.44V9.89h2a1.5 1.5 0 001.5-1.5V6.44h14.17v2a1.5 1.5 0 001.5 1.5h1.95v7.55h-3.67V15.5a1.5 1.5 0 00-1.5-1.5H15.5a1.5 1.5 0 00-1.5 1.5v6.89a1.5 1.5 0 001.5 1.5h1.94v3.67zM17 20.89V17h3.89v3.89zM20.89 45H17v-3.89h3.89zM45 45h-3.89v-3.89H45zm-3.44-6.89h-2a1.5 1.5 0 00-1.5 1.5v2H23.89v-2a1.5 1.5 0 00-1.5-1.5h-1.95V23.89h1.95a1.5 1.5 0 001.5-1.5v-1.95h14.22v1.95a1.5 1.5 0 001.5 1.5h2z" fill="#282828"/></g></g></svg>