<svg xmlns="http://www.w3.org/2000/svg" viewBox="0 0 52.22 47.89"><g data-name="Layer 2"><g data-name="Working Layer"><path d="M29.72 47.89a22.5 22.5 0 01-22.5-22.5 22.51 22.51 0 0122.5-22.5 22.5 22.5 0 0122.5 22.5 22.5 22.5 0 01-22.5 22.5z" fill="#fffa0c"/><path d="M21.9 45.17a3.65 3.65 0 01-2.1-.66L1.58 31.85a3.67 3.67 0 01-.91-5.12l2.7-3.82A3.71 3.71 0 018.5 22l10.8 7.51a.71.71 0 001-.17L39.78 1.57a3.7 3.7 0 015.13-.91l3.84 2.67a3.65 3.65 0 01.9 5.12L24.94 43.61a3.7 3.7 0 01-3.04 1.56zM6.39 24.34a.69.69 0 00-.57.3l-2.7 3.82A.65.65 0 003 29a.68.68 0 00.28.43l18.23 12.62a.7.7 0 001-.17L47.2 6.72a.65.65 0 00.11-.5.62.62 0 00-.31-.43l-3.8-2.67a.71.71 0 00-1 .17L22.72 31.06a3.7 3.7 0 01-5.13.91l-10.8-7.5a.66.66 0 00-.4-.13z" fill="#282828"/></g></g></svg>