<svg xmlns="http://www.w3.org/2000/svg" viewBox="0 0 47 50.5"><g data-name="Layer 2"><g data-name="Working Layer"><circle cx="24.5" cy="28" r="22" fill="#fffa0c"/><path d="M24.5 6.5A21.5 21.5 0 113 28 21.52 21.52 0 0124.5 6.5m0-1A22.5 22.5 0 002 28a22.5 22.5 0 0022.5 22.5A22.5 22.5 0 0047 28 22.5 22.5 0 0024.5 5.5z" fill="#fffa0c"/><path d="M34.19 3.44h-4.9a2.65 2.65 0 00-2.65-2h-3.32l-1.1-.88A2.49 2.49 0 0020.65 0h-1.8a2.49 2.49 0 00-1.57.56l-1.1.89h-2.82a2.65 2.65 0 00-2.65 2h-4.9A5.84 5.84 0 000 9.29v32.36a5.84 5.84 0 005.81 5.85h28.38A5.84 5.84 0 0040 41.65V9.29a5.84 5.84 0 00-5.81-5.85zm-20.54 1h5.14V3.19L19 3h1.44l.24.19v1.26h5.64V6H13.65zM37 41.65a2.83 2.83 0 01-2.81 2.85H5.81A2.83 2.83 0 013 41.65V9.29a2.83 2.83 0 012.81-2.85h4.84v.09A2.61 2.61 0 0013.36 9h13.28a2.61 2.61 0 002.71-2.48v-.08h4.84A2.83 2.83 0 0137 9.29z" fill="#282828"/><path d="M12.44 12.83a1.5 1.5 0 00-2.11.23l-1.87 2.32-.35-.38a1.5 1.5 0 10-2.22 2l1.34 1.46a1.86 1.86 0 001.29.54 1.83 1.83 0 001.3-.54l2.85-3.52a1.5 1.5 0 00-.23-2.11zm0 11a1.5 1.5 0 00-2.11.23l-1.87 2.32-.35-.38a1.5 1.5 0 00-2.22 2l1.34 1.46a1.86 1.86 0 001.29.54 1.83 1.83 0 001.3-.54l2.85-3.52a1.5 1.5 0 00-.23-2.11zm0 11a1.5 1.5 0 00-2.11.23l-1.87 2.32-.35-.38a1.5 1.5 0 00-2.22 2l1.34 1.46a1.86 1.86 0 001.29.54 1.83 1.83 0 001.3-.54l2.85-3.52a1.5 1.5 0 00-.23-2.11zM32.5 12.5h-16a1.5 1.5 0 000 3h16a1.5 1.5 0 000-3zm-16 7H28a1.5 1.5 0 000-3H16.5a1.5 1.5 0 000 3zm16 4h-16a1.5 1.5 0 000 3h16a1.5 1.5 0 000-3zm-16 7H28a1.5 1.5 0 000-3H16.5a1.5 1.5 0 000 3zm16 4h-16a1.5 1.5 0 000 3h16a1.5 1.5 0 000-3zm-4.5 4H16.5a1.5 1.5 0 000 3H28a1.5 1.5 0 000-3z" fill="#282828"/></g></g></svg>