<svg xmlns="http://www.w3.org/2000/svg" viewBox="0 0 51 51"><g data-name="Layer 2"><g data-name="Working Layer"><path d="M28.5 51A22.5 22.5 0 016 28.5 22.5 22.5 0 0128.5 6 22.5 22.5 0 0151 28.5 22.5 22.5 0 0128.5 51z" fill="#fffa0c"/><path d="M50 19.5a3.48 3.48 0 00-1-2.47 3.57 3.57 0 00-5 0l-5 5V10a1.46 1.46 0 00-.11-.55 1.63 1.63 0 00-.33-.49L30.06.44a1.63 1.63 0 00-.49-.33A1.46 1.46 0 0029 0H1.5A1.5 1.5 0 000 1.5v45A1.5 1.5 0 001.5 48h36a1.5 1.5 0 001.5-1.5V31.89L48.92 22A3.48 3.48 0 0050 19.5zM30.5 5.12l3.38 3.38H30.5zM36 45H3V3h24.5v7a1.5 1.5 0 001.5 1.5h7V25l-8.65 8.64a1.57 1.57 0 00-.36.59l-1.41 4.24a1.51 1.51 0 00.36 1.53 1.53 1.53 0 001.06.44 1.5 1.5 0 00.47-.08L31.72 39a1.35 1.35 0 00.58-.36l3.7-3.7zm10.8-25.15L30.43 36.22l-1.06.35.36-1.06 16.36-16.36a.5.5 0 01.71 0 .5.5 0 010 .7z" fill="#28282a"/><path d="M10.5 10h14a1.5 1.5 0 000-3h-14a1.5 1.5 0 000 3zm-4 6h26a1.5 1.5 0 000-3h-26a1.5 1.5 0 000 3zm0 6h26a1.5 1.5 0 000-3h-26a1.5 1.5 0 000 3zm0 6h23a1.5 1.5 0 000-3h-23a1.5 1.5 0 000 3zm17 3h-17a1.5 1.5 0 000 3h17a1.5 1.5 0 000-3zm-2 6h-15a1.5 1.5 0 000 3h15a1.5 1.5 0 000-3z" fill="#28282a"/></g></g></svg>