<svg xmlns="http://www.w3.org/2000/svg" viewBox="0 0 51 51"><g data-name="Layer 2"><g data-name="Working Layer"><rect x="6" y="6" width="45" height="45" rx="22.5" fill="#fffa0c"/><path d="M24 28.47A14.24 14.24 0 109.76 14.24 14.24 14.24 0 0024 28.47zM24 3a11.24 11.24 0 11-11.24 11.24A11.25 11.25 0 0124 3z" fill="#28282a"/><path d="M45.37 33.7a32 32 0 00-9.13-5.32 4.55 4.55 0 00-1.59-.28 4.37 4.37 0 00-2.58.82 13.72 13.72 0 01-15.83.21 4.27 4.27 0 00-2.39-.72 4.42 4.42 0 00-1.67.32C9.1 30 5.27 31.6 2.7 33.64A7.1 7.1 0 000 39.2v6.47A2.3 2.3 0 002.28 48h43.44A2.3 2.3 0 0048 45.67V39.2a7 7 0 00-2.63-5.5zM45 45H3v-5.8A4.07 4.07 0 014.57 36c2.3-1.82 6.08-3.43 8.72-4.47a1.36 1.36 0 01.56-.11 1.17 1.17 0 01.69.2 16.74 16.74 0 0019.29-.26 1.38 1.38 0 01.82-.25 1.54 1.54 0 01.56.1A29.08 29.08 0 0143.5 36a4.06 4.06 0 011.5 3.2z" fill="#28282a"/></g></g></svg>