<svg xmlns="http://www.w3.org/2000/svg" viewBox="0 0 52.5 51.61"><g data-name="Layer 2"><g data-name="Working Layer"><rect x="7.5" y="6.61" width="45" height="45" rx="22.5" fill="#fffa0c"/><path d="M28.4 48.61h-5.81a1.5 1.5 0 01-1.5-1.5V36.25a14.65 14.65 0 0114.64-14.64H40v-3.56A1.5 1.5 0 0142.54 17l8 8a1.51 1.51 0 010 2.13l-8 8a1.52 1.52 0 01-1.64.32 1.49 1.49 0 01-.9-1.35v-3.68h-4a6.13 6.13 0 00-6.09 6.12v10.57a1.5 1.5 0 01-1.51 1.5zm-4.31-3h2.81v-9a9.14 9.14 0 019.1-9.17h5.5a1.49 1.49 0 011.06.43 1.54 1.54 0 01.44 1.05v1.55l4.4-4.4-4.4-4.4v1.44a1.5 1.5 0 01-1.5 1.5h-5.77a11.66 11.66 0 00-11.64 11.64zm4.22-23.5a1.51 1.51 0 01-1.5-1.51V10.13a1.51 1.51 0 011.5-1.5h1.74L25.52 3.7l-4.59 4.93h1.6a1.5 1.5 0 011.06.44 1.47 1.47 0 01.41 1.06v10.48a1.5 1.5 0 01-1.5 1.5A1.51 1.51 0 0121 20.6v-9h-3.52a1.5 1.5 0 01-1.1-2.52l8-8.63A1.48 1.48 0 0125.52 0a1.49 1.49 0 011.1.48l8 8.63a1.5 1.5 0 01-1.1 2.52h-3.68v9a1.5 1.5 0 01-1.53 1.48z" fill="#28282a"/><path d="M9.52 35.65a1.49 1.49 0 01-1.06-.44l-8-8a1.49 1.49 0 010-2.12l8-8A1.5 1.5 0 0111 18.11v3.55h4.25a14.57 14.57 0 018.11 2.46 1.5 1.5 0 11-1.67 2.49 11.61 11.61 0 00-6.44-1.95H9.52A1.5 1.5 0 018 23.16v-1.43l-4.4 4.4 4.4 4.4V29a1.5 1.5 0 011.5-1.5H15a9.07 9.07 0 015.36 1.78 1.5 1.5 0 11-1.78 2.41A6.12 6.12 0 0015 30.5h-4v3.67a1.5 1.5 0 01-.93 1.39 1.6 1.6 0 01-.55.09z" fill="#28282a"/></g></g></svg>