<svg xmlns="http://www.w3.org/2000/svg" viewBox="0 0 52 52"><g data-name="Layer 2"><g data-name="Working Layer"><rect x="7" y="7" width="45" height="45" rx="22.5" fill="#fffa0c"/><path d="M25 16a2.54 2.54 0 01-1.82-.76l-8.5-8.51a2.58 2.58 0 010-3.64L17 .75a2.65 2.65 0 013.65 0L25 5.12 29.38.75a2.58 2.58 0 013.62 0l2.34 2.34a2.58 2.58 0 010 3.64l-8.52 8.51A2.54 2.54 0 0125 16zM17.1 4.91l7.9 7.91 7.91-7.91-1.71-1.74-4.36 4.37a2.58 2.58 0 01-3.64 0l-4.37-4.37zM18.83 50a2.57 2.57 0 01-1.83-.76l-2.33-2.33a2.58 2.58 0 010-3.64l8.52-8.52a2.58 2.58 0 013.64 0l8.52 8.52a2.58 2.58 0 010 3.64L33 49.24a2.57 2.57 0 01-3.64 0L25 44.88l-4.36 4.36a2.57 2.57 0 01-1.81.76zM25 41.71a2.57 2.57 0 011.82.75l4.36 4.36 1.73-1.73L25 37.17l-7.9 7.92 1.73 1.73 4.37-4.36a2.57 2.57 0 011.8-.75zm20.09-5.62a2.57 2.57 0 01-1.82-.75l-8.52-8.52a2.58 2.58 0 010-3.64l8.52-8.52a2.58 2.58 0 013.64 0L49.24 17a2.58 2.58 0 010 3.65L44.88 25l4.36 4.36a2.57 2.57 0 010 3.64l-2.33 2.34a2.57 2.57 0 01-1.82.75zM37.17 25l7.92 7.91 1.73-1.73-4.36-4.36a2.58 2.58 0 010-3.64l4.36-4.37-1.73-1.73zM4.91 36.09a2.57 2.57 0 01-1.82-.75L.75 33a2.58 2.58 0 010-3.64L5.12 25 .75 20.64a2.6 2.6 0 010-3.64l2.34-2.33a2.58 2.58 0 013.64 0l8.51 8.52a2.57 2.57 0 010 3.64l-8.51 8.51a2.57 2.57 0 01-1.82.75zm-1.74-4.91l1.74 1.73L12.82 25l-7.91-7.92-1.74 1.73 4.37 4.37a2.58 2.58 0 010 3.64zM25 31a6 6 0 116-6 6 6 0 01-6 6zm0-9a3 3 0 103 3 3 3 0 00-3-3z"/></g></g></svg>