<svg xmlns="http://www.w3.org/2000/svg" viewBox="0 0 53 52"><g data-name="Layer 2"><g data-name="Working Layer"><path d="M29.5 52A22.5 22.5 0 017 29.5 22.5 22.5 0 0129.5 7 22.5 22.5 0 0152 29.5 22.5 22.5 0 0129.5 52z" fill="#fffa0c"/><path d="M33.86 36.52a2.49 2.49 0 00-3.28-.91A11.83 11.83 0 0125 37a12.06 12.06 0 01-8.92-4 11.94 11.94 0 01-3-9.33 12 12 0 0117.52-9.31 2.48 2.48 0 003.27-.91l2.1-3.4a2.57 2.57 0 00.29-2 2.49 2.49 0 00-1.2-1.53 21.13 21.13 0 00-4-1.69V2.5A2.5 2.5 0 0028.5 0h-7A2.5 2.5 0 0019 2.5v2.39a20.91 20.91 0 00-4 1.65l-1.7-1.69a2.49 2.49 0 00-3.53 0l-5 5a2.49 2.49 0 000 3.53L6.54 15a20.91 20.91 0 00-1.65 4H2.5A2.5 2.5 0 000 21.5v7A2.5 2.5 0 002.5 31h2.39a20.91 20.91 0 001.65 4l-1.69 1.7a2.49 2.49 0 000 3.53l5 4.95a2.49 2.49 0 003.53 0L15 43.46a20.91 20.91 0 004 1.65v2.39a2.5 2.5 0 002.5 2.5h7a2.5 2.5 0 002.5-2.5v-2.39a21.13 21.13 0 004-1.69 2.49 2.49 0 001.2-1.53 2.57 2.57 0 00-.29-2zm-4 5.8A2.51 2.51 0 0028 44.73V47h-6v-2.27a2.51 2.51 0 00-1.84-2.41 18 18 0 01-4-1.65 2.51 2.51 0 00-3 .4l-1.61 1.61-4.23-4.24 1.61-1.61a2.52 2.52 0 00.4-3 18 18 0 01-1.65-4A2.51 2.51 0 005.27 28H3v-6h2.27a2.51 2.51 0 002.41-1.84 18 18 0 011.65-4 2.52 2.52 0 00-.4-3l-1.61-1.6 4.24-4.24 1.61 1.61a2.52 2.52 0 003 .4 18 18 0 014-1.65A2.51 2.51 0 0022 5.27V3h6v2.27a2.51 2.51 0 001.84 2.41A17.7 17.7 0 0133.12 9l-1.57 2.56a15 15 0 100 27L33.12 41a17.7 17.7 0 01-3.28 1.32z" fill="#282828"/><path d="M52.66 23.88a2.31 2.31 0 00-.54-.54A2.05 2.05 0 0051 23a2 2 0 00-1.31.5H48a2.48 2.48 0 00-1.95.94L44.78 26H22v3h16.17l4.26 6.83A2.52 2.52 0 0044.55 37h2.14a2 2 0 001.31.5 2.05 2.05 0 001.12-.34 2.31 2.31 0 00.54-.54 2 2 0 000-2.24 2.31 2.31 0 00-.54-.54A2.05 2.05 0 0048 33.5a2 2 0 00-1.31.5h-1.86l-3.12-5H45a2.48 2.48 0 002-.94l1.25-1.56h1.47A2 2 0 0051 27a2.05 2.05 0 001.12-.34 2.31 2.31 0 00.54-.54 2 2 0 000-2.24z" fill="#282828"/><path d="M47.62 39.34A2.05 2.05 0 0046.5 39a2 2 0 00-1.31.5H40.6l-5-8a2.49 2.49 0 00-2.11-1.17h-4a2.48 2.48 0 00-1.23.34 6.5 6.5 0 110-11.28 2.49 2.49 0 001.24.34h4a2.49 2.49 0 002.11-1.17l6-9.53h5.1A2 2 0 0048 9.5a2.05 2.05 0 001.12-.34 2.31 2.31 0 00.54-.54 2 2 0 000-2.24 2.31 2.31 0 00-.54-.54A2.05 2.05 0 0048 5.5a2 2 0 00-1.31.5h-5.37a2.48 2.48 0 00-2.11 1.16l-6 9.54H29.6a9.48 9.48 0 00-11.92 2.24A9.49 9.49 0 0029.6 33.3h3.57l5 8a2.5 2.5 0 002.12 1.17h4.87a2 2 0 001.31.5 2.05 2.05 0 001.12-.34 2.31 2.31 0 00.54-.54 2 2 0 000-2.24 2.31 2.31 0 00-.51-.51z" fill="#282828"/><path d="M49.62 16.34A2.05 2.05 0 0048.5 16a2 2 0 00-1.31.5h-.65a2.5 2.5 0 00-2.08 1.11L42.2 21h-2.48l4.11-6.5h1.36a2 2 0 001.31.5 2.05 2.05 0 001.12-.34 2.31 2.31 0 00.54-.54 2 2 0 000-2.24 2.31 2.31 0 00-.54-.54A2.05 2.05 0 0046.5 11a2 2 0 00-1.31.5h-1.64a2.49 2.49 0 00-2.11 1.17L36.17 21H22v3h14.45a2.51 2.51 0 00.55-.07V24h5.46a2.5 2.5 0 002.08-1.11l2.26-3.39h.39a2 2 0 001.31.5 2.05 2.05 0 001.12-.34 2.31 2.31 0 00.54-.54 2 2 0 000-2.24 2.31 2.31 0 00-.54-.54z" fill="#282828"/></g></g></svg>