<svg xmlns="http://www.w3.org/2000/svg" viewBox="0 0 51 51"><g data-name="Layer 2"><path d="M44 8l-1.1 1L44 8A25.5 25.5 0 000 25.5 25.5 25.5 0 1044 8zm3.93 16h-9.47a29.78 29.78 0 00-2-9.39 23.85 23.85 0 006.28-3.55A22.39 22.39 0 0147.93 24zM27 6.24a23.11 23.11 0 015.28 6.51 29.94 29.94 0 01-5.28.69zm.92-3.11a22.24 22.24 0 0112.73 5.75 21 21 0 01-5.45 3 26 26 0 00-7.28-8.75zM24 6.24v7.21a26.89 26.89 0 01-5.25-.74A23 23 0 0124 6.24zm-8.16 5.55a25.19 25.19 0 01-5.52-2.88 22.18 22.18 0 0112.76-5.78 25.92 25.92 0 00-7.24 8.66zM24 16.45V24h-8.46a27 27 0 011.9-8.54 29.88 29.88 0 006.56.99zM24 27v7.56a30.07 30.07 0 00-6.53 1A26.76 26.76 0 0115.54 27zm0 10.56v7.2a23 23 0 01-5.23-6.42 27.5 27.5 0 015.23-.78zm-.92 10.31a22.21 22.21 0 01-12.65-5.68 24.56 24.56 0 015.45-2.9 26.06 26.06 0 007.2 8.58zM27 44.76v-7.2a27.5 27.5 0 015.23.78A23 23 0 0127 44.76zm8.12-5.47a24.56 24.56 0 015.45 2.9 22.21 22.21 0 01-12.65 5.68 26.06 26.06 0 007.2-8.58zM27 34.56V27h8.46a26.76 26.76 0 01-1.93 8.6A30.07 30.07 0 0027 34.56zM27 24v-7.56a32.13 32.13 0 006.58-.92A26.92 26.92 0 0135.46 24zM8.25 11.1a27.49 27.49 0 006.34 3.42A30 30 0 0012.54 24H3.07a22.4 22.4 0 015.18-12.9zM3.07 27h9.47a29.67 29.67 0 002.09 9.56A27.57 27.57 0 008.35 40a22.36 22.36 0 01-5.28-13zm39.58 13a27.57 27.57 0 00-6.28-3.45A29.67 29.67 0 0038.46 27h9.47a22.36 22.36 0 01-5.28 13z" fill="#333" data-name="Working Layer"/></g></svg>