<svg xmlns="http://www.w3.org/2000/svg" viewBox="0 0 52.01 51.23"><g data-name="Layer 2"><g data-name="Working Layer"><rect x="7.01" y="6.23" width="45" height="45" rx="22.5" fill="#fffa0c"/><path d="M43.68 32.4l-11-5.9v-5.31a1.54 1.54 0 00-.14-.66.43.43 0 000-.07 1.46 1.46 0 00-.65-.63l-5.31-2.73V7.23a1.5 1.5 0 00-3 0v9.86l-5.29 2.72-.13.07a1.48 1.48 0 00-.46.44 1.51 1.51 0 00-.21.49 1.23 1.23 0 000 .38v5.31l-11 5.9a1.5 1.5 0 00.71 2.83 1.46 1.46 0 00.7-.18l10.99-5.95 5.41 2.78a1.4 1.4 0 00.68.17H25a1.4 1.4 0 00.68-.17l5.41-2.78 11.14 5.95a1.53 1.53 0 00.71.18 1.5 1.5 0 00.7-2.83zm-20.17-4.3l-3.13-1.61v-2.9l3.13 1.58zM25 22.57l-2.83-1.42L25 19.69l2.83 1.46zm4.64 3.92l-3.13 1.61v-2.93l3.14-1.58zm7.87-23.92A25 25 0 0031.4.05 1.5 1.5 0 1030.63 3 22.3 22.3 0 0136 5.17 22 22 0 0146.25 30a1.49 1.49 0 001 1.84 1.31 1.31 0 00.39.05 1.51 1.51 0 001.45-1.1A25 25 0 0037.51 2.57zM6 13.23A21.83 21.83 0 0119.39 3a1.5 1.5 0 00-.76-2.9A25 25 0 00.89 30.78a1.49 1.49 0 001.44 1.11 1.83 1.83 0 00.4-.05 1.49 1.49 0 001-1.84A21.86 21.86 0 016 13.23zm34.63 26.5A22 22 0 0114 43.28a22.27 22.27 0 01-4.62-3.55 1.5 1.5 0 10-2.12 2.11 25 25 0 0035.49 0 1.5 1.5 0 10-2.13-2.11z" fill="#282828"/><path d="M30 15.57l.21.13A10 10 0 0135 24a1.5 1.5 0 001.5 1.46A1.5 1.5 0 0038 23.9a13 13 0 00-6.22-10.77l-.27-.13A1.5 1.5 0 1030 15.57zm-11.77-2.44A13 13 0 0012 23.9a1.51 1.51 0 001.47 1.54A1.5 1.5 0 0015 24a10 10 0 011.34-4.74 10.14 10.14 0 013.44-3.54 1.5 1.5 0 00-1.56-2.56zM25 37.23a13.12 13.12 0 006.22-1.58 1.52 1.52 0 00.6-2 1.5 1.5 0 00-2-.6 10 10 0 01-9.56 0 1.5 1.5 0 00-1.43 2.64A13 13 0 0025 37.23z" fill="#282828"/><path d="M42 28.73h.26a1.5 1.5 0 001.48-1.24 19.07 19.07 0 00-9.23-19.72 18.74 18.74 0 00-3-1.39 1.5 1.5 0 10-1 2.81A16.87 16.87 0 0133 10.37 16 16 0 0140.77 27 1.51 1.51 0 0042 28.73zM18.5 6.38A19 19 0 006.3 27.51a1.5 1.5 0 001.47 1.24h.26A1.5 1.5 0 009.25 27 16 16 0 0119.52 9.2a1.51 1.51 0 00.9-1.93 1.49 1.49 0 00-1.92-.89zm-3.77 30.11a1.5 1.5 0 00-1.92 2.3 19.5 19.5 0 002.7 1.89 19.09 19.09 0 0021.71-1.89 1.5 1.5 0 00-1.93-2.3A16.05 16.05 0 0117 38.08a16.32 16.32 0 01-2.27-1.59z" fill="#282828"/></g></g></svg>