<svg xmlns="http://www.w3.org/2000/svg" viewBox="0 0 50.54 50.5"><g data-name="Layer 2"><g data-name="Working Layer"><rect x="5.54" y="5.5" width="45" height="45" rx="22.5" fill="#fffa0c"/><path d="M28.6 3l4.76 1.83-.47 1.51a4.06 4.06 0 001.3 4.32 17.75 17.75 0 011.55 1.46 4.1 4.1 0 003 1.31 4.17 4.17 0 001.4-.25l1.5-.56 2.07 4.66-1.41.72a4 4 0 00-2.14 4 15.06 15.06 0 01.06 2.12A4 4 0 0042.59 28l1.45.67-1.83 4.75-1.51-.46a4 4 0 00-4.32 1.3 17.48 17.48 0 01-1.52 1.59 4 4 0 00-1.08 4.4l.54 1.49-4.65 2.07-.74-1.42a4 4 0 00-3.61-2.17h-.36c-.49 0-1 .06-1.48.06h-.81A4.07 4.07 0 0019 42.61L18.31 44l-4.76-1.83.45-1.49a4 4 0 00-1.28-4.32 17.76 17.76 0 01-1.54-1.47 4.07 4.07 0 00-3-1.32 4.15 4.15 0 00-1.39.24l-1.49.55-2.04-4.66 1.42-.7a4.05 4.05 0 002.15-4 16.72 16.72 0 010-2.12A4.07 4.07 0 004.43 19L3 18.34l1.83-4.75 1.52.47a4 4 0 004.34-1.28 15 15 0 011.4-1.48 4.07 4.07 0 001.05-4.4l-.56-1.49 4.66-2.07.76 1.4a4.08 4.08 0 003.6 2.16h.38c.52 0 1-.07 1.56-.07h.71a4.09 4.09 0 003.71-2.37L28.6 3m0-3a3 3 0 00-2.73 1.75l-.66 1.45a1.06 1.06 0 01-1 .62h-.71c-.61 0-1.22 0-1.84.08h-.1a1.05 1.05 0 01-.94-.56l-.75-1.41A3 3 0 0017.24.34 2.94 2.94 0 0016 .6l-4.64 2.07a3 3 0 00-1.59 3.78L10.33 8A1.08 1.08 0 0110 9.11a19.31 19.31 0 00-1.65 1.74 1.1 1.1 0 01-.83.4 1.19 1.19 0 01-.32-.05l-1.52-.48a3.06 3.06 0 00-.89-.14A3 3 0 002 12.51L.2 17.27a3 3 0 001.54 3.79l1.43.67a1.07 1.07 0 01.61 1 21.09 21.09 0 00.06 2.51 1.07 1.07 0 01-.56 1l-1.41.74a3 3 0 00-1.35 3.94l2.07 4.66a3 3 0 002.74 1.78 3.06 3.06 0 001-.18l1.49-.55a1.13 1.13 0 01.36-.06 1.11 1.11 0 01.8.35 19.81 19.81 0 001.81 1.74 1.06 1.06 0 01.34 1.13l-.65 2.08a2.2 2.2 0 001.2 2.85l5.52 2.12a3.13 3.13 0 001.08.2A3 3 0 0021 45.3l.66-1.43a1.07 1.07 0 011-.61h.81a16.88 16.88 0 001.74-.08h.1a1.07 1.07 0 01.95.56l.74 1.43a3 3 0 002.66 1.61 2.94 2.94 0 001.22-.26l4.65-2.07a3 3 0 001.6-3.78l-.54-1.48a1.08 1.08 0 01.3-1.19 20.1 20.1 0 001.8-1.89 1.06 1.06 0 01.82-.39.87.87 0 01.31 0l2.07.63a2.69 2.69 0 00.82.13 2.09 2.09 0 002-1.33l2.12-5.52a3 3 0 00-1.55-3.8l-1.45-.67a1.06 1.06 0 01-.62-1 21 21 0 00-.07-2.51 1.07 1.07 0 01.55-1l1.4-.74a3 3 0 001.34-3.87l-2.06-4.64a3 3 0 00-3.79-1.59l-1.49.55a.92.92 0 01-.36.07 1.11 1.11 0 01-.8-.35 19.81 19.81 0 00-1.82-1.73 1.05 1.05 0 01-.35-1.13l.64-2.07a2.2 2.2 0 00-1.21-2.83L29.68.2A3 3 0 0028.6 0z"/><path d="M23.51 37.47a14 14 0 1114-14 14 14 0 01-14 14zm0-25a11 11 0 1011 11 11 11 0 00-11-11z"/><path d="M21.07 29.47a2.51 2.51 0 01-1.75-.71L16 25.45a1.5 1.5 0 112.1-2.13l3 2.95 7.88-7.94a1.5 1.5 0 112.13 2.11l-8.23 8.3a2.47 2.47 0 01-1.81.73z"/></g></g></svg>