<svg xmlns="http://www.w3.org/2000/svg" viewBox="0 0 54.5 53.97"><g data-name="Layer 2"><g data-name="Working Layer"><path d="M24.08 51a.19.19 0 000-.08.15.15 0 00-.05-.06h-.06c-.06 0 0 0 0 .05zm-6.9-12.3c-.16 0-.18.14-.28.21s0-.09-.06-.1-.11-.15-.08-.26.15-.15.22-.07a1.56 1.56 0 00.2.16c0-.15-.06-.3-.08-.46a.49.49 0 00-.14-.32.63.63 0 00-.75-.14.6.6 0 00-.43.66v.27c0 .32.1.62.16.93.22 1 .55 2 .81 3.06h.17a.09.09 0 01.11.08.21.21 0 010 .07.41.41 0 00-.22 0 1.85 1.85 0 00.36.64.63.63 0 00.22.18.81.81 0 00.83 0 .64.64 0 00.18-.89h-.29c.07 0 .11-.1.14-.09h.1a2.49 2.49 0 01-.35-.73 25 25 0 01-.86-3.22zM16 38.22l-.15-.07H16zm.06-.35zm.16 1zm.48-.85zm1.62 4.83zm-.5.78zm.25-.34v.18c0 .07.06.14 0 .21s-.09.05-.1 0-.15-.21 0-.34.03-.11.09-.07zm-.29-1a.14.14 0 01.17 0s.1.06.08.12-.07.07-.09.09a.16.16 0 01-.18-.13zm0 .41s.05.05 0 .07 0 .05-.06.05h-.13a.84.84 0 00-.17.05c-.05 0-.09.06-.13 0a.14.14 0 010-.18h.07a2.79 2.79 0 01.41 0zm-.47-1.7zm0-.11zm.34-3.89c0 .16.06.32.1.48a.23.23 0 01.14 0 .23.23 0 00-.11.08c.14.57.31 1.13.44 1.71l.36 1.54a1 1 0 00.73.79.74.74 0 001-.73.86.86 0 00-.14-.34 4 4 0 01-.44-1.09c-.16-.58-.32-1.16-.49-1.74s-.3-1-.47-1.56v-.05a.13.13 0 010-.07.5.5 0 00-.85 0 .75.75 0 00-.19.35 1.47 1.47 0 00-.08.63zM20 40.72v.06h-.08a.24.24 0 010-.07zm-.66.68v-.08c0-.02 0 0 .07 0s0 .16 0 .19-.08 0-.11 0a.24.24 0 01-.12-.08c.03-.1.09-.05.15-.03zm-.19-2.06h.07l-.07.06a.43.43 0 010-.07.08.08 0 01-.01.01zm-.23-.67a.08.08 0 010-.05zm0 .84v-.06l.07.08a.61.61 0 01-.07.1.29.29 0 01-.04-.12zM18.8 37zm0 .49v.06h-.06zm-.5 1.65a.42.42 0 010-.1v.1c0 .03.01-.01 0 0zm0-1.92zm.22-.82zm-.32.27l.16-.07h-.11v-.06l.09.07c.06 0 .13 0 .14.09a2.8 2.8 0 010 .29c-.11-.07-.18-.18-.31-.21s.01-.09.05-.11zm14.34-5.11a.54.54 0 00.14.76.8.8 0 001 .22c.45-.25.41-.62.68-1a15.31 15.31 0 00.91-1.54 2.86 2.86 0 00.21-.58.37.37 0 000-.32.71.71 0 00-1.16-.21.14.14 0 01.09 0 .17.17 0 000 .19c-.08 0-.11-.05-.14-.1v-.06l-.12.2-.28.47c-.16.26-.33.52-.51.76a.08.08 0 010 .09h-.07c-.08.1-.15.2-.23.29a3.31 3.31 0 00-.52.83zm2.15-1.14c.12 0 .16 0 .18.17a.17.17 0 010 .12h-.1c-.03 0-.13-.07-.14-.15s-.01-.15.06-.14zm-.92.32zm.07.55h-.05.05zm.21-1.79a.39.39 0 01.15 0 .38.38 0 00-.11.23l-.09-.12s0-.09.05-.11zm-.26.86a.31.31 0 01.1.08h-.1c-.01 0 0-.05-.07-.08s.05-.01.07 0zM24 40.17a.27.27 0 010 .23.8.8 0 00.47.64h.14a.1.1 0 01.08.08.92.92 0 00.33 0l.17-.06a.56.56 0 00.33-.58.19.19 0 010-.07v-.06a1.27 1.27 0 00-.65-.66.56.56 0 00-.87.48zm.92.13a.18.18 0 01.07 0c.11 0 .18.06.21.19s.05 0 .05 0a.24.24 0 00-.23 0 .1.1 0 01-.07 0 .1.1 0 01.05-.19zm-.24-.42h.08v.09c0 .02-.05 0-.08 0s.02-.07.04-.09zm-5.24 9.95a.2.2 0 01-.13 0 .67.67 0 00-.37 0l.1.07h.76a2.17 2.17 0 00-.36-.07zm-1.34-6.45zm-3-7.79v.06h-.12c-.06 0-.13 0-.16.13s0 0-.06 0l-.3.38a.27.27 0 010 .37l-.23.13a.92.92 0 010-.17.27.27 0 000-.12c-.11.16-.23.31-.35.46l.23-.05a.07.07 0 01.09.06.1.1 0 010 .09s-.07.07-.1 0a.26.26 0 00-.21-.12l-.1.12a.68.68 0 000 .8.81.81 0 00.69.48c.28 0 .42-.18.53-.41a3.82 3.82 0 01.42-.7.08.08 0 010-.08.1.1 0 01.07 0h.06l.07-.09c.13-.18.28-.35.43-.52.26-.3.53-.58.79-.88s.31-.53.11-.8c0 .08-.09.11-.19.05q-.12 0-.06.09s0 .05-.05.05h-.06a.77.77 0 01.09-.47c-.25-.19-.48-.15-.76.09a2.13 2.13 0 00-.31.29l-.52.63zm-1 1.31zm.15 1.19h-.06l.07-.07zm.1-.73l-.06.06v-.08s.08.01.07.02zm.1.4h-.06.1s-.01.01-.03 0zm1.95-2.08a.08.08 0 01.01 0zm-.07.24h.05zm-.22-.92zm-.11.8s0 .01 0 0zm4.15 12.07zm24.41-20.22a.43.43 0 00-.22.06.89.89 0 00-.41.76.62.62 0 00.23.51h.12a.4.4 0 00.52 0 .75.75 0 00.35-.61.8.8 0 00-.59-.72zm.16.11h-.2c-.06 0 0 0 0-.05.07 0 .15 0 .19.06s.02-.01.01-.01zm-.26-6.23a.52.52 0 00-.2-.69 1.21 1.21 0 00-.57-.19.81.81 0 00-.75.51 5.36 5.36 0 01-.82 1.33 2.71 2.71 0 00-.24.35.57.57 0 00.38.88.5.5 0 00.49-.11 9 9 0 001.71-2.08zm-.3-.28zm-.18.07a.61.61 0 00.05.12v-.13zm-.13.36s.1-.07.15-.11v.22c0 .03-.11.06-.17 0a.07.07 0 01.02-.11zm-.31.08h.05-.05zm-.54-.47a3 3 0 01.31 0 .11.11 0 01.07.13.1.1 0 01-.11.1h-.09v-.08a1.17 1.17 0 01-.2-.06l.02-.09zm.39.6zm-.39-.12zm-.19.29zm-.4.35zm.47 1zm.18-1a1 1 0 01-.39 0 .58.58 0 01.37-.1 1.19 1.19 0 00.59-.06.14.14 0 01.09 0 .07.07 0 010 .05.58.58 0 01-.36.06.41.41 0 00-.27.06zM26.77 40.56c-.43.69-.86 1.37-1.31 2a.18.18 0 01.1.26l-.07.06c-.07.06-.15 0-.18-.09-.28.41-.56.82-.86 1.21a1.64 1.64 0 00-.24.52.8.8 0 00.68 1 .58.58 0 00.56-.41 11.81 11.81 0 01.61-1.1c.24-.39.49-.78.72-1.17.09-.15.18-.3.28-.45a.87.87 0 00-.32.06h-.08a.17.17 0 010-.12.88.88 0 01.15-.12l.12-.09a.87.87 0 00.2.15c.41-.67.82-1.34 1.21-2s.85-1.45 1.27-2.18a.14.14 0 010-.06c.09-.16.18-.32.28-.48l.1-.19s0-.07.08-.07v-.08a.3.3 0 000-.23.73.73 0 00-.88-.23 2.2 2.2 0 00-.6.72c-.59.97-1.16 2.05-1.82 3.09zm-2.51 4.38zm.74-1.22zm0 .43a.07.07 0 01-.06 0 .06.06 0 01-.05-.09c0-.06.07-.12.18-.1s-.07.14-.07.19zm1.76-3.35s-.01.01 0 0zm-1 3.27h-.12a.06.06 0 01-.06-.08.07.07 0 01.09-.06.2.2 0 01.11 0 .11.11 0 010 .08zm.16-.44c-.05 0-.11.09-.19 0l-.13-.07a.38.38 0 01.31-.05s.02.11 0 .12zm.21-.33zm0-.29s-.05 0 0-.07h.06a.39.39 0 010 .11zm.1-.54c0 .06-.09.07-.16.07h-.06a.1.1 0 010-.07h.12c.05-.07.11-.04.09 0zm.12.25h-.05.05zm.07-1.45h.05c.05 0 0 0 0 0s-.05.01-.06 0zm.37.08h-.05a.88.88 0 01-.05-.15.12.12 0 01.09.15zm.28-.08a.08.08 0 01-.08 0 .08.08 0 01-.05-.07.13.13 0 01.06-.17.08.08 0 01.12.05v.08a.35.35 0 01-.06.11zm.37-.88l.07.06h-.12a.35.35 0 01.04-.06zm.11.72h-.15c-.06 0-.12 0-.14-.11s0-.12.12-.16a.17.17 0 01.17 0 .18.18 0 01-.01.27zm2.4-4.1H30s0 .06-.09.05c-.05-.06-.01-.06.03-.06zm-.75 1.37zm0-.82l.08.24h-.06a.19.19 0 01-.03-.24zm-.2 1.17zm-2.95.4a.58.58 0 00.52-.3c.32-.57.7-1.11 1-1.69h-.12c.05-.05.06-.06.17-.05a3.88 3.88 0 00.22-.46 2.2 2.2 0 00.13-.36.32.32 0 00-.22-.41.67.67 0 00-.35 0 .87.87 0 00-.58.28l-.54.7c-.08.11-.17.22-.25.34a10.77 10.77 0 00-.61.89.72.72 0 00.63 1.06zm1.5-2.75l.13-.08a.06.06 0 01.06 0v.06a.44.44 0 010 .1h-.15a.14.14 0 01-.04-.08zm-.5-.09h-.06zm-.16 1.85zm-.13-.1zm-.49.38c.09 0 .19.08.18.14a.16.16 0 01-.2-.1l.02-.04zm-.53-.07h.1v.06c0 .06-.08 0-.09 0s-.02-.06-.01-.06zm5.38-1.43a3.31 3.31 0 00-.05.86.08.08 0 01.1.05c0 .09 0 .15-.09.17a2.81 2.81 0 000 .43.54.54 0 00.45.49c.29.08.45-.12.67-.23a.65.65 0 00.38-.73c-.05-.4-.07-.82-.11-1.23v-.13h-.07s-.08 0-.06-.07a.13.13 0 01.08-.07.7.7 0 00-.51-.56c-.28-.06-.44.13-.57.33a1.7 1.7 0 00-.22.69zm.85-.5zm0 1.48a.1.1 0 01.09-.11.07.07 0 01.05 0 .12.12 0 010 .17L32 38zm-.16-2h.05c.05 0 0 .11-.06.18a1 1 0 000-.19zm-.22 1.2zm0 .24l.06.07-.05.12h-.05a.27.27 0 010-.12s.04-.07.07-.05zm-.17.53l.06.1.06.11.3.07.05.07h-.08l-.27-.16-.06-.1c-.11 0-.12 0-.13-.06a.14.14 0 010-.06zm-5.57 15.25l-.16-.12c-.27-.29-.52-.32-.74-.11zm-.63-.4a.09.09 0 01.05 0v.07l-.06-.07zm.19-30.6a.73.73 0 001.08-.54 2.79 2.79 0 01.17-.69c.08-.26.16-.51.22-.77s-.05-.41-.34-.41a1.31 1.31 0 00-.82.36l-.06.07a4.41 4.41 0 00-.58.93c-.26.52-.17.83.33 1.05zm1.16-1.48zm-.11.49a.16.16 0 01-.08.08c-.06 0-.07 0-.07-.08v-.15c0-.02.06 0 .07 0a.13.13 0 01.08.15zm0-.45a.12.12 0 01-.05.05.22.22 0 010-.08zm0-.78a1.86 1.86 0 010 .26c0 .05-.05 0-.07 0l-.21-.16zm-.36.94zm-.41.27a.34.34 0 01.17-.05h.06c.01 0 0 .13-.05.19a.07.07 0 01-.07 0 .35.35 0 01-.14-.06.09.09 0 01-.02-.08zm-.48.58a.22.22 0 01.05.08h-.09c-.08 0-.1 0-.07-.12s0 0 .05-.05zm-3.07 16.7a.82.82 0 00-.89-.79.58.58 0 00-.45.22 3.85 3.85 0 00-.48.71.65.65 0 000 .59.16.16 0 01.15-.1c.11 0 .14 0 .14.14v.13l-.12-.15-.09.1a.58.58 0 00.67.19 2 2 0 00.84-.5.64.64 0 00.23-.54zm-1.42.2v-.05a.07.07 0 01.06 0l.06.06zm.59-1h.18a.18.18 0 01-.18.08.19.19 0 01-.08 0s.02-.04.08-.04zm-.06 1.7zm0-.16s-.06 0-.12-.08a.56.56 0 01.15-.08s.07 0 .07.08-.08.14-.13.12zm.47-.84a.2.2 0 00-.18.15.44.44 0 01.11-.31s.18 0 .19.06-.13.1-.15.14z" fill="#281e53"/><path d="M23.9 52a2.07 2.07 0 01.5-.05.08.08 0 010-.08s.15 0 .13.09l1.47.14V52a.09.09 0 01.12-.09s.05 0 .07.06 0 .07 0 .09v.08l.73.08c1 .14 2.06.32 3.11.39a.11.11 0 010-.12.26.26 0 01.09-.09 1.29 1.29 0 01.16-.09 2.15 2.15 0 01-.14.26h.1a6 6 0 001.4-.09h.17a.53.53 0 00.35-.81.74.74 0 00-.58-.36h-.57a25.51 25.51 0 01-2.92-.31c-.9-.14-1.81-.25-2.73-.35l-.63-.07a4.32 4.32 0 00-.95 0 .8.8 0 00-.69.58.61.61 0 00.56.87.66.66 0 00.25-.03zm8.06.11zm-.51.07h.08-.11zm-.22-.92zm-.26.33zm0-.23zm-1.69.38c0-.05.06-.11.14-.08s0 0 0 .06l-.12.11h-.05a.11.11 0 01-.02-.06zm-1.05.06zm-.37.07zm-1.57-.83zm-.86.88zm-1.56-1.22h.17l.24.09c0 .09-.1.11-.15.16-.06.07-.16.14-.07.25s0 0 0 .05a.83.83 0 010-.15v-.24c0-.08-.32-.08-.24-.13zM44.7 26.15a.16.16 0 010 .12h-.08a.63.63 0 00.4.68 1 1 0 00.78 0 1 1 0 00.54-.64 7.47 7.47 0 01.39-.92 3.61 3.61 0 00.26-.61c.11-.43-.15-.69-.61-.65a.83.83 0 00-.62.39c-.26.39-.55.77-.84 1.15a1.4 1.4 0 00-.22.48zm1.65-.28zm0-.79a.06.06 0 01-.06 0zm0 .2h.06c.06 0 0 0 0 .05l-.12.12c-.04-.07.01-.12.06-.17zm-.16 1.21zm-.09-.59v.05s-.01-.04 0-.05zm-.11.15a1.55 1.55 0 010 .21.19.19 0 010-.08.33.33 0 01.01-.13zm-.3-.15zm-.22.36h-.05zm-.2-.35zm-.12-.16s-.01.01 0 0zM45 26h.31-.14a.78.78 0 010 .16h-.06A.18.18 0 0145 26zm5.64 11.92zM20.1 49.78h-.08.16a.12.12 0 00-.08 0zM43.6 38l.11.11a.14.14 0 00-.11-.11zm4.8-3.11h-.09c-.02 0 0 .05 0 .08l.12-.05a.1.1 0 01-.03-.03zm-4.02 8.18a.62.62 0 00-.53-.45.23.23 0 00-.22.1l.08.11h-.06a.18.18 0 01-.09 0c0 .05 0 .11-.05.16s0 .2-.07.31c.05 0 .11.07.15.11s0 .06 0 .07-.06.12-.1.1l-.17-.08a5.8 5.8 0 00-.1 1.11l.32.1.19-.2v.09h.17a.26.26 0 01.26-.12h.16a.24.24 0 01.1 0v-.16a.32.32 0 01-.14 0 .72.72 0 01-.2-.09 1.31 1.31 0 01.34 0 1.93 1.93 0 000-.24v-.38a4 4 0 00-.04-.54zm-.86.86zm.32.4h-.05.09a.13.13 0 01-.04 0zm.16-1.49zm.14.08zm-30.9-9.06a8.58 8.58 0 00-1.12 1.63 1.42 1.42 0 00-.08.18.82.82 0 00.48 1c.34.15.56.06.81-.34l.11-.21c.15-.26.3-.52.44-.79s.31-.58.45-.89a1.45 1.45 0 00.09-.36c0-.29-.09-.4-.32-.45a.78.78 0 00-.86.23zm-.92 2.48s-.05-.05-.05-.07a.08.08 0 010-.08v.11s.07.02.05.04zm.26-.44a.1.1 0 01-.09-.11v-.08c0-.08.1 0 .12.09s.01.1-.03.1zm0-.26l.08-.07v.06c.02.01-.03.04-.08.01zm.27-.17a.32.32 0 010-.09s.08 0 .08.07 0 .09-.07.08a.1.1 0 01-.01-.06zm.06.48v-.06.06zM13 35a.14.14 0 01-.16 0 .21.21 0 01.1 0h.1c.03 0-.04-.06-.04 0zm.53-.08h.15v.05h-.11l-.06-.05zm-.23.08v-.05.05h-.05zm.41.49c-.14 0-.22-.08-.33-.15.26 0 .26 0 .33.15zm.51-1.22a.17.17 0 010 .05h-.08a.23.23 0 01-.22-.2c.16-.07.23.04.3.14zm-.32-.61zm31.29-7.61h.01-.01zm-5.28-12.26a.34.34 0 000 .5 1.09 1.09 0 00.66.43 9.2 9.2 0 001.74.21h.57c.33 0 .66 0 1 .06a.5.5 0 00.4-.1.61.61 0 00.23-.62.79.79 0 00-.33-.62.2.2 0 01-.08 0 .41.41 0 010-.08 2.41 2.41 0 00-.88-.16h-2.56a.91.91 0 00-.75.38zm3.77-.11zm-.12.85s0-.01 0 0zm-.23.05zm-.33-.52a.13.13 0 01.06-.05l.08.07v.07a1.56 1.56 0 01-.16.2h-.08c-.02 0 0 0 0-.05s.1-.14.1-.24zm-.17-.39h.08-.09zm-.3.71s-.08-.05-.07-.08l.06.05s.01.03 0 .03zm0-.2zm-.11-.51h.09a.21.21 0 010 .06h-.09v-.05zm-.12.33h.06v.06h-.05zm-.77-.38l.07.05h-.06zm-.84.6c.09-.08.08-.08.2 0-.07.07-.16 0-.23 0zM9.55 33l1.63.05h1.61a.78.78 0 00.63-.28c.31-.32.14-1-.32-1a3 3 0 01-.31 0l-.23.09a.19.19 0 01.09-.12 1.24 1.24 0 00-.27 0l-2.88-.2c0 .46.02.95.05 1.46zm4-.51zm-.26-.67zm-.07.79v-.03zm-.9-.42zm-1-.38a.55.55 0 01.4 0h-.39s.02-.03.03-.03zm-.06.74zm-.82-.72v.06a.49.49 0 01-.36-.06.62.62 0 01.4-.03zm-.65-.22h-.06v-.05zm.82-.89a.58.58 0 001-.41v-.24a.8.8 0 00-.33-.59l-1.54-1.33q-.12.86-.18 1.74l.16.13c.28.24.58.48.89.7zm0-.87c.05 0 .07 0 .07.08v.06h-.06v-.07zm-.11.26zm.05.25l.06.06c.06.06 0 .08-.06.09a.11.11 0 01-.11-.08c.01-.05.05-.07.12-.07zm-.31-.42c.07 0 .12.06.12.17a.25.25 0 010 .07.09.09 0 01-.13 0v-.09c-.06-.09-.03-.09.02-.15zm-.09-1.29zm-.29.6s.07 0 .08.05a.12.12 0 010 .08.11.11 0 010-.07.14.14 0 010-.06zm14.58 13.22h-.1l.11-.09c0-.28-.11-.41-.35-.36a1.33 1.33 0 00-.77.43c-.45.53-.83 1.11-1.32 1.61a1.34 1.34 0 00-.16.23.76.76 0 000 .81.72.72 0 00.7.4.57.57 0 00.52-.4 5.4 5.4 0 01.46-.77 8.82 8.82 0 001-1.79zm-2.62 1.87c.05-.02.02-.01 0 0zm.26.63h-.06s0-.06.09-.07.05 0 .05.06a.06.06 0 01-.08.04zm.49.42zm.13-.08l-.21-.25.12-.15h.05a.07.07 0 010 .05zM22.58 44a.14.14 0 01-.12-.18.1.1 0 01.11-.09c.08 0 .14.08.13.15a.14.14 0 01-.12.12zm.22-.61zm.25 1.2H23a1.93 1.93 0 000-.24v.06c.08 0 .11 0 .14.09s0 .05 0 .07a.39.39 0 01-.09.05zm.26-1.73zm.1-.32l-.06-.06h.06v.06zm.72 0c-.06 0-.11-.05-.18 0s-.1.05-.12 0 0-.08.08-.12h.05l.27.12s-.07 0-.1-.01zM17 24.5c.19.12.38-.07.53-.21l.1-.1a36.74 36.74 0 002.64-2.93 3.19 3.19 0 00.3-.42.55.55 0 000-.54 1 1 0 00-.47-.41H20a.09.09 0 01-.09-.07.83.83 0 00-.44 0 .59.59 0 00-.34.3 7.52 7.52 0 01-.5.75c-.28.38-.56.75-.83 1.13v.12h-.08c-.12.16-.24.31-.35.47h.06-.09l-.42.57v.13h-.13a1.06 1.06 0 00-.19.52.62.62 0 00.4.69zm2.57-4.66zm-.11 1.1zm-.37.65c.07-.12.13-.12.19 0a.11.11 0 010 .08.84.84 0 01-.14-.06zm-.09-.36v.05-.06zm-.21.86h-.05v-.07s0 .06.01.07zm-.11.4h.05l.07.05h-.07l-.09-.05zm-.57 0h-.04zm-.12.66zm-.17.41a.48.48 0 010 .12h-.08v-.18c0-.06.03.06.04.06zm-.43-.36h.05-.08zM35 25a.87.87 0 000 .94v-.21l.16-.1s.07-.06.1 0 0 .13 0 .14-.08.22-.21.3l.17.06a.11.11 0 010 .05h-.06l.06.08c.13-.07.23 0 .36.07a.2.2 0 01-.18.09h-.13a12.66 12.66 0 00.91 1.17l.27.19a.09.09 0 010 .08c.35.39.72.75 1.1 1.1.59.52 1.17 1 1.73 1.6s-.06-.07 0-.12a.43.43 0 01.18.15h-.09c.61.6 1.2 1.22 1.76 1.88A16.41 16.41 0 0042.6 34c.12.11.24.22.37.32l.39.36A14.64 14.64 0 0144.62 36l.06.08h.09l.17.17a.47.47 0 01.17 0c.06 0 .09.1.05.12H45a.15.15 0 01-.07 0 3.2 3.2 0 00.61.61 1.2 1.2 0 00.25.13.49.49 0 00.47-.08.14.14 0 01.12-.15.13.13 0 01.07 0v.05a.7.7 0 00.15-.24 1.57 1.57 0 00.08-.29h-.09.08a1 1 0 00-.3-.68l-.58-.6a1.89 1.89 0 00-.21.09v.22l.07.07-.06-.07a.12.12 0 00-.08 0v.08a.28.28 0 000 .09c0 .2 0 .19-.18.24a.56.56 0 01-.34 0 .62.62 0 00-.33 0h-.05a1.9 1.9 0 01.63 0v-.16a.23.23 0 00-.11-.34L45 35c0-.15.22-.09.26-.21a.06.06 0 01.06 0h.23c-.78-.78-1.58-1.52-2.4-2.25a17.15 17.15 0 01-1.69-1.72c-.37-.42-.73-.84-1.11-1.25-.24-.25-.47-.5-.72-.74a.47.47 0 010 .17h-.08s-.16-.17-.12-.3c-.17-.16-.33-.32-.51-.47A17.17 17.17 0 0136.76 26h-.08l-.09-.12c-.1-.13-.2-.27-.29-.41l-.06.06c-.05 0-.09 0-.09-.05v-.06h.08a4.76 4.76 0 00-.5-.61c-.11-.1-.17-.15-.25-.16a.46.46 0 000 .23.52.52 0 000 .11v.13s.09 0 .13.05a.38.38 0 01.31.07.14.14 0 010 .06h-.16c-.1 0-.12 0-.14-.19s-.1 0-.13-.05a.11.11 0 010-.13.36.36 0 010-.11.43.43 0 01-.21-.19h-.1A.53.53 0 0035 25zm11.29 11.44zM46 37zm-.07-1.22h.05-.05zm-1.17-.8h.07c.07 0 0 0 0 .06a1.52 1.52 0 010 .21l-.19-.05c.02-.15.11-.2.1-.27zm-.3.33zm-.17-.31h-.14l-.15-.21h.15l.11.17a.13.13 0 01.03.04zm-.12-1.31zm-.35-.34v.05-.06zm0 .61c.09 0 .13 0 .17.07s0 .07.07.08v.21a.1.1 0 01-.08 0h-.25a.27.27 0 00-.14-.25v-.06c0-.06.15-.01.23-.1zm-.1-.26zm-.18-.4h.12a.25.25 0 000 .07h-.08a.17.17 0 000-.07h-.09zm-.62.87zm-.71-1.18zm0 .24l.27.16a.75.75 0 01-.13.16.14.14 0 01-.11 0 .14.14 0 01-.07-.1 1.24 1.24 0 01.04-.27zM42 31.85zM42 33zm-.18-.1zm-.55-.27h.05v.07a.09.09 0 01-.02-.07zm-.24-1.54v.11a.14.14 0 010-.06.17.17 0 01.03-.05zm-.61-.23c.07 0 .15-.08.23 0s.08.05.13.08h-.13a.16.16 0 01-.22 0s-.04-.06.02-.08zm-.15-.13a.13.13 0 010 .17h-.13a2 2 0 000-.24.17.17 0 01.16.07zm-.18.4v-.06zm-.6-1.1h.12c0-.05 0-.11.06-.12h.19a.21.21 0 01.2.13c0 .09 0 .22-.07.29a.91.91 0 01-.14.07.09.09 0 01-.12-.1.13.13 0 010-.06c0-.08 0-.14-.06-.17l-.03-.07-.1.15s-.08 0-.07-.09a.08.08 0 01.05-.06zm-.85-.21zm.43.14zm-.2-.96a.26.26 0 01.21.15.08.08 0 010 .08h-.11a1.63 1.63 0 01-.09-.19s-.02-.04-.01-.04zm-.27-.62s.09-.06.11 0a.61.61 0 010 .12v.07c0 .01-.07.06-.11.06s-.05-.12 0-.22zm-.16 0a.11.11 0 01.08.1v.05a.47.47 0 01-.06-.09s-.02.03-.02.01zm-.17-.72s.13.06.15.15a.34.34 0 01-.06.06h-.07a1.71 1.71 0 00-.2-.18.12.12 0 01.18.04zm-.93.32zm-.09-.32h-.05v.05zm-.12.51H37v-.02c.06-.06.1 0 .15 0s.01.09-.02.09zm-.26-.3h.05l.15.1s-.11 0-.16-.09zm-.6-1.64h.07c.07 0 0 0 0 .05h-.14a.28.28 0 01.07.02zm-.19-.59a.08.08 0 01.06 0v.08c0 .08.06.07 0 .1a.11.11 0 01-.1 0 .07.07 0 01.04-.11zm-9.19 16.63v-.02l-.01.01.01.01zm18.31-6.69z" fill="#281e53"/><path d="M47 35.15a.91.91 0 00.34.14.84.84 0 00.46-.07l.34-.15V35c0-.06 0-.1.08-.12a1.49 1.49 0 00.14-.12.09.09 0 01.14 0 .26.26 0 00.15.14c.61-.25 1.22-.48 1.85-.68a.8.8 0 00.4-.25.44.44 0 00.15-.23.56.56 0 00-.57-.64 7.22 7.22 0 00-.8.08c-.55.08-1.07.29-1.67.41l-.67.23-.3.11a.31.31 0 00-.13.06.08.08 0 01.09.01.13.13 0 010 .11.73.73 0 00-.17.18c0 .08-.14.05-.18 0a.77.77 0 000 .15.86.86 0 00.35.71zm3.72-1.8c.09 0 .16 0 .22.09s0 .06 0 .07h-.24a.17.17 0 01-.06-.11s.05-.05.08-.05zm-.68.31h.05v.05s-.09-.03-.09-.05zm-.59.55zm-.45-.08zm0-.31zm-.34.21s0-.05.08-.08a.12.12 0 01-.09.14.15.15 0 01-.02-.09zm-.08-.53zm-.79.8v-.05.05zm.26-.4L48 34v-.06zm-.31 0h.06v.09c0 .03 0 0-.06 0s0 0-.06-.07.02.08.03.02zm0 .9h.06c.06 0 0 .06 0 .06h-.08s-.05.01-.02-.02zm-.44-.12v.05zm.1-.78s.09 0 .09.06 0 .16-.06.26l-.2-.15c-.03-.07.05-.07.13-.13zm-.39.37zm-.07.32c0-.05.06-.09.11-.08s.1.08.08.12-.07.06-.09.08-.15-.02-.14-.08zM15 39.2c0-.05-.07-.12-.15-.08s-.43.17-.46.43a2.67 2.67 0 000 .89c.12.58.21 1.15.32 1.73.25 1.37.51 2.74.77 4.1v.08h.05a.64.64 0 000 .07l.06.13a.6.6 0 00.72.21.44.44 0 00.37-.5l-.12-.53a.1.1 0 010-.07s-.08-.06-.07-.13a.11.11 0 01.07 0c-.17-.88-.36-1.74-.56-2.61a.69.69 0 01-.23-.16.25.25 0 01.19 0c-.25-1.09-.51-2.16-.76-3.25a1.86 1.86 0 00-.2-.31zm-.36 2.63zm.36 1.94zm0-.92zm1.32 2.21h-.05c-.05 0 0 0 0 0s.04-.01.05 0zm-.16 1.39c.05 0 .08 0 .08.09s0 0-.06 0a.09.09 0 01-.1 0 .07.07 0 01.08-.09zM16 45.26zm-.48-.91a.36.36 0 010-.09h.08c.02 0 0 0 .06.06a.12.12 0 01-.13.14c-.07-.01-.09-.06-.06-.11zm-.27-1.86a.35.35 0 01-.05-.08l.05.07zm.11-1.73v.05zm0 .41v.06a.14.14 0 01-.06-.13.1.1 0 01-.03.07zm-.11-.91h-.05zm6.28 10.98a.47.47 0 00-.67-.24l.84.46c-.07-.07-.12-.14-.17-.22zM51.58 34v.07c-.07.07-.09.18-.19.23s-.07 0-.1 0c-.51.41-1 .83-1.51 1.26l-.69.64h.16a.37.37 0 01.1.17c0 .09.08.1.15.11a.16.16 0 01.08.06.22.22 0 010 .08h-.06a.22.22 0 01-.22-.14l-.15-.26h-.14l-.27.25s-.08.1-.12.09l-.54.52a.44.44 0 00-.07.66 1.33 1.33 0 01.21.09c.06 0 .08.07 0 .12l.17.12a.48.48 0 00.58 0 2.83 2.83 0 00.3-.3c.27-.3.55-.6.84-.88l.66-.66.49-.47h-.2v-.29l.38.11c.91-.81 1.9-1.54 2.88-2.28 0-.46.06-.93.07-1.4l-.93.67c-.56.43-1.23.92-1.88 1.43zm-3.26 3.63v-.05c0-.05 0-.09.09-.11s.07 0 .07.08-.08.09-.16.08zm.16.19zm.23-.63zm.1.74s-.09 0-.08-.06a.07.07 0 01.05 0h.06s-.02.06-.03.06zm.25-1.59h.05zm.43.3zm0 .44c-.07 0-.15 0-.14-.09a.63.63 0 01.1-.12.14.14 0 01.16.1c-.03.03-.08.1-.16.11zm.27-.14v-.06h.05zm.07-1.26s0-.2.11-.22.08.16.13.23a.13.13 0 010 .06c-.07-.03-.07-.03-.28-.07zm.34.77v-.05s0-.07.06 0zm.18.13v.05zm.58-1.9zm.54-.24zm.68.5a.37.37 0 01.05-.11.07.07 0 010 .05c.01.01-.04.12-.09.06zm.54-1.16zm-.09-.33a.3.3 0 01.38-.08v.05a.78.78 0 01-.42.03zm.41.48v-.06l.06.06zm1.13-1.38zm0 .78l.07.05h-.13s.04-.05.06-.05zm-.25-.53zm-.19.58zm-.25-7.65a.55.55 0 00.15.48.72.72 0 00.33.18c-.12-.53-.26-1-.42-1.55-.02.29-.03.59-.06.89zm.39.58zm-.07-.39zm-23.24-2.53a6.55 6.55 0 002.37.34 28.14 28.14 0 003.31.08H37a.45.45 0 00.41-.22.58.58 0 00.05-.14.7.7 0 00-.14-.79 1.33 1.33 0 00-1-.31c-.71.08-1.43.09-2.14.13h-.95c-.65 0-1.3 0-2 .05h-.13.14l-.37.05h-.12c-.3.3-.64.61-.22.81zm6.26-.84a.07.07 0 01.08-.07.09.09 0 01.09.1c0 .06-.06.1-.1.09s-.07-.07-.07-.12zm-.25.54a.12.12 0 01.14 0h-.11v-.05s-.03.06-.03.05zm-.17-.59h.05zM36 23.81zm-.51-1.31s0-.05.07-.06a.34.34 0 01.1 0c.1 0 .18 0 .26-.08s.07 0 .1 0a.29.29 0 010 .09s.07.07 0 .09l-.34.08s-.09 0-.12-.08a.17.17 0 01-.07-.04zm-.37 0s0-.05.06-.05 0 0 .08.08h-.13s-.02-.02-.01-.02zm-.4.66s-.01.02 0 .01zm-.31.14h.05l.17.05a.41.41 0 010 .1.06.06 0 01-.1 0 .4.4 0 01-.1-.12s-.03-.01-.02-.02zm-.53-.09l.07-.06c.07-.06 0 .08 0 .08a.24.24 0 01-.08.06.31.31 0 01.01-.07zm-.32 0zm-.25 0zm-1-.7h.13a.35.35 0 01-.11.09.07.07 0 01-.09 0 .07.07 0 01.03-.08zm-.65.55a.42.42 0 000-.13l.07.14a.11.11 0 010 .05h-.06s-.08-.01-.05-.05zm-4.83 7.26a3.35 3.35 0 001.91.43c.43 0 .6-.27.58-.71a.55.55 0 00-.6-.54l-.52-.05-.53-.09h-.3a1.56 1.56 0 00-.36.05.62.62 0 00-.41.54c-.07.17.08.29.23.37zm1.76.26c.06.06.13 0 .2 0s0 .05 0 .05a.39.39 0 01-.15 0 .45.45 0 01-.11 0l.05-.11zm-1.16-.46l.06.06c.06.06 0 0-.07 0l-.07-.06zm21.95-2.86a5.45 5.45 0 01-.11-1v-.18a.13.13 0 010-.06v-.1a2.57 2.57 0 000-.48.11.11 0 010-.05c0-.19-.06-.37-.09-.56a1.75 1.75 0 00-.18-.48.4.4 0 00-.53-.16 1.09 1.09 0 00-.5.72c0 .23 0 .47-.06.71a10.28 10.28 0 01-.1 1.75v.07h.09a.1.1 0 00-.08.07.58.58 0 00.14.31.87.87 0 00.77.27h.1a.64.64 0 00.55-.83zm-.73-1.66v-.05zm-.26.13zM48.24 28v-.05a.08.08 0 010 .05zm.25-.71a.07.07 0 01-.05 0h-.1s0-.06.07-.07a.09.09 0 01.07 0l.01.1zm.15-.85l-.15.16s-.12 0-.12-.06v-.09c0-.03 0-.1.1-.08a.71.71 0 01.16.07zm.07.36zm-.05-.94s-.1 0-.08-.06l.08-.08.07.09s-.04.08-.07.08zm.14 1.84zm0-2.2l.04.03zm0 1.55zm.17-1h.05a.27.27 0 01-.07.08h-.07zm.13 1.61a1.16 1.16 0 010-.18h-.07a.53.53 0 01-.12 0 .08.08 0 01.13 0v.18l.13.04zm-20.61 4.67a.58.58 0 00-.45-.69 3.23 3.23 0 00-.93-.15h-1.28c-1.12 0-2.22-.06-3.33-.11h-1.74a.15.15 0 00.08.11v.05c0 .05-.15 0-.15-.06v-.11a8.2 8.2 0 01-1.1-.11.45.45 0 00-.56.28 1 1 0 00.17.9.49.49 0 00.2.18.14.14 0 01.23.08H20c.91.05 1.82 0 2.74.05h.06a.08.08 0 010 .05h.27c.52 0 1 .13 1.56.12h2.33a6.63 6.63 0 001-.05c.36-.14.5-.25.53-.54zm-9.39-.74zm.15.18v.06c-.09 0-.14 0-.15-.09s0-.07.08-.06.08.05.07.09zm.8-.22zm1.2-.08zm.27 1h-.07c-.07 0 0 0 0 0l.06-.05h.05l-.05-.06c-.05-.07 0-.12 0-.16s.08 0 .12 0l-.11.18zm.27-1h-.05a.09.09 0 01-.09-.07h.11a.08.08 0 01.03.09zm.11.76zm1.88-.76v.06h-.05v-.05zm-.25 1.25zm.06-.2c-.08.08-.21 0-.3.07 0-.11.11-.16.11-.27s.13-.13.21-.06l.25.18c-.06.16-.2.02-.27.1zm.51.24h-.05a.06.06 0 010-.06.1.1 0 01.05 0c.09 0 .14-.13.25-.1.03.03-.13.16-.25.18zm.26-1.22v.05zm.1.51zm.18.14v-.05zm.52-.21zm.06.59zm.28-.32l-.24-.12.08-.07s.08-.1.16-.06a.2.2 0 01.09.19.07.07 0 01-.09.08zm2.13.44zm-7.06-6.14a.69.69 0 00.1.75.9.9 0 00.59.36 8.7 8.7 0 001.69.23c.79.05 1.58 0 2.37.16a.73.73 0 00.34 0h.1a.63.63 0 00.2-.45 1 1 0 00-1-1.15h-2.11a13.5 13.5 0 01-1.56-.15.67.67 0 00-.72.25zm2.77-.19s.07.06 0 .09 0 0-.05 0a.2.2 0 010-.08zm-.74.71h-.08a.13.13 0 010-.09.25.25 0 010 .07zm-.11-.32h.07a.35.35 0 01-.05.08zm.09-.38s.07-.05.1 0a1.4 1.4 0 01.13.18c-.14 0-.2-.08-.33-.09zm-.33.81zm2.11 2.5h.07s0 .05-.06.06a1.38 1.38 0 00.18.46.65.65 0 00.95.31 1 1 0 00.35-1.51.76.76 0 00-.92-.25 1 1 0 00-.57.89zm24.21 1.5l.01.01v-.01h-.01zm4-4.74a.44.44 0 00-.2-.13v-.12a.33.33 0 01.25.09.76.76 0 000-.15v-1.44h.06v-1.48c0-.32-.06-.83-.1-1.24a19.66 19.66 0 00-1.19-2.22 7.22 7.22 0 01-.23-.36c0 1 .09 2 .16 3s.09 2 .06 3.06c.09 0 .14 0 .12.11a.11.11 0 01-.07.08h-.06v.43c0 .58.2.81.79.78.14-.06.33-.17.41-.41zm-1.46-4.77zm.08-.33zm.07 2.59zm.39-1.05h.06-.08zm-.06-2.46zm-.06 1.23l.07-.07v.06c0 .06 0 .09-.06.06s-.02-.04-.01-.05zm-.07 1.87a.11.11 0 01.15.06v.13a.44.44 0 01-.09.11h-.13c-.04 0-.05-.22.07-.3zm-.07 1h.08a.57.57 0 01.08.08h-.14s-.03-.04-.02-.06zm.21 1.65zm.21-.6l-.23-.13a.15.15 0 010 .17v-.05h-.11a.05.05 0 01-.05 0v-.05l.17-.12c.17-.09.18-.08.19.12zm.61-2.24zm-.33-.62a.11.11 0 010 .06v-.06zm.07 3zm-.07-1.26zm.08 2l-.07-.1v.09zm.09-.47c-.08 0-.07.12-.14.15a.08.08 0 01-.08 0 .16.16 0 010-.22c0-.05.15 0 .19 0s.04.16.03.16zm0-.86s-.08-.07-.11-.11 0 0 0-.05a1.31 1.31 0 01.12-.15c.06.14.05.26.19.31l-.09.06a.31.31 0 00-.07.09c-.06.04-.01-.02-.03-.06zm.1 1.46v-.06c0-.06 0-.07.07-.07v.06zM44 30c-.62-.57-1.25-1.13-1.81-1.75a4.62 4.62 0 00-.78-.62 1.43 1.43 0 00-.49-.17.53.53 0 00-.47.14c-.14.13 0 .26.08.38a1.33 1.33 0 00.2.37l1.53 1.76c.5.57 1 1.12 1.5 1.71l.41.51h.06c.09 0 .13 0 .16.09a.36.36 0 00-.14-.1c.21.27.41.54.62.8a.65.65 0 001.06-.12 1 1 0 00.17-.59.87.87 0 00-.33-.7 6.45 6.45 0 01-.91-.9c-.28-.27-.55-.58-.86-.81zm-2.46-2.21a.09.09 0 01-.1-.1v-.05c.09 0 .13.06.11.1zm.14.87zm.91.82zm.33-.13v-.05l.09-.08v.07zm.39 1.22a.37.37 0 01-.23-.1.06.06 0 010-.06.12.12 0 01.06-.06.14.14 0 01.14 0c.08.06.15.13.28.1a.27.27 0 01-.24.07zm.52 0a.12.12 0 01-.06-.06.06.06 0 01.06-.07h.06c.06 0 0 .09-.05.08zm.28 0a.07.07 0 01-.06 0v-.08a.32.32 0 010 .09zm.21.57a.15.15 0 01-.08 0 .1.1 0 01-.08 0v-.08a.15.15 0 01.06 0h.06a.25.25 0 01.05.02zm.13-.13a.2.2 0 01.13.15h-.11c-.01 0 0-.16-.01-.16zm.1.87v-.07c0-.02 0 0 .05 0l.06.07s-.08-.05-.1-.06zm.21-.21zm1.08 1.27h.11s-.05-.07 0-.1a.13.13 0 01.12 0v.1h-.12zm-.21-.61zm-.11.72zm-.52-.17v-.05.06zm0-.63a.08.08 0 01.08 0c.08.07.12 0 .16 0h.06c0 .07 0 .16-.11.19a1.32 1.32 0 00-.27.13.33.33 0 01.16-.32zM40.5 16.9a.2.2 0 00-.21 0 1 1 0 01-.55.11 3.31 3.31 0 01-.44 0 .75.75 0 00.38.29 7 7 0 001.23.21.07.07 0 01.09-.11h.12v-.07a.19.19 0 01.15 0h-.18v.06c.62 0 1.26-.14 1.88-.25a.5.5 0 00.36-.25h-.17c0-.09.05-.1.1-.12s.09 0 .07-.08-.07 0-.11 0a.32.32 0 00-.33.12s0 .09-.09.1a.16.16 0 01-.19-.08h.26a.16.16 0 00-.15-.12h-.32v-.06c0-.06 0 0 0 0h.99a.91.91 0 00-.74-1l-.07.07v-.09a.79.79 0 00-.3 0 9.2 9.2 0 01-2.39.34.91.91 0 00-.73.46.22.22 0 000 .24c.24-.07.5 0 .74-.1a.26.26 0 01.15 0 1.11 1.11 0 00.57.06.53.53 0 01.39.05h.13l.12.09a.46.46 0 01-.33 0 .34.34 0 00-.26.05h.05s-.19.1-.22.08zm1.71-.9zm-.21-.11c.05 0 .12 0 .11.1s-.13 0-.13-.07a.12.12 0 01.02-.03zm-.06.93h.12s-.07.09-.13 0-.02.02-.02 0zm-.26 0s.07 0 0 .09 0 0-.07 0a.45.45 0 010-.11s.03-.02.04-.01zm-.08.23zm-.13.26zm-.74-.08v-.06.05zm0 .22l-.03-.03zm1.41 8.86h.18-.17zm-3.41-8.83v-.01.01z" fill="#281e53"/><path d="M47.34 32a2.13 2.13 0 00.49.1h1v-.06c.14.05.24-.07.35-.09l.28.15h.74v-.06h-.07c-.01 0 0-.13-.06-.21l.23-.05c-.1.17-.11.17-.1.3a.55.55 0 01.18 0h.07a9.43 9.43 0 002-.13 3 3 0 001-.24.47.47 0 00.3-.54.7.7 0 00-.88-.68c-.41.08-.83.14-1.25.18a2.43 2.43 0 01.17.42l-.37-.33a.1.1 0 010-.09h-.11c0 .05-.11.08-.15.05l-1 .07a.21.21 0 01-.1 0 .09.09 0 01-.06 0l-.88.05h-.05a5.7 5.7 0 00-1.7 0 1.1 1.1 0 00-.35.2c-.48.53-.1.82.32.96zM53 30.81h.05v.05H53v-.05zm-1.44 1.1zm-.35-.51zm-.08-.19zm-.6-.29a.11.11 0 01.14.1l-.18-.02s.02-.06.02-.08zm.09.27l.06.09a.44.44 0 01-.15 0v-.07a.08.08 0 01.07-.02zm-1.68 0zm-.41.58l-.09-.05h.16c.03 0 0 0 0 0s-.07.08-.09.08zm0-.78v.17l-.13.07s0-.17.14-.23zm-10.4-4.56a1.4 1.4 0 00.86.11 21.22 21.22 0 012.52-.19.2.2 0 00-.16-.1c.1 0 .2-.08.3 0s.08 0 .11 0h.05s.22 0 .32.1a.22.22 0 01.24 0h.25a.67.67 0 00.63-.74c0-.35-.22-.56-.61-.59a5.42 5.42 0 00-.57 0h-1.2v.05h-.12a.15.15 0 01-.08 0v-.05a6.74 6.74 0 01-.77 0 9.4 9.4 0 00-1.3 0 1.61 1.61 0 00-.44.06.73.73 0 00.38.05c-.18.11-.18.11-.27.26-.08-.09-.17-.16-.25-.24a.75.75 0 00-.43.68c.03.31.26.48.54.6zm4.56-1.37a.09.09 0 01.11.05.88.88 0 00.05.15c0 .08 0 .12-.06.16s-.1 0-.1 0-.1-.16-.17-.25zm-.73.76s.08 0 .1.05 0 0 0 .06S42 26 42 26s-.09-.16 0-.18zm-.27-.33h.05v.07h-.06a.09.09 0 01.01-.07zM41 26zm.27-.5h.05-.05s-.02-.05-.01-.05zm-.27-.19a.19.19 0 010 .14c0 .05 0 .09-.06.14a.78.78 0 01-.05-.14c.04-.06.11-.17.11-.14zm-.42.28zm0 .27zm-.16.41c0-.13 0-.16.12-.12l.08.08s-.06.05-.09.05a.37.37 0 01-.11 0h-.08zm-1.2-.93a.55.55 0 01.17.17v.1h-.3zm-.27.89s.07.05.08.08a.06.06 0 010 .07h-.07a.31.31 0 01.04-.15zm-.39-.39zm-.13-.31h.08v.05l-.06-.07zm-19.99 3.91a.78.78 0 00.63.57 14 14 0 002.81.36h.63l.09.07a.56.56 0 00.63-.52 1.2 1.2 0 000-.38 1.06 1.06 0 00-.44-.8.63.63 0 00-.66-.09 3 3 0 01-.9.08l-1.39-.05h-.72a.62.62 0 00-.68.76zm4.73 0h.1a.08.08 0 010 .08l-.08.09h-.06v-.06a.83.83 0 01.04-.08zm-.23-.16a.2.2 0 01.09-.07c.06 0 .06.05.06.09a.1.1 0 01-.09.11.1.1 0 01-.06-.1zm-.09.22h-.07c-.02 0 0 0 0 0a.1.1 0 01.07.03zm-1.46.5zm-.39-.92l.06.08h-.08v-.05zm-.15-.16a.08.08 0 010 .05h-.05zm-.33.93h.07-.09zm-.87-.48c.06 0 .07.09.09.14.12.08.11.24.19.35l-.15.1a.55.55 0 010-.45c-.08 0-.11 0-.13-.11zm-.06.54h-.05zm-.12-.55zM19 45v.15a.65.65 0 001.19.32c.07-.11.12-.22.18-.33.22-.39.42-.79.65-1.16.39-.63.8-1.25 1.2-1.87a.14.14 0 01.05-.08c.41-.63.81-1.26 1.19-1.91s.68-1.14 1.05-1.7a.11.11 0 010-.11c0-.05.06-.05.11 0l.1-.14v-.09c.26-.39.52-.79.77-1.19a.43.43 0 000-.45.72.72 0 00-.58-.43.63.63 0 00-.63.33c-.22.36-.4.72-.61 1.08-.09.16-.19.31-.29.46-.31.46-.62.93-.89 1.41-.83 1.46-1.77 2.84-2.73 4.22-.23.32-.47.64-.68 1A.88.88 0 0019 45zm5.23-7.78h-.05zm-.46 1.89h.06v.05s-.06-.05-.05-.05zm-2.3 3.75h.05zm.17 0v-.06zm.55-1.16s-.09 0-.08-.08a.13.13 0 01.13-.08h.05c.05 0-.03.19-.09.19zm1.18-3.37zm-.27.29zm0 .23zm-.45 1.48a.45.45 0 01.07.07.19.19 0 010 .08l-.06-.06c-.06-.06 0-.01 0-.06zm-.58 0a.06.06 0 01.06 0 .09.09 0 01.05 0 .28.28 0 00.27.18s.05 0 .07.06c.1 0 .08.12.05.17a1.7 1.7 0 01-.15.22.52.52 0 01-.12-.26c0-.07-.06-.07-.11-.08s-.07 0-.06-.05a.19.19 0 00-.06-.22s0-.04.01-.04zm-.23 2.26a.51.51 0 00-.3.06.08.08 0 01-.08 0 .11.11 0 010-.14s.08-.07.11 0a.29.29 0 00.28.07zm-.51-1.3a.16.16 0 01.09-.07.81.81 0 01.22 0 .08.08 0 01.05.14l-.07.06c0-.06-.08-.12-.17-.11s-.13.02-.11-.04zM21 42.56zm0-.56zm-.28.65zm-.2 1.68zm-.1-1zm-.43 1.31h.06-.06s-.06-.05-.05-.06zm-2.2 2.9c.11.35.25.48.71.45h.32a.13.13 0 01.08 0h.68a.86.86 0 00-.07-.21c0-.06 0-.12.09-.12a.43.43 0 01.16 0 .24.24 0 00.27-.1c.1.08.12.23.25.28a.12.12 0 010 .08l1.82-.13q1.63-.12 3.27-.27l2.83-.3h.09l.08-.07c.08-.07.12 0 .15 0l.51-.11c.15 0 .28-.09.3-.26v-.11h-.05A.77.77 0 0029 46h-.06v-.05a.47.47 0 00-.2 0h-.57l.06.13h-.07c-.02 0-.1-.07-.12-.12h-.11a.1.1 0 01.06.09c0 .05-.11.09-.19.08a.65.65 0 00-.22-.11 1.09 1.09 0 00-.24.07h-.28a.09.09 0 010 .08.4.4 0 01-.18.24h-.05a.65.65 0 010-.24h-.43s0 .08-.12.07v-.06l-.68.05a.55.55 0 010 .23l-.25-.26-.81.06h-.91l-1.19.09c-1 .06-1.95.16-2.94.16h-1.03a.09.09 0 010 .06h-.05l-.07-.09a.62.62 0 00-.47.35c.08 0 .11.06.16.11a.46.46 0 01.05.1.33.33 0 01-.1.06.2.2 0 01-.11 0 .27.27 0 000-.09.11.11 0 000-.07.64.64 0 00-.09.6zM29 46.22c.06 0 .15.14.12.19s-.07.07-.09.06a.16.16 0 01-.03-.25zm-.46-.12h.12-.12v.08a.7.7 0 01-.08.1s-.06-.06-.07-.09.02-.11.14-.09zm-.68 1zm-.33-.36s0-.05.06-.05a.42.42 0 01.15 0v.12l-.18-.06s-.05 0-.04-.01zm-.21 0h-.1zm-.57 0l.08-.08.07.1s-.07.07-.1.07a.06.06 0 01-.06-.12zm-.42.28zM26 46.6a.18.18 0 01.08-.09.07.07 0 01.07 0l.06.08a.47.47 0 01-.07.12.16.16 0 01-.12 0s-.02-.07-.02-.11zm-.57.3h-.05zm-1.92.47zM22.32 47zm-.6.65v.05zm-.5 0h.05v.06h-.05s-.01-.02 0-.03zm-1.36-.29v.08h-.05a.09.09 0 010-.07zM19.7 47h.06-.06zm-.36 0c0-.06.09-.07.18 0s0 .05 0 .06-.15.07-.19 0a.08.08 0 01.01-.06zm-.66.07zm-.29.85s-.01.01 0 0zm-.07-.8s-.01 0 0 0zm2.42-9.79h.42c.5-.11 1-.2 1.5-.28a1.1 1.1 0 010-.16.78.78 0 01.08.16l.37-.06a2.42 2.42 0 00.46-.13.58.58 0 00.36-.51.6.6 0 00-.47-.71 3.63 3.63 0 00-1 0l-.31.09v.07a.07.07 0 01-.05-.09l-1.44.39a.07.07 0 01-.06 0 .26.26 0 01-.12 0 1.4 1.4 0 00-.3.15s-.06.05-.09.05a.47.47 0 00-.09.7.7.7 0 00.74.33zm2.15-1.24zm-.53-.1zm-.05.38h.05-.11zm-1.35.2zm-.11-.39l-.07.05zm-.22.17zm-.63.22zM29.21 27h-1.14a.76.76 0 00-.7.42.46.46 0 00.23.67 1.19 1.19 0 00.32.1 8.23 8.23 0 001.51.18 2 2 0 00.88-.08.51.51 0 00.18-.85 1 1 0 00-.58-.31c-.23-.04-.47-.08-.7-.13zm-.87.85v-.05zm.59.1l-.15.08-.05-.03.12-.1h.1a.08.08 0 01-.02.1zm.61 0v-.06c0-.06 0 0 0 0a.21.21 0 01.08.06c-.03.05-.05.05-.08.05zm.68-.1a.08.08 0 01.11 0s0 .07.05.1l-.11.05a.31.31 0 01-.09-.07s.02-.04.04-.06zm-.22-.49a.09.09 0 01.05 0h-.1zm0 .52s-.06.1-.13.11a.32.32 0 010-.14h.14l-.07.03zm-9.66 6.63v.05h.07-.07zm-.03.07zm.2 1.54zm10.15-5.45l-.12.06-.34.47c-.18.26-.4.48-.58.74s-.21.51 0 .65a1.72 1.72 0 00.58.38.38.38 0 00.46-.15c.59-.81 1.19-1.6 1.74-2.43l.11-.16a.1.1 0 01.08-.14h.06a17.21 17.21 0 011.49-2.12h-.31c.14 0 .28-.06.42 0l.2-.22a.91.91 0 00.2-.46.57.57 0 000-.15 1.54 1.54 0 00-.36-.36l-.15.06a.12.12 0 01-.08 0v-.11a.52.52 0 00-.18 0 .73.73 0 00-.78.4c-.33.61-.7 1.2-1.08 1.79a.72.72 0 01.09.27v.07l-.23.07s-.05 0-.07-.06c-.11.17-.23.33-.34.49l.22.13a.18.18 0 00.12 0c.12-.06.19.07.28.09s0 .06 0 .08a.15.15 0 01-.15.1.66.66 0 01-.34-.06c-.09-.05-.1-.15-.17-.22s0 0 0-.07l-.73 1zm-.52 1.26zm3.38-5.37a.19.19 0 01.08 0v.05h-.17a.1.1 0 01.09-.05zm-.31 1.2l.09.07v.06c0 .01-.07 0-.07-.08zm-.91 1.34zm-.63.31zm-.32 1.3a.21.21 0 01.14 0 1.79 1.79 0 01.14.18h-.05a.23.23 0 01-.21-.15c-.05.02-.06-.04-.02-.03zm-.29.66l.09.07h-.06L31 31.4zm16.06-2.44s.07.07.05.14a.2.2 0 01-.17.11h-.12a1.1 1.1 0 000-.18.76.76 0 00-.2.06c-.19.08-.32.38-.21.53s.25.41.54.42h.34a9.14 9.14 0 001.17 0l1.36-.09v-.05h.07l.05.06h-.07l1-.07.52-.05h.06a.11.11 0 01.08 0c.62-.06 1.24-.12 1.85-.22h.09v-.05l.91-.17c0-.42-.09-.83-.15-1.24a32.36 32.36 0 01-3.26.46c-1.06.09-2.12.21-3.19.29a.24.24 0 00.15.24v.05s0-.05-.06-.07-.17 0-.2.09v.1a.56.56 0 00-.16-.12h-.18l.06-.2h.17v-.07h-.39zm-.45.37zm.33.7zm7.19-1.18zm.12.54v.06h-.08l-.11-.29a.37.37 0 01.2.19zm-.73-.36h.06c.06 0 0 .12-.1.11a.11.11 0 01.04-.11zm-.85-.25v.05h-.05zm-.25-.09l.05.07s-.05-.05-.05-.08zm-2 .63h.06l-.06-.07s-.01.05 0 .06zm-.29.57zm-.7-1zm-.25.51a.12.12 0 01.16.14h-.06a.16.16 0 01-.13-.12s.02.02.03.02zm-1.35.46zm-.64-.45a.29.29 0 010 .09.28.28 0 010-.09s-.01.04 0 .04zm-36.06 8.1h-.88q.19.67.42 1.32h1.28l-.09-.09c.05-.1.18 0 .2-.15a1.67 1.67 0 01.08.2c.24-.07.31-.23.28-.55a.73.73 0 00-.48-.61 1.58 1.58 0 00-.81-.12zm-.22.21l-.14.06a.52.52 0 01-.15-.06v-.08h.06c0 .05.1.12.16 0h.07l.03.08zm.94-.1h.1a.13.13 0 01-.09.13.12.12 0 01-.08 0c-.02-.07.01-.13.07-.13zm27.17-13.54c.26 0 .27 0 .44-.11a6.68 6.68 0 00.74-.67l.12-.13s.07-.13.12-.12l.48-.53s-.11 0-.09-.1a.19.19 0 01.09-.12.39.39 0 01.16 0 .08.08 0 01.08 0c.48-.53 1-1.06 1.42-1.6s.87-1.08 1.32-1.59a.25.25 0 000-.14.26.26 0 010-.15.12.12 0 010-.07h.08c0 .07.07.11.08.18l.16-.17v-.03l.32-.32c.33-.33.23-.67-.18-.88a.92.92 0 00-1.18.3 1.64 1.64 0 01-.14.22v.06a.33.33 0 01-.13.07 9.5 9.5 0 01-.62.8 1.68 1.68 0 00.59 0l.08.05a.54.54 0 01-.49.14.61.61 0 00-.33 0l-.2.26-1.68 2.05h.2a.06.06 0 010 .06c-.08.12-.17.13-.28 0l-.06.08c-.37.45-.76.89-1.14 1.33a1.16 1.16 0 00-.3.73c-.01.35.06.35.34.4zM44.34 18h.08zm-.13-.27h.09v.05h-.06zM44 18a2.68 2.68 0 01-.35.1c-.11 0-.17-.05-.28-.17zm-.78 0s.11.06.1.09-.12-.07-.11-.1zm.05.76a.08.08 0 010-.05.08.08 0 01.04.04zm-.11.43a.58.58 0 010-.1s.1-.06.14 0a.12.12 0 01.07.12c0 .06 0 .13-.07.15s-.11-.07-.1-.18zm-.68-.3a.07.07 0 000-.05.13.13 0 010 .06zm.38 1.11zm-.7.45s.07.06.08.1a.15.15 0 010 .11c0 .07-.08 0-.12 0l-.12-.05zm-.7.21c0-.06 0-.12.07-.13s.07 0 .1.06.1.1.06.19-.08.11-.21.09a1.13 1.13 0 00-.02-.18zm-.1.56v.05h-.06zm-1.57 1.81s-.09 0-.07-.07a.08.08 0 01.08 0l.08.05c.08.05-.06.05-.09.05zm.54-1.3zm-.69.71s0-.1.1-.11h.12c.09 0 .22 0 .3-.09s.1 0 .16 0a.27.27 0 00.12 0s.05-.05.07 0a.37.37 0 01.05.11v.05h-.16a.07.07 0 00-.08.07c0 .07-.06.1-.11.06a.28.28 0 00-.44 0h-.11a.11.11 0 01-.02-.06zm-.18.36a.07.07 0 01.05 0 .36.36 0 010 .27c-.08 0-.09-.07-.09-.12a.38.38 0 01.04-.12zm-.06.51a.27.27 0 01.08-.07.56.56 0 010 .13h-.07c-.07 0-.02-.01-.01-.03zm-.17.68a.08.08 0 010-.05zm-.07-.92h.05v.05h-.07s0-.01.02-.02zm0 .56zM21.1 49.64a3.69 3.69 0 01.47 0 1.48 1.48 0 01.42 0h.39a1.78 1.78 0 01.62-.14.89.89 0 00.28 0h.22l1.11-.07 3.93-.22a3.55 3.55 0 00.65-.12h.16-.25v-.19h.32s0-.21-.15-.26l-.17-.08a3.32 3.32 0 00-1.25-.25h-2.87a.25.25 0 000 .07s-.05 0-.07.06-.05 0-.06 0l-.06-.08h-.94c-1.54.05-3.07.22-4.6.23a1.88 1.88 0 00-.33 0 .66.66 0 00-.5.71h.09a.32.32 0 00.14 0c.07 0 .12-.12.2-.08a1.73 1.73 0 01.28.19v.05l-.08.07a.15.15 0 01-.09 0c-.08 0-.15-.13-.25 0l-.29-.07.48.35h.64c.21 0 .46-.06.69 0a1.66 1.66 0 01.22 0 .11.11 0 010 .06l.71-.07a.08.08 0 01-.06-.16zm7-.59h-.05zm-.28 0zm-.18 0zm-.64-.59v-.07s.05 0 0 .08 0 0-.06.07.06-.05.06-.08zm-1 .61h.06c.06 0 .12 0 .11-.07s0-.17 0-.3c.12.12.12.12.14.42a.38.38 0 01-.27 0s-.08-.06-.07-.09-.03.03.03.04zm-1.08.09zm0-.38zm0-.21zm-.12.43h.09-.07zm-.26 0zm0 .22h.06zm-.83-.51s-.06-.01-.03-.01zm-1.07.07a.08.08 0 010-.05zm-.16.19zm-.25 0h.05zm-.13-.29h.09v.05c0 .05-.09.13-.13.11a.2.2 0 01-.06-.04c-.07-.07 0-.11.07-.11zm-2.27.65s-.05-.07-.08-.08a.55.55 0 00-.22 0 .63.63 0 00-.17.08v-.26c0-.07.06-.05.06 0a.58.58 0 00.23.09.18.18 0 01.15.2zm.35.18h-.07s.07 0 .06.07zm.63.15a.17.17 0 010-.05zm27.27-33.94l-.32-.32a.43.43 0 00.32.32zM13.53 43.37a1 1 0 00-.38.39c.3.46.62.92 1 1.36 0-.4-.08-.8-.14-1.19a1.21 1.21 0 00-.12-.46c-.11-.11-.23-.2-.36-.1zM48.92 17.4a1 1 0 00-.54.2l.06.07c.06.07-.07.09-.11.08s0 0-.07-.05a.65.65 0 00-.19.49v1.96a6.32 6.32 0 010 1.23 1 1 0 000 .24s.07.05 0 .1v.06c0 .1 0 .2.06.3a.48.48 0 00.2.28.49.49 0 00.25.08.36.36 0 00.38-.29 5.24 5.24 0 00.25-.92c.16-1.05.25-2.1.31-3.16.18-.47-.08-.71-.6-.67zm-.39 2.41zm.07-.65c0 .08-.09.11-.14.06a.31.31 0 00-.27-.09.07.07 0 010-.05c.08 0 .18 0 .27-.05s.06 0 0-.05 0-.09.06-.07.06.07.09.11.01.08-.01.14zm.11-.46h-.05s.06-.01.05 0zm0 .34zm.16-1a4.13 4.13 0 00-.49.07c-.08 0-.16 0-.24-.05a.21.21 0 01.26-.11 1 1 0 00.46 0s.07.05.06.05zm0 3.76zm.13.2a.78.78 0 010-.12V22zm.1-.27zm.06-1.31zm.23.33zm0-1.57v-.05a.61.61 0 010-.12.1.1 0 010 .19z" fill="#281e53"/><path d="M18 34.27a2 2 0 00.21.38.14.14 0 01.09 0 .16.16 0 01.09.07v.08c0 .02 0 0 0 0a.58.58 0 00.47.19h1c.87 0 1.74-.09 2.61-.1h1.21l-.07-.06a.14.14 0 01.17.11h6.3c.05-.07.05-.07.2 0h.73a.14.14 0 010-.07.1.1 0 01.05-.06.57.57 0 01.13.08h.45a.38.38 0 00.37-.41.83.83 0 00-.06-.32.76.76 0 00-.69-.48h-.43c-.73 0-1.46 0-2.19.06a.62.62 0 01-.2.37c.1 0 .17 0 .25.06a.06.06 0 010 .06.52.52 0 01-.07.12l-.18-.24c-.09-.08 0-.2-.07-.3s0-.08.09-.11c-1.34 0-2.68 0-4-.06-.84 0-1.68-.07-2.52 0a11.87 11.87 0 01-3.26-.11.56.56 0 00-.68.74zm13.33-.38a.09.09 0 01.06-.06h.05a.9.9 0 01.15.19c0 .08 0 .13-.07.19h-.14a.15.15 0 010-.06c.05-.15-.06-.15-.03-.26zm-.24.28v.09h-.06a.19.19 0 010-.08zm-.79.5zm.26-.92h.05zm-.36.31c.09 0 .1-.17.23-.11s.06 0 .15.25h-.19c-.03 0-.06-.1-.12 0l-.06.08h-.14a.29.29 0 01.05-.13.09.09 0 01.1-.09zm-.09-.31zm-.38.4h.07-.06.01zm-.39-.27h.06-.05.01zm-.19.23h.08c.1 0 .15 0 .16.13s0 0 0 .06a.15.15 0 01-.19-.07.11.11 0 01-.03-.12zm-.17.48zm-.24-.59h.14a.26.26 0 01.09.23h-.07a.11.11 0 01-.08 0 .38.38 0 01-.08-.17.17.17 0 010-.06zm0 .52zm-.66.34zm-.13-.53h.08v.05l-.05.1a.11.11 0 01-.04-.15zm-.13.12zm0-.24zm-.33 0h-.05zm-.5-.37zm-.69.5s.05.11.08.17-.08 0-.08 0a2.14 2.14 0 01-.1-.22.08.08 0 01.05.06zm-1.9-.07a.07.07 0 01.12-.05c.1.08.09.16 0 .23h-.08zm-.28.34v.06a.09.09 0 010-.05s-.06.01-.05 0zm-.13-.6zm-.16.44h-.07c-.07 0 0-.06 0-.07s0 0 .07-.06-.04.12-.05.14zm0-.42v.05h-.07l-.2-.08a.15.15 0 01.19 0zm-.23-.24h.08-.11zm-.58 0a.09.09 0 010-.05c.1 0 .21 0 .27.1s0 .06 0 .08-.06 0-.09 0h-.09c-.11.08-.18-.04-.17-.11zm-.07.48v-.17h.13c.01 0 0 .14 0 .21s0 .11.09.1h.21a.49.49 0 010-.12h.05s.07.19.1.29a.81.81 0 010 .2c-.19-.12-.32-.32-.56-.23s0-.06 0-.09-.25-.08-.1-.17zm-.13-.23s-.09.03-.08.02zm-.38.36l.05.06h-.07zm-.37.06h-.33a.73.73 0 00.26.02zm-.42-.46a1 1 0 01.11.17l-.11-.18zm-.21 0a.64.64 0 010 .07v.08a.07.07 0 01-.06 0 .13.13 0 01.06-.15zm-.51.35a.2.2 0 010-.11s.05.05 0 .06a.58.58 0 010 .18.35.35 0 010 .11c0 .06 0 .11-.07.16.04-.19.05-.31.07-.44zm-.31-.52c.07 0 .1 0 .08.07s0 0-.06 0a.06.06 0 01-.09 0c-.02-.11.04-.09.07-.11zm-.68.25c0-.08.09-.15.14-.23l.05.06c.08.13.08.14.22.1s.09 0 .1 0h-.05c-.07 0-.13 0-.12.15a.58.58 0 010 .14c.08 0 .11-.09.14-.16s.05.08 0 .11l-.09.15v.06h.05a.29.29 0 01.24 0 .08.08 0 010 .06.41.41 0 01-.15 0 .32.32 0 00-.3 0 .08.08 0 01-.11 0c0-.09-.1-.12-.19-.18.13-.05.25 0 .37 0v-.06l-.08-.1a.18.18 0 01-.18-.13s0-.07-.08-.07a.05.05 0 01.04.02zm0 .16h.05a.36.36 0 010 .11h-.05c-.05 0 0 0 0 0a.54.54 0 01.06-.15zm-.43-.24l.08.05v.05l-.09-.1zm0 .65zm-.2.07h-.08a.25.25 0 010-.07v-.06h.06s.04.1.03.11zm-.09-.83h.05-.1a.09.09 0 01.06-.02zm0 .3h.05v.05h-.06zm-.1.4h.13-.15zm-.26-1l-.02.02zm0 .42a.39.39 0 01.22.23.05.05 0 01-.05.08h-.06l-.14.05s-.06-.05-.06-.08-.01-.29.04-.29zm-.6.37l.06.05-.06-.09zm32.67 3.54a.11.11 0 010 .08h-.18s-.07.06-.05.1l.07.06v.13a.57.57 0 00-.29 0 .51.51 0 000 .17A1 1 0 0051 39a.89.89 0 00.38.06c.14 0 .23-.07.33-.15a3.47 3.47 0 01.29-.25s-.08-.08 0-.12a.17.17 0 01.14 0h.06l1.51-1c.09-.33.17-.67.25-1h-.13s-.05 0-.05-.06 0-.06.05-.06h.16c.05-.19.09-.39.12-.58s0 0 0-.06v-.16c-.39.31-.79.61-1.2.89l-2 1.3a1.49 1.49 0 00-.2.15.34.34 0 00.22-.04zm1.77-.15h.12c.02 0 0 0 0 0a.1.1 0 01-.13 0h.01zm-.49 0h.06s.06 0 .06.05a1.36 1.36 0 00.08.39c-.06 0-.15 0-.14-.12a.18.18 0 00-.06-.14s-.02-.12 0-.17zm-.68.73l.2.05h-.2zm-.39-.76h.08a.07.07 0 01.07.08s0 .06-.07.08-.11-.12-.08-.15zm0 .21c.08 0 .08 0 .1.1a.53.53 0 010 .12.07.07 0 01-.06.09.08.08 0 01-.1-.08v-.08s-.01-.1.08-.1zm.1.58l.05.07c.05.07 0 0 0 0l-.22.07-.19-.07zm-38.79 1.36v.08l-.08.05h-.07c-.22.3-.45.6-.69.89.19.42.4.83.62 1.23.32-.4.65-.79 1-1.17h-.06l-.17-.06.26-.08.07.06.14-.16a.5.5 0 00.14-.56.72.72 0 00-.65-.45h-.09a.09.09 0 01-.1-.07.69.69 0 00-.33.14s0 .09.01.1zm-.73 1zm.53.49zm.28-.49h.06s.06.08 0 .1h-.12v-.08s.05-.01.06-.02zm-2.18-5.17a.09.09 0 01.11.08h.48c.47 0 .65-.26.57-.72a.64.64 0 00-.27-.43 1.23 1.23 0 00-.82-.31 4.57 4.57 0 01-.74 0c.06.47.14.93.23 1.38h.44zm31.8.73h-.09l.06.06.18-.06a.12.12 0 00-.15 0zm5.55 3.3a2.84 2.84 0 000 1.53 1.66 1.66 0 01.21.06c.09 0 .07.07 0 .14s0 .13-.09.08-.11 0-.15 0v.61s.07 0 .06.08 0 .23-.07.2v1.31h.09a1.05 1.05 0 00.43.07v.11c-.14-.07-.27 0-.4 0h.02v1.11a1.41 1.41 0 01.54 0h.06a1.06 1.06 0 00.58.08v-.83a.42.42 0 01-.25-.12l.23-.05v-1.14a.2.2 0 01-.17 0v-.08c0-.02 0 0 .07 0L49 43v-.71h-.07l.07-.07v-.53a2.82 2.82 0 00-.12-.63h-.19c-.02 0 .06 0 .08-.07a9.76 9.76 0 00-.46-.91c-.14-.49-.45-.73-.61-.33zm.49 3.12v-.1h.05a.25.25 0 010 .07zm0-.75zm.09 2.2a.43.43 0 000 .05zm.5-1.87zm-.06 1.39h.15-.11zm0-1.88zm-.07 2.66c0 .05 0 0 0 0l-.09.06c-.13.13-.28.09-.45 0a.86.86 0 01.34-.09h.23zm-.14-2.46zm.08 1.51s-.06-.01-.06 0zm0-2.18l-.17.14h-.1a.06.06 0 010-.1c.01-.08.08-.15.2-.04zM48.3 41s-.07.06-.1.05a.66.66 0 01-.13-.08L48 41a.09.09 0 01-.13 0l-.19-.14a3.19 3.19 0 01.32-.06.14.14 0 01.09 0l.16.09a.16.16 0 01.05.11zm-.12-.85c.06 0 .11 0 .09.12s-.05.11-.13.08h-.21a.09.09 0 01-.09-.07c0-.06 0-.08.07-.07a.51.51 0 00.27-.08zM36.45 31c-.06 1.14-.17 2.27-.29 3.4a.88.88 0 010 .16.13.13 0 01.17.1v.06c0 .06 0 .09.08.1a.29.29 0 01.28.29.07.07 0 010 .07s-.09.07-.14 0-.19-.07-.19 0a.18.18 0 01-.15.18h-.1c0 .3-.05.6-.07.89s0 .05 0 .05c0 .54-.06 1.08-.08 1.62a8.12 8.12 0 01-.25 2v.12c.1 0 .15.1.21.16s.08.08 0 .14-.1.06-.16 0a.1.1 0 00-.11 0v.33a.53.53 0 00.83.39 1.46 1.46 0 00.24-.17.07.07 0 01.1 0 1 1 0 00.28-.63v-1.59a.09.09 0 010-.06v-.79c0-.42.06-.84.08-1.26a.08.08 0 01-.1 0 .22.22 0 010-.08.18.18 0 01.13 0v-.32a.6.6 0 01-.09-.13v-.1a.13.13 0 01.1 0 .12.12 0 01.1 0v-.26a.41.41 0 01-.23.13l-.17.06v.05h-.05a.32.32 0 000-.14c0-.19 0-.18.12-.22a.44.44 0 01.28 0c0-.19 0-.37.05-.56s-.07 0-.07 0a.57.57 0 00-.1-.31v-.06a.26.26 0 01.16.1l.06-.5h-.06v-.05c0-.21.05-.42.07-.62h-.1a.18.18 0 010-.07.11.11 0 01.11-.08.11.11 0 01.06.07.59.59 0 010 .13h.06l.09-1a12.55 12.55 0 00.05-1.38 3.37 3.37 0 00-.22-1.1c-.1-.26-.24-.32-.48-.24s-.43.23-.44.65c-.03-.09-.04.17-.06.47zm.76 3.31a.13.13 0 01-.07 0h-.06c-.06 0 0-.06 0-.08l.05-.05c.09.06.09.08.08.09zm0-.41zm0-1.67a2.27 2.27 0 01.25.06s.05.06.06.1 0 0-.05.06a.39.39 0 01-.11.06v.16l-.23-.11a1.59 1.59 0 010-.22c-.02-.11.02-.16.09-.15zM37.08 31zm-.17 3.56a.14.14 0 010-.04zm-.6 3.71a.35.35 0 01.07.09s-.09 0-.09-.09zm-.15-2.43l.05.07h-.08a.25.25 0 01.03-.11zm.09 3.29zm-.08-2v.05l-.06-.05zm0 .48zM36 40.28s0 .02 0 0zm-.13.64v-.06a.79.79 0 01.16.1zm.47-.83c-.06.12 0 .23 0 .34s0 0-.06.06h-.07c-.07 0-.1 0-.06-.1s0-.13 0-.2a.11.11 0 01.09-.14c.03-.05.12.01.1.04zm0-.15h-.05c-.08 0-.11 0-.07-.12a.87.87 0 01.09-.11l-.26-.07v-.08c0-.08.07-.06.1 0a1.7 1.7 0 01.19.19v.26zm0-3.69a.35.35 0 00.18-.42h.14c-.05.13 0 .26-.08.38s-.03.14-.18.04zm.17 4.29zm.23-.41c0 .15 0 .19-.13.19s-.11 0-.11-.15 0-.11.13-.11.17.02.17.07zm-.07-9.31zm0 2.88zm0 .27s.08.05.07.08h-.05l-.03-.05zm-.16-1.84h.05zm.08 1v.22a.16.16 0 01-.07.07s-.1.06-.13.05-.06-.1 0-.16 0-.14 0-.23h.05c.05-.02.13-.08.18.03z" fill="#281e53"/><path d="M39.36 34.05c.81.7 1.61 1.42 2.39 2.15a.22.22 0 00.21-.12h.08a.64.64 0 00.06-.08l.12.12c.06.09.12.08.21 0s.11 0 .09.09v.18c0 .07.07.09.16 0h.05c.06-.09.12 0 .18 0l.15.1v.07a.12.12 0 01-.07 0c-.05 0-.15 0-.17-.09l-.16-.12a.29.29 0 010 .09s0 .08-.06.08-.2-.08-.31-.12a.19.19 0 01-.11.12l.31.29a.33.33 0 01.22 0s.06 0 .06.06a.07.07 0 010 .07.25.25 0 01-.11 0l.16.16c.19.17.37.35.55.53a.08.08 0 000-.1h.09a4 4 0 01.36.35.93.93 0 01.09.2l-.08.07.09.1a.54.54 0 001-.25.57.57 0 000-.14l-.12-.06v-.11a.11.11 0 01.08 0l.08.05a.65.65 0 000-.24.91.91 0 00-.19-.38 7.34 7.34 0 00-1-1c-.44-.37-.86-.76-1.27-1.15-.12.08-.2 0-.26-.09l.09-.08c-.38-.37-.73-.77-1.13-1.12l-.24-.2a.16.16 0 01-.1-.08l-.9-.76h-.07v-.06h.05a8.63 8.63 0 01-.54-.5 1.69 1.69 0 00-.38-.27.49.49 0 00-.21 0c-.06 0-.09 0-.12-.08-.21 0-.37.06-.36.41a2.88 2.88 0 001.03 1.91zm3.29 2.72a.19.19 0 01-.09 0s-.05-.05 0-.06a.12.12 0 01.06-.06s.05.1.03.12zm2 .64zm-.12.37zm-.23-.9a.53.53 0 000 .13v.1a.08.08 0 01-.11 0zm-.25.27zm-.05-.58zm-.29 0a.07.07 0 010 .05l.03-.04zm.06.83l.18.05a.11.11 0 010 .08c0 .08-.12.08-.22.1s-.05 0-.06-.08.09-.14.13-.14zm-.4-1h.05v.06h-.14zm-.48-.62zm-.18.24a.08.08 0 01.08 0 .1.1 0 010 .07v.06h-.1a.42.42 0 01.05-.15zm-.45-.39h.41c-.06 0-.12.05-.14.09s-.15.12-.24 0l-.19-.11zm-.74-1h.06a.16.16 0 01.07.07v.07c0 .01-.11-.07-.1-.11zm-.12-.14s.01.03.03.03zm-.3.44l.12.13h-.06a.15.15 0 01-.03-.06zm-.1-.33zm-.15.26h.07zm-1.06-.53zm.83-.86a.12.12 0 01.05.07h-.05v-.07zm-.4.63zm-.54-.73a.59.59 0 01.13 0 1.77 1.77 0 01.17.12c.09.08.09.09 0 .17s0 0-.06.07h-.15l-.14-.07c0-.11.12-.12.28-.11-.19-.09-.33-.12-.37-.31zm5.68 8.43v.05h-.05a5.42 5.42 0 010 .57l-.09 1.39c0 .5-.07 1-.1 1.52v.61a.31.31 0 01.12.05.1.1 0 00.09 0c.11-.09.27 0 .39-.08l.23.12a.65.65 0 01-.45.11.47.47 0 00-.31 0h-.09v1.56s.07-.07.08-.06a1.32 1.32 0 00.44.08.13.13 0 01-.11.1h-.2c-.05 0-.14 0-.21-.08v2.01l.12-.06c.1 0 .11-.07.06-.17v-.05c0-.07 0-.1.08-.11h.07v.29c.3-.22.58-.44.87-.67v-.19h.23v-1l-.06-.07h.06v-.58h-.05a.22.22 0 010-.08v-1.1h-.07v.09a.1.1 0 01-.13.06c0-.07 0-.09.1-.1s0 0 .08 0h.08v-.75a.58.58 0 01-.21-.07.53.53 0 00-.18 0h-.31.09a1 1 0 01.56-.08h.06l.06-.79h-.08a.76.76 0 000-.15c0-.09 0-.09-.13 0h-.06v-.08c0-.02.07-.16.11-.25h.24c0-.2 0-.39.05-.59 0-.46.09-.92.13-1.42v-.19c0-.38-.22-.57-.66-.5h-.19a.72.72 0 00-.6.74zm-.14 3.35h.05s-.04.01-.05 0zm.09.51h.05zm.22 3.5h-.22a.12.12 0 01-.13-.16 1.4 1.4 0 01.1-.16c.09-.11.21-.11.27 0a.58.58 0 010 .19.12.12 0 01-.02.13zm0-2.1a.15.15 0 01-.18 0v-.09h-.05.14a.18.18 0 01.17.05s-.09.04-.1.04zm-.22-.42a.72.72 0 01.46 0 .57.57 0 00.13 0v.06c0-.01-.12.07-.17.09s-.3-.13-.44-.15zm.57 1zm0 .57l-.05.05zm.31-1.21zm0-.31zm-.07 1h-.06zm-.2.8a.47.47 0 01.06-.09v.06a.12.12 0 01-.09.07zm.86-7.14zm-.14 1.39zm-.18-1.52zm0 .16zm0 .34h.07a.66.66 0 010 .14l-.13-.07a.11.11 0 01-.02-.03zm-.07.38h.18c-.07.11-.08.11-.17 0zm-.72 2.76zm.11-1h-.05.05zm.29.42a.29.29 0 010 .09v.33l-.1.07a.09.09 0 01-.14-.07 1.08 1.08 0 010-.18v-.14a.14.14 0 01.2 0v-.09H46zm.29 0l.08.06-.1.11s-.07 0-.06-.09-.05-.08 0-.08zm-.23-3c0 .12.1.15.15.22l-.2-.14s-.08-.09-.03-.12zm-.43.92h.45a.12.12 0 01.06.2.2.2 0 01-.34 0l-.12-.13s-.17-.06-.13-.11zm0-.81zm-.21 3.31l.14-.15.06.1v.14a.37.37 0 01-.15 0 .07.07 0 01-.15-.13zM17.54 17.61l-.06.09a1.31 1.31 0 010 .15 1 1 0 00-.08.52c0 .31.16.52.4.57a.56.56 0 00.7-.35 4.76 4.76 0 01.28-.49c.22-.31.43-.63.63-.95s.47-.77.71-1.16h.11v-.06a.11.11 0 000-.07.06.06 0 010-.06l.06-.09c.24-.37.47-.74.7-1.11-.1 0-.17 0-.14-.07a.48.48 0 01.16-.08h.11a43.01 43.01 0 001.79-3.27 2.12 2.12 0 00.11-.21c-.57.25-1.12.52-1.66.81l-.34.62a.1.1 0 00.09.08.11.11 0 010 .08s0 .05-.06.07H21v-.1q-.41.72-.84 1.44c-.87 1.15-1.75 2.39-2.62 3.64zm.17 1.17v-.05c0-.05 0-.07.08 0s0 0 0 .07zm.16-1.09a.11.11 0 010-.08h.05c.05 0 .29 0 .45.05-.19.1-.37.01-.5.03zm.85-.06zm.23.07v-.05c0-.05 0 0 0 0v.05zm.14-.2h-.05v-.06c0-.06 0 0 0 0a.14.14 0 010 .06s.05-.02.05 0zm.45-1.85zm2.6-4.21a.17.17 0 01.07.16h-.06a.2.2 0 01-.01-.16zm-.34 1.06a.1.1 0 01.05-.06.41.41 0 010 .08v.05h-.07s.02-.06.02-.07zm-.53 1.22h.1-.09a.15.15 0 01-.06-.05zm-.58.65v.05h-.05s.04-.06.05-.05zm-.33.68zm-.15-.49a.3.3 0 01-.07.08s-.08 0-.07-.07 0-.05 0-.08zM44.79 39h.11c0 .16 0 .16.11.33v.06a.13.13 0 01-.07 0h-.13c-.04 0-.16 0-.21-.1l-.08-.11.13-.23h-.16c-.48 0-1 .08-1.43.11l-1.34.1c-.21 0-.41 0-.62.06l-.09.06-.09-.05c-.54.08-.67.23-.7.76v.08l.06-.09h.06a.09.09 0 01.05 0c0 .13.06.27-.06.39a.36.36 0 00.11.1h.07a.52.52 0 00.23.07h.91v-.06h-.18a.18.18 0 01-.1-.07.33.33 0 01.07-.26c.09 0 .18-.11.28 0h-.06a.3.3 0 000 .21 1.3 1.3 0 01.08.17l1.87-.21h.25c-.07-.07-.18-.07-.26-.11s0-.05 0-.05h.15c.03 0 .21.07.32.12v.08c.68-.11 1.36-.24 2-.29h.19c.11-.06.23-.12.24-.27s-.08-.23-.18-.31a.75.75 0 00-.13-.06 5.43 5.43 0 00-1.42-.43zm-4.18 1.1v-.05zm.49.28a.12.12 0 01-.17 0l-.21-.22a.26.26 0 01.38 0 .11.11 0 010 .22zm.85-.62zm.34.65v-.21c0-.07 0 0 0 0s.11 0 .11.09a1.27 1.27 0 01-.11.12zm.42-.18h-.06zm.85-.53h-.05a.07.07 0 01.05 0zm.2-.29s-.08 0-.1-.06v-.06a.11.11 0 01-.08 0v-.08h.07c.01 0 0 .06 0 .08h.11c.01 0 .05.11 0 .12zm.39-.28zm0 .35a.08.08 0 01-.08 0v-.09c0-.02.06 0 .1-.06a.14.14 0 010 .09s-.01.05-.03.06zm.66-3.23zM21.4 21.81l-.34.42.12.11a.92.92 0 01-.28.09c-.7.87-1.39 1.74-2.11 2.59a17.65 17.65 0 00-1.9 2.66c-.05.1-.13.19-.1.31a1 1 0 00.57.77.38.38 0 00.55-.1l.12-.13v-.13a.22.22 0 01.14 0 1.27 1.27 0 00.18-.27l.21-.35v-.12a.41.41 0 01.19 0c.24-.4.49-.78.76-1.16a35.52 35.52 0 012.42-3.18c.29-.33.56-.68.84-1a1.74 1.74 0 00.28-.6c-.06-.14 0-.34-.19-.42a.65.65 0 00-.62 0 2.2 2.2 0 00-.84.51zM18.3 28zm.07-.6zm1.75-3.72zm-.45.91zm-1.1 2.82zm.24-.43s-.11-.05-.09-.08 0 0 .06 0l.07.07a.14.14 0 01-.04.03zm.35-.83zm.28-.72c-.05 0-.08.1-.16 0a.16.16 0 01-.05-.17.25.25 0 010-.07h.18s.1 0 .11.05-.04.13-.08.16zm.31-.19a.6.6 0 01-.08-.08h-.06a.64.64 0 000 .07l.1.05zm.39-.52s0 .12-.08.1-.1-.07-.14-.11 0-.05 0-.05h.13c.08-.06.1-.02.09.03zm1.18-2.4zm1.24-.69v-.05zm-.66.67h.05-.06s-.03-.03.01-.03zm0-.22zm3.67-8.96l.47.13h-.09v-.06l.13-.12v.16l.3.07c.55.1 1.11.07 1.72.15h1a.57.57 0 00.39-.12h-.13s-.12 0-.13-.12 0-.05 0-.06 0 0 .05 0 .11.06.07.19h.16a.54.54 0 00.13-.22.84.84 0 00-.1-.81.77.77 0 00-.74-.33h-.44a.08.08 0 01-.08 0c-.79.05-1.58.07-2.37.05a.91.91 0 00-.46.1c-.08.05-.17.08-.22.18a.55.55 0 00.34.81zm2.72.2zM28 12.26zm-.92.83a.34.34 0 01.06.06h-.06c-.01 0 0-.04.01-.06zm-.47.1zm-.49-.83zM37.6 46.6h.07a3.89 3.89 0 011.35-.15h.48a3.47 3.47 0 00.56-.11.31.31 0 00.27-.16h-.27c0-.11.09-.15.15-.13l.16.05a.64.64 0 010-.07.54.54 0 00-.23-.62 1.93 1.93 0 00-.6-.28c-.38-.08-.76-.14-1.15-.19a.13.13 0 000 .18.2.2 0 010 .08.11.11 0 01-.08 0 1.27 1.27 0 01-.12-.1.32.32 0 01-.07-.19h-.62a.53.53 0 00-.37.23 1.23 1.23 0 00-.27 1 .3.3 0 010 .1c.11.38.34.57.7.5zm2.71-.82v-.05zm-.41-.51l.2.12a.16.16 0 010 .2.12.12 0 01-.17.09l-.15-.08zm-.45.27h.07v-.06zm-.18.3a.44.44 0 00.2.08c.09 0 .07.12.14.15l.16.07s-.05-.09 0-.1a.24.24 0 01.12-.07c.07 0 .07 0 .08.1a.06.06 0 010 .09h-.22c-.03 0-.23.05-.35.07a.09.09 0 01-.06-.07 2.72 2.72 0 010-.3s-.1-.04-.07-.02zm-.42.14a.29.29 0 01.1 0 1.92 1.92 0 010 .22v.11c0 .01-.08 0-.1-.08v-.05s-.11 0-.11-.08.07-.1.11-.1zm-.18-.86zm-.14.34l.06.06a.43.43 0 000-.07zm-.65 1zm.35-.06zm-1.14.11zm.21-.4l-.15.11s-.06.07-.1 0 0-.06 0-.09a.1.1 0 01.06-.12h.29c.01 0-.07.05-.1.07zm.11-.38a.71.71 0 000-.46.94.94 0 00-.09-.12c.13.13.26.25.37.38s0 .21-.1.23zm.11.68a.1.1 0 01-.05 0v-.05h.15c.06 0 .08-.09 0-.17a.07.07 0 010-.11l.2-.13c.06 0 .1 0 .14.05s.11.1.19.09a.7.7 0 01.25 0 1 1 0 01-.2.11c-.08 0-.16-.06-.25 0a.33.33 0 01.06.1.09.09 0 010 .09h-.08c-.03 0 0 0 0 0s-.1 0-.19.05l-.1.06h-.06zm-6.8-35.79a.45.45 0 00.39-.47.74.74 0 00-.11-.49h-.14c-.05 0-.08 0-.08-.08a.26.26 0 00-.11-.23.93.93 0 00-.29 0 16.6 16.6 0 01-1.74-.1h-.21a22.66 22.66 0 00-3 .7c.75.17 1.52.3 2.28.46a9.42 9.42 0 002 .26 2.84 2.84 0 001.01-.05zm0-.5h-.05zm-.52-.46l.05.05h-.08zm-.52.39V9.8c0-.06 0-.1.06-.07s.07.06.07.09a.29.29 0 01-.13.22zm-3.85-.18zm24.08 34.38H50a.2.2 0 010 .05h-.1v.45h.1-.13v.29h.1l.26-.34v-.06h.08c.28-.39.55-.78.8-1.19-.06-.12-.16-.17-.35-.19-.43 0-.64.1-.71.56zm0 .32zm.71-.73v.07s-.02-.05 0-.07zm-9.95 5.38zM22.09 19.66l.05.05h-.07a.45.45 0 00.1.27.7.7 0 00.66.29.72.72 0 00.5-.32c.3-.4.62-.8.94-1.18a.07.07 0 010-.05l.09-.11c.34-.4.7-.79 1.06-1.18a10.88 10.88 0 001.23-1.63.87.87 0 00.21-.54c0-.28-.05-.35-.29-.45a.89.89 0 00-.51 0 1 1 0 00-.68.55 9.5 9.5 0 01-.63.93s0 .06-.06.08a6.68 6.68 0 01-.49.57c-.53.55-1 1.12-1.54 1.68a3.57 3.57 0 00-.54.79 1 1 0 00-.03.25zm4-4.36zm-.09.22a.14.14 0 01.17 0 .21.21 0 01.07.22c0 .08-.09.09-.15.1s-.1 0-.11-.09a.32.32 0 000-.09v-.08s.02-.05.02-.06zm-.51 1.69h-.05zm-.16-1.39s.08 0 .09.08-.09.15-.11.13a.26.26 0 01-.08-.13s.05-.07.13-.08zm-.29 1.59h.05v-.22a.13.13 0 01.18.07.12.12 0 01-.09.16.22.22 0 01-.11 0 .07.07 0 010 .05s-.01-.06 0-.06zm-.27-.19zm0 1l-.09.07a.19.19 0 010-.08l.05-.06zm-.11-1.36zM23 20.12s0 .01 0 0zm1.22-2.36v.05s-.04-.04-.04-.05zm-.06.41c.06-.07.09-.07.24 0l-.21.05-.07-.05zm-.49 1.28zM23.46 18zM23 19.62a.78.78 0 00.37 0v.05h-.46l.09-.05zm-.75 0s0-.07.06-.07l.42.06v.05c0 .05 0 0 0 0h-.46s.01.01.01-.01zm17.47 28.15a.25.25 0 00-.24 0 1.22 1.22 0 01-.8 0c0-.14 0-.13.15-.17s.17-.06.26 0a.11.11 0 00.15 0 .08.08 0 01.09 0 .19.19 0 00.25 0 .41.41 0 01.19 0h.09a.81.81 0 00-.66-.55.62.62 0 00-.72.4.64.64 0 000 .07c.06.14.05.14-.08.19a1 1 0 000 .39c0 .33.17.46.49.46a1.47 1.47 0 00.68-.18.82.82 0 00.37-.63zm-1.1-.3c0-.06.05 0 .08 0h.1c.1 0-.08.06-.12.06s-.05-.04-.06-.06zm.2.81zm.51 0zM34.44 33a.45.45 0 00-.62 0l-.13.13a1.9 1.9 0 00-.33 1c.2 0 .21 0 .41.26a.68.68 0 00-.29-.06.32.32 0 01-.14 0v.79s.07 0 .06.09h-.06c-.06.86-.09 1.73-.1 2.6a.12.12 0 01.15 0v.07h-.12v1.23h.05s.07 0 .07.1a.25.25 0 01-.09 0V41a.1.1 0 010 .14v.14a.66.66 0 00.13.28.51.51 0 00.48.14 1.09 1.09 0 00.51-.19h-.26v-.22c0-.08.07-.11.13-.06s.21 0 .3.09a1 1 0 00.13-.46v-.18a1 1 0 010-.17 1.12 1.12 0 00-.33-.16.07.07 0 010-.1h.18c.01 0 .1-.09.16-.07v-2.07a.19.19 0 01-.12 0h-.08c-.02 0-.17-.08-.18-.19s0 0 .05 0a.26.26 0 01.21.25h.15v-1.89c0-.63.15-1.51.13-2.28a1.45 1.45 0 00-.06-.41 1 1 0 00-.21-.37zm-1.13 6.43zm0-1.29a.07.07 0 01-.11 0h.15s.02.03-.01.04zm.06 3.26zm1-.57l-.06.06-.06-.06zm-.07.17a.43.43 0 010 .07l-.06-.05zm.06-2.84zm.26-4.29a.35.35 0 010 .12s-.05-.05 0-.06a.32.32 0 010-.02zm-.47-1h.11l-.1-.06zm-.17.69v.06h-.06v-.06zm0 3.43zm0 2c-.08 0-.11.08-.16.09s-.06 0-.06-.08 0-.08.08-.06a.47.47 0 01.16.14zm-.15-4h-.07zm-.16 3.43v-.08c0-.01.05 0 .08.06s0 .18 0 .26c-.02.09-.02-.03-.02-.14zm-.12-4zm0 3.61h.07l-.06.06-.06-.06zm0 1.06zm.16 2.1a.13.13 0 01-.1.14.14.14 0 01-.14 0v-.18c0-.06.17-.06.2 0s0 0 0 .05.08.08.08.1zm.27-1a.58.58 0 01-.56-.06h.15a.36.36 0 00.36 0 .05.05 0 01.07.14zm0-6.22zm.16 4.72v.07h.06-.05v.09h-.07c-.08.03-.03-.02.11-.08zm0-1.74a.42.42 0 010-.15.12.12 0 01.12.11s-.05.09-.07.09zm.16-.71zm.17-2.22a.78.78 0 01-.39.1.07.07 0 010-.06.94.94 0 00.12-.09.17.17 0 01.32.13zm-.15-.51l-.14-.06c.1-.1.16-.1.2 0s.03.15-.01.14zm-.14 5.36v-.06zm4.52-2.56s.01 0 0 0zm-2.6-1.04zM35 48.79h-.06a2 2 0 01.05-.24.13.13 0 01.23-.05l.06.07a.64.64 0 00.08-.52.41.41 0 000-.22c0 .05 0 .13-.08.11s-.17 0-.25.08-.15 0-.27-.07a1.25 1.25 0 00-.22-.16h.21a.11.11 0 00.13-.07v-.14h.2a.3.3 0 01.23.07 1.75 1.75 0 00-.32-.35l-.58-.54-.07.06h-.11c-.02 0 0-.06 0-.09h-.05a.09.09 0 000 .05.4.4 0 00.12-.1l-.51-.47h-.06l-.26-.25-.09.17c-.13 0-.19.08-.15.22h-.08c-.01 0-.09-.17 0-.23s0 0 .06 0 .11-.15.07-.19a.17.17 0 01-.07-.14c-.31-.29-.6-.59-.9-.89l-.15.1c0-.09 0-.13.09-.16a15.13 15.13 0 01-1.5-1.79.5.5 0 00-.43-.23 1.05 1.05 0 00-1.06 1.1.33.33 0 00.19.31 3.12 3.12 0 01.76.64c.42.45.84.91 1.27 1.35a.18.18 0 010-.1c.05 0 .11 0 .13.1a.07.07 0 010 .06h-.11c.29.3.59.61.89.9.6.59 1.2 1.18 1.81 1.75a.58.58 0 00.8-.14zm-5-5.3zm.09-.71zm.35 1.09zm1.92 2.35zm-.06-.84zm-1.15-1a.5.5 0 01.27 0s-.07.07-.09.06a.9.9 0 01-.21-.08zm.54.46c-.07.12-.16.16-.24.08s-.22-.14-.26-.28a1.22 1.22 0 01.27 0 .84.84 0 01.24.14.13.13 0 010 .03zm.41 1.4s0 .07-.09 0a.25.25 0 010-.12.09.09 0 01.05-.07l.21-.09c-.04.11-.02.23-.16.25zm.29.42c-.06 0-.1.08-.17 0s.1 0 .16 0zm.14.19h.05zm.18-.2zm.68 1.27zm.1-1.12s-.08.08-.14 0-.06-.1 0-.16 0-.09-.06-.13 0-.05 0-.08h.25s.05 0 .05.07v.19zm.34 1zm.27.4a.19.19 0 010-.07l.06.06zm0-.28a.41.41 0 010-.08l.08.06zm.19-.31h-.05zm-23-21.35h-.06a.25.25 0 010-.12l-.65-.59a1 1 0 00-.25-.16c-.14.51-.27 1-.37 1.54.44.43.9.85 1.35 1.26.21.19.42.38.62.58 1.45 1.42 3.07 2.63 4.6 3.94a1.3 1.3 0 00.2.15.7.7 0 00.27.14v-.08c0 .05.06.07.06.1a.53.53 0 00.55-.28.8.8 0 00.13-.52.59.59 0 00-.11-.43 3 3 0 00-.53-.59l-.1-.1c0 .16.06.3.26.28 0 .09-.06.11-.1.1a1.81 1.81 0 01-.28-.12.32.32 0 01-.12-.25.05.05 0 010-.05l.08-.06-.39-.3s-.05 0 0-.06l-1-.84-1.34-1.16v-.08l-1.7-1.53-1-.88a.36.36 0 00-.12.11zm6.17 5.33a.18.18 0 01.05.07h-.05l-.07-.05a.18.18 0 00.07-.02zm-.44.17zm-.37-.35zm-.38.13l.06.07h-.08l-.05-.06a.18.18 0 01.07-.01zm-.27-.29h.15v.05h-.07c-.02 0 0-.05 0-.09zm-1.17-1.46h.06a.29.29 0 010 .09.6.6 0 01-.08-.08s.02.01.02-.01zm.05 1.05l.08.05-.07.09-.08-.08zm-.51-.09zm-.83-.75h-.06zm.2-1.43zm-.39 0l.15-.05h.08a.15.15 0 010 .09.13.13 0 01-.07.05h-.27c-.01 0 .08-.13.11-.15zm-.08 1.13h.05s-.07-.05-.05-.06zm-.24 0zm-.38-1.1h.13a.64.64 0 01-.06.1s-.08 0-.09-.06a.12.12 0 01.02-.07zm-.9-1zm0-.26l.18-.23c.13 0 .24.12.26.27a.25.25 0 00-.37 0 .21.21 0 01-.11-.05zm2.47-7.24zm25.49 23.18a1.07 1.07 0 00.85-.36.46.46 0 00-.2-.79 2.36 2.36 0 00-.74-.14L39 42l.15.19h-.05a.14.14 0 01-.09 0l-.06-.1V42l-1.26-.07c-.52 0-1-.08-1.56-.09a.94.94 0 00-.64.24.19.19 0 00.15.12h.27v.05c0 .05-.22 0-.32.09s-.07 0-.08 0a.31.31 0 01-.1-.13.88.88 0 00-.18.39c-.12.54 0 .79.59.83a.91.91 0 00.23 0c.71-.11 1.43 0 2.14-.1.44-.05.98-.03 1.52-.05zm.59-.19s-.01-.01 0 0zm-.36-.2c.08 0 .13.14.12.25h-.08c-.05-.14-.06-.14-.04-.25zm-.27-.57s.09.07.06.09h-.09v-.09zm-.46-.26zm-3 .15h-.02zm.37.66h-.06a.49.49 0 010-.11.07.07 0 01.04.11zm.43-.64c-.08 0-.13 0-.19-.08.07-.06.14-.08.21 0s-.03.07-.03.08zm.42-.29zm.41.25s-.01-.01-.02 0zm2.78 7.01v.06zM38 35.36a1.07 1.07 0 00.16.82s.06 0 .1.07l.07.14a.1.1 0 00.16 0 .76.76 0 000-.16h.38c0 .07 0 .13.05.15h.12a.1.1 0 010 .08.09.09 0 01-.06.06 1.17 1.17 0 01-.27 0 .22.22 0 00-.21 0h-.16a2 2 0 00.25.25l.15.14a7.56 7.56 0 001.28 1 1.48 1.48 0 01.37.29 1.93 1.93 0 00.63.42.45.45 0 00.48-.09.77.77 0 00.07-1.09l-.13-.12v.09h-.06l-.28-.18v-.08c0-.08 0 0 0 0h.19l-.03-.15a4.75 4.75 0 00-.56-.41.27.27 0 01-.18 0c-.09 0 0-.05 0-.08l-.25-.18a.46.46 0 01-.12.09v-.14a8.52 8.52 0 01-1-1.07.51.51 0 00-.58-.22.65.65 0 00-.57.37zm.14.59zm3.54 1.94zm-.14.09zm-.12.27a.07.07 0 010 .06.14.14 0 01.04-.06zm-.08-.52l.06.06a.24.24 0 010 .09c-.06.06.06.15 0 .21s0-.16-.05-.23a.2.2 0 010-.09s.01-.04.03-.04zm-.64.5h.04zM40.62 37zm-.42.83zm-.11-1zm-.57-.31zm0-.28a.14.14 0 01-.21.11.08.08 0 010-.08.16.16 0 01.19-.03zm-.18-.35V36a.05.05 0 01-.05 0zm-.43-.38v.05zm-.45.4l.09.07h-.05l-.08.02zM11.72 24.28a2.75 2.75 0 00.22.26c.44.56 1 1 1.48 1.53s.75.81 1.08 1.25a.75.75 0 00.65.38.87.87 0 00.89-.47v-.09A.18.18 0 0116 27a.11.11 0 01.08 0 .83.83 0 00-.33-.57L15.3 26h-.07c-.07 0 0 0 0 0l-2-1.94a2.2 2.2 0 00-.8-.58.43.43 0 00-.19 0 .17.17 0 01-.1 0s-.07 0-.07-.06a.54.54 0 00-.3.18.69.69 0 00-.05.68zm4 2.58h.06c0-.05-.05 0-.04 0zm-.45-.77h.05v.05s-.04-.05-.03-.05zm-.25.05zm-.23.27zm-.15 1zm-.14-1.91h.09a.12.12 0 01-.06.06h-.09s.04-.05.06-.06zm-.11.68h.06l.09.07-.06.05-.07-.05a.11.11 0 01-.02-.07zM14 26a.8.8 0 010 .15c0 .05-.13.1-.18.08A.23.23 0 0114 26zm-.39-.06zm-.09-1.09zm-.81-.16c0-.05.06-.08.09-.06l.15.11c0 .11-.05.12-.11.1s-.17-.1-.17-.18zm-.2-.83zm-.08-.36v.05a.08.08 0 01-.04-.08zm26.8 16.35a1.7 1.7 0 000-.39 7.47 7.47 0 01-.09-.94c0-.31-.11-1.17-.45-1.4-.13-.1-.3-.1-.51.07a.79.79 0 00-.24.59h.14c.07 0 .07 0 .09.07a1.27 1.27 0 01.06.18.07.07 0 010 .06h-.08A.28.28 0 0038 38h-.1v.34a8.42 8.42 0 010 .87.09.09 0 010 .12.08.08 0 01-.07.07 3.37 3.37 0 01-.12.53 1.05 1.05 0 000 .74.53.53 0 00.72.34 1 1 0 00.57-.54 2.49 2.49 0 00.23-.62zM39 38zm-.35 0v-.09a.09.09 0 01.07 0l.06.06a.25.25 0 010 .07.09.09 0 01-.1.1c0-.05-.03-.08-.01-.14zm-.41-.78h.2c.07 0 .14 0 .14.08a.13.13 0 01-.1.14h-.06l-.09-.08c-.03-.05-.11-.07-.07-.15zm.22.74zm-.2.58v-.06s.07 0 .09.06-.07.1-.09.15.03-.11.02-.16zm-.07.57s.1 0 .1.11 0 .06-.06.07-.11 0-.1-.09a.11.11 0 01.08-.1zm-.17.33l.07.06-.07.09s-.06 0-.07-.08.05-.09.05-.08zm.44 1.22c-.06 0-.11 0-.12-.1s0 0 0-.07 0-.09-.13 0l-.07.06-.12-.17s-.11-.1 0-.16.1 0 .15 0a.27.27 0 00.09 0h.15a.71.71 0 01.12.18 1.16 1.16 0 010 .18.09.09 0 01-.05.07zm.11-.53l-.05-.06h.05zm0-.88v-.05zm.07-.38a.12.12 0 01.11 0 2.44 2.44 0 01.26.06c0 .16 0 .16.11.38l-.34.15a.31.31 0 010-.09 1.48 1.48 0 000-.21s-.08-.1-.1-.15a.11.11 0 01-.01-.15zm.27 1.67a.19.19 0 01-.08 0h-.11a1.29 1.29 0 01-.07-.21h.06l.19.2zm12.63-.16a1 1 0 00.89.37h.08c.17-.38.34-.77.49-1.16h-.79a1.11 1.11 0 00-.59.16.39.39 0 00-.08.63zm0-.17zm.89 0l.1-.17a.36.36 0 01.06.15.09.09 0 01-.1.09h-.05c-.05 0 .02-.04.03-.05zm-.17-.53v-.05zm0 .19s.08 0 .14.07l-.12.07a.07.07 0 01-.09-.06s.02-.07.07-.06zm-.44.34v.05h-.05zm-9.71 1.6a4.31 4.31 0 00-.43.95c-.06.26-.13.53-.19.79-.05.2-.1.41-.14.62l-.06.34h.08c.07 0 .11 0 .15.1h-.25v.26h.1a.16.16 0 01.08.08s0 .07-.07.09h-.14c-.11.82-.24 1.64-.36 2.46h.77a.11.11 0 00.1 0c0-.11.11-.09.19-.06l.17.08h.16v-.23l.09-.82a.72.72 0 01-.27-.15H42v.06c0 .06 0 .11-.08.11a.21.21 0 00-.18 0h-.07a.21.21 0 00-.25-.09s-.11 0-.11-.1a.15.15 0 01.11-.16h.13l-.2-.1-.1-.07a.08.08 0 010-.13l.3-.12c.11.07.22 0 .32 0A.09.09 0 0142 46a.22.22 0 01-.11.18c-.09 0-.07.13 0 .16l.37.1v.1-.26a1.66 1.66 0 00-.24-.18c.09-.09.17-.16.28-.07l.09-.79h-.17l-.24.09s-.34-.07-.46-.2 0 0-.07-.09a.87.87 0 00.4-.05.29.29 0 01.34.06.31.31 0 00.26.11v-.34h-.29.17a.15.15 0 010-.14c0-.05.07-.05.1 0v-.76h-.1c-.14 0-.29 0-.41.09a.16.16 0 01-.12 0c-.08 0-.15-.07-.24 0s0-.07 0-.07a2.69 2.69 0 01.4 0 .6.6 0 00.34-.09l-.13-.15.19-.13h.05c.05 0 0 0 0 0a.33.33 0 01.06.1v.26c.08-.54.18-1.08.26-1.61a1.35 1.35 0 00-.13-.6c0-.09-.11-.15-.18-.1s-.19-.02-.31.19zm-.81 3.09h-.07zm.59 2.4zm.27.12zm-.32-.42a.11.11 0 01.13-.07.24.24 0 01.14 0v.08c0 .08 0 .06-.07.06a.26.26 0 01-.15 0c-.04-.07-.06-.07-.05-.07zm-.58 0h.19a.52.52 0 01-.18 0zm.84-1.41zm-.43 0v.11c0 .05 0 0-.06-.06zm.16-.88a.2.2 0 00.09-.25v-.17l.16.08a.09.09 0 010 .15c0 .07-.11.13-.08.23s-.06.07-.1.1a.1.1 0 01-.13 0s.01-.22.06-.24zm-.32-.73h.19a.11.11 0 010 .06zm.16.88zm0-.21a.05.05 0 01.05 0s-.03-.11-.04-.1zm1.06-2.73v.06h-.06v-.06s.06-.11.07-.1zm-.26.35l.17-.12a.23.23 0 01.18 0 .17.17 0 01.06.11.13.13 0 01-.09.07 3 3 0 01-.32-.06zm-.44.94zm.29 0h-.06zm-.06.22zM42.2 43h-.05a.12.12 0 01-.08-.12s.06.08.09.11.06.01.04.01zM23.39 12.19a1.29 1.29 0 00-.7.73l-.18.37h.07a.13.13 0 01.05.17h-.07l-.11-.09c-.24.52-.48 1-.73 1.56a6.94 6.94 0 01-.38.71 17.46 17.46 0 00-.89 1.72v.12a1.09 1.09 0 00-.11.59v.33c0 .1.19.15.31 0s.31-.47.52-.67a4.12 4.12 0 00.28-.31c-.06 0-.1 0-.14-.07s0-.09.06-.08h.2a2.92 2.92 0 00.24-.37l.12-.18h-.15c-.05-.06 0-.12 0-.17a.1.1 0 01.12-.07c.07 0 .11 0 .11.08l.3-.47c-.05 0-.1 0-.08-.1s0-.05.06-.07.09.06.08.11c.27-.43.54-.86.8-1.29a10.65 10.65 0 001.05-2c.11-.3.07-.5-.19-.64a.68.68 0 00-.64.09zM21 17.56a.08.08 0 01-.11 0v-.09h.08c.03 0 .12 0 .12.09s-.09-.01-.09 0zm.9-1.56a.09.09 0 010-.05V16zm.35-.37c.05 0 0 0 0 0zm.25-1.23h.06zm.55-.74zm.09 1.18h-.05zm0-.53a.11.11 0 01-.08 0v-.07c0-.02 0 0 .08 0h.08zm.3 0zm.1-.65a.09.09 0 01-.05 0c-.07 0-.07-.05-.08-.1s.13-.02.12.07zm.34-.28zm25.66 27.29a.36.36 0 000 .27.84.84 0 00.22.4.94.94 0 00.7.3c.31 0 .51-.07.6-.25a.49.49 0 01-.21-.24v-.08H51l.16.15a1.07 1.07 0 000-.35.86.86 0 00-.37-.53h-.21.06a.71.71 0 00-.35-.07h.09a.14.14 0 010 .11h-.07a.42.42 0 01-.15 0 .08.08 0 010-.08 1.14 1.14 0 00-.26.09l-.06.07a.6.6 0 00-.3.21zm.05.07v-.05a.17.17 0 010 .05zm1.21.75h.05v.06zm-1-.82h.22l.08-.19c.17.07.22.26.37.35a.47.47 0 01.12-.07c.07 0 .09 0 .11.08s0 .08-.05.09-.31.07-.45 0a.11.11 0 00-.12 0c-.16.14-.28 0-.44 0zM14.63 17.89h.16c.17 0 .26-.14.34-.38s.12-.41.21-.61h-.11v-.05a.09.09 0 010-.05c.13 0 .15-.07.15-.18s.05-.11.12-.07c.13-.24.24-.48.35-.73a24.13 24.13 0 00-1.75 2 .78.78 0 00.53.07zm.77 4.78a1.3 1.3 0 00-.23-.18 3.49 3.49 0 01-.76-.63c-.33-.35-.67-.71-1-1a.6.6 0 00-.83 0 .59.59 0 00-.16.69 1.36 1.36 0 00.21.37c.45.57.92 1.13 1.37 1.69a.79.79 0 00.6.28 1.1 1.1 0 00.83-.34.52.52 0 00-.03-.88zm-2.4-.83s-.06 0-.09-.06 0-.08.07-.08.06 0 .11.06-.03.08-.09.08zm.19-.33h-.05c-.06-.09-.18-.05-.24-.12.05 0 .11-.06.14-.05a.43.43 0 01.17.13s.03.02.02.04zm.33 1.24h-.05.05zm.19-1c0 .16-.09.17-.22.06a.23.23 0 00-.17-.05s-.09 0-.09-.05.08-.15.11-.12a.27.27 0 00.34 0s.08.17.07.2zm1 1.54h-.35v-.08h.15s.07-.06.1-.05a.42.42 0 01.12.08s.06.09.05.09zm1.54-1.97a.3.3 0 01.1-.26l.06.08a.59.59 0 00.12-.39.54.54 0 00-.44-.5 1.69 1.69 0 01-.31-.13h-.38V20h.08l-.17-.12-.62-.5a.39.39 0 00-.48-.06c-.19.12-.33.26-.27.49a1.13 1.13 0 00.3.79c.2.26.46.48.66.73a1 1 0 001.22.1zm-1.54-1.19a.26.26 0 00-.29.09.08.08 0 01-.08 0 .21.21 0 01-.13-.07v-.18h.4c.14 0 .16 0 .25-.18 0 .14 0 .14.15.21a.38.38 0 01-.3.13zm1 1h-.06v-.05a1.31 1.31 0 01.12-.11c.04.09 0 .13-.06.16zm.63-.42a.09.09 0 01.05.08c0 .1-.08.17-.21.17s-.05-.05-.05-.08a.15.15 0 01.21-.17zm.66-5.63v.33a.55.55 0 00.32.4c.16.07.24-.12.33-.21a3.65 3.65 0 00.36-.44l.42-.56v-.15h.1l.19-.26c.44-.6.89-1.19 1.29-1.82a22.91 22.91 0 00-2.91 2.17.94.94 0 00-.1.54zm1.46-1.39h-.05zm21.41 38.87H40l.86-.34c-.28-.3-.55-.61-.82-.91h-.07c-.07 0 0 0 0-.06l-.8-.9c-.43-.48-.84-1-1.27-1.44h-.06v-.07c-.25-.28-.51-.57-.78-.85a.73.73 0 00-.63-.26.78.78 0 00-.23.07.09.09 0 010 .05.2.2 0 01-.08.12.14.14 0 01-.15 0 .84.84 0 00-.23.81.32.32 0 01.1.19 2.88 2.88 0 00.28.33h.05a1.45 1.45 0 01.3 0c.06 0 .13.06.11.08a.18.18 0 01-.12.08.58.58 0 01-.19 0c1 1.11 2 2.26 3.09 3.35zm.13-1.15s.07 0 .09.07l.09.17v.06c0 .06 0 0 0 0h-.11a.85.85 0 01-.1-.19.09.09 0 01.03-.11zm-.16.41zm-2.79-3.68h.08v.06a.09.09 0 01-.11.08v-.07a.1.1 0 01.03-.07zm-.53-.31h-.15c0-.08.05-.1.09-.14h.08v.08c0 .03 0 .06-.02.06zm.22 1.59zm0-.58h-.06a.06.06 0 010-.06.88.88 0 01.15-.12h.15a1.15 1.15 0 01.14.08.1.1 0 010 .14s-.15.06-.17 0-.13-.09-.21 0 .03-.04.03-.04zm.41.18zm-.31.1s-.06-.06-.06-.08 0 0 .06 0 .06 0 .06.06-.01-.01-.03.02zm.36.67zm-.1-.39h-.18a.41.41 0 01.24 0l.41.07a.58.58 0 01-.44-.07zm1 .35h.05s-.03-.02-.03 0zm.65 1.4c-.12 0-.25 0-.35-.06s-.08-.05-.08-.08 0 0 .09 0h.25a.17.17 0 01.14.1s.01.04-.03.04zM43.81 45a.1.1 0 00.08 0 .13.13 0 000-.12c0-.08-.08-.16-.12-.24v.08a2.61 2.61 0 000 .28h.04zm-8.01 8.31l.32.28 1-.21a.4.4 0 00-.24 0h-.07c-.01 0 0-.08.06-.08h.82l-.46-.42c-1-.9-2-1.8-3-2.78-.05 0-.14-.06-.11-.08s0 0 .06 0l-.27-.28c-.33-.35-.64-.71-1-1a2.38 2.38 0 01-.35-.5c-.11-.1-.15-.27-.31-.32v-.05a.35.35 0 00-.54-.05.67.67 0 01-.14.11h-.05a1.15 1.15 0 00-.23.7c0 .05 0 .13.11.15a1.72 1.72 0 00.07.21 1.49 1.49 0 00.18.3c.09-.11.18 0 .27 0a.51.51 0 00.22 0h.34c.06 0 .07.06.07.12.08 0 .16-.08.25 0s0 0 .06 0a.53.53 0 01.06-.1h.13a1.61 1.61 0 010 .22c-.07.06-.13 0-.2 0a.41.41 0 01-.19 0s-.07-.06-.11-.09a.78.78 0 01-.21 0 .65.65 0 00-.34 0 .1.1 0 01-.09 0 .25.25 0 00-.17-.07l.15.17.31.31.11.06.1.07.52.52c.94.93 1.9 1.82 2.87 2.71zm1.36-.26zm-.45-.2zm-.27.43s.05 0 .06.06 0 .11-.09.12a.12.12 0 01-.08 0 .83.83 0 01-.09-.15zm-4.63-4.15h-.09a.18.18 0 010-.06.18.18 0 01.07.05s.03.01.02.01zm.19-1.32a.1.1 0 010-.05zm.2.46zm.33.2zm.47 1.82s-.08 0-.08-.06a.1.1 0 010-.07c.06 0 .07 0 .08.08s0 .05 0 .05zm.23-.34h.05zm.43-.13s0-.07.09 0 0 0 0 .08zm.23.76zm.13-.75zm.36 1.17zm.78.08a.36.36 0 010-.1v.12zm-5.96-8.71c-.14-.12-.31 0-.45 0-.07.11-.15.08-.24 0s-.06 0-.09 0a.12.12 0 00-.1.09c0 .1-.08.11-.13 0a.32.32 0 00-.34-.11h-.06l-.5.82a6 6 0 00-.6 1.18.79.79 0 00.33.93h.05a.79.79 0 00.38.09A.5.5 0 0028 45a5.57 5.57 0 01.52-1.17 15 15 0 00.72-1.45zm-2.15 2.56v-.06h.08s-.06.07-.08.06zm.3 0zm.95-1.29h-.05l-.05-.06h.05l.05.02zm.28-.81s-.06.05-.14.1v-.33a.14.14 0 01.1-.06s.06 0 .09.06-.02.12-.05.19zm.5 10.95zm2.25.02a.39.39 0 01-.11.06.24.24 0 010-.17.46.46 0 00-.07-.07.5.5 0 00-.62-.08l.08.11h-.22a.67.67 0 00-.24.29l1.27.07a.56.56 0 00-.09-.21zm-.56-.09v-.06.05a.13.13 0 000 .06v-.05zm-3.19-.34a.44.44 0 00-.1.15l1.24.22h.4a.82.82 0 00-.82-.74.88.88 0 00-.72.37zm.86-.26a.08.08 0 010-.05s-.01.04 0 .05zm.17.17a.81.81 0 01-.43 0zM31.24 21c.66-.06 1.34 0 2-.05.74 0 1.48-.06 2.22 0 1.17 0 2.34.13 3.52.12h.71a1.09 1.09 0 00.47-.06.55.55 0 00.25-.2v-.05a.35.35 0 000-.14.79.79 0 00-.76-.82h-2.28c-.9 0-1.81-.06-2.71-.07a13.8 13.8 0 01-3.68-.29.72.72 0 00-.85.73.89.89 0 001.11.83zm6.48-1h.05a.09.09 0 01-.05 0zm-.37.54c0 .13.06.2.07.28s0 0-.05.07h-.06s.01-.25.04-.39zm-1.33 0v-.05c0-.05-.02.05-.02.04zm-1.16 0a.49.49 0 01.21.19.18.18 0 00-.22 0zm-.33-.78zm-.34.81zm.06-.46a.24.24 0 01.06.08c0 .05 0 .1-.09.1s-.08 0-.08-.07.04-.15.11-.16zm-.83.24a.39.39 0 01.14.05 1 1 0 01-.15.09s-.07 0-.07-.08a.06.06 0 01.08-.11zm-.65.06zm-.16.51l.1.06v.05h-.15c-.01 0 .03-.13.05-.16zm-.37-.92h-.05zm-.06.65h.14-.14zm-.52-.06v.05c0 .05 0 .1-.07.09a.1.1 0 010-.07c-.01-.03.02-.06.07-.05zm-.77.34v-.07l.07.06zm.15-.07zm-.18-.33a.26.26 0 000-.27l.05-.05.26.2c-.12.05-.18.16-.26.26a.06.06 0 01-.06 0 .05.05 0 010-.05.25.25 0 01.01-.07zm13.2 24.3a.06.06 0 000 .06c.1.09.19.18.33.09s0 0 .09 0a1.77 1.77 0 010-.23.13.13 0 01-.09 0h-.29l-.04.08zm.16-.19l-.1-.06h.07zm-.87.64v.1a1.07 1.07 0 00.19.5.23.23 0 00.22-.06.11.11 0 01.08 0 .57.57 0 00.45.09.86.86 0 00.18-.7.28.28 0 000-.09h-.07a.69.69 0 00-.37.06h-.35a1.43 1.43 0 01-.33.1zm.8.28zm-.22 0zm-.13 0zm-.14 0zM36.83 11a1.41 1.41 0 00.15.69v.05a1 1 0 00.14.15c.27.25.47.27.63 0a.17.17 0 00-.1.07h-.09a1.3 1.3 0 000-.13.15.15 0 01.17-.17h.06a.19.19 0 00.05.11v-.06c.26-.59.55-1.17.86-1.74-.43-.13-.87-.25-1.31-.36l-.24.41a1.81 1.81 0 00-.32.98zm1.49-1zm-3.39 43.36a3.64 3.64 0 00-.42-.46.47.47 0 00-.78.17.86.86 0 000 .78c.51 0 1-.09 1.51-.16zm-.6-.26h-.03zm-.35.71zm.37-.41h-.23c.08-.05.16-.12.25-.07a.24.24 0 01.06.08zM45.4 14.17a3.63 3.63 0 01.1.66v.13c0 1.2.07 2.4.11 3.59s0 2.58 0 3.87l.14-.1c0 .07.07.15.11.24a.7.7 0 01-.22.07.53.53 0 00.47.48.84.84 0 00.91-.45.81.81 0 000-.38 5.07 5.07 0 01-.14-.95.23.23 0 00-.12 0 .74.74 0 01-.21 0s.13-.14.24-.13a.29.29 0 01.1 0v-.23c0-.31 0-.63-.06-.94s0-.55 0-.83V19s-.1.09-.16.1-.08.17-.18.14a.63.63 0 01-.2-.13.13.13 0 01-.06-.07c0-.06 0-.14-.07-.21s.08 0 .12 0h.19c.05 0 .09 0 .14.05s.07 0 .06 0a.36.36 0 010-.15.17.17 0 01.15-.11v-.46h-.22s0-.14.14-.14v-3.55c-.33-.29-.68-.57-1-.83a.55.55 0 00-.34.53zm1.32 7.49l.08.09s0 .05-.06.05a.11.11 0 01-.07-.06zm-.25.05h.05zm.09-5h.06zm0-1.88v.05-.06zm-.8 6.9l-.05-.06h.07zm0-1s-.12 0-.14-.12a.88.88 0 01-.05-.15c0-.05 0-.08.07-.08h.12l.06.05c.06.05 0 .11 0 .15s.06.13-.01.17zm-.07-4.34h-.05.05zm0-1.09zm.51 7.53zm0-1.15h-.08v-.05zm-.14-2.61l.09.14h-.3c-.09 0-.09-.06-.09-.12s0 0-.06 0l.09.07a.08.08 0 00.08 0 .31.31 0 00.07-.09zm.11-1.8a.15.15 0 01-.19 0 .2.2 0 01.12-.2.15.15 0 01.08.22zm.15.82v-.05l.09-.11c-.01.07.01.13-.08.18zm-.06-3zm.13 1.54v.1a.45.45 0 00-.34.09.76.76 0 01-.2.06c-.06-.07 0-.11 0-.15a.82.82 0 010-.14l.41-.06a.16.16 0 01.14.13zm-.55-2.75v.28l-.22.09c0-.11 0-.22.08-.33a.07.07 0 01.15-.01zm-.19-.24h.06-.1a.22.22 0 01.05.03zm2.95 31.6h-.85v.43c-.07.69-.12 1.37-.15 2q.68-.64 1.29-1.35v-.3a.18.18 0 010-.07v-.77a1.69 1.69 0 01-.29.06zm-.22.32v.05a.11.11 0 010-.05zm-.32 1.12zm-.17-.51a.06.06 0 01-.06 0v-.06L48 46a.44.44 0 00.06-.1.74.74 0 01-.21 0s-.06 0-.08-.08l.15.09H48l.07.2zm.43-.2h.08c.08 0 .16.13.16.19a.23.23 0 01-.21-.11.11.11 0 01-.03-.05zm.2.38l-.18-.08a.77.77 0 01.18 0h.07c.07 0-.05.08-.07.08zm-5.64-33.88l.14-.22.18-.31c-.44-.25-.88-.48-1.34-.7v.06a1.33 1.33 0 00-.09 1.18.55.55 0 00.36.38l.11-.15s.24 0 .36.09l.12-.11.08-.1h-.07a.36.36 0 00-.07-.1c0-.05-.11-.11-.07-.16a.39.39 0 01.19-.1c.05 0 .13.06.12.11a.83.83 0 01-.02.13zM42 12v-.06a.47.47 0 01.06-.09l.07.06c-.03.09-.06.09-.13.09zm.55-.23v.2a.39.39 0 01-.29.09l-.07-.05a.2.2 0 01.06-.07c.15.05.21 0 .26-.15zm1.81 37.64v-1.14a.83.83 0 00-.08-.36.19.19 0 01-.3 0 .17.17 0 010-.28.39.39 0 00-.48.05c.07 0 .16 0 .16.06a.49.49 0 01-.09.42h-.06l-.06-.06v-.06a.16.16 0 00-.13-.18.85.85 0 00-.16.39c0 .35-.11.71-.16 1.06a.25.25 0 01.17.11 1 1 0 01-.16 0 14.13 14.13 0 00-.1 1.45.18.18 0 010 .2v.07c.36-.2.71-.41 1-.62a.17.17 0 010-.1.2.2 0 01.2 0l.16-.1v-.87zm-.75-.78zm-.23 1zm-.16-.46zm0 .78l.13.07a.39.39 0 01-.14.05s-.05 0-.05-.06 0-.01.02-.01zm.31.77c-.05 0-.07-.13-.17-.11a.25.25 0 01-.12 0 .12.12 0 01-.08-.15l.1-.13.23.1a.33.33 0 01.13.13c0 .09-.07.14-.13.19zm.09-1.29a.14.14 0 01-.06-.07s0-.07.07-.07a.1.1 0 01.12.07s-.08.1-.17.1zm.59-.64h-.14l-.07.05v-.06a.14.14 0 010-.06h.13s.05.1.04.1zm-.72-4a.23.23 0 01-.19 0V45c0 .07.13 0 .19 0s.14-.05.12-.14-.07-.1-.12-.07zm-5.35-32.01v.14a.37.37 0 010 .15c0 .09 0 .14.05.2a.46.46 0 01-.07.07h-.15c-.01 0-.1-.19-.21-.19-.4.48-.81 1-1.24 1.41a.73.73 0 00-.23.44.77.77 0 00.47.81c.27.12.4.07.66-.28s.65-.82 1-1.23c.15-.19.3-.39.46-.58a.07.07 0 01-.06 0c0-.05 0-.11.08-.1a.08.08 0 010 .06q.3-.37.57-.75h-.09v-.12a.07.07 0 01.13 0l.44-.6 1-1.37c-.35-.15-.7-.3-1.06-.43-.59.81-1.19 1.61-1.82 2.39zm-1.23 2.52s-.07 0-.07-.08.08.03.07.08zm0-.21a.15.15 0 01-.07 0h.08a.14.14 0 01-.01 0zm.6-.72l.07-.07zm.06-.31zm.21-.2l-.05.05-.09-.08a.19.19 0 010-.25c.08 0 .1.05.14.09s.11.1 0 .19zm.36.19zm2.24-3.21l.06.05-.06-.06zm-.15.35v.05s-.01-.04 0-.05zm0-.29zm-.37.64zm-.57.48l.07.05a.43.43 0 000-.05v.05s-.11 0-.07-.05zm0 .3zm-.44.38zm-.15.19h-.08zm-.25-.49zm-4.33 6.06c.51 0 1 .08 1.61.09a7.85 7.85 0 001.07-.06c.49 0 1-.12 1.49-.13a.46.46 0 00.34-.14v-.13a.66.66 0 000-.32 1.53 1.53 0 00-.07-.29 1.21 1.21 0 00-.24-.39h-.09V17a.91.91 0 00-.7-.15v.08s0 .07-.05 0a.3.3 0 00-.22-.08l-1 .14c-.6.09-1.2.07-1.8.17a1 1 0 00-.49.24 1 1 0 01.08.11l-.19.17h.56c.19 0 .07 0 .07.09a.28.28 0 010 .13s-.06.07-.09.07a.39.39 0 01-.36-.21.16.16 0 00-.17-.11l-.05-.12a1.47 1.47 0 00-.1.13.45.45 0 00.4.8zM38.7 18zm-.21-.65h.06-.09zm-.06.43a.92.92 0 01.24-.17c0 .14-.07.22-.18.25a.07.07 0 01-.06 0s-.01-.09 0-.09zm-.2.08l.07.05v.05l-.08-.06zm-.11.21h.09l-.14.11h-.06a.08.08 0 010-.14h.09zm-.12-.64zm.06-.41v.15h-.07a.17.17 0 010-.05zm-.16-.09h.1-.06zm-.09.37zm0 .79zm-.12-.18h-.05zm-.29-.39l.16.1a1.32 1.32 0 01-.12.2.25.25 0 01-.09.07v-.31c0-.1-.01-.08.03-.06zm-.25.5c.06.11.16.05.25.06a.24.24 0 01-.33 0s.06-.03.06-.08zm-.23.09h.05zm-.76-.11h.22-.08s0 .05-.06 0c0 .09 0 .1-.06.08s-.07 0-.07 0 .03-.08.05-.08zm-.66-.3zm-.49.68l-.06.05a.17.17 0 010-.05s.05-.02.05-.03zm-5.24 21.78a.56.56 0 00.22.68l.07-.05s.07-.07.11 0a.14.14 0 010 .09c0 .06 0 0-.08.06l.71.6.08.07c.21.18.42.36.61.55s0 0 0-.06l.18.16s-.07.06-.1.06l1.52 1.53.12.12L35 45.72a1.61 1.61 0 00.29.24.31.31 0 00.12 0c.11-.13.21-.06.31 0 .28-.06.56-.28.56-.54a1.07 1.07 0 00-.19-.69.28.28 0 01-.15 0 .13.13 0 01.08 0l-1-1a.2.2 0 000 .11v.05c0 .05 0 0 0 0a1.08 1.08 0 01-.07-.31l-.07-.06-1.26-1.22h-.1v-.06c-.39-.38-.77-.77-1.15-1.16h-.09s-.05-.06-.07-.09h.07l-.32-.33-.19-.19a2.43 2.43 0 00-.38 0c-.09 0-.15.14-.25.06s-.05 0-.07.07a.31.31 0 01-.07.09.13.13 0 01-.09 0 1.7 1.7 0 010-.22c0-.12.06-.14.18-.16s.35.07.53 0a1.73 1.73 0 01-.36-.48.51.51 0 00-.46-.24 1.06 1.06 0 00-1.03.57zm5.68 4.44a.19.19 0 010-.08h-.09zm-2.53-1.17l-.05-.06h.08zm1.36-.35zm-.18.37s.08 0 .07.08h-.05l-.12-.05zm-.3-.05a.05.05 0 01.05.08.27.27 0 01-.07-.08zm-.06.45a.11.11 0 01.14-.05c.07 0 .1-.11.18-.07s.1 0 .15-.08.1 0 .13 0 0 0 0 .05.13 0 .13.12a.61.61 0 01-.07.24.9.9 0 01-.15.19c-.19 0-.16-.19-.22-.33h-.18c-.04.02-.12-.04-.11-.07zm-.24-1.09zm0 .58s.1 0 .11.08 0 .09-.05.13l-.06-.14s-.06-.09-.02-.07zm-.15-.69v.05c0 .05 0 0 0 0zm-.13.64a.2.2 0 01.09.06.07.07 0 01-.07.08s-.07 0-.08-.07 0 0 0-.06a.15.15 0 01.04-.01zm-.22-.74h.14l-.08.05a.07.07 0 01-.06 0v-.05zm-.17-.8zm-.11.35l.17-.09.09.13a.39.39 0 00-.08.1.1.1 0 01-.13.05s-.12 0-.13-.07.06-.1.11-.12zm-.14-.49zm-.08 1.13a.86.86 0 01.16 0l.28.07v.09c0 .02-.09.09-.16 0a.53.53 0 010 .12h-.06a.49.49 0 01-.13-.28zm-.85-.81zm-1.14-1a.58.58 0 01.3.13h-.05a.44.44 0 01-.31-.2zm-.35-.64a.09.09 0 01.14.05h-.14zm-7.05-16.58a.41.41 0 00-.42.32.5.5 0 00.32.53 3.39 3.39 0 00.45.15l.46.14v-.13l.1.09a.1.1 0 01.05.08c1.17.33 2.35.58 3.54.8a20.8 20.8 0 002.34.4h.43a.5.5 0 00.52-.56 1 1 0 00-.95-1 11.51 11.51 0 01-1.18-.13h-.05l-.72-.1a31.11 31.11 0 00-4-.67c-.34-.01-.61.07-.89.08zm7.25 1.62zm-.08.12s-.03.01 0 0zm-.83.38h.05-.05zm-.45-.89zm-.93.13zm-.39-.07h.08l-.05.07s-.05 0-.06-.06.02-.01.03-.01zm-.36.27zm-.23-.39zm.2.69h.16-.16l-.23-.08c.15-.05.15-.05.23.07zm-.41-1.34l.07.06h-.07c-.07 0 0 0 0 0s-.01-.04 0-.07zm-.32.44v.05zm0 .16c.05 0 .07 0 .07.07a.11.11 0 010 .05v-.06s-.12-.07-.11-.07zm-.42-.2a.08.08 0 01.08 0l.11.1a.09.09 0 010 .06.12.12 0 01-.16-.05s-.09-.11-.07-.12zm-.36.64zm-.47-1.09zm0 .48l.07.11c0 .06.06.12 0 .17s-.11 0-.18 0zM28 42.24c.16 0 .21-.07.22-.24a.25.25 0 010-.12.11.11 0 01.08 0l.05.05a.76.76 0 010 .11.13.13 0 000 .12.09.09 0 00.12.07l.14-.07a.12.12 0 01.17 0 .1.1 0 00.12 0 .9.9 0 01.37.06v.05a.54.54 0 00-.14-.57.81.81 0 00-.56-.21c-.18 0-.24.14-.32.25s-.24.32-.35.48zm1.17-.41v.05-.05zm-.32 0h.09v.06h-.08s-.07-.03-.06-.03zm-.19-.34zm-.81-25.2c0 .23.07.47.1.7a16.83 16.83 0 01.05 2.4.28.28 0 01.13 0c0 .09-.06.16-.14.18v.33c0 .23 0 .47.05.7l.09 1.45a.58.58 0 00.2.46 1.05 1.05 0 00.85.23.82.82 0 00.25-.08.13.13 0 010-.07.11.11 0 01.14 0 .57.57 0 00.07-.65c0-.09-.08-.18-.11-.27a.11.11 0 01-.09.05v-.06c0-.07 0-.14.09-.13s0-.08 0-.13v-.57h-.07.06v.05a5.44 5.44 0 010-.57v-.78l-.08.09s-.05 0-.06-.06a.07.07 0 01.07-.08l.07.05V18.4h-.09v-.08h.07c0-.24 0-.49-.05-.73a7.31 7.31 0 00-.45-1.84c-.12-.36-.46-.4-.78-.35a.53.53 0 00-.47.66l.09.05c.07.06.07.11.01.18zM29.63 22zm-.38-1zm-1.1-1.81zm.05-.24zm.09 1.87l-.06-.09a.1.1 0 01.06-.05l.06.05zm.08-.22zm0-1.14h-.06zm0-.24zm.3-.59a.09.09 0 01.08-.04zm.16.91zm0-1.22v-.05s.11-.01.1.01zm.22 4.41zm0-1.86s0 .11-.06.11-.06 0-.08-.05 0-.12.09-.11a.06.06 0 01.16.01zm-.1-4.73zm-.41.94h.24c.08 0 .07.06.07.11h.09s.07 0 .07.05v.07a.13.13 0 01-.11 0v-.11h-.06a.15.15 0 00-.23 0 .08.08 0 01-.07 0s.07-.15.11-.2zm-.06 1.75s-.06.05-.08 0 0 0-.05-.06 0 0 .06 0 .15-.01.18.02zm-.06-.71s-.05.06-.07.06h-.06c-.06 0 0-.05.05-.06zm-.38-1.76h-.05zM28 17s0-.08.08-.08h.08c.01 0 .08.1.16.06s.06 0 .08 0a.11.11 0 010 .08c-.05.15-.23.08-.29.19s-.06 0-.06-.05A.41.41 0 0128 17zm13.73 31.37a.59.59 0 01.13 0c.09.06.17.14.29.12 0-.23.05-.46.07-.69s-.07 0-.1-.05-.16.09-.23.14a.11.11 0 000 .06.81.81 0 01-.11.43z" fill="#281e53"/><path d="M40.93 51a.92.92 0 001.16-.85v-1.12l-.2.1q-.16.08-.24-.12v-.05c0-.09 0-.13.1-.16s.16-.06.11-.18-.08-.18-.12-.27a.56.56 0 01-.26-.47.15.15 0 00-.23-.11c-.06 0-.1.07-.16 0s0 0-.06 0a.29.29 0 01-.22 0c0 .25-.07.5-.1.74h.16s.21.16.32.23.12 0 .13.08-.08.08-.14.1a.37.37 0 00-.16.09c-.06.1 0 .17.07.18a.81.81 0 00.22 0 .77.77 0 01.37 0h-.06a.79.79 0 00-.43 0h-.61l-.09.14c0 .25 0 .51-.07.76a.58.58 0 00.51.91zm.39-2.82v-.05zm.4 1.54h.05v.15h-.06v-.15zm-.28.49zm-.17-.21l.07-.08a.33.33 0 010 .12s0 .05-.06.05-.01 0-.01-.09zm-.15 0zm-.26.53l.24-.06c.1 0 .17.09.27.06a1.09 1.09 0 01.25 0h.06s.05.09 0 .11a.34.34 0 01-.29.08c-.13 0-.26-.1-.4 0l-.17-.08a.11.11 0 01.04-.14zm-8.6-39.4a18.2 18.2 0 01-1.26 1.5c-.39.37-.75.77-1.12 1.15a.62.62 0 00.26 1.05.71.71 0 00.85-.19l.48-.49h-.05s-.1 0-.09-.06 0-.2 0-.33a.68.68 0 00.42 0l.12-.13a.29.29 0 00-.16 0c-.06 0-.11 0-.1-.08a.07.07 0 01.09-.06c.09 0 .14 0 .15-.09s0-.07.07-.09a.1.1 0 01.14 0v.06c.2-.22.4-.46.58-.7.51-.71 1-1.39 1.58-2.08a1 1 0 00.25-.6.42.42 0 00-.26-.41.84.84 0 00-.93.13 12 12 0 00-1.02 1.42zm-1.9 3.26zm.34-.14h-.2a.09.09 0 01-.06-.12s.1-.09.13-.06a1.07 1.07 0 01.16.14l-.03.04zm1.75-3.07l-.05-.07c-.05-.07.06 0 .07 0a.85.85 0 01.17.06v.06a.55.55 0 01-.19-.05zm.35.64a3.54 3.54 0 01-.16-.34v-.05h.06a.38.38 0 01.32.16c0 .09-.07.18-.11.26s-.1 0-.11-.03zm.17.33v-.05c0-.05 0 0 .06-.07s.05.06.05.08-.08.05-.08.04zm.16-.9zm-2.61 5.87h-.05.07-.02zm4-4.93c-.47.49-.91 1-1.34 1.53a.37.37 0 010 .11.18.18 0 01-.1.07c-.25.31-.51.61-.77.91-.61.7-1.13 1.49-1.79 2.15a.52.52 0 01.35.2c-.25.09-.25.09-.39 0h-.1a.94.94 0 01-.1.1c-.29.26-.28.48 0 .79l.19.21a.22.22 0 00.21-.14c0-.05.08 0 .11 0s.08.15 0 .28l-.06.07H31v-.1c0-.02.13-.06.2-.05s.09.06.15.1c-.13 0-.26-.05-.35.05h-.36a.73.73 0 00.9-.19 11.1 11.1 0 00.88-1.07c-.11 0-.19 0-.23-.08a.11.11 0 010-.08 1 1 0 01.25.05.2.2 0 00.13 0l.1-.14a29 29 0 012.33-3.1l.4-.45c.2-.22.41-.45.62-.66a.71.71 0 00.19-.45.44.44 0 00-.13-.36l-.05-.05c-.05-.05 0 .1 0 .2s-.08 0-.12-.07l-.14-.07a.39.39 0 01.18-.18.72.72 0 00-.47-.11s-.06.09-.09.07h-.06l-.23.09a2.32 2.32 0 00-.58.37zM31 17.3a.14.14 0 010 .06v-.05zm0 .79v-.08c0-.02 0 0 .05 0a.11.11 0 010 .05zm.22-.49h-.16a.37.37 0 010 .11.09.09 0 01.06-.11c.05-.11.08-.13.13-.08s-.06.04-.09.08zm.35-.54l-.36.1s-.05 0-.05-.07v-.08a.33.33 0 01.13-.07.36.36 0 00.17-.07c.06-.07.09-.05.14 0a.1.1 0 01-.09.19zm.1 1a.17.17 0 000-.05zm.17-.44zm.43-.94zm.15-1.74zm3-3.08zM33.61 14s0 .12-.08.11-.05-.08-.06-.13 0-.06 0-.11v-.06a.23.23 0 01.1-.07s.08 0 .08.08zm1 0c-.07.21-.08.22-.28.12 0 0-.06 0-.05-.08s0-.1 0-.16l.42-.07c-.11.03-.12.08-.14.19zm.41-.82zm0 .23zm.25-.42v.05h-.05l-.16-.07zm-.27-.72h.07c.07 0 0 0 0 .05a.43.43 0 01-.12.37h-.05a.8.8 0 01-.26-.09.11.11 0 010-.16l.06-.11c.07.06.17.07.3-.06zm16.39 23.41z" fill="#281e53"/><rect x="6.5" y="6.47" width="45" height="45" rx="22.5" fill="#fffa0c"/><path d="M48.5 45.47h-1v-31a2 2 0 00-2-2h-5a2 2 0 00-2 2v31h-3v-20a2 2 0 00-2-2h-5a2 2 0 00-2 2v20h-3v-15a2 2 0 00-2-2h-5a2 2 0 00-2 2v15h-3v-10a2 2 0 00-2-2h-5a2 2 0 00-2 2v10h-1a1.5 1.5 0 000 3h47a1.5 1.5 0 000-3zm-40 0h-3v-9h3zm12 0h-3v-14h3zm12 0h-3v-19h3zm12 0h-3v-30h3z" fill="#28282a"/><path d="M7 28.47a1.86 1.86 0 00.33 0c17.82-4 31.49-14.2 35.89-22.65l.85 2.64a1.52 1.52 0 001.43 1.01 1.52 1.52 0 001.43-2L44.85 1A1.5 1.5 0 0043 .07l-6.5 2.08A1.5 1.5 0 1037.42 5l3.39-1.08C37.4 11 24.92 21.4 6.67 25.5a1.5 1.5 0 00.33 3z" fill="#28282a"/></g></g></svg>