<svg xmlns="http://www.w3.org/2000/svg" viewBox="0 0 51.5 51.47"><g data-name="Layer 2"><g data-name="Working Layer"><rect x="6.5" y="6.47" width="45" height="45" rx="22.5" fill="#fffa0c"/><path d="M48.5 45.47h-1v-31a2 2 0 00-2-2h-5a2 2 0 00-2 2v31h-3v-20a2 2 0 00-2-2h-5a2 2 0 00-2 2v20h-3v-15a2 2 0 00-2-2h-5a2 2 0 00-2 2v15h-3v-10a2 2 0 00-2-2h-5a2 2 0 00-2 2v10h-1a1.5 1.5 0 000 3h47a1.5 1.5 0 000-3zm-40 0h-3v-9h3zm12 0h-3v-14h3zm12 0h-3v-19h3zm12 0h-3v-30h3z" fill="#28282a"/><path d="M7 28.47a1.86 1.86 0 00.33 0c17.82-4 31.49-14.2 35.89-22.65l.85 2.64a1.52 1.52 0 001.43 1.01 1.52 1.52 0 001.43-2L44.85 1A1.5 1.5 0 0043 .07l-6.5 2.08A1.5 1.5 0 1037.42 5l3.39-1.08C37.4 11 24.92 21.4 6.67 25.5a1.5 1.5 0 00.33 3z" fill="#28282a"/></g></g></svg>