<svg xmlns="http://www.w3.org/2000/svg" viewBox="0 0 53 53.04"><g data-name="Layer 2"><g data-name="Working Layer"><path d="M16.06 23.14c0 .05 0 .06.06.06s-.02-.05-.06-.06zm14.61 18.37h.06v-.06zm-.14-.17c.06 0 .08 0 .1-.06h-.09z" fill="#281e53"/><path d="M30.34 51.94h-.06l-.09-.09h-.11a.08.08 0 01.08 0l-3.51-3.51h-.06c0-.05-.05-.05 0-.1L23 44.6l-.63-.63-2.66-2.67 1.05-1L24 43.49l3 3h.12-.06l6.25 6.26c.33 0 .66-.09 1-.15.06-.05.06-.05.12 0l.78-.15-.16-.16v-.11l-.05.08h-.06c-.05-.06-.05-.06 0-.13l-3.24-3.24a.05.05 0 01-.07 0h.06l-3.68-3.67h-.09c-.01 0 0 0 0 0l-5.95-6 1.05-1 7.32 7.32h.08c.01 0 0 0 0 .06l.47.47a.33.33 0 010-.17h.07l.09.09a1.22 1.22 0 010 .27l2.66 2.66 3.27 3.28c.56-.17 1.12-.35 1.66-.56L31 44h-.12l-.06.06.12-.13-1.35-1.35-.15-.13L28.05 41v.07V41l-4-4 1-1 5.4 5.4v-.1a.22.22 0 01.14 0l.09.08v.1a.07.07 0 01.06.1h-.06l.78.79c.08 0 .08 0 .08.08L33.07 44 40 50.93c.47-.22.93-.46 1.39-.72l-.69-.69-.37-.37-.57-.57L26.35 35l-.15-.15 1-1 1.7 1.71v.07l7.55 7.56v-.14h.19v.19l1.8 1.8 4.11 4.11a.25.25 0 010 .08l.15.14q.67-.44 1.32-.93l-15.7-15.75.14-.14h-.05l.11-.1h.05l.77-.77 2.7 2.7h.06l13.13 13.17c.4-.35.79-.71 1.17-1.09l.33-.34h-.08c-.08 0 0-.06 0-.07s0 0 .06 0a22.92 22.92 0 004-5.86l-4.17 4.31h.06a.08.08 0 01-.11 0l-1 1-1-1 1.65-1.65 3.07-3.07a.1.1 0 01.09 0l2.25-2.25.51-.51a22.34 22.34 0 00.57-2.48h-.06c.01 0 0 0 0 0v-.34l-.59.59-.75.75h.17l-.08.08h-.12v-.1l-8 8-1-1L53 31.71v-2.22l-.79.79v.13c0 .05 0-.05-.06-.07L50 32.45h-.09L45 37.44a.05.05 0 01-.05 0l-3.74 3.73-1-1 8.66-8.66v-.07c0-.07 0 0 0 0l1.5-1.44h.08l2.35-2.35c-.08-.64-.19-1.26-.32-1.87l-1.69 1.68v.05l-11.73 11.6-1.06-1 3.7-3.7h-.05l.13-.13L43 33.06V33a.11.11 0 010-.09v.1l.86-.87h-.06c-.06 0 .09-.05.13 0l.94-.93a1.06 1.06 0 00-.11-.09h.08a.17.17 0 01.08.06l6.24-6.24a.07.07 0 010-.12l.06.06L52 24c-.17-.55-.35-1.09-.56-1.62L40.72 33.17h.09v.17l-.06-.06h-.12L39 34.86v.1l-2.05 2-1.1-1.06 4.75-4.75 2.73-2.74 7.45-7.46c-.23-.48-.48-1-.74-1.42l-5.39 5.4-.39.4-2.61 2.61h.05-.11l-4.68 4.69-2.11 2.11-1.08-1.07 8.89-8.89.06-.05v-.09l.54-.54 6-6c-.29-.43-.58-.85-.89-1.26L46.34 19l-2.47 2.47-2.47 2.47a.09.09 0 010 .11l-.1-.05-8.5 8.5h.06v.06h-.13l-.11.11-1.08-1.07.83-.84-.07-.08v-.1l.12.12 15-15c-.33-.37-.67-.74-1-1.09a23 23 0 00-5.93-4.26l5.09 5.09-.42.42-.66.65-.94-1-.07-.1L40.94 13h-.11v-.06l-.06-.05L36.93 9a23.7 23.7 0 00-2.8-.64l1.2 1.21h.1l8 8-1.06 1.06-7.87-7.79-2.76-2.77h-2.19l2.84 2.85 1 1 .08-.07c.07 0 .09.06.14.1V12l-.06.06 7.53 7.53.12.12-1.06 1.06-6.04-6.04a.08.08 0 01-.1 0h.05L27.7 8.32h-.09l-.4.06h-.05c-.47.08-.93.16-1.38.26l6.64 6.65v-.05c0-.05 0 0 0 0h.06v.14l4.5 4.5h.08l.09.08h-.1l2 2h-.07l-1 1-4.19-4.26L24.06 9c-.56.16-1.11.35-1.65.56l3.79 3.79 1.31 1.31h.07l9.33 9.33-.44.44-.14.14-.44.44-3.36-3.36v-.12c0-.06 0 0 0 0l-9.2-9.2h-.07c-.01 0 0 0 0-.05L21 10.16l-.95.47v.11c0 .04-.07.07-.09.11l-.09-.09-.36.2L30.77 22.2l4 4-1 1-.22-.2-7.14-7.1-.06.06c-.05 0-.06-.06-.09-.08v-.13l-.26-.21a.07.07 0 01-.08 0L18.2 11.7q-.68.44-1.32.93l6.78 6.78h.05l.09.09h-.05l8.88 8.88-1 1-6.33-6.33V23l-6-6h-.07l-.81-.81-2.59-2.6-.37.33c-.26.24-.52.48-.78.74a23 23 0 00-3.45 4.44v.06l-.23.14c-.23.4-.45.81-.66 1.22l.78-.77 4.21-4.21a.15.15 0 010-.07v-.05l.09.09a.07.07 0 010 .09l1 1-.66.65v.05c0 .05-.05 0-.08 0l-2.85 2.86H13v.12c0 .06-.07-.06-.09-.12l-1.74 1.75h.05a.06.06 0 01-.1 0L9 24.05c-.1.35-.2.71-.29 1.07v.05a.27.27 0 01-.09 0c-.13.55-.25 1.11-.34 1.68l3.08-3.08 6.14-6.14 1.07 1.06-4.55 4.55-1.58 1.59L8 29.25v2.2l7-7 4.67-4.67 1.05 1.06-3.69 3.69v.06a.08.08 0 010 .07.07.07 0 010-.08l-4.82 4.83-4 4c.05.4.12.81.19 1.21h.06l.12.61 13.28-13.31 1.05 1-4.27 4.27h-.08L16 29.86h.07v.05a.06.06 0 010 .07.34.34 0 00-.07.02.08.08 0 010-.05l-3.62 3.62h-.05l-3 3h-.08l-.31.31v.11l.1-.1h.13v.08l-.07.07c0 .06-.09 0-.14 0l.12.38s.09.27.14.4 0 0 .05 0c.06.17.12.35.19.52l6.4-6.41 2.55-2.55-.08-.08h.08a.1.1 0 01.06.05l1.2-1.2 1.47-1.46-.06-.08h.12l2.8-2.54 1 1L20.17 30v.11h-.07l-1.23 1.23-.8.8H18l-.05.07-.57.57a.06.06 0 01-.1 0l-7.21 7.21c.23.51.48 1 .75 1.48l.77-.76 5.55-5.55 1.11-1.11h.05l7.78-7.78 1 1-.87.87h-.06c-.06 0 0 0 0 0l-6.75 6.91h-.05l-5.51 5.51h-.09l-2.16 2.16q.43.67.93 1.32L19.66 37l8.63-8.63 1 1-.28.29a.07.07 0 01-.1 0l-2.37 2.37L24.73 34v.06l-.15.14h-.1l-1.69 1.69-.87.87H22v.06c0 .05 0 .05-.11 0l-.27.26-1.71 1.71.07-.06h.09c.05 0 0 .09 0 .14s0 0-.05 0H20a.14.14 0 01-.16 0h-.05a.14.14 0 000-.09l-.62.62a.06.06 0 010 .1v-.07L17.79 41a.06.06 0 010 .07l-2.85 2.85-1.38 1.38c.35.4.72.8 1.1 1.17a21.57 21.57 0 003.25 2.7 21.41 21.41 0 002.62 1.54l-2.82-2.82h-.12l.06-.06-2.16-2.13h-.08c-.01 0 0 0 0 0l1.07-1.07 3.09 3.09h.06l2.64 2.65a.09.09 0 010 .1l.66.66 1 1a22.44 22.44 0 002.81.65l-7.45-7.45-.05.05v-.06l-1.77-1.77 1.07-1.07 5.12 5.12a.08.08 0 01.11 0v.07l.05.07h-.06L29.23 53h2.19l-1.07-1.08zm1.23-1zm1.28.34l-.08.09a.88.88 0 010-.23.11.11 0 010 .06h.05zm.63 1.35s.03.02 0 .03zm.05-.13s.02.04 0 .03zm.8-.41h.18l.06.06-.07-.06h-.11zm-.84-1.25s-.01.03 0 .03zm0 .3c.05 0 0 .06 0 .08l.06.07h-.22v-.06a.86.86 0 01.15-.06zm-.19 1.21s-.02.05-.01.03zm-.11-1.28v.12a.08.08 0 01-.01-.09zM33 51l.06.06v.12H33V51zm-.08 0s-.02 0 0 0zm-.05 0zm-.26-.52a.09.09 0 01.08 0h.07a.07.07 0 01.1 0v.13a.56.56 0 01-.22 0s-.02-.11-.03-.13zm-.1.88s-.01.02 0 0zm0-.17a.06.06 0 010-.1l-.02.1zM32.35 50h.11l-.09.09-.07-.09h.05zm-.5-.4s-.01.04 0 .02zm0 1.67s.01.02.02.02zm-.08-1.85s.01.04.02.02zm-.34.58h.13a.08.08 0 010 .1.33.33 0 01-.14 0zm-.05 0h.02zm-.15-1h.02zm-.3.9s.01.04.07.02zm-.06-1.62s.01.04.02.02zm-.13.9s.02.04.02.02zm0-1.16a.07.07 0 010 .12q-.08-.04-.01-.14zm-.44 1.34l-.01.02zm-.06-1.26l-.01.02zm-.95.1h.06c.05.06.05.06 0 .12h-.06c-.04-.03-.04-.03-.01-.1zm-.07.25zM28.67 46s-.01 0 0 0zm0 .18s-.01.04 0 .02zm-.6-.3s-.01.04 0 .02zm-.07 1.4a.27.27 0 00.09 0 .08.08 0 010 .12h-.07l-.02-.08v-.04zm-.54-2.16s0 .02.01 0zm-.6.67a.71.71 0 01.07-.09H27l-.14.15s-.02-.03.01-.06zm-.16-.26h.01zm-.09.32h-.13zm-.33-1.11a.07.07 0 010 .12q-.07-.06.01-.12zm-.24.07h.01zm-.42-.54h.01zm-.08.61s0 .02.01 0zm-.1-.85s0-.03.01-.03zm-.72-1.32s-.02.01.01 0zm-.24 1s-.02.03.01.02zm-1.16-2.09s0 .04.01.02zm-.12.72s0 .04.01.02zm-.08-1.3v.11c0 .05-.06 0-.07 0s.06-.07.08-.09zm-.38.44h-.06zm-.24-.35s0 .02.01.02zm-.24.48s0 .02.01.02zm-.12-1.74s-.02.03.01.02zm-.2.79s0 .04.06.02zm-.06.54s0 .04.01.02zm-.52-.5s0 .05-.06.07 0-.09 0-.13.05 0 .07 0 .01.07 0 .08zm.11-.78s.04.01.01.02zm0-.32s.04.01.03.02zm.31.48a.06.06 0 01-.1 0 .07.07 0 01.1 0zm15.4 11.06v.13l-.09-.09c.04-.03.08-.01.12-.02zm-.18-.9l.09.09-.07.05v.06c0 .06 0 0 0 0a1 1 0 01-.02-.2zm0 1.41zm0 .35a.06.06 0 010 .1s-.08-.1 0-.1zm-2.27-2.25s-.04-.03-.05-.04zM35.88 51s.03 0 0 0zm.25-.35s-.03.05 0 .04zM36 49.09a.08.08 0 01-.13 0 .09.09 0 01.13 0zm-.28 1.29l.09.09c0 .05 0 0-.09 0a.08.08 0 01-.02-.09zm-.25-1.78s-.03.02-.02 0zm.11 1.21h-.13a.09.09 0 01.11 0zm-.33-.26s-.05.01-.02 0zm-.44-1.31s-.03.02-.02 0zm0 .24s-.03.02-.02 0zm0-.12a.07.07 0 01-.1 0h.1zm-.22-.42h.08c0 .06 0 .08-.09.06s-.03 0-.03-.06zm-.12.08h-.08c-.06 0-.08-.07-.13-.1h.08c.02.02.04.08.09.08zm-.25-.42s-.06.02-.04 0zm0 0l-.09.04zM34 47zm-.26.19s.02.05.03.03zm-.06.6s.02.05.03.03zm0-1s-.04.01-.01 0zm0 .42s-.04.01-.01 0zM31 44.72c-.05 0 0 .11-.07.15l-.09-.09c0-.05.06-.06.08-.1H31s.06.04 0 .04zm.63 1.33s.06.01.04 0zm0-.14s.09-.01.08 0zm.11 0h-.1c0-.06 0-.07.09-.05zm1.66 2.3zm-.2-1.3a.08.08 0 01-.13 0 .09.09 0 01.21-.04zm-.34.87h.09l-.09.08a.08.08 0 01.08-.12zm-.12-.35zm0-1.6a.08.08 0 01-.13 0 .09.09 0 01.19-.04zm-.21.16s.05.01.06.01zm0 1c0 .06-.09 0-.15 0h-.08v-.14h.14zm-.15-.32a.05.05 0 010 .09.2.2 0 01-.08.08h-.06l-.09-.09v-.07c0-.01 0 0 .06 0h.07zm-.07-.67h-.13c-.06 0 0 0 0 0v-.06l.08-.07s.02.13.05.13zm-.1-.49s-.01.05 0 .03zm-.09-.25v.05h-.06s.03-.03.06-.02zm-.09.07l-.03.03zm-.13 1.38h.05s-.06.06-.05.03zm-.25-1.36h.05a.06.06 0 01.07 0l.07.07-.09.07c-.05 0-.06-.06-.1-.07zm0 1.36s-.05.05-.04.03zm-.09-1.63s-.06.03-.04.03zm-.18 1s-.03.07-.04.08zm0-.48a.07.07 0 01-.1 0 .07.07 0 01.1 0zm-.08-.33v.05c0-.01 0 0 0 0s-.04.03-.03.03zm-.38-1h.2l.06-.05.09.08v.08h-.33v-.08zm-.09-.25s-.05.13-.03.13zm-1-.08s-.03.12-.06.13zm0-.5zm.92 1.23h.09l-.09.08c-.13.11-.13.11-.09.05zm-.16.53a.06.06 0 010-.09s-.06.2-.09.22zM30.4 44c.06 0 .08.07.12.1s-.07 0-.1 0l-.15-.1c.04-.06.09 0 .13 0zm-.18 1.22a.07.07 0 01.1 0 .06.06 0 01-.1 0v-.04zm-.29-2s-.01 0 0-.02zm0 1.25l.07.05a.13.13 0 010 .06s-.1 0-.14-.07v-.07l.05-.06zm-.17-1.29h.12c.06 0-.06.07-.12.09zm0 .1l-.07-.02zm-.22.23s-.1-.01-.07-.02zm0 1a.08.08 0 01-.13 0 .09.09 0 01.09-.04zm-.35-1.57s-.05-.02-.04-.04zm0 .71v.05c0-.01 0 0 0 0zm-.06-.24s-.13-.04-.08-.04zM29 44s0 .06 0 0zm-.28-.73s-.06.05-.03.04zm-.72-1.9l.14.15-.14-.04zm0 .71h.15c.06 0 0 .1 0 .12h-.12c-.06 0-.03-.1-.03-.12zm-.05 0l.05.04zm0 .29l.05.04zm-.14-1.25s.01.06.02.04zm-.24.11zm0 .6s-.05.05-.02.04zm-.1-.69v.05h-.11zm-.32-.7h.07c.01 0 0 0 0 .06-.14.04-.14.04-.09-.02zm-.62-.88v.1c0 .02 0 0 0 0a.06.06 0 01-.02-.06zm-.53-.34h.07c.01 0 0 0 0 .06-.07 0-.07 0-.07-.06zm-.54-.17h-.01zm-.26 1.27s-.02.02-.01 0zm-.1-1.39h-.01zm-.54-.78h-.01zm-.08.37s-.02.02-.01 0zm-.3.3s.05.08 0 .13 0 0-.06-.07.04-.04.05-.06zM40.6 49.38a.07.07 0 01.1 0 .07.07 0 01-.1 0s0 .01 0 0zm0 1.07v.1c0 .02 0 0 0 0v-.09zm-.14-.13h.11a.31.31 0 01-.09.07h-.05s-.07-.07 0-.07zm-.28.32a.71.71 0 01.09.07h-.1a.71.71 0 01-.09-.07s.04-.03.07 0zm-.46-.64zm-.35-.12s-.01-.03 0-.03zm-.12-1.8s-.01-.03 0-.03zm-.06.36s-.01-.03 0-.03zm0 1.43v.12a.08.08 0 01-.01-.15zm-.24-1.67s-.02-.02-.01-.03zm-.49-.29s-.02-.01-.01-.03zm-.31-.78s-.01-.01-.01-.03zm0 .27v-.13h.06c.05 0 0-.06 0-.1a.06.06 0 01.05 0v.16l-.14.14h-.05zm-.31-.16s-.04-.03-.03-.03zm-.43-1zm-.1-.24zm-.1.36s-.03.02 0 .01zm-.21.74h.05a.07.07 0 01-.1 0zm-.52-1.51s-.08.01-.05 0zm-.22 1.23l-.08.08s-.06-.06-.1-.08l.09-.1c.05.01.05.01.04.1zm-.14-1.71s-.12.01-.05 0zm-.09 1a.07.07 0 01.1 0 .06.06 0 01-.1 0s-.03-.02-.03-.03zm-.17-.78s-.06-.01-.05-.03zm-.1.88h-.06zm-.26-1.51s-.01.03 0 0zm0 .54s-.06.02-.05 0zm-.21-.24s-.01 0 0 0zm0 .3s-.01-.01 0-.01zm0-.1a.08.08 0 01-.13 0 .09.09 0 01.1-.01zm-.69-1.94s-.06 0-.03-.01zm-.15.55a.07.07 0 01.1 0 .07.07 0 01-.1 0s-.03 0-.03-.01zm0 1.25h.06l.08.09h-.05l-.09-.08s-.01-.02 0-.02zm-.2-.17s-.01.01 0-.01zm-.12-1.62s-.01.01 0-.01zm-.22.71s-.03.02 0 .02zm0 .7v-.05H34v.11a.07.07 0 010 .07l-.06-.06a.06.06 0 01-.06-.08zm-.32-.68a.06.06 0 010 .1s-.03-.04 0-.1zm-.34-.73s-.01.04 0 .04zm-.82-1.53v.04zm.32 1.26s-.01 0 0 0zm-.07-1v-.05.05zm0 .27v.12a.08.08 0 01-.04-.11zm-.23-.65s-.05.01-.04.01zm-.12.16s-.01 0-.04.01zm0-.83a.08.08 0 010 .12h-.09zm-.6 0s-.07.05-.04.05zm0 .24s-.05.02-.04.02zm-.06.84s-.07.03-.04.02zm-.16-.7l.06.06v.06l-.15-.14s.01 0 .05.04zm-.11-.29s-.06.04-.04.02zm-.05 0l-.04.06zm-.17.82l.07.06c.07.06 0 0 0 .05a.08.08 0 01-.11-.05zm-.35-2a.14.14 0 01.11 0l-.09.08h-.07a.05.05 0 01.01-.05zm-.13-.43q.07.06 0 .12a.07.07 0 01-.04-.09zm-2.68-1s-.02-.02-.02-.01zm2.25 2.14s-.05.01-.04-.01zM29.17 38s-.01 0 0 0zm-.12.3s-.05-.02 0-.03zm-1-.85l.06-.06c.06-.06.05.09 0 .12s-.05 0-.07 0 .03-.07.04-.09zm-.05-.56zm0 .66zm0 .66zm-.39-.65h.1a.06.06 0 01-.1 0zm-.18.06s-.03.02-.02 0zm-1.12-1.57h-.02zm14.21 10s.01 0-.02.01zm.49.06zm2.06 2.56h-.06.05zm.63-.27v.05a.06.06 0 01-.02-.04zm-.5-.29s-.02.03-.02.01zm-.24 0h.12v.05h-.12zm-.18.35h.05s-.08-.01-.07-.04zm0 .17s-.08-.03-.05-.04zm0 .61s-.08-.02-.07-.04zm-.1-1.52h-.06zm0 1zm-.1-.24s-.12-.06-.09-.07zm0 .12s-.12-.06-.09-.07zm-.26-1.31s-.1-.05-.09-.07zm-.1-.37s-.12-.06-.09-.07zm0 1.57s-.12-.05-.11-.07zm-.22-.85s-.12-.07-.11-.07zm-.24.6s-.12-.07-.11-.07zM41.15 47h.07v.05l-.09-.09s-.01.09.02.04zm-.07-1.13a.08.08 0 01-.13 0 .09.09 0 01.13.04zm-.14.11s-.02.02 0 .02zm-.27-.66h.1a.07.07 0 01-.1 0v.04zm-.05.88l.07.06h.07c.02 0 0 0 0 0l-.06.06h-.12c-.06 0 0-.1 0-.15s.01.08.04.07zm-.26-.87l.06-.06a.06.06 0 01.07 0v.12l-.08.08-.09-.08zm0 .59s-.06.08-.05.08zm-.22-1.15s-.08.05-.05.04zm-.48-.12s-.08.05-.05.04zm-.43-.9zm-.06.71q.08.06 0 .12a.08.08 0 01-.05-.08zM38.42 43s-.02 0 0 0zm-.37-.06s-.05-.04 0-.05zm-.08.24zm-.27-.72s-.02-.05 0-.05zm0 .21a.06.06 0 010 .06l.07.07c-.06.05-.06.05-.12 0a1 1 0 01.01-.18zm-.16.08v.12a.07.07 0 01-.04-.17zm-.12 0zm-.06.89l.09.09h-.23a.07.07 0 010-.1c-.03-.04.04-.02.1-.03zm-.26-2s.09 0 .09.08v.11l-.07-.09-.06-.13zm-2.46-.8v-.12c0-.06.06 0 .07 0s-.09.07-.11.09zm1.36 1.3a.41.41 0 01-.11 0H36s0-.01 0 0zm0-1v-.05zm-.11.24h.15l.11.09-.15.15s0-.09-.07-.12a.6.6 0 01-.08-.08s.03-.09.05-.09zm-.06-.38s-.03 0 0 0zm-.19-.73h.08c.01 0 0 0 0 .06a.08.08 0 01-.08-.09zm-.17.72h-.06v-.12h.06c.04.03.04.03 0 .13zm-.15-.4a.07.07 0 01.1 0 .07.07 0 01-.1 0v-.03zm-.79-1s.07-.05.1 0a.2.2 0 01.08.08v.06l.05.06-.09.08h-.06l-.14-.14zm-.52.83s-.01.04-.01.02zm-2.08-3.61s-.03.03 0 .02zm-.18.83h.07c.02 0 0 0 0 0s0 .05-.06.07-.06-.01-.01-.05zm-.13-.11zm-.06-.42zm-.07.31s-.01.04 0 .02zm-.24.24s-.01.04 0 .02zm-.3-.42h.1a.07.07 0 01-.1 0zm-.28-.67s-.03.03 0 .02zm-.51-.57s-.02 0 0 0zm-.05 0zm-.31-1.06s-.02.06 0 0zm-.05 0V35zm-.13.37h-.13a.09.09 0 01.13.04zm-.23.29s-.01.06 0 .04zm-.18-1.74v.1s-.03-.04 0-.06zm-.34.64h-.01zm-.48-.35s-.01.04 0 .04zm20.49 8.59a.07.07 0 01.1 0 .07.07 0 01-.1 0v.04zM48.23 44s-.01 0 0 0zm-.23-.87s-.08.01 0 0zm-.2 1.27s-.06.02-.05 0zm-.3.36s-.06.02-.05 0zm-.5-.43s0 .01 0 0zm-.06.72s-.04.01-.01 0zm-.84.24s-.04.01-.01 0zm-.49 1s.02 0-.01.01zm-.19-.1s-.02.03-.01.01zm-.19-.71l-.01.01zm0 2s-.07 0-.06-.02zm-.12-1.62h.1a.06.06 0 01-.1 0zm-.11.94l.09.09A1 1 0 0145 47v-.14c0-.07-.09-.03-.06-.08zm-.37-.94h.13-.11s-.09 0-.08-.02zm0 .72s-.07 0-.06-.02zm-.06-.18s-.07 0-.06-.02zm7.71-10.29h-.1c0-.06 0-.07.09-.05l-.05.03zm0-.23s.01-.03-.02-.02zm0-.24h-.11a.07.07 0 01-.06 0l.06-.05s.13-.02.13.03zm-.23-.7h.06-.12c-.04 0 .01-.01.08-.02zm-.13.6h.05s-.04.01-.03-.02zm0 .61l.08-.08s0 .06.1.05v.1l-.09.08a.08.08 0 01-.08 0 .08.08 0 010-.05.28.28 0 00.01-.12zm-.11-.37s.01 0 .02-.02zm0 1.19A.29.29 0 0152 37l-.09.08-.1-.08zm-.37-1.32zm-.13.19s.03 0 .03-.02zm0 1.67l.06-.02zm-7.29 7.85c0 .05 0 .05-.11 0v-.06s.17.02.17.04zm.34.4s.07-.03.06-.02zm0-.84s.07-.03.06-.02zm1-1.79s.07-.01.05-.02zm.2-.6s.06-.02.05-.02zm5.67-5.35s.03 0 .05-.02zm-.05 0l.05.02zm-.16.09zM51 35.94h.1a.07.07 0 01-.1 0zm-.24.3s-.02.02-.01 0zm0 1.62l.06.06h-.13c-.04 0 .03-.05.06-.06zm-.41-.73v.08c0 .08-.08 0-.12 0zm-.23-.06s-.04.01-.01 0zM50 38h.05c.05 0 0 0 .06.06s-.09 0-.13 0-.04-.01.02-.06zm-.12.06s-.04.06-.03.04zm-.12-.9s-.04.06-.03.04zm-.28 1.19s-.06.05-.03.04zm-.08-.29s-.04.06-.03.04zm-.06-.3s-.04.06-.03.04zm0 .6s-.04.06-.03.04zm-.3.76a.13.13 0 00.12.06l.11.11h.08-.18l-.07-.06H49l-.14-.14c.05.05.14.08.14.07zm-.3-.4s-.04.06-.03.04zm-.44.28l.09.09a.41.41 0 01-.11 0zm-.78 1.75zm-.06-1.26s-.02.02 0 .04zm0-.05s-.06.03-.04.04zm-.56 2v.05s-.07-.02-.04-.04zm-.14-.7v.08c0 .01 0 0-.06 0a.08.08 0 01.02-.07zm-.33 1h-.06c-.06 0 0 0 0 0zm0 .74s-.07.02-.06 0zm-.06-1.15zm-.13-.16h-.13a.09.09 0 01.07 0zm-.1.1v.05s-.09-.03-.06-.05zM46 40.8s0 .02 0 0zm0 1.73a.11.11 0 010-.05.25.25 0 010-.08.13.13 0 010 .06h-.05a.27.27 0 010 .09l.05-.02zm-.15 0a.07.07 0 010 .12q-.08-.07 0-.13zm0 .63c0 .05-.08.05-.13 0a.09.09 0 01.1-.01zm-.07-1.45l-.12-.13.07.09.02.03zm-.08-.31a.27.27 0 01-.09 0c-.02-.02 0-.03.06-.01zm-.14-.11h.05a.06.06 0 01-.1 0zm0 .18l-.03-.01zm-.09.23a.05.05 0 010 .06v.07a.07.07 0 010 .1h-.06l-.07.06h-.06s0-.12-.09-.15zm-.45.13s-.02.01-.02-.01zm-.18.54h.1a.07.07 0 01-.1 0l-.03-.01zm-.12.48s-.04.01-.03-.01zm-.22.15zm0-.24s-.06.04-.05.02zm-.1 1.31s-.08.03-.05.02zm-.14-1.31s-.06.04-.05.02zm-.4 1.06a.71.71 0 01.07.09v.1l-.07-.09s-.09-.05-.05-.08zm-.74.85zm0-1zm-.38-.67s-.02 0 0 0zm10.19-12.77s-.03.01 0 0zm-.2-.47s-.01.02 0 0zm-.06.18h.08c0 .06 0 .08-.09.06s.01 0 .01-.06zm0 .26a.4.4 0 010 .11zm-.06 1.2s-.03.02-.01 0zm-.05-.32s-.02.02-.01 0zm0 .36h-.01zm-.18-.9s-.02.02-.01 0zm-.06 1.14s-.02.02-.01 0zm0 .29s-.02.03.01.03zM51.39 33a.07.07 0 01-.1 0 .07.07 0 01.1 0zm.61-1.1s0-.01 0 0zm0-1.37zm-.39 1.23s0 .06 0 0-.04 0-.03 0zM51.49 33h.07c.07 0 0 0 0 0s0 .05-.06.07-.06-.07-.01-.07zm-.21-1.66a.07.07 0 01.1 0 .07.07 0 01-.1 0v-.02zm0 .12l.01-.02zm0 .28h.06c.05.06.05.06 0 .12h-.06c-.08-.07-.08-.07-.04-.14zm-.11.73s-.07-.01-.04-.02zm-.11-1l-.06.02zm-.52 2.35a.07.07 0 01.1 0 .06.06 0 01-.1 0s-.04.03-.04.02zm0-1.39s-.1.03-.07.02zm-.42 1.79h.11l-.09.08-.14-.02zm-3 3.4s-.12.01-.12.02zm.3-1.62s.01 0 0 0zm1.26 0s.01 0 0 0zm.25-.34v.05c0-.01 0 0 0 0v-.09zm1-2s.07.02.07 0zm0 .71s-.03.01 0 0zM49.69 33s-.03 0 0 0zm-.33 1l.21-.22h.08v.06a.48.48 0 000 .12l-.06.06v.12h-.05l-.08-.06zm-.41.76a.06.06 0 010 .1.06.06 0 01.05-.12zm0 .52v-.11h.06a.06.06 0 010 .08l-.01.01h-.09v.09h-.11c-.11 0 .08-.07.13-.09zM48.64 34h.11v.05h-.11zm-.23 1.78zm-.3-1.37v.1s-.03-.05 0-.07zm-.36 1.2h.06-.12c-.04 0 .03.04.06.03zm-.25-.36v.03zm0 .59s-.06.01-.04.03zm0 0s-.1-.03-.08-.02zm-.5.66s0 .06 0 0zm0 .69s0 .06 0 0 0 .02 0 0zm-.13-.42h-.05zm-.12-.3h-.05zm-.2 1.53s-.01.06 0 0zm-.25-.58v.05c0-.01 0 0 0 0s-.01-.01 0-.01zm-.06-.19a.08.08 0 01-.13 0 .09.09 0 01.13.04zM46 38zm-.32.79s.02-.01.03-.03zm-.17-1.22h.07s0 .05.06.06h-.08s-.06-.05-.02-.09zm-.2.38s.03-.01.03-.03zM42.75 40s.01 0 0 0zm.08 1.52s.02.04 0 .03zm.76-1.75v.03zm1.23-1.59zm-.11.42s-.03.04 0 .03zm-.12 1.14s-.03.04 0 .03zm-.12.3s-.03.04 0 .03zm-.2-.42zm-.7-.48s-.03.04 0 .03zm0 .32a.08.08 0 01-.13 0 .09.09 0 01.16.03zm-.39.1s.02.03.03.03zm-.12-.06s0 .04.03.03zm-.12.59h.09l.06-.06a.21.21 0 010-.08.13.13 0 010 .06s0 .06-.06.06 0 .08-.1.06zm-.27-.27s.08.06.16 0 0 .1 0 .14l-.09.09s.06-.05.02-.05 0-.06-.06-.09-.01-.04 0-.06zm-.06.83s.02.06.03.03zm-.06.2c0-.05.07-.05.11 0v.06h-.11zm-.22.2h.09l-.09.08a.08.08 0 01.03-.05zm0 .39a.08.08 0 01-.13 0 .09.09 0 01.14.03zm-.41-.73v.1c0 .02 0 0 0 0a.06.06 0 01.01-.07zm-.4.41s0 .03.01.03zm.24 1zm.06.06zm.35 1.92a.07.07 0 010-.12s.06.02.01.1zm-1-2.08s-.04-.02-.03-.02zm-.17-.75zm-.24 1.26zm-.19-.71s-.03.02-.02 0zm12.05-15.13s-.02-.02 0 0zm0-.05s-.06-.01-.04 0zm-1.49 1a.09.09 0 01.13 0s-.12.08-.17.03zm1.34-1s-.05.08-.04.06zm-.28-.38h.06l.09.08a.27.27 0 000 .09v.06h-.06l-.09-.08a.43.43 0 01-.04-.09zm0 1.41a.08.08 0 01-.13 0 .09.09 0 01.12.06zM52 28zm-.15 0zm-.09-1.11s.02-.08.03-.08zm-.14.37a.07.07 0 01-.1 0zm-.09-.25s.01-.08.03-.08zm-.14.3h.07c.07 0 0 0 0 0a.29.29 0 01-.24 0zm0 1.16l-.08.09a.07.07 0 01-.09 0l.08-.08a.08.08 0 01.09-.09zm-.26-1a.71.71 0 01.07.09v.1l-.07-.09s-.04-.14 0-.17zm-.28.3h-.08a.05.05 0 01.08-.07zm-.15 1.62c.08 0 .09 0 .09.08s-.06.07-.08.1-.09 0-.09-.07.06-.14.08-.18zm-.2-.7v.12h-.06s.06-.17.06-.19zm-.65.3s-.01-.05 0-.07zm-.43.3v.12l-.06-.05s.06-.12.06-.14zm-.33.23s-.03-.06 0-.07zm-.2.55s-.01-.07 0-.07zm-9.57 11.35s.01-.01 0 0zm.16.2l-.08-.09a.08.08 0 01.07 0h.1c.02 0-.05.07-.09.09zm.19-1.33s.01 0 0 0zm0-.18s.01 0 0 0zm.14 1.61s0-.01 0 0zm0-1.36v-.12a.08.08 0 01-.02.12zM44.09 35s.02 0 0 0zm.49.31s.03 0 0 .01zm1.28-2.12s.01 0 0 .01zm.07 1.14v.01zm2.85-3a.41.41 0 01-.11 0l.09-.09.08.09-.06.03zm-.14-1.47h.18a.45.45 0 010 .11.19.19 0 00-.1-.05zm-.1 1.66l.06.05h-.05c-.05.04-.05.04-.01-.02zm-.38.38h.12-.11s-.01.04-.01.03zm-.75-.44s-.03.04 0 .03zm-.06 1.07a.08.08 0 010 .12q-.08-.03 0-.09zm-.35-.31h.1a.07.07 0 01-.1 0zm0 .78s-.06.05-.12 0zm-.29.36v.11a.4.4 0 01.01-.15zm-.78-.55a.08.08 0 01-.13 0 .09.09 0 01.14-.04zM45.79 34s-.01 0 0 0zm-.13-1l.1.08a.2.2 0 01-.13 0zm-.44.07h.05s-.06.02-.05-.01zm0 1h-.03zm-.2-.29h.05a.07.07 0 01-.1 0zm-.49-.09l.06.06h.11l.09.08v.07h-.11l-.08.1h-.09a1.22 1.22 0 01-.01-.31zm-.29 1.71a.06.06 0 010 .1.06.06 0 01-.03-.1zm-.07-1v.09l-.17-.1s.09-.03.14 0zm-.28 1.77h.06v.12h-.06c-.07-.06-.07-.06-.03-.13zm-.44.08s-.04.02-.03-.01zm-.54-.06s-.04.02-.03-.01zm-1.07.54s-.04.01-.03-.01zm-.17 1.12s0-.02-.03-.01zm-.08-1a.07.07 0 01.1 0 .07.07 0 01-.1 0s-.03 0-.03-.01zm0 .78s-.04.02-.03-.01zm-.1-.67s-.05-.03-.03.04zm0-.05s-.09-.02-.07-.01zm-.13.11s-.08-.02-.07-.02zm.09 1.82a.08.08 0 01-.13 0 .09.09 0 01.06-.01zm-.6.47s-.08.02-.07-.01zm-.2-.31h-.12zm-.22.4s-.01.04 0 .02zM40 40s-.06 0 0 0zm.14.17h-.06c.01 0 .01-.05.03-.05zm-1.1.19s-.04-.04-.04-.05zm0 .3a.27.27 0 01-.09 0c-.02-.06.05-.07.05-.05zm-.14.07l-.03-.05zm-.1-.79s-.04-.05-.03-.05zm-.15 0a.4.4 0 010 .11h-.12l.07-.05s.01-.07.02-.09zm-.15-.8s-.06-.02-.03-.03zm-.11-.36s-.05-.03-.03-.03zm-.19 1.56s-.06-.02-.03-.03zM51.82 23.9s0 .05.07.05h.08a.3.3 0 01-.16 0 .06.06 0 01.01-.05zm-.14-.75s-.02 0 0 0zm-.39.06zm-5.79 6s.01-.04 0-.03zm5-3.71s-.03-.02-.05-.03zm0-.18s-.03-.02-.04-.03zm.13-.94s-.07-.02-.04-.03zm-.21-.47v.12l-.06-.05s.02-.08.02-.1zm-1.11 1.19s-.05-.03-.04-.03zM49 26.6a.06.06 0 010-.05h.13c.05 0-.13.02-.13.05zm0-1v.04zm0 0l.06.05v.06h-.09a.17.17 0 01.03-.03zm0 1.23v.08c0 .06-.07.08-.1.12v-.07c-.07.04-.02.04.01-.05zm-.32-1.05a.06.06 0 010 .1s-.12 0-.09-.02zm-.11 1.24h.18l-.09.09-.05-.07h-.06c-.06 0-.09.1-.07.06zm-.19-.41zm-.52 1.08s-.12.09-.09.08zm-.27 0a.08.08 0 01-.13 0 .09.09 0 01.04.1zm-.66-.13s-.09.12-.09.1zm0 .59s-.09.11-.06.1zm-.24.72s-.09.13-.06.13zm-1.14-.3s-.07.1-.06.1zm-.36.6s-.09.11-.06.1zm0 1.49q.08.06 0 .12a.07.07 0 01-.07-.02zM45 29.27s0 .01 0 0zm-.15 1.27s0 .03.01 0zm-.39.4h-.06c-.06 0 0 0 0 0s.05.06.07 0zm-.2-1.31v.11a.45.45 0 010-.11s.01.01.01 0zm-.05 2s0 .05.01.04zm-.65.3s0 .07.01.07zm-.31.35h-.06c.01 0 0 0 0 0zm0-.78a.07.07 0 010 .12q-.12-.02-.04-.08zm-1.06 2a.07.07 0 01-.1 0 .07.07 0 01.1 0l-.04.06zm.15.08s-.01.05-.04.06zm.45-.87v-.07c0-.01 0 0 .06 0-.04.18-.04.18-.1.13zm.2-.55s-.05.08.01.06zm-.1.76q-.08-.06 0-.12a.08.08 0 01-.04.2zm0-.6v.12h-.06v-.12zm-.13-.66q.08.06 0 .12a.08.08 0 01-.04-.06zm-.11-.23s-.07.07-.04.06zm-.09.39a.24.24 0 00.16.07h-.12a.07.07 0 01-.08 0 .07.07 0 010-.01zm-.1 1.17v.05a.06.06 0 01-.04.01zm-.11.3s-.05.06-.04.06zm-.2-1.13s-.05.08-.04.06zM42 32l.09.08c0 .05-.08 0-.13 0S42 32 42 32zm-.24.65h.08l-.09.08h-.08zm-.42 1.8h.11a.41.41 0 01-.11 0s-.01-.01.01-.03zm-.09-1.34s0 .06 0 0 0-.03.01-.03zm-.22 1l.06-.06c.06-.06 0 .09 0 .12s-.05 0-.07 0-.02-.09-.02-.11zm0 .38s-.03-.03-.03-.05zm0 .23h.06l.08.09h-.07l-.1-.11s0-.03.05-.03zm0 .27S41 35 41 34.94zm-.21-1.17s-.04-.04-.01-.05zm0 1.14h.12L41 35a.86.86 0 01-.32 0zm-.24-1.14a.23.23 0 01.07-.07l.08.09-.09.09h-.06c-.06-.11-.06-.12-.02-.16zm-.56.49a.07.07 0 01.1 0 .07.07 0 01-.1 0s-.02-.04-.02-.05zm-.41 1.56s-.03-.03-.02-.05zm-.4-1.09s-.03-.05-.02-.05zm0 1.46v.08c0 .01 0 0-.06 0 .01-.17.01-.17.07-.13zM39 35h.05v.12h-.06s.01-.06.01-.12zm0 .71zm-.22 1h-.06zm-.43-.12s.08.06.09.11.1.08 0 .18l-.06.06a1 1 0 010-.17l-.07-.08zm-.32.38h.05s-.01.08 0 .03zm-.63.4q-.08-.06 0-.12a.07.07 0 01.05.17zm-.02-.37zm-.45 1.11v.01zm.15-.58s.03 0 0 .01zm.06.71l.14-.15h.06zm0-.44v-.05h.12v.06s-.08.04-.15 0zm.45.81l-.03.01zm.19.83v-.05s0 .05-.03.06zm-.81-2.23v.07c0 .01 0 0-.06 0-.03-.11-.03-.11.03-.06zm-.22.92h.07l.06.06h-.08s-.12.02-.08-.05zm-.13-.76s-.04.03-.03.01zm-.08 1.19h.12l-.05.06s-.1-.03-.1-.05zm-.21-2s-.05.01-.03.03zm0-.05s-.09.02-.07.03zm-.09 1.25zM45.86 25s0 .06-.06.06 0 0 .06-.06a.21.21 0 010-.08.13.13 0 010 .08zm2.22-2.23s.01-.02 0-.01zm.28-.05s.01 0 0-.01zm1.74-1.78zm-.19-1.19s-.01.01 0-.01zm-.58 1.72a.07.07 0 010 .12s-.05-.09 0-.13zm-.06.3h.06v.12h-.06c-.04-.07-.04-.07 0-.13zm-.56.86s-.01.01 0-.01zm0-.79s-.05-.01-.04-.01zm-.07-.36a.41.41 0 010 .11l-.09-.09zm-.27.33v.12c0 .04-.06 0-.07 0s.01-.11.03-.13zm-.26.62l.07.08a.4.4 0 01-.11 0zm-.78 1.44a.07.07 0 010 .12h-.09zm-.18-.29s-.05-.01-.04-.01zm-.47-.24s-.06-.01-.04-.01zm-.88.86a.08.08 0 01.12 0l-.09.09s-.07-.07-.07-.1zm-.06.92h.06a.05.05 0 01-.1-.01zm-.29.39h.1a.06.06 0 01-.1 0zm-.29.23zm-.25-.59s-.05.01-.04-.01zm-.21.68s-.03-.02-.04-.01zm-.1-.2a.07.07 0 01.1 0 .07.07 0 01-.1 0s-.04 0-.04-.01zm-.17.84s-.05.01-.04-.01zm0 .1h.09l-.09.08a.08.08 0 01-.03-.09zm-.17-.78h.07v.19l-.06-.07s-.09-.07-.04-.13zm-.12 1.75s-.04-.01-.03-.01zm-.6-.18s-.06 0-.03-.01zm-.06.17h.07c.01 0 0 0 0 .06-.15-.01-.15-.01-.1-.07zm-.26-.58s-.04.05-.03-.01zm-.84 1.5h.1a.06.06 0 01-.1 0l-.03-.01zm-2 2.28s-.02.01-.02-.01zm-.16.7v.12a.07.07 0 01-.02-.13zm-.17 0H40zm-.05.17s0-.01 0 0zm-.12-.54v-.13.11a.06.06 0 01-.05 0s-.01.04.01.02zm-.11.3h-.01zm-.2 0s-.05.04-.04.02zm-.1.29s-.05.02-.04.02zm0-.39a.27.27 0 010-.09s-.06.04-.08.11zm-.07-.14s-.1.01-.08.02zm-.67.65s-.11.03-.08.02zm-1.08 2.1s-.11.03-.08.02zm0 .12s-.09.01-.08.01zm-.48-.78s-.09.02-.08.02zm-.21 1.1a.08.08 0 01-.13 0 .09.09 0 01.05.02zm-.27-.2s-.09.02-.08.02zm-.32.43s-.09.04-.08.02zm0 .41h.11v.06l-.21-.01zm-.43.42s-.12.02-.1.02zm-.34-.94a.08.08 0 01-.13 0 .09.09 0 01.03.02zm-.57 1zm.06.06zm.41.24s-.07.06-.1.07zm.24 1.62c-.06 0 0-.1 0-.15s.06 0 .08 0a.09.09 0 010 .08s-.14.12-.18.14zM34 35s-.06 0 0 0zm14.2-17.09s-.04.09-.03.03zM48 18c0 .05-.08.05-.13 0a.09.09 0 01.13 0zm-1 .58v-.05zm0-.05s-.08-.06-.06-.05zm-.1 1.38s-.07-.02-.06-.05zm-1.47.71s-.09-.04-.06-.05zm-.36.12s-.07-.04-.07-.05zm-1.42 3s-.06-.09-.06-.08zm0-1.08s-.06-.09-.07-.08zm.13.77v-.1l-.07.02zm.1-1.7s-.1-.07-.07-.08zm-.27.28s0 .06.09.05 0-.07.09-.05h-.1a.08.08 0 01-.09 0 .06.06 0 01-.06-.08zm-.14 1.76s-.09-.08-.07-.08zm-.06.29a.08.08 0 01.07 0l-.08.09-.09-.09c-.03-.03 0-.06.03-.06zm-.4-.63v-.05l-.07-.03zm0 .81H43c.06.05 0 .11 0 .16a.49.49 0 010-.11l-.07.06s-.07-.15-.02-.19zm-.18-.29s-.11-.08-.1-.08zm0 .6s-.17-.08-.15-.08zM42.47 23zm-.13 1.28a.08.08 0 01-.13 0 .09.09 0 01.13.03zm-.42.67V25c0-.01 0 0 0 0s-.01 0 0 0zm-.21-.87s-.03.04 0 .03zm0 1.32s-.01.03 0 .03zm-.12-.49a.07.07 0 010 .12q-.07-.03 0-.09zm-1.33 1s.03.09 0 .09zm.93-1.28v.12c0 .06-.06 0-.07 0s.05-.05.07-.07zm-.85.81s-.02.05 0 .05zm-.08.3s-.02.03 0 .05zm0-.05s-.06.04-.04.05zm-.13 1.19s-.07.06-.04.05zm-.6-.88s-.01 0 0 0zm.09.88a.11.11 0 01.08 0V27c-.06 0-.08.05-.12 0h-.05s.05-.13.09-.14zm-1.53 2.22s-.01.02 0 0zm-1.15.66s0 .02 0 0zm-.3.18s-.01.06 0 0zm-.22-.2h.06c.05.06.05.06 0 .12-.1-.05-.1-.05-.06-.12zm-.11.07s-.01 0 0 0zm-.48.23a.07.07 0 010 .12s-.05-.08 0-.16zm-.14.92s-.01.04 0 .04zm-.1-.37s-.03.01 0 0zm-.23-.24s-.02 0 0 0zm0 .75s-.06.02-.04 0zm0 0l-.09.04zm-.17.35zM35 31a.23.23 0 010 .14.71.71 0 010-.14zm-.06.19l.07.05h-.05a.05.05 0 01-.06-.07zm-.09 0s-.05-.06-.04-.06zm-.12.59h.07c.01 0 0 0 0 .06-.16-.06-.16-.06-.11-.12zm-.11-.65s-.06-.06-.04-.06zm-.93 2.23s-.05-.04-.04-.06zm-.18-1s-.05 0-.04-.02zm-.52.29s-.05-.02.01-.02zm-.13 1.43zm.06-.24s-.01-.03-.04-.02zm.06-.6v-.12H33c0 .05 0 .05-.06.1zm.06.12s-.04-.03-.04-.02zm.06.84zm0-.47s-.1-.01-.03-.02zm.17.65a.14.14 0 01-.11 0l.09-.09h.07a.06.06 0 01-.08.07zm.09-.63v-.07c0-.01 0 0 0 0l.06.06c-.01.04-.05.04-.09-.01zm.18.31l-.03-.06zm-.94-.74h.1a.06.06 0 01-.1 0zm-.16 1.25s-.04-.02-.03-.02zm-.2-.72h-.1a.05.05 0 01-.07 0l.06-.06a.06.06 0 01.08.04zm0-.72s-.1-.01-.07-.02zm-.12.17h.11-.11zm-.08 1s-.04-.02-.04-.04zm-.06-2s-.08 0-.07-.02zm-.1.41s-.1-.01-.07-.02zm-.27-.17s-.07 0-.07-.02zm10-21.37v-.07c0-.01 0 0 0 0l.06.06c.06.06-.02.06-.06.01zm.63.63s.03-.01 0 0zm1.23 1.3zm.69-.28s.03-.01 0 0zm.26.82s.01-.01 0 0zm.06-.48s.01-.01 0 0zm.64.62s.03-.01 0 0zm.12 1.32s.03-.01 0 0zm-9-5.82h.03zm1.23.55zm0 .44s.07-.01.06 0zm.11 0h-.1c0-.06 0-.07.09-.05zm1.62 2.23s.01-.01 0 0zm.19.6h-.06c.01 0 0 0 0 0zm0-.18s0-.01-.01 0zM43 15.05zm0 .6zm-2-.55s0-.01 0 0zm1 .78c-.05-.06-.05-.06 0-.12.05.07.05.07 0 .12zm.33-.62l-.09.08c-.09 0-.09 0-.08-.09l.08-.09c.1.01.1.01.09.1zm.33 1.15s.01.01 0 0zm.09-1.21h-.06c.01 0 0 0 0 0zm.25 1.16a.4.4 0 01-.11 0H43l.07-.05c-.01 0-.01 0-.07.05zm.49.91s-.01.01.02 0zm.39-.89s.02.02.02 0zm-.4 0zm-.07-.47s.01.01.02-.01zm.19 1.66s.05-.02.02-.01zm.17 1.43zm1.95-3.29s.01.05 0 .04zm-.2.33v.04zm-.27.17s-.03.05 0 .04zm-.13.06zm-.54 2.15h-.06c.01 0 0 0 0 0zm0-.88a.06.06 0 01-.1 0 .07.07 0 01.06.04zm0-.28s-.09.03-.09.04zM43 18.82h.08c.01 0 0 0 0 .06a.08.08 0 01-.08-.06zm-.08 0h-.13a.09.09 0 01.15.03zM30.15 8.24s0-.01 0 0zm.85.06s0-.01 0 0zm.51.86h-.17.05l.05-.16.09.09s-.02.07-.03.07zm.37.54s0 .01-.01 0zm.06.06zm.2.28l-.01-.04zm.23-.24a.06.06 0 01-.1 0h.09zm.75-.32s-.02.02-.01 0zm-.64.45h-.01zm0-.48h-.01zm.17.42s0 .01-.01 0zm.08 1s0-.06-.01-.05zm.36-1s0-.02-.01-.01zm.1.85a.71.71 0 01-.09-.07s.07-.05.1 0a.71.71 0 01.09.07s-.08.02-.11-.01zm.18-.24l-.01-.01zm.14-.24v-.09s.02.06-.01.08zm.49 1.33zm-.08.77s.08-.01.08 0zm.25.3h-.09L34 12.5v-.05l.17.17zm.14-.45a.09.09 0 01.13 0c-.01.05-.04.05-.09 0zm6.56 5.57s.03.02.04 0zm-6-6.31s-.01 0 0 0zm0 1.23h-.06c.01 0 0 0 0 0zm0-.42a.07.07 0 01.1 0 .07.07 0 01-.12 0zm.09.72s.04.02-.02.02zm.64 0h-.07c-.07 0 0 0 0 0l.06-.06c.06-.06.04.08-.01.08zm3.4 4.38s0-.01 0 0zm.11-1.49a.06.06 0 010-.09.06.06 0 01-.03.09zm1 1.2s-.02.01-.03 0zm.25.13a.48.48 0 01-.12 0l.09-.09.07.08s-.05 0-.07.01zm.07.23v-.09s0 .07-.03.09zm.43.88v-.1l-.03.1zm.14.38s0-.05-.09-.05H41c.05 0 .07.06.1.1a.07.07 0 01-.1-.05zm.19-.48s-.02.01-.03 0zm.09.65s-.03-.01-.03 0zm.22 1.39h-.03zm.24 1a.27.27 0 010-.09h-.15v-.07a.19.19 0 000-.08s.1 0 .1-.1a.13.13 0 010 .06v.2h.08zm-.15-1.1h.11l-.08.08zm.58-.42s-.02-.04-.03-.03zM27.1 9.19c-.06.05-.06.05-.13 0 .06-.05.06-.05.13 0zm1.47.1s-.01 0 0 0zm-1.36-.64a.09.09 0 01.13 0 .08.08 0 01-.13 0zm.32-.16v-.05c0-.05 0 0 0 0h.13c.05 0-.05 0-.06.05s-.05.01-.07 0zm.14.12s.01 0 0 0zm.07.18zm0 .24s.05-.03.04-.03zm.14 1.08zm.19-.13L28 10h.05zm.49.35v-.12c0-.06.06 0 .07 0s-.01.1-.03.12zm.16-.29s.05-.04.04-.04zm.34-.16s.07-.01.04 0zm.45 1.84s.04-.01.04 0zm-.12-.25a.09.09 0 01.13 0 .08.08 0 01-.09 0zm.13-.33s0 .06 0 0h.04zm.16 0a.06.06 0 01-.1 0h.1s.05.04.04.04zm.06.24s.05.03.04.04zm.18.72a.06.06 0 01-.1 0H30v.04zm.06-.42s.02.03.02.04zm.13.54s.04.03.04.04zm.72-.24l.04.02zm.18-.24s.04.03.04.04zm.42.54h-.06.05zm.35.84s.05.03.04.04zm.88.87zm-.29-.48s.03.04.04.04zm0 1s.07.07.06.08zm.15 0h-.15a.05.05 0 010-.05h.09l-.06-.07v-.07h.06a1 1 0 010 .17zm.12.54l-.02-.05a.08.08 0 010-.1l.08.09a.07.07 0 010 .11zm.36-.31s.07.06.06.05zm.18 0a.08.08 0 010-.12l.09.09c.05.11.01.09-.03.09zm.39-.44h-.06c.01 0 0 0 0 0zm1.77 2.12s.09.05.06.06zm.21 1.58a.09.09 0 01.13 0 .08.08 0 01-.13 0zm1.23 1.17h-.05a.2.2 0 010-.13h.08l.06-.05c.07 0 0 .1 0 .14zm.21-.87a.09.09 0 01.13 0 .08.08 0 01-.12-.05zm.77.37s.01-.06 0-.05zm.32 1.62a.06.06 0 010-.05zm.09.44q-.08-.06 0-.12a.08.08 0 010 .07zM39 21zm.45 1.37v-.03zm.3-.54h-.06c.01 0 0 0 0 0s.06-.04.06-.03zm.09.49s.01-.02 0-.03zm.63-.8v-.1.07zm0-.45s.05-.02.04-.07zm.12.12a.27.27 0 01-.1-.12h.09c.09.02.09.03.05.09zm-.12-.6a.07.07 0 010 .12s-.01-.11.04-.15zm-.07.55c.05 0 0 .05 0 .09a.08.08 0 01-.12 0zm-.23.9a.07.07 0 01-.1 0zm-1.12.21v.11c0 .05-.06 0-.07 0s.09-.12.11-.14zm-.2 1H39v.12h-.11c-.05-.11-.05-.11 0-.17zm-.12.72h.17-.17s.02-.03.04-.05zm-.48.31s.01-.04.04-.05zm-.18.72h.04zM23.85 10.46s0-.01 0 0zm.24.65a.09.09 0 01.13 0c-.05.05-.08.05-.13 0zm.65-.41s.01-.01 0 0zm.18-.18s.01-.01 0 0zm.19.11s.01-.01 0 0zm0 0zm.32 1a.06.06 0 010-.09.06.06 0 01.03.07zm.19-.61c-.05 0-.05 0 0-.11l.06.05zm.21.92h-.05c-.06 0 0-.1 0-.15s.06 0 .08 0a.09.09 0 010 .08s.04.03 0 .05zm.24-.67s.04-.01.03-.02zm.21 2s.03-.06.03-.05zm.48.56h.05c.05 0 .02-.05-.02-.05zm.15-1s.09-.07.03-.08zm.82 1.09v.05c0-.01 0 0 0 0l.03-.13zm.28.46s.04-.09-.01-.08zm.6-.23zm.23.07zm.06.06zm1.45 2.08a.07.07 0 01-.1 0h.05s.09-.08.08-.08zm1.21 2.22a.06.06 0 01-.1 0 .07.07 0 01.1 0l.03-.08zm.93.43s.04-.07.03-.08zm.3-.59s.06-.09.03-.08zm.48 1.2s.06-.09.03-.08zm.3.11s.04-.07.03-.08zm.24 1.2s.04-.07.03-.08zm2.22.67s.06-.09.03-.08zm.25 1.55v-.05s.06-.04.03-.03zm.5 0s.03-.1.03-.09zm.47 1.14s.04-.1.03-.09zm.31 1.2l-.09.08-.08-.08v-.06l.08-.09c.06 0 .07.06.11.08zm0-1.24s.09-.1.06-.09zm-.56-.32s-.06.01 0 0zm.65-.55a.4.4 0 01-.11 0l-.07.06v-.12h.23zm-15-11.25v.08c0 .01 0 0-.06 0 .01-.12.01-.12.07-.08zm-.65-.79s0 .02 0 0zm-.21.21zm.21 1.74s0 .01 0 0zm.18-.41H22v-.06a.06.06 0 010-.07v-.05h.12s0 .05.06.07a.06.06 0 010 .07l-.04.04zm.18.72l-.06-.06a.07.07 0 010-.07h.12c-.05.08-.05.09-.1.13zm.31.11zm.05-.47h-.11c-.05-.06-.05-.06 0-.12h.11c.01.06.01.06-.04.12zm.13-.12c-.05 0-.07 0-.05-.09a.25.25 0 010 .08zm5.55 5.37v-.05l-.04.05zm-4.1-3.89s-.03-.01-.04 0zm.37.77a.09.09 0 01.13 0c-.09.05-.12.05-.17 0zm.64.5zm.17-.29s-.01-.01-.04 0zm.19-.24h-.06l-.07.06h-.05l-.06-.05h.14l.07-.06h.05c-.02-.01-.02-.01-.06.05zm.07 1.12s-.03-.01-.04 0zm.24-.12s.02-.01-.04 0zm0-.22v.05c0-.01 0 0 0 0s.02-.06.02-.05zm.7 1.62h-.06v-.05c0-.05 0 0 .05 0 .02-.01.02-.01-.02.05zm.08-.56h-.06.05zm.53 1.09a.06.06 0 010-.09.06.06 0 01-.03.09zm.07-.37v.07a.15.15 0 010 .08l-.08-.1s.07-.05.08-.09h.06l-.09.04zm.33.87l-.05-.07-.06.07c-.05-.07-.05-.07 0-.13h.11c.01.06.01.06-.03.13zm.78.35h-.05c-.05-.06-.05-.06 0-.12h.06c0 .07 0 .07-.04.12zm.3-.24s0-.01-.03 0zm.66 1.85s-.02.01-.03 0zm.81-.5c-.05.05-.05.05-.11 0v-.05c0-.05 0-.05.11 0zm.29 1zm.23-.53s-.02.05-.03.04zm.05 0s-.05.03-.03.05zm0 .88s-.02.06-.03.05zm.75-.85h-.06c.01 0 0 0 0 0s.03.04.03.05zm.69 1.93s-.02.06-.03.05zm-.06-1.07v-.1h.06v.05c0 .05 0 0 0 0l.06.05s-.04.06-.15.05zm.3 1.86s0 .04-.03.05zm0-1.08a.08.08 0 010-.12s.02.13-.03.17zm1.07 1.46s-.04.07-.03.05zm-.41-.49zm-.29-1.2s-.06.06-.03.05zm0 1.66s-.03.06-.04.05zm.18-.24s-.04.06-.04.05zm.18.49h-.06L33 24h.06l.08.09s.07.01.04.01zm.21.58a.06.06 0 01-.1 0 .07.07 0 01.1 0zm.16 0s-.03.08-.04.07zm.06.06zm.18-1.56h-.14l-.06-.08h.19c.01.09.01.09-.03.15zm.17 1.75h-.1v-.12h.1v.12zm.56.22s-.03-.01-.04 0zm.13-.18s-.04-.01-.04 0zm.45 2.53s-.03.01-.04 0zm.74-1.62h-.04zm.76-1.31l.09.09v.12c0 .06-.09 0-.13 0s-.08-.06-.09-.09zm-.17.49s-.07-.01-.04-.01zm0 1.25v.19l-.06-.07v-.12zm-.14-1.14v.12a.08.08 0 01-.09-.12zM36 27.19zm0-1.44zm-.58-.91s-.1.02-.09 0zm-.46.77h-.09zm.24.29h-.09zm-.6 2.53s-.12.01-.09 0zm-.24-.18s-.12.01-.09 0zm-16.98-15.7h-.13l.07-.06s.06.05.06.06zm.5 1s.01-.01 0-.02zm2.63 1.29s-.01 0 0-.02zm.08.22s0 .05.06.06l-.06.07v-.07c-.08-.02-.03-.04 0-.12zm-1.8-2.33s-.01-.02 0-.02zm.08.74h-.11v-.06h.11zm1.71 2.67h-.07c-.07 0-.07 0-.08-.11a.51.51 0 01.25 0zm.39.12h.05c.05 0-.02-.02-.02-.02zm.12-.68v-.02zm.15.14s.03-.03 0-.02zm.1-.81a.07.07 0 01-.08 0h-.1a.4.4 0 010-.11h.1zm.44.57s.03-.03 0-.02zm.27.34a.07.07 0 01-.1 0 .07.07 0 01.1 0v-.02zm1 1.87v-.05s.03.02 0 .03zm.47.25s.03-.03 0-.02zm1.44.67s.04-.01.04-.02zm-1.08-1s.01-.05 0-.06zM24.3 20s.03 0 0 0zm.14-.14s.01-.05 0-.04zm.62.39v.09l-.09.08h-.19v-.09h.1c0-.06.11 0 .14-.09h.05s-.01-.06-.01-.03zm0-.92h-.18l.07-.09v-.08l.09.08s.09.04.06.05zm.17-.35l-.06.07c-.06.07-.05-.09 0-.13s.05 0 .07 0 .04.01.03.02zm.38 1.72s.04-.05.04-.04zm.11-.9c-.05 0 0 .1-.07.15l-.06-.07a.34.34 0 00.06-.06h.06s.07-.06.05-.06zm0-.17h-.07c-.07 0-.06 0-.08-.05a.3.3 0 01.16 0 .06.06 0 010 .08s.02-.06.01-.07zm.07.78zm.15-.08v-.12c0-.06.06 0 .07 0s-.01.06-.01.08zm.22-.41s.03-.05.02-.04zm3.63 4.06s.01.02.02-.04zm-1.92-1.8l.02-.04zm-1.43-1.75s.01-.03.02-.04zm-.05.54s.01-.04.02-.04zm.06 1h-.06v-.12h.06c.06.03.06.03.02.09zm.18-.84h-.06v-.12h.05c.07-.01.07-.01.03.09zm.23 1.19s.03-.02.02-.03zm.08.35s.06-.04.06-.03zm.13-1.67zm.18-.16s-.03-.02 0-.03zm0 .13h.05l.05-.06c.07.05 0 .11 0 .15s-.06 0-.1 0V21s-.03 0-.03-.06zm.28 2c-.05 0-.09 0-.13.06s-.07 0-.09 0h.21s0-.09-.02-.03zm0-.39s-.07 0-.06-.02zm.12.15s-.04-.01-.06-.02zm.09-.66h-.14l-.14-.07a1.15 1.15 0 01.18 0c.05 0 0 .06 0 .09zm.13.24a.13.13 0 010 .06.76.76 0 010 .15.23.23 0 010-.14h.05a.21.21 0 010-.08s-.1-.02-.11-.01zm.12.1s-.05-.03-.06-.02zm0 0zm.26-.62s-.02-.06-.03-.05zm0 1.51s.02-.04.01-.05zm.18-.71a1 1 0 01-.17 0h.08l.05-.06h.07c.03-.04.03-.04-.02.01zm.24 1.79s.02-.04.01-.05zm.07-1.72s0-.05.01-.05zm0 1.28s.04-.06.03-.05zm.06-.1a.13.13 0 010 .06h-.05a.25.25 0 010-.08s.09-.04.08-.03zm.18-.07s.02-.06.02-.05zm.43-.48h.05a.06.06 0 01-.02-.05zm.11 1.62s.03-.06.03-.05zm.27-.16h-.05v-.12h.06c.07.01.07.01.02.07zM30 25zm.21-.38c0 .05-.08.05-.13 0l.06-.06h.05c.05 0 0 0 0 0s-.03.04-.03.05zm0-.14l-.21-.1c0-.05.05 0 .09 0s.07.04.04.09zm.2.21s-.08-.02-.08-.01zm.09 1s-.05-.04-.08-.03zm.2.58a.06.06 0 01-.1 0h.05s-.02-.03-.03-.03zm-.05-.76h.05c.05 0-.09-.03-.13-.03zm.15-.07s-.07-.02-.08-.03zm1.74 2.71s-.05-.04-.08-.03zm0-.32s-.05-.04-.06-.03zm1.2-.57s-.08-.03-.06-.03zm-.32 1.91s-.03-.04-.06-.03zm.06-.37s-.05-.02-.06-.03zm.06-.29s-.03-.04-.06-.03zm-1 1.74s0 .05.07.06a.08.08 0 01-.15-.09zm-.07-.28s-.09.03-.08-.03zm-.53.82H32c.05.06.05.06 0 .12a1 1 0 01-.17 0zm-.11-.35s-.11-.02-.08-.03zm-21-10.68s0-.01 0 0zm2.33-2.52s.01-.01 0 0zm.08-.43h-.05a.4.4 0 010-.11h.05zm0 .21s.05-.02.02-.02zm.42-.6l-.08-.08a.08.08 0 010-.1l.08.09a.07.07 0 01.02.09zm.18-.13s.03.01.02 0zm.36-.29h.02zm1-.39s.02-.01.01 0zm0 0zm.1-1.41a.08.08 0 01-.13 0 .09.09 0 01.17-.03zm-.33.34l.03-.03zm.92-.75s.04-.04.04-.03zM16.1 16s.01 0 0 0zm-7.32 9.4a.07.07 0 01-.1 0h.1zm1.91-2.55s-.03.01 0 0zm0 .24s-.01 0 0 0zM9 25.88s0-.01 0 0zm0-.1l-.09-.09h.13c.05 0 .01.08-.04.09zm.2-.62s.01-.01 0 0zm.88-1.78a.41.41 0 01-.11 0l.08-.09.09.09s-.04-.01-.06 0zm.25.78l-.06-.05v-.05c0-.05 0 0 0 0s.09.04.06.1zm.14-.87a.09.09 0 01.13 0 .08.08 0 01-.13 0zm.21 1.16s.01.01 0 0zm0-.68a.09.09 0 01.13 0 .08.08 0 01-.16 0zm.54-.77h-.03zm0-.71s-.05.01-.06 0zm.06-.17s-.03-.01-.06 0zm1.57-.12s-.03 0 0 0zm-.18-1.56s-.03-.04 0-.05zm0 1.5s-.01-.05 0-.05zm-1.15 1.6s.01-.04 0-.05zm.12-.54s.01 0 0 0zm.06-.65s.03-.06 0-.05zm.09.46v-.05zM12 22a.09.09 0 01.13 0 .08.08 0 01-.13 0zm.37.09a.71.71 0 01-.09.07h-.1l.12-.12h.05a.06.06 0 01-.01.02zm.51.23a.31.31 0 01-.19 0h.26zm.37-1.21a.06.06 0 01-.1 0s.08-.03.07-.03zm0-.16s.04-.04.01-.03zm1.35-.44v.05h-.05a.06.06 0 010-.05.25.25 0 000-.08c.05-.05.05-.05.11 0zm1-2.4s-.03-.04-.04-.03zm.16.86s-.01-.04-.04-.03zm.44-2s-.03-.04-.04-.03zm.09 1s-.02.03-.04.03zm.28.34a.09.09 0 01.13 0c-.09.05-.12.05-.17 0zm.13-1.26s-.05.01-.04 0zm.11 1.15h-.06.05c.05 0 0 0 0 0zm.16-.22s0 .05-.06.06h-.09a.06.06 0 01-.05 0v-.05l.06-.06h.14c.05 0-.03.07-.04.07zm.11-.24H17v-.12h.06c.03.07.03.07-.06.12zm-.41-2.09s-.07.01-.04 0zm-.12.48h-.04zm1.14 1.43v-.12a.08.08 0 01-.04.12zm.23-1.27s-.03.01-.04 0zm.39 1.84a.06.06 0 010-.1l-.04.1zm-8.7 10.35h-.06c-.06 0 0 0 0 0zm.08.22h-.06.05c.05 0 0 0 0 0zm.06.11a.09.09 0 01.13 0 .08.08 0 01-.13 0zm.34-1a.34.34 0 00.06.06v.05h-.05q-.1-.08-.01-.16zm0 1a.09.09 0 01.13 0c-.09-.01-.12-.01-.17-.06zm.23-.41s-.03-.07-.04-.06zm.12-1.2s-.03-.07-.04-.06zm.14.05a.4.4 0 010-.11l.08.08-.08.09zm.17.19h-.06.05c.05 0 0 0 0 0zm.39-.76q.08.06 0 .12a.07.07 0 01-.04-.18zm0 .58v-.09l.09.08s-.05-.02-.1-.05zm.21.2s.02-.07-.01-.06zm.18-.07s0-.05-.01-.06zm.21-.79h-.06.05c.05 0 0 0 0 0zm.36-.12s-.01-.07-.01-.06zm.53-.47l-.06-.05c-.06-.05.09-.05.13 0s-.05-.03-.08.04zm.13-.32c-.06.05-.06.05-.11 0v-.06h.11zm0-.81h-.09l.09-.09a.08.08 0 01-.03.03zm.24-.18l-.06-.05v-.05c0-.05 0 0 0 0s.06-.02.06.04zm.17-.13s-.02-.05-.03-.06zm1.59-.37l-.05.05a.13.13 0 010 .06l-.09-.08.07-.05v-.07h.11zm.53-.06s-.02-.07-.03-.06zm.08-1.39h-.12c0-.05.07 0 .11 0a.11.11 0 01.08 0zm.33.75l-.07-.06h-.09a.41.41 0 010-.1l.14.14zm.45-.24l-.08.09H16a.32.32 0 01-.1-.1v-.08h.16c0-.05 0-.06.06-.06s.05 0 .05.05 0 .03-.05.04zm0-1a.4.4 0 010-.11l.09.09zm.28-.72s-.04-.08-.05-.09zm2.54-2s-.04-.09-.05-.08zm-.1-.73c-.05.05-.08.05-.13 0a.09.09 0 01.08-.08zM8.38 34s0 .06 0 0zm4.23-4.73zm-4.09 5.15s.03-.01 0 0zm.33-.12h-.17l.15-.15c.05 0 0 .1 0 .15l.05.06-.03-.06zm.24.22h-.15c.01 0 0 0 0 0s.15-.01.15 0zm.18-.06h-.06.05zm.09-.46c-.05-.06-.05-.06 0-.12h.06c-.02.12-.02.12-.06.12zm.13-.85zm0-.89s.08-.01.05 0zm.27-.08s.05-.01.05 0zm.51-.22s.08.04.05.04zm.68.28s.05-.01.05 0zm.1-.17s.06.01.05 0zm1.09-.54h.05zm.29-1.73s.08-.01.05 0zm.12.24v-.12c0-.06.06 0 .07 0s0 0 0 .06zm.15.94h-.06c.01 0 0 0 0 0l.11.02zm.3-1.49s0-.01 0 0zm.38.22s-.02-.01-.03 0zm.11 0a.27.27 0 01-.09 0c0-.06 0-.07.1-.05l-.04.01zm.12.41s-.02-.05-.03-.04zm.06-1.49h-.05a.08.08 0 010-.12s0 .05.07.06-.04 0-.05.02zm.28.24s-.02-.03-.03-.04zm.33-1.15s-.03-.05-.03-.04zm.33.92s0-.05-.03-.04zm.19-.64h-.12c.05-.05.05-.05.12 0zm0-.34v-.09a.06.06 0 01.04.12zm.23.25H15V28h-.06l.14-.15h.07a.07.07 0 01-.08.09zm0-.24a1 1 0 01-.17 0l.08-.09h.07l.07.09s.06.02.04.03zm.48-.19s.1.04.09.03zm.12-.12s.1.04.09.03zm.2-.13a.07.07 0 01-.1 0h.05s.15.03.14.03zm.46-.65s.1.04.09.03zm.15-.67h-.06c.01 0 0 0 0 0s.15.02.15.03zm.06-.3h-.06.05s.1.02.1.03zm.12.36a.06.06 0 01-.1 0 .07.07 0 01.1 0s.08.03.09.03zm.15-.22s.12.02.09.03zm.07-.66q-.08-.06 0-.12a.07.07 0 01.09.15zm.2.87s.1.04.09.04zm.06-.1a.13.13 0 010 .06.21.21 0 010-.08s.1.04.09.05zm.33-1.2s.1.04.09.03zm.26.11s.1.02.09.03zm.4.37s.1.04.09.03zm.57-1.14s.03 0 0 0zm.57-.93s.01.03 0 .04zm0 0zm.32.7s.04 0 .03.01zm.17-1.36h-.08c-.07 0-.07 0-.07-.09a.06.06 0 01.09 0 .31.31 0 01.09.07zm.71-.73s.04.02.03.01zm2.29.24h-.1v-.05l-.06-.07v-.06l.09-.09v.21a.34.34 0 01.1.07zM9.37 37.55s-.01 0 0 0zm0 .23a.07.07 0 01-.09 0l.08-.08a.08.08 0 01.09 0zm2.93-4h.08c.01 0 0 0 0 .06a.08.08 0 01-.08-.02zm-2.76 4.3s.03-.01 0 0zm.32-.32s.01-.01 0 0zm.43-1.26s0-.01 0 0zm.36.84s0-.01 0 0zm.81-1.34s.01 0 0 0zm.25-.53q-.08-.06 0-.12a.07.07 0 010 .15zm.13-1s.01.04 0 .05zm.52.56c0 .06 0 .08-.09.06h.08zm.06-.37s.01.06 0 .05zm.19-.05s.01.06 0 .05zm.06.06zm0 .39a.09.09 0 01.13 0 .08.08 0 01-.11.05zm.87-2.2s.03.06.02.05zm.62.59a.07.07 0 01-.1 0h.1s.03.05.02.05zm0-.53zm.23-1.38s.03.06.01.05zm.07.54v-.05s.04.09.01.1zm.11-.54s.02.06.01.05zm.2 1.44zm.28-2s.02.08.01.07zm.09.37s0 .06 0 0 .01.06.01.07zm.06-.56s.01.06.01.07zm0 .32s.07.06.04.07zm.51 1.06a.15.15 0 01-.1 0 1.28 1.28 0 010-.26l.09-.1c.06.19.06.19.05.43zm0-1h-.05c-.05-.06-.05-.06 0-.12h.05c.06.14.06.14.01.19zm.08.28s.02.06.01.07zm.42-1.45s.01.05 0 0zm.05 0s-.02 0 0 .05zm0 .27a.07.07 0 01.1 0 .06.06 0 01-.11.05zm.14 1.22l-.06-.05h.05c.03.04.03.04 0 .1zm.47-.53s0-.05-.06-.07 0 0 .05 0c.05.05.05.05 0 .11zm1.62-3.2s0 .06-.01.05zm.15 1.43s-.01.04-.01.05zm1.21-2.41a.08.08 0 01-.13 0 .09.09 0 01.12.05zm-.23 1h.13-.11s-.04.02-.03 0zm0 .28h-.06v-.05c0-.05 0 0 .05 0l.05.06h.12zm.24.12s0 .05-.06.07 0-.09 0-.13.05 0 .07 0 .01.05 0 .06zM20 26zm.2-.12zm.17 1.8s-.01-.05-.02-.05zm.6-.83zm.06.06zm0-.24s.06-.06.03-.05zm.24-1.15s.04-.04.03-.05zm.06.66s.04-.04.03-.05zm.38.11s.04-.06.03-.05zm.22-.95s.07-.04.07-.05zM22 25s.05 0 0 0zm.72-.48s.05-.01.02 0zm0-.12s.05-.01.02 0zm.12-.23h-.18v-.12h.2c.05 0 .02.1 0 .12zm0-.86s.03.01.02 0zm.25.54zm.47.48s.03.01.02 0zm.27-2.27h-.08a.05.05 0 01.1 0zm-.1.32v.1c0 .02 0 0 0 0s-.01-.08.02-.1zm-.34.28h-.06c-.06 0 0 0 0 0zM23.1 21a.2.2 0 01.09.09l-.08.09-.11-.1zm.06.35s.03-.02 0-.01zm1 1.05v-.11zM10.64 40.77h-.05q-.08 0 0-.12s0 .05.06.06 0 .04-.01.06zm0-1q0 .08-.12 0s.05 0 .06-.06 0 0 .05 0l.02.08zm.09.57s.04.01.01.02zm.75-1.23a.06.06 0 010-.1l.01.12zm.21.15s.04.01.01.02zm.36.72s.04.02.01.02zm.08-.19v-.09s.04.09.01.11zm.3-1.75s.02.01.01.02zm.25 1.32h-.11.11s.01.01.01.02zm.06-1.08h-.06c.01 0 0 0 0 0zm.3.6s.01.01.01.02zm.29.12h.01zm.31-1.51a.09.09 0 01.13 0c-.04.07-.07.07-.12.02zm.27.93h-.05v-.12h.05c.09.09.09.09.01.14zm.26-.26s.02.01.01.02zm.16-.23s.02.07.01.07zm.55-1.85zm.06.06zm.23.9c-.05-.05-.05-.05 0-.12.05.08.05.08.01.14zm1.12-1.77v-.12zm.3.12h.12zm.3-1.39a.06.06 0 01-.1 0 .07.07 0 01.1 0s-.01 0 0 0zm.39-.1s.03-.03 0-.02zm0-.73s.02-.02.01-.02zm.52-.45l.01-.02zm-.29.64h-.11v-.12h.11c.06.05.06.05.01.1zm.08-.44s.02-.03.01-.02zm.25.42h-.06.05zm.06-.18a.08.08 0 01-.12 0l.09-.09c.06-.01.04.03.04.07zm.09.19s.01-.01.01-.02zm1.63-2.45l.08.09a.41.41 0 01-.11 0zm-.75.68s.01 0 .01-.02zm-.44 1.62s-.01-.03.01-.02zm-.35-.35a.09.09 0 01.13 0 .08.08 0 01-.12-.02zm.15 1.11s.04-.03.01-.02zm.09-1.49v.05c0-.01.01-.05.01-.07zm.11 1.32h-.1c-.02 0 0 0 0 0v-.06a.3.3 0 01.11.04zm0-.49zm.14-.45a.09.09 0 01.13 0 .08.08 0 01-.07-.02zm.17.43s.07-.03.06-.02zm.1-.7l-.09-.09h.13c.05 0 .12.06.02.07zm.09-.51a.09.09 0 01.13 0 .08.08 0 01-.06-.02zm.3-.9a.09.09 0 01.13 0 .08.08 0 01-.07-.02zm.4 1.05h-.14l-.06-.08h.19c.11 0 .11 0 .07.06zm.16.11s.08-.01.06-.02zm.07-.72s.07-.01.06-.02zm.54-1.13l.06-.02zm.45 0c-.06.05-.06.05-.11 0v-.12h.11zm.39-1.06s.07-.04.06-.05zm.43.91l-.06.06a.48.48 0 01-.12 0h.09l.05-.06h.08c.02 0 .03-.06.02-.05zm0-.91s.07-.05.06-.05zm.11.6s.07-.02.06-.02zm.42-.17a.07.07 0 010-.12s.11.03.06.07zm.3-.85s.01 0 0 0zm0-.2v-.06l-.05-.06a.15.15 0 01.16 0v.22c0 .09-.04-.13-.08-.15zm.48.3a.09.09 0 01.13 0c-.02 0-.05 0-.11-.05zm.27-1.71s.06-.06.03-.05zm.12.11s.04-.04.03-.05zm.33-.61h-.11.12s.02-.06.02-.05zm.1 1.51zm.14-.91s.06-.06.06-.05zm.15.79s.04-.04.03-.05zm.08-.73l-.07.09-.1-.14h.11s.1-.01.09 0zm0-.27s-.01-.04.02-.05zm-.1-.94a.09.09 0 01.13 0c-.03 0-.06 0-.11-.05zm.41 1.46zm.37-1.09s.02-.06.02-.05zm1.08-1a.07.07 0 01-.1 0 .07.07 0 01.1 0zm-.23-1.16a.07.07 0 01.1 0 .07.07 0 01-.1 0s.02 0 .02-.01zm.07.16l.07-.05v.06l-.05.06s.06 0 0 .06-.05 0-.08 0a.6.6 0 01-.08-.08v-.06a.07.07 0 01.16 0zm.88.58s.02-.02.02-.01zm-14.51 18v.05c0-.01 0 0 0 0l.02-.04zm.27.3v-.12a.07.07 0 01.02.13zm.5-.86a.08.08 0 01-.12 0l.09-.09s.05.06.05.1zm.09-.53s0-.01 0 0zm0-.35s0 .01 0 0zm.45-.43s-.04-.01-.04 0zm.09-.29s-.03.01-.04 0zm.05.48s-.02.01-.04 0zm.14 1.15v-.12a.07.07 0 01-.04.12zm0-.9a.08.08 0 010-.12h.09zm5.8-6.4a.06.06 0 01.05 0v.12h-.05a.11.11 0 01-.05-.12zm-3 3.71h-.02zm-2.64 2.1h-.02zm0 .4s-.02.01-.03 0zm.21.59a.06.06 0 01-.1 0 .07.07 0 01.1 0zm.08-1.7s-.04.02-.03 0zm.09 1.7a.06.06 0 01-.1 0h.1-.03zm.23-2.14h-.06.17l-.09.09zm.31.65h-.09l-.06-.06c-.06-.06 0 0 0 0h.09a.34.34 0 00.06.06s-.02-.02-.03 0zm.3-.37s-.02-.01-.03 0zm.32-.12h.1a.06.06 0 01-.13 0zm.09.5q-.08-.06 0-.12a.08.08 0 01-.03.12zm.15-.75v-.12c0-.06.06 0 .07 0s-.08.09-.1.09zm.32.15s.01-.01.01 0zm.19-1.26a.3.3 0 01-.16 0v-.1h.06zm0-.25h-.03zm.5.95h-.09c-.05 0-.05 0 0-.11h.12zm.84-.72h-.06.05zm.15-.52s0-.01-.03 0zm.2-1.21zm.26-.44h.12v.06c-.09-.01-.09-.01-.15-.06zm.17.18h.05c.05 0 0 0 0 0q0 .08-.12 0s.03.02.04 0zm0 .39v-.12a.08.08 0 01.01.12zm.17.36h-.05v-.12h.06c.05.06.05.06 0 .12zm.15-1.1h-.06.05s.02-.01.02 0zm-.12-.49a.09.09 0 01.13 0c-.04.05-.07.05-.12 0zm.17.25s.02-.01.01 0zm.12-.18s.02-.01.01 0zm0-.22a.08.08 0 010-.12s.04.08-.01.12zM19 37zm0-1.15v-.09a.06.06 0 010 .09zm.22.25a.08.08 0 010-.12l.09.09s-.07.03-.11.03zm.29.36a.06.06 0 01-.07 0l-.06-.07h.15c.05 0 0 0 0 .08s-.02-.01-.04-.01zm0-.21a.09.09 0 01.13 0 .08.08 0 01-.17 0zm7.46-7.51s-.05.02-.04 0zm-4.24 4s-.07.02-.04.01zm-.6-.3s-.05.01-.04.01zm-1.48 2.3zm0-.15h-.05c-.05 0-.05 0 0-.11zM20 36.45s0 .01 0 0zm.15-.2a.09.09 0 01.13 0c-.07.05-.1.05-.15 0zm.15-.45s.01-.01-.02 0zm.15-1.65h.05c.05 0 0 0 0 0h-.12c-.05 0 .04.02.05 0zm0 1.09v-.07h.12v.11a.07.07 0 01-.08 0h-.11zm0 .72a.06.06 0 01-.1 0 .07.07 0 01.1 0s.03.04.04.04zm.06.14h.04zm.07-1.05c-.07.05-.07.05-.13 0V35h.13zm0-.63s.09-.01.06 0zm.09.45a.09.09 0 01.13 0 .08.08 0 01-.07 0zm.17-.35a.07.07 0 01-.1 0h.16zm.1-.4s.06-.01.06 0zm.21 1.3h-.06c.01 0 0 0 0 0s.12-.01.12 0zm.05-1.68s.07-.01.06 0zm.13.84a.08.08 0 01-.12 0l.09-.09c.11.01.09.05.09.09zm0-.52s.12-.01.09 0zm.18.72s.12-.01.09 0zm.21-.87a.09.09 0 01.13 0 .08.08 0 01-.04 0zm.18-.78v-.07c0-.01 0 0 0 0l.06.06c.06.06.04.06.04.01zm.15.74s.1.01.09 0zm.19-.23h-.06c-.05 0-.05 0 0-.12h.06c.13.06.13.06.09.12zm.2.46h-.06c.01 0 0 0 0 0zm.1-1.65h.09zm0 1zm.09.12h-.07v-.09h.09a.08.08 0 010 .07s.11.03.07.03zm.15-.42q-.07-.06 0-.12a.07.07 0 01.09.13zm.41-.24h-.07a.27.27 0 010-.15h.09l.07.09s.03.04 0 .07zm.36-1h-.12.11s.12.09.1.09zm.45-.61l-.08-.09a.08.08 0 01.07 0h.1c.02 0-.09.07-.09.09zm1-1.13c-.05 0-.07-.07-.11-.1s0-.06 0-.08l.09.08zm.11-.61v-.12a.08.08 0 01.04.12zm.26 1.72s.04-.01.04 0zm.18-1s.04.03.04.04zm.21-1.24a.07.07 0 010-.12q.12.08.04.16zm.64.26a.74.74 0 01-.12.13c0 .09 0 .1-.1.09s0 0 0-.08l-.05-.07.05-.06v-.07h.07l.07.06v-.09c.15-.01.1.06.12.13zm.5.09s.1.05.04.04zm.34-1.73v.05c0-.01 0 0 0 0l.04-.01zm.81-.65s.01.05.04.04zm-.39-.23a.07.07 0 01.1 0 .06.06 0 01-.1 0s.04.05.04.04zm1.91 4.94h-.05c-.05-.05-.05-.05 0-.11h.06s.03.14.03.15zm0-2.14a.07.07 0 010 .12s.03-.04.08-.08zm0 1.37s.14.05.12.05zm.6.42s.14.05.12.04zm.55-.59h-.06l-.06-.06h.05a.21.21 0 00.08 0c.16.04.16.04.11.1zm.51 2.44s.12.03.12.04zm.16-3.82c.05.06.05.06 0 .12.07-.01.07-.01.12-.08zm-.06 2.23s.09.05.12.04zm-.19-2a.23.23 0 01.07-.07s0 .05.06.06 0 0 0 .05l-.05.07s0-.01.04-.05zm-.05.35h-.01zm0 2s.11.02.12.02zm0 1.11s.08.04.08.05zm-.08-.58l.06.06v.05h-.05q-.02.02.07-.06zm-.25-3.82h.06-.12c-.06 0 .1.06.14.05zm-.11.7v-.05h.16c.04 0-.14.1-.12.2h-.14c-.06 0 0-.13-.1-.13s.24.06.28.03zm-.29 1.21s.06.05.08.05zm-.07-2.34s.07.05.08.05zm-.06.41h.07c.01 0 0 0 0 .06-.04.05-.04.05.01-.01zm-.14-.52s.07.07.08.05zm-.05 1.24a.08.08 0 010-.12q.16.11.08.17zm.01-1.39s-.05 0 0 0zm0 .89l.09.08c0 .05-.08 0-.13 0s-.01-.05.06-.06zm0 2.78a.08.08 0 01-.13 0 .09.09 0 01.08.02zm-.17-.85H30a.06.06 0 01-.1 0zm0 1.13zm-.06-1.33s.03.01 0 .02zm0-2h-.17.17zm-.17-.79h.05v.12l-.06-.05s.04-.04.04-.06zm0-.17a.08.08 0 01-.13 0 .09.09 0 01.16.01zm-.16 1.24c.05 0 0 .05 0 .09a.08.08 0 01-.12 0zm-1.08-.79s.06 0 .03.01zm0-.52h-.05v-.1a.09.09 0 010-.08s0 .05.06.07a.06.06 0 01.05.12zm.64 1.24l-.05-.05h.11c.04 0 .04 0 0 .06zm.2.27v-.07c0-.01 0 0 .06 0 .06.13.06.13 0 .08zm-.16 2.15a.07.07 0 01-.1 0l.16.01zm0 .16l.06.06c.06.06 0 0 0 .05q-.05-.02.02-.1zm-.67-.29a.48.48 0 010 .17h-.06zm-.34 2.17a.07.07 0 01-.1 0 .07.07 0 01.18.01zm-.14.75s.06.02.06.01zm.15-.55h-.05c-.05-.05-.05-.05 0-.11l.06.05zm0 .44s.14 0 .11.01zm0-.87h-.12c-.06 0 0-.06 0-.08v-.05c0-.05 0 0 .05 0h.05zm-.16-.25h.08l.05-.06h.07v.12h-.17s.1-.03.11-.05zm-.31-.72a.07.07 0 01.1 0 .06.06 0 01-.1 0s.14.02.14.01zm-.21-.73s.11.02.14.01zm-.12 1.08l.14.01zm-.27.25a.07.07 0 01.1 0 .07.07 0 01-.1 0s.14.02.14.01zm0-.13s.08.02.11.01zM27 33a.16.16 0 01.16 0h.1v.05l-.09.09h-.08c-.07 0-.07 0-.08-.09V33zm.12.3h-.13a.09.09 0 01.11.01zm-.29-1.21h.05a.07.07 0 01-.1 0zm0 1.85s-.09.06-.06.06zm-1.57 1.86v.12h-.11v-.12zm.64-2.9s-.02.02 0 0zm0 0l-.05.04zm-.28 1.49s-.08.05-.05.04zm0 .31s-.08.06-.07.04zm-.35-1.15zm-.12.12h.01c-.16.1-.16.1-.08.04zm0 .39s-.15.06-.09.04zm0 0l-.15.08zm-1 .72s-.15.1-.1.08zm-.42.35zm0 .3s-.09.08-.08.08zm-.15 2.12h-.13a.09.09 0 01.05.08zM23.35 36s-.03 0 0 0zm-.21 0v.05c0-.01 0 0 0 0s-.01-.05 0-.05zm-.51 1.35s-.03.03 0 .02zm-.18-.31h-.01c-.06 0 0 0 0 0zm-.09.15a.08.08 0 01-.13 0 .09.09 0 01.13.02zm-.15.82s-.01-.01 0-.01zm-.12-.54s-.01.02 0 .02zm-.24 1.07h-.01c-.06 0 0 0 0 0zm-.12-1.31s-.03.03 0 .02zm-.36.24s-.03.03 0 .02zm-.12.78s-.03.03 0 .02zm-.08-.65s-.01.04 0 .02zm-.41 1.12v.11a.08.08 0 010 .07v-.1a.11.11 0 010-.06zm-.11.79a.21.21 0 01-.08 0 .76.76 0 010 .15l-.08-.08a.08.08 0 010-.1h.09c-.01.04.01.03.07.05zm-.21-1.07s-.01.05 0 .02zm-.06.92l.09.09-.08.07a.4.4 0 01-.01-.14zm-.11 0s-.01.08 0 .06zm-6 6.64s-.02.05-.05.06zm4.31 3.26a.3.3 0 010 .16v-.1c0-.03-.06.02-.05 0zM17.75 48s-.01 0 0 0zm-.22.46l.08.09a.23.23 0 010 .14h-.13a.08.08 0 010-.1v-.07c0-.07.02-.04.05-.06zM17.4 48h.06c.05.07.05.07 0 .15v.18a.68.68 0 010-.19l-.05-.07zm-.4-.29h.08c.02 0 0 0 0 0a.06.06 0 010 .07l-.07.06c-.01-.02-.01-.08-.01-.13zm-1.14-1.27s.01.03.02 0zm-1-.09h.03zm.68-1.82a.09.09 0 01.13 0 .08.08 0 01-.1 0zm.15-.46s.04.01.03 0zm.06.24s.04.01.03 0zm.06-.35s.06.04.03.04zm.3-.3a.08.08 0 010-.12l.09.09s-.02.03-.06.03zm.23-.07s.05.01.03 0zm8.43 7.73s.04-.01.03 0zm1.4 1.13v-.05l.03.05zm-.29 0s.02.07.03.05zm-.88-.78zm0-.26zm-.3-.49l.06-.05h.06v.11h-.09a.05.05 0 01-.05 0zm-.06-.11h-.03zm-.12.42s-.06.01-.03 0zm-.12-.72s-.06.01-.03 0zm0 .38h-.12zm-.11.35h.1a.06.06 0 01-.1 0zm0 .53h.02zm-.21-.51l.09.09-.08.07h-.05a.45.45 0 01.06-.16zM24 51zm-.08-.41s0 .01.01-.01zm0 .82s0 .05.06.06h-.05q-.11.01-.04-.07zm-.2-1.72s-.04.01-.03-.01zm-.32.67c-.07-.08-.07-.08 0-.14h.06c.05 0 0 .12.08.14l-.06.07v.07a.25.25 0 01-.17 0v-.07c-.03-.07.05-.02.06-.08zm-.14-.44s-.06 0-.03-.01zm0 1a.07.07 0 010 .12q-.1-.12-.03-.18zm-.4-.14a.06.06 0 01-.1 0 .07.07 0 01.1 0s-.04-.06-.03-.06zm.14-1.64s0 .02 0 0zm-.24.15h.18v.07a.55.55 0 01-.12.14l-.1-.07.06-.07zm-.28.07h.11-.12zm-.11-.36zm-2-1.59v.01zm1.8 1.2v.01zm0 1.28a.07.07 0 010-.12q.11.07.03.13zm-.05-1.55l.09.08h-.13c-.05 0 .02-.06.07-.07zm-.24.54s.02.01.03.01zm-.24-.72s0 .02.03.01zm-.32 1.15s.02.03.03.01zm-.09-.44a.11.11 0 01.08 0 .13.13 0 010 .06s-.1-.05-.16-.06.07.02.11.01zm-.2-1.07zm-.77-1.09h.05c.05.06.05.08 0 .12s0-.07 0-.11a.09.09 0 01-.02 0zm-.45-.62s.01.03.03.01zm-.05 0l.03.05zm-.31 1s.09 0 .09.08v.11l-.07-.09h.01zm-.23-1.77s.02.12.03.1zm-.18-.18s.02.12.03.1zm0 .29h.12-.11c-.05.16-.05.16.03.1zm0 .45s0 .06 0 0 .01.12.02.12zm-.19-.72a.07.07 0 01-.1 0 .07.07 0 01.1 0s.01.1.02.1zm-.11-.37l.02.1zm-.22 1.36a.08.08 0 01.09 0l-.08.09a.07.07 0 01-.09 0zm-.17-.12a.28.28 0 010 .09l-.08-.08h.08zm-.2-1.61h.09v-.12c-.06 0-.08 0-.06-.09a.25.25 0 010 .08.11.11 0 010 .08s0 .08-.1.06zm-.86-.71s.01.08.02.1zm0 .69h-.06v-.05c0-.05 0 0 .05 0 .05.09.05.09.01.15zm0-2zm-.23.35l.09.09c0 .05-.05 0-.09 0a.08.08 0 01.04-.02zm-.19.08h.05c.05 0 .05.08 0 .13s0 0-.06-.07.04.03.05.01zm0-.13s-.01.07 0 .07zm-.26 1.32zm1.13-2.61s-.02.09 0 .07zm0 0l-.05.11zm0 1.39h.12c.05 0-.11.09-.12.11zm.26-1.06a.08.08 0 010-.12h.09zm.42-.66s.03-.01 0 0zm.06-.24s.03-.01 0 0zm.06-.36s.03-.01 0 0zm2.35 3s-.03-.04 0-.05zm-1.25-2.34s-.02-.05 0-.05zm-.15-1.43s-.01-.03 0-.05zm-.76 1.91l.09.08c0 .05-.08 0-.13 0s-.01-.12.04-.13zm.47.83s.03-.06 0-.05zm.06.12s.03-.06 0-.05zm.36-.78a.11.11 0 01-.1 0c-.07 0-.16 0-.22-.05l.05-.07v-.08a.14.14 0 01.08.07.42.42 0 010 .1h.06c.06 0 0-.09.06-.12s0 0 0 .08 0 .05.05.07a.26.26 0 01.02-.05zm.45.09a.09.09 0 01.13 0 .08.08 0 01-.13-.05zm.24.42l-.09-.09.08-.07a.48.48 0 01.01.11zm.11 1.33s.01-.06 0-.05zm.28-.22s.03-.06 0-.05zm.18.41s.01-.04 0-.05zm.72.49s.03-.06 0-.05zm.09 0a.09.09 0 01.13 0 .08.08 0 01-.13-.02zm1.5 1.87a.08.08 0 01-.12 0l.09-.09c.05-.01.03.03.03.07zm.12-.9a.07.07 0 01-.1 0 .07.07 0 01.1 0zm.11 1s.01-.07 0-.06zm.17.5s0 .05-.06.07-.05-.09 0-.13 0 0 .07 0 0-.01-.01 0zm2.7 1.81s-.03-.05 0-.06zm-2.4-1.63h-.06v-.12h.06c.04 0 .04 0 0 .06zm.25.1s.01-.06 0-.06zm.05.19s.01-.06 0-.06zm.15-.93a.07.07 0 01.1 0 .06.06 0 01-.1 0v-.06zm.1 1.4a.07.07 0 01-.1 0h.05s.06-.06.05-.06zm0-.46s.07-.07.04-.06zm.15.69h-.12v-.06h.12zm.18.66a.09.09 0 01.13 0c-.01-.01-.04-.01-.09-.06zm.17-.17a.07.07 0 01-.1 0H25v-.06zm.32 0h-.07c-.01 0 0 0 0-.06s.06 0 .07 0 .06-.03.04-.01zm.1-.82s-.09 0-.13.06-.07 0-.1 0l.11-.09h.11zm.05.61v-.1a.11.11 0 01.05-.09c.01.02.04.08-.01.12zm.3 0s0-.05-.07-.07.14-.04.11.01zM26 48zm.31 1.39a.08.08 0 010 .12q-.1-.09-.02-.15zm.05.59s-.01.02-.02.02zm2.05.44s-.03-.03-.02-.03zm-1.27-1.27a.08.08 0 010-.12q.06.03-.02.09zm.54 1a.4.4 0 01-.11 0l.03-.15.09.09s-.02-.01-.03-.01zm0-.24a.08.08 0 010-.12q.06-.01-.02.05zm.33.94s-.01-.08-.01-.07zm.19 0s-.06.05-.12 0l.05-.06s.05-.01.05.01zm.22 0a.06.06 0 01-.1 0h.1s-.01-.07-.02-.07zm.14.35h-.13l.07-.06s.04-.02.04-.01zm.14.87s.01-.07-.02-.07zm.57-.26s-.02-.08-.02-.07zm.05.48s-.01-.08-.02-.07zm.53 0s-.01-.12-.02-.12zm.05-.35s.01-.13-.02-.12zm.41.53s0-.11-.02-.12zm6.29-9.41z" fill="#281e53"/><path d="M27.5 50A22.5 22.5 0 015 27.5 22.5 22.5 0 0127.5 5 22.5 22.5 0 0150 27.5 22.5 22.5 0 0127.5 50z" fill="#fffa0c"/><path d="M23 22a4 4 0 00-4 4v6a4 4 0 008 0v-6a4 4 0 00-4-4zm1 10a1 1 0 01-2 0v-6a1 1 0 012 0z" fill="#28282a"/><path d="M40 16h-4v-3.5A12.77 12.77 0 0023 0a12.77 12.77 0 00-13 12.5V16H6a6 6 0 00-6 6v20a6 6 0 006 6h34a6 6 0 006-6V22a6 6 0 00-6-6zm-27-3.5A9.77 9.77 0 0123 3a9.77 9.77 0 0110 9.5V16h-2v-3.5A7.77 7.77 0 0023 5a7.77 7.77 0 00-8 7.5V16h-2zm15 0V16H18v-3.5A4.77 4.77 0 0123 8a4.77 4.77 0 015 4.5zM40 45H6a3 3 0 01-3-3h40a3 3 0 01-3 3zm3-6H3V22a3 3 0 013-3h34a3 3 0 013 3z" fill="#28282a"/></g></g></svg>