<svg xmlns="http://www.w3.org/2000/svg" viewBox="0 0 50 50"><g data-name="Layer 2"><g data-name="Working Layer"><rect x="5" y="5" width="45" height="45" rx="22.5" fill="#fffa0c"/><path d="M23 22a4 4 0 00-4 4v6a4 4 0 008 0v-6a4 4 0 00-4-4zm1 10a1 1 0 01-2 0v-6a1 1 0 012 0z" fill="#28282a"/><path d="M40 16h-4v-3.5A12.77 12.77 0 0023 0a12.77 12.77 0 00-13 12.5V16H6a6 6 0 00-6 6v20a6 6 0 006 6h34a6 6 0 006-6V22a6 6 0 00-6-6zm-27-3.5A9.77 9.77 0 0123 3a9.77 9.77 0 0110 9.5V16h-2v-3.5A7.77 7.77 0 0023 5a7.77 7.77 0 00-8 7.5V16h-2zm15 0V16H18v-3.5A4.77 4.77 0 0123 8a4.77 4.77 0 015 4.5zM40 45H6a3 3 0 01-3-3h40a3 3 0 01-3 3zm3-6H3V22a3 3 0 013-3h34a3 3 0 013 3z" fill="#28282a"/></g></g></svg>