<svg xmlns="http://www.w3.org/2000/svg" viewBox="0 0 53 52.5"><g data-name="Layer 2"><g data-name="Working Layer"><path d="M16.06 22.6s0 .06.06.06-.02-.05-.06-.06zM30.67 41h.06v-.06zm-.14-.2c.06 0 .08 0 .1-.06h-.11z" fill="#281e53"/><path d="M30.34 51.4h-.06l-.09-.09h-.11a.08.08 0 01.08 0l-3.51-3.51h-.06c0-.05-.05-.05 0-.1L23 44.06l-.63-.62-2.59-2.58 1.05-1.06L24 43l3 3h.12-.08l6.25 6.26c.33 0 .66-.09 1-.15h.12l.78-.15-.16-.16v-.11l-.03.03h-.06c-.05-.06-.05-.06 0-.13l-3.24-3.24a.08.08 0 01-.07 0h.06l-3.68-3.68h-.09l-5.95-6 1.05-1L30.34 45h.08c.01 0 0 0 0 .06l.47.48a.32.32 0 010-.17h.07l.09.09a1.22 1.22 0 010 .27l2.66 2.66 3.27 3.28c.56-.17 1.12-.35 1.66-.56L31 43.45h-.12l-.06.06.12-.12L29.53 42l-.15-.14-1.33-1.36v.07-.11l-4-4 1-1 5.4 5.4v-.05a.17.17 0 01.14 0 .24.24 0 01.09.08V41c.06 0 .08.06.06.1h-.06l.78.78c.08 0 .08 0 .08.07l1.48 1.48L40 50.39c.47-.22.93-.46 1.39-.72l-.69-.69-.37-.37-.57-.57-13.41-13.56-.15-.16 1-1L28.9 35v.07l7.55 7.56v-.14h.19v.19l1.8 1.8 4.11 4.12a.25.25 0 010 .08l.15.15c.45-.3.89-.61 1.32-.94l-15.7-15.74.14-.14h-.05l.11-.09h.05l.77-.77 2.7 2.7h.06L45.23 47c.4-.35.79-.71 1.17-1.09l.33-.34h-.08c-.08 0 0-.06 0-.07s0 0 .06 0a23 23 0 004-5.85L46.54 44h.06-.11l-1 1-1-1 1.65-1.65 3.07-3.06a.06.06 0 01.09 0l2.25-2.25.51-.51a22.7 22.7 0 00.57-2.47h-.06c.01 0 0 0 0 0v-.35l-.59.59-.75.75h.17l-.08.08h-.12v-.1l-8 8-1-1L53 31.17V29l-.79.79v.13c0 .05 0-.05-.06-.06L50 31.91V32l-5 4.9a.05.05 0 010 .1l-3.74 3.73-1-1L48.82 31a.08.08 0 010-.08l1.51-1.51h.08L52.8 27c-.08-.64-.19-1.26-.32-1.87l-1.69 1.68v.06l-11.73 11.7-1.06-1 3.7-3.7h-.05l.13-.13a.07.07 0 000-.05L43 32.52v-.06a.11.11 0 010-.09v.1l.86-.87-.06-.06c-.06-.06.09-.05.13 0s0 0 0 .05l.94-.93a1.06 1.06 0 00-.11-.09h.08a.17.17 0 01.08.06l6.24-6.24a.07.07 0 010-.12l.06.06.8-.8c-.17-.55-.35-1.09-.56-1.62L40.72 32.63h.09v.17l-.06-.06h-.12L39 34.32v.1l-2.05 2-1.06-1.07 4.75-4.75 2.73-2.74 7.45-7.46c-.23-.48-.48-1-.74-1.42l-5.39 5.4-.39.4-2.61 2.62h.05-.11l-4.68 4.69-2.11 2.11-1.08-1.07 8.89-8.89h.06v-.09l.54-.54 6-6c-.29-.43-.58-.85-.89-1.26l-2.06 2.06-2.47 2.47-2.47 2.52a.09.09 0 010 .11l-.05-.05L32.8 32h.06v.06h-.13l-.11.11-1.08-1.08.83-.83a.71.71 0 01-.07-.09v-.1l.12.12 15-15c-.33-.37-.67-.74-1-1.09a22.72 22.72 0 00-5.93-4.25l5.09 5.08-.42.42-.66.65-.94-1h-.13l-2.49-2.49h-.11v-.07h-.06l-3.84-4.01a23.7 23.7 0 00-2.8-.64L35.33 9h.07l8 8-1.06 1.06-7.84-7.76-2.76-2.77h-2.12l2.84 2.85 1 1a.24.24 0 01.08-.06c.07 0 .09.05.14.09v.06l-.06.06 7.53 7.53v.05l.12.11-1.06 1.06-6.11-6.09H34h.05L27.7 7.78h-.56c-.47.07-.93.15-1.38.25l6.64 6.65v-.05c0-.05 0 0 0 0a.13.13 0 00.06.05v.14l4.5 4.5a.08.08 0 01.08 0l.09.08h-.1l2 2h-.07l-1 1-4.26-4.26-9.7-9.7c-.56.16-1.11.35-1.65.56l3.79 3.79v.05l1.31 1.31h.07l9.33 9.33-.35.52-.14.14-.44.44-3.36-3.36v-.12L23.3 12h-.07c-.01 0 0 0 0-.05L21 9.62l-.95.47v.11c0 .03-.07.07-.09.11l-.09-.09-.36.2 11.26 11.24 4 4-1 1-.21-.21-7.11-7.12-.06.06c-.05 0-.06-.06-.09-.08v-.13L26 19l-7.8-7.84q-.68.43-1.32.93l6.78 6.78h.05l.09.09h-.05l8.88 8.88-1 1-6.33-6.33a.07.07 0 010-.06l-6-6h-.07l-.81-.81L15.76 13l-.37.33c-.26.24-.52.48-.78.74a23.28 23.28 0 00-3.45 4.44v.11c0 .05 0 0 0 0l-.07.06c-.23.4-.45.81-.66 1.22l.78-.77 4.21-4.21a.17.17 0 010-.07l.09.09v.09l1 1-.66.65v.05a.07.07 0 01-.08 0l-2.85 2.85H13v.12c0 .06-.07-.06-.09-.12l-1.74 1.74h.05a.06.06 0 01-.1 0L9 23.51c-.1.35-.2.71-.29 1.07s0 0 0 .06h-.1c-.13.55-.25 1.11-.34 1.68l3.08-3.08 6.14-6.14 1.07 1.06-4.55 4.55-1.56 1.59L8 28.71v2.2l7-7a.11.11 0 010-.05l4.67-4.67 1.05 1.06L17.07 24v.06a.08.08 0 010 .07A.07.07 0 0117 24l-4.82 4.82-4 4c.05.41.12.81.19 1.21l.12.61 13.37-13.26 1.05 1-4.27 4.27h-.08L16 29.32h.07v.05a.06.06 0 010 .07.2.2 0 00-.06.07l-.01-.07L12.32 33h-.05l-3 3h-.08l-.31.31v.11l.1-.1h.13v.08l-.07.07v.06c0 .05-.09 0-.14 0l.12.38s.09.27.14.4 0 0 .05 0 0 0 0 .05c.06.17.12.35.19.52l6.4-6.41 2.55-2.55.04.08h.08s.05 0 .06.05l1.2-1.2 1.47-1.46-.06-.07v-.05h.11L24 23.53l1 1-4.88 4.88v.11h-.02l-1.23 1.23-.8.8H18l-.05.07-.57.57a.06.06 0 01-.1 0l-7.21 7.21c.23.51.48 1 .75 1.48l.77-.76 5.55-5.55 1.11-1.11h.05l7.78-7.78 1 1-.87.87h-.06l-6.75 6.96h-.05l-5.51 5.52h-.09l-2.16 2.16q.43.67.93 1.32l7.09-7.09 8.63-8.63 1 1-.28.29h-.1l-2.37 2.37-1.87 1.87v.06l-.15.15h-.1l-1.69 1.69-.87.87h.08v.06c0 .05 0 .05-.11 0l-.27.26-1.71 1.72.07-.06h.2c.05 0 0 .09 0 .14s0 0-.05 0H20a.14.14 0 01-.16 0h-.05a.14.14 0 000-.09l-.62.62a.06.06 0 010 .1v-.07l-1.39 1.38a.09.09 0 010 .08l-2.85 2.85-1.38 1.38c.35.4.72.8 1.1 1.18a22.12 22.12 0 003.25 2.69 22.7 22.7 0 002.62 1.53l-2.82-2.81h-.12l.06-.06-2.07-2.07h-.08l.98-.92 3.09 3.09h.06l2.64 2.64a.1.1 0 010 .1l.66.66 1 1a22.44 22.44 0 002.81.65l-7.45-7.45h-.05v-.05l-1.77-1.77 1.07-1.07 5.21 5.2a.07.07 0 01.11 0v.07l.05.07h-.06l5.38 5.37h2.19l-1.07-1.07zm1.23-1zm1.28.34l-.08.08a.88.88 0 010-.23.13.13 0 010 .06l.05.05zm.63 1.34s.03.03 0 .04zm.05-.12s.02.04 0 .04zm.8-.42h.18s0 .05.06.06l-.07-.05h-.11zm-.84-1.24s-.01.03 0 .04zm0 .29c.05 0 0 .06 0 .08l.06.07h-.22v-.06a.86.86 0 01.15-.05zm-.19 1.22s-.02.05-.01.04zm-.11-1.29a.08.08 0 010 .13.09.09 0 01-.01-.09zM33 50.5l.06.06v.12H33v-.18zm-.09-.08s-.01.02.01 0zm-.05 0s0 .06.01.04zm-.26-.52h.15a.07.07 0 01.1 0v.1a.56.56 0 01-.22 0s-.01 0-.02-.06zm-.1.89s0 .05.01.04zm0-.18a.06.06 0 010-.1l-.01.14zm-.14-1.17h.11l-.09.09-.07-.08s.01.05.04.03zm-.5-.39s-.02.05-.01.04zm0 1.67s0 .03.01.04zm-.08-1.85s0 .05.01.04zm-.34.57h.11v.09a.17.17 0 01-.14 0zm-.05 0s-.01-.01.01 0zm-.15-.95s0 .01.01 0zm-.3.9s0 .01.06 0zm-.06-1.62s0 .01.01 0zm-.13.89s.01.02.01 0zm0-1.16a.09.09 0 010 .13.08.08 0 01-.02-.13zm-.44 1.35s-.03.01-.02 0zm-.06-1.26s-.03.01-.02 0zm-.95.1h.06c.05.05.05.05 0 .11h-.06s-.05-.05-.02-.11zm-.07.24zm-.54-2.44s-.03.01-.02 0zm0 .18s-.03.01-.02 0zm-.6-.3s-.03.01-.02 0zM28 46.74h.09a.08.08 0 010 .12h-.07l-.06-.06c-.06-.06.04-.04.04-.06zm-.54-2.15s0 .01.01 0zm-.6.66a.71.71 0 01.07-.09H27l-.14.15s-.02-.03.01-.06zm-.15-.25s-.01 0 0 0zm-.09.32a.06.06 0 010 .05h-.13c-.05 0 .11-.03.13-.06zm-.33-1.11a.09.09 0 010 .13c-.05-.06-.05-.09 0-.14zm-.24.08s-.05-.02 0-.01zm-.42-.54s-.01-.02 0-.01zm-.08.61s-.01 0 0-.01zm-.1-.85s-.01-.02 0-.01zm-.72-1.33s-.03 0 0-.01zm-.24 1s-.03.02 0 .01zm-1.16-2.08s-.01.02 0 .01zm-.12.72s-.01.02 0 .01zm-.08-1.31v.12c0 .06-.06 0-.07 0s.05-.09.07-.11zm-.38.45h-.06zm-.24-.35s-.01 0 0 .01zm-.24.48s-.01 0 0 .01zm-.12-1.75s-.03.02 0 .01zm-.2.8s-.01.02.05.01zm-.06.54s-.01.02 0 .01zm-.52-.5l-.06.06c-.06.06 0-.09 0-.13s.05 0 .07 0 0 .06-.01.08zm.11-.79s.03 0 0 .01zm0-.32s.03 0 .02.01zm.31.48a.06.06 0 01-.1 0h.1l.02.01zm15.4 11.07a.08.08 0 010 .12l-.09-.09s.07-.02.11-.02zM37 49.7l.09.09-.07.05v.06c0 .06 0 0 0 0a1 1 0 01-.02-.2zm0 1.41zm0 .31a.06.06 0 010 .1.06.06 0 010-.1zm-2.27-2.25s-.04.01-.05 0zm1.2 1.33s-.02-.01-.05 0zm.25-.35s-.08.01-.05 0zm-.18-1.6a.08.08 0 01-.13 0 .09.09 0 01.13 0zm-.28 1.29l.09.09h-.09a.08.08 0 01-.02-.09zm-.25-1.77s-.03.01-.02 0zm.11 1.2h-.13a.09.09 0 01.11 0zm-.35-.27s-.03 0 0 0zm-.44-1.3s-.01.02 0 .01zm0 .24s-.01.06 0 .06zm0-.12h-.1.05zm-.22-.43h.1s0 .07-.09 0zm-.12.08h-.08c-.06 0-.08-.07-.13-.1h.08c.04.03.06.08.11.11zm-.25-.42s-.04.03-.02.01zm0 0s-.08.07-.07.05zm-.1-.61s-.1.06-.1.05zm-.26.2s-.08.06-.07.05zm-.06.6s-.08.06-.07.05zm0-1s-.14.02-.11.01zm0 .42s-.14.02-.11.01zM31 44.18c-.05 0 0 .11-.07.15l-.09-.09c0-.05.06-.06.08-.09H31s.06.03 0 .03zm.63 1.34h.04zm0-.15s.09-.01.08 0zm.11 0h-.1c0-.06 0-.08.09-.06zm1.66 2.31zm-.2-1.3a.09.09 0 01-.13 0 .08.08 0 01.21-.04zm-.34.86h.09l-.09.09.08-.13zm-.12-.34zm0-1.6a.09.09 0 01-.13 0 .08.08 0 01.19-.04zm-.21.16s.05-.05.06-.04zm0 1c0 .06-.09 0-.15 0h-.05v-.14h.14zm-.15-.32a.05.05 0 010 .09.34.34 0 01-.08.09h-.06l-.09-.09v-.07c0-.01 0 0 .06 0h.07zm-.09-.57h-.13c-.06 0 0 0 0 0v-.06l.08-.07s.04.03.07.06zm-.1-.49s.01-.08.02-.08zm-.09-.25h-.06c.04-.07.05-.09.08-.07zm-.09.06s-.01-.05-.01-.07zm-.13 1.39h.05s-.04-.05-.03-.07zm-.25-1.37h.05a.06.06 0 01.07 0l.07.07-.09.08c-.05 0-.06-.07-.1-.08zm0 1.37s-.03-.06-.02-.07zm-.09-1.64s-.04-.07-.02-.07zm-.18 1s-.01-.03-.02-.02zm0-.48h-.1.1zm-.08-.33v.01c0-.05 0 0 0 0zm-.38-1h.2l.06-.05.09.08V44h-.33v-.08zm-.09-.24s-.03.02-.01.03zm-1-.08v-.06c0-.06 0 0 0 0s-.01.08-.04.09zm0-.5zm.92 1.23h.09l-.09.08c-.11.01-.11.01-.07-.05zm-.16.52v-.1c0-.02 0 0 0 0s-.04.11-.07.13zm-.1-1.37c.06 0 .08.07.12.1a.07.07 0 01-.1 0l-.15-.14c-.03.05.02.09.06.07zm-.18 1.23h.1a.06.06 0 01-.1 0zm-.29-2s-.08.06-.07.05zm0 1.25h.07v.06c0 .01 0 0 0 0s-.1 0-.14-.07V44l.05-.05c.05-.05-.1-.04-.08-.03zm-.17-1.3h.12c.06 0-.06.07-.12.09zm0 .1s-.15.07-.14.05zm-.22.23s-.17.1-.14.1zm0 1a.08.08 0 01-.13 0 .09.09 0 01.02.03zm-.35-1.56s-.12.04-.11.03zm0 .7v.06c0-.01 0 0 0 0s-.16-.03-.15-.03zm-.06-.23s-.2.02-.15.03zm-.08.67s-.12.04-.12.03zm-.28-.74s-.18.04-.15.03zM28 40.83l.14.15L28 41zm0 .71h.15c.06 0 0 .1 0 .12h-.12c-.06 0-.03-.1-.03-.12zm-.05 0s-.01.06.05.04zm0 .3s.05.03.05.04zm-.14-1.25s.01.05.02.04zm-.24.11zm0 .59s-.05.05-.02.04zm-.1-.69h-.11zm-.32-.7h.07c.01 0 0 0 0 .06-.14.04-.14.04-.09-.02zm-.62-.88v.1s-.05-.04-.02-.06zm-.53-.34h.07c.01 0 0 0 0 .06-.07 0-.07 0-.07-.06zm-.54-.16s-.02-.01-.01 0zm-.26 1.27s-.02.01-.01 0zm-.1-1.39s-.02-.01-.01 0zm-.54-.78s-.02-.01-.01 0zm-.08.37s-.02.01-.01.01zm-.3.29s.05.08 0 .13 0 0-.06-.06.04-.05.05-.07zM40.6 48.85a.06.06 0 01.1 0h-.1zm0 1.06v.1a.06.06 0 010-.1s-.03.01-.03 0zm-.14-.12h.11a.31.31 0 01-.09.07h-.05c-.07-.07-.07-.07 0-.07zm-.28.31a.71.71 0 01.09.07h-.1a.71.71 0 01-.09-.07s.04-.03.07 0zm-.43-.67zm-.35-.11s-.04-.01-.03 0zm-.12-1.8s-.04-.01-.03 0zm-.06.35h-.03zm0 1.43a.09.09 0 010 .13.08.08 0 01-.03-.13zm-.25-1.66zm-.49-.3s-.04.02-.03 0zm-.31-.78s-.03.02-.03 0zm0 .27v-.14h.06c.05 0 0-.06 0-.09s0 0 .05 0v.15l-.14.14h-.05zm-.31-.15s-.06-.01-.05 0zm-.43-1zm-.07-.18zm-.1.36s-.08-.02-.05-.03zm-.26.73h-.1zm-.52-1.51s-.08-.02-.05-.03zm-.22 1.23l-.08.08s-.06-.06-.1-.08l.09-.1c.05-.02.05-.02.04.07zm-.14-1.71s-.12-.02-.05-.03zm-.09 1a.06.06 0 01.1 0 .06.06 0 01-.1 0l-.03-.05zm-.17-.78s-.06-.04-.05-.05zm-.1.88h-.06s-.01-.04.01-.05zm-.21-1.48s-.06-.03-.05-.05zm0 .54s-.11-.04-.1-.05zm-.16-.25s-.11-.06-.1-.05zm0 .3s-.11-.06-.1-.05zm0-.11a.08.08 0 01-.13 0 .09.09 0 010-.05zm-.69-1.94s-.16-.04-.13-.05zm-.15.56h.1c.02 0 0 0 0 0h-.1zm0 1.24h.06l.08.09h-.05l-.09-.08s-.11-.06-.1-.06zm-.2-.16s-.11-.04-.1-.05zm-.12-1.62s-.11-.04-.1-.05zm-.22.7s-.13-.04-.1-.05zm0 .7H34v.1a.07.07 0 010 .07.34.34 0 00-.06-.06.06.06 0 01-.06-.16zm-.29-.63a.06.06 0 010 .1.06.06 0 01-.13-.15zm-.34-.73s-.14-.05-.13-.05zm-.82-1.53s-.13-.06-.13-.05zm.32 1.19s-.14-.04-.13-.05zm-.07-1v-.01c0-.06-.14.01-.13.01zm0 .26a.08.08 0 010 .13.09.09 0 01-.17-.13zm-.23-.64s-.18-.01-.17 0zm-.12.16v-.06c0-.06 0 0 0 0l-.17.06zm0-.84v.13c0 .05-.08 0-.09 0zm-.6 0s-.2.02-.17.01zm0 .25s-.18 0-.17.01zm-.06.83s-.2.02-.17.01zm-.16-.7l.06.06v.06l-.15-.14c-.13-.01-.12-.01-.08.03zm-.11-.29s-.19.03-.17.01zm-.05 0s-.18.07-.17.05zm-.17.82l.07.07c.07.07 0 0 0 0s-.27.03-.24-.02zm-.35-2a.14.14 0 01.11 0l-.09.09h-.07a.06.06 0 01-.12-.07zm-.13-.43a.08.08 0 010 .13.09.09 0 01-.17-.11zm-2.68-1s-.15-.03-.15-.02zm2.08 2.1s-.01 0 0 0zm-1.06-2.59s-.01.02 0 .03zm-.12.29s-.05.04 0 .03zm-1-.85l.06-.06c.06-.06.05.09 0 .13s-.05 0-.07 0 .03-.02.04-.04zm-.05-.49s0-.01 0 0zm0 .64zm0 .66v.02zm-.41-.66h.07a.06.06 0 01-.1 0zm-.18.07s-.01.03 0 .02zm-1.12-1.57s-.01.01 0 .02zm14.21 10s.03.01 0 .02zm.49.06zm2.06 2.56h-.06.05s.01.01.01.02zm.63-.27v.05a.06.06 0 010-.03zm-.5-.29v.02zm-.24 0h.12v.06h-.12zm-.18.36h.05s-.06-.01-.05-.03zm0 .16s-.06-.02-.03-.03zm0 .62s-.06-.02-.05-.03zm-.1-1.52h-.06zm0 1zm-.1-.25s-.1-.05-.07-.06zm0 .12s-.1-.05-.07-.05zm-.26-1.3s-.08-.05-.07-.06zm-.1-.38s-.1-.05-.07-.06zm0 1.58s-.1-.05-.09-.06zm-.31-.95s-.01 0 0 0zm-.24.6s-.01.03 0 .04zm-.5-1.14h.07a.07.07 0 010 .05l-.09-.08s-.01.08.02.07zm-.07-1.13a.08.08 0 01-.13 0 .09.09 0 01.13.04zm-.14.11s-.02.03 0 .04zm-.27-.66h.05-.1l.05.04zm-.05.88l.07.06h.07c.02 0 0 0 0 0l-.06.06h-.12c-.06 0 0-.11 0-.16s.01.09.04.08zm-.26-.87l.06-.06a.06.06 0 01.07 0v.12l-.08.08-.09-.08zm0 .6s-.06.05-.05.04zm-.22-1.16s-.08.05-.05.04zm-.48-.12s-.08.05-.05.04zm-.43-.89zm-.06.7a.08.08 0 010 .13.09.09 0 01-.05-.05zm-.7-1.55s-.07.04-.05.04zm-.37-.06s-.1.05-.05.04zm-.08.24zm-.27-.72s-.07.04-.05.04zm0 .21v.05l.07.07h-.12a1 1 0 01-.04-.08zm-.16.08a.08.08 0 010 .13.09.09 0 01-.09-.09zm-.12 0zm-.06.88l.09.09h-.23a.08.08 0 010-.11c-.08.07-.01.09.05.08zm-.26-2s.09 0 .09.08v.11a.31.31 0 01-.07-.09l-.11-.03zm-2.46-.8v-.12c0-.06.06 0 .07 0s-.14.17-.16.19zM36 41.61a.41.41 0 01-.11 0H36s0-.02 0 0zm0-1.06s0 .01 0 0zm-.11.24h.15l.11.09L36 41s0-.09-.07-.12a.6.6 0 01-.08-.08s.03-.01.05-.01zm-.07-.36s-.02.01.01 0zm-.19-.73h.08c.01 0 0 0 0 .06a.08.08 0 01-.07-.06zm-.17.72h-.06v-.11h.06s.05.05.01.11zm-.14-.42a.06.06 0 01.1 0h-.1zm-.79-1s.07-.05.1 0a.2.2 0 01.08.08v.06l.05.06-.08.08h-.07l-.14-.14zm-.52.84s-.01.08-.01.07zm-2.08-3.62s-.03.08 0 .07zm-.18.83h.07c.02 0 0 0 0 0l-.06.06c-.06.06-.06.05-.01.01zm-.13-.05zm-.06-.41zm-.07.31s-.01.02 0 .01zm-.24.24s-.01.02 0 .01zm-.3-.43H31h-.1l.1.01zm-.28-.67s-.03.02 0 .01zm-.51-.63s-.02.03 0 .01zm-.05 0s-.01.07 0 .05zm-.31-1.01s-.02.02 0 0zm-.05 0s-.01.06 0 .04zm-.13.37h-.13a.09.09 0 01.13.04zm-.23.3s-.01.05 0 .04zm-.18-1.75v.1a.06.06 0 010-.06zm-.34.65h-.01zm-.48-.35s-.01.03 0 .04zm20.49 8.59h.1-.1zm-.65 1.2s-.01.05 0 .04zm-.23-.82s-.08.01 0 0zm-.2 1.28s-.06.01-.05 0zm-.3.36s-.06.01-.05 0zm-.5-.44s0 .01 0 0zm-.06.72s-.04.01-.01 0zm-.84.24s-.04.01-.01 0zm-.49 1s.02 0-.01.01zm-.19-.09l-.01.01zm-.2-.66v-.06c0-.06-.01.06 0 .06zm0 2s-.06-.06-.05-.07zm-.12-1.63h.07a.06.06 0 01-.1 0zm-.11.94l.09.09a1 1 0 010 .17v-.14c0-.07-.17-.14-.14-.19zm-.37-.94h.13v.05h-.11s-.08-.1-.07-.12zm0 .73s-.06-.1-.05-.1zm-.06-.18s-.06-.06-.05-.07zm7.71-10.3h-.1c0-.05 0-.07.09-.05zm0-.23s.02-.08-.01-.07zm0-.24a.21.21 0 00-.11 0h-.06c-.06 0 0 0 0 0l.06-.05s.14-.1.14-.02zm-.23-.7h.06-.12c-.04 0 .02-.06.09-.07zm-.13.61h.05s-.03-.06-.02-.06zm0 .61l.08-.09s0 .06.1.06v.09l-.09.08a.08.08 0 01-.08 0 .25.25 0 00.02-.21zm-.11-.37s.02-.06.03-.07zm0 1.18h.2l-.09.08-.1-.08zm-.37-1.32zm-.13.19s.04-.05.04-.07zm0 1.67s.04-.02.07-.02zm-7.22 7.78c0 .05 0 .05-.11 0v-.06s.11.04.11.06zm.34.4s.01-.01 0 0zm0-.84s.01-.01 0 0zm1-1.79s.01.01-.01 0zm.2-.6zm5.67-5.35s-.03.02-.01 0zm-.05 0s-.02.06-.01.04zm-.16.1zM51 35.4h.07-.1.03zm-.24.31s-.02.01-.01 0zm0 1.61l.06.06c.06.06-.09 0-.13 0s.03-.04.06-.06zm-.41-.73v.09a.07.07 0 01-.12 0zm-.23-.06s-.04.01-.01 0zm-.14 1h.05c.05 0 0 0 .06.06s-.09 0-.13 0-.02-.07.04-.09zm-.12.07s-.02-.02-.01-.03zm-.12-.9s-.02-.02-.01-.03zm-.28 1.18s-.04-.02-.01-.03zm-.08-.28s-.02-.02-.01-.03zm-.06-.31s-.02-.01-.01-.03zm0 .61s-.02-.02-.01-.03zm-.3.75a.13.13 0 00.12.06l.11.11h.08c.02 0 0 0 0 0h-.18l-.07-.06H49l-.14-.14c.05-.02.14.02.14 0zm-.3-.39s-.02-.02-.01-.03zm-.41.28l.09.08a.41.41 0 01-.11 0zm-.78 1.75zM47.46 39s-.02 0 0 0zm0-.05s-.06-.02-.04-.01zm-.56 2V41s-.07-.07-.04-.09zm-.14-.69v.07c0 .01 0 0-.06 0s-.02-.16.02-.11zm-.33 1h-.06c-.06 0 0 0 0 0s0-.04.02-.05zm0 .74h-.06zm-.06-1.16zm-.13-.16h-.13a.09.09 0 01.07-.05zm-.1.1v.05s-.09-.08-.06-.1zm-.14-.51s0 .01 0 0zM46 42a.11.11 0 010-.05.28.28 0 010-.09h-.05a.21.21 0 010 .08L46 42zm-.15 0a.09.09 0 010 .13.08.08 0 010-.13zm0 .63h-.13a.09.09 0 01.1-.02zm-.07-1.45a.09.09 0 010 .05 1.36 1.36 0 00-.12-.12v-.05l.07.09.02.01zm-.08-.31h-.11s.02-.04.08-.02zm-.14-.11h.07a.06.06 0 01-.1 0zm0 .18s-.04 0-.03-.02zm-.09.23a.05.05 0 010 .06v.07a.08.08 0 010 .11h-.06l-.07.06h-.06s0-.12-.09-.15zm-.45.14s-.02-.01-.02-.02zm-.18.53h.05-.1l.02-.02zm-.12.49s-.04-.01-.03-.02zm-.19.17s-.03 0-.03-.02zm0-.23s-.09-.01-.08-.02zm-.1 1.3s-.11-.01-.08-.02zm-.14-1.3s-.09-.01-.08-.02zm-.4 1a.71.71 0 01.07.09v.1a.71.71 0 01-.07-.09s-.12-.04-.08-.07zm-.74.86zm0-1zm-.28-.73s-.15.01-.13.01zm10.06-12.71s-.03.01 0 0zm-.2-.46s-.01.01 0 0zm-.06.17h.1c0 .05 0 .07-.09.05l-.01-.05zm0 .26a.41.41 0 010 .11zm-.06 1.2s-.03.02-.01 0zm-.05-.31s-.02.01-.01 0zm0 .35s-.02.02-.01 0zm-.19-.9s-.01 0 0 0zm-.06 1.13s-.01.03 0 .01zm0 .29s-.01.02.02.01zm-.94 1h-.1a.06.06 0 01.1 0zm.63-1.06s0-.01 0 0zM52 30zm-.39 1.23v.01c0-.05-.04-.01-.03-.02zm-.09 1.22h.07c.07 0 0 0 0 0l-.06.06c-.06.06-.09-.03-.04-.07zm-.21-1.65h.1-.1l-.03-.01zm0 .12s-.03 0-.02-.01zm0 .27h.06c.05.06.05.06 0 .13h-.06c-.11-.07-.11-.07-.07-.14zm-.11.73s-.1 0-.07-.01zM51 31zm-.52 2.36h.1a.06.06 0 01-.1 0zm0-1.4s-.04-.04-.01-.05zm-.42 1.79h.11l-.09.08-.08-.09s0-.02.05-.04zm-3 3.4s-.06-.06-.06-.05zm.42-1.62s-.05-.06-.06-.05zm1.26-.06s-.05-.06-.06-.05zm.25-.34v.06c0-.01 0 0 0 0s-.06-.12-.06-.11zm1-1.95s.01-.04.01-.05zm0 .7s-.09-.04-.06-.05zm-.24-1.38s-.09-.04-.06-.05zm-.33 1l.21-.21h.08v.06a.48.48 0 000 .12l-.06.07v.11h-.05l-.08-.06zm-.42.7a.06.06 0 010 .1s-.08-.08 0-.1zm0 .53v-.12h.06a.06.06 0 010 .08l-.06.04h-.09v.08h-.11c-.11 0 .08-.06.13-.08zm-.29-1.24h.11v.06h-.11zm-.23 1.78zm-.3-1.37v.1a.06.06 0 01-.07-.1zm-.36 1.2h.06-.12c-.04 0-.04.01-.01 0zm-.25-.36s-.07.02-.07 0zm0 .59s-.13-.02-.11 0zm0 0s-.17-.06-.15-.05zM47 36v.06c0-.01 0 0 0 0V36zm0 .69v-.04zm-.13-.41s-.07-.05-.05-.04zm-.12-.31s-.07-.04-.05-.04zm-.15 1.58s-.06-.03-.05-.04zm-.25-.59v.06c0-.01 0 0 0 0s-.06-.09-.05-.1zm-.06-.19a.08.08 0 01-.13 0 .09.09 0 01.08-.04zm-.21.71s-.08-.05-.08-.04zm-.32.79s-.06-.03-.05-.04zM45.54 37h.07l.06.06c.06.06 0 0 0 0h-.08s-.09-.01-.05-.06zm-.2.39s0 .01 0 0zm-2.59 2.1s.01-.01 0 0zm.08 1.51s.02 0 0 0zm.76-1.76v.02zm1.23-1.58zm-.11.41s-.03.03 0 .02zm-.12 1.14s-.03.03 0 .02zm-.12.3s-.03.03 0 .02zm-.2-.41zm-.7-.49s-.03.03 0 .02zm0 .32a.08.08 0 01-.13 0 .09.09 0 01.16.07zm-.39.11s.02.01.03.02zm-.09-.04s-.03 0 0 0zm-.12.6a.27.27 0 01.09 0c0-.05 0-.06.06-.07a.21.21 0 010-.08v.05s0 .06-.06.07 0 .07-.1 0zm-.27-.28s.08.06.16 0 0 .1 0 .14l-.09.09s-.05-.06-.09-.06 0-.05-.06-.09.07-.07.08-.09zm-.06.84s-.01.01 0-.01zm-.06.19c0-.05.07-.05.11 0v.06h-.11zm-.22.2h.09l-.09.09s-.03-.05 0-.1zm0 .4a.09.09 0 01-.13 0 .08.08 0 01.11-.01zm-.41-.74v.1s-.05-.09-.02-.11zm-.4.42s-.03-.02-.02-.01zm.24.94zm.06.06zm.35 1.93a.09.09 0 010-.13.08.08 0 01-.02.12zm-1-2.08s-.07.01-.06-.01zm-.2-.74zM40.74 42zm-.19-.71s-.01.01 0 0zm12.07-15.14s-.02-.02 0 0zm0 0s-.06-.06-.04-.05zm-1.49 1a.09.09 0 01.13 0c-.09.03-.12.03-.17-.02zm1.34-1s-.05.03-.04.02zm-.28-.39h.06l.09.08v.15h-.06l-.09-.07a.33.33 0 01-.04-.14zm0 1.41a.08.08 0 01-.13 0 .09.09 0 01.12.02zm-.15.22s-.04.03-.04.02zm-.15 0v.12zm-.09-1.1l-.01-.01zm-.14.36h.07-.1l.02-.01zm-.09-.25s-.03-.01-.01-.01zm-.14.31h.07c.07 0 0 0 0 0a.23.23 0 01-.24 0zm0 1.16l-.08.08a.07.07 0 01-.09 0l.08-.08a.07.07 0 01.05-.01zm-.26-1a.71.71 0 01.07.09v.1a.71.71 0 01-.07-.09s-.08-.08-.04-.11zm-.28.31a.11.11 0 01-.08 0l.04-.01zm-.15 1.61c.08 0 .09 0 .09.08s-.06.07-.08.11-.09 0-.09-.08.02-.08.04-.12zm-.2-.69v.12l-.06-.05s.02-.07.02-.08zm-.65.3s-.05 0-.04-.01zm-.43.3v.12l-.06-.05zm-.33.22s-.07 0-.04-.01zm-.2.56s-.05 0-.04-.01zm-9.61 11.4s.01-.01 0 0zm.16.2L39.4 41a.07.07 0 01.07 0h.1c.02 0-.05.06-.09.08zm.19-1.33zm0-.18zm.14 1.62s0-.02 0 0zm0-1.36v-.13a.09.09 0 01-.02.13zm4.3-5.36s0 .01-.02 0zm.49.31s.01-.01-.02 0zm1.28-2.12s-.01-.01-.02 0zm.07 1.15s-.02-.02-.02 0zm2.85-3h-.11l.09-.09.08.09s-.06 0-.08.01zm-.14-1.46c0-.05.06 0 .1 0h.07a.4.4 0 010 .11.19.19 0 00-.1 0zM48.54 31h.01c-.05.07-.05.07-.01 0zm-.38.38h.11-.11zm-.75-.38s-.03 0 0 0zm-.06 1a.09.09 0 010 .13.08.08 0 010-.13zm-.35-.32h.05-.1zm0 .74s-.06.05-.12 0zm-.29.36v.11a.41.41 0 01.01-.11zm-.78-.55a.08.08 0 01-.13 0 .09.09 0 01.14 0zm-.15 1.25s0-.01.01 0zm-.13-1l.1.08h-.15zm-.44.08h.05s-.05-.01-.04-.03zm0 1l-.02-.02zm-.2-.3h.07-.1zm-.49-.09l.06.06h.11l.09.08v.07h-.11l-.08.11h-.09a1.22 1.22 0 010-.34zm-.29 1.71a.06.06 0 010 .1s-.05-.1-.02-.12zm-.07-1v.09l-.16-.12s.09-.03.14 0zm-.28 1.77h.06v.12h-.06c-.06-.08-.06-.08-.02-.15zm-.44.09s-.03-.01-.02-.03zm-.54-.06s-.03-.01-.02-.03zm-1.07.54s-.03-.02-.02-.03zm-.17 1.11s.01-.04-.02-.03zm-.08-1h.1-.1zm0 .78s-.03 0-.02-.02zm-.1-.68l-.02-.02zm0 0s-.08-.08-.06-.07zm-.13.11s-.07-.07-.06-.07zm.09 1.82a.08.08 0 01-.13 0 .09.09 0 01.07-.07zm-.6.48s-.07-.05-.06-.07zm-.13-.29h-.12zm-.22.41s-.07-.06-.06-.07zm-.46.52s-.09-.06-.03-.07zm.14.17h-.06c.01 0-.02-.07 0-.07zm-1.1.19s-.07-.06-.07-.07zm0 .3a.27.27 0 01-.09 0s.02-.09.02-.07zm-.14.07s-.07-.05-.06-.07zm-.1-.78s-.07-.08-.06-.07zm-.15 0a.48.48 0 010 .12h-.12l.07-.05s-.02-.11-.01-.13zm-.15-.8s-.09-.05-.06-.06zm-.11-.35s-.08-.07-.06-.06zm-.19 1.55s-.09-.05-.06-.06zm13.59-16.47s0 .05.07.05.06 0 .08.05a.3.3 0 01-.16 0 .06.06 0 01.01-.1zm-.14-.75s-.02 0 0 0zm-.39.06zm-5.79 6s.01-.04 0-.03zm5-3.71s-.03-.02-.05-.03zm0-.18s-.03-.02-.04-.03zm.13-.94s-.07-.02-.04-.03zm-.21-.46v.12l-.06-.05zm-1.11 1.19s-.05-.04-.04-.03zM49 26.06a.06.06 0 010-.05h.13c.05 0-.13-.01-.13.05zm0-1v.04zm0 0l.06.05v.06h-.09a.17.17 0 01.03-.03zm0 1.23v.08c0 .06-.07.08-.1.13v-.08c-.07.02-.02 0 .01-.05zm-.32-1.05a.06.06 0 010 .1.06.06 0 01-.09-.02zm-.11 1.24h.18l-.09.09-.05-.07h-.06s-.09.1-.07.06zm-.19-.4zm-.52 1.07s-.12.09-.09.08zm-.27 0a.09.09 0 01-.13 0 .08.08 0 01.04.11zm-.66-.13s-.09.12-.09.11zm0 .58s-.09.12-.06.11zm-.24.72s-.09.12-.06.11zm-1.14-.29s-.07.1-.06.11zm-.36.59s-.09.12-.06.11zm0 1.49a.08.08 0 010 .13.09.09 0 01-.07-.02zM45 28.73s0 .01 0 0zM44.86 30s-.01 0 0 0zm-.39.4h-.06s.04.02.06.01zm-.2-1.31v.11a.41.41 0 010-.11zm-.05 2zm-.65.3s-.01.04 0 .05zm-.31.35h-.06c.01 0 0 0 0 0zm0-.79a.09.09 0 010 .13.08.08 0 01-.05-.08zm-1.06 2h-.1a.06.06 0 01.1 0l-.05.05zm.15.08s-.02.06-.05.07zm.45-.87v-.07c0-.01 0 0 .06 0-.05.19-.05.19-.11.14zm.2-.54s-.06.08 0 .07zm-.1.76c-.05-.05-.05-.08 0-.13a.09.09 0 01-.05.2zm0-.6v.11h-.06v-.11zm-.13-.67a.08.08 0 010 .13.09.09 0 01-.05-.06zm-.16-.11s-.03 0 0 0zm-.09.39s.1.05.16.06-.08 0-.12.05a.07.07 0 01-.07 0s.02-.15.03-.16zm-.1 1.17v.05a.06.06 0 010-.1zm-.11.31s-.01-.06 0-.05zm-.2-1.13s-.01-.04 0-.05zm-.1-.26l.09.09h-.13c-.05 0 .03-.13.03-.14zm-.24.65h.08l-.09.09h-.08zm-.42 1.8h.11a.41.41 0 01-.11 0s-.02-.03 0-.05zm-.09-1.34v.06c0-.01 0 0 0 0s-.01-.1 0-.11zm-.22 1l.06-.06c.06-.06 0 .09 0 .13s-.05 0-.07 0-.03-.12-.03-.14zm0 .39s-.04-.06-.04-.07zm0 .22h.06l.08.09h-.08l-.1-.13s0-.03.05-.03zm0 .27s-.04-.05-.04-.07zm-.21-1.17s-.05-.06-.02-.07zm0 1.14h.12s0 .05.07.05a1.16 1.16 0 01-.32 0zm-.24-1.14l.07-.07.08.09s-.06.06-.09.1h-.06c-.07-.14-.07-.15-.03-.19zm-.56.5h.1c.02 0 0 0 0 0h-.1l-.03-.07zm-.41 1.56s-.04-.06-.03-.07zm-.4-1.1s-.04-.07-.03-.07zm0 1.47v.07c0 .01 0 0-.06 0 0-.19 0-.19.06-.14zM39 34.51h.05c.05 0 0 0 0 0v.12l-.06-.05s.01-.06.01-.07zm0 .7zm-.22 1h-.06zm-.43-.13s.08.06.09.11.1.09 0 .18l-.06.06a1 1 0 010-.17l-.07-.07zm-.32.39h.05s-.01.04 0 .02zm-.63.4a.08.08 0 010-.13.09.09 0 01.05.15zm-.07-.42zm-.45 1.12s.05 0 .05.02zm.15-.59s.08.02.05.02zm.06.71l.14-.15h.06zm0-.44v-.05h.12v.06s-.03.05-.1.01zm.45.81s.05.01.02.02zm.19.84v-.06c0-.06 0 0 0 0s.05.07.02.08zm-.81-2.24v.07c0 .01 0 0-.06 0 .02-.1.02-.1.08-.05zm-.22.93h.13v.05c0 .05 0 0 0 0h-.08s-.07.03-.03-.03zm-.13-.76s.01.03.02.02zM36.51 38h.12l-.05.06s-.07-.01-.07-.06zm-.21-2s-.02 0 0 .05zm0 0h-.04zm-.09 1.25zm9.69-12.8s0 .05-.06.05 0-.05.06-.05a.27.27 0 010-.09.11.11 0 01-.04.09zm2.22-2.23s-.03-.01-.04 0zm.28 0s-.03-.04-.04-.05zm1.7-1.82zm-.19-1.19s-.01.01 0 0zm-.58 1.71a.09.09 0 010 .13.08.08 0 010-.13zm-.06.31h.06v.11c-.1-.06-.1-.06-.06-.11zm-.56.86s-.01.01 0 0zm0-.79s-.05-.01-.04 0zm-.07-.37a.41.41 0 010 .11l-.13-.04zm-.27.34v.12c0 .04-.06 0-.07 0s.01-.1.03-.12zm-.26.61l.07.08A.4.4 0 0148 22zm-.78 1.44a.07.07 0 010 .12h-.09zm-.22-.32s-.01 0 0 0zm-.47-.24s-.02.03 0 .03zm-.88.86a.08.08 0 01.12 0l-.09.09s-.03-.02-.03-.06zm-.06.92l.06.05a.05.05 0 01-.06-.02zm-.29.39h.07a.06.06 0 01-.1 0l.03.07zm-.29.24zm-.25-.59s-.01.04 0 .03zm-.21.67s.01.02 0 .03zm-.1-.19a.06.06 0 01.1 0h-.1v.03zm-.17.84s-.01.04 0 .03zm0 .09h.09l-.09.09s-.02-.01.01-.08zm-.17-.78h.07v.19l-.06-.07s-.05-.03 0-.09zM44.11 27s-.01 0 0 0zm-.6-.19s-.03.01 0 0zm-.06.17h.07c.01 0 0 0 0 .06-.12-.04-.12-.04-.07-.04zm-.26-.57s-.01.01 0 0zm-.84 1.49h.05a.06.06 0 01-.1 0h.05zm-2 2.29s.01.01.01 0zm-.16.69v.13a.09.09 0 01.01-.13zm-.17 0s-.02.01-.02.02zm-.07.16s.05.01.05.02zm-.12-.54v-.13.17a.06.06 0 01-.05 0s.04 0 .06-.02zm-.11.31h-.01c-.06 0 0 0 0 0zm-.2 0s0 .05.01.04zm-.1.29s0 .03.01.04zm0-.4a.27.27 0 010-.09s-.01.07-.03.13zm-.07-.14s-.05.03-.03.04zm-.67.65s-.06.05-.03.04zm-1.08 2.1s-.06.05-.03.04zm0 .13s-.04.03-.03.04zm-.48-.78s-.04.03-.03.04zm-.21 1.09a.08.08 0 01-.13 0 .09.09 0 01.1.04zm-.27-.19s-.04.03-.03.04zm-.32.43s-.04.01-.03.01zm0 .4h.11v.06s-.16 0-.16-.02zm-.43.42s-.07.04-.05.04zm-.34-.94a.08.08 0 01-.13 0 .09.09 0 01.08.04zM34.93 35zm.07 0zm.41.24s.02.01-.01.02zm.24 1.63c-.06 0 0-.11 0-.16s.06 0 .08 0a.09.09 0 010 .08s-.05.07-.09.1zM34 34.49s-.06.01 0 0zm14.2-17.08s-.04.01-.03 0zm-.19 0c0 .05-.08.05-.13 0a.09.09 0 01.12 0zM47 18zm0 0s-.08-.07-.06-.06zm-.1 1.39s-.07-.04-.06-.06zm-1.47.7s-.09-.09-.06-.09zm-.36.12s-.07-.05-.07-.06zm-1.42 3s-.06-.1-.06-.09zm0-1.08s-.06-.13-.07-.13zm.13.77v-.1l-.07.01zm.1-1.7s-.1-.08-.07-.09zm-.27.28s0 .06.09 0 0-.07.09 0a.21.21 0 01-.08 0 .08.08 0 01-.09 0 .06.06 0 01-.08-.09zm-.14 1.76s-.09-.09-.07-.09zm-.06.29a.07.07 0 01.07 0l-.08.08-.09-.09c-.03-.03 0-.07.03-.08zm-.4-.62v-.06c0-.06-.08-.03-.07-.03zm0 .8H43c.06.05 0 .11 0 .16a.49.49 0 010-.11l-.07.06s-.07-.16-.02-.2zm-.18-.29s-.11-.09-.1-.09zm0 .6s-.17-.09-.15-.09zm-.21-1.44zm-.13 1.28a.08.08 0 01-.13 0 .09.09 0 01-.02-.09zm-.42.67v.01c0-.05-.16-.09-.15-.1zm-.21-.87s-.18-.08-.15-.09zm0 1.33s-.16-.1-.15-.09zm-.12-.5a.09.09 0 010 .13c-.2-.14-.2-.17-.15-.22zm-1.33 1s-.12-.08-.15-.07zm.93-1.27v.12c0 .06-.06 0-.07 0s-.1-.17-.08-.19zm-.85.8s-.17-.02-.15-.02zm-.08.3s-.17-.09-.15-.07zm0-.05s-.21-.08-.19-.07zm-.13 1.19s-.22-.06-.19-.07zm-.56-.95s-.2-.05-.19-.07zm.09.88a.09.09 0 01.08 0v.05c-.06.05-.08.05-.12 0h-.05s-.14-.11-.1-.12zm-1.53 2.25s-.2-.06-.19-.07zm-1.15.66s-.19-.06-.19-.07zm-.3.18s-.2-.05-.19-.07zm-.22-.21h.06c.05.06.05.06 0 .12-.29-.12-.29-.12-.25-.19zm-.11.07s-.2-.07-.19-.07zm-.48.23a.09.09 0 010 .13.08.08 0 01-.19-.2zm-.14.93s-.2-.06-.19-.07zm-.1-.38s-.22-.06-.19-.07zm-.23-.24s-.21-.07-.19-.07zm0 .75s-.25-.05-.23-.07zm0 0s-.29-.01-.28-.03zm-.45.37zm-.1-.56a.23.23 0 010 .14.76.76 0 010-.14zm-.06.19l.07.05h-.05a.05.05 0 01-.06-.05zm-.09 0s-.05-.04-.04-.03zm-.12.58h.07c.01 0 0 0 0 .06-.16-.03-.16-.03-.11-.09zm-.11-.65s-.06-.03-.04-.03zm-.93 2.24s-.05-.02-.04-.03zm-.18-1s-.05.02-.04.01zm-.51.3s-.06-.01 0 0zm-.13 1.42zm.06-.24s-.02-.01-.05 0zm.06-.6v-.12H33c0 .07 0 .07-.06.12zm.06.12s-.05-.01-.05 0zm.06.84zm0-.47s-.11.01-.04 0zm.17.65a.14.14 0 01-.11 0l.09-.09h.07a.06.06 0 01-.09.09zm.09-.63v-.07c0-.07 0 0 0 0l.06.06c.06.06-.06.06-.1.01zm.18.31s-.04-.01-.04 0zm-.94-.74h.07a.06.06 0 01-.1 0zm-.2 1.24s-.01 0 0 0zm-.2-.73h-.1a.07.07 0 01-.07 0l.06-.06a.06.06 0 01.11.08zm0-.72s-.07.03-.04.02zm-.12.17h.11-.11zm-.08 1s-.01.02-.01.01zm-.06-2s-.05.04-.04.03zm-.1.4s-.07.04-.04.03zm-.31-.12zm10.07-21.37v-.07c0-.02 0 0 0 0l.06.06c.06.06-.02.06-.06.01zm.63.63s.03-.01 0 0zm1.23 1.31zm.69-.29s.03-.01 0 0zm.26.83s.01-.02 0 0zm.06-.49s.01-.01 0 0zm.64.62s.03-.01 0 0zm.12 1.32s.03-.01 0 0zm-9-5.82h.03zm1.23.56zm0 .43s.07-.01.06 0zm.11 0a.21.21 0 01-.08 0s0-.07.09 0zM39.2 12s.01 0 0 0zm.19.6h-.06c.01 0 0 0 0 0s.06-.05.06-.04zm0-.18s0-.05-.01-.04zm3.61 2.1zm0 .6s0-.01 0 0zm-2-.56zm1 .78c-.05-.06-.05-.06 0-.12.05.07.05.07 0 .12zm.33-.62l-.09.09c-.09 0-.09 0-.08-.1l.08-.08c.1 0 .1 0 .09.09zm.33 1.15s.01.01 0 0zm.09-1.21h-.06c.01 0 0 0 0 0s.06-.01.06 0zm.25 1.16h-.11.18c-.01-.05-.01-.05-.07 0zm.49.91s-.01.01.02 0zm.39-.89s.02.02.02 0zm-.4 0zm-.07-.46s.01 0 .02-.01zm.21 1.62s.03 0 0 0zm.15 1.49v.02zm1.95-3.3s.01.03 0 .02zm-.2.34v.02zm-.27.16s-.03.03 0 .02zm-.13.07zm-.54 2.15h-.06c.01 0 0 0 0 0zm0-.89a.06.06 0 01-.1 0s.04-.02.06-.02zm0-.28s-.09.01-.09.02zM43 18.28h.08c.01 0 0 0 0 .06a.08.08 0 01-.08-.06zm-.08 0c0 .05-.08.05-.13 0a.09.09 0 01.15.03zM30.15 7.71zm.84 0s.01.04.01.05zm.51.86a1 1 0 01-.17 0h.05l.05-.06.09.09s-.01.02-.02.02zm.37.54zm.06.06zm.2.29v.05zm.23-.24a.06.06 0 01-.1 0h.07s.04.04.03.05zm.75-.22s-.01 0 0 0zm-.64.44zm0-.48zm.17.42s.01-.04 0-.05zm.08.95s.01-.06 0-.05zm.36-.95s.01-.07 0-.05zm.1.84a.71.71 0 01-.09-.07h.1a.71.71 0 01.09.07s-.07-.02-.1-.05zm.18-.24s.01-.04 0-.05zm.14-.24a.06.06 0 010-.1s.03.03 0 .05zM34 11zm0 .8s0-.01 0 0zm.25.3h-.09L34 12v-.05l.17.18zm.14-.45a.09.09 0 01.13 0s-.12.05-.17 0zm6.56 5.58s-.05.01-.04 0zm-6-6.32h-.08zm0 1.23h-.06c.01 0 0 0 0 0zm0-.41a.06.06 0 01.1 0s-.18.03-.2 0zm.09.71s-.04-.01-.1 0zm.64 0h-.07c-.07 0 0 0 0 0l.06-.06c.06-.06-.04.05-.09.09zM39 16.82s0-.01 0 0zm.11-1.49v-.1a.06.06 0 01-.03.1zm1 1.2s-.02.01-.03 0zm.25.13a.48.48 0 01-.12 0l.09-.09.07.08s-.05 0-.07.01zm.07.23a.06.06 0 010-.1s0 .08-.03.1zm.43.88v-.1l-.03.1zm.14.38h-.09.09c.05 0 .07.06.1.1a.07.07 0 01-.1-.1zm.19-.48s-.02.01-.03 0zm.09.66s-.03-.02-.03 0zm.22 1.38zm.24 1a.27.27 0 010-.09h-.15v-.07a.19.19 0 000-.08s.1 0 .1-.1a.13.13 0 010 .06v.2h.08zm-.15-1.1h.11l-.08.08zm.58-.42s-.02-.04-.03-.03zM27.1 8.65h-.13V8.6h.13zm1.47.11s-.01-.01 0 0zm-1.36-.65a.09.09 0 01.13 0 .08.08 0 01-.13 0zm.32-.11h.13c.05 0-.05 0-.06.06S27.55 8 27.53 8zm.14.12zm.07.19zm0 .23s.05-.04.04-.05zm.14 1.09zm.19-.14h-.06.05s.05-.06.05-.05zm.49.35v-.12c0-.06.06 0 .07 0s-.01.05-.03.07zm.16-.28s.05-.07.04-.05zm.34-.17s.07-.06.04-.05zm.45 1.84s.04-.06.04-.05zm-.12-.25a.09.09 0 01.13 0 .08.08 0 01-.09-.05zm.13-.33v.01c0-.05 0 0 0 0s.04-.07.04-.06zm.16.05a.06.06 0 01-.1 0h.07zm.06.23s.05-.06.04-.05zm.18.73a.06.06 0 01-.1 0h.07zm.06-.43s.02-.06.02-.05zm.13.54s.04-.06.04-.05zm.72-.23s.04-.07.04-.05zm.18-.25s.04-.06.04-.05zm.42.54h-.06.05s.05-.06.05-.05zm.35.84s.05-.06.04-.05zm.88.88zm-.25-.55s-.01 0 0 0zm0 1s.03 0 .02.05zm.15 0h-.14.09l-.06-.07v-.07h.06a1 1 0 010 .17zm.12.54l-.08-.08a.07.07 0 010-.09l.08.08a.07.07 0 01.02.11zm.36-.31l.02.02zm.18 0a.08.08 0 010-.12l.09.09s-.03.06-.07.06zm.39-.44h-.06c.01 0 0 0 0 0zm1.77 2.12s.05.02.02.03zm.15 1.47a.09.09 0 01.13 0 .08.08 0 01-.11.03zm1.23 1.17h-.07a.23.23 0 010-.14h.14c.07 0 0 .1 0 .14zm.21-.86a.08.08 0 01.13 0 .09.09 0 01-.1.03zm.77.36s.03.02.02.03zm.32 1.62a.06.06 0 01.02.03zm.09.45a.08.08 0 010-.13.09.09 0 01.02.16zm.83.28s.02.04.02.03zm.45 1.37s.02.02.02.03zm.3-.54h-.06c.01 0 0 0 0 0s.08.02.08.03zm.09.49s.03.04.02.03zm.63-.8v-.1l.02.18zm0-.45s.07.04.06.03zm.12.12a.32.32 0 01-.1-.11h.09c.11.07.11.08.07.14zm-.12-.6a.09.09 0 010 .13.08.08 0 01.06-.12zm-.07.55c.05 0 0 .05 0 .09a.08.08 0 01-.12 0zm-.23.9h-.1zm-1.12.21v.12c0 .06-.06 0-.07 0s.11-.07.13-.09zm-.2 1H39v.12h-.11c-.05-.04-.05-.05 0-.11zm-.12.73a1 1 0 01.17 0h-.17s.04.02.06.01zm-.48.3s.03.02.06.01zm-.18.72s.03.02.06.01zM23.85 9.92s0-.01 0 0zm.24.65a.09.09 0 01.13 0s-.08.05-.13 0zm.65-.41s.01-.01 0 0zm.18-.18s.01.02 0 .02zm.19.11s.01-.01 0 0zm0 0zm.32 1v-.1a.06.06 0 01.03.08zm.19-.61c-.05-.05-.05-.05 0-.11l.06.05s-.03.03-.03.04zm.21.92h-.05c-.06-.05 0-.11 0-.16s.06 0 .08 0a.09.09 0 010 .08s.04.04 0 .06zm.24-.67s.04-.01.03-.02zm.21 2s.03-.06.03-.05zm.48.56h.05c.05 0 .02-.05-.02-.05zm.15-1s.09-.07.03-.08zm.82 1.09v.06c0-.01 0 0 0 0s.03-.15.03-.14zm.28.46s.04-.09-.01-.08zm.6-.23zm.23.07zm.06.06zm1.45 2.09h-.1.05l.08-.08zM31.59 18a.06.06 0 01-.1 0 .06.06 0 01.1 0zm.93.43s.01-.03 0-.04zm.3-.59s.03-.05 0-.04zM33.3 19s.03 0 0 0zm.3.11s.01.01 0 0zm.24 1.2s.01.01 0 0zm2.22.67s.03.02 0 .02zm.25 1.56v-.06c0-.06 0 0 0 0s.03.05 0 .06zm.5 0v-.02zm.47 1.14s.01-.03 0-.02zm.31 1.2l-.09.08-.08-.08v-.08l.08-.09c.06 0 .07.07.11.09zm0-1.24s.06-.03.03-.02zm-.59-.25s-.06.01 0 0zm.65-.55a.2.2 0 01-.11 0l-.07.06v-.12h.23zm-15-11.24v.07c0 .01 0 0-.06 0 .01-.12.01-.12.07-.07zm-.65-.79s0 .01 0 0zm-.21.2zm.21 1.74s0 .01 0 0zm.18-.4H22v-.07a.06.06 0 010-.07v-.05h.12a.2.2 0 00.06.07.06.06 0 010 .07s-.03.03-.04.05zm.18.71L22.3 13a.07.07 0 010-.07v-.05h.12c-.05.12-.05.12-.1.18zm.31.12zm.05-.48h-.11c-.05 0-.05-.06 0-.11h.11c.01.05.01.06-.04.11zm.13-.12c-.05 0-.07 0-.05-.09a.25.25 0 010 .08zM28.36 18v-.01c0-.06-.01.01 0 .01zm-4.1-3.9s.01-.05 0-.04zm.37.78c.05-.05.08-.05.13 0a.09.09 0 01-.13-.04zm.64.5zm.17-.3s.03-.08 0-.08zm.19-.24h-.06l-.07.06h-.11.14l.07-.05h.05c.02-.11.02-.11-.02-.05zm.07 1.12s.01-.05 0-.04zm.24-.12s.06-.05 0-.04zm0-.22v.01c0-.05 0 0 0 0s.06-.06.06-.05zm.7 1.62l-.06-.05h.05c.06-.05.06-.05.02.01zm.08-.56h-.06.05s.02-.05.02-.04zm.53 1.09v-.1a.06.06 0 01.01.06zm.07-.37v.15l-.08-.09c0-.05.07-.06.08-.1h.01zm.33.87l-.05-.07-.06.07c-.05-.07-.05-.07 0-.13h.11c.05.02.05.02.01.09zm.78.35h-.05c-.05-.06-.05-.06 0-.12h.06c.04.03.04.03 0 .08zm.3-.24s.04-.05.01-.04zm.66 1.85s.02-.03.01-.04zm.81-.5h-.11v-.05c0-.05 0-.05.11 0zm.29 1zm.23-.54l.01.01zm.05 0s-.01 0 .01.02zm0 .88s.02.03.01.02zm.75-.85h-.06c.01 0 0 0 0 0zm.69 1.93s.02.03.01.02zm-.06-1.07v-.09l.06-.05v.05c0 .05 0 0 0 0l.06.05s0 .07-.11.06zm.3 1.86s.04.06.01.06zm0-1.07a.09.09 0 010-.13.08.08 0 01.01.15zm1.07 1.46s0 .03.01.02zm-.41-.5zm-.29-1.2s-.02.03.01.02zm0 1.66s.01.03 0 .02zm.18-.24v.02zm.18.49h-.06l-.12-.06h.06l.08.09s.07-.01.04-.01zm.21.58a.06.06 0 01-.1 0h.1v.02zm.16 0s.01.05 0 .04zm.06.06zm.18-1.56h-.14a.81.81 0 01-.06-.08h.17c.07.06.07.06.03.12zm.21 1.72h-.1v-.12h.1v.12zm.56.22s-.03-.01-.04 0zm.13-.18s-.04-.01-.04 0zm.45 2.53s-.03.01-.04 0zm.74-1.62h-.04zM36.6 24l.09.1v.11c0 .06-.09 0-.13 0s-.08-.06-.09-.09zm-.17.49s-.03-.01 0-.02zm0 1.26v.18l-.06-.07v-.11zm-.14-1.15v.13a.09.09 0 01-.05-.15zm-.33 2.07zm0-1.44zm-.58-.9s-.06-.01-.05-.02zm-.46.77s-.06-.03-.05-.02zm.24.28s-.05-.01-.05-.02zm-.6 2.53s-.08-.01-.05-.02zm-.24-.18s-.08-.01-.05-.02zM17.38 12c-.06.05-.06.05-.13 0s.05 0 .07-.06a.06.06 0 010 .05l.06.01zm.5 1s.01 0 0 0zm2.63 1.3s-.01 0 0-.01zm.08.21s0 .05.06.06l-.06.07v-.07c-.08-.01-.03-.03 0-.07zm-1.8-2.32s-.01-.02 0-.01zm.08.73h-.11v-.06h.11zm1.71 2.67h-.07c-.07 0-.07 0-.08-.1a.42.42 0 01.25 0zm.39.12h.05c.05 0-.02-.01-.02-.01zm.12-.68V15zm.15.14s.03-.02 0-.01zm.1-.81a.09.09 0 01-.08 0h-.1a.4.4 0 010-.11h.1zm.44.57s.03-.02 0-.01zm.27.34h-.1.1zm1 1.88v-.06c0-.06 0 0 0 0s.03.04 0 .05zm.47.24s.03-.02 0-.01zm1.44.68zm-1.08-1s.01-.07 0-.07zm.42 2.41s.03-.07 0-.06zm.14-.14s.01-.07 0-.06zm.62.39v.09l-.09.08a1.21 1.21 0 01-.19 0v-.09h.1s.11 0 .14-.08 0 0 .05 0-.01-.09-.01-.06zm0-.92h-.18l.07-.08v-.09l.09.09s.09.01.06.02zm.17-.34l-.06.06c-.06.06-.05-.09 0-.13s.05 0 .07 0 .04-.01.03.01zm.38 1.72s.04-.08.04-.06zm.11-.91c-.05 0 0 .1-.07.15l-.06-.06v-.05c0-.05 0 0 .06-.06h.06s.07-.04.05-.04zm0-.17h-.07c-.07 0-.06 0-.08-.05a.3.3 0 01.16 0 .06.06 0 010 .08s.02-.08.01-.09zm.07.79zm.15-.09v-.12c0-.06.06 0 .07 0s-.01.04-.01.06zm.22-.41s.03-.07.02-.06zm3.63 4.07s.01-.05.02-.06zm-1.92-1.8s.01-.05.02-.06zm-1.43-1.75zm-.05.54s.01-.07.02-.06zm.06 1h-.06v-.12h.06c.06 0 .06 0 .02.06zm.18-.84h-.06v-.12h.05c.07 0 .07 0 .03.06zm.23 1.19s.03-.05.02-.06zm.08.35s.06-.07.06-.06zm.11-1.67zm.18-.16s-.01-.05.02-.06zm0 .14h.05c.05 0 0 0 0 0l.05-.06c.07.05 0 .11 0 .15s-.06 0-.1 0l-.05-.06s.04-.08.04-.09zm.28 2c-.05 0-.09 0-.13.06s-.07 0-.09 0v-.13h.21s.02 0 0 .01zm0-.38s-.05-.09-.04-.09zm.12.15s-.02-.06-.04-.06zm.09-.67h-.14l-.08-.09a1.15 1.15 0 01.18 0c.05 0 0 .06 0 .09zm.13.25a.76.76 0 010 .15.23.23 0 010-.14h.05a.21.21 0 010-.08l-.09.01zm.12.09s-.03-.07-.04-.06zm0 0zm.26-.61s0-.11-.01-.09zm0 1.5s.04-.08.03-.09zm.18-.71a1 1 0 01-.17 0h.08l.05-.05h.07c.05-.04.05-.04 0-.04zm.24 1.79s.04-.08.03-.09zm.07-1.71s.02-.1.03-.09zm0 1.27s.06-.1.05-.09zm.06-.09h-.05a.25.25 0 010-.08l.1-.01zm.18-.07s.04-.11.04-.09zm.43-.49h.05a.06.06 0 010-.09zm.11 1.62s.05-.1.05-.09zm.27-.16h-.05v-.12h.06c.09-.03.09-.03.04.03zm.13.29zm.21-.38c0 .05-.08.05-.13 0s0 0 .06-.06 0 0 .05 0 0 0 0 .05.07-.09.07-.08zm0-.14l-.11-.18c0-.05.05 0 .09 0a.08.08 0 01.04.09zm.2.21s.02-.1.02-.09zm.09 1s.05-.12.02-.11zm.2.59a.06.06 0 01-.1 0h.05zm-.05-.77h.05c.05 0 .01-.11-.03-.11zm.15-.07s.03-.1.02-.11zm1.74 2.71s.05-.12.02-.11zm0-.32s.05-.12.04-.11zm1.2-.56s.02-.12.04-.11zm-.32 1.9s.07-.12.04-.11zm.06-.37s.05-.1.04-.11zm.06-.29s.07-.12.04-.11zm-1 1.74s0 .05.07.07-.08-.13-.05-.18zm-.07-.27s.01-.1.02-.11zm-.53.82H32c.05.05.05.05 0 .11a1 1 0 01-.17 0zm-.11-.36s-.01-.1.02-.11zm-20.9-10.75s0-.02 0 0zm2.33-2.53s.01-.01 0 0zm.08-.43h-.05a.41.41 0 010-.11h.05zm0 .21s.05-.01.02 0zm.42-.6l-.08-.08a.07.07 0 010-.09l.08.08a.07.07 0 01.02.09zm.18-.13s.03.01.02 0zm.36-.29s.05-.01.02 0zm1-.39s.02-.01.01 0zm0 0zm.1-1.41a.08.08 0 01-.13 0 .09.09 0 01.17-.03zM15 14zm.92-.76s.01-.03.01-.02zm.17 2.28s.02-.03.01-.02zm-7.31 9.35h-.1.07s.04-.01.03 0zm1.91-2.56s-.03.01 0 0zm0 .25s-.01-.01 0 0zM9 25.34s0-.01 0 0zm0-.1l-.09-.09h.13c.05 0 .01.08-.04.09zm.2-.62s.01-.01 0 0zm.88-1.77H10l.08-.09.09.09s-.07-.02-.09 0zm.25.77l-.06-.05s.09-.01.06.05zm.14-.86a.08.08 0 01.13 0 .09.09 0 01-.13 0zm.21 1.15s.01.01 0 0zm0-.68a.09.09 0 01.13 0 .08.08 0 01-.16 0zm.54-.76s-.03-.02-.03 0zm0-.72s-.05.01-.06 0zm.06-.17s-.03-.01-.06 0zm1.63-.17s-.09.01-.06 0zm-.18-1.56s-.09.01-.06 0zm0 1.5h-.06zM11.52 23s.01 0 0 0zm.12-.54s.01-.04 0-.05zm.06-.65s.03-.06 0-.05zm.09.46v-.05zm.18-.79a.09.09 0 01.13 0 .08.08 0 01-.1-.05zm.37.09a.71.71 0 01-.09.07h-.1l.12-.12h.05c.05 0 .02-.02.02 0zm.51.24h-.19.26zm.37-1.21a.06.06 0 01-.1 0zm0-.17s.07-.06.04-.05zm1.35-.44v.06c0 .06 0 0-.05 0a.06.06 0 010-.05.22.22 0 000-.08c.05-.05.05-.05.11 0zm1-2.4s0-.06-.01-.05zm.16.86s.02-.06-.01-.05zm.44-2s0-.06-.01-.05zm.09 1s.01-.01-.01-.01zm.28.33a.09.09 0 01.13 0c-.06.04-.09.04-.14-.01zm.13-1.25zm.11 1.14h-.06.05v-.01zm.16-.21l-.06.05h-.09a.06.06 0 01-.05 0l.06-.06c.06-.06.07 0 .09 0a.06.06 0 01.05 0s0-.02-.01 0zm.06-.26v-.11h.06c.03.06.03.06-.06.11zm-.41-2.09s.01.01.04 0zm-.12.49s.03-.01.04 0zm1.18 1.4a.08.08 0 010-.13.09.09 0 010 .13zm.23-1.28s.01.04 0 .03zm.39 1.84a.06.06 0 010-.1v.13zM9.61 28h-.06c-.06 0 0 0 0 0h.06zm.08.21h-.06.05s.01-.06.01-.05zm.06.11a.09.09 0 01.13 0 .08.08 0 01-.13-.05zm.34-1.05s0 .05.06.06 0 0-.05 0-.1-.06-.01-.11zm0 1a.09.09 0 01.13 0c-.09-.01-.12-.01-.17-.06zm.23-.41s-.03-.07-.04-.06zm.12-1.19s-.03-.08-.04-.06zm.14 0a.41.41 0 010-.11l.08.08-.08.09-.04-.08zm.17.19h-.06.05s-.03-.03-.03-.02zm.39-.76a.08.08 0 010 .13.09.09 0 01-.04-.15zm0 .58v-.09l.09.09s-.05.01-.1-.02zm.21.2s.02-.03-.01-.02zm.18-.07s0-.01-.01-.02zm.21-.79h-.06.05V26zm.36-.11s-.01-.04-.01-.02zm.53-.48l-.06-.06c-.06-.06.09-.05.13 0s-.05.02-.08.04zm.13-.31h-.11V25h.11zm0-.81h-.09l.09-.09s0 .02-.03.07zm.24-.21l-.06-.05C13 24 13 24 13 24.1zm.17-.13s-.02.03-.03.03zm1.59-.37h-.05a.13.13 0 010 .06l-.09-.09h.07v-.07h.11zm.53-.06s-.02-.01-.03 0zm.08-1.39c-.06.05-.08.05-.12 0s.07 0 .11 0a.09.09 0 01.08 0zm.33.75h-.07s-.06 0-.08-.05a.33.33 0 010-.1l.14.15zm.45-.24l-.08.09H16a.52.52 0 01-.1-.11v-.08h.16c0-.05 0-.06.06-.06s.05 0 .05.06 0 .09-.05.1zm0-1a.4.4 0 010-.11l.09.09zm.28-.72s-.04-.02-.05-.03zm2.54-2s-.04-.03-.05-.02zm-.1-.73h-.13a.09.09 0 01.08-.02zM8.38 33.46v.01c0-.05 0 0 0 0v-.01zm4.23-4.72s-.01-.01 0 0zm-4.09 5.14s.03-.01 0 0zm.33-.11s-.06-.06-.1-.06h-.07l.15-.15c.05 0 0 .1 0 .15l.05.06a.06.06 0 01-.03 0zm.24.21H9V34zm.18-.06h-.06.05s.01-.01.01 0zm.09-.45c-.05-.07-.05-.07 0-.13h.06c-.02.07-.02.07-.06.13zm.13-.85zm0-.9s.08-.01.05 0zm.27-.07s.05-.02.05 0zm.51-.23s.08-.01.05 0zm.68.28s.05-.01.05 0zm.1-.17s.06.01.05 0zm1.14-.53zm.29-1.73s.03-.02 0-.01zm.12.24v-.12c0-.06.06 0 .07 0s0 0 0 .06zm.15.94h-.06c.01 0 0 0 0 0s.06-.02.06-.01zM13 29v-.06c0-.06 0 0 0 0V29zm.38.21s-.02-.05-.03-.04zm.11 0h-.11c0-.06 0-.08.1-.06zm.12.41s-.02-.09-.03-.08zm.06-1.49a.06.06 0 01-.05 0v-.12l.07.07s-.04-.08-.05-.03zm.28.24s-.02-.07-.03-.08zm.33-1.14s-.03-.1-.03-.08zm.33.91s0-.09-.03-.08zm.22-.57c-.06.05-.06.05-.12 0 .05-.05.05-.05.12 0zm0-.34a.06.06 0 010-.1.06.06 0 01.01.02zm.23.25H15l-.05.06h-.08l.14-.14h.07s.03-.03-.01 0zm0-.24a1 1 0 01-.17 0L15 27h.07l.07.09s0 .06-.02.07zm.54-.24s.01 0 0 0zm.12-.12s.01-.02 0-.03zm.2-.12h-.1.05s.06-.04.05-.03zm.46-.66s.01-.02 0-.03zm.15-.67h-.06c.01 0 0 0 0 0zm.06-.3h-.06.05s.01-.04.01-.03zm.12.36a.06.06 0 01-.1 0 .06.06 0 01.1 0s-.01-.03 0-.03zm.15-.22s.03-.04 0-.03zm.07-.65a.08.08 0 010-.13.09.09 0 010 .1zm.2.86s.01-.04 0-.03zm.06-.09a.11.11 0 010 .05.21.21 0 010-.08zm.33-1.21s.01-.02 0-.03zm.26.12s.01-.05 0-.03zm.4.36s.01-.02 0-.03zm.48-1.13s.03-.04 0-.03zm.57-.93s.01-.04 0-.03zm0 0zm.32.7s.04-.07.03-.06zm.17-1.36h-.08c-.07 0-.07 0-.07-.08a.05.05 0 01.09 0 .31.31 0 01.09.07s.01-.05 0-.05zm.71-.73s.04-.05.03-.06zm2.29.24h-.1v-.05l-.06-.07v-.06l.09-.09v.21a.34.34 0 01.1 0zM9.37 37s-.01 0 0 0zm0 .22a.07.07 0 01-.09 0l.08-.08a.07.07 0 01.09 0zm2.93-4h.08c.01 0 0 0 0 .06a.08.08 0 01-.08 0zm-2.76 4.32s.03-.01 0 0zm.32-.32s.01-.01 0 0zm.43-1.22zm.36.83v-.03zm.81-1.31s.01-.02 0-.03zm.25-.52c-.05 0-.05-.08 0-.13a.09.09 0 010 .13zm.13-1s.01 0 0 0zm.52.55c0 .05 0 .07-.09.05h.1zm.06-.37s.01 0 0-.01zm.19-.05s.01 0 0-.01zm.06.06zm0 .39a.09.09 0 01.13 0 .08.08 0 01-.11-.01zm.87-2.2s.03 0 .02-.01zm.62.6h-.1.07s.06.02.05.02zm0-.53zm.23-1.38s.03 0 .01-.01zm.07.54v-.06c0-.06 0 0 0 0s.04.04.01.05zm.11-.55s.02 0 .01-.01zm.2 1.44zm.28-2l.01.01zm.09.37v.01c0-.05 0 0 0 0s.01-.01.01 0zm.06-.56s.01 0 .01.01zm0 .32s.07 0 .04.01zm.51 1.06a.15.15 0 01-.1 0 1.24 1.24 0 010-.25l.09-.11c.06.1.06.1.05.37zm0-1h-.05c-.05-.06-.05-.06 0-.11h.05c.06.07.06.07.01.12zm.08.28s.02.03.01.03zm.41-1.48l.01.01zm.05 0s-.01 0 .01.02zm0 .28h.1c.02 0 0 0 0 0a.06.06 0 01-.1.02zm.14 1.23h-.06.05c.05 0 0 0 0 0s.04-.06.01 0zm.47-.53l-.06-.07c-.06-.07 0 0 0 0a.06.06 0 01.05 0c.06 0 .06 0 .01.07zm1.62-3.2s.01.01 0 0zm.15 1.43s0-.01 0 0zm1.21-2.41a.08.08 0 01-.13 0 .09.09 0 01.13 0zm-.23.95h.13-.11s-.03.02-.02 0zm0 .28l-.06-.05h.05c.05 0 0 0 0 0l.05.06h.12a1 1 0 01-.14-.01zm.24.13l-.06.06c-.06.06 0-.09 0-.13s.05 0 .07 0 .02.05.01.07zm.15-2.24s0 .01 0 0zm.2-.12zm.17 1.8zm.6-.83zm.06.06zm0-.24s.06-.01.03 0zm.24-1.15s.04.01.03 0zm.06.66s.04.01.03 0zm.38.12s.04-.02.03 0zm.22-1s.07.05.07.04zm.06-.29s.06.03.01.04zm.72-.48s.06.06.03.06zm0-.12s.06.03.03.04zm.12-.23l-.06.05h-.12v-.12a.75.75 0 00.15 0h.05c.05 0 .03.09.01.11zm0-.86s.04.05.03.04zm.25.54zm.47.48s.04.05.03.04zm.27-2.26h-.08l.11.04zm-.1.31v.1a.06.06 0 01.03-.06zm-.34.29h-.06c-.06 0 0 0 0 0s.07.05.09.04zm-.31-1.68a.2.2 0 01.09.09l-.08.09-.08-.05zm.06.35s.06.03.03.04zm1 1.05v-.11zM10.64 40.23a.06.06 0 01-.05 0q-.08 0 0-.12s0 .05.06.06 0 .04-.01.06zm0-1h-.12c-.05 0 .05 0 .06-.06s0 0 .05 0 .02.07.02.08zm.09.57s.04.01.01.02zm.75-1.23a.06.06 0 010-.1l.01.12zm.21.15s.04.01.01.02zm.36.72s.04.01.01.02zm.08-.19a.06.06 0 010-.1s.04.1.01.12zm.3-1.75s.02.01.01.02zm.25 1.32h-.11.11s.01.01.01.02zm.06-1.08h-.06c.01 0 0 0 0 0zm.3.6s.01.01.01.02zm.29.12s.02.01.01.02zm.31-1.5h.13a.09.09 0 01-.12.04zm.27.92h-.05v-.12h.05c.09.09.09.09.01.14zm.26-.26s.02.01.01.02zm.16-.23s.02.03.01.02zm.55-1.85zm.06.06zm.23.9c-.05-.05-.05-.05 0-.12.05.08.05.08.01.14zm1.12-1.77v-.11zm.3.12h.12zm.29-1.43a.06.06 0 01-.1 0 .06.06 0 01.1 0s0 .02.01.02zm.39-.1s.04.01.01.02zm0-.73zm.52-.44s.01.03.02.02zm-.29.63h-.1v-.12h.11c.06.09.06.09.01.14zm.08-.43s.03 0 .02.02zm.25.41h-.06.05zm.06-.18a.08.08 0 01-.12 0l.09-.09c.07.03.05.07.05.11zm.09.19s.02.03.02.02zm1.63-2.44l.08.08h-.11zm-.75.68l.02-.01zm-.44 1.61s0 .01.02.02zm-.35-.34a.08.08 0 01.13 0 .09.09 0 01-.11.02zm.15 1.1s.05.01.02.02zm.09-1.49v.06c0-.01.02-.02.02-.04zm.11 1.32h-.1c-.02 0 0 0 0 0v-.06a.3.3 0 01.12.08zm0-.49zm.14-.44a.08.08 0 01.13 0 .09.09 0 01-.06.02zm.17.43s.08 0 .07.02zm.1-.71l-.09-.09h.13c.05 0 .13.09.03.09zm.09-.51a.09.09 0 01.13 0 .08.08 0 01-.05.02zm.3-.9a.09.09 0 01.13 0 .08.08 0 01-.06.02zm.4 1.05h-.14a.81.81 0 01-.06-.08h.17c.14.04.14.04.1.1zm.16.11s.09.03.07.02zm.07-.72s.08.03.07.02zm.54-1.13s.1.01.07.02zm.45 0c-.06.05-.06.05-.11 0v-.12h.11zm.39-1.06s.08 0 .07-.01zm.43.92l-.06.05h-.12.06l.05-.06h.08c.02 0 .07-.02.06 0zm0-.92zm.11.6s.08 0 .07-.01zm.43-.16a.08.08 0 010-.13.09.09 0 01.07.12zm.23-.85s.08-.01.07-.01zm0-.2v-.06l-.05-.07a.15.15 0 01.16 0v.22c0 .09.03-.08-.01-.1zm.48.3c0-.05.08-.05.13 0a.09.09 0 01-.04-.01zm.27-1.72s.13-.02.1-.01zm.12.11s.11 0 .1-.01zm.33-.61h-.11.12s.09-.02.09-.01zm.1 1.51zm.27-.92s0-.01 0 0zm.15.79s-.02.01-.03 0zm.05-.69l-.07.08L24 27h.2zm0-.28s-.04-.02-.01-.03zm-.1-.94a.09.09 0 01.13 0c-.06.02-.09.02-.14-.03zm.41 1.47zm.37-1.1s-.01-.04-.01-.03zm1.08-1h-.1.1l.04.01zM25.72 24a.06.06 0 01.1 0h-.1zm.07.15l.07-.05v.06l-.05.06s.06 0 0 .06-.05 0-.08 0a.6.6 0 01-.08-.08.07.07 0 01.14-.04zm.88.58v.01zm-14.51 18v.06c0-.01 0 0 0 0v-.03zm.27.31v-.13a.09.09 0 010 .16zm.5-.87a.08.08 0 01-.12 0l.09-.09s.03.08.03.12zm.05-.54s.02.02.02.03zm0-.35s.02.04.02.03zm.45-.43s-.02.02-.02.03zm.09-.29s-.01.04-.02.03zm.05.49s0 .03-.02.03zm.14 1.15a.08.08 0 010-.13.09.09 0 01-.02.16zm0-.9v-.13c0-.05.08 0 .09 0zm5.8-6.4h.05v.1h-.05a.09.09 0 01-.03-.07zm-3 3.7s-.01.03 0 .03zm-2.64 2.11s-.01.02 0 .03zm0 .39s0 .04-.01.03zm.21.59a.06.06 0 01-.1 0 .06.06 0 01.1 0zm.07-1.69s-.01 0 0 0zm.09 1.7a.06.06 0 01-.1 0h.07zm.23-2.14h-.06.17l-.09.09zm.31.64h-.09l-.06-.05c-.06-.05 0 0 0 0h.09c.04 0 0 .05.06.06s.01 0 0 .02zm.3-.37s.01.02 0 .03zm.32-.12h.07a.06.06 0 01-.07.03zm.09.51a.08.08 0 010-.13.09.09 0 010 .16zm.15-.76v-.12c0-.06.06 0 .07 0s-.05.13-.07.15zm.32.15s.04.02.04.03zm.19-1.26a.3.3 0 01-.16 0v-.1h.06zm0-.25zm.5.95h-.09c-.05-.05-.05-.05 0-.11h.12zm.84-.72h-.06.05zm.15-.52s.03.02 0 .03zm.2-1.21zm.26-.44h.12v.06c-.06.02-.06.02-.12-.03zm.17.18h.05c.05 0 0 0 0 0h-.12c-.05 0 .06.06.07.03zm0 .4v-.13a.09.09 0 01.04.16zm.17.35h-.05v-.12h.06c.08.09.08.09.03.15zm.15-1.1h-.06.05l.05.01zm-.12-.49a.09.09 0 01.13 0c-.01.08-.04.08-.09.03zm.17.25s.05.02.04.03zm.12-.17s.05.01.04.03zm0-.22a.09.09 0 010-.13.08.08 0 01.02.16zm.24 1.1s0-.01 0 0zm0-1.15a.06.06 0 010-.1.06.06 0 010 .1zm.22.25a.08.08 0 010-.12l.09.09s-.07.03-.11.03zm.29.36a.06.06 0 01-.07 0l-.06-.07h.15c.05 0 0 .06 0 .08s-.02-.01-.04-.01zm0-.2a.08.08 0 01.13 0 .09.09 0 01-.17 0zm7.46-7.51s-.05.01-.04 0zm-4.24 4s-.07.01-.04 0zm-.6-.29s-.05-.01-.04 0zm-1.48 2.29zm0-.15h-.05c-.05 0-.05 0 0-.11zM20 35.91s0 .01 0 0zm.15-.19h.13a.09.09 0 01-.15 0zm.15-.46s.01-.01-.02 0zm.15-1.65h.05c.05 0 0 0 0 0h-.12c-.05 0 .04.03.05 0zm0 1.09v-.07h.12v.11a.09.09 0 01-.08 0h-.11zm0 .72a.06.06 0 01-.1 0h.14zm.06.14h.04zm.07-1.05c-.07.05-.07.05-.13 0v-.06h.13zm0-.63s.09-.01.06 0zm.09.45a.09.09 0 01.13 0 .08.08 0 01-.07 0zm.23-.33h-.1.05zm.1-.41v-.01zm.21 1.3h-.06c.01 0 0 0 0 0s.06-.02.06-.01zm.05-1.68s.01-.02 0-.01zm.13.84a.08.08 0 01-.12 0l.09-.09c.05.04.03.04.03.04zm0-.52l.03-.01zm.18.72l.03-.01zm.21-.86a.08.08 0 01.13 0 .09.09 0 01-.1-.01zm.18-.79v-.07c0-.02 0 0 0 0l.06.06c.06.06-.02.05-.02 0zm.15.75s.04-.01.03-.01zm.19-.24h-.06c-.05-.05-.05-.05 0-.12h.05c.08.01.08.01.04.11zm.2.46h-.06c.01 0 0 0 0 0s.09-.02.09-.01zm.1-1.64s.02-.02.03-.01zm0 1zm.09.13h-.07v-.08h.09a.05.05 0 010 .06s.05-.04.01.01zm.15-.42c-.05-.05-.05-.08 0-.13a.09.09 0 01.03.12zm.41-.24h-.07a.3.3 0 010-.16h.09l.07.09s-.03.02-.06.06zm.36-1h-.12.11zm.36-.66l-.08-.08a.07.07 0 01.07 0h.1c.02 0-.06.08-.06.1zm1-1.13c-.05 0-.07-.07-.11-.09s0-.07 0-.09l.09.08zm.11-.6v-.13a.09.09 0 01.07.12zm.26 1.72s.07 0 .07.02zm.18-1s.07.04.07.05zm.21-1.23a.09.09 0 010-.13.08.08 0 01.07.18zm.64.25a.74.74 0 01-.12.13c0 .09 0 .1-.1.09s0-.05 0-.08l-.05-.06.05-.07v-.06h.07l.07.06v-.09c.18-.01.13.07.15.13zm.5.09s.13.06.07.05zm.34-1.73v.06c0-.01 0 0 0 0s.07-.02.07-.01zm.81-.65s.04.06.07.05zm-.39-.22h.1a.06.06 0 01-.1 0l.07.05zm1.91 4.93h-.05c-.05 0-.05 0 0-.11l.06.05zm0-2.14a.09.09 0 010 .13c.06 0 .06-.03.11-.08zm0 1.38s.17.05.15.05zm.6.41s.17.06.15.05zm.55-.59h-.06l-.06-.06c-.06-.06 0 0 0 0h.05a.21.21 0 00.08 0c.19.06.19.06.14.11zm.51 2.45s.15.03.15.05zm.16-3.83c.05.06.05.06 0 .12.1.03.1.03.15-.07zm-.06 2.23s.12.06.15.05zm-.19-2l.07-.07s0 .05.06.06 0 0 0 .05l-.05.07c.03.01.03 0 .07-.04zm-.05.36h-.01c-.06 0 0 0 0 0zm0 2s.14.05.15.05zm0 1.11s.11.04.11.05zm.03-.55l.06.06c.06.06 0 0 0 .05s0 0-.05 0q-.1-.01-.01-.11zm-.25-3.82h.06-.12c-.06 0 .02.03.06.02zm-.11.7h.16c.04 0-.14.1-.12.2h-.14c-.06 0 0-.13-.1-.13s.16-.02.2-.05zm-.29 1.22s-.02.01 0 .02zm-.07-2.34s-.01.01 0 .02zm-.06.4h.07c.01 0 0 0 0 .06-.12.02-.12.02-.07-.04zm-.14-.51s-.01.03 0 .02zm-.05 1.24a.09.09 0 010-.13.08.08 0 010 .15zm-.07-1.42s-.05.03 0 .02zm0 .88l.09.09h-.13c-.05 0-.01-.06.06-.07zm0 2.78a.08.08 0 01-.13 0 .09.09 0 01.08.02zm-.17-.85h.07a.06.06 0 01-.1 0l.02.02zm0 1.14zm-.06-1.34s.03.01 0 .02zm0-2h-.17.17zm-.17-.78h.05v.12h-.06s.04-.1.04-.11zm0-.18a.08.08 0 01-.13 0 .09.09 0 01.16.01zm-.16 1.24c.05 0 0 .05 0 .09a.08.08 0 01-.12 0zm-1.08-.79s.06 0 .03.01zm0-.52h-.05v-.1a.07.07 0 010-.07l.06.06a.06.06 0 01.05.12zm.64 1.24l-.05-.04h.11c.04-.01.04-.01 0 .05zm.2.27v-.07c0-.01 0 0 .06 0 .06.13.06.13 0 .08zm-.16 2.15h-.1zm0 .16s0 .05.06.06-.03 0 .02-.05zm-.67-.29a.48.48 0 010 .17h-.06zm-.34 2.17h-.1a.06.06 0 01.18.01zm-.14.75s.06.02.06.01zm.15-.55h-.05c-.05 0-.05 0 0-.11l.06.05zm0 .44s.14 0 .11.01zm0-.86h-.12c-.06 0 0-.06 0-.08v-.05c0-.05 0 0 .05 0l.05.05zm-.16-.26h.2v.11h-.17s.1-.08.11-.1zm-.31-.71h.1c.02 0 0 0 0 0a.06.06 0 01-.1 0zm-.21-.74s.11.02.14.01zm-.12 1.09s.13 0 .14.01zm-.27.25h.1-.1zm0-.14s.08-.02.11-.02zm-.15.44a.16.16 0 01.16 0h.1v.06l-.09.08h-.08c-.07 0-.07 0-.08-.09v-.08zm.12.3h-.13a.09.09 0 01.24.01zm-.29-1.21h.05-.1zm0 1.85s.04.02.07.01zm-1.51 1.86v.11h-.11v-.11zm.64-2.91s.05.03.07.01zm0 0s.01.07.02.05zm-.28 1.49s-.01.06.02.05zm0 .32s-.01.06 0 .05zM25.2 33zm-.12.12h.01c-.09.11-.09.11-.01.05zm0 .39s-.08.07-.02.05zm0 0s-.08.11-.08.09zm-1 .73s-.08.1-.03.09zm-.42.34zm0 .31s-.02.11-.01.11zM23.51 37h-.13a.09.09 0 01.12.09zm-.15-1.64s-.04.1-.01.09zm-.21 0v.01c0-.05-.02.12-.01.11zm-.51 1.35s-.04.13-.01.12zm-.18-.3h-.01c-.06 0 0 0 0 0s-.02.13 0 .12zm-.09.14a.08.08 0 01-.13 0 .09.09 0 01.12.12zm-.15.83s-.02.11-.01.12zm-.13-.38s-.01 0 0 0zm-.24 1h-.01c-.06 0 0 0 0 0h.01zm-.12-1.32s-.03.04 0 .03zm-.36.24s-.03.08 0 .08zm-.12.78s-.03.04 0 .03zm-.08-.64s-.01.04 0 .03zm-.41 1.12v.1a.08.08 0 010 .07v-.1a.08.08 0 010-.04zm-.11.78h-.1a.71.71 0 010 .14l-.08-.08v-.09h.09c.01.07.03.07.09.07zm-.21-1.06s-.01.1 0 .03zm-.06.91l.09.09-.08.07a.4.4 0 01-.01-.13zm-.11 0s-.01.09 0 .08zm-6 6.63s-.02.07-.05.08zm4.31 3.26a.27.27 0 010 .15v-.1c0-.02-.06.05-.05.03zm-.78-1.31s-.06.09-.05.08zm-.22.46l.08.08a.23.23 0 010 .14h-.13a.08.08 0 010-.1v-.07c0-.07-.03.04 0 .03zm-.13-.42h.06c.05.06.05.06 0 .14v.18a.68.68 0 010-.19l-.05-.07zm-.45-.26h.08c.02 0 0 0 0 0a.06.06 0 010 .07l-.07.06c-.01-.02-.01-.08-.01-.13zm-1.14-1.26s.01.02.02 0zm-1-.1zm.71-1.81a.09.09 0 01.13 0 .08.08 0 01-.13 0zm.15-.46s.01 0 0-.01zm.06.24s.01 0 0-.01zm.06-.35s.03-.02 0-.01zm.3-.3a.08.08 0 010-.12l.09.09s-.05.02-.09.02zm.23-.06s.02-.01 0-.01zm8.43 7.72s.01-.02 0-.01zm1.4 1.14v-.06c0-.06-.01.05 0 .05zm-.29 0s-.01.07 0 .07zm-.91-.79v-.06.06zm0-.26s0-.01 0 0zm-.3-.5l.06-.05h.06v.11h-.14c-.05 0-.03-.04-.01-.06zm-.06-.1s-.04-.01-.03 0zm-.12.41s-.06.01-.03 0zm-.15-.69s-.03 0 0 0zm0 .38c-.05.05-.05.05-.12 0s.13 0 .15-.03zm-.11.35h.07a.06.06 0 01-.1 0zm0 .54s.04-.04.05-.03zm-.21-.52l.09.09-.08.07h-.05a.49.49 0 01.09-.19zm-.05-.3s0 .01 0 0zm-.08-.4s0 .01.01 0zm0 .81l.06.06c.06.06 0 0 0 0h-.05c-.05 0 0 0 0 0s-.09-.01-.04-.06zm-.2-1.71s-.04.01-.03 0zm-.32.66c-.07-.08-.07-.08 0-.14h.06c.05 0 0 .12.08.14V50a.28.28 0 01-.18 0v-.07c-.08-.11 0-.06.01-.12zm-.14-.44s-.06.01-.03 0zm0 1a.09.09 0 010 .13c-.08-.1-.08-.13-.03-.18zm-.4-.14a.06.06 0 01-.1 0 .06.06 0 01.1 0s-.04-.05-.03-.05zm.14-1.62s0 .01 0 0zm-.24.14h.18v.07a.55.55 0 01-.12.14l-.1-.07.06-.07zm-.28.07h.11-.12zm-.08-.34zm-2-1.6s-.03-.01-.03 0zm1.8 1.2s-.03-.01-.03 0zm0 1.29a.09.09 0 010-.13c.05.05.05.08 0 .13zm-.05-1.56l.09.09h-.13c-.05 0-.01-.08.04-.09zm-.24.54s-.01 0 0 0zm-.24-.72s-.03.01 0 0zm-.32 1.16s-.01.01 0 0zm-.09-.45a.09.09 0 01.08 0s-.1-.05-.16-.06.04.07.08.06zm-.2-1.07zm-.77-1.09h.05c.05.06.05.08 0 .12s0-.07 0-.11a.09.09 0 01-.05-.01zm-.45-.62s-.02.02 0 0zm-.05 0s-.01.06 0 .04zm-.31 1s.09 0 .09.08v.11a.31.31 0 01-.07-.09l-.02-.01zm-.23-1.76s-.01.1 0 .09zm-.18-.18s-.01.1 0 .09zm0 .28h.12-.11c-.08.15-.08.15 0 .1zm0 .45v.01c0-.05-.02.09-.01.08zm-.19-.72h-.1.1c.02 0-.02.09-.01.09zm-.11-.36v-.06c0-.06-.02.15-.01.15zm-.22 1.35a.07.07 0 01.09 0l-.08.08a.07.07 0 01-.09 0zm-.17-.12a.25.25 0 010 .08l-.08-.08h.08zm-.21-1.5h.11v-.12c-.06 0-.08 0-.06-.09a.25.25 0 010 .08.09.09 0 010 .07s0 .08-.1.06h.05zm-.86-.7s-.01-.05 0-.02zm0 .68l-.06-.05h.05c.03-.03.03-.03-.01.07zm0-2zm-.23.35l.09.09c0 .05-.05 0-.09 0a.08.08 0 01.02-.14zm-.19.08h.05c.05 0 .05.08 0 .13s0 0-.06-.06.02-.1.03-.12zm0-.12s-.03-.06-.02-.05zm-.26 1.31zm1.13-2.61s-.04.01-.02-.05zm0 0s-.08.01-.07.01zm0 1.4h.12c.05 0-.13-.04-.14-.01zm.24-1.18v-.13c0-.05.08 0 .09 0zm.42-.67s.03-.01 0 0zm.06-.24s.03-.01 0 0zm.06-.36s.03-.01 0 0zm2.35 3s-.03-.04 0-.05zm-1.25-2.33s-.02-.06 0-.05zm-.15-1.43s-.01-.04 0-.05zM18.73 41l.09.09h-.13c-.05 0-.01-.09.04-.09zm.47.83s.03.02 0 .03zm.06.12s.03.05 0 .05zm.36-.78a.11.11 0 01-.1 0h-.22l.05-.07v-.08a.14.14 0 01.08.07.42.42 0 010 .1h.06c.06 0 0-.09.06-.11s0 0 0 .07 0 .05.05.07a.26.26 0 01.02-.02zm.45.1a.08.08 0 01.13 0 .09.09 0 01-.13.03zm.24.41l-.09-.09.08-.07a.48.48 0 01.01.19zm.11 1.32s.01 0 0 0zm.28-.22s.03.03 0 .04zm.18.41s.01.05 0 .04zm.72.49s.03.03 0 .04zm.09 0a.09.09 0 01.13 0 .08.08 0 01-.13.07zm1.5 1.87a.08.08 0 01-.12 0l.09-.09c.05.08.03.12.03.16zm.12-.9h-.1.1zm.11 1s.01.02 0 .03zm.17.51l-.06.06c-.06.06-.05-.09 0-.13s0 0 .07 0 0 .08-.01.1zm2.7 1.8s-.03.04 0 .04zm-2.4-1.63h-.06v-.12h.06c.04.09.04.09 0 .15zm.25.1s.01.02 0 .03zm.05.19zm.15-.92a.06.06 0 01.1 0 .06.06 0 01-.1 0v.03zm.1 1.4h-.1.05s.06.02.05.03zm0-.47s.07.02.04.03zm.15.69h-.11v-.06h.11zm.18.66a.09.09 0 01.13 0c-.01.08-.04.08-.09.02zm.17-.16h-.1.05s.11.02.11.03zm.32 0h-.07c-.01 0 0 0 0-.06s.06 0 .07 0 .06.05.04.07zm.1-.82s-.09 0-.13.06-.07 0-.1 0l.11-.09h.11zm.05.61v-.1a.11.11 0 01.05-.09c.01.1.04.16-.01.2zm.3 0s0-.05-.07-.07.14.04.11.09zm.23-.2s.06.03.06.02zm.31 1.39a.09.09 0 010 .13.08.08 0 01.04-.11zm.05.59s.05.03.04.02zm2.05.45s.03.01.04.02zm-1.27-1.27a.09.09 0 010-.13.08.08 0 01.04.15zm.54.95h-.11l.07-.08.09.09zm0-.23a.09.09 0 010-.13.08.08 0 01.04.15zm.33.93s.05.01.05.02zm.19 0s-.06.05-.12 0l.05-.06s.11.08.11.1zm.22 0a.06.06 0 01-.1 0h.07s.08.02.07.03zm.14.35h-.13c-.05 0 .05 0 .07-.07s.1.09.1.1zm.14.86s.07.02.04.03zm.57-.26s.04.02.04.03zm.05.48s.05.02.04.03zm.53 0zm.05-.35s.07-.03.04-.02zm.41.53s.06-.01.04-.02zm6.35-9.31z" fill="#281e53"/><rect x="5" y="5" width="45" height="45" rx="22.5" fill="#fffa0c"/><path d="M23 22a4 4 0 00-4 4v6a4 4 0 008 0v-6a4 4 0 00-4-4zm1 10a1 1 0 01-2 0v-6a1 1 0 012 0z" fill="#28282a"/><path d="M40 16h-4v-3.5A12.77 12.77 0 0023 0a12.77 12.77 0 00-13 12.5V16H6a6 6 0 00-6 6v20a6 6 0 006 6h34a6 6 0 006-6V22a6 6 0 00-6-6zm-27-3.5A9.77 9.77 0 0123 3a9.77 9.77 0 0110 9.5V16h-2v-3.5A7.77 7.77 0 0023 5a7.77 7.77 0 00-8 7.5V16h-2zm15 0V16H18v-3.5A4.77 4.77 0 0123 8a4.77 4.77 0 015 4.5zM40 45H6a3 3 0 01-3-3h40a3 3 0 01-3 3zm3-6H3V22a3 3 0 013-3h34a3 3 0 013 3z" fill="#28282a"/></g></g></svg>