<svg xmlns="http://www.w3.org/2000/svg" viewBox="0 0 51 51"><g data-name="Layer 2"><g data-name="Working Layer"><rect x="6" y="6" width="45" height="45" rx="22.5" fill="#fffa0c"/><path d="M44.56 14.5H37a18.36 18.36 0 00-2-5.16 18.77 18.77 0 00-4.56-5.28A19 19 0 0022.89.47 19.05 19.05 0 0018.75 0 18.72 18.72 0 000 18.75a18.49 18.49 0 00.22 2.73 18.52 18.52 0 002.28 6.6 18.73 18.73 0 0012 8.92v7.56A3.44 3.44 0 0017.94 48h26.62A3.44 3.44 0 0048 44.56V17.94a3.44 3.44 0 00-3.44-3.44zm.44 3.44v4.94l-8.27-4.78-1-.6h8.87a.44.44 0 01.4.44zM31.24 30.07L27 27.63 20.72 24l-3.22-1.87v-4.07l1.94 1.12 6.31 3.63 6.32 3.64.75-1.3-.75 1.3 1.55.9L45 33.91V38zm-8 6.41L38 45h-7.1l-13.4-7.74v-4.1L19 34l.75-1.3L19 34zm-8.74-2.6a15.54 15.54 0 01-3.7-1.57l3.7-2.13v3.7zm20.62-9.13l-.75 1.3.75-1.3-1.55-.89-6.32-3.63-4.71-2.73h7.15l2.63 1.5 2.91 1.68L45 26.34v4.1zm-2.07-12.57a15.61 15.61 0 01.83 2.32H29zm-1.51-2.59L23 14.5h-5.06a3.4 3.4 0 00-1.33.27l.58 1.37-.58-1.37a3.42 3.42 0 00-2.11 3.17v1.49L4.42 25.25a15.13 15.13 0 01-1-3.22l25.9-15a15.9 15.9 0 012.22 2.56zM3 18.75a15.78 15.78 0 01.55-4.11L22.76 3.55a15.71 15.71 0 013.86 1.59L3 18.78zM17.64 3L5.69 9.94A15.7 15.7 0 0117.64 3zM5.91 27.85l8.59-5v3.82l-6.34 3.7a15.84 15.84 0 01-2.25-2.52zM17.5 44.56v-3.83L24.9 45h-7a.44.44 0 01-.4-.44zm27.06.44H44L24.74 33.88l-.74 1.3.75-1.3-4.26-2.47-3-1.71v-4.11l1.72 1 6.31 3.64 4.21 2.43L45 41.47v3.09a.44.44 0 01-.44.44z"/></g></g></svg>