<svg xmlns="http://www.w3.org/2000/svg" viewBox="0 0 51 47"><g data-name="Layer 2"><g data-name="Working Layer"><rect x="6" y="2" width="45" height="45" rx="22.5" fill="#fffa0c"/><path d="M43.5 0h-39A4.51 4.51 0 000 4.5v31A4.51 4.51 0 004.5 40h39a4.51 4.51 0 004.5-4.5v-31A4.51 4.51 0 0043.5 0zM3 12h42v16H3zm0-7.5A1.5 1.5 0 014.5 3h39A1.5 1.5 0 0145 4.5V9H3zm42 31a1.5 1.5 0 01-1.5 1.5h-39A1.5 1.5 0 013 35.5V31h42z" fill="#282828"/><rect x="29.5" y="4" width="5" height="4" rx="1.5" fill="#282828"/><rect x="37.5" y="4" width="5" height="4" rx="1.5" fill="#282828"/><rect x="21.5" y="4" width="5" height="4" rx="1.5" fill="#282828"/><rect x="13.5" y="4" width="5" height="4" rx="1.5" fill="#282828"/><rect x="5.5" y="4" width="5" height="4" rx="1.5" fill="#282828"/><rect x="13.5" y="32" width="5" height="4" rx="1.5" fill="#282828"/><rect x="5.5" y="32" width="5" height="4" rx="1.5" fill="#282828"/><rect x="21.5" y="32" width="5" height="4" rx="1.5" fill="#282828"/><rect x="29.5" y="32" width="5" height="4" rx="1.5" fill="#282828"/><rect x="37.5" y="32" width="5" height="4" rx="1.5" fill="#282828"/><path d="M28.87 18.78L22.14 14a1.5 1.5 0 00-2.37 1.22v9.52a1.5 1.5 0 00.81 1.33 1.56 1.56 0 00.69.17 1.53 1.53 0 00.87-.28l6.73-4.76a1.5 1.5 0 000-2.44zm-6.1 3.08v-3.72L25.4 20z" fill="#282828"/></g></g></svg>