<svg viewBox="0 0 759.84 681.63" xmlns="http://www.w3.org/2000/svg"><g fill="none" stroke-miterlimit="10"><g stroke="#505052" stroke-width="4"><circle cx="319.92" cy="102.89" r="60"/><circle cx="499.92" cy="102.89" r="60"/><circle cx="379.92" cy="342.89" r="60"/><circle cx="379.92" cy="462.89" r="60"/><circle cx="379.92" cy="582.89" r="60"/><circle cx="259.92" cy="582.89" r="60"/><circle cx="379.92" cy="222.89" r="60"/><circle cx="379.92" cy="102.89" r="60"/><circle cx="419.92" cy="65.89" r="20"/><circle cx="379.92" cy="65.89" r="20"/><circle cx="339.92" cy="65.89" r="20"/><circle cx="439.92" cy="582.89" r="60"/><circle cx="259.92" cy="342.89" r="60"/><circle cx="139.92" cy="342.89" r="60"/><circle cx="339.94" cy="619.3" r="20"/><circle cx="419.92" cy="619.3" r="20"/><circle cx="379.92" cy="619.3" r="20"/></g><g opacity=".42" stroke="#000" stroke-width="36"><path d="m439.92 636.88c136.93-27.8 240-148.86 240-294a299.52 299.52 0 0 0 -120-240"/><path d="m319.92 48.89c-136.94 27.8-240 148.86-240 294a299.55 299.55 0 0 0 120 240"/><path d="m319.92 48.89a303.35 303.35 0 0 1 107.46-2.27 15 15 0 0 1 12.54 14.8v461.47"/><path d="m319.92 162.89v461.46a14.94 14.94 0 0 0 12.54 14.8 302.72 302.72 0 0 0 107.46-2.27"/></g><path d="m439.92 636.88c136.93-27.8 240-148.86 240-294a299.52 299.52 0 0 0 -120-240" stroke="#505052" stroke-width="4"/><path d="m319.92 48.89c-136.94 27.8-240 148.86-240 294a299.55 299.55 0 0 0 120 240" stroke="#505052" stroke-width="4"/><path d="m319.92 48.89a303.27 303.27 0 0 1 102.72-3 20.05 20.05 0 0 1 17.28 19.82v457.18" stroke="#505052" stroke-width="4"/><path d="m319.92 162.89v457.16a20 20 0 0 0 17.28 19.81 302.57 302.57 0 0 0 102.72-3" stroke="#505052" stroke-width="4"/><path d="m0 582.89h759.84" stroke="#505052" stroke-width="4"/><path d="m0 102.89h759.84" stroke="#505052" stroke-width="4"/><path d="m0 42.89h759.84" stroke="#505052" stroke-width="4"/><path d="m0 642.89h759.84" stroke="#505052" stroke-width="4"/><path d="m126.76 680.43 509.42-679.23" stroke="#505052" stroke-width="4"/></g></svg>