<svg viewBox="0 0 1116 1436" xmlns="http://www.w3.org/2000/svg"><circle cx="1102.5" cy="13.5" r="13.5"/><circle cx="1102.5" cy="113.5" r="13.5"/><circle cx="1102.5" cy="213.5" r="13.5"/><circle cx="1102.5" cy="313.5" r="13.5"/><circle cx="1102.5" cy="413.5" r="13.5"/><circle cx="1003.5" cy="13.5" r="13.5"/><circle cx="1003.5" cy="113.5" r="13.5"/><circle cx="1003.5" cy="213.5" r="13.5"/><circle cx="1003.5" cy="313.5" r="13.5"/><circle cx="1003.5" cy="413.5" r="13.5"/><circle cx="904.5" cy="13.5" r="13.5"/><circle cx="904.5" cy="113.5" r="13.5"/><circle cx="904.5" cy="213.5" r="13.5"/><circle cx="904.5" cy="313.5" r="13.5"/><circle cx="904.5" cy="413.5" r="13.5"/><circle cx="805.5" cy="13.5" r="13.5"/><circle cx="805.5" cy="113.5" r="13.5"/><circle cx="805.5" cy="213.5" r="13.5"/><circle cx="805.5" cy="313.5" r="13.5"/><circle cx="805.5" cy="413.5" r="13.5"/><circle cx="706.5" cy="13.5" r="13.5"/><circle cx="706.5" cy="113.5" r="13.5"/><circle cx="706.5" cy="213.5" r="13.5"/><circle cx="706.5" cy="313.5" r="13.5"/><circle cx="706.5" cy="413.5" r="13.5"/><circle cx="607.5" cy="13.5" r="13.5"/><circle cx="607.5" cy="113.5" r="13.5"/><circle cx="607.5" cy="213.5" r="13.5"/><circle cx="607.5" cy="313.5" r="13.5"/><circle cx="607.5" cy="413.5" r="13.5"/><circle cx="508.5" cy="13.5" r="13.5"/><circle cx="508.5" cy="113.5" r="13.5"/><circle cx="508.5" cy="213.5" r="13.5"/><circle cx="508.5" cy="313.5" r="13.5"/><circle cx="508.5" cy="413.5" r="13.5"/><circle cx="409.5" cy="13.5" r="13.5"/><circle cx="409.5" cy="113.5" r="13.5"/><circle cx="409.5" cy="213.5" r="13.5"/><circle cx="409.5" cy="313.5" r="13.5"/><circle cx="409.5" cy="413.5" r="13.5"/><circle cx="310.5" cy="13.5" r="13.5"/><circle cx="310.5" cy="113.5" r="13.5"/><circle cx="310.5" cy="213.5" r="13.5"/><circle cx="310.5" cy="313.5" r="13.5"/><circle cx="310.5" cy="413.5" r="13.5"/><circle cx="211.5" cy="13.5" r="13.5"/><circle cx="211.5" cy="113.5" r="13.5"/><circle cx="211.5" cy="213.5" r="13.5"/><circle cx="211.5" cy="313.5" r="13.5"/><circle cx="211.5" cy="413.5" r="13.5"/><circle cx="112.5" cy="13.5" r="13.5"/><circle cx="112.5" cy="113.5" r="13.5"/><circle cx="112.5" cy="213.5" r="13.5"/><circle cx="112.5" cy="313.5" r="13.5"/><circle cx="112.5" cy="413.5" r="13.5"/><circle cx="13.5" cy="13.5" r="13.5"/><circle cx="13.5" cy="113.5" r="13.5"/><circle cx="13.5" cy="213.5" r="13.5"/><circle cx="13.5" cy="313.5" r="13.5"/><circle cx="13.5" cy="413.5" r="13.5"/><g fill="#fff"><circle cx="1102.5" cy="522.5" r="13.5"/><circle cx="1102.5" cy="622.5" r="13.5"/><circle cx="1102.5" cy="722.5" r="13.5"/><circle cx="1102.5" cy="822.5" r="13.5"/><circle cx="1102.5" cy="922.5" r="13.5"/><circle cx="1102.5" cy="1022.5" r="13.5"/><circle cx="1102.5" cy="1122.5" r="13.5"/><circle cx="1102.5" cy="1222.5" r="13.5"/><circle cx="1102.5" cy="1322.5" r="13.5"/><circle cx="1102.5" cy="1422.5" r="13.5"/><circle cx="1003.5" cy="522.5" r="13.5"/><circle cx="1003.5" cy="622.5" r="13.5"/><circle cx="1003.5" cy="722.5" r="13.5"/><circle cx="1003.5" cy="822.5" r="13.5"/><circle cx="1003.5" cy="922.5" r="13.5"/><circle cx="1003.5" cy="1022.5" r="13.5"/><circle cx="1003.5" cy="1122.5" r="13.5"/><circle cx="1003.5" cy="1222.5" r="13.5"/><circle cx="1003.5" cy="1322.5" r="13.5"/><circle cx="1003.5" cy="1422.5" r="13.5"/><circle cx="904.5" cy="522.5" r="13.5"/><circle cx="904.5" cy="622.5" r="13.5"/><circle cx="904.5" cy="722.5" r="13.5"/><circle cx="904.5" cy="822.5" r="13.5"/><circle cx="904.5" cy="922.5" r="13.5"/><circle cx="904.5" cy="1022.5" r="13.5"/><circle cx="904.5" cy="1122.5" r="13.5"/><circle cx="904.5" cy="1222.5" r="13.5"/><circle cx="904.5" cy="1322.5" r="13.5"/><circle cx="904.5" cy="1422.5" r="13.5"/><circle cx="805.5" cy="522.5" r="13.5"/><circle cx="805.5" cy="622.5" r="13.5"/><circle cx="805.5" cy="722.5" r="13.5"/><circle cx="805.5" cy="822.5" r="13.5"/><circle cx="805.5" cy="922.5" r="13.5"/><circle cx="805.5" cy="1022.5" r="13.5"/><circle cx="805.5" cy="1122.5" r="13.5"/><circle cx="805.5" cy="1222.5" r="13.5"/><circle cx="805.5" cy="1322.5" r="13.5"/><circle cx="805.5" cy="1422.5" r="13.5"/><circle cx="706.5" cy="522.5" r="13.5"/><circle cx="706.5" cy="622.5" r="13.5"/><circle cx="706.5" cy="722.5" r="13.5"/><circle cx="706.5" cy="822.5" r="13.5"/><circle cx="706.5" cy="922.5" r="13.5"/><circle cx="706.5" cy="1022.5" r="13.5"/><circle cx="706.5" cy="1122.5" r="13.5"/><circle cx="706.5" cy="1222.5" r="13.5"/><circle cx="706.5" cy="1322.5" r="13.5"/><circle cx="706.5" cy="1422.5" r="13.5"/><circle cx="607.5" cy="522.5" r="13.5"/><circle cx="607.5" cy="622.5" r="13.5"/><circle cx="607.5" cy="722.5" r="13.5"/><circle cx="607.5" cy="822.5" r="13.5"/><circle cx="607.5" cy="922.5" r="13.5"/><circle cx="607.5" cy="1022.5" r="13.5"/><circle cx="607.5" cy="1122.5" r="13.5"/><circle cx="607.5" cy="1222.5" r="13.5"/><circle cx="607.5" cy="1322.5" r="13.5"/><circle cx="607.5" cy="1422.5" r="13.5"/><circle cx="508.5" cy="522.5" r="13.5"/><circle cx="508.5" cy="622.5" r="13.5"/><circle cx="508.5" cy="722.5" r="13.5"/><circle cx="508.5" cy="822.5" r="13.5"/><circle cx="508.5" cy="922.5" r="13.5"/><circle cx="508.5" cy="1022.5" r="13.5"/><circle cx="508.5" cy="1122.5" r="13.5"/><circle cx="508.5" cy="1222.5" r="13.5"/><circle cx="508.5" cy="1322.5" r="13.5"/><circle cx="508.5" cy="1422.5" r="13.5"/><circle cx="409.5" cy="522.5" r="13.5"/><circle cx="409.5" cy="622.5" r="13.5"/><circle cx="409.5" cy="722.5" r="13.5"/><circle cx="409.5" cy="822.5" r="13.5"/><circle cx="409.5" cy="922.5" r="13.5"/><circle cx="409.5" cy="1022.5" r="13.5"/><circle cx="409.5" cy="1122.5" r="13.5"/><circle cx="409.5" cy="1222.5" r="13.5"/><circle cx="409.5" cy="1322.5" r="13.5"/><circle cx="409.5" cy="1422.5" r="13.5"/><circle cx="310.5" cy="522.5" r="13.5"/><circle cx="310.5" cy="622.5" r="13.5"/><circle cx="310.5" cy="722.5" r="13.5"/><circle cx="310.5" cy="822.5" r="13.5"/><circle cx="310.5" cy="922.5" r="13.5"/><circle cx="310.5" cy="1022.5" r="13.5"/><circle cx="310.5" cy="1122.5" r="13.5"/><circle cx="310.5" cy="1222.5" r="13.5"/><circle cx="310.5" cy="1322.5" r="13.5"/><circle cx="310.5" cy="1422.5" r="13.5"/><circle cx="211.5" cy="522.5" r="13.5"/><circle cx="211.5" cy="622.5" r="13.5"/><circle cx="211.5" cy="722.5" r="13.5"/><circle cx="211.5" cy="822.5" r="13.5"/><circle cx="211.5" cy="922.5" r="13.5"/><circle cx="211.5" cy="1022.5" r="13.5"/><circle cx="211.5" cy="1122.5" r="13.5"/><circle cx="211.5" cy="1222.5" r="13.5"/><circle cx="211.5" cy="1322.5" r="13.5"/><circle cx="211.5" cy="1422.5" r="13.5"/><circle cx="112.5" cy="522.5" r="13.5"/><circle cx="112.5" cy="622.5" r="13.5"/><circle cx="112.5" cy="722.5" r="13.5"/><circle cx="112.5" cy="822.5" r="13.5"/><circle cx="112.5" cy="922.5" r="13.5"/><circle cx="112.5" cy="1022.5" r="13.5"/><circle cx="112.5" cy="1122.5" r="13.5"/><circle cx="112.5" cy="1222.5" r="13.5"/><circle cx="112.5" cy="1322.5" r="13.5"/><circle cx="112.5" cy="1422.5" r="13.5"/><circle cx="13.5" cy="522.5" r="13.5"/><circle cx="13.5" cy="622.5" r="13.5"/><circle cx="13.5" cy="722.5" r="13.5"/><circle cx="13.5" cy="822.5" r="13.5"/><circle cx="13.5" cy="922.5" r="13.5"/><circle cx="13.5" cy="1022.5" r="13.5"/><circle cx="13.5" cy="1122.5" r="13.5"/><circle cx="13.5" cy="1222.5" r="13.5"/><circle cx="13.5" cy="1322.5" r="13.5"/><circle cx="13.5" cy="1422.5" r="13.5"/></g></svg>