<?xml version="1.0" encoding="utf-8"?>
<!-- Generator: Adobe Illustrator 23.0.4, SVG Export Plug-In . SVG Version: 6.00 Build 0)  -->
<svg version="1.1" id="Layer_1" xmlns="http://www.w3.org/2000/svg" xmlns:xlink="http://www.w3.org/1999/xlink" x="0px" y="0px"
	 viewBox="0 0 408.4 307.8" style="enable-background:new 0 0 408.4 307.8;" xml:space="preserve">
<style type="text/css">
	.st0{fill:none;stroke:#9A9FA5;stroke-miterlimit:10;}
	.st1{fill:#9A9FA5;}
	.st2{fill:#FFFA0C;}
	.st3{fill:none;stroke:#282828;stroke-width:3;stroke-miterlimit:10;}
</style>
<g>
	<g>
		<path class="st0" d="M56.4,225.2h340"/>
		<path class="st0" d="M56.4,170.8h340"/>
		<path class="st0" d="M56.4,116.4h340"/>
		<path d="M13.9,218.8v1H9.2l-0.5,3.5c0.5-0.3,1.1-0.4,1.7-0.4c2.2,0,4,1.8,4,4s-1.8,4-4,4c-1.3,0-2.6-0.7-3.3-1.8l0.8-0.6
			c0.6,0.8,1.5,1.3,2.5,1.3c1.7,0,3-1.3,3-3s-1.3-3-3-3c-0.8,0-1.5,0.3-2.1,0.8l-0.7-0.1l0.8-5.8L13.9,218.8z M20.5,218.7
			c2.9,0,4,2.6,4,6.1s-1.1,6.1-4,6.1s-4-2.6-4-6.1S17.6,218.7,20.5,218.7z M20.5,229.9c2.2,0,3-2.2,3-5.1s-0.8-5.1-3-5.1
			s-3,2.2-3,5.1S18.3,229.9,20.5,229.9z M29.5,218.7c1.7,0,3,1.3,3,2.9c0,1.7-1.3,3-2.9,3c-1.7,0-3-1.3-3-2.9c0,0,0,0,0,0
			C26.5,220,27.8,218.7,29.5,218.7z M29.5,219.5c-1.2-0.1-2.3,0.9-2.3,2.1c-0.1,1.2,0.9,2.3,2.1,2.3s2.3-0.9,2.3-2.1
			c0,0,0-0.1,0-0.1C31.6,220.6,30.7,219.6,29.5,219.5C29.5,219.5,29.5,219.5,29.5,219.5L29.5,219.5z M29.2,230.7l6.9-11.9H37
			l-6.9,11.9H29.2z M36.7,224.8c1.7,0,3,1.3,3,3c0,1.7-1.3,3-3,3c-1.6,0-3-1.3-3-2.9C33.6,226.2,35,224.8,36.7,224.8
			C36.6,224.8,36.6,224.8,36.7,224.8L36.7,224.8z M36.7,225.7c-1.2-0.1-2.3,0.9-2.3,2.1s0.9,2.3,2.1,2.3c1.2,0.1,2.3-0.9,2.3-2.1
			c0,0,0-0.1,0-0.1C38.8,226.7,37.9,225.7,36.7,225.7C36.7,225.7,36.7,225.7,36.7,225.7L36.7,225.7z M78.5,240.7
			c0.5,0.7,1.3,1.2,2.2,1.2c1.2,0,2.2-0.9,2.2-2.1s-0.9-2.2-2.1-2.2c-0.1,0-0.2,0-0.3,0c-0.5,0-1,0.1-1.4,0.3v-1.4l2.2-2.6h-4v-2
			h7.2v1.4l-2.2,2.6c1.6,0.6,2.7,2.1,2.8,3.9c0,2.3-1.9,4.2-4.2,4.2c-0.1,0-0.2,0-0.2,0c-1.5,0-3-0.7-3.9-1.9L78.5,240.7z
			 M88.2,240.7c0.5,0.7,1.3,1.2,2.2,1.2c1.2,0,2.2-0.9,2.2-2.1s-0.9-2.2-2.1-2.2c-0.1,0-0.2,0-0.3,0c-0.5,0-1,0.1-1.4,0.3v-1.4
			l2.2-2.6h-4v-2h7.2v1.4l-2.2,2.6c1.6,0.6,2.7,2.1,2.8,3.9c0,2.3-1.9,4.2-4.2,4.2c-0.1,0-0.2,0-0.3,0c-1.5,0-3-0.7-3.9-1.9
			L88.2,240.7z M100,231.7c1.7,0,3.1,1.5,3.1,3.2c0,1.7-1.5,3.1-3.2,3.1c-1.7,0-3.1-1.4-3.1-3.1C96.8,233.1,98.2,231.7,100,231.7
			C99.9,231.7,100,231.7,100,231.7z M100,233.5c-0.7,0-1.3,0.5-1.4,1.2c0,0.7,0.5,1.3,1.2,1.4c0.7,0,1.3-0.5,1.4-1.2
			c0,0,0-0.1,0-0.1C101.2,234.2,100.7,233.6,100,233.5C100,233.5,100,233.5,100,233.5z M99.7,243.7l7-11.9h1.9l-7,11.9H99.7z
			 M108.2,237.6c1.7,0,3.1,1.5,3.1,3.2c0,1.7-1.5,3.1-3.2,3.1c-1.7,0-3.1-1.4-3.1-3.1C105,239,106.4,237.6,108.2,237.6
			C108.2,237.6,108.2,237.6,108.2,237.6z M108.2,239.5c-0.7,0-1.3,0.5-1.4,1.2c0,0.7,0.5,1.3,1.2,1.4c0.7,0,1.3-0.5,1.4-1.2
			c0,0,0-0.1,0-0.1C109.5,240.1,109,239.5,108.2,239.5C108.3,239.5,108.3,239.5,108.2,239.5z M163.6,209.8v7.1h1.9v2h-1.9v2.7h-2.3
			V219h-5.5v-1.4l6.2-7.8L163.6,209.8z M161.3,217v-2.8l-2.2,2.8H161.3z M166.4,212.4c0.5-1.6,2-2.8,3.8-2.8c2-0.1,3.8,1.5,3.9,3.6
			c0,0,0,0.1,0,0.1c-0.1,1.3-0.6,2.5-1.5,3.4l-2.5,2.9h4.1v2h-7.7v-1.4l4.2-4.7c0.7-0.6,1.1-1.4,1.2-2.3c0-0.9-0.7-1.6-1.6-1.6
			c-0.8,0-1.5,0.6-1.6,1.3L166.4,212.4z M179.1,209.7c1.7,0,3.1,1.5,3.1,3.2c0,1.7-1.5,3.1-3.2,3.1c-1.7,0-3.1-1.4-3.1-3.1
			C175.8,211.1,177.3,209.7,179.1,209.7C179,209.7,179,209.7,179.1,209.7z M179.1,211.5c-0.7,0-1.3,0.5-1.4,1.2
			c0,0.7,0.5,1.3,1.2,1.4c0.7,0,1.3-0.5,1.4-1.2c0,0,0-0.1,0-0.1C180.3,212.2,179.8,211.6,179.1,211.5
			C179.1,211.5,179.1,211.5,179.1,211.5z M178.8,221.7l7-11.9h1.9l-6.9,11.9H178.8z M187.3,215.6c1.7,0,3.1,1.5,3.1,3.2
			c0,1.7-1.5,3.1-3.2,3.1c-1.7,0-3.1-1.4-3.1-3.1C184.1,217,185.5,215.6,187.3,215.6C187.2,215.6,187.3,215.6,187.3,215.6
			L187.3,215.6z M187.3,217.5c-0.7,0-1.3,0.5-1.4,1.2c0,0.7,0.5,1.3,1.2,1.4c0.7,0,1.3-0.5,1.4-1.2c0,0,0-0.1,0-0.1
			C188.5,218.1,188,217.5,187.3,217.5C187.3,217.5,187.3,217.5,187.3,217.5L187.3,217.5z M0,166.4l2.6-1.6h0.7v11.9h-1v-10.6
			L0,167.4V166.4z M10.4,164.7c2.9,0,4,2.6,4,6.1s-1.1,6.1-4,6.1s-4-2.6-4-6.1S7.5,164.7,10.4,164.7z M10.4,175.9c2.2,0,3-2.2,3-5.1
			s-0.8-5.1-3-5.1s-3,2.2-3,5.1S8.2,175.9,10.4,175.9z M20.5,164.7c2.9,0,4,2.6,4,6.1s-1.1,6.1-4,6.1s-4-2.6-4-6.1
			S17.6,164.7,20.5,164.7z M20.5,175.9c2.2,0,3-2.2,3-5.1s-0.8-5.1-3-5.1s-3,2.2-3,5.1S18.3,175.9,20.5,175.9z M29.5,164.7
			c1.7,0,3,1.3,3,2.9c0,1.7-1.3,3-2.9,3c-1.7,0-3-1.3-3-2.9c0,0,0,0,0,0C26.5,166,27.8,164.7,29.5,164.7z M29.5,165.5
			c-1.2-0.1-2.3,0.9-2.3,2.1c-0.1,1.2,0.9,2.3,2.1,2.3s2.3-0.9,2.3-2.1c0,0,0-0.1,0-0.1C31.6,166.6,30.7,165.6,29.5,165.5
			C29.5,165.5,29.5,165.5,29.5,165.5L29.5,165.5z M29.2,176.7l6.9-11.9H37l-6.9,11.9H29.2z M36.7,170.8c1.7,0,3,1.3,3,3
			c0,1.7-1.3,3-3,3c-1.6,0-3-1.3-3-2.9C33.6,172.2,35,170.8,36.7,170.8C36.6,170.8,36.6,170.8,36.7,170.8L36.7,170.8z M36.7,171.7
			c-1.2-0.1-2.3,0.9-2.3,2.1s0.9,2.3,2.1,2.3c1.2,0.1,2.3-0.9,2.3-2.1c0,0,0-0.1,0-0.1C38.8,172.7,37.9,171.7,36.7,171.7
			C36.7,171.7,36.7,171.7,36.7,171.7L36.7,171.7z M0.8,112.4l2.6-1.6h0.7v11.9h-1v-10.6l-2.3,1.3V112.4z M13.9,110.8v1H9.2l-0.5,3.5
			c0.5-0.3,1.1-0.4,1.7-0.4c2.2,0,4,1.8,4,4s-1.8,4-4,4c-1.3,0-2.6-0.7-3.3-1.8l0.8-0.6c0.6,0.8,1.5,1.3,2.5,1.3c1.7,0,3-1.3,3-3
			l0,0c0-1.7-1.3-3-3-3c-0.8,0-1.5,0.3-2.1,0.8l-0.7-0.1l0.8-5.8L13.9,110.8z M20.5,110.7c2.9,0,4,2.6,4,6.1s-1.1,6.1-4,6.1
			s-4-2.6-4-6.1S17.6,110.7,20.5,110.7z M20.5,121.9c2.2,0,3-2.2,3-5.2s-0.8-5.2-3-5.2s-3,2.2-3,5.2S18.3,121.9,20.5,121.9z
			 M29.5,110.7c1.7,0,3,1.3,3,2.9s-1.3,3-2.9,3c-1.7,0-3-1.3-3-2.9c0,0,0,0,0,0C26.5,112,27.8,110.7,29.5,110.7z M29.5,111.5
			c-1.2-0.1-2.3,0.9-2.3,2.1c-0.1,1.2,0.9,2.3,2.1,2.3s2.3-0.9,2.3-2.1c0,0,0-0.1,0-0.1C31.6,112.6,30.7,111.6,29.5,111.5
			C29.5,111.5,29.5,111.5,29.5,111.5L29.5,111.5z M29.2,122.7l6.9-11.9H37l-6.9,11.9H29.2z M36.7,116.8c1.7,0,3,1.3,3,3
			c0,1.7-1.3,3-3,3c-1.6,0-3-1.3-3-2.9C33.6,118.2,35,116.8,36.7,116.8C36.6,116.8,36.6,116.8,36.7,116.8L36.7,116.8z M36.7,117.7
			c-1.2-0.1-2.3,0.9-2.3,2.1c-0.1,1.2,0.9,2.3,2.1,2.3s2.3-0.9,2.3-2.1c0,0,0-0.1,0-0.1C38.8,118.7,37.9,117.7,36.7,117.7
			C36.7,117.7,36.7,117.7,36.7,117.7L36.7,117.7z M104.3,291.8v1h-4.8l-0.5,3.5c0.5-0.3,1.1-0.4,1.7-0.4c2.2,0,4,1.8,4,4s-1.8,4-4,4
			c-1.3,0-2.6-0.7-3.3-1.8l0.8-0.5c0.6,0.8,1.5,1.3,2.5,1.3c1.7,0,3-1.3,3-3s-1.3-3-3-3c-0.8,0-1.5,0.3-2.1,0.8l-0.7-0.1l0.8-5.8
			L104.3,291.8z M117.8,301.4h-0.7l-4.2-7v9.4h-1v-11.9h0.7l4.9,8.2l4.9-8.2h0.7v11.9h-1v-9.4L117.8,301.4z M129.3,303.9
			c-2.2,0-4-1.8-4-4s1.8-4,4-4c2.2,0,4,1.8,4,4C133.3,302.1,131.6,303.9,129.3,303.9C129.3,303.9,129.3,303.9,129.3,303.9z
			 M129.3,296.7c-1.7-0.1-3.2,1.3-3.3,3c-0.1,1.7,1.3,3.2,3,3.3c1.7,0.1,3.2-1.3,3.3-3c0,0,0-0.1,0-0.1c0.1-1.7-1.2-3.1-2.9-3.1
			C129.4,296.7,129.4,296.7,129.3,296.7z M136.4,297.1c1.3-1.5,3.5-1.7,5-0.4c0.2,0.1,0.3,0.3,0.5,0.5c0.5,0.7,0.7,1.6,0.7,2.5v4.1
			h-1v-4.1c0.1-0.7-0.1-1.3-0.4-1.9c-0.5-0.6-1.2-1-2-1c-1.1,0-2.2,0.6-2.7,1.6v5.4h-1V296h0.9L136.4,297.1z M149.7,296.9h-2.6v4.2
			c0,0.5,0.1,0.9,0.3,1.3c0.3,0.4,0.8,0.6,1.3,0.5c0.3,0,0.6,0,0.8-0.1l0.2,0.9c-0.3,0.1-0.7,0.1-1,0.1c-0.8,0-1.5-0.3-2.1-0.9
			c-0.4-0.6-0.6-1.2-0.5-1.9v-4.2h-2.2V296h2.1v-2.1h1v2.1h2.6L149.7,296.9z M153,297c1.3-1.5,3.6-1.6,5.1-0.3
			c0.1,0.1,0.3,0.3,0.4,0.4c0.5,0.7,0.7,1.6,0.7,2.5v4.1h-1v-4.1c0.1-0.7-0.1-1.3-0.4-1.9c-0.5-0.6-1.2-1-2-1
			c-1.1,0-2.2,0.6-2.7,1.6v5.4h-1v-12.1h1L153,297z M161.7,302.1c0.6,0.6,1.5,0.9,2.3,0.9c1,0,1.8-0.5,1.8-1.4c0-2-4.5-0.9-4.5-3.5
			c0.1-1.3,1.3-2.4,2.6-2.3c0,0,0,0,0,0c0.9,0,1.8,0.3,2.5,0.8l-0.5,0.8c-0.6-0.4-1.2-0.6-1.9-0.6c-0.8,0-1.7,0.4-1.7,1.3
			c0,1.7,4.5,0.8,4.5,3.5c0,1.3-1.2,2.4-2.5,2.3c-0.1,0-0.1,0-0.2,0c-1.1,0-2.2-0.4-3-1.1L161.7,302.1z M139.1,0.1h1.7
			c0.1,0,0.1,0,0.1,0.1c0,0,0.1,0.1,0.1,0.2v12.2c0,0.1,0,0.1-0.1,0.2c0,0-0.1,0.1-0.1,0.1h-1.7c-0.1,0-0.1,0-0.1-0.1
			c0,0-0.1-0.1-0.1-0.2V4V4l-0.1,0l-1.6,2.8C137.2,7,137.2,7,137.1,7S137,7,136.9,6.9L135.4,4c0,0,0,0-0.1,0v8.6
			c0,0.1,0,0.1-0.1,0.2c0,0-0.1,0.1-0.1,0.1h-1.7c-0.1,0-0.1,0-0.1-0.1c0,0-0.1-0.1-0.1-0.2V0.4c0-0.1,0-0.1,0.1-0.2
			c0,0,0.1-0.1,0.1-0.1h1.6c0.1,0,0.2,0,0.3,0.1l1.7,3.1h0.1l1.7-3.1C138.9,0.2,139,0.1,139.1,0.1L139.1,0.1z M143.6,12
			c-0.6-0.7-1-1.6-0.9-2.5v-6c0-0.9,0.3-1.8,0.9-2.5c0.7-0.6,1.6-1,2.5-0.9c0.9,0,1.8,0.3,2.5,0.9c0.6,0.7,1,1.6,0.9,2.5v6
			c0,0.9-0.3,1.8-0.9,2.5c-0.7,0.6-1.6,1-2.5,0.9C145.2,12.9,144.3,12.6,143.6,12z M147.1,10.7c0.3-0.3,0.4-0.7,0.4-1.1V3.3
			c0-0.4-0.1-0.8-0.4-1.1c-0.5-0.6-1.4-0.6-1.9-0.1c0,0,0,0-0.1,0.1c-0.3,0.3-0.4,0.7-0.4,1.1v6.2c0,0.4,0.1,0.8,0.4,1.1
			C145.6,11.2,146.4,11.2,147.1,10.7C147,10.7,147,10.7,147.1,10.7z M156.5,0.2c0,0,0.1-0.1,0.2-0.1h1.6c0.1,0,0.1,0,0.2,0.1
			c0,0,0.1,0.1,0.1,0.2v12.2c0,0.1,0,0.1-0.1,0.2c0,0-0.1,0.1-0.2,0.1h-1.9c-0.1,0-0.2-0.1-0.2-0.2l-2.7-7.6c0,0,0,0-0.1,0
			c0,0,0,0,0,0.1v7.6c0,0.1,0,0.1-0.1,0.2c0,0-0.1,0.1-0.2,0.1h-1.6c-0.1,0-0.1,0-0.1-0.1c0,0-0.1-0.1-0.1-0.2V0.4
			c0-0.1,0-0.1,0.1-0.2c0,0,0.1-0.1,0.1-0.1h1.9c0.1,0,0.2,0.1,0.2,0.2l2.7,7.6c0,0,0.1,0,0.1,0V0.4C156.4,0.3,156.4,0.2,156.5,0.2
			L156.5,0.2z M167.1,0.2c0,0,0.1,0.1,0.1,0.2v1.4c0,0.1,0,0.1-0.1,0.2c0,0-0.1,0.1-0.1,0.1h-2.3c0,0-0.1,0-0.1,0.1c0,0,0,0,0,0
			v10.5c0,0.1,0,0.1-0.1,0.2c0,0-0.1,0.1-0.2,0.1h-1.6c-0.1,0-0.1,0-0.1-0.1c0,0-0.1-0.1-0.1-0.2V2c0,0,0-0.1-0.1-0.1c0,0,0,0,0,0
			h-2.2c-0.1,0-0.1,0-0.1-0.1c0,0-0.1-0.1-0.1-0.2V0.4c0-0.1,0-0.1,0.1-0.2c0,0,0.1-0.1,0.1-0.1h6.7C167,0.1,167,0.2,167.1,0.2
			L167.1,0.2z M173.2,0.2c0,0,0.1-0.1,0.1-0.1h1.7c0.1,0,0.1,0,0.1,0.1c0,0,0.1,0.1,0.1,0.2v12.2c0,0.1,0,0.1-0.1,0.2
			c0,0-0.1,0.1-0.1,0.1h-1.7c-0.1,0-0.1,0-0.1-0.1c0,0-0.1-0.1-0.1-0.2V7.4c0,0,0-0.1-0.1-0.1h-2.3c0,0-0.1,0-0.1,0.1c0,0,0,0,0,0
			v5.1c0,0.1,0,0.1-0.1,0.2c0,0-0.1,0.1-0.1,0.1h-1.6c-0.1,0-0.2-0.1-0.2-0.2c0,0,0,0,0,0V0.4c0-0.1,0.1-0.2,0.2-0.2c0,0,0,0,0,0
			h1.6c0.1,0,0.1,0,0.1,0.1c0,0,0.1,0.1,0.1,0.2v5.1c0,0,0,0.1,0.1,0.1c0,0,0,0,0,0h2.3c0,0,0.1,0,0.1-0.1c0,0,0,0,0,0V0.4
			C173.1,0.3,173.1,0.2,173.2,0.2L173.2,0.2z M177.2,12.7c0,0-0.1-0.1-0.1-0.2V0.4c0-0.1,0-0.1,0.1-0.2c0,0,0.1-0.1,0.1-0.1h1.7
			c0.1,0,0.1,0,0.1,0.1c0,0,0.1,0.1,0.1,0.2v10.5c0,0,0,0.1,0.1,0.1c0,0,0,0,0,0h3.9c0.1,0,0.1,0,0.1,0.1c0,0,0.1,0.1,0.1,0.2v1.4
			c0,0.1,0,0.1-0.1,0.2c0,0-0.1,0.1-0.1,0.1h-5.9C177.3,12.7,177.2,12.7,177.2,12.7L177.2,12.7z M186.2,12.7c0,0-0.1-0.1-0.1-0.1v-5
			l-2.5-7V0.3c0,0,0.1-0.2,0.2-0.2h1.7c0.1,0,0.2,0.1,0.3,0.2l1.4,4.6h0.1l1.4-4.6c0-0.1,0.1-0.2,0.3-0.2h1.7c0.1,0,0.1,0,0.2,0.1
			c0,0.1,0,0.1,0,0.2l-2.5,7v5c0,0.1-0.1,0.2-0.2,0.2l0,0h-1.7C186.3,12.7,186.3,12.7,186.2,12.7L186.2,12.7z M195.9,12.7
			c0,0-0.1-0.1-0.1-0.2V0.4c0-0.1,0-0.1,0.1-0.2c0,0,0.1-0.1,0.1-0.1h1.7c0.1,0,0.1,0,0.1,0.1c0,0,0.1,0.1,0.1,0.2v12.2
			c0,0.1,0,0.1-0.1,0.2c0,0-0.1,0.1-0.1,0.1h-1.7C196,12.7,196,12.7,195.9,12.7z M205.1,0.2c0,0,0.1-0.1,0.2-0.1h1.6
			c0.1,0,0.1,0,0.2,0.1c0,0,0.1,0.1,0.1,0.2v12.2c0,0.1,0,0.1-0.1,0.2c0,0-0.1,0.1-0.2,0.1H205c-0.1,0-0.2-0.1-0.2-0.2l-2.7-7.6
			c0,0,0,0-0.1,0v7.6c0,0.1,0,0.1-0.1,0.2c0,0-0.1,0.1-0.1,0.1h-1.6c-0.1,0-0.1,0-0.1-0.1c0,0-0.1-0.1-0.1-0.2V0.4
			c0-0.1,0-0.1,0.1-0.2c0,0,0.1-0.1,0.1-0.1h1.9c0.1,0,0.2,0.1,0.2,0.2l2.7,7.6h0.1c0.1,0,0,0,0-0.1V0.4C205,0.3,205,0.2,205.1,0.2z
			 M209.7,12c-0.6-0.7-1-1.5-0.9-2.5V3.4c0-0.9,0.3-1.8,0.9-2.5c0.7-0.6,1.6-0.9,2.5-0.9c0.9,0,1.8,0.3,2.5,0.9
			c0.6,0.7,1,1.5,0.9,2.5v0.2c0,0.1,0,0.1-0.1,0.2c0,0-0.1,0.1-0.1,0.1l-1.7,0.1c-0.1,0-0.2-0.1-0.2-0.2c0,0,0,0,0,0V3.2
			c0-0.4-0.1-0.7-0.4-1c-0.3-0.3-0.6-0.4-1-0.4c-0.4,0-0.7,0.1-0.9,0.4c-0.2,0.3-0.4,0.6-0.4,1v6.4c0,0.4,0.1,0.7,0.4,1
			c0.2,0.3,0.6,0.4,0.9,0.4c0.4,0,0.7-0.1,1-0.4c0.2-0.3,0.4-0.6,0.4-1V9.2c0-0.1,0.1-0.2,0.2-0.2l0,0l1.7,0.1
			c0.1,0,0.2,0.1,0.2,0.2c0,0,0,0,0,0v0.2c0,0.9-0.3,1.8-0.9,2.5c-0.7,0.6-1.6,1-2.5,0.9C211.3,12.9,210.4,12.6,209.7,12L209.7,12z
			 M218,11.9c-0.6-0.7-1-1.6-0.9-2.5v-6c0-0.9,0.3-1.8,0.9-2.5c1.4-1.2,3.6-1.2,5,0c0.7,0.7,1,1.6,1,2.5v6c0,0.9-0.3,1.8-1,2.5
			C221.6,13.2,219.4,13.2,218,11.9L218,11.9z M221.5,10.7c0.3-0.3,0.4-0.7,0.4-1.1V3.3c0-0.4-0.1-0.8-0.4-1.1
			c-0.3-0.3-0.6-0.4-1-0.4c-0.4,0-0.7,0.1-1,0.4c-0.3,0.3-0.4,0.7-0.4,1.1v6.2c0,0.4,0.1,0.8,0.4,1.1c0.3,0.3,0.6,0.4,1,0.4
			C220.8,11.1,221.2,10.9,221.5,10.7z M231.6,0.1h1.6c0.1,0,0.1,0,0.2,0.1c0,0,0.1,0.1,0.1,0.2v12.2c0,0.1,0,0.1-0.1,0.2
			c0,0-0.1,0.1-0.2,0.1h-1.6c-0.1,0-0.1,0-0.2-0.1c0,0-0.1-0.1-0.1-0.2V4V4c0,0-0.1,0-0.1,0l-1.6,2.8C229.7,7,229.6,7,229.6,7
			s-0.1-0.1-0.2-0.2L227.8,4c0,0-0.1,0-0.1,0s0,0,0,0.1v8.5c0,0.1,0,0.1-0.1,0.2c0,0-0.1,0.1-0.2,0.1h-1.6c-0.1,0-0.1,0-0.2-0.1
			c0,0-0.1-0.1-0.1-0.2V0.4c0-0.1,0-0.1,0.1-0.2c0,0,0.1-0.1,0.2-0.1h1.6c0.1,0,0.2,0,0.3,0.1l1.8,3.1h0.1l1.7-3.1
			C231.4,0.2,231.5,0.2,231.6,0.1z M241.6,1.9c0,0-0.1,0.1-0.2,0.1h-3.9c0,0-0.1,0-0.1,0.1c0,0,0,0,0,0v3.4c0,0,0,0.1,0.1,0.1
			c0,0,0,0,0,0h2.3c0.1,0,0.1,0,0.1,0.1c0,0,0.1,0.1,0.1,0.2v1.4c0,0.1,0,0.1-0.1,0.2c0,0-0.1,0.1-0.1,0.1h-2.3c0,0-0.1,0-0.1,0.1
			c0,0,0,0,0,0v3.4c0,0,0,0.1,0.1,0.1c0,0,0,0,0,0h3.9c0.1,0,0.1,0,0.2,0.1c0,0,0.1,0.1,0.1,0.2v1.4c0,0.1-0.1,0.2-0.2,0.2
			c0,0,0,0,0,0h-5.9c-0.1,0-0.1,0-0.1-0.1c0,0-0.1-0.1-0.1-0.2V0.4c0-0.1,0-0.1,0.1-0.2c0,0,0.1-0.1,0.1-0.1h5.9
			c0.1,0,0.2,0.1,0.2,0.2c0,0,0,0,0,0v1.4C241.6,1.8,241.6,1.8,241.6,1.9z M246.8,12.7c0,0-0.1-0.1-0.1-0.2V0.4c0-0.1,0-0.1,0.1-0.2
			c0,0,0.1-0.1,0.1-0.1h1.7c0.1,0,0.1,0,0.1,0.1c0,0,0.1,0.1,0.1,0.2v12.2c0,0.1,0,0.1-0.1,0.2c0,0-0.1,0.1-0.1,0.1H247
			C246.9,12.7,246.9,12.7,246.8,12.7z M256,0.2c0,0,0.1-0.1,0.2-0.1h1.6c0.1,0,0.1,0,0.1,0.1c0,0,0.1,0.1,0.1,0.2v12.2
			c0,0.1,0,0.1-0.1,0.2c0,0-0.1,0.1-0.1,0.1h-1.9c-0.1,0-0.2-0.1-0.2-0.2L253,4.9h-0.1c0,0-0.1,0-0.1,0.1v7.6c0,0.1-0.1,0.2-0.2,0.2
			c0,0,0,0,0,0h-1.6c-0.1,0-0.1,0-0.2-0.1c0,0-0.1-0.1-0.1-0.2V0.4c0-0.1,0-0.1,0.1-0.2c0,0,0.1-0.1,0.2-0.1h1.9
			c0.1,0,0.2,0.1,0.2,0.2l2.7,7.6h0.1c0.1,0,0,0,0-0.1V0.4C255.9,0.3,255.9,0.2,256,0.2L256,0.2z M260.6,12c-0.6-0.7-1-1.5-0.9-2.5
			V3.4c0-0.9,0.3-1.8,0.9-2.5c0.7-0.6,1.5-0.9,2.5-0.9c0.9,0,1.8,0.3,2.5,0.9c0.6,0.7,1,1.5,0.9,2.5v0.2c0,0.1,0,0.1-0.1,0.2
			c0,0-0.1,0.1-0.1,0.1l-1.7,0.1c-0.1,0-0.2-0.1-0.2-0.2c0,0,0,0,0,0V3.2c0-0.4-0.1-0.7-0.4-1c-0.3-0.3-0.6-0.4-1-0.4
			c-0.4,0-0.7,0.1-0.9,0.4c-0.2,0.3-0.4,0.6-0.4,1v6.4c0,0.4,0.1,0.7,0.4,1c0.2,0.3,0.6,0.4,0.9,0.4c0.4,0,0.7-0.1,1-0.4
			c0.2-0.3,0.4-0.6,0.4-1V9.2c0-0.1,0.1-0.2,0.2-0.2l1.7,0.1c0.1,0,0.2,0.1,0.2,0.2v0.2c0,0.9-0.3,1.8-0.9,2.5
			c-0.7,0.6-1.6,1-2.5,0.9C262.2,12.9,261.3,12.6,260.6,12z M272.9,12.6l-1.5-5.1c0,0,0-0.1-0.1-0.1h-1c0,0-0.1,0-0.1,0.1
			c0,0,0,0,0,0v5.1c0,0.1,0,0.1-0.1,0.2c0,0-0.1,0.1-0.2,0.1h-1.6c-0.1,0-0.1,0-0.1-0.1c0,0-0.1-0.1-0.1-0.2V0.4
			c0-0.1,0-0.1,0.1-0.2c0,0,0.1-0.1,0.1-0.1h3.4c1.2,0,2.3,0.7,2.8,1.8c0.3,0.6,0.4,1.3,0.4,1.9c0,0.7-0.1,1.3-0.4,1.9
			c-0.3,0.5-0.7,0.9-1.2,1.2c0,0-0.1,0.1-0.1,0.1l1.8,5.4c0,0,0,0.1,0,0.1c0,0.1-0.1,0.2-0.2,0.2h-1.7
			C273,12.7,272.9,12.7,272.9,12.6z M270.2,2v3.6c0,0,0,0.1,0.1,0.1c0,0,0,0,0,0h1.1c0.4,0,0.8-0.2,1-0.5c0.3-0.4,0.4-0.9,0.4-1.4
			c0-0.5-0.1-1-0.4-1.4c-0.2-0.3-0.6-0.5-1-0.5L270.2,2C270.3,1.9,270.2,2,270.2,2C270.2,2,270.2,2,270.2,2z M282.7,1.9
			c0,0-0.1,0.1-0.1,0.1h-3.9c0,0-0.1,0-0.1,0.1c0,0,0,0,0,0v3.4c0,0,0,0.1,0.1,0.1c0,0,0,0,0,0h2.3c0.1,0,0.2,0.1,0.2,0.2
			c0,0,0,0,0,0v1.4c0,0.1-0.1,0.2-0.2,0.2c0,0,0,0,0,0h-2.3c0,0-0.1,0-0.1,0.1c0,0,0,0,0,0v3.4c0,0,0,0.1,0.1,0.1c0,0,0,0,0,0h3.9
			c0.1,0,0.1,0,0.1,0.1c0,0,0.1,0.1,0.1,0.2v1.4c0,0.1,0,0.1-0.1,0.2c0,0-0.1,0.1-0.1,0.1h-5.9c-0.1,0-0.1,0-0.2-0.1
			c0,0-0.1-0.1-0.1-0.2V0.4c0-0.1,0-0.1,0.1-0.2c0,0,0.1-0.1,0.2-0.1h5.9c0.1,0,0.1,0,0.1,0.1c0,0,0.1,0.1,0.1,0.2v1.4
			C282.7,1.8,282.7,1.8,282.7,1.9z M289.5,12.5l-0.3-1.9c0-0.1,0-0.1-0.1-0.1h-2.6c-0.1,0-0.1,0-0.1,0.1l-0.3,1.9
			c0,0.1-0.1,0.2-0.2,0.2c0,0,0,0,0,0h-1.7c-0.2,0-0.2-0.1-0.2-0.2l2.7-12.2c0-0.1,0.1-0.2,0.2-0.2c0,0,0,0,0,0h1.9
			c0.1,0,0.2,0.1,0.2,0.2c0,0,0,0,0,0l2.7,12.2v0.1c0,0.1-0.1,0.2-0.2,0.2h-1.7C289.6,12.8,289.5,12.7,289.5,12.5
			C289.5,12.6,289.5,12.6,289.5,12.5L289.5,12.5z M286.7,8.9h2c0.1,0,0.1,0,0.1-0.1l-1-5.7V3.1l-0.1,0.1L286.7,8.9
			C286.7,8.9,286.7,8.9,286.7,8.9z M293,12c-0.6-0.6-0.9-1.5-0.9-2.4V9.2c0-0.1,0-0.1,0.1-0.2c0,0,0.1-0.1,0.1-0.1h1.6
			c0.1,0,0.1,0,0.1,0.1c0,0,0.1,0.1,0.1,0.2v0.4c0,0.4,0.1,0.8,0.4,1.1c0.2,0.3,0.6,0.4,0.9,0.4c0.3,0,0.7-0.1,0.9-0.4
			c0.2-0.3,0.4-0.7,0.4-1.1c0-0.3-0.1-0.6-0.2-0.8c-0.1-0.2-0.3-0.5-0.6-0.6c-0.2-0.2-0.6-0.5-1.1-0.9c-0.5-0.4-1-0.7-1.5-1.2
			c-0.4-0.4-0.7-0.8-0.9-1.2c-0.2-0.5-0.4-1.1-0.3-1.7c0-0.9,0.3-1.7,0.9-2.4c0.6-0.6,1.5-0.9,2.4-0.9c0.9,0,1.8,0.3,2.4,0.9
			c0.6,0.7,1,1.5,0.9,2.5v0.4c0,0.1-0.1,0.2-0.2,0.2h-1.6c-0.1,0-0.1,0-0.1-0.1c0,0-0.1-0.1-0.1-0.2V3.3c0-0.4-0.1-0.8-0.4-1.1
			c-0.2-0.3-0.6-0.4-0.9-0.4c-0.3,0-0.7,0.1-0.9,0.4c-0.3,0.3-0.4,0.7-0.4,1.1c0,0.4,0.1,0.8,0.4,1.1c0.4,0.5,0.9,0.9,1.5,1.2
			c0.6,0.4,1.1,0.9,1.7,1.3c0.4,0.3,0.6,0.7,0.9,1.1c0.2,0.5,0.3,1,0.3,1.5c0,0.9-0.3,1.8-0.9,2.5c-0.6,0.6-1.5,1-2.4,0.9
			C294.5,12.9,293.6,12.6,293,12L293,12z M306.4,1.9c0,0-0.1,0.1-0.1,0.1h-3.9c0,0-0.1,0-0.1,0.1c0,0,0,0,0,0v3.4c0,0,0,0.1,0.1,0.1
			c0,0,0,0,0,0h2.3c0.1,0,0.1,0,0.1,0.1c0,0,0.1,0.1,0.1,0.2v1.4c0,0.1,0,0.1-0.1,0.2c0,0-0.1,0.1-0.1,0.1h-2.3c0,0-0.1,0-0.1,0.1
			c0,0,0,0,0,0v3.4c0,0,0,0.1,0.1,0.1c0,0,0,0,0,0h3.9c0.1,0,0.1,0,0.1,0.1c0,0,0.1,0.1,0.1,0.2v1.4c0,0.1,0,0.1-0.1,0.2
			c0,0-0.1,0.1-0.1,0.1h-5.9c-0.1,0-0.1,0-0.1-0.1c0,0-0.1-0.1-0.1-0.2V0.4c0-0.1,0-0.1,0.1-0.2c0,0,0.1-0.1,0.1-0.1h5.9
			c0.1,0,0.1,0,0.1,0.1c0,0,0.1,0.1,0.1,0.2v1.4C306.4,1.8,306.4,1.8,306.4,1.9z M176.6,35.9c-0.6-1-1-2.1-1.3-3.3
			c-0.7-2.8-0.7-5.7,0-8.5c0.3-1.2,0.7-2.3,1.3-3.3c0-0.1,0.1-0.1,0.2-0.1h1.6c0.1,0,0.1,0,0.2,0.1c0,0.1,0,0.1,0,0.2
			c-0.5,1.1-0.8,2.2-1.1,3.4c-0.3,1.3-0.5,2.7-0.4,4.1c0,1.3,0.1,2.7,0.4,4c0.3,1.2,0.6,2.3,1.1,3.4v0.1c0,0,0,0.1,0,0.1
			c0,0-0.1,0-0.1,0h-1.6C176.8,36,176.7,36,176.6,35.9L176.6,35.9z M187,23.4c0,0-0.1,0.1-0.1,0.1H183c0,0-0.1,0-0.1,0.1
			c0,0,0,0,0,0V27c0,0,0,0.1,0.1,0.1c0,0,0,0,0,0h2.3c0.1,0,0.1,0,0.2,0.1c0,0,0.1,0.1,0.1,0.2v1.4c0,0.1,0,0.1-0.1,0.2
			c0,0-0.1,0.1-0.2,0.1H183c0,0-0.1,0-0.1,0.1c0,0,0,0,0,0v3.4c0,0,0,0.1,0.1,0.1c0,0,0,0,0,0h3.9c0.1,0,0.1,0,0.1,0.1
			c0,0,0.1,0.1,0.1,0.2v1.4c0,0.1,0,0.1-0.1,0.2c0,0-0.1,0.1-0.1,0.1H181c-0.1,0-0.1,0-0.1-0.1c0,0-0.1-0.1-0.1-0.2V22
			c0-0.1,0-0.1,0.1-0.2c0,0,0.1-0.1,0.1-0.1h5.9c0.1,0,0.1,0,0.1,0.1c0,0,0.1,0.1,0.1,0.2v1.4C187,23.4,187,23.4,187,23.4z
			 M193.8,34.1l-0.3-1.9c0-0.1,0-0.1-0.1-0.1h-2.6c-0.1,0-0.1,0-0.1,0.1l-0.4,1.9c0,0.1-0.1,0.2-0.2,0.2c0,0,0,0,0,0h-1.6
			c-0.2,0-0.2-0.1-0.2-0.2l2.7-12.2c0-0.1,0.1-0.2,0.2-0.2c0,0,0,0,0,0h1.9c0.1,0,0.2,0.1,0.2,0.2c0,0,0,0,0,0l2.7,12.2v0.1
			c0,0.1-0.1,0.2-0.2,0.2h-1.7C193.9,34.3,193.8,34.3,193.8,34.1L193.8,34.1z M191.1,30.5h2c0.1,0,0.1,0,0.1-0.1l-1.1-5.7
			c0,0,0-0.1-0.1-0.1s0,0,0,0.1L191.1,30.5C191,30.5,191,30.5,191.1,30.5z M197.3,33.6c-0.6-0.6-1-1.5-0.9-2.4v-0.5
			c0-0.1,0-0.1,0.1-0.2c0,0,0.1-0.1,0.1-0.1h1.6c0.1,0,0.2,0.1,0.2,0.2c0,0,0,0,0,0v0.4c0,0.4,0.1,0.8,0.4,1.1
			c0.2,0.3,0.6,0.4,0.9,0.4c0.4,0,0.7-0.1,0.9-0.4c0.2-0.3,0.4-0.7,0.4-1.1c0-0.3-0.1-0.6-0.2-0.8c-0.1-0.2-0.3-0.5-0.6-0.6
			c-0.2-0.2-0.6-0.5-1.1-0.9c-0.5-0.4-1-0.7-1.4-1.1c-0.4-0.4-0.7-0.8-0.9-1.2c-0.3-0.5-0.4-1.1-0.4-1.6c0-0.9,0.3-1.7,0.9-2.4
			c1.4-1.2,3.4-1.2,4.8,0c0.6,0.7,1,1.5,0.9,2.5v0.5c0,0.1,0,0.1-0.1,0.1c0,0-0.1,0.1-0.2,0.1h-1.6c-0.1,0-0.1,0-0.1-0.1
			c0,0-0.1-0.1-0.1-0.1v-0.5c0-0.4-0.1-0.8-0.4-1.1c-0.2-0.3-0.6-0.4-0.9-0.4c-0.3,0-0.7,0.1-0.9,0.4c-0.2,0.3-0.4,0.7-0.4,1.1
			c0,0.4,0.1,0.8,0.4,1.1c0.4,0.5,0.9,0.9,1.4,1.2c0.6,0.4,1.1,0.9,1.7,1.3c0.4,0.3,0.6,0.7,0.9,1.1c0.2,0.5,0.3,1,0.3,1.5
			c0,0.9-0.3,1.8-0.9,2.5C200.7,34.8,198.7,34.8,197.3,33.6L197.3,33.6z M211,21.8c0,0,0.1,0.1,0.1,0.2v1.4c0,0.1,0,0.1-0.1,0.2
			c0,0-0.1,0.1-0.1,0.1h-2.3c0,0-0.1,0-0.1,0.1c0,0,0,0,0,0v10.5c0,0.1,0,0.1-0.1,0.2c0,0-0.1,0.1-0.1,0.1h-1.7
			c-0.1,0-0.1,0-0.1-0.1c0,0-0.1-0.1-0.1-0.2V23.6c0,0,0-0.1-0.1-0.1c0,0,0,0,0,0h-2.2c-0.1,0-0.1,0-0.2-0.1c0,0-0.1-0.1-0.1-0.2V22
			c0-0.1,0.1-0.2,0.2-0.2c0,0,0,0,0,0h6.7C210.9,21.7,211,21.8,211,21.8L211,21.8z M221,34.1l-0.3-1.9c0-0.1,0-0.1-0.1-0.1h-2.6
			c-0.1,0-0.1,0-0.1,0.1l-0.4,1.9c0,0.1-0.1,0.2-0.2,0.2c0,0,0,0,0,0h-1.6c-0.2,0-0.2-0.1-0.2-0.2l2.7-12.2c0-0.1,0.1-0.2,0.2-0.2
			c0,0,0,0,0,0h1.9c0.1,0,0.2,0.1,0.2,0.2c0,0,0,0,0,0l2.7,12.2v0.1c0,0.1-0.1,0.2-0.2,0.2h-1.7C221.1,34.3,221.1,34.3,221,34.1z
			 M218.2,30.5h2c0.1,0,0.1,0,0.1-0.1l-1-5.7c0,0,0-0.1-0.1-0.1s0,0,0,0.1L218.2,30.5C218.2,30.5,218.2,30.5,218.2,30.5z
			 M230.5,23.4c0,0-0.1,0.1-0.1,0.1h-3.9c0,0-0.1,0-0.1,0.1c0,0,0,0,0,0V27c0,0,0,0.1,0.1,0.1c0,0,0,0,0,0h2.3c0.1,0,0.1,0,0.1,0.1
			c0,0,0.1,0.1,0.1,0.2v1.4c0,0.1,0,0.1-0.1,0.2c0,0-0.1,0.1-0.1,0.1h-2.3c0,0-0.1,0-0.1,0.1c0,0,0,0,0,0v5.1c0,0.1-0.1,0.2-0.2,0.2
			c0,0,0,0,0,0h-1.6c-0.1,0-0.2-0.1-0.2-0.2c0,0,0,0,0,0V22c0-0.1,0-0.1,0.1-0.2c0,0,0.1-0.1,0.2-0.1h5.8c0.1,0,0.1,0,0.1,0.1
			c0,0,0.1,0.1,0.1,0.2v1.4C230.6,23.4,230.6,23.4,230.5,23.4L230.5,23.4z M236.6,34.2l-1.5-5.2c0,0,0-0.1-0.1-0.1h-1
			c0,0-0.1,0-0.1,0.1c0,0,0,0,0,0v5.1c0,0.1-0.1,0.2-0.2,0.2c0,0,0,0,0,0h-1.6c-0.1,0-0.2-0.1-0.2-0.2c0,0,0,0,0,0V22
			c0-0.1,0-0.1,0.1-0.2c0,0,0.1-0.1,0.2-0.1h3.4c1.2,0,2.3,0.7,2.8,1.8c0.3,0.6,0.4,1.3,0.4,1.9c0,0.7-0.1,1.3-0.4,1.9
			c-0.3,0.5-0.7,0.9-1.2,1.2c-0.1,0-0.1,0-0.1,0.1l1.8,5.4c0,0,0,0.1,0,0.1c0,0.1-0.1,0.2-0.2,0.2h-1.7
			C236.7,34.4,236.6,34.3,236.6,34.2L236.6,34.2z M233.9,23.6v3.6c0,0,0,0.1,0.1,0.1c0,0,0,0,0,0h1.1c0.4,0,0.8-0.2,1-0.5
			c0.3-0.4,0.4-0.9,0.4-1.4c0-0.5-0.1-1-0.4-1.4c-0.2-0.3-0.6-0.5-1-0.5L233.9,23.6C233.9,23.5,233.9,23.6,233.9,23.6
			C233.9,23.6,233.9,23.6,233.9,23.6L233.9,23.6z M240.2,34.3c0,0-0.1-0.1-0.1-0.2V22c0-0.1,0-0.1,0.1-0.2c0,0,0.1-0.1,0.2-0.1h1.6
			c0.1,0,0.1,0,0.1,0.1c0,0,0.1,0.1,0.1,0.2v12.2c0,0.1,0,0.1-0.1,0.2c0,0-0.1,0.1-0.1,0.1h-1.6C240.3,34.3,240.2,34.3,240.2,34.3z
			 M244.8,33.6c-0.6-0.7-1-1.5-0.9-2.5V25c0-0.9,0.3-1.8,0.9-2.5c1.4-1.2,3.5-1.2,4.9,0c0.6,0.7,1,1.5,0.9,2.5v0.2
			c0,0.1,0,0.1-0.1,0.2c0,0-0.1,0.1-0.2,0.1l-1.7,0.1c-0.1,0-0.2-0.1-0.2-0.2c0,0,0,0,0-0.1v-0.5c0-0.4-0.1-0.7-0.4-1
			c-0.5-0.5-1.4-0.5-1.9,0c-0.2,0.3-0.4,0.6-0.4,1v6.4c0,0.4,0.1,0.7,0.4,1c0.5,0.5,1.4,0.5,1.9,0c0.2-0.3,0.4-0.6,0.4-1v-0.5
			c0-0.1,0-0.1,0.1-0.1c0,0,0.1-0.1,0.1-0.1l1.7,0.1c0.1,0,0.1,0,0.2,0.1c0,0,0.1,0.1,0.1,0.1v0.2c0,0.9-0.3,1.8-0.9,2.5
			C248.4,34.8,246.3,34.8,244.8,33.6z M257.1,34.1l-0.3-1.9c0-0.1,0-0.1-0.1-0.1h-2.6c-0.1,0-0.1,0-0.1,0.1l-0.4,1.9
			c0,0.1-0.1,0.2-0.2,0.2c0,0,0,0,0,0h-1.6c-0.2,0-0.2-0.1-0.2-0.2l2.6-12.2c0-0.1,0.1-0.2,0.2-0.2c0,0,0,0,0,0h1.9
			c0.1,0,0.2,0.1,0.2,0.2c0,0,0,0,0,0l2.7,12.2v0.1c0,0.1-0.1,0.2-0.2,0.2h-1.7C257.2,34.3,257.1,34.3,257.1,34.1z M254.3,30.5h2
			c0.1,0,0.1,0,0.1-0.1l-1.1-5.7c0,0,0-0.1-0.1-0.1s0,0-0.1,0.1L254.3,30.5C254.2,30.5,254.3,30.5,254.3,30.5L254.3,30.5z
			 M262.6,20.8c0.6,1,1.1,2.1,1.3,3.3c0.4,1.4,0.5,2.8,0.5,4.2c0,1.4-0.2,2.9-0.5,4.3c-0.3,1.2-0.7,2.3-1.4,3.3
			c0,0.1-0.1,0.2-0.2,0.2h-1.6c-0.1,0-0.1,0-0.2-0.1c0-0.1,0-0.1,0-0.2c0.5-1.1,0.8-2.2,1.1-3.4c0.3-1.3,0.4-2.7,0.4-4.1
			c0-1.4-0.1-2.7-0.4-4c-0.3-1.2-0.6-2.3-1.1-3.4c0,0,0-0.1,0-0.1c0-0.1,0-0.1,0.2-0.1h1.6C262.5,20.7,262.6,20.7,262.6,20.8z
			 M283,300.7h-6V300l6.4-8.2h0.7v7.9h2v1h-2v3.1h-1L283,300.7z M283,299.7v-5.8l-4.5,5.8H283z M292.2,307.8l2.1-4.7l-3.5-7.1h1.1
			l2.9,6l2.7-6h1l-5.4,11.8H292.2z M306.5,302.4c-0.8,0.9-2,1.5-3.2,1.4c-2.1,0-3.9-1.7-3.9-3.8c0-0.1,0-0.2,0-0.2
			c-0.1-2.1,1.5-3.9,3.6-4c0,0,0.1,0,0.1,0c2,0,3.6,1.6,3.6,3.6c0,0.1,0,0.1,0,0.2c0,0.1,0,0.2,0,0.3h-6.3c0,1.6,1.3,3,2.9,3
			c0,0,0,0,0,0c1,0,1.9-0.4,2.5-1.1L306.5,302.4z M300.5,299h5.3c-0.2-1.3-1.3-2.3-2.6-2.3C301.9,296.7,300.7,297.7,300.5,299
			L300.5,299z M315.1,303.7v-1.1c-0.7,0.9-1.7,1.3-2.8,1.3c-2.2,0-4-1.7-4-3.9c0-0.1,0-0.1,0-0.2c0-1.2,0.5-2.4,1.4-3.2
			c0.7-0.6,1.6-0.9,2.5-0.9c1.1,0,2.1,0.4,2.8,1.2V296h1v7.8L315.1,303.7z M315.1,298.3c-0.6-1-1.7-1.5-2.8-1.6
			c-0.7,0-1.3,0.2-1.9,0.7c-0.7,0.6-1.1,1.5-1.1,2.5c-0.1,1.7,1.2,3.1,2.9,3.1c0,0,0.1,0,0.1,0c1.2,0,2.2-0.7,2.8-1.7L315.1,298.3z
			 M322.8,296.8h-0.5c-1.1,0-2,0.7-2.4,1.7v5.3h-1V296h1v1c0.6-0.8,1.5-1.2,2.5-1.2h0.6L322.8,296.8z M324.7,302.1
			c0.6,0.6,1.5,0.9,2.3,0.9c1,0,1.8-0.5,1.8-1.4c0-2-4.5-0.9-4.5-3.5c0.1-1.3,1.3-2.4,2.6-2.3c0,0,0,0,0,0c0.9,0,1.8,0.3,2.5,0.8
			l-0.5,0.8c-0.6-0.4-1.2-0.6-1.9-0.6c-0.8,0-1.7,0.4-1.7,1.3c0,1.7,4.5,0.8,4.5,3.5c0,1.3-1.2,2.4-2.5,2.3c-0.1,0-0.1,0-0.2,0
			c-1.1,0-2.2-0.4-3-1.1L324.7,302.1z"/>
		<path class="st1" d="M67.9,249.1h32.3c11.4,0,20.7,9.3,20.7,20.7v9.8h-53V249.1z"/>
		<path class="st2" d="M146.9,234.1h32.3c11.4,0,20.7,9.3,20.7,20.7v24.8h-53V234.1z"/>
		<path d="M254.8,209.8v7.1h2v2h-2v2.7h-2.3V219H247v-1.4l6.2-7.8L254.8,209.8z M252.5,217v-2.8l-2.2,2.8H252.5z M257.4,211.5
			l2.9-1.7h1.6v11.9h-2.3v-9.2l-2.2,1.2L257.4,211.5z M267.8,209.7c1.7,0,3.1,1.5,3.1,3.2s-1.5,3.1-3.2,3.1c-1.7,0-3.1-1.4-3.1-3.1
			C264.6,211.1,266,209.7,267.8,209.7C267.7,209.7,267.8,209.7,267.8,209.7z M267.8,211.5c-0.7,0-1.3,0.5-1.4,1.2
			c0,0.7,0.5,1.3,1.2,1.4s1.3-0.5,1.4-1.2c0,0,0-0.1,0-0.1C269,212.2,268.5,211.6,267.8,211.5C267.8,211.5,267.8,211.5,267.8,211.5z
			 M267.5,221.7l7-11.9h1.9l-7,11.9H267.5z M276,215.6c1.7,0,3.1,1.5,3.1,3.2s-1.5,3.1-3.2,3.1c-1.7,0-3.1-1.4-3.1-3.1
			C272.8,217,274.2,215.6,276,215.6C276,215.6,276,215.6,276,215.6L276,215.6z M276,217.5c-0.7,0-1.3,0.5-1.4,1.2
			c0,0.7,0.5,1.3,1.2,1.4s1.3-0.5,1.4-1.2c0,0,0-0.1,0-0.1C277.3,218.1,276.8,217.5,276,217.5C276.1,217.5,276.1,217.5,276,217.5
			L276,217.5z M321.6,67.5l2.9-1.7h1.6v11.9h-2.3v-9.2l-2.2,1.2V67.5z M328.8,74c0-1.2,0.7-2.4,1.7-3c-0.6-0.5-1-1.3-1-2.1
			c0-1.9,1.6-3.5,3.5-3.5s3.5,1.6,3.5,3.5c0,0.8-0.3,1.6-1,2.1c1.1,0.6,1.7,1.8,1.7,3c-0.2,2.3-2.3,4.1-4.7,3.8
			C330.5,77.7,328.9,76.1,328.8,74L328.8,74z M335,74c0.1-1.1-0.7-2.1-1.8-2.2c-1.1-0.1-2.1,0.7-2.2,1.8c-0.1,1.1,0.7,2.1,1.8,2.2
			c0.1,0,0.1,0,0.2,0C334,75.9,334.9,75.1,335,74C334.9,74.1,334.9,74.1,335,74z M334.2,68.9c0-0.7-0.5-1.2-1.2-1.2
			s-1.2,0.5-1.2,1.2s0.5,1.2,1.2,1.2S334.2,69.6,334.2,68.9z M340,74.7c0.5,0.7,1.3,1.2,2.2,1.2c1.2,0,2.2-0.9,2.2-2.1
			c0-1.2-0.9-2.2-2.1-2.2c-0.1,0-0.2,0-0.3,0c-0.5,0-1,0.1-1.4,0.3v-1.4l2.2-2.6h-4v-2h7.2v1.4l-2.2,2.7c1.6,0.6,2.7,2.1,2.8,3.9
			c0,2.3-1.9,4.2-4.2,4.2c-0.1,0-0.2,0-0.3,0c-1.5,0-3-0.7-4-1.8L340,74.7z M351.8,65.7c1.7,0,3.1,1.5,3.1,3.2s-1.5,3.1-3.2,3.1
			c-1.7,0-3.1-1.4-3.1-3.1C348.5,67.1,349.9,65.7,351.8,65.7C351.7,65.7,351.7,65.7,351.8,65.7z M351.8,67.5c-0.7,0-1.3,0.5-1.4,1.2
			c0,0.7,0.5,1.3,1.2,1.4s1.3-0.5,1.4-1.2c0,0,0-0.1,0-0.1C353,68.2,352.5,67.6,351.8,67.5C351.8,67.5,351.8,67.5,351.8,67.5z
			 M351.5,77.7l7-11.9h1.9l-7,11.9H351.5z M360,71.6c1.7,0,3.1,1.5,3.1,3.2s-1.5,3.1-3.2,3.1c-1.7,0-3.1-1.4-3.1-3.1
			C356.8,73,358.2,71.6,360,71.6C359.9,71.6,360,71.6,360,71.6z M360,73.5c-0.7,0-1.3,0.5-1.4,1.2c0,0.7,0.5,1.3,1.2,1.4
			s1.3-0.5,1.4-1.2c0,0,0-0.1,0-0.1C361.2,74.1,360.7,73.5,360,73.5C360,73.5,360,73.5,360,73.5z"/>
		<path class="st1" d="M236.9,238.1h32.3c11.4,0,20.7,9.3,20.7,20.7v20.8h-53V238.1z"/>
		<path class="st2" d="M315.9,83.1h32.3c11.4,0,20.7,9.3,20.7,20.7v175.8h-53V83.1z"/>
		<path class="st3" d="M36.4,279.6h372"/>
	</g>
</g>
</svg>
