<svg xmlns="http://www.w3.org/2000/svg" viewBox="0 0 408.38 307.82"><g data-name="Layer 2"><g data-name="Layer 1"><path fill="none" stroke="#9a9fa5" stroke-miterlimit="10" d="M56.38 225.19L396.38 225.19"/><path fill="none" stroke="#9a9fa5" stroke-miterlimit="10" d="M56.38 170.79L396.38 170.79"/><path fill="none" stroke="#9a9fa5" stroke-miterlimit="10" d="M56.38 116.39L396.38 116.39"/><path d="M13.95 218.84v1H9.19l-.49 3.5a3.76 3.76 0 0 1 1.66-.39 4 4 0 0 1 0 8 4 4 0 0 1-3.3-1.79l.8-.55a3.05 3.05 0 0 0 2.53 1.33 3 3 0 0 0 3-3 3 3 0 0 0-3-3 3.17 3.17 0 0 0-2.1.83l-.68-.1.81-5.78zm6.53-.17c2.92 0 4 2.6 4 6.12s-1.07 6.12-4 6.12-4-2.6-4-6.12 1.08-6.12 4-6.12zm0 11.27c2.21 0 3-2.21 3-5.15s-.76-5.15-3-5.15-3 2.21-3 5.15.79 5.15 3 5.15zm8.99-11.27a3 3 0 1 1-2.95 3 3 3 0 0 1 2.95-3zm0 .85a2.2 2.2 0 1 0 2.07 2.19 2.1 2.1 0 0 0-2.08-2.19zm-.31 11.22l6.9-11.9h.89l-6.89 11.9zm7.5-5.92a3 3 0 1 1-3 3.05 3 3 0 0 1 2.99-3.05zm0 .85a2.2 2.2 0 1 0 2.07 2.2 2.11 2.11 0 0 0-2.1-2.2zm41.84 15.01a2.76 2.76 0 0 0 2.21 1.19 2.17 2.17 0 1 0-.11-4.33 3.13 3.13 0 0 0-1.43.34v-1.36l2.22-2.64h-4v-2h7.22v1.36l-2.16 2.65a4.12 4.12 0 0 1 2.76 3.86 4.2 4.2 0 0 1-4.44 4.2 5.25 5.25 0 0 1-3.94-1.85zm9.75 0a2.73 2.73 0 0 0 2.21 1.19 2.17 2.17 0 1 0-.12-4.33 3.13 3.13 0 0 0-1.43.34v-1.36l2.23-2.64h-4v-2h7.22v1.36l-2.16 2.65a4.12 4.12 0 0 1 2.76 3.86 4.19 4.19 0 0 1-4.44 4.2 5.25 5.25 0 0 1-3.94-1.85zm11.74-9.01a3.15 3.15 0 1 1-3.23 3.15 3.16 3.16 0 0 1 3.23-3.15zm0 1.87a1.28 1.28 0 1 0 1.19 1.28 1.2 1.2 0 0 0-1.19-1.28zm-.27 10.2l7-11.9h1.89l-7 11.9zm8.52-6.12a3.15 3.15 0 1 1-3.23 3.15 3.16 3.16 0 0 1 3.23-3.15zm0 1.87a1.28 1.28 0 1 0 1.19 1.28 1.2 1.2 0 0 0-1.19-1.28zm55.32-29.65v7.14h1.95v2h-1.95v2.72h-2.3v-2.72h-5.52v-1.36l6.2-7.82zm-2.3 7.14v-2.79l-2.2 2.79zm5.19-4.54a3.9 3.9 0 0 1 3.75-2.75 3.71 3.71 0 0 1 3.86 3.65 5.12 5.12 0 0 1-1.53 3.42L170 219.7h4.06v2h-7.7v-1.36l4.18-4.74a3.57 3.57 0 0 0 1.18-2.33 1.58 1.58 0 0 0-1.55-1.6 1.7 1.7 0 0 0-1.62 1.34zm12.61-2.77a3.15 3.15 0 1 1-3.23 3.15 3.16 3.16 0 0 1 3.23-3.15zm0 1.87a1.28 1.28 0 1 0 1.19 1.28 1.19 1.19 0 0 0-1.19-1.28zm-.28 10.2l7-11.9h1.88l-6.95 11.9zm8.52-6.12a3.15 3.15 0 1 1-3.23 3.15 3.16 3.16 0 0 1 3.2-3.15zm0 1.87a1.28 1.28 0 1 0 1.19 1.28 1.2 1.2 0 0 0-1.22-1.28zM0 166.44l2.63-1.6h.68v11.9h-1v-10.56L0 167.44zm10.45-1.77c2.92 0 4 2.6 4 6.12s-1.07 6.12-4 6.12-4-2.6-4-6.12 1.08-6.12 4-6.12zm0 11.27c2.21 0 3-2.21 3-5.15s-.76-5.15-3-5.15-3 2.21-3 5.15.79 5.15 3 5.15zm10.03-11.27c2.92 0 4 2.6 4 6.12s-1.07 6.12-4 6.12-4-2.6-4-6.12 1.08-6.12 4-6.12zm0 11.27c2.21 0 3-2.21 3-5.15s-.76-5.15-3-5.15-3 2.21-3 5.15.79 5.15 3 5.15zm8.99-11.27a3 3 0 1 1-2.95 3 3 3 0 0 1 2.95-3zm0 .85a2.2 2.2 0 1 0 2.07 2.19 2.1 2.1 0 0 0-2.08-2.19zm-.31 11.22l6.9-11.9h.89l-6.89 11.9zm7.5-5.92a3 3 0 1 1-3 3.05 3 3 0 0 1 2.99-3.05zm0 .85a2.2 2.2 0 1 0 2.07 2.2 2.11 2.11 0 0 0-2.1-2.2zM.76 112.44l2.63-1.6h.67v11.9h-1v-10.56l-2.3 1.26zm13.19-1.6v1H9.19l-.49 3.5a3.76 3.76 0 0 1 1.66-.39 4 4 0 0 1 0 8 4 4 0 0 1-3.3-1.79l.8-.55a3.05 3.05 0 0 0 2.53 1.33 3 3 0 0 0 3-3 3 3 0 0 0-3-3 3.17 3.17 0 0 0-2.1.83l-.68-.1.81-5.78zm6.53-.17c2.92 0 4 2.6 4 6.12s-1.07 6.12-4 6.12-4-2.6-4-6.12 1.08-6.12 4-6.12zm0 11.27c2.21 0 3-2.21 3-5.15s-.76-5.15-3-5.15-3 2.21-3 5.15.79 5.15 3 5.15zm8.99-11.27a3 3 0 1 1-2.95 3 3 3 0 0 1 2.95-3zm0 .85a2.2 2.2 0 1 0 2.07 2.19 2.1 2.1 0 0 0-2.08-2.19zm-.31 11.22l6.9-11.9h.89l-6.89 11.9zm7.5-5.92a3 3 0 1 1-3 3.05 3 3 0 0 1 2.99-3.05zm0 .85a2.2 2.2 0 1 0 2.07 2.2 2.11 2.11 0 0 0-2.1-2.2zm67.61 174.17v1h-4.76l-.5 3.5a3.84 3.84 0 0 1 1.67-.39 4 4 0 0 1 0 8 4.07 4.07 0 0 1-3.35-1.75l.8-.55a3.09 3.09 0 0 0 2.54 1.33 3 3 0 0 0 3-3 3 3 0 0 0-3-3 3.17 3.17 0 0 0-2.11.83l-.68-.1.82-5.78zm13.53 9.52h-.68l-4.2-7v9.42h-1v-11.94h.68l4.88 8.18 4.88-8.18h.7v11.9h-1v-9.42zm11.51 2.55a4 4 0 1 1 4-4.05 4 4 0 0 1-4 4.05zm0-7.17a3.13 3.13 0 1 0 3 3.12 3 3 0 0 0-3-3.12zm7.14.34a3.57 3.57 0 0 1 5.49.05 3.72 3.72 0 0 1 .66 2.48v4.13h-1v-4.06a3.11 3.11 0 0 0-.44-1.91 2.41 2.41 0 0 0-2-1 3.07 3.07 0 0 0-2.69 1.61v5.39h-1v-7.75h.94zm13.21-.17h-2.6v4.25a1.94 1.94 0 0 0 .34 1.29 1.59 1.59 0 0 0 1.29.54 2.94 2.94 0 0 0 .84-.1l.17.88a3.62 3.62 0 0 1-1 .14 2.61 2.61 0 0 1-2.07-.88 2.89 2.89 0 0 1-.53-1.91v-4.21h-2.17v-.92h2.13v-2.11h1v2.11h2.64zm3.34.12a3.59 3.59 0 0 1 5.46.1 3.67 3.67 0 0 1 .66 2.48v4.13h-1v-4.06a3 3 0 0 0-.45-1.91 2.41 2.41 0 0 0-2-1 3.08 3.08 0 0 0-2.69 1.61v5.39h-1v-12.1h1zm8.68 5.03a3.65 3.65 0 0 0 2.34.93c1 0 1.79-.54 1.79-1.36 0-2-4.47-.9-4.47-3.55a2.44 2.44 0 0 1 2.63-2.26 4.52 4.52 0 0 1 2.5.75l-.51.8a3.15 3.15 0 0 0-1.94-.63c-.81 0-1.72.42-1.72 1.32 0 1.72 4.47.8 4.47 3.52a2.43 2.43 0 0 1-2.68 2.33 4.44 4.44 0 0 1-3-1.1zM139.13.14h1.66a.2.2 0 0 1 .15.06.23.23 0 0 1 .06.16v12.16a.23.23 0 0 1-.06.16.2.2 0 0 1-.15.06h-1.66a.2.2 0 0 1-.15-.06.24.24 0 0 1-.07-.16V4.03v-.07l-.07.05-1.57 2.84c-.06.1-.11.15-.16.15s-.1-.05-.16-.15l-1.57-2.84a.08.08 0 0 0-.07-.05v8.56a.23.23 0 0 1-.06.16.2.2 0 0 1-.15.06h-1.66a.2.2 0 0 1-.15-.06.24.24 0 0 1-.07-.16V.36a.24.24 0 0 1 .07-.16.2.2 0 0 1 .15-.06h1.62a.31.31 0 0 1 .27.14l1.73 3.08h.11l1.71-3.08a.31.31 0 0 1 .25-.14zm4.49 11.81a3.35 3.35 0 0 1-.94-2.49V3.44a3.35 3.35 0 0 1 .94-2.49 3.4 3.4 0 0 1 2.49-.93 3.44 3.44 0 0 1 2.51.93 3.35 3.35 0 0 1 .95 2.49v6a3.35 3.35 0 0 1-.95 2.49 3.44 3.44 0 0 1-2.51.93 3.4 3.4 0 0 1-2.49-.91zm3.44-1.29a1.56 1.56 0 0 0 .38-1.11V3.33a1.56 1.56 0 0 0-.38-1.11 1.37 1.37 0 0 0-2 0 1.65 1.65 0 0 0-.37 1.11v6.22a1.65 1.65 0 0 0 .37 1.11 1.37 1.37 0 0 0 2 0zM156.47.2a.25.25 0 0 1 .16-.06h1.63a.25.25 0 0 1 .16.06.23.23 0 0 1 .06.16v12.16a.23.23 0 0 1-.06.16.25.25 0 0 1-.16.06h-1.89a.22.22 0 0 1-.23-.18l-2.68-7.63a.06.06 0 0 0-.07 0 .07.07 0 0 0 0 .07v7.57a.23.23 0 0 1-.06.16.25.25 0 0 1-.16.06h-1.64a.2.2 0 0 1-.15-.06.23.23 0 0 1-.06-.16V.36a.23.23 0 0 1 .06-.16.2.2 0 0 1 .15-.06h1.86a.22.22 0 0 1 .23.18l2.7 7.58a.05.05 0 0 0 .07 0V.36a.23.23 0 0 1 .08-.16zm10.59 0a.23.23 0 0 1 .06.16v1.36a.25.25 0 0 1-.06.16.2.2 0 0 1-.15.06h-2.29a.08.08 0 0 0-.09.09v10.49a.23.23 0 0 1-.06.16.25.25 0 0 1-.16.06h-1.65a.2.2 0 0 1-.15-.06.2.2 0 0 1-.07-.16V2.03a.08.08 0 0 0-.09-.09h-2.16a.2.2 0 0 1-.15-.06.25.25 0 0 1-.06-.16V.36a.23.23 0 0 1 .06-.16.2.2 0 0 1 .15-.06h6.72a.2.2 0 0 1 .15.06zm6.12 0a.2.2 0 0 1 .15-.06h1.66a.2.2 0 0 1 .15.06.23.23 0 0 1 .06.16v12.16a.23.23 0 0 1-.06.16.2.2 0 0 1-.15.06h-1.66a.2.2 0 0 1-.15-.06.2.2 0 0 1-.07-.16V7.44a.08.08 0 0 0-.05-.1h-2.28a.08.08 0 0 0-.09.09v5.09a.2.2 0 0 1-.07.16.2.2 0 0 1-.15.06h-1.65a.21.21 0 0 1-.22-.22V.36a.21.21 0 0 1 .22-.22h1.65a.2.2 0 0 1 .15.06.2.2 0 0 1 .07.16v5.08a.08.08 0 0 0 .09.09h2.28a.08.08 0 0 0 .09-.09V.36a.2.2 0 0 1 .03-.16zm4.03 12.48a.23.23 0 0 1-.06-.16V.36a.23.23 0 0 1 .06-.16.2.2 0 0 1 .15-.06h1.7a.2.2 0 0 1 .15.06.23.23 0 0 1 .06.16v10.49a.08.08 0 0 0 .09.09h3.89a.2.2 0 0 1 .15.06.21.21 0 0 1 .07.16v1.36a.2.2 0 0 1-.07.16.2.2 0 0 1-.15.06h-5.89a.2.2 0 0 1-.15-.06zm9-.02a.2.2 0 0 1-.06-.15V7.48L183.63.44V.35c0-.04.06-.16.2-.16h1.72a.24.24 0 0 1 .26.18L187.16 5h.05l1.35-4.63a.24.24 0 0 1 .26-.18h1.72a.22.22 0 0 1 .17.06.2.2 0 0 1 0 .19l-2.46 7v5.03a.21.21 0 0 1-.21.21h-1.68a.2.2 0 0 1-.15-.02zm9.72.02a.23.23 0 0 1-.06-.16V.36a.23.23 0 0 1 .06-.16.2.2 0 0 1 .13-.06h1.66a.2.2 0 0 1 .15.06.23.23 0 0 1 .06.16v12.16a.23.23 0 0 1-.06.16.2.2 0 0 1-.15.06h-1.66a.2.2 0 0 1-.13-.06zM205.06.2a.23.23 0 0 1 .16-.06h1.63a.25.25 0 0 1 .16.06.23.23 0 0 1 .06.16v12.16a.23.23 0 0 1-.06.16.25.25 0 0 1-.16.06h-1.89a.22.22 0 0 1-.23-.18l-2.67-7.63a.06.06 0 0 0-.07 0V12.57a.2.2 0 0 1-.07.16.2.2 0 0 1-.15.06h-1.64a.2.2 0 0 1-.15-.06.23.23 0 0 1-.06-.16V.36a.23.23 0 0 1 .06-.16.2.2 0 0 1 .15-.06h1.86a.22.22 0 0 1 .23.18l2.7 7.58h.06c.06 0 0 0 0-.06V.36a.23.23 0 0 1 .08-.16zm4.67 11.76a3.36 3.36 0 0 1-.92-2.46V3.36a3.33 3.33 0 0 1 .92-2.46 3.39 3.39 0 0 1 2.46-.9 3.46 3.46 0 0 1 2.49.9 3.29 3.29 0 0 1 .93 2.46v.22a.25.25 0 0 1-.06.16.18.18 0 0 1-.15.07l-1.68.07a.19.19 0 0 1-.21-.21v-.45a1.49 1.49 0 0 0-.36-1 1.24 1.24 0 0 0-1-.39 1.21 1.21 0 0 0-.93.39 1.49 1.49 0 0 0-.36 1v6.44a1.49 1.49 0 0 0 .36 1 1.21 1.21 0 0 0 .93.39 1.24 1.24 0 0 0 1-.39 1.49 1.49 0 0 0 .36-1v-.45a.21.21 0 0 1 .21-.21l1.68.07a.21.21 0 0 1 .21.21v.22a3.33 3.33 0 0 1-.93 2.46 3.43 3.43 0 0 1-2.49.92 3.36 3.36 0 0 1-2.46-.92zm8.25-.01a3.35 3.35 0 0 1-.92-2.51v-6a3.35 3.35 0 0 1 .95-2.49 3.81 3.81 0 0 1 5 0 3.32 3.32 0 0 1 1 2.49v6a3.32 3.32 0 0 1-1 2.49 3.81 3.81 0 0 1-5 0zm3.48-1.29a1.61 1.61 0 0 0 .38-1.11V3.33a1.61 1.61 0 0 0-.38-1.11 1.26 1.26 0 0 0-1-.42 1.24 1.24 0 0 0-1 .42 1.6 1.6 0 0 0-.37 1.11v6.22a1.6 1.6 0 0 0 .37 1.11 1.24 1.24 0 0 0 1 .42 1.26 1.26 0 0 0 1-.42zM231.58.14h1.65a.25.25 0 0 1 .16.06.23.23 0 0 1 .06.16v12.16a.23.23 0 0 1-.06.16.25.25 0 0 1-.16.06h-1.65a.25.25 0 0 1-.16-.06.23.23 0 0 1-.06-.16V4.03v-.07s-.05 0-.08.05l-1.56 2.84c-.06.1-.12.15-.17.15s-.1-.05-.16-.15l-1.56-2.84s-.05-.05-.07-.05 0 0 0 .07v8.49a.23.23 0 0 1-.06.16.25.25 0 0 1-.16.06h-1.65a.25.25 0 0 1-.16-.06.23.23 0 0 1-.06-.16V.36a.23.23 0 0 1 .06-.16.25.25 0 0 1 .16-.06h1.65a.31.31 0 0 1 .27.14l1.75 3.08h.11l1.71-3.08a.31.31 0 0 1 .2-.14zm9.98 1.74a.23.23 0 0 1-.16.06h-3.88a.08.08 0 0 0-.09.09v3.41a.08.08 0 0 0 .09.09h2.3a.2.2 0 0 1 .15.06.21.21 0 0 1 .07.16v1.37a.21.21 0 0 1-.07.16.2.2 0 0 1-.15.06h-2.3a.08.08 0 0 0-.09.09v3.42a.08.08 0 0 0 .09.09h3.88a.23.23 0 0 1 .16.06.25.25 0 0 1 .06.16v1.36a.21.21 0 0 1-.22.22h-5.85a.2.2 0 0 1-.15-.06.23.23 0 0 1-.06-.16V.36a.23.23 0 0 1 .06-.16.2.2 0 0 1 .15-.06h5.85a.21.21 0 0 1 .22.22v1.36a.25.25 0 0 1-.06.16zm5.27 10.8a.23.23 0 0 1-.06-.16V.36a.23.23 0 0 1 .06-.16.2.2 0 0 1 .15-.06h1.66a.2.2 0 0 1 .15.06.2.2 0 0 1 .07.16v12.16a.2.2 0 0 1-.07.16.2.2 0 0 1-.15.06h-1.66a.2.2 0 0 1-.15-.06zM255.98.2a.2.2 0 0 1 .15-.06h1.64a.2.2 0 0 1 .15.06.23.23 0 0 1 .06.16v12.16a.23.23 0 0 1-.06.16.2.2 0 0 1-.15.06h-1.89a.24.24 0 0 1-.24-.18l-2.68-7.63h-.06a.07.07 0 0 0-.05.07v7.57a.21.21 0 0 1-.22.22h-1.57a.25.25 0 0 1-.16-.06.23.23 0 0 1-.06-.16V.36a.23.23 0 0 1 .06-.16.25.25 0 0 1 .16-.06h1.85a.22.22 0 0 1 .23.18l2.7 7.58h.07c.07 0 0 0 0-.06V.36a.2.2 0 0 1 .07-.16zm4.66 11.76a3.33 3.33 0 0 1-.93-2.46V3.36a3.29 3.29 0 0 1 .93-2.46 3.36 3.36 0 0 1 2.45-.9 3.44 3.44 0 0 1 2.49.9 3.29 3.29 0 0 1 .93 2.46v.22a.25.25 0 0 1-.06.16.18.18 0 0 1-.15.07l-1.68.07a.19.19 0 0 1-.21-.21v-.45a1.49 1.49 0 0 0-.36-1 1.24 1.24 0 0 0-1-.39 1.21 1.21 0 0 0-.93.39 1.49 1.49 0 0 0-.36 1v6.44a1.49 1.49 0 0 0 .36 1 1.21 1.21 0 0 0 .93.39 1.24 1.24 0 0 0 1-.39 1.49 1.49 0 0 0 .36-1v-.45a.21.21 0 0 1 .21-.21l1.68.07a.21.21 0 0 1 .21.21v.22a3.33 3.33 0 0 1-.93 2.46 3.42 3.42 0 0 1-2.49.92 3.34 3.34 0 0 1-2.45-.92zm12.26.6l-1.53-5.12a.11.11 0 0 0-.09-.07h-1a.08.08 0 0 0-.09.09v5.11a.23.23 0 0 1-.06.16.25.25 0 0 1-.16.06h-1.65a.2.2 0 0 1-.15-.06.2.2 0 0 1-.07-.16V.36a.2.2 0 0 1 .07-.16.2.2 0 0 1 .15-.06h3.38a3 3 0 0 1 2.82 1.76 4.29 4.29 0 0 1 .4 1.91 4 4 0 0 1-.43 1.93 2.88 2.88 0 0 1-1.2 1.22s-.07.05-.06.11l1.83 5.42a.22.22 0 0 1 0 .09c0 .11-.06.16-.19.16h-1.73a.24.24 0 0 1-.24-.18zm-2.66-10.53v3.58a.08.08 0 0 0 .09.09h1.1a1.3 1.3 0 0 0 1.05-.5 2.13 2.13 0 0 0 .41-1.37 2.16 2.16 0 0 0-.41-1.39 1.28 1.28 0 0 0-1.05-.51h-1.1a.08.08 0 0 0-.09.1zm12.43-.15a.2.2 0 0 1-.15.06h-3.89a.08.08 0 0 0-.09.09v3.41a.08.08 0 0 0 .09.09h2.3a.21.21 0 0 1 .22.22v1.37a.21.21 0 0 1-.22.22h-2.3a.08.08 0 0 0-.09.09v3.42a.08.08 0 0 0 .09.09h3.89a.2.2 0 0 1 .15.06.25.25 0 0 1 .06.16v1.36a.23.23 0 0 1-.06.16.2.2 0 0 1-.15.06h-5.85a.25.25 0 0 1-.16-.06.23.23 0 0 1-.06-.16V.36a.23.23 0 0 1 .06-.16.25.25 0 0 1 .16-.06h5.85a.2.2 0 0 1 .15.06.23.23 0 0 1 .06.16v1.36a.25.25 0 0 1-.06.16zm6.83 10.66l-.34-1.89c0-.06 0-.09-.11-.09h-2.63c-.07 0-.11 0-.11.09l-.34 1.89a.2.2 0 0 1-.23.2h-1.68c-.17 0-.23-.08-.2-.23L286.57.34a.21.21 0 0 1 .23-.2h1.91a.21.21 0 0 1 .23.2l2.67 12.17v.07c0 .11-.07.16-.2.16h-1.68a.2.2 0 0 1-.23-.2zm-2.77-3.62h2q.1 0 .09-.09l-1.05-5.68v-.06l-.06.06-1 5.68q-.08.09.02.09zm6.24 3.06a3.14 3.14 0 0 1-.91-2.35v-.47a.25.25 0 0 1 .06-.16.2.2 0 0 1 .15-.06h1.64a.2.2 0 0 1 .15.06.21.21 0 0 1 .07.16v.36a1.7 1.7 0 0 0 .35 1.13 1.1 1.1 0 0 0 .91.43 1.16 1.16 0 0 0 .91-.4 1.56 1.56 0 0 0 .36-1.07 1.62 1.62 0 0 0-.19-.81 2.59 2.59 0 0 0-.56-.65c-.24-.2-.63-.5-1.15-.88a16 16 0 0 1-1.45-1.15 4.5 4.5 0 0 1-.92-1.22 3.46 3.46 0 0 1-.33-1.65 3.17 3.17 0 0 1 .9-2.37 3.24 3.24 0 0 1 2.38-.88 3.27 3.27 0 0 1 2.41.92 3.36 3.36 0 0 1 .92 2.46v.43a.24.24 0 0 1-.22.22h-1.62a.18.18 0 0 1-.15-.07.21.21 0 0 1-.07-.15v-.47a1.67 1.67 0 0 0-.35-1.12 1.13 1.13 0 0 0-.92-.42 1.16 1.16 0 0 0-.89.38 1.61 1.61 0 0 0-.39 1.07 1.7 1.7 0 0 0 .37 1.1 8.46 8.46 0 0 0 1.45 1.24 21 21 0 0 1 1.66 1.33 3.78 3.78 0 0 1 .86 1.12 3.31 3.31 0 0 1 .31 1.46 3.36 3.36 0 0 1-.92 2.46 3.27 3.27 0 0 1-2.41.92 3.32 3.32 0 0 1-2.41-.9zm13.4-10.1a.2.2 0 0 1-.15.06h-3.89a.08.08 0 0 0-.09.09v3.41a.08.08 0 0 0 .09.09h2.31a.2.2 0 0 1 .15.06.25.25 0 0 1 .06.16v1.37a.25.25 0 0 1-.06.16.2.2 0 0 1-.15.06h-2.31a.08.08 0 0 0-.09.09v3.42a.08.08 0 0 0 .09.09h3.89a.2.2 0 0 1 .15.06.21.21 0 0 1 .07.16v1.36a.2.2 0 0 1-.07.16.2.2 0 0 1-.15.06h-5.85a.2.2 0 0 1-.15-.06.23.23 0 0 1-.06-.16V.36a.23.23 0 0 1 .06-.16.2.2 0 0 1 .15-.06h5.85a.2.2 0 0 1 .15.06.2.2 0 0 1 .07.16v1.36a.21.21 0 0 1-.07.16zM176.61 35.92a12.62 12.62 0 0 1-1.33-3.29 18.18 18.18 0 0 1 0-8.51 12.29 12.29 0 0 1 1.34-3.32.26.26 0 0 1 .25-.14h1.62a.2.2 0 0 1 .18.07.19.19 0 0 1 0 .18 19 19 0 0 0-1.11 3.39 17.83 17.83 0 0 0-.45 4.1 18 18 0 0 0 .44 4 17.75 17.75 0 0 0 1.12 3.37v.09a.16.16 0 0 1 0 .11.25.25 0 0 1-.15.05h-1.63a.27.27 0 0 1-.28-.1zm10.38-12.48a.2.2 0 0 1-.15.06h-3.89a.08.08 0 0 0-.09.09v3.4a.08.08 0 0 0 .09.09h2.3a.23.23 0 0 1 .16.06.25.25 0 0 1 .06.16v1.38a.25.25 0 0 1-.06.16.23.23 0 0 1-.16.06h-2.3a.08.08 0 0 0-.09.09v3.45a.08.08 0 0 0 .09.09h3.89a.2.2 0 0 1 .15.06.25.25 0 0 1 .06.16v1.36a.25.25 0 0 1-.06.16.2.2 0 0 1-.15.06h-5.85a.2.2 0 0 1-.15-.06.21.21 0 0 1-.07-.16V21.96a.2.2 0 0 1 .07-.16.2.2 0 0 1 .15-.06h5.85a.2.2 0 0 1 .15.06.23.23 0 0 1 .06.16v1.36a.25.25 0 0 1-.06.12zm6.83 10.7l-.34-1.89c0-.06 0-.09-.11-.09h-2.63c-.07 0-.1 0-.1.09l-.35 1.89a.2.2 0 0 1-.23.2h-1.64c-.17 0-.23-.08-.2-.23l2.67-12.17a.21.21 0 0 1 .23-.2h1.94a.21.21 0 0 1 .23.2l2.67 12.17v.07c0 .11-.07.16-.2.16h-1.7c-.15 0-.23-.07-.24-.2zm-2.76-3.62h2q.1 0 .09-.09l-1.09-5.68s0-.06-.05-.06 0 0 0 .06l-1 5.68q-.06.09.05.09zm6.24 3.06a3.11 3.11 0 0 1-.92-2.35v-.47a.25.25 0 0 1 .06-.16.2.2 0 0 1 .15-.06h1.64a.21.21 0 0 1 .22.22v.36a1.7 1.7 0 0 0 .35 1.13 1.11 1.11 0 0 0 .91.43 1.18 1.18 0 0 0 .92-.4 1.56 1.56 0 0 0 .36-1.07 1.62 1.62 0 0 0-.2-.81 2.4 2.4 0 0 0-.56-.65c-.24-.2-.62-.5-1.15-.88a17.52 17.52 0 0 1-1.45-1.15 4.5 4.5 0 0 1-.92-1.22 3.46 3.46 0 0 1-.37-1.65 3.17 3.17 0 0 1 .9-2.37 3.64 3.64 0 0 1 4.79 0 3.36 3.36 0 0 1 .92 2.46v.5a.2.2 0 0 1-.06.15.21.21 0 0 1-.16.07h-1.62a.18.18 0 0 1-.15-.07.2.2 0 0 1-.06-.15v-.5a1.67 1.67 0 0 0-.36-1.12 1.13 1.13 0 0 0-.92-.42 1.1 1.1 0 0 0-.88.38 1.57 1.57 0 0 0-.35 1.07 1.7 1.7 0 0 0 .37 1.1 8.46 8.46 0 0 0 1.45 1.24 19.26 19.26 0 0 1 1.66 1.33 3.78 3.78 0 0 1 .86 1.12 3.17 3.17 0 0 1 .31 1.46 3.36 3.36 0 0 1-.92 2.46 3.65 3.65 0 0 1-4.82 0zM211 21.8a.24.24 0 0 1 .07.16v1.36a.26.26 0 0 1-.07.16.2.2 0 0 1-.15.06h-2.29a.08.08 0 0 0-.09.09v10.49a.25.25 0 0 1-.06.16.2.2 0 0 1-.15.06h-1.66a.2.2 0 0 1-.15-.06.25.25 0 0 1-.06-.16V23.63a.08.08 0 0 0-.09-.09h-2.16a.23.23 0 0 1-.16-.06.25.25 0 0 1-.06-.16v-1.36a.21.21 0 0 1 .22-.22h6.71a.2.2 0 0 1 .15.06zm10 12.34l-.34-1.89c0-.06 0-.09-.11-.09h-2.63c-.07 0-.1 0-.1.09l-.35 1.89a.2.2 0 0 1-.23.2h-1.64c-.17 0-.23-.08-.2-.23l2.66-12.17a.21.21 0 0 1 .23-.2h1.91a.21.21 0 0 1 .23.2l2.67 12.17v.07c0 .11-.07.16-.2.16h-1.67c-.17 0-.17-.07-.23-.2zm-2.77-3.62h2q.11 0 .09-.09l-1-5.68s0-.06-.05-.06 0 0 0 .06l-1 5.68q-.14.09-.04.09zm12.3-7.08a.2.2 0 0 1-.15.06h-3.87a.08.08 0 0 0-.09.09v3.4a.08.08 0 0 0 .09.09h2.29a.2.2 0 0 1 .15.06.25.25 0 0 1 .06.16v1.38a.25.25 0 0 1-.06.16.2.2 0 0 1-.15.06h-2.29a.08.08 0 0 0-.09.09v5.09a.21.21 0 0 1-.22.22h-1.65a.21.21 0 0 1-.22-.22V21.96a.23.23 0 0 1 .06-.16.25.25 0 0 1 .16-.06h5.83a.2.2 0 0 1 .15.06.24.24 0 0 1 .07.16v1.36a.26.26 0 0 1-.07.12zm6.02 10.72l-1.49-5.17a.11.11 0 0 0-.09-.07h-1a.08.08 0 0 0-.09.09v5.11a.21.21 0 0 1-.22.22h-1.6a.21.21 0 0 1-.22-.22V21.96a.23.23 0 0 1 .06-.16.25.25 0 0 1 .16-.06h3.38a3 3 0 0 1 2.82 1.75 4.37 4.37 0 0 1 .4 1.92 4 4 0 0 1-.43 1.93 2.88 2.88 0 0 1-1.2 1.22c-.05 0-.07.05-.06.11l1.77 5.42a.22.22 0 0 1 0 .09c0 .11-.06.16-.19.16h-1.73a.24.24 0 0 1-.27-.18zm-2.66-10.53v3.58a.08.08 0 0 0 .09.09h1.08a1.3 1.3 0 0 0 1-.5 2.13 2.13 0 0 0 .41-1.37 2.16 2.16 0 0 0-.41-1.38 1.28 1.28 0 0 0-1-.51h-1.1a.08.08 0 0 0-.07.09zm6.27 10.65a.25.25 0 0 1-.06-.16V21.96a.23.23 0 0 1 .06-.16.25.25 0 0 1 .16-.06h1.65a.2.2 0 0 1 .15.06.2.2 0 0 1 .07.16v12.16a.21.21 0 0 1-.07.16.2.2 0 0 1-.15.06h-1.65a.25.25 0 0 1-.16-.06zm4.68-.72a3.32 3.32 0 0 1-.92-2.46v-6.14a3.29 3.29 0 0 1 .92-2.46 3.84 3.84 0 0 1 4.94 0 3.26 3.26 0 0 1 .94 2.46v.22a.25.25 0 0 1-.06.16.21.21 0 0 1-.16.07l-1.67.07a.19.19 0 0 1-.22-.21v-.45a1.49 1.49 0 0 0-.36-1 1.34 1.34 0 0 0-1.89 0 1.49 1.49 0 0 0-.36 1v6.44a1.49 1.49 0 0 0 .36 1 1.34 1.34 0 0 0 1.89 0 1.49 1.49 0 0 0 .36-1v-.45a.18.18 0 0 1 .07-.15.2.2 0 0 1 .15-.06l1.67.07a.25.25 0 0 1 .16.06.2.2 0 0 1 .06.15v.22a3.29 3.29 0 0 1-.94 2.46 3.78 3.78 0 0 1-4.94 0zm12.22.58l-.34-1.89c0-.06 0-.09-.11-.09h-2.55c-.07 0-.1 0-.1.09l-.35 1.89a.2.2 0 0 1-.23.2h-1.64c-.17 0-.23-.08-.2-.23l2.62-12.17a.21.21 0 0 1 .23-.2h1.91a.21.21 0 0 1 .23.2l2.67 12.17v.07c0 .11-.07.16-.2.16h-1.67c-.15 0-.27-.07-.27-.2zm-2.77-3.62h2q.11 0 .09-.09l-1.05-5.68s0-.06-.05-.06 0 0-.05.06l-1 5.68q-.01.09.09.09zm8.35-9.72a12.67 12.67 0 0 1 1.34 3.29 16.55 16.55 0 0 1 .51 4.22 16.91 16.91 0 0 1-.51 4.28 12.5 12.5 0 0 1-1.36 3.33.26.26 0 0 1-.25.15h-1.62a.2.2 0 0 1-.17-.07.28.28 0 0 1 0-.18 18.55 18.55 0 0 0 1.11-3.38 18.14 18.14 0 0 0 .44-4.07 17.89 17.89 0 0 0-.44-4.05 18.25 18.25 0 0 0-1.11-3.37.31.31 0 0 1 0-.11c0-.09.05-.14.18-.14h1.63a.28.28 0 0 1 .25.1zm20.32 279.88h-6v-.63l6.38-8.21h.68v7.87h1.95v1h-1.95v3.06h-1zm0-1v-5.83l-4.52 5.83zm9.28 8.14l2.12-4.71-3.5-7.12h1.09l2.91 6 2.73-6h1l-5.37 11.83zm14.3-5.38a4 4 0 0 1-3.17 1.43 3.85 3.85 0 0 1-3.89-4.05 3.8 3.8 0 0 1 3.71-4 3.61 3.61 0 0 1 3.6 3.79 2.45 2.45 0 0 1 0 .34h-6.32a2.94 2.94 0 0 0 2.92 3 3.14 3.14 0 0 0 2.49-1.15zm-6-3.42h5.29a2.63 2.63 0 0 0-2.6-2.32 2.76 2.76 0 0 0-2.73 2.36zm14.61 4.72v-1.14a3.4 3.4 0 0 1-2.78 1.31 3.93 3.93 0 0 1-4-4.05 4.12 4.12 0 0 1 1.44-3.17 3.94 3.94 0 0 1 2.47-.87 3.75 3.75 0 0 1 2.83 1.24v-1.07h.95v7.75zm0-5.44a3.4 3.4 0 0 0-2.79-1.56 3 3 0 0 0-1.87.66 3.16 3.16 0 0 0-1.08 2.46 3 3 0 0 0 3 3.13 3.2 3.2 0 0 0 2.77-1.7zm7.69-1.55h-.46a2.7 2.7 0 0 0-2.43 1.71v5.29h-1V296h1v1a3 3 0 0 1 2.45-1.19h.57zm1.84 5.31a3.65 3.65 0 0 0 2.34.93c1 0 1.79-.54 1.79-1.36 0-2-4.47-.9-4.47-3.55a2.44 2.44 0 0 1 2.63-2.26 4.52 4.52 0 0 1 2.5.75l-.51.8a3.15 3.15 0 0 0-1.94-.63c-.81 0-1.72.42-1.72 1.32 0 1.72 4.47.8 4.47 3.52a2.43 2.43 0 0 1-2.68 2.33 4.44 4.44 0 0 1-3-1.1z"/><path d="M67.88 249.09h32.29a20.71 20.71 0 0 1 20.71 20.71v9.79h-53v-30.5z" fill="#9a9fa5"/><path d="M146.88 234.09h32.29a20.71 20.71 0 0 1 20.71 20.71v24.79h-53v-45.5z" fill="#fffa0c"/><path d="M254.79 209.84v7.14h2v2h-2v2.72h-2.3v-2.72h-5.52v-1.36l6.2-7.82zm-2.3 7.14v-2.79l-2.22 2.79zm4.93-5.44l2.89-1.7h1.62v11.9h-2.3v-9.25l-2.21 1.23zm10.37-1.87a3.15 3.15 0 1 1-3.23 3.15 3.16 3.16 0 0 1 3.23-3.15zm0 1.87a1.28 1.28 0 1 0 1.19 1.28 1.2 1.2 0 0 0-1.19-1.28zm-.27 10.2l7-11.9h1.89l-6.95 11.9zm8.52-6.12a3.15 3.15 0 1 1-3.23 3.15 3.16 3.16 0 0 1 3.25-3.15zm0 1.87a1.28 1.28 0 1 0 1.19 1.28 1.2 1.2 0 0 0-1.17-1.28zm45.57-149.95l2.89-1.7h1.61v11.9h-2.29v-9.25l-2.21 1.23zm7.14 6.51a3.49 3.49 0 0 1 1.72-3 2.72 2.72 0 0 1-1-2.09 3.5 3.5 0 0 1 7 0 2.71 2.71 0 0 1-.95 2.09 3.49 3.49 0 0 1 1.72 3 4.27 4.27 0 0 1-8.5 0zm6.2 0a2 2 0 1 0-1.95 1.82 1.86 1.86 0 0 0 1.95-1.82zm-.76-5.1a1.19 1.19 0 1 0-2.38 0 1.19 1.19 0 1 0 2.38 0zm5.81 5.73a2.76 2.76 0 0 0 2.21 1.19 2.17 2.17 0 1 0-.15-4.33 3.12 3.12 0 0 0-1.42.34v-1.36l2.22-2.64h-4v-2h7.23v1.36l-2.16 2.65a4.11 4.11 0 0 1 2.75 3.86 4.19 4.19 0 0 1-4.43 4.2 5.28 5.28 0 0 1-3.95-1.85zm11.75-9.01a3.15 3.15 0 1 1-3.23 3.15 3.16 3.16 0 0 1 3.23-3.15zm0 1.87a1.28 1.28 0 1 0 1.19 1.28 1.2 1.2 0 0 0-1.19-1.28zm-.27 10.2l6.95-11.9h1.89l-7 11.9zm8.51-6.12a3.15 3.15 0 1 1-3.23 3.15 3.16 3.16 0 0 1 3.23-3.15zm0 1.87a1.28 1.28 0 1 0 1.19 1.28 1.2 1.2 0 0 0-1.19-1.28z"/><path d="M236.88 238.09h32.29a20.71 20.71 0 0 1 20.71 20.71v20.79h-53v-41.5z" fill="#9a9fa5"/><path d="M315.88 83.09h32.29a20.71 20.71 0 0 1 20.71 20.71v175.79h-53V83.09z" fill="#fffa0c"/><path fill="none" stroke="#282828" stroke-miterlimit="10" stroke-width="3px" d="M36.38 279.59L408.38 279.59"/></g></g></svg>