<svg xmlns="http://www.w3.org/2000/svg" viewBox="0 0 51 51"><title>bounding2</title><g id="acb74748-c011-4a40-87a3-c24b9ef906a3" data-name="Layer 2"><g id="eb14d2ca-0616-41af-8d2e-cbfdd6cd6c1e" data-name="Working Layer"><rect x="6" y="6" width="45" height="45" rx="22.5" style="fill:#fffa0c"/><path d="M46.5,23.89a1.5,1.5,0,0,0,1.5-1.5V15.5A1.5,1.5,0,0,0,46.5,14H39.61a1.5,1.5,0,0,0-1.5,1.5v1.94H30.56V9.89H32.5A1.5,1.5,0,0,0,34,8.39V1.5A1.5,1.5,0,0,0,32.5,0H25.61a1.5,1.5,0,0,0-1.5,1.5V3.44H9.89V1.5A1.5,1.5,0,0,0,8.39,0H1.5A1.5,1.5,0,0,0,0,1.5V8.39a1.5,1.5,0,0,0,1.5,1.5H3.44V24.11H1.5A1.5,1.5,0,0,0,0,25.61V32.5A1.5,1.5,0,0,0,1.5,34H8.39a1.5,1.5,0,0,0,1.5-1.5V30.56h7.55v7.55H15.5a1.5,1.5,0,0,0-1.5,1.5V46.5A1.5,1.5,0,0,0,15.5,48h6.89a1.5,1.5,0,0,0,1.5-1.5V44.56H38.11V46.5a1.5,1.5,0,0,0,1.5,1.5H46.5A1.5,1.5,0,0,0,48,46.5V39.61a1.5,1.5,0,0,0-1.5-1.5H44.56V23.89ZM41.11,17H45v3.89H41.11Zm-14-14H31V6.89H27.11ZM3,3H6.89V6.89H3ZM6.89,31H3V27.11H6.89Zm3-3.44V25.61a1.5,1.5,0,0,0-1.5-1.5H6.44V9.89h2a1.5,1.5,0,0,0,1.5-1.5V6.44H24.11v2a1.5,1.5,0,0,0,1.5,1.5h1.95v7.55H23.89V15.5a1.5,1.5,0,0,0-1.5-1.5H15.5A1.5,1.5,0,0,0,14,15.5v6.89a1.5,1.5,0,0,0,1.5,1.5h1.94v3.67ZM17,20.89V17h3.89v3.89ZM20.89,45H17V41.11h3.89ZM45,45H41.11V41.11H45Zm-3.44-6.89h-2a1.5,1.5,0,0,0-1.5,1.5v2H23.89v-2a1.5,1.5,0,0,0-1.5-1.5H20.44V23.89h1.95a1.5,1.5,0,0,0,1.5-1.5V20.44H38.11v1.95a1.5,1.5,0,0,0,1.5,1.5h2Z" style="fill:#282828"/></g></g></svg>