<svg xmlns="http://www.w3.org/2000/svg" viewBox="0 0 52.22 47.89"><title>checkmark_2-layer</title><g id="a1286e18-6288-4327-953d-477fb1d622a7" data-name="Layer 2"><g id="a87e5b62-073f-497d-834b-8af0aa5c3270" data-name="Working Layer"><path d="M29.72,47.89h0a22.5,22.5,0,0,1-22.5-22.5h0a22.51,22.51,0,0,1,22.5-22.5h0a22.5,22.5,0,0,1,22.5,22.5h0A22.5,22.5,0,0,1,29.72,47.89Z" style="fill:#fffa0c"/><path d="M21.9,45.17a3.65,3.65,0,0,1-2.1-.66L1.58,31.85a3.67,3.67,0,0,1-.91-5.12l2.7-3.82A3.71,3.71,0,0,1,8.5,22l10.8,7.51a.71.71,0,0,0,1-.17L39.78,1.57A3.7,3.7,0,0,1,44.91.66h0l3.84,2.67a3.65,3.65,0,0,1,.9,5.12L24.94,43.61A3.7,3.7,0,0,1,21.9,45.17ZM6.39,24.34a.69.69,0,0,0-.57.3l-2.7,3.82A.65.65,0,0,0,3,29a.68.68,0,0,0,.28.43L21.51,42.05a.7.7,0,0,0,1-.17L47.2,6.72a.65.65,0,0,0,.11-.5A.62.62,0,0,0,47,5.79L43.2,3.12a.71.71,0,0,0-1,.17L22.72,31.06a3.7,3.7,0,0,1-5.13.91l-10.8-7.5A.66.66,0,0,0,6.39,24.34Z" style="fill:#282828"/></g></g></svg>