<svg xmlns="http://www.w3.org/2000/svg" viewBox="0 0 51 51"><title>expertise2</title><g id="abe6d3e5-afa2-4869-b918-d1a3fda7d189" data-name="Layer 2"><g id="fea91e54-9f72-4ed3-9f84-7dbfd60a2035" data-name="Working Layer"><rect x="6" y="6" width="45" height="45" rx="22.5" style="fill:#fffa0c"/><path d="M24,28.47A14.24,14.24,0,1,0,9.76,14.24,14.24,14.24,0,0,0,24,28.47ZM24,3A11.24,11.24,0,1,1,12.76,14.24,11.25,11.25,0,0,1,24,3Z" style="fill:#28282a"/><path d="M45.37,33.7a32,32,0,0,0-9.13-5.32,4.55,4.55,0,0,0-1.59-.28,4.37,4.37,0,0,0-2.58.82,13.72,13.72,0,0,1-15.83.21,4.27,4.27,0,0,0-2.39-.72,4.42,4.42,0,0,0-1.67.32C9.1,30,5.27,31.6,2.7,33.64A7.1,7.1,0,0,0,0,39.2v6.47A2.3,2.3,0,0,0,2.28,48H45.72A2.3,2.3,0,0,0,48,45.67V39.2A7,7,0,0,0,45.37,33.7ZM45,45H3V39.2A4.07,4.07,0,0,1,4.57,36c2.3-1.82,6.08-3.43,8.72-4.47a1.36,1.36,0,0,1,.56-.11,1.17,1.17,0,0,1,.69.2,16.74,16.74,0,0,0,19.29-.26,1.38,1.38,0,0,1,.82-.25,1.54,1.54,0,0,1,.56.1A29.08,29.08,0,0,1,43.5,36,4.06,4.06,0,0,1,45,39.2Z" style="fill:#28282a"/></g></g></svg>