<svg xmlns="http://www.w3.org/2000/svg" viewBox="0 0 52.5 51.61"><title>flexibility2</title><g id="ad586e96-1dd5-4845-b5c3-4e8b5f942375" data-name="Layer 2"><g id="b8167844-268b-4e3a-9c17-1f5afbaf8045" data-name="Working Layer"><rect x="7.5" y="6.61" width="45" height="45" rx="22.5" style="fill:#fffa0c"/><path d="M28.4,48.61H22.59a1.5,1.5,0,0,1-1.5-1.5V36.25A14.65,14.65,0,0,1,35.73,21.61H40V18.05A1.5,1.5,0,0,1,42.54,17l8,8a1.51,1.51,0,0,1,0,2.13l-8,8a1.52,1.52,0,0,1-1.64.32A1.49,1.49,0,0,1,40,34.1V30.42l-4,0a6.13,6.13,0,0,0-6.09,6.12V47.11A1.5,1.5,0,0,1,28.4,48.61Zm-4.31-3H26.9v-9A9.14,9.14,0,0,1,36,27.44l5.5,0h0a1.49,1.49,0,0,1,1.06.43A1.54,1.54,0,0,1,43,28.92v1.55l4.4-4.4L43,21.67v1.44a1.5,1.5,0,0,1-1.5,1.5H35.73A11.66,11.66,0,0,0,24.09,36.25Z" style="fill:#28282a"/><path d="M28.31,22.11h0a1.51,1.51,0,0,1-1.5-1.51l0-10.47a1.51,1.51,0,0,1,1.5-1.5h1.74L25.52,3.7,20.93,8.63h1.6a1.5,1.5,0,0,1,1.06.44A1.47,1.47,0,0,1,24,10.13l0,10.48a1.5,1.5,0,0,1-1.5,1.5h0A1.51,1.51,0,0,1,21,20.6l0-9H17.48a1.5,1.5,0,0,1-1.1-2.52l8-8.63A1.48,1.48,0,0,1,25.52,0h0a1.49,1.49,0,0,1,1.1.48l8,8.63a1.5,1.5,0,0,1-1.1,2.52H29.84l0,9A1.5,1.5,0,0,1,28.31,22.11Z" style="fill:#28282a"/><path d="M9.52,35.65a1.49,1.49,0,0,1-1.06-.44l-8-8a1.49,1.49,0,0,1,0-2.12l8-8A1.5,1.5,0,0,1,11,18.11v3.55h4.25a14.57,14.57,0,0,1,8.11,2.46,1.5,1.5,0,1,1-1.67,2.49,11.61,11.61,0,0,0-6.44-1.95H9.52A1.5,1.5,0,0,1,8,23.16V21.73l-4.4,4.4L8,30.53V29a1.5,1.5,0,0,1,1.5-1.5h0l5.5,0a9.07,9.07,0,0,1,5.36,1.78,1.5,1.5,0,1,1-1.78,2.41A6.12,6.12,0,0,0,15,30.5l-4,0v3.67a1.5,1.5,0,0,1-.93,1.39A1.6,1.6,0,0,1,9.52,35.65Z" style="fill:#28282a"/></g></g></svg>