<svg xmlns="http://www.w3.org/2000/svg" viewBox="0 0 52 52"><title>fusion2</title><g id="a1dd0851-5fb6-4fb9-91b7-0ab093a7c299" data-name="Layer 2"><g id="fe4b5d2d-8797-4c39-ae21-a70cdceb1c9b" data-name="Working Layer"><rect x="7" y="7" width="45" height="45" rx="22.5" style="fill:#fffa0c"/><path d="M25,16a2.54,2.54,0,0,1-1.82-.76L14.68,6.73a2.58,2.58,0,0,1,0-3.64L17,.75a2.65,2.65,0,0,1,3.65,0L25,5.12,29.38.75A2.58,2.58,0,0,1,33,.75l2.34,2.34a2.58,2.58,0,0,1,0,3.64l-8.52,8.51A2.54,2.54,0,0,1,25,16ZM17.1,4.91,25,12.82l7.91-7.91L31.2,3.17,26.84,7.54a2.58,2.58,0,0,1-3.64,0L18.83,3.17Z"/><path d="M18.83,50A2.57,2.57,0,0,1,17,49.24l-2.33-2.33a2.58,2.58,0,0,1,0-3.64l8.52-8.52a2.58,2.58,0,0,1,3.64,0l8.52,8.52a2.58,2.58,0,0,1,0,3.64L33,49.24a2.57,2.57,0,0,1-3.64,0L25,44.88l-4.36,4.36A2.57,2.57,0,0,1,18.83,50ZM25,41.71a2.57,2.57,0,0,1,1.82.75l4.36,4.36,1.73-1.73L25,37.17,17.1,45.09l1.73,1.73,4.37-4.36A2.57,2.57,0,0,1,25,41.71Z"/><path d="M45.09,36.09a2.57,2.57,0,0,1-1.82-.75l-8.52-8.52a2.58,2.58,0,0,1,0-3.64l8.52-8.52a2.58,2.58,0,0,1,3.64,0L49.24,17a2.58,2.58,0,0,1,0,3.65L44.88,25l4.36,4.36a2.57,2.57,0,0,1,0,3.64l-2.33,2.34A2.57,2.57,0,0,1,45.09,36.09ZM37.17,25l7.92,7.91,1.73-1.73-4.36-4.36a2.58,2.58,0,0,1,0-3.64l4.36-4.37-1.73-1.73Z"/><path d="M4.91,36.09a2.57,2.57,0,0,1-1.82-.75L.75,33a2.58,2.58,0,0,1,0-3.64L5.12,25,.75,20.64A2.6,2.6,0,0,1,.75,17l2.34-2.33a2.58,2.58,0,0,1,3.64,0l8.51,8.52a2.57,2.57,0,0,1,0,3.64L6.73,35.34A2.57,2.57,0,0,1,4.91,36.09ZM3.17,31.18l1.74,1.73L12.82,25,4.91,17.08,3.17,18.81l4.37,4.37a2.58,2.58,0,0,1,0,3.64Z"/><path d="M25,31a6,6,0,1,1,6-6A6,6,0,0,1,25,31Zm0-9a3,3,0,1,0,3,3A3,3,0,0,0,25,22Z"/></g></g></svg>