<svg xmlns="http://www.w3.org/2000/svg" viewBox="0 0 51.5 51.47"><title>scale2</title><g id="b4265145-13b4-4d9e-a5ea-d58b2a87febc" data-name="Layer 2"><g id="eddaeb1b-d6b1-4508-8304-327521cf8a07" data-name="Working Layer"><rect x="6.5" y="6.47" width="45" height="45" rx="22.5" style="fill:#fffa0c"/><path d="M48.5,45.47h-1v-31a2,2,0,0,0-2-2h-5a2,2,0,0,0-2,2v31h-3v-20a2,2,0,0,0-2-2h-5a2,2,0,0,0-2,2v20h-3v-15a2,2,0,0,0-2-2h-5a2,2,0,0,0-2,2v15h-3v-10a2,2,0,0,0-2-2h-5a2,2,0,0,0-2,2v10h-1a1.5,1.5,0,0,0,0,3h47a1.5,1.5,0,0,0,0-3Zm-40,0h-3v-9h3Zm12,0h-3v-14h3Zm12,0h-3v-19h3Zm12,0h-3v-30h3Z" style="fill:#28282a"/><path d="M7,28.47a1.86,1.86,0,0,0,.33,0c17.82-4,31.49-14.2,35.89-22.65l.85,2.64A1.52,1.52,0,0,0,45.5,9.47a1.52,1.52,0,0,0,1.43-2L44.85,1A1.5,1.5,0,0,0,43,.07L36.5,2.15A1.5,1.5,0,1,0,37.42,5l3.39-1.08C37.4,11,24.92,21.4,6.67,25.5a1.5,1.5,0,0,0,.33,3Z" style="fill:#28282a"/></g></g></svg>