<svg xmlns="http://www.w3.org/2000/svg" viewBox="0 0 53 53.04"><title>security_3-layer</title><g id="a1febe98-a554-4eb6-9267-7b942c155ea3" data-name="Layer 2"><g id="e2800c51-a277-41fd-9b3c-6a667bf279a6" data-name="Working Layer"><path d="M16.06,23.14c0,.05,0,.06.06.06S16.1,23.15,16.06,23.14Z" style="fill:#281e53"/><path d="M30.67,41.51a0,0,0,0,0,0,0l0,0h.06s0,0,0-.06Z" style="fill:#281e53"/><path d="M30.53,41.34v0l0,0c.06,0,.08,0,.1-.06h-.09Z" style="fill:#281e53"/><path d="M30.34,51.94s-.07,0-.06,0h0l-.09-.09s-.07,0-.11,0a.08.08,0,0,1,.08,0l-3.51-3.51v0h-.06c0-.05-.05-.05,0-.1L23,44.6h0a0,0,0,0,1,0,0h0l-.63-.63,0,0s0,0,0,0a0,0,0,0,1,0,0L19.71,41.3l1.05-1L24,43.49h0l0,0h0l3,3h.12s0,0,0,0a0,0,0,0,1,0,0h-.06l6.25,6.26c.33,0,.66-.09,1-.15h0c.06-.05.06-.05.12,0l.78-.15-.16-.16,0,0s0-.08,0-.11L35,52.26l0,0-.06,0h0c-.05-.06-.05-.06,0-.13h0l-3.24-3.24h0a.05.05,0,0,1-.07,0s0,0,.06,0l-3.68-3.67s-.08,0-.09,0,0,0,0,0l0,0-5.95-6,1.05-1,7.32,7.32v0s.07,0,.08,0,0,0,0,.06l.47.47a.33.33,0,0,1,0-.17s.05,0,.07,0l.09.09a1.22,1.22,0,0,1,0,.27l2.66,2.66h0l0,0s0,0,0,0h0l3.27,3.28c.56-.17,1.12-.35,1.66-.56L31,44l0,0h-.12l-.06.06s0,0,0,0a0,0,0,0,1,0,0l.12-.13-1.35-1.35s0,0,0,0l-.15-.13h0L28.05,41v.07s0,0,0,0l0,0V41l-4-4,1-1,5.4,5.4h0V41.3l0,0a.22.22,0,0,1,.14,0s0,0,0,0h0l.09.08v.1a.07.07,0,0,1,.06.1l0,0s0,0-.06,0l.78.79h0c.08,0,.08,0,.08.08v0L33.07,44h0L40,50.93h0a0,0,0,0,1,0,0s0,0,0,0h0s0,0,0,0c.47-.22.93-.46,1.39-.72l-.69-.69h0l0,0-.37-.37s0,0,0,0,0,0,0,0,0,0,0,0h0l-.57-.57h0l0,0L26.35,35h0l0,0-.15-.15,1-1,1.7,1.71,0,0s0,0,0,.07l7.55,7.56s0-.09,0-.14v0l0,0h.19s0,0,0,0l0,0s0,.11,0,.19l0,0,1.8,1.8h0a0,0,0,0,1,0,0l4.11,4.11,0,0a.25.25,0,0,1,0,.08l.15.14q.67-.44,1.32-.93L28.32,32.69l.14-.14h-.05l.11-.1h.05l.77-.77,2.7,2.7h.06l0,0,0,0h0L45.23,47.55c.4-.35.79-.71,1.17-1.09l.33-.34s0,0-.08,0,0-.06,0-.07,0,0,.06,0l0,0v0a22.92,22.92,0,0,0,4-5.86L46.54,44.5l.06,0a.08.08,0,0,1-.11,0l-1,1-1-1,1.65-1.65,0,0h0l3.07-3.07s0,0,0,0,0,0,0,0a.1.1,0,0,1,.09,0l2.25-2.25s0,0,0,0a.11.11,0,0,1,0,0s0,0,0,0v0s0,0,0,0l0,0,0,0h0v0l.51-.51a22.34,22.34,0,0,0,.57-2.48h0s-.07,0-.06,0,0,0,0,0h0c0-.11,0-.22,0-.34l-.59.59,0,0,0,0,0,0-.75.75h.17l0,0-.08.08h-.12s0,0,0-.1l-8,8-1-1L53,31.71q0-.59,0-1.17t0-1.05l-.79.79h0s0,.08,0,.13,0-.05-.06-.07h0L50,32.45s0,0,0,0h0s0,0,0,0-.07,0-.09,0L45,37.44h0v0a.05.05,0,0,1-.05,0l-3.74,3.73h0s0,0,0,0h0l-1-1,8.66-8.66s0,0,0-.07,0,0,0,0L50.37,30v0s.06,0,.08,0l2.35-2.35c-.08-.64-.19-1.26-.32-1.87l-1.69,1.68v0s0,.06,0,.05h0L39.06,39.11l-1.06-1,3.7-3.7h-.05l0,0s0,0,0,0h0s0,0,0,0h0l.13-.13a.06.06,0,0,0,0,0l0,0h0L43,33.06s0,0,0-.06a.11.11,0,0,1,0-.09s0,.07,0,.1l.86-.87,0,0s0,0-.06,0,.09-.05.13,0,0,0,0,0l.94-.93a1.06,1.06,0,0,0-.11-.09l.08,0a.17.17,0,0,1,.08.06l6.24-6.24a.07.07,0,0,1,0-.12l.06.06L52,24c-.17-.55-.35-1.09-.56-1.62L40.72,33.17h.09l0,0v.17l0,0-.06-.06h-.12l0,0L39,34.86h0s0,.07,0,.1l0,0-2.05,2L35.85,35.9l4.75-4.75s0,0,0,0h0l2.73-2.74s0,0,0,0h0l7.45-7.46c-.23-.48-.48-1-.74-1.42l-5.39,5.4h0s0,0,0,0l0,0h0l-.39.4h0s0,0,0,0l0,0h0l-2.61,2.61h.05l0,0s0,0,0,0h-.11l-4.68,4.69s0,0,0,0v0l0,0-2.11,2.11-1.08-1.07,8.89-8.89h0l.06-.05s0-.07,0-.09l0,0h0l.54-.54v0h0l6-6c-.29-.43-.58-.85-.89-1.26L46.34,19h0s0,0,0,0,0,0,0,0l-2.47,2.47h0l0,0,0,0s0,0,0,0a0,0,0,0,1,0,0l-2.47,2.47a.09.09,0,0,1,0,.11L41.3,24l-8.5,8.5.06,0v.06c-.06,0-.06,0-.13,0v0l-.11.11L31.54,31.6l.83-.84h0l-.07-.08s0-.07,0-.1l.12.12v0l15-15c-.33-.37-.67-.74-1-1.09a23,23,0,0,0-5.93-4.26l5.09,5.09-.42.42h0l-.66.65-.94-1h0l-.07-.1v0L40.94,13s-.07,0-.11,0v-.06l-.06-.05,0,0L36.93,9a23.7,23.7,0,0,0-2.8-.64l1.2,1.21h.1s0,0,0,0,0,0,0,0l8,8-1.06,1.06L34.5,10.84s0,0,0,0h0L31.74,8.07h-.22s-.05,0-.08,0v0H31l0,0,0,0h-.5l-.95,0,2.84,2.85,0,0h0l1,1,.08-.07c.07,0,.09.06.14.1V12l-.06.06,7.53,7.53h0s0,0,0,0l.12.12-1.06,1.06L34.1,14.73a.08.08,0,0,1-.1,0v0h.05L27.7,8.32h-.09l0,0s0,0,0,0h0l0,0-.4.06a0,0,0,0,1,0,0,0,0,0,0,1-.05,0h0l0,0c-.47.08-.93.16-1.38.26l6.64,6.65v0s0,0,0-.05,0,0,0,0l.06,0v.14l4.5,4.5a0,0,0,0,1,0,0h.08l.09.08s-.06,0-.1,0l2,2,0,0h0s0,0,0,0,0,0-.07,0l-1,1L33.79,18.7h0v0h0L24.06,9c-.56.16-1.11.35-1.65.56l3.79,3.79s0,0,0,0,0,0,0,0a0,0,0,0,0,0,0l1.31,1.31s.06,0,.07,0l0,0,9.33,9.33-.44.44h0l-.14.14,0,0,0,0,0,0-.44.44-3.36-3.36s0,0,0,0l0,0h0c0-.06,0-.06,0-.12s0,0,0,0l-9.2-9.2,0,0s-.06,0-.07,0,0,0,0-.05L21,10.16l-.95.47s0,.07,0,.11-.07.07-.09.11l-.09-.09v0l-.36.2L30.77,22.2h0s0,0,0,0a0,0,0,0,1,0,0l4,4-1,1L33.55,27h0s0,0,0,0L26.41,19.9l-.06.06c-.05,0-.06-.06-.09-.08v-.13h0L26,19.54a.07.07,0,0,1-.08,0v0h0L18.2,11.7q-.68.44-1.32.93l6.78,6.78.05,0,.09.09-.05,0,8.88,8.88-1,1-6.33-6.33h0s0,0,0-.05l-6-6s0,0-.07,0h0l-.81-.81h0s0,0,0,0h0l-2.59-2.6-.37.33h0v0h0c-.26.24-.52.48-.78.74a23,23,0,0,0-3.45,4.44s0,0,0,.06l0,0s0,0,0,0,0,0,0,0h0L11,19.3s0,0,0,0c-.23.4-.45.81-.66,1.22l.78-.77a0,0,0,0,1,0,0h0l4.21-4.21a.15.15,0,0,1,0-.07s0,0,0-.05l.09.09a.07.07,0,0,1,0,.09h0l1,1-.66.65s0,0,0,.05-.05,0-.08,0l-2.85,2.86v0H13c0,.05,0,.06,0,.12s-.07-.06-.09-.12h0l-1.74,1.75a0,0,0,0,1,.05,0h0s0,0,0,0a.06.06,0,0,1-.1,0h0L9,24.05c-.1.35-.2.71-.29,1.07h0a0,0,0,0,1,0,.05s0,0,0,.06h0s0,0,0,0l0,0s0,0,0,0a0,0,0,0,1,0,0s0,0,0-.06a.27.27,0,0,1-.09,0h0c-.13.55-.25,1.11-.34,1.68l3.08-3.08a0,0,0,0,1,0,0h0l6.14-6.14,1.07,1.06-4.55,4.55h0s0,0,0,0,0,0,0,0l-1.58,1.59h0s0,0,0,0h0L8,29.25c0,.43,0,.86,0,1.29s0,.61,0,.91l7-7a0,0,0,0,1,0,0,.11.11,0,0,1,0,0s0,0,0,0v0l0,0,0,0,0,0s0,0,0,0v0l4.67-4.67,1.05,1.06-3.69,3.69s0,0,0,.06a.08.08,0,0,1,0,.07.07.07,0,0,1,0-.08l-4.82,4.83s0,0,0,0v0s0,0,0,0l-4,4c.05.4.12.81.19,1.21h.06s0,0,0,0,0,0,0,0l.12.61L21.86,21.92l1.05,1-4.27,4.27s0,0,0,0h0s0,0,0,0-.06,0-.08,0L16,29.86h.07s0,0,0,.05a.06.06,0,0,1,0,.07A.34.34,0,0,0,16,30L16,30a.08.08,0,0,1,0-.05l-3.62,3.62a0,0,0,0,1,0,0s0,0-.05,0l-3,3s0,0,0,0h0s0,0,0,0-.06,0-.08,0l-.31.31,0,.11.1-.1h.13s0,0,0,.08l-.07.07v0c0,.06-.09,0-.14,0v0l.12.38h0l0,0s0,0,0,0,.09.27.14.4h0s0,0,.05,0,0,0,0,0a0,0,0,0,0,0,0s0,0,0,0c.06.17.12.35.19.52l6.4-6.41a0,0,0,0,1,0,0h0l2.55-2.55-.08-.08.08,0a.1.1,0,0,1,.06.05l1.2-1.2s0,0,0,0,0,0,0,0h0l1.47-1.46-.06-.08s0,0,0,0h.12l0,0L24,24.07l1,1L20.17,30s0,.05,0,.11H20.1l0,0-1.23,1.23s0,0,0,0v0s0,0,0,0l-.8.8h0a0,0,0,0,1,0,0l0,0H18l-.05.07,0,0-.57.57a0,0,0,0,1,0,0h0s0,0,0,0a.06.06,0,0,1-.1,0h0l-7.21,7.21c.23.51.48,1,.75,1.48l.77-.76v0l0,0h0l5.55-5.55h0s0,0,0,0h0l1.11-1.11v0s0,0,.05,0l7.78-7.78,1,1-.87.87,0,0s0,0-.06,0,0,0,0,0h0L19.4,35.05h0l-.05,0-5.51,5.51,0,0s-.05,0-.09,0h0l-2.16,2.16q.43.67.93,1.32L19.66,37h0l0,0,8.63-8.63,1,1-.28.29a0,0,0,0,1,0,0h0s0,0,0,0a.07.07,0,0,1-.1,0h0l-2.37,2.37s0,0,0,0l0,0h0L24.73,34l0,0v.06l-.15.14h-.1l-1.69,1.69h0l0,0s0,0,0,0h0l-.87.87s0,0,.08,0v.06c0,.05,0,.05-.11,0v0l-.27.26s0,0,0,0a0,0,0,0,1,0,0s0,0,0,0l-1.71,1.71,0,0,0,0,.07-.06H20l.07,0c.05,0,0,.09,0,.14s0,0-.05,0H20a.14.14,0,0,1-.16,0s0,0-.05,0a.14.14,0,0,0,0-.09h0l-.62.62h0a.06.06,0,0,1,0,.1h0s0,0,0-.07L17.79,41a.06.06,0,0,1,0,.07l0,0-2.85,2.85s0,0,0,0v0s0,0,0,0l-1.38,1.38c.35.4.72.8,1.1,1.17a21.57,21.57,0,0,0,3.25,2.7h0a21.41,21.41,0,0,0,2.62,1.54l-2.82-2.82h-.12s0,0,0,0l.06-.06L15.49,45.7s-.07,0-.08,0,0,0,0,0h0l0,0,1.07-1.07,3.09,3.09h0l.06,0s0,0,0,0l2.64,2.65,0,0a.09.09,0,0,1,0,.1l.66.66h0l0,0,0,0,0,0h0l1,1a22.44,22.44,0,0,0,2.81.65l-7.45-7.45-.05.05,0,0s0,0,0-.06l0,0-1.77-1.77,1.07-1.07,5.12,5.12a.08.08,0,0,0,0,0,.08.08,0,0,1,.11,0s0,0,0,.07l.05.07-.06,0L29.23,53c.42,0,.84,0,1.27,0l.92,0-1.07-1.08Zm1.23-1s0,0,0,0l0,0s0,0,0,0Zm1.28.34-.08.09s0,0,0,0a.88.88,0,0,1,0-.23s0,0,0,0v0a.11.11,0,0,1,0,.06l.05,0Zm.63,1.35v0s0,0,0,0h0S33.51,52.65,33.48,52.66Zm.05-.13v0s0,0,0,0l0,0S33.55,52.54,33.53,52.53Zm.8-.41h.18l.06.06s0,0,0,0a0,0,0,0,1,0,0h0l-.07-.06h-.11l0,0Zm-.84-1.25,0,0s0,0,0,0,0,0,0,0S33.48,50.87,33.49,50.87Zm0,.3c.05,0,0,.06,0,.08l.06.07-.1,0-.06,0h-.06l0-.06A.86.86,0,0,1,33.48,51.17Zm-.19,1.21h0s0,0,0,0l0,0S33.28,52.4,33.29,52.38Zm-.11-1.28s0,.08,0,.12A.08.08,0,0,1,33.18,51.1ZM33,51l.06.06s0,.06,0,.12H33l0,0S33,51.08,33,51ZM32.92,51l0,0,0,0s0,0,0,0S32.9,51,32.92,51Zm-.05,0s0,0,0,0,0,0,0,0a0,0,0,0,1,0,0h0A0,0,0,0,1,32.87,51Zm-.26-.52a.09.09,0,0,1,.08,0s0,0,.07,0a.07.07,0,0,1,.1,0v.13a.56.56,0,0,1-.22,0S32.62,50.5,32.61,50.48Zm-.1.88v0s0,0,0,0v0S32.5,51.38,32.51,51.36Zm0-.17a0,0,0,0,1,0,0h0a.06.06,0,0,1,0-.1h0v0A0,0,0,0,1,32.49,51.19ZM32.35,50h.11l0,0-.09.09-.07-.09S32.32,50,32.35,50Zm-.5-.4h0s0,0,0,0l0,0S31.84,49.64,31.85,49.62Zm0,1.67,0,0s0,0,0,0,0,0,0,0S31.86,51.29,31.87,51.29Zm-.08-1.85h0s0,0,0,0v0S31.78,49.46,31.79,49.44Zm-.34.58L31.5,50h.06a.08.08,0,0,1,0,.1l0,0a.33.33,0,0,1-.14,0s0,0,0,0Zm-.05,0s0,0,0,0h0v0S31.38,50,31.4,50Zm-.15-1h0s0,0,0,0v0S31.24,49,31.25,49Zm-.3.9h0s0,0,0,0a0,0,0,0,1,0,0S30.94,49.94,31,49.92Zm-.06-1.62h0s0,0,0,0v0S30.88,48.32,30.89,48.3Zm-.13.9h0s0,0,0,0v0S30.76,49.22,30.76,49.2Zm0-1.16a.07.07,0,0,1,0,.12Q30.66,48.1,30.73,48Zm-.44,1.34h0s0,0,0,0l0,0S30.28,49.4,30.29,49.38Zm-.06-1.26h0s0,0,0,0l0,0S30.22,48.14,30.23,48.12Zm-.95.1h.06c.05.06.05.06,0,.12h-.06C29.25,48.29,29.25,48.29,29.28,48.22Zm-.07.25s0,0,0,0,0,0,0,0,0,0,0,0ZM28.67,46h0s0,0,0,0v0S28.66,46,28.67,46Zm0,.18v0s0,0,0,0v0S28.66,46.22,28.67,46.2Zm-.6-.3v0s0,0,0,0v0S28.06,45.92,28.07,45.9ZM28,47.28s0,0,0,0a.27.27,0,0,0,.09,0,.08.08,0,0,1,0,.12h-.07L28,47.32S28,47.3,28,47.28Zm-.54-2.16h0s0,0,0,0v0S27.46,45.14,27.47,45.12Zm-.6.67a.71.71,0,0,1,.07-.09H27a0,0,0,0,1,0,0l-.14.15S26.84,45.82,26.87,45.79Zm-.16-.26,0,0s0,0,0,0,0,0,0,0S26.7,45.53,26.71,45.53Zm-.09.32s0,0,0,0a.06.06,0,0,1,0,0s0,0,0,0-.08,0-.13,0Zm-.33-1.11a.07.07,0,0,1,0,.12Q26.21,44.8,26.29,44.74Zm-.24.07,0,0s0,0,0,0,0,0,0,0S26,44.81,26.05,44.81Zm-.42-.54,0,0s0,0,0,0,0,0,0,0S25.62,44.27,25.63,44.27Zm-.08.61h0s0,0,0,0l0,0S25.54,44.9,25.55,44.88Zm-.1-.85,0,0s0,0,0,0v0S25.44,44,25.45,44Zm-.72-1.32h0s0,0,0,0v0S24.7,42.72,24.73,42.71Zm-.24,1h0s0,0,0,0v0S24.46,43.74,24.49,43.73Zm-1.16-2.09,0,0s0,0,0,0a0,0,0,0,1,0,0S23.32,41.66,23.33,41.64Zm-.12.72h0s0,0,0,0l0,0S23.2,42.38,23.21,42.36Zm-.08-1.3,0,0h0c0,.06,0,.06,0,.11s-.06,0-.07,0S23.11,41.08,23.13,41.06Zm-.38.44h0s0,0,0,0,0,0-.06,0h0l0,0Zm-.24-.35,0,0s0,0,0,0,0,0,0,0S22.5,41.15,22.51,41.15Zm-.24.48,0,0s0,0,0,0l0,0S22.26,41.63,22.27,41.63Zm-.12-1.74h0s0,0,0,0v0S22.12,39.9,22.15,39.89Zm-.2.79s0,0,0,0,0,0,0,0l0,0S21.94,40.7,22,40.68Zm-.06.54v0s0,0,0,0v0S21.88,41.24,21.89,41.22Zm-.52-.5s0,.05-.06.07,0-.09,0-.13.05,0,.07,0S21.38,40.71,21.37,40.72Zm.11-.78v0s0,0,0,0h0S21.51,39.93,21.48,39.94Zm0-.32a0,0,0,0,1,0,0s0,0,0,0h0S21.51,39.61,21.5,39.62Zm.31.48a.06.06,0,0,1-.1,0s0,0,0,0a.07.07,0,0,1,.1,0Zm15.4,11.06s0,.08,0,.13l-.09-.09C37.13,51.15,37.17,51.17,37.21,51.16ZM37,50.24s0,0,0,0l.09.09-.07.05s0,0,0,.06,0,0,0,0A1,1,0,0,1,37,50.24Zm0,1.41,0,0s0,0,0,0,0,0,0,0S37,51.65,37,51.65ZM37,52h0a.06.06,0,0,1,0,.1s0,0,0,0S36.92,52,37,52Zm-2.27-2.25s0,0,0,0,0,0,0,0l0,0S34.69,49.72,34.68,49.71ZM35.88,51l0,0s0,0,0,0,0,0,0,0S35.91,51,35.88,51Zm.25-.35h0s0,0,0,0v0S36.1,50.7,36.13,50.69ZM36,49.09a.08.08,0,0,1-.13,0A.09.09,0,0,1,36,49.09Zm-.28,1.29.09.09c0,.05,0,0-.09,0A.08.08,0,0,1,35.7,50.38Zm-.25-1.78a0,0,0,0,0,0,0s0,0,0,0a0,0,0,0,1,0,0S35.44,48.62,35.45,48.6Zm.11,1.21c-.05,0-.08,0-.13,0A.09.09,0,0,1,35.56,49.81Zm-.33-.26h0s0,0,0,0a0,0,0,0,1,0,0S35.2,49.56,35.23,49.55Zm-.44-1.31h0s0,0,0,0v0S34.78,48.26,34.79,48.24Zm0,.24v0s0,0,0,0v0S34.78,48.5,34.79,48.48Zm0-.12s0,0,0,0a.07.07,0,0,1-.1,0,0,0,0,0,1,0,0h.1Zm-.22-.42,0,0h.08a0,0,0,0,1,0,0l0,0,0,0,0,0h0c0,.06,0,.08-.09.06l0,0S34.55,48,34.55,47.94Zm-.12.08-.08,0c-.06,0-.08-.07-.13-.1l.08,0C34.36,47.94,34.38,48,34.43,48Zm-.25-.42,0,0,0,0,0,0S34.16,47.62,34.18,47.6Zm0,0s0,0,0,0,0,0,0,0v0h0A0,0,0,0,1,34.13,47.64ZM34,47h0s0,0,0,0v0S34,47,34,47Zm-.26.19h0s0,0,0,0v0S33.76,47.24,33.77,47.22Zm-.06.6s0,0,0,0,0,0,0,0l0,0S33.7,47.84,33.71,47.82Zm0-1h0s0,0,0,0v0S33.64,46.8,33.67,46.79Zm0,.42h0s0,0,0,0v0S33.64,47.22,33.67,47.21ZM31,44.72c-.05,0,0,.11-.07.15l-.09-.09c0-.05.06-.06.08-.1H31S31.06,44.72,31,44.72Zm.63,1.33v0s0,0,0,0l0,0S31.69,46.06,31.67,46.05Zm0-.14a0,0,0,0,1,0,0h0a0,0,0,0,1,0,0s0,0,0,0S31.72,45.9,31.71,45.91Zm.11,0h-.1c0-.06,0-.07.09-.05a0,0,0,0,1,0,0Zm1.66,2.3s0,0,0,0v0s0,0,0,0Zm-.2-1.3a.08.08,0,0,1-.13,0A.09.09,0,0,1,33.28,46.87Zm-.34.87s.08,0,.09,0l-.09.08A.08.08,0,0,1,32.94,47.74Zm-.12-.35s0,0,0,0v0s0,0,0,0Zm0-1.6a.08.08,0,0,1-.13,0A.09.09,0,0,1,32.8,45.79Zm-.21.16,0,0s0,0,0,0l0,0S32.58,46,32.59,46Zm0,1c0,.06-.09,0-.15,0l0,0H32.3s0,0,0,0,0-.1,0-.14l.07,0h0l.07,0Zm-.15-.32a.05.05,0,0,1,0,.09.2.2,0,0,1-.08.08h-.06l-.09-.09s0-.06,0-.07,0,0,.06,0l.07,0ZM32.31,46s0,0-.07,0,0,0-.06,0,0,0,0,0,0,0,0-.06l.08-.07S32.28,46,32.31,46Zm-.1-.49h0s0,0,0,0l0,0S32.2,45.56,32.21,45.54Zm-.09-.25s0,0,0,.05h0s0,0,0,0l0,0s0,0,0,0a0,0,0,0,1,0,0h-.06S32.09,45.28,32.12,45.29Zm-.09.07s0,0,0,0,0,0,0,0a0,0,0,0,1,0,0h0A0,0,0,0,1,32,45.36Zm-.13,1.38s0,0,.05,0h0l0,0,0,0h0S31.89,46.77,31.9,46.74Zm-.25-1.36s0,0,.05,0a.06.06,0,0,1,.07,0l.07.07-.09.07c-.05,0-.06-.06-.1-.07Zm0,1.36h0s0,0,0,0v0S31.6,46.76,31.61,46.74Zm-.09-1.63v0s0,0,0,0,0,0,0,0S31.5,45.11,31.52,45.11Zm-.18,1a0,0,0,0,1,0,0s0,0,0,0a0,0,0,0,0,0,0S31.35,46.15,31.34,46.16Zm0-.48a.07.07,0,0,1-.1,0s0,0,0,0a.07.07,0,0,1,.1,0Zm-.08-.33,0,0s0,0,0,0,0,.06,0,.05,0,0,0,0,0,0,0,0S31.26,45.35,31.27,45.35Zm-.38-1c.07,0,.14,0,.2,0l.06-.05.09.08v.08h-.33s0,0,0-.08Zm-.09-.25v0s0,0,0,0,0,0,0,0S30.78,44.15,30.8,44.15Zm-1-.08s0,0,0,0a0,0,0,0,1,0,0l0,0s0,0,0,0,0,0,0,0S29.8,44.06,29.77,44.07Zm0-.5s0,0,0,0,0,0,0,0,0,0,0,0Zm.92,1.23s.08,0,.09,0l-.09.08C30.62,44.86,30.62,44.86,30.66,44.8Zm-.16.53s0,0,0,0a.06.06,0,0,1,0-.09h0S30.53,45.31,30.5,45.33ZM30.4,44c.06,0,.08.07.12.1v0s-.07,0-.1,0L30.27,44C30.31,43.94,30.36,44,30.4,44Zm-.18,1.22a.07.07,0,0,1,.1,0,0,0,0,0,1,0,0,.06.06,0,0,1-.1,0S30.22,45.19,30.22,45.18Zm-.29-2v0s0,0,0,0v0S29.92,43.22,29.93,43.2Zm0,1.25a.06.06,0,0,1,0,0s0,0,0,0l.07.05a.13.13,0,0,1,0,.06s0,0,0,0-.1,0-.14-.07v-.07l.05-.06Zm-.17-1.29c.05,0,.06,0,.12,0s-.06.07-.12.09Zm0,.1s0,0,0,0,0,0,0,0v0h0A0,0,0,0,1,29.69,43.26Zm-.22.23s0,0,0,0,0,0,0,0v0S29.44,43.5,29.47,43.49Zm0,1a.08.08,0,0,1-.13,0A.09.09,0,0,1,29.5,44.47Zm-.35-1.57h0s0,0,0,0v0S29.14,42.92,29.15,42.9Zm0,.71,0,0s0,0,0,0,0,.06,0,.05,0,0,0,0,0,0,0,0Zm-.06-.24,0,0s0,0,0,0,0,0,0,0S29,43.37,29.05,43.37ZM29,44h0s0,0,0,0l0,0S29,44.06,29,44Zm-.28-.73s0,0,0,0,0,0,0,0l0,0S28.66,43.32,28.69,43.31ZM28,41.37l.14.15s0,0,0,0,0,0,0,0h0L28,41.48s0,0,0,0Zm0,.71v0s.09,0,.15,0,0,.1,0,.12h-.06s0,0-.06,0S28,42.1,28,42.08Zm-.05,0s0,0,0,0,0,0,0,0v0h0A0,0,0,0,1,28,42.12Zm0,.29s0,0,0,0,0,0,0,0v0S28,42.41,28,42.41Zm-.14-1.25,0,0s0,0,0,0v0S27.82,41.18,27.83,41.16Zm-.24.11s0,0,0,0,0,0,0,0,0,0,0,0Zm0,.6h0s0,0,0,0v0S27.52,41.88,27.55,41.87Zm-.1-.69,0,0s0,0,0,.05a0,0,0,0,0,0,0c-.05,0-.05,0-.11,0Zm-.32-.7s.06,0,.07,0,0,0,0,.06l0,0h0C27.08,40.54,27.08,40.54,27.13,40.48Zm-.62-.88h0s0,.08,0,.1,0,0,0,0A.06.06,0,0,1,26.51,39.6ZM26,39.22s.06,0,.07,0,0,0,0,.06l0,0h0C26,39.28,26,39.28,26,39.22Zm-.54-.17,0,0s0,0,0,0,0,0,0,0S25.44,39.05,25.45,39.05Zm-.26,1.27s0,0,0,0,0,0,0,0l0,0S25.18,40.34,25.19,40.32Zm-.1-1.39,0,0s0,0,0,0,0,0,0,0S25.08,38.93,25.09,38.93Zm-.54-.78,0,0s0,0,0,0,0,0,0,0S24.54,38.15,24.55,38.15Zm-.08.37h0s0,0,0,0l0,0S24.46,38.54,24.47,38.52Zm-.3.3s0,0,0,0,0,0,0,0,.05.08,0,.13,0,0-.06-.07S24.16,38.84,24.17,38.82ZM40.6,49.38a.07.07,0,0,1,.1,0v0a.07.07,0,0,1-.1,0S40.6,49.39,40.6,49.38Zm0,1.07s0,.08,0,.1,0,0,0,0,0-.07,0-.09Zm-.14-.13s.08,0,.11,0a.31.31,0,0,1-.09.07,0,0,0,0,1-.05,0s0,0,0,0S40.36,50.32,40.43,50.32Zm-.28.32a.71.71,0,0,1,.09.07s-.07,0-.1,0a.71.71,0,0,1-.09-.07S40.12,50.61,40.15,50.64ZM39.72,50s0,0,0,0,0,0,0,0,0,0,0,0Zm-.35-.12,0,0s0,0,0,0l0,0S39.36,49.85,39.37,49.85Zm-.12-1.8,0,0s0,0,0,0,0,0,0,0S39.24,48.05,39.25,48.05Zm-.06.36,0,0s0,0,0,0,0,0,0,0S39.18,48.41,39.19,48.41Zm0,1.43s0,.08,0,.12A.08.08,0,0,1,39.18,49.84Zm-.24-1.67s0,0,0,0l0,0s0,0,0,0S38.93,48.18,38.94,48.17Zm-.49-.29h0s0,0,0,0v0S38.44,47.9,38.45,47.88Zm-.31-.78h0s0,0,0,0a0,0,0,0,1,0,0S38.14,47.12,38.14,47.1Zm0,.27a0,0,0,0,0,0,0s0-.09,0-.13l.06,0c.05,0,0-.06,0-.1a.06.06,0,0,1,.05,0v0l0,0,0,0,0,0h0v.16l-.14.14a0,0,0,0,1-.05,0s0,0,0,0Zm-.31-.16,0,0s0,0,0,0,0,0,0,0S37.8,47.21,37.81,47.21Zm-.43-1s0,0,0,0,0,0,0,0,0,0,0,0ZM37.31,46s0,0,0,0,0,0,0,0,0,0,0,0Zm-.1.36h0s0,0,0,0v0S37.18,46.38,37.21,46.37ZM37,47.1h0a0,0,0,0,1,.05,0h0s0,0,0,0a.07.07,0,0,1-.1,0Zm-.52-1.51s0,0,0,0,0,0,0,0l0,0S36.4,45.6,36.43,45.59Zm-.22,1.23-.08.08s-.06-.06-.1-.08l.09-.1C36.22,46.73,36.22,46.73,36.21,46.82Zm-.14-1.71h0s0,0,0,0l0,0S36,45.12,36.07,45.11Zm-.09,1a.07.07,0,0,1,.1,0v0a.06.06,0,0,1-.1,0S36,46.09,36,46.08Zm-.17-.78h0s0,0,0,0v0S35.8,45.32,35.81,45.3Zm-.1.88h0s0,0,0,0,0,0-.06,0h0l0,0ZM35.5,44.7s0,0,0,0h0l0,0,0,0h0S35.49,44.73,35.5,44.7Zm0,.54,0,0s0,0,0,0a0,0,0,0,1,0,0S35.44,45.26,35.45,45.24ZM35.29,45l0,0s0,0,0,0v0S35.28,45,35.29,45Zm0,.3,0,0s0,0,0,0v0S35.28,45.29,35.29,45.29Zm0-.1a.08.08,0,0,1-.13,0A.09.09,0,0,1,35.26,45.19Zm-.69-1.94h0s0,0,0,0l0,0S34.54,43.26,34.57,43.25Zm-.15.55a.07.07,0,0,1,.1,0s0,0,0,0a.07.07,0,0,1-.1,0S34.42,43.81,34.42,43.8Zm0,1.25h.06l.08.09,0,0s0,0-.05,0l-.09-.08S34.44,45.05,34.45,45.05Zm-.2-.17h0s0,0,0,0v0S34.24,44.9,34.25,44.88Zm-.12-1.62h0s0,0,0,0v0S34.12,43.28,34.13,43.26Zm-.22.71h0s0,0,0,0l0,0S33.88,44,33.91,44Zm0,.7s0,0,0-.05H34s0,.07,0,.11a.07.07,0,0,1,0,.07l-.06-.06A.06.06,0,0,1,33.88,44.67ZM33.59,44h0a.06.06,0,0,1,0,.1h0S33.56,44.06,33.59,44Zm-.34-.73,0,0s0,0,0,0,0,0,0,0S33.24,43.31,33.25,43.31Zm-.82-1.53,0,0s0,0,0,0h0S32.43,41.77,32.43,41.78ZM32.75,43a0,0,0,0,0,0,0s0,0,0,0a0,0,0,0,1,0,0S32.74,43,32.75,43Zm-.07-1,0,0s0,0,0,0,0,0,0,0,0,0,0,0,0,0,0-.05A0,0,0,0,1,32.68,42Zm0,.27s0,.08,0,.12A.08.08,0,0,1,32.64,42.28Zm-.23-.65,0,0s0,0,0,0,0,0,0,0S32.4,41.63,32.41,41.63Zm-.12.16s0,0,0,0a0,0,0,0,1,0,0l0,0,0,0s0,0,0,0S32.32,41.78,32.29,41.79Zm0-.83a.08.08,0,0,1,0,.12s-.08,0-.09,0Zm-.6,0h0s0,0,0,0v0S31.66,41,31.69,41Zm0,.24,0,0s0,0,0,0v0S31.68,41.21,31.69,41.21Zm-.06.84h0s0,0,0,0a0,0,0,0,1,0,0S31.6,42.06,31.63,42.05Zm-.16-.7.06.06s0,0,0,.06v0h0l-.15-.14C31.42,41.31,31.43,41.31,31.47,41.35Zm-.11-.29s0,0,0,0l0,0s0,0,0,0S31.34,41.08,31.36,41.06Zm-.05,0s0,0,0,0,0,0,0,0v0h0A0,0,0,0,1,31.31,41.1Zm-.17.82s0,0,.07.06,0,0,0,.05a0,0,0,0,1,0,0h0A.08.08,0,0,1,31.14,41.92Zm-.35-2a.14.14,0,0,1,.11,0s0,0,0,0l-.09.08s-.06,0-.07,0A.05.05,0,0,1,30.79,39.89Zm-.13-.43q.07.06,0,.12A.07.07,0,0,1,30.66,39.46Zm-2.68-1v0s0,0,0,0v0S28,38.41,28,38.42Zm2.25,2.14h0s0,0,0,0l0,0S30.22,40.58,30.23,40.56ZM29.17,38l0,0s0,0,0,0,0,0,0,0S29.16,38,29.17,38Zm-.12.3h0s0,0,0,0a0,0,0,0,1,0,0S29,38.28,29.05,38.27Zm-1-.85s0,0,.06-.06.05.09,0,.12-.05,0-.07,0S28.07,37.44,28.08,37.42ZM28,36.89l0,0s0,0,0,0v0S28,36.89,28,36.89Zm0,.66,0,0s0,0,0,0,0,0,0,0S28,37.55,28,37.55Zm0,.66v0s0,0,0,0,0,0,0,0S28,38.21,28,38.21Zm-.39-.65h.1s0,0,0,0a.06.06,0,0,1-.1,0Zm-.18.06h0s0,0,0,0l0,0S27.4,37.64,27.41,37.62Zm-1.12-1.57,0,0s0,0,0,0,0,0,0,0S26.28,36.05,26.29,36.05Zm14.21,10v0s0,0,0,0h0S40.53,46.05,40.5,46.06Zm.49.06,0,0s0,0,0,0,0,0,0,0Zm2.06,2.56,0,0h0s-.07,0-.06,0,0,0,.05,0h0Zm.63-.27h0v0a0,0,0,0,1,0,.05l0,0a0,0,0,0,1,0,0A.06.06,0,0,1,43.68,48.41Zm-.5-.29h0s0,0,0,0v0S43.18,48.14,43.18,48.12Zm-.24,0c.06,0,.06,0,.12,0v.05c-.07,0-.07,0-.12,0Zm-.18.35s0,0,.05,0h0l0,0,0,0h0S42.75,48.45,42.76,48.42Zm0,.17s0,0,0,0,0,0,0,0l0,0S42.7,48.6,42.73,48.59Zm0,.61h0s0,0,0,0v0S42.7,49.22,42.71,49.2Zm-.1-1.52h0s0,0,0,0,0,0-.06,0h0l0,0Zm0,1s0,0,0,0,0,0,0,0,0,0,0,0Zm-.1-.24h0s0,0,0,0l0,0S42.46,48.42,42.49,48.41Zm0,.12h0s0,0,0,0l0,0S42.46,48.54,42.49,48.53Zm-.26-1.31h0s0,0,0,0v0S42.22,47.24,42.23,47.22Zm-.1-.37h0s0,0,0,0v0S42.1,46.86,42.13,46.85Zm0,1.57h0s0,0,0,0l0,0S42.1,48.44,42.11,48.42Zm-.22-.85,0,0s0,0,0,0,0,0,0,0S41.88,47.57,41.89,47.57Zm-.24.6,0,0s0,0,0,0v0S41.64,48.17,41.65,48.17ZM41.15,47s.05,0,.07,0a0,0,0,0,0,0,0l0,0s0,0,0,.05a0,0,0,0,1,0,0l-.09-.09S41.12,47.05,41.15,47Zm-.07-1.13a.08.08,0,0,1-.13,0A.09.09,0,0,1,41.08,45.91Zm-.14.11s0,0,0,0h0v0S40.92,46,40.94,46Zm-.27-.66h.1s0,0,0,0a.07.07,0,0,1-.1,0A0,0,0,0,1,40.67,45.36Zm-.05.88.07.06s.05,0,.07,0,0,0,0,0l-.06.06h-.12c-.06,0,0-.1,0-.15S40.59,46.25,40.62,46.24Zm-.26-.87.06-.06a.06.06,0,0,1,.07,0s0,0,0,0v.12l-.08.08-.09-.08Zm0,.59h0s0,0,0,0a0,0,0,0,1,0,0S40.3,46,40.31,46Zm-.22-1.15h0s0,0,0,0v0S40.06,44.82,40.09,44.81Zm-.48-.12h0s0,0,0,0l0,0S39.58,44.7,39.61,44.69Zm-.43-.9s0,0,0,0l0,0s0,0,0,0Zm-.06.71q.08.06,0,.12A.08.08,0,0,1,39.12,44.5ZM38.42,43v0s0,0,0,0,0,0,0,0S38.4,43,38.42,43Zm-.37-.06h0s0,0,0,0v0S38,42.9,38.05,42.89Zm-.08.24s0,0,0,0,0,0,0,0,0,0,0,0Zm-.27-.72v0s0,0,0,0,0,0,0,0S37.68,42.41,37.7,42.41Zm0,.21a0,0,0,0,1,0,0l0,0a.06.06,0,0,1,0,.06l.07.07v0c-.06.05-.06.05-.12,0A1,1,0,0,1,37.66,42.62Zm-.16.08s0,.08,0,.12A.07.07,0,0,1,37.5,42.7Zm-.12,0s0,0,0,0l0,0s0,0,0,0Zm-.06.89.09.09,0,0h-.23a.07.07,0,0,1,0-.1C37.19,43.59,37.26,43.61,37.32,43.6Zm-.26-2s0,0,0,0,.09,0,.09.08,0,.08,0,.11l-.07-.09A0,0,0,0,1,37.06,41.61Zm-2.46-.8,0,0h0c0-.06,0-.06,0-.12s.06,0,.07,0S34.62,40.79,34.6,40.81ZM36,42.14l0,0a.41.41,0,0,1-.11,0l0,0s0,0,0,0H36S36,42.13,36,42.14Zm0-1h0s0,0,0,0a0,0,0,0,1,0,0S36,41.1,36,41.09Zm-.11.24h.15l.11.09-.15.15s0-.09-.07-.12a.6.6,0,0,1-.08-.08S35.88,41.33,35.9,41.33ZM35.83,41h0s0,0,0,0v0S35.8,41,35.83,41Zm-.19-.73s.07,0,.08,0,0,0,0,.06a0,0,0,0,1,0,0l0,0A.08.08,0,0,1,35.64,40.24Zm-.17.72h-.06c0-.05,0-.05,0-.12h.06C35.51,40.9,35.51,40.9,35.47,41Zm-.15-.4a.07.07,0,0,1,.1,0s0,0,0,0a.07.07,0,0,1-.1,0S35.32,40.57,35.32,40.56Zm-.79-1v0s.07-.05.1,0a.2.2,0,0,1,.08.08v.06l.05.06-.09.08h-.06l-.14-.14Zm-.52.83v0s0,0,0,0v0S34,40.46,34,40.44Zm-2.08-3.61h0s0,0,0,0v0S31.9,36.84,31.93,36.83Zm-.18.83s.05,0,.07,0,0,0,0,0,0,.05-.06.07S31.7,37.7,31.75,37.66Zm-.13-.11s0,0,0,0,0,0,0,0,0,0,0,0Zm-.06-.42s0,0,0,0v0s0,0,0,0Zm-.07.31h0s0,0,0,0l0,0S31.48,37.46,31.49,37.44Zm-.24.24s0,0,0,0,0,0,0,0v0S31.24,37.7,31.25,37.68Zm-.3-.42h.1s0,0,0,0a.07.07,0,0,1-.1,0Zm-.28-.67h0s0,0,0,0a0,0,0,0,1,0,0S30.64,36.6,30.67,36.59ZM30.16,36l0,0,0,0,0,0S30.14,36,30.16,36Zm-.05,0s0,0,0,0,0,0,0,0a0,0,0,0,1,0,0h0A0,0,0,0,1,30.11,36Zm-.31-1.06,0,0,0,0,0,0S29.78,35,29.8,34.94Zm-.05,0s0,0,0,0,0,0,0,0v0h0A0,0,0,0,1,29.75,35Zm-.13.37c-.05,0-.08,0-.13,0A.09.09,0,0,1,29.62,35.35Zm-.23.29s0,0,0,0,0,0,0,0l0,0S29.38,35.66,29.39,35.64Zm-.18-1.74h0s0,.08,0,.1h0S29.18,33.92,29.21,33.9Zm-.34.64h0s0,0,.05,0,0,0-.06,0h0l0,0Zm-.48-.35,0,0s0,0,0,0,0,0,0,0S28.38,34.19,28.39,34.19Zm20.49,8.59a.07.07,0,0,1,.1,0v0a.07.07,0,0,1-.1,0S48.88,42.79,48.88,42.78ZM48.23,44h0s0,0,0,0l0,0S48.22,44,48.23,44ZM48,43.13s0,0,0,0,0,0,0,0l0,0S47.92,43.14,48,43.13Zm-.2,1.27v0s0,0,0,0v0S47.74,44.42,47.75,44.4Zm-.3.36,0,0s0,0,0,0v0S47.44,44.78,47.45,44.76ZM47,44.33h0s0,0,0,0l0,0S47,44.34,47,44.33Zm-.06.72h0s0,0,0,0v0S46.9,45.06,46.93,45.05Zm-.84.24h0s0,0,0,0v0S46.06,45.3,46.09,45.29Zm-.49,1,0,0s0,0,0,0h0S45.63,46.29,45.6,46.3Zm-.19-.1h0s0,0,0,0v0S45.4,46.22,45.41,46.2Zm-.19-.71,0,0,0,0s0,0,0,0,0,0,0,0,0,0,0,0A0,0,0,0,1,45.22,45.49Zm0,2s0,0,0,0,0,0,0,0l0,0S45.16,47.48,45.17,47.46Zm-.12-1.62h.1s0,0,0,0a.06.06,0,0,1-.1,0Zm-.11.94.09.09A1,1,0,0,1,45,47a.08.08,0,0,1,0,0s0,0,0-.07,0,0,0-.07S44.91,46.83,44.94,46.78Zm-.37-.94h.13l0,0s0,0,0,0h-.11S44.56,45.86,44.57,45.84Zm0,.72h0s0,0,0,0v0S44.56,46.58,44.57,46.56Zm-.06-.18h0s0,0,0,0l0,0S44.5,46.4,44.51,46.38Zm7.71-10.29h-.1c0-.06,0-.07.09-.05a0,0,0,0,1,0,0A0,0,0,0,0,52.22,36.09Zm0-.23v0s0,0,0,0h0S52.29,35.85,52.26,35.86Zm0-.24h0l0,0,0,0,0,0a0,0,0,0,1,0,0h-.11a.07.07,0,0,1-.06,0l0,0,.06-.05S52.3,35.57,52.3,35.62Zm-.23-.7s0,0,.06,0l0,0v0s-.08,0-.12,0S52,34.93,52.07,34.92Zm-.13.6s0,0,.05,0h0l0,0,0,0h0S51.93,35.55,51.94,35.52Zm0,.61.08-.08s0,.06.1.05v.1l-.09.08a.08.08,0,0,1-.08,0,.08.08,0,0,1,0-.05A.28.28,0,0,0,51.94,36.13Zm-.11-.37h0s0,0,0,0v0S51.82,35.78,51.83,35.76Zm0,1.19A.29.29,0,0,1,52,37l0,0-.09.08-.1-.08Zm-.37-1.32s0,0,0,0,0,0,0,0,0,0,0,0Zm-.13.19h0s0,0,0,0v0S51.34,35.84,51.34,35.82Zm0,1.67h0s0,0,0,0v0S51.34,37.5,51.37,37.49Zm-7.29,7.85a0,0,0,0,0,0,0c0,.05,0,.05-.11,0l0-.06,0,0S44.08,45.32,44.08,45.34Zm.34.4v0s0,0,0,0h0S44.43,45.73,44.42,45.74Zm0-.84v0s0,0,0,0h0S44.43,44.89,44.42,44.9Zm1-1.79v0s0,0,0,0l0,0S45.43,43.12,45.41,43.11Zm.2-.6s0,0,0,0v0s0,0,0,0S45.62,42.51,45.61,42.51Zm5.67-5.35,0,0,0,0s0,0,0,0S51.26,37.18,51.28,37.16Zm-.05,0s0,0,0,0,0,0,0,0v0h0A0,0,0,0,1,51.23,37.2Zm-.16.09s0,0,0,0l0,0s0,0,0,0ZM51,35.94h.1s0,0,0,0a.07.07,0,0,1-.1,0Zm-.24.3h0s0,0,0,0a0,0,0,0,1,0,0S50.74,36.26,50.75,36.24Zm0,1.62s0,0,0,0l.06.06s-.09,0-.13,0S50.72,37.87,50.75,37.86Zm-.41-.73s0,0,0,.08-.08,0-.12,0Zm-.23-.06h0s0,0,0,0l0,0S50.08,37.08,50.11,37.07ZM50,38s0,0,.05,0,0,0,.06.06-.09,0-.13,0S49.94,38.05,50,38Zm-.12.06a0,0,0,0,0,0,0s0,0,0,0a0,0,0,0,1,0,0S49.84,38.12,49.85,38.1Zm-.12-.9h0s0,0,0,0l0,0S49.72,37.22,49.73,37.2Zm-.28,1.19h0s0,0,0,0v0S49.42,38.4,49.45,38.39Zm-.08-.29a0,0,0,0,0,0,0s0,0,0,0a0,0,0,0,1,0,0S49.36,38.12,49.37,38.1Zm-.06-.3h0s0,0,0,0v0S49.3,37.82,49.31,37.8Zm0,.6h0s0,0,0,0v0S49.3,38.42,49.31,38.4Zm-.3.76h0a.13.13,0,0,0,.12.06l.11.11s.06,0,.08,0a0,0,0,0,1,0,0h-.18l-.07-.06H49l-.14-.14C48.91,39.14,49,39.17,49,39.16Zm-.3-.4h0s0,0,0,0v0S48.7,38.78,48.71,38.76ZM48.3,39l.09.09,0,0a.41.41,0,0,1-.11,0l0,0Zm-.78,1.75s0,0,0,0v0s0,0,0,0Zm-.06-1.26,0,0,0,0s0,0,0,0S47.44,39.51,47.46,39.53Zm0-.05s0,0,0,0h0v0S47.4,39.47,47.42,39.48Zm-.56,2h0v0a0,0,0,0,1,0,.05,0,0,0,0,1,0,0,0,0,0,0,1,0,0S46.83,41.47,46.86,41.45Zm-.14-.7s0,.07,0,.08,0,0-.06,0l0,0v0A.08.08,0,0,1,46.72,40.75Zm-.33,1h0s0,0,0,0,0,0-.06,0,0,0,0,0l0,0Zm0,.74,0,0s0,0,0,0v0S46.36,42.5,46.37,42.48Zm-.06-1.15s0,0,0,0,0,0,0,0,0,0,0,0Zm-.13-.16s-.08,0-.13,0A.09.09,0,0,1,46.18,41.17Zm-.1.1h0v0a0,0,0,0,1,0,.05l0,0a0,0,0,0,1,0,0S46.05,41.29,46.08,41.27ZM46,40.8h0s0,0,0,0v0S46,40.82,46,40.8Zm0,1.73a.11.11,0,0,1,0-.05s0,0,0,0a.25.25,0,0,1,0-.08,0,0,0,0,1,0,0s0,0,0,0a.13.13,0,0,1,0,.06s0,0-.05,0a.27.27,0,0,1,0,.09,0,0,0,0,1,0,0A0,0,0,0,1,46,42.53Zm-.15,0a.07.07,0,0,1,0,.12Q45.77,42.58,45.85,42.52Zm0,.63c0,.05-.08.05-.13,0A.09.09,0,0,1,45.82,43.15Zm-.07-1.45a.09.09,0,0,1,0,0l-.12-.13s0,0,0,0,0,0,0,0h0l.07.09A0,0,0,0,1,45.75,41.7Zm-.08-.31,0,0v0h0a.27.27,0,0,1-.09,0C45.59,41.38,45.61,41.37,45.67,41.39Zm-.14-.11h0a0,0,0,0,1,.05,0h0s0,0,0,0a.06.06,0,0,1-.1,0Zm0,.18s0,0,0,0,0,0,0,0v0h0A0,0,0,0,1,45.53,41.46Zm-.09.23h0a.05.05,0,0,1,0,.06s0,0,0,.07a.07.07,0,0,1,0,.1h-.06l-.07.06h-.06s0-.12-.09-.15Zm-.45.13s0,0,0,0,0,0,0,0l0,0S45,41.84,45,41.82Zm-.18.54h.1s0,0,0,0a.07.07,0,0,1-.1,0A0,0,0,0,1,44.81,42.36Zm-.12.48h0s0,0,0,0l0,0S44.68,42.86,44.69,42.84ZM44.5,43h0s0,0,0,0v0S44.5,43,44.5,43Zm0-.24s0,0,0,0,0,0,0,0l0,0S44.44,42.8,44.45,42.78Zm-.1,1.31s0,0,0,0,0,0,0,0l0,0S44.32,44.1,44.35,44.09Zm-.14-1.31s0,0,0,0,0,0,0,0v0S44.2,42.8,44.21,42.78Zm-.4,1.06a.71.71,0,0,1,.07.09s0,.07,0,.1l-.07-.09S43.77,43.87,43.81,43.84Zm-.74.85s0,0,0,0,0,0,0,0,0,0,0,0Zm0-1s0,0,0,0v0s0,0,0,0ZM42.74,43v0s0,0,0,0,0,0,0,0S42.72,43,42.74,43ZM52.93,30.23s0,0,0,0,0,0,0,0v0S52.9,30.24,52.93,30.23Zm-.2-.47s0,0,0,0,0,0,0,0l0,0S52.72,29.78,52.73,29.76Zm-.06.18,0,0h.08a0,0,0,0,1,0,0l0,0,0,0s0,0,0,0h0c0,.06,0,.08-.09.06l0,0S52.67,30,52.67,29.94Zm0,.26s0,0,0,0v0a.4.4,0,0,1,0,.11,0,0,0,0,1,0,0s0,0,0,0Zm-.06,1.2,0,0,0,0s0,0,0,0S52.58,31.42,52.6,31.4Zm-.05-.32s0,0,0,0,0,0,0,0l0,0S52.54,31.1,52.55,31.08Zm0,.36s0,0,0,0,0,0,0,0a0,0,0,0,1,0,0h0A0,0,0,0,1,52.55,31.44Zm-.18-.9h0s0,0,0,0a0,0,0,0,1,0,0S52.36,30.56,52.37,30.54Zm-.06,1.14h0s0,0,0,0a0,0,0,0,1,0,0S52.3,31.7,52.31,31.68Zm0,.29h0s0,0,0,0v0S52.3,32,52.33,32ZM51.39,33a.07.07,0,0,1-.1,0s0,0,0,0a.07.07,0,0,1,.1,0A0,0,0,0,1,51.39,33ZM52,31.9a0,0,0,0,1,0,0s0,0,0,0h0S52,31.89,52,31.9Zm0-1.37,0,0s0,0,0,0,0,0,0,0S52,30.53,52,30.53Zm-.39,1.23,0,0,0,0s0,0,0,0,0,.06,0,0,0,0,0,0S51.57,31.76,51.58,31.76ZM51.49,33s0,0,.07,0,0,0,0,0,0,.05-.06.07S51.44,33,51.49,33Zm-.21-1.66a.07.07,0,0,1,.1,0,0,0,0,0,1,0,0,.07.07,0,0,1-.1,0S51.28,31.33,51.28,31.32Zm0,.12h0s0,0,0,0v0S51.28,31.46,51.29,31.44Zm0,.28h.06c.05.06.05.06,0,.12h-.06C51.2,31.79,51.2,31.79,51.24,31.72Zm-.11.73h0s0,0,0,0a0,0,0,0,1,0,0S51.1,32.46,51.13,32.45Zm-.11-1v0s0,0,0,0,0,0,0,0S51,31.49,51,31.49Zm-.52,2.35a.07.07,0,0,1,.1,0v0a.06.06,0,0,1-.1,0S50.5,33.85,50.5,33.84Zm0-1.39h0s0,0,0,0a0,0,0,0,1,0,0S50.44,32.46,50.47,32.45Zm-.42,1.79h.11s0,0,0,0l-.09.08L50,34.28Zm-3,3.4v0s0,0,0,0l0,0S47,37.63,47,37.64ZM47.42,36v0s0,0,0,0h0S47.43,36,47.42,36ZM48.68,36v0s0,0,0,0v0S48.69,36,48.68,36Zm.25-.34s0,.06,0,.05,0,0,0,0,0,0,0,0,0,0,0,0l0,0S48.93,35.61,48.93,35.62Zm1-2h0s0,0,0,0v0S50,33.68,50,33.66Zm0,.71h0s0,0,0,0l0,0S49.9,34.38,49.93,34.37ZM49.69,33s0,0,0,0,0,0,0,0v0S49.66,33,49.69,33Zm-.33,1,.21-.22s.06,0,.08,0l0,.06a.48.48,0,0,0,0,.12l-.06.06v.12s0,0,0,0a0,0,0,0,1-.05,0l-.08-.06Zm-.41.76h0a.06.06,0,0,1,0,.1s0,0,0,0A.06.06,0,0,1,49,34.74Zm0,.52s0,0,0-.06,0,0,0-.05l0,0a0,0,0,0,0,0,0s.06,0,.06,0a.06.06,0,0,1,0,.08L49,35.26h-.09v.09s0,0-.11,0S48.88,35.28,48.93,35.26ZM48.64,34c.06,0,.06,0,.11,0v.05c-.06,0-.06,0-.11,0Zm-.23,1.78s0,0,0,0,0,0,0,0,0,0,0,0Zm-.3-1.37h0s0,.08,0,.1h0S48.08,34.46,48.11,34.44Zm-.36,1.2s0,0,.06,0l0,0v0s-.08,0-.12,0S47.72,35.65,47.75,35.64Zm-.25-.36h0s0,0,0,0a0,0,0,0,1,0,0S47.5,35.3,47.5,35.28Zm0,.59,0,0,0,0,0,0S47.44,35.85,47.46,35.87Zm0,0s0,0,0,0h0a0,0,0,0,1,0,0S47.4,35.81,47.42,35.82ZM47,36.5s0,0,0,0l0,0s0,0,0,0,0,.06,0,0,0,0,0,0S47,36.5,47,36.5Zm0,.69s0,0,0,0,0,0,0,0l0,0s0,0,0,0,0,.06,0,0S47,37.21,47,37.19Zm-.13-.42v0s0,0,0,0,0,0,0,0S46.8,36.77,46.82,36.77Zm-.12-.3v0s0,0,0,0,0,0,0,0S46.68,36.47,46.7,36.47ZM46.55,38h0s0,0,0,0v0S46.54,38.06,46.55,38Zm-.25-.58,0,0,0,0a0,0,0,0,1,0,0s0,.06,0,.05,0,0,0,0S46.29,37.46,46.3,37.46Zm-.06-.19a.08.08,0,0,1-.13,0A.09.09,0,0,1,46.24,37.27ZM46,38l0,0s0,0,0,0,0,0,0,0S46,38,46,38Zm-.32.79h0s0,0,0,0l0,0S45.7,38.78,45.71,38.76Zm-.17-1.22h.07s0,.05.06.06,0,0,0,0a.06.06,0,0,1,0,0h-.08S45.5,37.58,45.54,37.54Zm-.2.38h0s0,0,0,0a0,0,0,0,1,0,0S45.34,37.94,45.34,37.92ZM42.75,40v0h0a0,0,0,0,1,0,0s0,0,0,0S42.76,40,42.75,40Zm.08,1.52v0s0,0,0,0,0,0,0,0S42.85,41.56,42.83,41.55Zm.76-1.75,0,0s0,0,0,0,0,0,0,0S43.59,39.79,43.59,39.8Zm1.23-1.59s0,0,0,0v0s0,0,0,0Zm-.11.42s0,0,0,0,0,0,0,0l0,0S44.68,38.64,44.71,38.63Zm-.12,1.14s0,0,0,0,0,0,0,0v0S44.56,39.78,44.59,39.77Zm-.12.3h0s0,0,0,0v0S44.44,40.08,44.47,40.07Zm-.2-.42s0,0,0,0,0,0,0,0,0,0,0,0Zm-.7-.48h0s0,0,0,0v0S43.54,39.18,43.57,39.17Zm0,.32a.08.08,0,0,1-.13,0A.09.09,0,0,1,43.6,39.49Zm-.39.1s0,0,0,0,0,0,0,0l0,0S43.2,39.59,43.21,39.59Zm-.12-.06h0s0,0,0,0l0,0S43.06,39.54,43.09,39.53Zm-.12.59h.09s0,0,.06-.06a.21.21,0,0,1,0-.08l0,0s0,0,0,0a.13.13,0,0,1,0,.06s0,0,0,0,0,.06-.06.06,0,.08-.1.06a0,0,0,0,1,0,0v0Zm-.27-.27s0,0,0,0,.08.06.16,0,0,.1,0,.14l-.09.09S42.8,40,42.76,40s0-.06-.06-.09S42.69,39.87,42.7,39.85Zm-.06.83s0,0,0,0,0,0,0,0,0,0,0,0l0,0h0S42.63,40.71,42.64,40.68Zm-.06.2c0-.05.07-.05.11,0v.06s0,0-.11,0Zm-.22.2s.08,0,.09,0l-.09.08A.08.08,0,0,1,42.36,41.08Zm0,.39a.08.08,0,0,1-.13,0A.09.09,0,0,1,42.34,41.47Zm-.41-.73h0s0,.08,0,.1,0,0,0,0A.06.06,0,0,1,41.93,40.74Zm-.4.41,0,0s0,0,0,0,0,0,0,0S41.52,41.15,41.53,41.15Zm.24,1h0v0s0,0,0,0,0,0,0,0Zm.06.06,0,0s0,0,0,0l0,0Zm.35,1.92a.07.07,0,0,1,0-.12S42.23,44,42.18,44.08Zm-1-2.08s0,0,0,0,0,0,0,0,0,0,0,0l0,0h0S41.13,42,41.14,42ZM41,41.27s0,0,0,0l0,0s0,0,0,0Zm-.24,1.26s0,0,0,0l0,0s0,0,0,0Zm-.19-.71s0,0,0,0,0,0,0,0l0,0S40.54,41.84,40.55,41.82ZM52.62,26.69s0,0,0,0l0,0,0,0S52.6,26.67,52.62,26.69Zm0-.05s0,0,0,0,0,0,0,0h0a0,0,0,0,1,0,0S52.56,26.63,52.58,26.64Zm-1.49,1a.09.09,0,0,1,.13,0S51.14,27.72,51.09,27.67Zm1.34-1s0,0,0,0,0,0,0,0v0S52.42,26.72,52.43,26.7Zm-.28-.38h.06l.09.08a.27.27,0,0,0,0,.09s0,.05,0,.06l0,0s0,0,0,0h-.06l-.09-.08A.43.43,0,0,1,52.15,26.32Zm0,1.41a.08.08,0,0,1-.13,0A.09.09,0,0,1,52.18,27.73ZM52,28h0s0,0,0,0l0,0S52,28,52,28Zm-.15,0s0,0,0,0l0,0V28s0,0,0,0a0,0,0,0,1,0,0Zm-.09-1.11,0,0s0,0,0,0,0,0,0,0S51.78,26.81,51.79,26.81Zm-.14.37h0a0,0,0,0,1,0,0h0s0,0,0,0a.07.07,0,0,1-.1,0Zm-.09-.25v0s0,0,0,0,0,0,0,0S51.54,26.93,51.56,26.93Zm-.14.3,0,0s0,0,.07,0,0,0,0,0a.29.29,0,0,1-.24,0Zm0,1.16-.08.09a.07.07,0,0,1-.09,0l.08-.08A.08.08,0,0,1,51.39,28.39Zm-.26-1a.71.71,0,0,1,.07.09s0,.07,0,.1l-.07-.09S51.09,27.43,51.13,27.4Zm-.28.3,0,0s0,0,0,0h0s0,0,0,0l0,0s0,0,0,0a0,0,0,0,1,0,0h-.08l0,0A.05.05,0,0,1,50.85,27.7Zm-.15,1.62c.08,0,.09,0,.09.08s-.06.07-.08.1-.09,0-.09-.07S50.68,29.36,50.7,29.32Zm-.2-.7s0,0,0,0h0c0,.06,0,.06,0,.12l-.06,0S50.5,28.64,50.5,28.62Zm-.65.3s0,0,0,0,0,0,0,0l0,0S49.84,28.94,49.85,28.92Zm-.43.3s0,0,0,0,0,0,0,0,0,.06,0,.12l-.06-.05S49.42,29.24,49.42,29.22Zm-.33.23h0s0,0,0,0v0S49.06,29.46,49.09,29.45Zm-.2.55h0s0,0,0,0v0S48.88,30,48.89,30ZM39.32,41.42v0s0,0,0,0h0S39.33,41.41,39.32,41.42Zm.16.2-.08-.09a.08.08,0,0,1,.07,0s.08,0,.1,0S39.52,41.6,39.48,41.62Zm.19-1.33s0,0,0,0v0s0,0,0,0S39.68,40.29,39.67,40.29Zm0-.18s0,0,0,0v0s0,0,0,0S39.68,40.11,39.67,40.11Zm.14,1.61,0,0s0,0,0,0h0S39.81,41.71,39.81,41.72Zm0-1.36s0-.08,0-.12A.08.08,0,0,1,39.79,40.36ZM44.09,35v0s0,0,0,0l0,0S44.11,35,44.09,35Zm.49.31v0s0,0,0,0,0,0,0,0S44.61,35.31,44.58,35.32Zm1.28-2.12v0s0,0,0,0,0,0,0,0S45.87,33.19,45.86,33.2Zm.07,1.14,0,0s0,0,0,0,0,0,0,0S45.93,34.33,45.93,34.34Zm2.85-3a.41.41,0,0,1-.11,0s0,0,0,0l.09-.09.08.09S48.8,31.35,48.78,31.36Zm-.14-1.47s.06,0,.1,0,0,0,.08,0a.45.45,0,0,1,0,.11s0,0,0,0a.19.19,0,0,0-.1-.05s0,0,0,0Zm-.1,1.66.06.05s0,0,0,0a0,0,0,0,1-.05,0h0C48.5,31.61,48.5,31.61,48.54,31.55Zm-.38.38s0,0,0,0h.12s0,0,0,0l0,0h-.11S48.16,31.94,48.16,31.93Zm-.75-.44h0s0,0,0,0l0,0S47.38,31.5,47.41,31.49Zm-.06,1.07a.08.08,0,0,1,0,.12Q47.27,32.62,47.35,32.56ZM47,32.22h.1s0,0,0,0a.07.07,0,0,1-.1,0A0,0,0,0,1,47,32.22ZM47,33l0,0s0,0,0,0,0,0,0,0-.06.05-.12,0Zm-.29.36v0s0,0,0,0v.11s0,0,0,0v0A.4.4,0,0,1,46.72,33.32Zm-.78-.55a.08.08,0,0,1-.13,0A.09.09,0,0,1,45.94,32.77ZM45.79,34l0,0s0,0,0,0,0,0,0,0S45.78,34,45.79,34Zm-.13-1,.1.08,0,0a.2.2,0,0,1-.13,0l0,0Zm-.44.07s0,0,.05,0h0l0,0,0,0h0S45.21,33.09,45.22,33.06Zm0,1,0,0s0,0,0,0,0,0,0,0S45.18,34.07,45.19,34.07Zm-.2-.29h0a0,0,0,0,1,.05,0h0s0,0,0,0a.07.07,0,0,1-.1,0Zm-.49-.09s0,0,0,0l.06.06h.11l.09.08v.07l-.11,0-.08.1h-.09v0A1.22,1.22,0,0,1,44.5,33.69Zm-.29,1.71h0a.06.06,0,0,1,0,.1h0A.06.06,0,0,1,44.21,35.4Zm-.07-1s0,.08,0,.09L44,34.39S44.09,34.36,44.14,34.39Zm-.28,1.77h.06c0,.06,0,.06,0,.12h-.06C43.82,36.23,43.82,36.23,43.86,36.16Zm-.44.08s0,0,0,0h0l0,0,0,0h0S43.41,36.27,43.42,36.24Zm-.54-.06s0,0,0,0,0,0,0,0,0,0,0,0l0,0h0S42.87,36.21,42.88,36.18Zm-1.07.54h0s0,0,0,0v0S41.8,36.74,41.81,36.72Zm-.17,1.12,0,0s0,0,0,0h0S41.67,37.83,41.64,37.84Zm-.08-1a.07.07,0,0,1,.1,0v0a.07.07,0,0,1-.1,0S41.56,36.85,41.56,36.84Zm0,.78s0,0,0,0h0l0,0,0,0s0,0,0,0S41.55,37.65,41.56,37.62Zm-.1-.67,0,0,0,0,0,0S41.44,36.93,41.46,37Zm0-.05s0,0,0,0,0,0,0,0h0a0,0,0,0,1,0,0S41.4,36.89,41.42,36.9Zm-.13.11,0,0s0,0,0,0,0,0,0,0S41.28,37,41.29,37Zm.09,1.82a.08.08,0,0,1-.13,0A.09.09,0,0,1,41.38,38.83Zm-.6.47s0,0,0,0h0l0,0,0,0h0S40.77,39.33,40.78,39.3ZM40.65,39l0,0s0,0,0,0,0,0,0,0-.06,0-.12,0Zm-.22.4h0s0,0,0,0v0S40.42,39.44,40.43,39.42ZM40,40h0s0,0,0,0a0,0,0,0,1,0,0S39.94,40,40,40Zm.14.17s0,0,0,0l0,0,0,0h0s-.07,0-.06,0S40.09,40.12,40.11,40.12Zm-1.1.19s0,0,0,0,0,0,0,0v0S39,40.32,39,40.31Zm0,.3a0,0,0,0,1,0,0v0h0a.27.27,0,0,1-.09,0C38.93,40.6,39,40.59,39,40.61Zm-.14.07s0,0,0,0,0,0,0,0a0,0,0,0,1,0,0h0A0,0,0,0,1,38.87,40.68Zm-.1-.79,0,0s0,0,0,0,0,0,0,0S38.76,39.89,38.77,39.89Zm-.15,0,0,0a0,0,0,0,1,0,0,.4.4,0,0,1,0,.11s-.07,0-.12,0l.07-.05S38.61,39.93,38.62,39.91Zm-.15-.8h0s0,0,0,0v0S38.44,39.12,38.47,39.11Zm-.11-.36v0s0,0,0,0,0,0,0,0S38.34,38.75,38.36,38.75Zm-.19,1.56s0,0,0,0,0,0,0,0l0,0S38.14,40.32,38.17,40.31ZM51.82,23.9a0,0,0,0,1,0,0s0,.05.07.05.06,0,.08,0a.3.3,0,0,1-.16,0A.06.06,0,0,1,51.82,23.9Zm-.14-.75v0s0,0,0,0,0,0,0,0S51.66,23.15,51.68,23.15Zm-.39.06s0,0,0,0,0,0,0,0,0,0,0,0Zm-5.79,6a0,0,0,0,1,0,0s0,0,0,0v0S45.51,29.17,45.5,29.18Zm5-3.71v0s0,0,0,0l0,0S50.47,25.48,50.45,25.47Zm0-.18s0,0,0,0,0,0,0,0v0S50.47,25.3,50.46,25.29Zm.13-.94h0s0,0,0,0a0,0,0,0,1,0,0S50.56,24.36,50.59,24.35Zm-.21-.47s0,0,0,0,0,0,0,0,0,.06,0,.12l-.06-.05S50.38,23.9,50.38,23.88Zm-1.11,1.19,0,0s0,0,0,0,0,0,0,0S49.26,25.07,49.27,25.07ZM49,26.6s0,0,0,0a.06.06,0,0,1,0-.05s0,0,0,0,.08,0,.13,0S49,26.57,49,26.6Zm0-1s0,0,0,0l0,0s0,0,0,0S49,25.66,49,25.64Zm0,0s0,0,0,0v0l.06.05v.06s0,0-.09,0l0,0A.17.17,0,0,1,49,25.68Zm0,1.23,0,.08c0,.06-.07.08-.1.12l0-.07C48.83,27,48.88,27,48.91,26.91Zm-.32-1.05h0a.06.06,0,0,1,0,.1s0,0,0,0S48.56,25.88,48.59,25.86Zm-.11,1.24h.18s0,0,0,0l-.09.09-.05-.07s0,0-.06,0S48.46,27.14,48.48,27.1Zm-.19-.41s0,0,0,0,0,0,0,0,0,0,0,0Zm-.52,1.08h0s0,0,0,0v0S47.74,27.78,47.77,27.77Zm-.27,0a.08.08,0,0,1-.13,0A.09.09,0,0,1,47.5,27.79Zm-.66-.13h0s0,0,0,0a0,0,0,0,1,0,0S46.84,27.68,46.84,27.66Zm0,.59h0s0,0,0,0v0S46.84,28.26,46.87,28.25Zm-.24.72h0s0,0,0,0v0S46.6,29,46.63,29Zm-1.14-.3,0,0s0,0,0,0,0,0,0,0S45.48,28.67,45.49,28.67Zm-.36.6h0s0,0,0,0v0S45.1,29.28,45.13,29.27Zm0,1.49q.08.06,0,.12A.07.07,0,0,1,45.12,30.76ZM45,29.27h0s0,0,0,0l0,0S45,29.28,45,29.27Zm-.15,1.27s0,0,0,0,0,0,0,0l0,0,0,0s0,0,0,0S44.85,30.57,44.86,30.54Zm-.39.4h0s0,0,0,0,0,0-.06,0,0,0,0,0l0,0S44.45,31,44.47,30.94Zm-.2-1.31s0,0,0,0v.11s0,0,0,0a0,0,0,0,1,0,0,.45.45,0,0,1,0-.11S44.27,29.64,44.27,29.63Zm-.05,2s0,0,0,0l0,0s0,0,0,0S44.21,31.68,44.22,31.67Zm-.65.3,0,0s0,0,0,0,0,0,0,0S43.56,32,43.57,32Zm-.31.35,0,0,0,0h0s-.07,0-.06,0,0,0,0,0Zm0-.78a.07.07,0,0,1,0,.12Q43.13,31.6,43.21,31.54Zm-1.06,2a.07.07,0,0,1-.1,0s0,0,0,0a.07.07,0,0,1,.1,0A0,0,0,0,1,42.15,33.56Zm.15.08a0,0,0,0,1,0,0s0,0,0,0h0S42.33,33.63,42.3,33.64Zm.45-.87s0-.06,0-.07,0,0,.06,0l0,0v0C42.81,32.82,42.81,32.82,42.75,32.77Zm.2-.55h0s0,0,0,0v0S42.94,32.24,43,32.22Zm-.1.76q-.08-.06,0-.12A.08.08,0,0,1,42.85,33Zm0-.6c0,.07,0,.07,0,.12h-.06c0-.06,0-.06,0-.12Zm-.13-.66q.08.06,0,.12A.08.08,0,0,1,42.72,31.72Zm-.11-.23h0s0,0,0,0a0,0,0,0,1,0,0S42.58,31.5,42.61,31.49Zm-.09.39s0,0,0,0a.24.24,0,0,0,.16.07s-.08,0-.12,0a.07.07,0,0,1-.08,0A.07.07,0,0,1,42.52,31.88Zm-.1,1.17h0v0a0,0,0,0,1,0,.05l0,0h0A.06.06,0,0,1,42.42,33.05Zm-.11.3,0,0s0,0,0,0,0,0,0,0S42.3,33.35,42.31,33.35Zm-.2-1.13h0s0,0,0,0l0,0S42.1,32.24,42.11,32.22ZM42,32l.09.08c0,.05-.08,0-.13,0S42,32,42,32Zm-.24.65s.07,0,.08,0l-.09.08s-.07,0-.08,0Zm-.42,1.8h.11s0,0,0,0l0,0a.41.41,0,0,1-.11,0l0,0S41.33,34.44,41.35,34.42Zm-.09-1.34,0,0,0,0a0,0,0,0,1,0,0s0,.06,0,0,0,0,0,0S41.25,33.08,41.26,33.08Zm-.22,1s0,0,.06-.06,0,.09,0,.12-.05,0-.07,0S41,34.08,41,34.06Zm0,.38h0s0,0,0,0l0,0S41,34.46,41,34.44Zm0,.23h.06l.08.09s0,0,0,0H41.1L41,34.7S41,34.67,41.05,34.67Zm0,.27,0,0,0,0,0,0S41,35,41,34.94Zm-.21-1.17s0,0,0,0,0,0,0,0v0S40.78,33.78,40.81,33.77Zm0,1.14h.12S41,35,41,35s0,0,0,0l0,0a.86.86,0,0,1-.32,0v0a0,0,0,0,1,0,0Zm-.24-1.14a.23.23,0,0,1,.07-.07l.08.09s-.06.06-.09.09h-.06C40.52,33.82,40.52,33.81,40.56,33.77Zm-.56.49a.07.07,0,0,1,.1,0s0,0,0,0a.07.07,0,0,1-.1,0S40,34.27,40,34.26Zm-.41,1.56s0,0,0,0,0,0,0,0l0,0S39.58,35.84,39.59,35.82Zm-.4-1.09,0,0s0,0,0,0,0,0,0,0S39.18,34.73,39.19,34.73Zm0,1.46s0,.07,0,.08,0,0-.06,0l0,0v0C39.16,36.15,39.16,36.15,39.22,36.19ZM39,35s0,0,.05,0h0c0,.06,0,.06,0,.12l-.06,0S39,35.06,39,35Zm0,.71s0,0,0,0,0,0,0,0,0,0,0,0Zm-.22,1h0s0,0,0,0,0,0-.06,0h0l0,0Zm-.43-.12s.08.06.09.11.1.08,0,.18l-.06.06h0v0a1,1,0,0,1,0-.17l-.07-.08Zm-.32.38s0,0,.05,0h0l0,0,0,0h0S38.07,37.05,38.08,37Zm-.63.4q-.08-.06,0-.12A.07.07,0,0,1,37.45,37.42ZM37.38,37s0,0,0,0,0,0,0,0,0,0,0,0Zm-.45,1.11,0,0s0,0,0,0,0,0,0,0S36.93,38.11,36.93,38.12Zm.15-.58v0s0,0,0,0h0S37.11,37.53,37.08,37.54Zm.06.71a0,0,0,0,1,0,0s0,0,0,0l.14-.15h.06l0,0Zm0-.44v-.05c.06,0,.06,0,.12,0v.06S37.18,37.85,37.11,37.81Zm.45.81v0s0,0,0,0h0S37.59,38.61,37.56,38.62Zm.19.83s0,0,0-.05a0,0,0,0,1,0,0l0,0,0,0s0,0,0,0S37.78,39.44,37.75,39.45Zm-.81-2.23s0,.06,0,.07,0,0-.06,0l0,0v0C36.88,37.17,36.88,37.17,36.94,37.22Zm-.22.92h.07l.06.06s0,0,0,0a0,0,0,0,1,0,0h-.08S36.68,38.21,36.72,38.14Zm-.13-.76h0s0,0,0,0v0S36.58,37.4,36.59,37.38Zm-.08,1.19s0,0,0,0,.06,0,.12,0l-.05.06s0,0,0,0S36.51,38.59,36.51,38.57Zm-.21-2s0,0,0,0l0,0,0,0S36.28,36.57,36.3,36.59Zm0-.05s0,0,0,0,0,0,0,0h0a0,0,0,0,1,0,0S36.24,36.53,36.26,36.54Zm-.09,1.25s0,0,0,0,0,0,0,0,0,0,0,0ZM45.86,25s0,0,0,0,0,.06-.06.06,0,0,.06-.06a.21.21,0,0,1,0-.08,0,0,0,0,1,0,0s0,0,0,0A.13.13,0,0,1,45.86,25Zm2.22-2.23v0s0,0,0,0l0,0S48.09,22.75,48.08,22.76Zm.28-.05s0,0,0,0,0,0,0,0l0,0S48.37,22.72,48.36,22.71Zm1.74-1.78s0,0,0,0v0s0,0,0,0Zm-.19-1.19a0,0,0,0,0,0,0s0,0,0,0v0S49.9,19.76,49.91,19.74Zm-.58,1.72a.07.07,0,0,1,0,.12S49.28,21.5,49.33,21.46Zm-.06.3h.06c0,.07,0,.07,0,.12h-.06C49.23,21.82,49.23,21.82,49.27,21.76Zm-.56.86,0,0s0,0,0,0v0S48.7,22.64,48.71,22.62Zm0-.79,0,0s0,0,0,0,0,0,0,0S48.66,21.83,48.67,21.83Zm-.07-.36,0,0a.41.41,0,0,1,0,.11s0,0,0,0l-.09-.09Zm-.27.33,0,0,0,0s0,.08,0,.12-.06,0-.07,0S48.31,21.82,48.33,21.8Zm-.26.62.07.08s0,0,0,0a.4.4,0,0,1-.11,0l0,0Zm-.78,1.44a.07.07,0,0,1,0,.12s-.08,0-.09,0Zm-.18-.29,0,0s0,0,0,0,0,0,0,0S47.1,23.57,47.11,23.57Zm-.47-.24v0s0,0,0,0,0,0,0,0S46.62,23.33,46.64,23.33Zm-.88.86a.08.08,0,0,1,.12,0l-.09.09S45.76,24.22,45.76,24.19Zm-.06.92s0,0,0,0,0,0,0,0,0,0,0,0l.06,0s0,0,0,0A.05.05,0,0,1,45.7,25.11Zm-.29.39h.1s0,0,0,0a.06.06,0,0,1-.1,0Zm-.29.23s0,0,0,0l0,0s0,0,0,0Zm-.25-.59h0s0,0,0,0v0S44.86,25.16,44.87,25.14Zm-.21.68v0s0,0,0,0h0S44.67,25.81,44.66,25.82Zm-.1-.2a.07.07,0,0,1,.1,0,0,0,0,0,1,0,0,.07.07,0,0,1-.1,0S44.56,25.63,44.56,25.62Zm-.17.84h0s0,0,0,0v0S44.38,26.48,44.39,26.46Zm0,.1s.08,0,.09,0l-.09.08A.08.08,0,0,1,44.4,26.56Zm-.17-.78h.07c0,.08,0,.14,0,.19l-.06-.07S44.18,25.84,44.23,25.78Zm-.12,1.75,0,0s0,0,0,0v0S44.1,27.53,44.11,27.53Zm-.6-.18s0,0,0,0,0,0,0,0v0S43.48,27.36,43.51,27.35Zm-.06.17s.06,0,.07,0,0,0,0,.06l0,0h0C43.4,27.58,43.4,27.58,43.45,27.52Zm-.26-.58,0,0s0,0,0,0v0S43.18,27,43.19,26.94Zm-.84,1.5h.1s0,0,0,0a.06.06,0,0,1-.1,0A0,0,0,0,1,42.35,28.44Zm-2,2.28h0s0,0,0,0a0,0,0,0,1,0,0S40.36,30.74,40.36,30.72Zm-.16.7s0,.08,0,.12A.07.07,0,0,1,40.2,31.42Zm-.17,0,0,0s0,0,0,0,0,0,0,0S40,31.43,40,31.43ZM40,31.6a0,0,0,0,1,0,0s0,0,0,0h0S40,31.59,40,31.6Zm-.12-.54,0,0v-.13a.05.05,0,0,1,0,0s0,0,0,0,0,0,0,0l0,0v.11a.05.05,0,0,1,0,0,.06.06,0,0,1-.05,0S39.82,31.08,39.84,31.06Zm-.11.3h0s0,0,.05,0,0,0-.06,0h0l0,0Zm-.2,0s0,0,0,0,0,0,0,0v0S39.52,31.4,39.53,31.38Zm-.1.29,0,0s0,0,0,0,0,0,0,0S39.42,31.67,39.43,31.67Zm0-.39,0,0h0s0,0,0,0a.27.27,0,0,1,0-.09S39.41,31.21,39.39,31.28Zm-.07-.14s0,0,0,0,0,0,0,0h0a0,0,0,0,1,0,0S39.3,31.13,39.32,31.14Zm-.67.65h0s0,0,0,0v0S38.62,31.8,38.65,31.79Zm-1.08,2.1h0s0,0,0,0v0S37.54,33.9,37.57,33.89Zm0,.12,0,0s0,0,0,0l0,0S37.56,34,37.57,34Zm-.48-.78s0,0,0,0,0,0,0,0v0S37.08,33.23,37.09,33.23Zm-.21,1.1a.08.08,0,0,1-.13,0A.09.09,0,0,1,36.88,34.33Zm-.27-.2,0,0s0,0,0,0,0,0,0,0S36.6,34.13,36.61,34.13Zm-.32.43,0,0s0,0,0,0a0,0,0,0,1,0,0S36.28,34.58,36.29,34.56Zm0,.41a0,0,0,0,0,0,0s0,0,.11,0l0,.06s0,0,0,0S36.27,35,36.27,35Zm-.43.42v0s0,0,0,0,0,0,0,0S35.82,35.39,35.84,35.39Zm-.34-.94a.08.08,0,0,1-.13,0A.09.09,0,0,1,35.5,34.45Zm-.57,1h0v0s0,0,0,0,0,0,0,0Zm.06.06,0,0s0,0,0,0,0,0,0,0Zm.41.24v0s0,0,0,0h0S35.43,35.79,35.4,35.8Zm.24,1.62h0c-.06,0,0-.1,0-.15s.06,0,.08,0a.09.09,0,0,1,0,.08S35.68,37.4,35.64,37.42ZM34,35h0s0,0,0,0v0S33.94,35,34,35Zm14.2-17.09v0s0,0,0,0v0S48.16,18,48.17,17.94ZM48,18c0,.05-.08.05-.13,0A.09.09,0,0,1,48,18Zm-1,.58s0,0,0,0l0,0,0,0S47,18.51,47,18.53Zm0-.05s0,0,0,0,0,0,0,0h0a0,0,0,0,1,0,0S46.92,18.47,46.94,18.48Zm-.1,1.38s0,0,0,0,0,0,0,0l0,0,0,0s0,0,0,0S46.83,19.89,46.84,19.86Zm-1.47.71h0s0,0,0,0v0S45.34,20.58,45.37,20.57Zm-.36.12h0s0,0,0,0a0,0,0,0,1,0,0S45,20.7,45,20.69Zm-1.42,3,0,0s0,0,0,0h0S43.59,23.65,43.59,23.66Zm0-1.08a0,0,0,0,1,0,0s0,0,0,0h0S43.59,22.57,43.58,22.58Zm.13.77a0,0,0,0,1,0,0h0s0-.08,0-.1h0a0,0,0,0,1,0,0A0,0,0,0,1,43.71,23.35Zm.1-1.7h0s0,0,0,0l0,0S43.78,21.66,43.81,21.65Zm-.27.28s0,0,0,0,0,.06.09.05,0-.07.09-.05a0,0,0,0,1,0,0v0h-.1s0,0,0,0a.08.08,0,0,1-.09,0A.06.06,0,0,1,43.54,21.93Zm-.14,1.76v0s0,0,0,0,0,0,0,0S43.38,23.69,43.4,23.69Zm-.06.29a.08.08,0,0,1,.07,0l-.08.09s-.06-.06-.09-.09S43.31,24,43.34,24Zm-.4-.63,0,0,0,0s0,0,0,0,0,0,0,0,0,0,0-.05A0,0,0,0,1,42.94,23.35Zm0,.81H43c.06.05,0,.11,0,.16s0,0,0,0a.49.49,0,0,1,0-.11l-.07.06S42.86,24.2,42.91,24.16Zm-.18-.29,0,0s0,0,0,0,0,0,0,0S42.72,23.87,42.73,23.87Zm0,.6v0s0,0,0,0,0,0,0,0S42.66,24.47,42.68,24.47ZM42.47,23s0,0,0,0,0,0,0,0,0,0,0,0Zm-.13,1.28a.08.08,0,0,1-.13,0A.09.09,0,0,1,42.34,24.31Zm-.42.67s0,0,0,0l0,0a0,0,0,0,1,0,0s0,.06,0,.05,0,0,0,0S41.91,25,41.92,25Zm-.21-.87h0s0,0,0,0v0S41.68,24.12,41.71,24.11Zm0,1.32s0,0,0,0,0,0,0,0l0,0S41.7,25.43,41.71,25.43Zm-.12-.49a.07.07,0,0,1,0,.12Q41.52,25,41.59,24.94Zm-1.33,1v0s0,0,0,0h0S40.29,26,40.26,26Zm.93-1.28,0,0,0,0c0,.06,0,.06,0,.12s-.06,0-.07,0S41.17,24.7,41.19,24.68Zm-.85.81v0s0,0,0,0,0,0,0,0S40.32,25.49,40.34,25.49Zm-.08.3s0,0,0,0l0,0s0,0,0,0S40.24,25.77,40.26,25.79Zm0-.05s0,0,0,0h0a0,0,0,0,1,0,0S40.2,25.73,40.22,25.74Zm-.13,1.19h0s0,0,0,0v0S40.06,26.94,40.09,26.93ZM39.53,26h0s0,0,0,0a0,0,0,0,1,0,0S39.52,26,39.53,26Zm.09.88a.11.11,0,0,1,.08,0V27c-.06,0-.08.05-.12,0l0,0-.05,0S39.58,26.87,39.62,26.86ZM38.09,29.1s0,0,0,0,0,0,0,0v0S38.08,29.12,38.09,29.1Zm-1.15.66h0s0,0,0,0v0S36.94,29.78,36.94,29.76Zm-.3.18s0,0,0,0h0s0,0,0,0l0,0h0S36.63,30,36.64,29.94Zm-.22-.2h.06c.05.06.05.06,0,.12h0C36.38,29.81,36.38,29.81,36.42,29.74Zm-.11.07,0,0s0,0,0,0,0,0,0,0S36.3,29.81,36.31,29.81Zm-.48.23a.07.07,0,0,1,0,.12S35.78,30.08,35.83,30Zm-.14.92h0s0,0,0,0l0,0S35.68,31,35.69,31Zm-.1-.37h0s0,0,0,0v0S35.56,30.6,35.59,30.59Zm-.23-.24v0s0,0,0,0,0,0,0,0S35.34,30.35,35.36,30.35Zm0,.75s0,0,0,0l0,0s0,0,0,0S35.3,31.12,35.32,31.1Zm0,0s0,0,0,0,0,0,0,0a0,0,0,0,1,0,0h0A0,0,0,0,1,35.27,31.14Zm-.17.35s0,0,0,0,0,0,0,0,0,0,0,0ZM35,31s0,0,0,0l0,0a.23.23,0,0,1,0,.14,0,0,0,0,1,0,0A.71.71,0,0,1,35,31Zm-.06.19s0,0,0,0h0s0,0,0,0l.07.05s0,0-.05,0A.05.05,0,0,1,34.9,31.17Zm-.09,0,0,0s0,0,0,0,0,0,0,0S34.8,31.13,34.81,31.13Zm-.12.59s.06,0,.07,0,0,0,0,.06l0,0h0C34.64,31.78,34.64,31.78,34.69,31.72Zm-.11-.65v0s0,0,0,0,0,0,0,0S34.56,31.07,34.58,31.07Zm-.93,2.23h0s0,0,0,0l0,0S33.64,33.32,33.65,33.3Zm-.18-1h0s0,0,0,0l0,0S33.46,32.36,33.47,32.34Zm-.52.29,0,0s0,0,0,0l0,0S32.94,32.63,33,32.63Zm-.13,1.43s0,0,0,0l0,0,0,0Zm.06-.24v0s0,0,0,0,0,0,0,0S32.91,33.81,32.88,33.82Zm.06-.6h0c0-.06,0-.06,0-.12H33C33,33.17,33,33.17,32.94,33.22Zm.06.12,0,0s0,0,0,0h0S33,33.33,33,33.34Zm.06.84s0,0,0,0l0,0,0,0Zm0-.47h0s0,0,0,0v0S33,33.72,33.07,33.71Zm.17.65a.14.14,0,0,1-.11,0s0,0,0,0l.09-.09s.06,0,.07,0A.06.06,0,0,1,33.24,34.36Zm.09-.63s0-.06,0-.07,0,0,0,0l.06.06C33.41,33.78,33.37,33.78,33.33,33.73Zm.18.31,0,0s0,0,0,0h0S33.51,34,33.51,34Zm-.94-.74h.1s0,0,0,0a.06.06,0,0,1-.1,0Zm-.16,1.25,0,0s0,0,0,0v0S32.4,34.55,32.41,34.55Zm-.2-.72s0,0,0,0v0s-.06,0-.1,0a.05.05,0,0,1-.07,0l.06-.06A.06.06,0,0,1,32.21,33.83Zm0-.72h0s0,0,0,0v0S32.14,33.12,32.17,33.11Zm-.12.17h.11l0,0,0,0h-.11l0,0Zm-.08,1h0s0,0,0,0v0S32,34.28,32,34.26Zm-.06-2s0,0,0,0,0,0,0,0l0,0S31.9,32.3,31.91,32.28Zm-.1.41h0s0,0,0,0v0S31.78,32.7,31.81,32.69Zm-.27-.17h0s0,0,0,0v0S31.54,32.54,31.54,32.52ZM41.61,11.17s0-.06,0-.07,0,0,0,0,0,0,.06.06S41.65,11.22,41.61,11.17Zm.63.63v0s0,0,0,0h0S42.27,11.79,42.24,11.8Zm1.23,1.3,0,0s0,0,0,0h0S43.47,13.09,43.47,13.1Zm.69-.28,0,0s0,0,0,0h0S44.19,12.81,44.16,12.82Zm.26.82v0s0,0,0,0h0S44.43,13.63,44.42,13.64Zm.06-.48v0s0,0,0,0h0S44.49,13.15,44.48,13.16Zm.64.62v0s0,0,0,0h0S45.15,13.77,45.12,13.78Zm.12,1.32v0s0,0,0,0h0S45.27,15.09,45.24,15.1Zm-9-5.82h0l0,0,0,0h0s0,0,0,0S36.31,9.28,36.27,9.28Zm1.23.55s0,0,0,0l0,0s0,0,0,0Zm0,.44v0h0a0,0,0,0,1,0,0s0,0,0,0S37.54,10.26,37.53,10.27Zm.11,0h-.1c0-.06,0-.07.09-.05a0,0,0,0,1,0,0ZM39.2,12.5v0s0,0,0,0h0S39.21,12.49,39.2,12.5Zm.19.6,0,0s0,0,0,0-.07,0-.06,0,0,0,0,0h0Zm0-.18v0s0,0,0,0h0S39.39,12.91,39.38,12.92ZM43,15.05s0,0,0,0l0,0s0,0,0,0Zm0,.6,0,0s0,0,0,0,0,0,0,0S43,15.65,43,15.65Zm-2-.55v0s0,0,0,0h0S41,15.09,41,15.1Zm1,.78h0c-.05-.06-.05-.06,0-.12h0C42.05,15.83,42.05,15.83,42,15.88Zm.33-.62-.09.08c-.09,0-.09,0-.08-.09l.08-.09C42.34,15.17,42.34,15.17,42.33,15.26Zm.33,1.15s0,0,0,0,0,0,0,0v0S42.67,16.42,42.66,16.41Zm.09-1.21,0,0h0s-.07,0-.06,0,0,0,0,0h0ZM43,16.36a.4.4,0,0,1-.11,0s0,0,0,0H43l.07-.05C43.06,16.31,43.06,16.31,43,16.36Zm.49.91h0s0,0,0,0v0S43.48,17.28,43.51,17.27Zm.39-.89h0s0,0,0,0a0,0,0,0,1,0,0S43.9,16.4,43.9,16.38Zm-.4,0s0,0,0,0,0,0,0,0,0,0,0,0Zm-.07-.47h0s0,0,0,0l0,0S43.42,15.92,43.43,15.9Zm.19,1.66,0,0s0,0,0,0,0,0,0,0S43.65,17.55,43.62,17.56ZM43.77,19l0,0s0,0,0,0,0,0,0,0S43.77,19,43.77,19Zm1.95-3.29s0,0,0,0,0,0,0,0v0S45.73,15.76,45.72,15.75Zm-.2.33h0s0,0,0,0v0S45.52,16.1,45.52,16.08Zm-.27.17s0,0,0,0,0,0,0,0l0,0S45.22,16.26,45.25,16.25Zm-.13.06s0,0,0,0l0,0s0,0,0,0Zm-.54,2.15s0,0,0,0l0,0s0,0,0,0-.07,0-.06,0,0,0,0,0Zm0-.88a0,0,0,0,1,0,0,.06.06,0,0,1-.1,0s0,0,0,0A.07.07,0,0,1,44.54,17.58Zm0-.28,0,0s0,0,0,0h0S44.49,17.29,44.49,17.3ZM43,18.82s.07,0,.08,0,0,0,0,.06a0,0,0,0,1,0,0l0,0A.08.08,0,0,1,43,18.82Zm-.08,0s-.08,0-.13,0A.09.09,0,0,1,42.94,18.85ZM30.15,8.24l0,0s0,0,0,0,0,0,0,0S30.15,8.23,30.15,8.24ZM31,8.3l0,0s0,0,0,0h0S31,8.29,31,8.3Zm.51.86h-.17s0,0,0,0,0,0,.05,0h0L31.44,9l.09.09S31.51,9.16,31.5,9.16Zm.37.54h0v0s0,0,0,0,0,0,0,0S31.88,9.71,31.87,9.7Zm.06.06,0,0s0,0,0,0l0,0Zm.2.28,0,0s0,0,0,0h0S32.13,10,32.13,10Zm.23-.24a.06.06,0,0,1-.1,0,0,0,0,0,1,0,0h.1S32.37,9.8,32.36,9.8Zm.75-.32h0s0,0,0,0l0,0S33.1,9.5,33.11,9.48Zm-.64.45s0,0,0,0v0s0,0,0,0S32.48,9.93,32.47,9.93Zm0-.48s0,0,0,0v0s0,0,0,0S32.48,9.45,32.47,9.45Zm.17.42s0,0,0,0,0,0,0,0l0,0S32.65,9.88,32.64,9.87Zm.08,1v0s0,0,0,0h0S32.73,10.81,32.72,10.82Zm.36-1v0s0,0,0,0h0S33.09,9.85,33.08,9.86Zm.1.85a.71.71,0,0,1-.09-.07s.07-.05.1,0a.71.71,0,0,1,.09.07S33.21,10.74,33.18,10.71Zm.18-.24s0,0,0,0,0,0,0,0l0,0S33.37,10.48,33.36,10.47Zm.14-.24h0s0-.07,0-.09h0S33.53,10.21,33.5,10.23ZM34,11.57v0s0,0,0,0,0,0,0,0S34,11.57,34,11.57Zm-.08.77v0s0,0,0,0h0S34,12.33,34,12.34Zm.25.3,0,0a0,0,0,0,1,0,0h-.09L34,12.5a0,0,0,0,1,0-.05s0,0,0,0l.17.17h0l0,0Zm.14-.45a.09.09,0,0,1,.13,0C34.43,12.24,34.4,12.24,34.35,12.19Zm6.56,5.57a0,0,0,0,0,0,0s0,0,0,0v0S40.9,17.78,40.91,17.76Zm-6-6.31,0,0s0,0,0,0,0,0,0,0S34.86,11.45,34.87,11.45Zm0,1.23,0,0s0,0,0,0-.07,0-.06,0,0,0,0,0h0Zm0-.42s0,0,0,0a.07.07,0,0,1,.1,0v0A.07.07,0,0,1,34.85,12.26Zm.09.72v0s0,0,0,0l0,0S35,13,34.94,13Zm.64,0s0,0-.07,0,0,0,0,0,0,0,.06-.06S35.63,13,35.58,13ZM39,17.36l0,0s0,0,0,0h0S39,17.35,39,17.36Zm.11-1.49s0,0,0,0a.06.06,0,0,1,0-.09h0A.06.06,0,0,1,39.08,15.87Zm1,1.2s0,0,0,0,0,0,0,0l0,0S40.09,17.08,40.08,17.07Zm.25.13a.48.48,0,0,1-.12,0l0,0,.09-.09.07.08S40.35,17.19,40.33,17.2Zm.07.23s0,0,0,0,0-.07,0-.09h0S40.43,17.41,40.4,17.43Zm.43.88a0,0,0,0,1,0,0,0,0,0,0,1,0,0s0-.08,0-.1h0a0,0,0,0,1,0,0A0,0,0,0,1,40.83,18.31Zm.14.38s0-.05-.09-.05l0,0,0,0H41c.05,0,.07.06.1.1A.07.07,0,0,1,41,18.69Zm.19-.48s0,0,0,0,0,0,0,0l0,0S41.17,18.22,41.16,18.21Zm.09.65,0,0s0,0,0,0h0S41.25,18.85,41.25,18.86Zm.22,1.39s0,0,0,0v0s0,0,0,0S41.48,20.25,41.47,20.25Zm.24,1,0,0a.27.27,0,0,1,0-.09h-.15s0,0,0-.07a.19.19,0,0,0,0-.08s0,0,0,0,.1,0,.1-.1l0,0s0,0,0,0a.13.13,0,0,1,0,.06v.2h.08s0,0,0,0Zm-.15-1.1s0,0,0,0h.11s0,0,0,0l-.08.08Zm.58-.42a0,0,0,0,1,0,0s0,0,0,0h0S42.15,19.69,42.14,19.7ZM27.1,9.19c-.06.05-.06.05-.13,0v0c.06-.05.06-.05.13,0Zm1.47.1s0,0,0,0,0,0,0,0l0,0S28.56,9.29,28.57,9.29Zm-1.36-.64a.09.09,0,0,1,.13,0A.08.08,0,0,1,27.21,8.65Zm.32-.16s0,0,0-.05,0,0,0,0,.08,0,.13,0-.05,0-.06.05S27.55,8.5,27.53,8.49Zm.14.12s0,0,0,0l0,0s0,0,0,0S27.68,8.61,27.67,8.61Zm.07.18s0,0,0,0l0,0s0,0,0,0Zm0,.24s0,0,0,0,0,0,0,0l0,0S27.79,9,27.78,9Zm.14,1.08s0,0,0,0l0,0s0,0,0,0Zm.19-.13,0,0h0S28,10,28,10s0,0,.05,0h0Zm.49.35,0,0h0c0-.06,0-.06,0-.12s.06,0,.07,0S28.62,10.31,28.6,10.33Zm.16-.29v0s0,0,0,0h0S28.77,10,28.76,10Zm.34-.16v0s0,0,0,0h0S29.13,9.87,29.1,9.88Zm.45,1.84,0,0s0,0,0,0h0S29.55,11.71,29.55,11.72Zm-.12-.25a.09.09,0,0,1,.13,0A.08.08,0,0,1,29.43,11.47Zm.13-.33s0,.06,0,0,0,0,0,0,0,0,0,0,0,0,0,0l0,0A0,0,0,0,1,29.56,11.14Zm.16,0a.06.06,0,0,1-.1,0v0h.1S29.73,11.18,29.72,11.18Zm.06.24v0s0,0,0,0h0S29.79,11.41,29.78,11.42Zm.18.72a.06.06,0,0,1-.1,0v0H30S30,12.14,30,12.14Zm.06-.42v0s0,0,0,0h0S30,11.71,30,11.72Zm.13.54,0,0s0,0,0,0h0S30.15,12.25,30.15,12.26Zm.72-.24,0,0s0,0,0,0h0S30.87,12,30.87,12Zm.18-.24,0,0s0,0,0,0h0S31.05,11.77,31.05,11.78Zm.42.54,0,0h0s-.07,0-.06,0,0,0,.05,0h0Zm.35.84v0s0,0,0,0,0,0,0,0S31.83,13.15,31.82,13.16Zm.88.87s0,0,0,0l0,0s0,0,0,0Zm-.29-.48,0,0s0,0,0,0,0,0,0,0S32.4,13.55,32.41,13.55Zm0,1v0h0a0,0,0,0,1,0,0s0,0,0,0S32.44,14.58,32.43,14.59Zm.15,0h-.15a.05.05,0,0,1,0-.05s.07,0,.09,0l-.06-.07,0-.07h.06s0,0,0,0a1,1,0,0,1,0,.17Zm.12.54L32.62,15a.08.08,0,0,1,0-.1l.08.09A.07.07,0,0,1,32.7,15.1Zm.36-.31s0,0,0,0,0,0,0,0l0,0S33.07,14.8,33.06,14.79Zm.18,0a.08.08,0,0,1,0-.12l.09.09C33.32,14.82,33.28,14.8,33.24,14.8Zm.39-.44,0,0h0s-.07,0-.06,0,0,0,0,0h0Zm1.77,2.12v0s0,0,0,0h0S35.43,16.47,35.4,16.48ZM35.55,18a.09.09,0,0,1,.13,0A.08.08,0,0,1,35.55,18Zm1.23,1.17h-.05a0,0,0,0,1,0,0,.2.2,0,0,1,0-.13s0,0,.08,0l.06-.05c.07,0,0,.1,0,.14Zm.21-.87a.09.09,0,0,1,.13,0A.08.08,0,0,1,37,18.25Zm.77.37v0s0,0,0,0,0,0,0,0S37.77,18.61,37.76,18.62Zm.32,1.62v0h0a0,0,0,0,1,0,0h0s0,0,0,0A.06.06,0,0,1,38.08,20.24Zm.09.44q-.08-.06,0-.12A.08.08,0,0,1,38.17,20.68ZM39,21s0,0,0,0,0,0,0,0l0,0S39,21,39,21Zm.45,1.37,0,0s0,0,0,0h0S39.45,22.33,39.45,22.34Zm.3-.54,0,0h0s-.07,0-.06,0,0,0,0,0h0S39.75,21.79,39.75,21.8Zm.09.49s0,0,0,0,0,0,0,0l0,0S39.85,22.3,39.84,22.29Zm.63-.8a0,0,0,0,1,0,0h0s0-.08,0-.1h0a0,0,0,0,1,0,0A0,0,0,0,1,40.47,21.49Zm0-.45h0v0s0,0,0,0,0,0,0,0S40.52,21.05,40.51,21Zm.12.12a.27.27,0,0,1-.1-.12h.09C40.67,21.09,40.67,21.1,40.63,21.16Zm-.12-.6a.07.07,0,0,1,0,.12S40.46,20.6,40.51,20.56Zm-.07.55c.05,0,0,.05,0,.09a.08.08,0,0,1-.12,0Zm-.23.9a0,0,0,0,1,0,0h0s0,0,0,0a.07.07,0,0,1-.1,0v0Zm-1.12.21,0,0h0c0,.06,0,.06,0,.11s-.06,0-.07,0S39.07,22.24,39.09,22.22Zm-.2,1H39c0,.06,0,.06,0,.12h-.11C38.84,23.26,38.84,23.26,38.89,23.2Zm-.12.72h.17l0,0s0,0,0,0h-.17l0,0S38.75,23.94,38.77,23.92Zm-.48.31h0s0,0,0,0v0S38.26,24.24,38.29,24.23Zm-.18.72h0s0,0,0,0v0S38.08,25,38.11,25ZM23.85,10.46l0,0s0,0,0,0h0S23.85,10.45,23.85,10.46Zm.24.65a.09.09,0,0,1,.13,0C24.17,11.16,24.14,11.16,24.09,11.11Zm.65-.41a0,0,0,0,1,0,0s0,0,0,0h0S24.75,10.69,24.74,10.7Zm.18-.18v0s0,0,0,0h0S24.93,10.51,24.92,10.52Zm.19.11v0h0a0,0,0,0,1,0,0s0,0,0,0S25.12,10.62,25.11,10.63Zm0,0s0,0,0,0l0,0,0,0Zm.32,1h0a.06.06,0,0,1,0-.09h0A.06.06,0,0,1,25.46,11.61Zm.19-.61a0,0,0,0,1,0,0h0c-.05,0-.05,0,0-.11l.06.05Zm.21.92h-.05c-.06,0,0-.1,0-.15s.06,0,.08,0a.09.09,0,0,1,0,.08S25.9,11.9,25.86,11.92Zm.24-.67s0,0,0,0,0,0,0,0v0S26.11,11.26,26.1,11.25Zm.21,2,0,0s0,0,0,0h0S26.31,13.21,26.31,13.22Zm.48.56h0l0,0,0,0h0s0,0,.05,0S26.83,13.78,26.79,13.78Zm.15-1s0,0,0,0,0,0,0,0l0,0S27,12.76,26.94,12.75Zm.82,1.09s0,.06,0,.05,0,0,0,0,0,0,0,0,0,0,0,0l0,0A0,0,0,0,1,27.76,13.84Zm.28.46v0s0,0,0,0h0S28.05,14.29,28,14.3Zm.6-.23s0,0,0,0,0,0,0,0,0,0,0,0Zm.23.07h0v0s0,0,0,0,0,0,0,0Zm.06.06,0,0s0,0,0,0l0,0Zm1.45,2.08a.07.07,0,0,1-.1,0,0,0,0,0,1,0,0h0a0,0,0,0,1,.05,0h0S30.39,16.28,30.38,16.28Zm1.21,2.22a.06.06,0,0,1-.1,0s0,0,0,0a.07.07,0,0,1,.1,0A0,0,0,0,1,31.59,18.5Zm.93.43s0,0,0,0,0,0,0,0l0,0S32.53,18.94,32.52,18.93Zm.3-.59v0s0,0,0,0h0S32.85,18.33,32.82,18.34Zm.48,1.2a0,0,0,0,1,0,0s0,0,0,0h0S33.33,19.53,33.3,19.54Zm.3.11s0,0,0,0,0,0,0,0l0,0S33.61,19.66,33.6,19.65Zm.24,1.2s0,0,0,0,0,0,0,0v0S33.85,20.86,33.84,20.85Zm2.22.67a0,0,0,0,1,0,0s0,0,0,0h0S36.09,21.51,36.06,21.52Zm.25,1.55s0,0,0-.05a0,0,0,0,1,0,0l0,0s0,0,0,0,0,0,0,0S36.34,23.06,36.31,23.07Zm.5,0,0,0s0,0,0,0,0,0,0,0S36.81,23.05,36.81,23.06Zm.47,1.14a0,0,0,0,1,0,0s0,0,0,0l0,0S37.29,24.19,37.28,24.2Zm.31,1.2-.09.08-.08-.08v-.06l.08-.09c.06,0,.07.06.11.08Zm0-1.24v0s0,0,0,0h0S37.65,24.15,37.62,24.16ZM37,23.93h0s0,0,0,0l0,0S36.94,23.94,37,23.93Zm.65-.55a.4.4,0,0,1-.11,0l-.07.06h0c0-.06,0-.06,0-.12h.23a0,0,0,0,1,0,0Zm-15-11.25s0,.07,0,.08,0,0-.06,0l0,0v0C22.6,12.09,22.6,12.09,22.66,12.13ZM22,11.34h0s0,0,0,0v0S22,11.36,22,11.34Zm-.21.21s0,0,0,0,0,0,0,0,0,0,0,0ZM22,13.29s0,0,0,0,0,0,0,0v0S22,13.3,22,13.29Zm.18-.41H22L22,12.82a.06.06,0,0,1,0-.07s0,0,0-.05h.12s0,.05.06.07a.06.06,0,0,1,0,.07S22.15,12.87,22.14,12.88Zm.18.72,0,0,0,0-.06-.06a.07.07,0,0,1,0-.07s0,0,0,0h.12C22.37,13.55,22.37,13.56,22.32,13.6Zm.31.11s0,0,0,0,0,0,0,0,0,0,0,0Zm.05-.47h-.11c-.05-.06-.05-.06,0-.12h.11C22.73,13.18,22.73,13.18,22.68,13.24Zm.13-.12,0,0a0,0,0,0,1,0,0c-.05,0-.07,0-.05-.09l0,0h0v0a.25.25,0,0,1,0,.08h0l0,0Zm5.55,5.37,0,0s0,0,0,0,0,0,0,0,0,0,0,0,0,0,0-.05A0,0,0,0,1,28.36,18.49Zm-4.1-3.89v0s0,0,0,0h0S24.27,14.59,24.26,14.6Zm.37.77a.09.09,0,0,1,.13,0C24.71,15.42,24.68,15.42,24.63,15.37Zm.64.5s0,0,0,0l0,0s0,0,0,0Zm.17-.29,0,0s0,0,0,0h0S25.47,15.57,25.44,15.58Zm.19-.24h-.06l-.07.06h-.05l-.06-.05s0,0,0,0,0,0,.05,0h.09l.07-.06h.05C25.67,15.28,25.67,15.28,25.63,15.34Zm.07,1.12v0s0,0,0,0v0S25.71,16.45,25.7,16.46Zm.24-.12a0,0,0,0,1,0,0s0,0,0,0h0S26,16.33,25.94,16.34Zm0-.22s0,.06,0,.05,0,0,0,0,0,0,0,0,0,0,0,0l0,0S26,16.11,26,16.12Zm.7,1.62-.06,0s0,0,0-.05,0,0,.05,0h0C26.69,17.68,26.69,17.68,26.65,17.74Zm.08-.56,0,0s0,0,0,0-.07,0-.06,0,0,0,.05,0h0Zm.53,1.09s0,0,0,0a.06.06,0,0,1,0-.09h0A.06.06,0,0,1,27.26,18.27Zm.07-.37s0,0,0,.07a.15.15,0,0,1,0,.08l-.08-.1s.07-.05.08-.09h.06A0,0,0,0,1,27.33,17.9Zm.33.87-.05-.07-.06.07c-.05-.07-.05-.07,0-.13h.11C27.7,18.7,27.7,18.7,27.66,18.77Zm.78.35h-.05c-.05-.06-.05-.06,0-.12h.06C28.48,19.07,28.48,19.07,28.44,19.12Zm.3-.24v0s0,0,0,0h0S28.77,18.87,28.74,18.88Zm.66,1.85s0,0,0,0,0,0,0,0l0,0S29.41,20.74,29.4,20.73Zm.81-.5c-.05.05-.05.05-.11,0v-.05c0-.05,0-.05.11,0Zm.29,1s0,0,0,0,0,0,0,0,0,0,0,0Zm.23-.53h0v0s0,0,0,0,0,0,0,0S30.74,20.75,30.73,20.74Zm.05,0,0,0,0,0s0,0,0,0S30.76,20.73,30.78,20.75Zm0,.88s0,0,0,0,0,0,0,0l0,0S30.79,21.64,30.78,21.63Zm.75-.85,0,0h0s-.07,0-.06,0,0,0,0,0,0,0,0,0S31.53,20.77,31.53,20.78Zm.69,1.93s0,0,0,0,0,0,0,0l0,0S32.23,22.72,32.22,22.71Zm-.06-1.07s0-.05,0-.1l.06,0,0,0s0,0,0,.05,0,0,0,0l.06.05S32.27,21.65,32.16,21.64Zm.3,1.86,0,0s0,0,0,0h0S32.49,23.49,32.46,23.5Zm0-1.08a.08.08,0,0,1,0-.12S32.51,22.38,32.46,22.42Zm1.07,1.46s0,0,0,0,0,0,0,0v0S33.52,23.9,33.53,23.88Zm-.41-.49s0,0,0,0,0,0,0,0,0,0,0,0Zm-.29-1.2h0s0,0,0,0a0,0,0,0,1,0,0S32.8,22.2,32.83,22.19Zm0,1.66s0,0,0,0,0,0,0,0l0,0S32.83,23.86,32.82,23.85Zm.18-.24s0,0,0,0,0,0,0,0l0,0S33,23.62,33,23.61Zm.18.49h-.06L33,24s0,0,0,0h.06l.08.09S33.21,24.1,33.18,24.1Zm.21.58a.06.06,0,0,1-.1,0s0,0,0,0a.07.07,0,0,1,.1,0Zm.16,0h0v0s0,0,0,0,0,0,0,0S33.56,24.71,33.55,24.7Zm.06.06,0,0s0,0,0,0l0,0Zm.18-1.56h-.14l-.06-.08s0,0,0,0h.19C33.83,23.14,33.83,23.14,33.79,23.2ZM34,24.88H33.9c0-.06,0-.06,0-.12H34C34,24.83,34,24.83,34,24.88Zm.56.22v0s0,0,0,0,0,0,0,0S34.53,25.09,34.52,25.1Zm.13-.18,0,0s0,0,0,0,0,0,0,0S34.65,24.91,34.65,24.92Zm.45,2.53,0,0s0,0,0,0l0,0S35.11,27.46,35.1,27.45Zm.74-1.62h0a0,0,0,0,1,0,0s0,0,0,0,0,0,0,0A0,0,0,0,1,35.84,25.83Zm.76-1.31.09.09v.12c0,.06-.09,0-.13,0s-.08-.06-.09-.09Zm-.17.49s0,0,0,0,0,0,0,0l0,0S36.4,25,36.43,25Zm0,1.25c0,.08,0,.14,0,.19l-.06-.07s0-.06,0-.12Zm-.14-1.14s0,.08,0,.12A.08.08,0,0,1,36.24,25.12Zm-.33,2.07s0,0,0,0,0,0,0,0,0,0,0,0Zm0-1.44s0,0,0,0,0,0,0,0,0,0,0,0Zm-.58-.91h0s0,0,0,0l0,0S35.32,24.86,35.33,24.84Zm-.46.77,0,0s0,0,0,0l0,0S34.86,25.61,34.87,25.61Zm.24.29s0,0,0,0l0,0s0,0,0,0A0,0,0,0,1,35.11,25.9Zm-.6,2.53h0s0,0,0,0v0S34.48,28.44,34.51,28.43Zm-.24-.18s0,0,0,0,0,0,0,0l0,0S34.24,28.26,34.27,28.25ZM17.38,12.55c-.06,0-.06,0-.13,0l.07-.06s0,0,0,0a.06.06,0,0,1,0,0S17.38,12.54,17.38,12.55Zm.5,1s0,0,0,0,0,0,0,0l0,0S17.89,13.54,17.88,13.53Zm2.63,1.29,0,0s0,0,0,0v0S20.5,14.84,20.51,14.82Zm.08.22s0,.05.06.06,0,0,0,0,0,0,0,0h0l-.06.07,0-.07C20.51,15.1,20.56,15.08,20.59,15Zm-1.8-2.33,0,0s0,0,0,0,0,0,0,0S18.78,12.71,18.79,12.71Zm.08.74c-.06,0-.06,0-.11,0v-.06c.06,0,.06,0,.11,0Zm1.71,2.67h-.07c-.07,0-.07,0-.08-.11a.51.51,0,0,1,.25,0Zm.39.12s0,0,0,0l0,0,0,0h0s0,0,.05,0S21,16.24,21,16.24Zm.12-.68,0,0s0,0,0,0h0S21.09,15.55,21.09,15.56Zm.15.14,0,0s0,0,0,0h0S21.27,15.69,21.24,15.7Zm.1-.81a.07.07,0,0,1-.08,0s-.08,0-.1,0a.4.4,0,0,1,0-.11,0,0,0,0,1,0,0s0,0,0,0l.05,0s0,0,.05,0Zm.44.57,0,0s0,0,0,0h0S21.81,15.45,21.78,15.46Zm.27.34a.07.07,0,0,1-.1,0s0,0,0,0a.07.07,0,0,1,.1,0A0,0,0,0,1,22.05,15.8Zm1,1.87s0,0,0-.05a0,0,0,0,1,0,0l0,0s0,0,0,0,0,0,0,0S23.08,17.66,23.05,17.67Zm.47.25a0,0,0,0,1,0,0s0,0,0,0h0S23.55,17.91,23.52,17.92Zm1.44.67s0,0,0,0l0,0s0,0,0,0S25,18.6,25,18.59Zm-1.08-1s0,0,0,0,0,0,0,0l0,0S23.89,17.56,23.88,17.55ZM24.3,20v0s0,0,0,0h0S24.33,20,24.3,20Zm.14-.14v0s0,0,0,0l0,0S24.45,19.81,24.44,19.82Zm.62.39s0,.05,0,.09l-.09.08h-.19l0-.09s0,0,.05,0h.05c0-.06.11,0,.14-.09l.05,0S25.06,20.18,25.06,20.21Zm0-.92c-.06,0-.11,0-.18,0l.07-.09s0-.07,0-.08l.09.08S25.13,19.28,25.1,19.29Zm.17-.35s0,0-.06.07-.05-.09,0-.13.05,0,.07,0S25.28,18.93,25.27,18.94Zm.38,1.72,0,0s0,0,0,0h0S25.65,20.65,25.65,20.66Zm.11-.9c-.05,0,0,.1-.07.15l0,0-.06-.07s0,0,0,0a.34.34,0,0,0,.06-.06h.06S25.78,19.76,25.76,19.76Zm0-.17s0,0-.07,0-.06,0-.08-.05a.3.3,0,0,1,.16,0,.06.06,0,0,1,0,.08S25.75,19.6,25.74,19.59Zm.07.78s0,0,0,0,0,0,0,0,0,0,0,0Zm.15-.08,0,0h0c0-.06,0-.06,0-.12s.06,0,.07,0S26,20.27,26,20.29Zm.22-.41a0,0,0,0,1,0,0s0,0,0,0h0S26.19,19.87,26.18,19.88Zm3.63,4.06h0s0,0,0,0v0S29.8,24,29.81,23.94Zm-1.92-1.8h0s0,0,0,0l0,0S27.88,22.16,27.89,22.14Zm-1.43-1.75s0,0,0,0v0s0,0,0,0S26.45,20.4,26.46,20.39Zm-.05.54,0,0s0,0,0,0,0,0,0,0S26.4,20.93,26.41,20.93Zm.06,1h-.06c0-.05,0-.05,0-.12h.06C26.51,21.88,26.51,21.88,26.47,21.94Zm.18-.84h-.06c0-.05,0-.05,0-.12h.05C26.69,21,26.69,21,26.65,21.1Zm.23,1.19s0,0,0,0,0,0,0,0l0,0S26.89,22.3,26.88,22.29Zm.08.35v0s0,0,0,0v0S27,22.63,27,22.64ZM27.07,21s0,0,0,0l0,0s0,0,0,0Zm.18-.16h0s0,0,0,0l0,0S27.22,20.82,27.25,20.81Zm0,.13s0,0,.05,0h0l.05-.06c.07.05,0,.11,0,.15s-.06,0-.1,0L27.25,21S27.22,21,27.22,20.94Zm.28,2c-.05,0-.09,0-.13.06s-.07,0-.09,0v0s0,0,.05,0h.16S27.52,22.94,27.5,23Zm0-.39h0s0,0,0,0a0,0,0,0,1,0,0S27.46,22.58,27.47,22.56Zm.12.15v0s0,0,0,0,0,0,0,0S27.61,22.72,27.59,22.71Zm.09-.66c-.05,0-.1,0-.14,0L27.46,22l0,0a1.15,1.15,0,0,1,.18,0c.05,0,0,.06,0,.09Zm.13.24a.13.13,0,0,1,0,.06s0,0,0,0a.76.76,0,0,1,0,.15l0,0s0,0,0,0a.23.23,0,0,1,0-.14s0,0,.05,0a.21.21,0,0,1,0-.08,0,0,0,0,1,0,0S27.82,22.28,27.81,22.29Zm.12.1v0h0a0,0,0,0,1,0,0s0,0,0,0S27.94,22.38,27.93,22.39Zm0,0s0,0,0,0,0,0,0,0l0,0Zm.26-.62v0s0,0,0,0,0,0,0,0S28.23,21.73,28.22,21.74Zm0,1.51s0,0,0,0,0,0,0,0l0,0S28.27,23.26,28.26,23.25Zm.18-.71a1,1,0,0,1-.17,0s0,0,0,0h.08l.05-.06h.07C28.49,22.49,28.49,22.49,28.44,22.54Zm.24,1.79s0,0,0,0,0,0,0,0v0S28.69,24.34,28.68,24.33Zm.07-1.72,0,0s0,0,0,0,0,0,0,0S28.74,22.61,28.75,22.61Zm0,1.28v0h0a0,0,0,0,1,0,0s0,0,0,0S28.78,23.88,28.77,23.89Zm.06-.1a.13.13,0,0,1,0,.06s0,0-.05,0a.25.25,0,0,1,0-.08,0,0,0,0,1,0,0S28.84,23.78,28.83,23.79Zm.18-.07,0,0s0,0,0,0,0,0,0,0S29,23.71,29,23.72Zm.43-.48v0h0a0,0,0,0,1,.05,0h0s0,0,0,0A.06.06,0,0,1,29.44,23.24Zm.11,1.62,0,0s0,0,0,0h0S29.55,24.85,29.55,24.86Zm.27-.16h-.05c0-.05,0-.05,0-.12h.06C29.87,24.64,29.87,24.64,29.82,24.7ZM30,25s0,0,0,0,0,0,0,0,0,0,0,0Zm.21-.38c0,.05-.08.05-.13,0l.06-.06s0,0,.05,0,0,0,0,0S30.16,24.6,30.16,24.61Zm0-.14L30,24.38c0-.05.05,0,.09,0S30.16,24.42,30.13,24.47Zm.2.21,0,0s0,0,0,0h0S30.33,24.67,30.33,24.68Zm.09,1v0s0,0,0,0h0S30.45,25.65,30.42,25.66Zm.2.58a.06.06,0,0,1-.1,0v0h0a0,0,0,0,1,.05,0h0S30.63,26.24,30.62,26.24Zm-.05-.76h0l0,0s0,0,0,0h0s0,0,.05,0S30.61,25.48,30.57,25.48Zm.15-.07s0,0,0,0,0,0,0,0l0,0S30.73,25.42,30.72,25.41Zm1.74,2.71,0,0s0,0,0,0,0,0,0,0S32.49,28.11,32.46,28.12Zm0-.32v0s0,0,0,0h0S32.49,27.79,32.48,27.8Zm1.2-.57v0s0,0,0,0,0,0,0,0S33.66,27.23,33.68,27.23Zm-.32,1.91,0,0s0,0,0,0,0,0,0,0S33.39,29.13,33.36,29.14Zm.06-.37,0,0s0,0,0,0l0,0S33.43,28.78,33.42,28.77Zm.06-.29v0s0,0,0,0h0S33.51,28.47,33.48,28.48Zm-1,1.74s0,.05.07.06,0,0,0,0a0,0,0,0,1,0,0h0A.08.08,0,0,1,32.46,30.22Zm-.07-.28h0s0,0,0,0l0,0S32.38,30,32.39,29.94Zm-.53.82H32c.05.06.05.06,0,.12a1,1,0,0,1-.17,0l0,0Zm-.11-.35h0s0,0,0,0v0S31.72,30.42,31.75,30.41ZM10.83,19.76l0,0s0,0,0,0,0,0,0,0S10.83,19.75,10.83,19.76Zm2.33-2.52a0,0,0,0,1,0,0s0,0,0,0h0S13.17,17.23,13.16,17.24Zm.08-.43s0,0-.05,0a0,0,0,0,1,0,0,.4.4,0,0,1,0-.11v0s0,0,.05,0Zm0,.21v0s0,0,0,0h0S13.29,17,13.26,17Zm.42-.6-.08-.08a.08.08,0,0,1,0-.1l.08.09A.07.07,0,0,1,13.68,16.42Zm.18-.13s0,0,0,0,0,0,0,0v0S13.87,16.3,13.86,16.29Zm.36-.29,0,0s0,0,0,0h0S14.25,16,14.22,16Zm1-.39v0h0a0,0,0,0,1,0,0s0,0,0,0S15.22,15.6,15.21,15.61Zm0,0s0,0,0,0l0,0,0,0Zm.1-1.41a.08.08,0,0,1-.13,0A.09.09,0,0,1,15.34,14.17Zm-.33.34,0,0s0,0,0,0,0,0,0,0S15,14.51,15,14.51Zm.92-.75,0,0s0,0,0,0h0S15.93,13.75,15.93,13.76ZM16.1,16v0s0,0,0,0,0,0,0,0S16.11,16,16.1,16ZM8.78,25.4a.07.07,0,0,1-.1,0v0h0a0,0,0,0,1,0,0h0S8.79,25.4,8.78,25.4Zm1.91-2.55h0s0,0,0,0a0,0,0,0,1,0,0S10.66,22.86,10.69,22.85Zm0,.24,0,0s0,0,0,0,0,0,0,0S10.68,23.09,10.69,23.09ZM9,25.88a0,0,0,0,1,0,0s0,0,0,0h0S9,25.87,9,25.88Zm0-.1-.09-.09s.08,0,.13,0S9.05,25.77,9,25.78Zm.2-.62a0,0,0,0,1,0,0s0,0,0,0h0S9.21,25.15,9.2,25.16Zm.88-1.78a.41.41,0,0,1-.11,0l0,0,.08-.09.09.09S10.1,23.37,10.08,23.38Zm.25.78-.06-.05s0,0,0-.05,0,0,0,0,0,0,0,0S10.36,24.1,10.33,24.16Zm.14-.87a.09.09,0,0,1,.13,0A.08.08,0,0,1,10.47,23.29Zm.21,1.16s0,0,0,0,0,0,0,0l0,0S10.69,24.46,10.68,24.45Zm0-.68a.09.09,0,0,1,.13,0A.08.08,0,0,1,10.65,23.77Zm.54-.77,0,0s0,0,0,0h0S11.19,23,11.19,23Zm0-.71s0,0,0,0,0,0,0,0l0,0S11.17,22.3,11.16,22.29Zm.06-.17,0,0s0,0,0,0,0,0,0,0S11.25,22.11,11.22,22.12ZM12.85,22h0s0,0,0,0v0S12.82,22,12.85,22Zm-.18-1.56s0,0,0,0,0,0,0,0l0,0S12.64,20.4,12.67,20.39Zm0,1.5,0,0s0,0,0,0,0,0,0,0S12.66,21.89,12.67,21.89Zm-1.15,1.6s0,0,0,0,0,0,0,0v0S11.53,23.5,11.52,23.49Zm.12-.54s0,0,0,0,0,0,0,0l0,0S11.65,23,11.64,23Zm.06-.65v0s0,0,0,0h0S11.73,22.29,11.7,22.3Zm.09.46,0,0s0,0,0,0,0,0,0,0S11.79,22.75,11.79,22.76ZM12,22a.09.09,0,0,1,.13,0A.08.08,0,0,1,12,22Zm.37.09s0,0,0,0a.71.71,0,0,1-.09.07s-.07,0-.1,0l.12-.12.05,0A.06.06,0,0,1,12.34,22.06Zm.51.23a.31.31,0,0,1-.19,0l0,0c.11,0,.19,0,.26,0Zm.37-1.21a.06.06,0,0,1-.1,0v0h0a0,0,0,0,1,0,0h0S13.23,21.08,13.22,21.08Zm0-.16a0,0,0,0,1,0,0s0,0,0,0h0S13.29,20.91,13.26,20.92Zm1.35-.44,0,.05s0,0-.05,0a.06.06,0,0,1,0-.05.25.25,0,0,0,0-.08c.05-.05.05-.05.11,0Zm1-2.4a0,0,0,0,1,0,0s0,0,0,0h0S15.57,18.07,15.56,18.08Zm.16.86,0,0s0,0,0,0,0,0,0,0S15.75,18.93,15.72,18.94Zm.44-2v0s0,0,0,0h0S16.17,16.93,16.16,16.94Zm.09,1v0s0,0,0,0,0,0,0,0S16.27,18,16.25,18Zm.28.34a.09.09,0,0,1,.13,0C16.61,18.36,16.58,18.36,16.53,18.31Zm.13-1.26s0,0,0,0l0,0s0,0,0,0S16.65,17.06,16.66,17.05Zm.11,1.15,0,0s0,0,0,0-.07,0-.06,0,0,0,.05,0,0,0,0,0Zm.16-.22s0,.05-.06.06h-.09a.06.06,0,0,1-.05,0s0,0,0-.05l.06-.06h.09s0,0,.05,0S16.94,18,16.93,18Zm.11-.24H17c0-.06,0-.06,0-.12h.06C17.09,17.69,17.09,17.69,17,17.74Zm-.41-2.09h0s0,0,0,0l0,0S16.6,15.66,16.63,15.65Zm-.12.48,0,0s0,0,0,0,0,0,0,0S16.5,16.13,16.51,16.13Zm1.14,1.43s0-.08,0-.12A.08.08,0,0,1,17.65,17.56Zm.23-1.27s0,0,0,0,0,0,0,0l0,0S17.89,16.3,17.88,16.29Zm.39,1.84a0,0,0,0,1,0,0,0,0,0,0,1,0,0,.06.06,0,0,1,0-.1h0v0A0,0,0,0,1,18.27,18.13ZM9.61,28.48h0s0,0,0,0,0,0-.06,0,0,0,0,0l0,0Zm.08.22,0,0s0,0,0,0-.07,0-.06,0,0,0,.05,0,0,0,0,0Zm.06.11a.09.09,0,0,1,.13,0A.08.08,0,0,1,9.75,28.81Zm.34-1a.34.34,0,0,0,.06.06s0,0,0,.05a0,0,0,0,1-.05,0h0Q10,27.84,10.09,27.76Zm0,1a.09.09,0,0,1,.13,0C10.13,28.8,10.1,28.8,10.05,28.75Zm.23-.41a0,0,0,0,1,0,0s0,0,0,0v0S10.29,28.33,10.28,28.34Zm.12-1.2v0s0,0,0,0h0S10.41,27.13,10.4,27.14Zm.14.05a.4.4,0,0,1,0-.11l0,0,.08.08-.08.09Zm.17.19,0,0s0,0,0,0-.07,0-.06,0,0,0,.05,0,0,0,0,0Zm.39-.76q.08.06,0,.12A.07.07,0,0,1,11.1,26.62Zm0,.58s0-.08,0-.09l.09.08S11.18,27.23,11.13,27.2Zm.21.2a0,0,0,0,1,0,0s0,0,0,0h0S11.37,27.39,11.34,27.4Zm.18-.07s0,0,0,0,0,0,0,0v0S11.53,27.34,11.52,27.33Zm.21-.79,0,0s0,0,0,0-.07,0-.06,0,0,0,.05,0,0,0,0,0Zm.36-.12,0,0s0,0,0,0,0,0,0,0S12.09,26.41,12.09,26.42Zm.53-.47s0,0,0,0,0,0-.06-.05.09-.05.13,0S12.65,25.93,12.62,26Zm.13-.32c-.06.05-.06.05-.11,0v-.06c.06,0,.06,0,.11,0Zm0-.81s-.08,0-.09,0l.09-.09A.08.08,0,0,1,12.73,24.82Zm.24-.18-.06-.05s0,0,0-.05,0,0,0,0,0,0,0,0S13,24.58,13,24.64Zm.17-.13s0,0,0,0,0,0,0,0l0,0S13.15,24.52,13.14,24.51Zm1.59-.37-.05.05a.13.13,0,0,1,0,.06s0,0,0,0l-.09-.08.07-.05v-.07s.08,0,.11,0Zm.53-.06a0,0,0,0,1,0,0s0,0,0,0h0S15.27,24.07,15.26,24.08Zm.08-1.39c-.06,0-.08,0-.12,0l0,0,0,0c0-.05.07,0,.11,0a.11.11,0,0,1,.08,0Zm.33.75-.07-.06s-.06,0-.09,0a.41.41,0,0,1,0-.1,0,0,0,0,1,0,0,0,0,0,0,1,0,0l.14.14Zm.45-.24s0,0,0,0l-.08.09H16a.32.32,0,0,1-.1-.1l0-.08h.16c0-.05,0-.06.06-.06s.05,0,.05.05S16.17,23.19,16.12,23.2Zm0-1s0,0,0,0a.4.4,0,0,1,0-.11l0,0,.09.09Zm.28-.72s0,0,0,0,0,0,0,0l0,0S16.39,21.46,16.38,21.45Zm2.54-2v0s0,0,0,0l0,0S18.93,19.45,18.92,19.46Zm-.1-.73c-.05.05-.08.05-.13,0A.09.09,0,0,1,18.82,18.73ZM8.38,34s0,.06,0,0,0,0,0,0,0,0,0,0l0,0,0,0A0,0,0,0,1,8.38,34Zm4.23-4.73,0,0s0,0,0,0,0,0,0,0S12.6,29.27,12.61,29.27ZM8.52,34.42l0,0s0,0,0,0h0S8.55,34.41,8.52,34.42Zm.33-.12s-.06,0-.1,0-.06,0-.07,0l.15-.15c.05,0,0,.1,0,.15l.05.06A0,0,0,0,1,8.85,34.3Zm.24.22,0,0H9s-.07,0-.06,0,0,0,0,0,0,0,0,0S9.09,34.51,9.09,34.52Zm.18-.06,0,0s0,0,0,0-.07,0-.06,0,0,0,.05,0h0ZM9.36,34h0c-.05-.06-.05-.06,0-.12h.06C9.4,34,9.4,34,9.36,34Zm.13-.85s0,0,0,0,0,0,0,0,0,0,0,0Zm0-.89v0s0,0,0,0h0S9.57,32.25,9.54,32.26Zm.27-.08,0,0s0,0,0,0h0S9.81,32.17,9.81,32.18Zm.51-.22v0s0,0,0,0h0S10.35,32,10.32,32Zm.68.28v0s0,0,0,0h0S11,32.23,11,32.24Zm.1-.17s0,0,0,0,0,0,0,0l0,0S11.11,32.08,11.1,32.07Zm1.09-.54s0,0,0,0l0,0s0,0,0,0S12.2,31.53,12.19,31.53Zm.29-1.73v0s0,0,0,0h0S12.51,29.79,12.48,29.8Zm.12.24c0-.06,0-.06,0-.12s.06,0,.07,0,0,0,0,.06l0,0Zm.15.94,0,0s0,0,0,0-.07,0-.06,0,0,0,0,0h0S12.75,31,12.75,31ZM13,29.49s0,0,0,0a0,0,0,0,1,0,0l0,0s0,0,0,0,0,0,0,0S13,29.48,13,29.49Zm.38.22v0h0a0,0,0,0,1,0,0s0,0,0,0S13.36,29.7,13.35,29.71Zm.11,0h0a.27.27,0,0,1-.09,0c0-.06,0-.07.1-.05a0,0,0,0,1,0,0A0,0,0,0,0,13.46,29.67Zm.12.41a0,0,0,0,1,0,0s0,0,0,0h0S13.59,30.07,13.58,30.08Zm.06-1.49a0,0,0,0,1-.05,0h0a.08.08,0,0,1,0-.12s0,.05.07.06S13.65,28.57,13.64,28.59Zm.28.24s0,0,0,0,0,0,0,0l0,0S13.93,28.84,13.92,28.83Zm.33-1.15,0,0s0,0,0,0h0S14.25,27.67,14.25,27.68Zm.33.92a0,0,0,0,1,0,0s0,0,0,0h0S14.61,28.59,14.58,28.6ZM14.8,28c-.06,0-.06,0-.12,0V28c.05-.05.05-.05.12,0Zm0-.34h0s0-.07,0-.09h0A.06.06,0,0,1,14.84,27.69Zm.23.25H15L15,28s0,0-.06,0h0a0,0,0,0,1,0,0l.14-.15h.07A.07.07,0,0,1,15.07,27.94Zm0-.24a1,1,0,0,1-.17,0l0,0,.08-.09h.07l.07.09S15.14,27.69,15.12,27.7Zm.48-.19s0,0,0,0,0,0,0,0l0,0S15.61,27.52,15.6,27.51Zm.12-.12s0,0,0,0,0,0,0,0l0,0S15.73,27.4,15.72,27.39Zm.2-.13a.07.07,0,0,1-.1,0,0,0,0,0,1,0,0h0a0,0,0,0,1,.05,0h0S15.93,27.26,15.92,27.26Zm.46-.65s0,0,0,0,0,0,0,0l0,0S16.39,26.62,16.38,26.61Zm.15-.67,0,0h0s-.07,0-.06,0,0,0,0,0,0,0,0,0S16.53,25.93,16.53,25.94Zm.06-.3,0,0s0,0,0,0-.07,0-.06,0,0,0,.05,0h0S16.59,25.63,16.59,25.64Zm.12.36a.06.06,0,0,1-.1,0s0,0,0,0a.07.07,0,0,1,.1,0S16.7,26,16.71,26Zm.15-.22v0s0,0,0,0h0S16.89,25.77,16.86,25.78Zm.07-.66q-.08-.06,0-.12A.07.07,0,0,1,16.93,25.12Zm.2.87a0,0,0,0,1,0,0h0a0,0,0,0,1,0,0s0,0,0,0S17.14,26,17.13,26Zm.06-.1a.13.13,0,0,1,0,.06s0,0,0,0a.21.21,0,0,1,0-.08,0,0,0,0,1,0,0S17.2,25.88,17.19,25.89Zm.33-1.2s0,0,0,0,0,0,0,0l0,0S17.53,24.7,17.52,24.69Zm.26.11v0s0,0,0,0h0S17.79,24.79,17.78,24.8Zm.4.37s0,0,0,0,0,0,0,0l0,0S18.19,25.18,18.18,25.17ZM18.66,24a0,0,0,0,1,0,0s0,0,0,0h0S18.69,24,18.66,24Zm.57-.93a0,0,0,0,1,0,0h0a0,0,0,0,1,0,0s0,0,0,0S19.24,23.1,19.23,23.11Zm0,0s0,0,0,0l0,0,0,0Zm.32.7v0s0,0,0,0,0,0,0,0S19.59,23.77,19.58,23.78Zm.17-1.36h-.08c-.07,0-.07,0-.07-.09a.06.06,0,0,1,.09,0,.31.31,0,0,1,.09.07Zm.71-.73s0,0,0,0,0,0,0,0l0,0S20.47,21.7,20.46,21.69Zm2.29.24s-.07,0-.1,0v-.05l-.06-.07v-.06l.09-.09h0s0,.05,0,.08,0,0,0,.07,0,0,0,.06A.34.34,0,0,1,22.75,21.93ZM9.37,37.55l0,0s0,0,0,0,0,0,0,0S9.36,37.55,9.37,37.55Zm0,.23a.07.07,0,0,1-.09,0l.08-.08a.08.08,0,0,1,.09,0Zm2.93-4s.07,0,.08,0,0,0,0,.06a0,0,0,0,1,0,0l0,0A.08.08,0,0,1,12.3,33.82ZM9.54,38.08l0,0s0,0,0,0h0S9.57,38.07,9.54,38.08Zm.32-.32a0,0,0,0,1,0,0s0,0,0,0h0S9.87,37.75,9.86,37.76Zm.43-1.26,0,0s0,0,0,0h0S10.29,36.49,10.29,36.5Zm.36.84,0,0s0,0,0,0,0,0,0,0S10.65,37.33,10.65,37.34ZM11.46,36s0,0,0,0,0,0,0,0l0,0S11.47,36,11.46,36Zm.25-.53q-.08-.06,0-.12A.07.07,0,0,1,11.71,35.5Zm.13-1v0s0,0,0,0,0,0,0,0S11.85,34.51,11.84,34.52Zm.52.56a0,0,0,0,1,0,0c0,.06,0,.08-.09.06a0,0,0,0,1,0,0v0l0,0h.08v0s0,0,0,0l0,0Zm.06-.37s0,0,0,0,0,0,0,0v0S12.43,34.72,12.42,34.71Zm.19-.05h0v0s0,0,0,0,0,0,0,0S12.62,34.67,12.61,34.66Zm.06.06s0,0,0,0,0,0,0,0l0,0Zm0,.39a.09.09,0,0,1,.13,0A.08.08,0,0,1,12.69,35.11Zm.87-2.2s0,0,0,0,0,0,0,0l0,0S13.57,32.92,13.56,32.91Zm.62.59a.07.07,0,0,1-.1,0v0h.1S14.19,33.5,14.18,33.5Zm0-.53s0,0,0,0,0,0,0,0,0,0,0,0Zm.23-1.38s0,0,0,0,0,0,0,0,0,0,0,0l0,0s0,0,0,0S14.42,31.6,14.4,31.59Zm.07.54s0,0,0-.05a0,0,0,0,1,0,0l0,0s0,0,0,0,0,0,0,0S14.5,32.12,14.47,32.13Zm.11-.54s0,0,0,0,0,0,0,0v0S14.59,31.6,14.58,31.59Zm.2,1.44s0,0,0,0l0,0s0,0,0,0Zm.28-2,0,0s0,0,0,0l0,0S15.07,31.06,15.06,31.05Zm.09.37s0,.06,0,0,0,0,0,0,0,0,0,0,0,0,0,0l0,0S15.15,31.41,15.15,31.42Zm.06-.56,0,0s0,0,0,0h0S15.21,30.85,15.21,30.86Zm0,.32a0,0,0,0,1,0,0s0,0,0,0h0S15.27,31.17,15.24,31.18Zm.51,1.06a.15.15,0,0,1-.1,0,1.28,1.28,0,0,1,0-.26l.09-.1C15.76,32,15.76,32,15.75,32.24Zm0-1h-.05c-.05-.06-.05-.06,0-.12h.05C15.77,31.19,15.77,31.19,15.72,31.24Zm.08.28a0,0,0,0,1,0,0s0,0,0,0h0S15.81,31.51,15.8,31.52ZM16.21,30h0v0s0,0,0,0,0,0,0,0S16.22,30.05,16.21,30Zm.05,0,0,0,0,0,0,0S16.24,30,16.26,30.05Zm0,.27s0,0,0,0a.07.07,0,0,1,.1,0s0,0,0,0A.06.06,0,0,1,16.25,30.32Zm.14,1.22-.06-.05s0,0,0,0,0,0,.05,0h0C16.42,31.48,16.42,31.48,16.39,31.54Zm.47-.53s0-.05-.06-.07,0,0,0,0,0,0,.05,0a0,0,0,0,0,0,0C16.91,30.94,16.91,30.94,16.86,31Zm1.62-3.2s0,0,0,0,0,0,0,0l0,0S18.49,27.82,18.48,27.81Zm.15,1.43,0,0s0,0,0,0,0,0,0,0S18.63,29.23,18.63,29.24Zm1.21-2.41a.08.08,0,0,1-.13,0A.09.09,0,0,1,19.84,26.83Zm-.23,1h.13l0,0s0,0,0,0h-.11S19.6,27.8,19.61,27.78Zm0,.28-.06,0s0,0,0-.05,0,0,.05,0h0l.05.06h.12l0,0,0,0Zm.24.12s0,.05-.06.07,0-.09,0-.13.05,0,.07,0S19.88,28.17,19.87,28.18ZM20,26s0,0,0,0,0,0,0,0l0,0S20,26,20,26Zm.2-.12s0,0,0,0,0,0,0,0,0,0,0,0Zm.17,1.8s0,0,0,0l0,0s0,0,0,0S20.36,27.63,20.35,27.63Zm.6-.83h0a0,0,0,0,1,0,0s0,0,0,0,0,0,0,0Zm.06.06s0,0,0,0,0,0,0,0,0,0,0,0Zm0-.24,0,0s0,0,0,0,0,0,0,0S21.09,26.61,21.06,26.62Zm.24-1.15s0,0,0,0,0,0,0,0l0,0S21.31,25.48,21.3,25.47Zm.06.66s0,0,0,0,0,0,0,0l0,0S21.37,26.14,21.36,26.13Zm.38.11v0s0,0,0,0,0,0,0,0S21.75,26.23,21.74,26.24Zm.22-.95s0,0,0,0,0,0,0,0v0S22,25.3,22,25.29ZM22,25l0,0s0,0,0,0h0S22.05,25,22,25Zm.72-.48a0,0,0,0,1,0,0s0,0,0,0h0S22.77,24.51,22.74,24.52Zm0-.12a0,0,0,0,1,0,0s0,0,0,0h0S22.77,24.39,22.74,24.4Zm.12-.23-.06,0h-.12c0-.06,0-.06,0-.12h.15s0,0,.05,0S22.88,24.15,22.86,24.17Zm0-.86s0,0,0,0,0,0,0,0l0,0S22.87,23.32,22.86,23.31Zm.25.54s0,0,0,0l0,0s0,0,0,0Zm.47.48s0,0,0,0,0,0,0,0v0S23.59,24.34,23.58,24.33Zm.27-2.27,0,0s0,0,0,0h0l0,0,0,0s0,0,0,0a0,0,0,0,1,0,0h-.08a0,0,0,0,1,0,0A.05.05,0,0,1,23.85,22.06Zm-.1.32h0s0,.08,0,.1,0,0,0,0S23.72,22.4,23.75,22.38Zm-.34.28h0s0,0,0,0,0,0-.06,0,0,0,0,0l0,0ZM23.1,21a.2.2,0,0,1,.09.09l-.08.09L23,21.08Zm.06.35v0s0,0,0,0h0S23.19,21.33,23.16,21.34Zm1,1.05s0,0,0,0l0,0v-.11l0,0,0,0ZM10.64,40.77a0,0,0,0,1-.05,0h0q-.08,0,0-.12s0,.05.06.06S10.65,40.75,10.64,40.77Zm0-1q0,.08-.12,0s.05,0,.06-.06,0,0,.05,0a.05.05,0,0,1,0,0A0,0,0,0,0,10.65,39.79Zm.09.57v0s0,0,0,0h0S10.77,40.35,10.74,40.36Zm.75-1.23,0,0h0a.06.06,0,0,1,0-.1h0v0A0,0,0,0,1,11.49,39.13Zm.21.15a0,0,0,0,1,0,0s0,0,0,0h0S11.73,39.27,11.7,39.28Zm.36.72,0,0s0,0,0,0,0,0,0,0S12.09,40,12.06,40Zm.08-.19h0s0-.07,0-.09h0S12.17,39.79,12.14,39.81Zm.3-1.75v0s0,0,0,0h0S12.45,38.05,12.44,38.06Zm.25,1.32,0,0h-.11s0,0,0,0l0,0h.11S12.69,39.37,12.69,39.38Zm.06-1.08,0,0h0s-.07,0-.06,0,0,0,0,0,0,0,0,0Zm.3.6,0,0s0,0,0,0h0S13.05,38.89,13.05,38.9Zm.29.12v0s0,0,0,0h0S13.35,39,13.34,39Zm.31-1.51a.09.09,0,0,1,.13,0C13.73,37.56,13.7,37.56,13.65,37.51Zm.27.93h-.05c0-.06,0-.06,0-.12h.05C14,38.39,14,38.39,13.92,38.44Zm.26-.26v0s0,0,0,0v0S14.19,38.17,14.18,38.18Zm.16-.23s0,0,0,0,0,0,0,0l0,0S14.35,38,14.34,38Zm.55-1.85h0v0s0,0,0,0,0,0,0,0Zm.06.06,0,0s0,0,0,0l0,0Zm.23.9h0c-.05-.05-.05-.05,0-.12h0C15.22,37,15.22,37,15.18,37.06Zm1.12-1.77,0,0s0,0,0,0v-.12l0,0,0,0Zm.3.12s0,0,0,0,0,0,0,0,0,0,0,0,.06,0,.12,0ZM16.89,34a.06.06,0,0,1-.1,0s0,0,0,0a.07.07,0,0,1,.1,0S16.88,34,16.89,34Zm.39-.1v0s0,0,0,0h0S17.31,33.87,17.28,33.88Zm0-.73s0,0,0,0v0s0,0,0,0S17.3,33.15,17.29,33.15Zm.52-.45h0s0,0,0,0v0S17.8,32.72,17.81,32.7Zm-.29.64H17.4c0-.06,0-.06,0-.12h.11C17.57,33.29,17.57,33.29,17.52,33.34Zm.08-.44v0s0,0,0,0h0S17.61,32.89,17.6,32.9Zm.25.42,0,0h0s-.07,0-.06,0,0,0,.05,0h0Zm.06-.18a.08.08,0,0,1-.12,0l.09-.09C17.93,33.06,17.91,33.1,17.91,33.14Zm.09.19s0,0,0,0,0,0,0,0l0,0S18,33.34,18,33.33Zm1.63-2.45.08.09s0,0,0,0a.41.41,0,0,1-.11,0s0,0,0,0Zm-.75.68h0s0,0,0,0a0,0,0,0,1,0,0S18.88,31.58,18.88,31.56Zm-.44,1.62s0,0,0,0h0a0,0,0,0,1,0,0S18.42,33.17,18.44,33.18Zm-.35-.35a.09.09,0,0,1,.13,0A.08.08,0,0,1,18.09,32.83Zm.15,1.11v0s0,0,0,0h0S18.27,33.93,18.24,33.94Zm.09-1.49s0,0,0,0,0,0,0,0l0,0a0,0,0,0,1,0,0s0,.06,0,.05S18.33,32.47,18.33,32.45Zm.11,1.32s-.08,0-.1,0,0,0,0,0a.08.08,0,0,0,0,0s0,0,0-.06h0l0,0A.3.3,0,0,1,18.44,33.77Zm0-.49,0,0s0,0,0,0l0,0Zm.14-.45a.09.09,0,0,1,.13,0A.08.08,0,0,1,18.63,32.83Zm.17.43v0s0,0,0,0h0S18.81,33.25,18.8,33.26Zm.1-.7-.09-.09s.08,0,.13,0S19,32.55,18.9,32.56Zm.09-.51a.09.09,0,0,1,.13,0A.08.08,0,0,1,19,32.05Zm.3-.9a.09.09,0,0,1,.13,0A.08.08,0,0,1,19.29,31.15Zm.4,1.05h-.14l-.06-.08s0,0,0,0h.19C19.73,32.14,19.73,32.14,19.69,32.2Zm.16.11v0s0,0,0,0l0,0S19.87,32.32,19.85,32.31Zm.07-.72s0,0,0,0,0,0,0,0l0,0S19.93,31.6,19.92,31.59Zm.54-1.13v0s0,0,0,0,0,0,0,0S20.49,30.45,20.46,30.46Zm.45,0c-.06.05-.06.05-.11,0v-.12c.06,0,.06,0,.11,0Zm.39-1.06s0,0,0,0,0,0,0,0v0S21.31,29.38,21.3,29.37Zm.43.91s0,0-.06.06a.48.48,0,0,1-.12,0s0,0,0,0h.09l.05-.06s.06,0,.08,0S21.74,30.27,21.73,30.28Zm0-.91s0,0,0,0l0,0s0,0,0,0S21.74,29.37,21.73,29.37Zm.11.6s0,0,0,0,0,0,0,0l0,0S21.85,30,21.84,30Zm.42-.17a.07.07,0,0,1,0-.12S22.31,29.76,22.26,29.8ZM22.5,29l0,0s0,0,0,0l0,0S22.51,29,22.5,29Zm0-.2v-.06l-.05-.06a.15.15,0,0,1,.16,0c0,.06,0,.13,0,.22S22.57,28.77,22.53,28.75Zm.48.3a.09.09,0,0,1,.13,0C23.09,29.1,23.06,29.1,23,29.05Zm.27-1.71v0s0,0,0,0h0S23.31,27.33,23.28,27.34Zm.12.11s0,0,0,0,0,0,0,0v0S23.41,27.46,23.4,27.45Zm.33-.61,0,0h-.11s0,0,0,0l0,0h.12S23.73,26.83,23.73,26.84Zm.1,1.51s0,0,0,0,0,0,0,0,0,0,0,0Zm.14-.91,0,0s0,0,0,0,0,0,0,0S24,27.43,24,27.44Zm.15.79s0,0,0,0,0,0,0,0v0S24.13,28.24,24.12,28.23Zm.08-.73-.07.09L24,27.5s0,0,0,0h.11S24.21,27.49,24.2,27.5Zm0-.27s0,0,0,0,0,0,0,0l0,0S24.16,27.24,24.19,27.23Zm-.1-.94a.09.09,0,0,1,.13,0C24.17,26.34,24.14,26.34,24.09,26.29Zm.41,1.46s0,0,0,0,0,0,0,0,0,0,0,0Zm.37-1.09,0,0s0,0,0,0h0S24.87,26.65,24.87,26.66Zm1.08-1a.07.07,0,0,1-.1,0s0,0,0,0a.07.07,0,0,1,.1,0Zm-.23-1.16a.07.07,0,0,1,.1,0v0a.07.07,0,0,1-.1,0S25.72,24.55,25.72,24.54Zm.07.16s0,0,.07-.05a0,0,0,0,1,0,0s0,0,0,.06l-.05.06s.06,0,0,.06-.05,0-.08,0a.6.6,0,0,1-.08-.08v-.06A.07.07,0,0,1,25.79,24.7Zm.88.58,0,0s0,0,0,0,0,0,0,0S26.67,25.27,26.67,25.28Zm-14.51,18s0,.06,0,.05,0,0,0,0,0,0,0,0,0,0,0,0l0,0A0,0,0,0,1,12.16,43.3Zm.27.3s0-.08,0-.12A.07.07,0,0,1,12.43,43.6Zm.5-.86a.08.08,0,0,1-.12,0l.09-.09S12.93,42.7,12.93,42.74ZM13,42.2v0s0,0,0,0a0,0,0,0,0,0,0S13,42.19,13,42.2Zm0-.35,0,0s0,0,0,0l0,0S13,41.86,13,41.85Zm.45-.43,0,0s0,0,0,0h0S13.41,41.41,13.41,41.42Zm.09-.29s0,0,0,0,0,0,0,0l0,0S13.51,41.14,13.5,41.13Zm.05.48v0s0,0,0,0,0,0,0,0S13.57,41.62,13.55,41.61Zm.14,1.15s0-.08,0-.12A.07.07,0,0,1,13.69,42.76Zm0-.9a.08.08,0,0,1,0-.12s.08,0,.09,0Zm5.8-6.4a.06.06,0,0,1,.05,0v0s0,0,0,0l0,0s0,0,0,0,0,0,0,0v.12h0l0,0,0,0,0,0a0,0,0,0,1,0,0s0,0-.05,0A.11.11,0,0,1,19.48,35.46Zm-3,3.71,0,0s0,0,0,0,0,0,0,0S16.5,39.17,16.51,39.17Zm-2.64,2.1,0,0s0,0,0,0l0,0S13.86,41.27,13.87,41.27Zm0,.4s0,0,0,0,0,0,0,0l0,0S13.87,41.68,13.86,41.67Zm.21.59a.06.06,0,0,1-.1,0s0,0,0,0a.07.07,0,0,1,.1,0Zm.08-1.7h0s0,0,0,0v0S14.14,40.58,14.15,40.56Zm.09,1.7a.06.06,0,0,1-.1,0v0h.1S14.25,42.26,14.24,42.26Zm.23-2.14s-.05,0-.06,0l0,0a0,0,0,0,1,0,0h.17l0,0-.09.09Zm.31.65a.06.06,0,0,1,0,0h-.09s0,0-.06-.06,0,0,0,0,0,0,0,0,.05,0,.09,0a.34.34,0,0,0,.06.06S14.79,40.75,14.78,40.77Zm.3-.37v0s0,0,0,0h0S15.09,40.39,15.08,40.4Zm.32-.12v0h.1s0,0,0,0A.06.06,0,0,1,15.4,40.28Zm.09.5q-.08-.06,0-.12A.08.08,0,0,1,15.49,40.78Zm.15-.75,0,0h0c0-.06,0-.06,0-.12s.06,0,.07,0S15.66,40,15.64,40Zm.32.15a0,0,0,0,1,0,0s0,0,0,0h0S16,40.17,16,40.18Zm.19-1.26a.3.3,0,0,1-.16,0s0-.08,0-.1l0,0,0,0,.06,0v0Zm0-.25s0,0,0,0l0,0s0,0,0,0S16.16,38.67,16.15,38.67Zm.5.95a.05.05,0,0,1,0,0h-.09c-.05,0-.05,0,0-.11h.06l.06,0Zm.84-.72,0,0h0s-.07,0-.06,0,0,0,.05,0h0Zm.15-.52,0,0s0,0,0,0h0S17.67,38.37,17.64,38.38Zm.2-1.21s0,0,0,0l0,0s0,0,0,0Zm.26-.44v0s0,0,.12,0v.06C18.16,36.78,18.16,36.78,18.1,36.73Zm.17.18s0,0,.05,0,0,0,0,0a0,0,0,0,0,0,0q0,.08-.12,0S18.26,36.93,18.27,36.91Zm0,.39s0-.08,0-.12A.08.08,0,0,1,18.31,37.3Zm.17.36h-.05s0,0,0-.12h.06C18.53,37.6,18.53,37.6,18.48,37.66Zm.15-1.1,0,0s0,0,0,0-.07,0-.06,0,0,0,.05,0h0S18.63,36.55,18.63,36.56Zm-.12-.49a.09.09,0,0,1,.13,0C18.59,36.12,18.56,36.12,18.51,36.07Zm.17.25v0s0,0,0,0v0S18.69,36.31,18.68,36.32Zm.12-.18v0s0,0,0,0h0S18.81,36.13,18.8,36.14Zm0-.22a.08.08,0,0,1,0-.12S18.83,35.88,18.78,35.92ZM19,37l0,0s0,0,0,0,0,0,0,0S19,37,19,37Zm0-1.15h0s0-.07,0-.09h0A.06.06,0,0,1,19,35.85Zm.22.25a.08.08,0,0,1,0-.12l.09.09S19.24,36.1,19.2,36.1Zm.29.36a.06.06,0,0,1-.07,0l-.06-.07s.1,0,.15,0,0,0,0,.08S19.51,36.46,19.49,36.46Zm0-.21a.09.09,0,0,1,.13,0A.08.08,0,0,1,19.47,36.25Zm7.46-7.51h0s0,0,0,0v0S26.92,28.76,26.93,28.74Zm-4.24,4h0s0,0,0,0v0S22.66,32.76,22.69,32.75Zm-.6-.3,0,0s0,0,0,0,0,0,0,0S22.08,32.45,22.09,32.45Zm-1.48,2.3s0,0,0,0,0,0,0,0,0,0,0,0Zm0-.15,0,0a0,0,0,0,1-.05,0h0c-.05,0-.05,0,0-.11ZM20,36.45s0,0,0,0,0,0,0,0l0,0S20,36.46,20,36.45Zm.15-.2a.09.09,0,0,1,.13,0C20.21,36.3,20.18,36.3,20.13,36.25Zm.15-.45v0s0,0,0,0h0S20.31,35.79,20.28,35.8Zm.15-1.65s0,0,.05,0,0,0,0,0a0,0,0,0,0,0,0s-.07,0-.12,0S20.42,34.17,20.43,34.15Zm0,1.09v-.07c.06,0,.06,0,.12,0v.11a.07.07,0,0,1-.08,0s-.08,0-.11,0Zm0,.72a.06.06,0,0,1-.1,0s0,0,0,0a.07.07,0,0,1,.1,0S20.48,36,20.49,36Zm.06.14h0l0,0,0,0h0s0,0,.05,0S20.59,36.1,20.55,36.1Zm.07-1.05c-.07.05-.07.05-.13,0V35c.07,0,.07,0,.13,0Zm0-.63v0s0,0,0,0h0S20.67,34.41,20.64,34.42Zm.09.45a.09.09,0,0,1,.13,0A.08.08,0,0,1,20.73,34.87Zm.17-.35a.07.07,0,0,1-.1,0,0,0,0,0,1,0,0h0a0,0,0,0,1,.05,0h0S20.91,34.52,20.9,34.52Zm.1-.4v0s0,0,0,0h0S21,34.11,21,34.12Zm.21,1.3,0,0s0,0,0,0-.07,0-.06,0,0,0,0,0h0S21.21,35.41,21.21,35.42Zm.05-1.68v0s0,0,0,0h0S21.27,33.73,21.26,33.74Zm.13.84a.08.08,0,0,1-.12,0l.09-.09C21.41,34.5,21.39,34.54,21.39,34.58Zm0-.52v0s0,0,0,0h0S21.45,34.05,21.42,34.06Zm.18.72a0,0,0,0,1,0,0s0,0,0,0h0S21.63,34.77,21.6,34.78Zm.21-.87a.09.09,0,0,1,.13,0A.08.08,0,0,1,21.81,33.91Zm.18-.78s0-.06,0-.07,0,0,0,0,0,0,.06.06S22,33.18,22,33.13Zm.15.74,0,0s0,0,0,0l0,0S22.15,33.88,22.14,33.87Zm.19-.23h-.06c-.05,0-.05,0,0-.12h.06C22.37,33.58,22.37,33.58,22.33,33.64Zm.2.46,0,0s0,0,0,0-.07,0-.06,0,0,0,0,0h0Zm.1-1.65,0,0s0,0,0,0l0,0S22.62,32.45,22.63,32.45Zm0,1h0v0s0,0,0,0,0,0,0,0Zm.09.12s0,0-.07,0v-.09h.09a.08.08,0,0,1,0,.07S22.76,33.58,22.72,33.58Zm.15-.42q-.07-.06,0-.12A.07.07,0,0,1,22.87,33.16Zm.41-.24h-.07a.27.27,0,0,1,0-.15s.05,0,.09,0l.07.09S23.31,32.89,23.28,32.92Zm.36-1h-.12l0,0s0,0,0,0h.11l0,0S23.66,32,23.64,32ZM24,31.3l-.08-.09a.08.08,0,0,1,.07,0s.08,0,.1,0S24,31.28,24,31.3Zm1-1.13c-.05,0-.07-.07-.11-.1s0-.06,0-.08l0,0,0,0,.09.08Zm.11-.61s0-.08,0-.12A.08.08,0,0,1,25.15,29.56Zm.26,1.72,0,0s0,0,0,0,0,0,0,0S25.41,31.27,25.41,31.28Zm.18-1,0,0s0,0,0,0h0S25.59,30.31,25.59,30.32Zm.21-1.24a.07.07,0,0,1,0-.12Q25.88,29,25.8,29.08Zm.64.26a.74.74,0,0,1-.12.13c0,.09,0,.1-.1.09s0,0,0-.08l-.05-.07.05-.06v-.07l.07,0,.07.06s0,0,0,0,0-.06,0-.09a.08.08,0,0,1,0,0C26.47,29.2,26.42,29.27,26.44,29.34Zm.5.09s0,0,0,0,0,0,0,0l0,0S27,29.44,26.94,29.43Zm.34-1.73s0,.06,0,.05,0,0,0,0,0,0,0,0,0,0,0,0l0,0A0,0,0,0,1,27.28,27.7Zm.81-.65s0,0,0,0,0,0,0,0v0S28.06,27.06,28.09,27.05Zm-.39-.23a.07.07,0,0,1,.1,0,0,0,0,0,1,0,0,.06.06,0,0,1-.1,0S27.7,26.83,27.7,26.82Zm1.91,4.94a0,0,0,0,1-.05,0h0c-.05-.05-.05-.05,0-.11l.06,0S29.61,31.75,29.61,31.76Zm0-2.14a.07.07,0,0,1,0,.12S29.6,29.66,29.65,29.62Zm0,1.37v0s0,0,0,0l0,0S29.71,31,29.69,31Zm.6.42v0s0,0,0,0,0,0,0,0S30.31,31.42,30.29,31.41Zm.55-.59h-.06l-.06-.06s0,0,0,0,0,0,.05,0a.21.21,0,0,0,.08,0C30.89,30.76,30.89,30.76,30.84,30.82Zm.51,2.44,0,0s0,0,0,0h0S31.35,33.25,31.35,33.26Zm.16-3.82h0c.05.06.05.06,0,.12h0C31.46,29.51,31.46,29.51,31.51,29.44Zm-.06,2.23h0s0,0,0,0a0,0,0,0,1,0,0S31.42,31.68,31.45,31.67Zm-.19-2a.23.23,0,0,1,.07-.07s0,.05.06.06,0,0,0,.05a0,0,0,0,1,0,0h0l-.05.07C31.22,29.74,31.22,29.73,31.26,29.69Zm-.05.35h0s0,0,.05,0,0,0-.06,0h0l0,0Zm0,2,0,0s0,0,0,0,0,0,0,0S31.2,32,31.21,32Zm0,1.11,0,0s0,0,0,0h0S31.17,33.13,31.17,33.14Zm-.08-.58.06.06s0,0,0,.05a0,0,0,0,1-.05,0h0Q31,32.64,31.09,32.56Zm-.25-3.82s0,0,.06,0l0,0v0c-.06,0-.06,0-.12,0S30.8,28.75,30.84,28.74Zm-.11.7,0-.05c.06,0,.12,0,.16,0s-.14.1-.12.2h-.14c-.06,0,0-.13-.1-.13S30.69,29.47,30.73,29.44Zm-.29,1.21v0s0,0,0,0,0,0,0,0S30.42,30.65,30.44,30.65Zm-.07-2.34,0,0s0,0,0,0,0,0,0,0S30.36,28.31,30.37,28.31Zm-.06.41s.06,0,.07,0,0,0,0,.06l0,0h0C30.26,28.78,30.26,28.78,30.31,28.72Zm-.14-.52s0,0,0,0,0,0,0,0v0S30.16,28.22,30.17,28.2Zm-.05,1.24a.08.08,0,0,1,0-.12Q30.2,29.38,30.12,29.44ZM30.05,28s0,0,0,0,0,0,0,0l0,0S30,28,30.05,28Zm0,.89.09.08c0,.05-.08,0-.13,0S30,28.92,30.07,28.91Zm0,2.78a.08.08,0,0,1-.13,0A.09.09,0,0,1,30,31.69Zm-.17-.85H30s0,0,0,0a.06.06,0,0,1-.1,0Zm0,1.13s0,0,0,0v0s0,0,0,0Zm-.06-1.33v0s0,0,0,0h0S29.85,30.63,29.82,30.64Zm0-2s0,0,0,0h-.17l0,0s0,0,0,0h.17Zm-.17-.79s0,0,.05,0h0c0,.06,0,.06,0,.12l-.06-.05S29.68,27.86,29.68,27.84Zm0-.17a.08.08,0,0,1-.13,0A.09.09,0,0,1,29.68,27.67Zm-.16,1.24c.05,0,0,.05,0,.09a.08.08,0,0,1-.12,0Zm-1.08-.79v0s0,0,0,0,0,0,0,0S28.47,28.11,28.44,28.12Zm0-.52s0,0,0,0h-.05s0-.06,0-.1a.09.09,0,0,1,0-.08s0,.05.06.07A.06.06,0,0,1,28.47,27.6Zm.64,1.24L29,28.78H29s0,0,0,0l0,0h.11C29.15,28.78,29.15,28.78,29.11,28.84Zm.2.27s0-.06,0-.07,0,0,.06,0l0,0v0C29.37,29.16,29.37,29.16,29.31,29.11Zm-.16,2.15h0a0,0,0,0,1,0,0h0s0,0,0,0a.07.07,0,0,1-.1,0A0,0,0,0,1,29.15,31.26Zm0,.16s0,0,.06.06,0,0,0,.05a0,0,0,0,1,0,0h0Q29.1,31.5,29.17,31.42Zm-.67-.29h0a0,0,0,0,1,0,0,.48.48,0,0,1,0,.17s0,0,0,0l0,0-.06,0,0,0Zm-.34,2.17v0a.07.07,0,0,1-.1,0s0,0,0,0A.07.07,0,0,1,28.16,33.3Zm-.14.75s0,0,0,0,0,0,0,0l0,0S28,34.06,28,34.05Zm.15-.55a0,0,0,0,1-.05,0h0c-.05-.05-.05-.05,0-.11l.06.05Zm0,.44v0s0,0,0,0h0S28.23,33.93,28.2,33.94Zm0-.87c-.06,0-.06,0-.12,0s0-.06,0-.08,0,0,0-.05,0,0,.05,0l.05,0Zm-.16-.25h.08l.05-.06h.07c0,.07,0,.07,0,.12h-.17S28.06,32.84,28.07,32.82Zm-.31-.72a.07.07,0,0,1,.1,0s0,0,0,0a.06.06,0,0,1-.1,0S27.76,32.11,27.76,32.1Zm-.21-.73s0,0,0,0,0,0,0,0l0,0S27.52,31.38,27.55,31.37Zm-.12,1.08,0,0s0,0,0,0v0S27.42,32.45,27.43,32.45Zm-.27.25a.07.07,0,0,1,.1,0v0a.07.07,0,0,1-.1,0S27.16,32.71,27.16,32.7Zm0-.13h0s0,0,0,0v0S27.1,32.58,27.13,32.57ZM27,33l0,0a.16.16,0,0,1,.16,0s.07,0,.1,0v.05l-.09.09h-.08c-.07,0-.07,0-.08-.09l0,0V33Zm.12.3c-.05,0-.08,0-.13,0A.09.09,0,0,1,27.1,33.31Zm-.29-1.21h0a0,0,0,0,1,.05,0h0s0,0,0,0a.07.07,0,0,1-.1,0Zm0,1.85h0s0,0,0,0a0,0,0,0,1,0,0S26.74,34,26.77,34ZM25.26,35.8c0,.07,0,.07,0,.12h-.11c0-.06,0-.06,0-.12Zm.64-2.9,0,0,0,0,0,0S25.88,32.92,25.9,32.9Zm0,0s0,0,0,0,0,0,0,0v0h0A0,0,0,0,1,25.85,32.94Zm-.28,1.49h0s0,0,0,0l0,0S25.54,34.44,25.57,34.43Zm0,.31h0s0,0,0,0l0,0S25.54,34.76,25.55,34.74Zm-.35-1.15s0,0,0,0,0,0,0,0,0,0,0,0Zm-.12.12.06,0,0,0a0,0,0,0,1-.05,0h0C25,33.77,25,33.77,25.08,33.71Zm0,.39,0,0,0,0,0,0S25,34.12,25.06,34.1Zm0,0s0,0,0,0,0,0,0,0v0h0A0,0,0,0,1,25,34.14Zm-1,.72,0,0s0,0,0,0v0S24,34.88,24.05,34.86Zm-.42.35s0,0,0,0,0,0,0,0,0,0,0,0Zm0,.3,0,0s0,0,0,0,0,0,0,0S23.64,35.51,23.65,35.51Zm-.15,2.12c-.05,0-.08,0-.13,0A.09.09,0,0,1,23.5,37.63ZM23.35,36h0s0,0,0,0v0S23.32,36,23.35,36Zm-.21,0s0,0,0,0l0,0s0,0,0,0,0,.06,0,.05,0,0,0,0S23.13,36,23.14,36Zm-.51,1.35h0s0,0,0,0v0S22.6,37.38,22.63,37.37Zm-.18-.31h0s0,0,.05,0,0,0-.06,0,0,0,0,0l0,0Zm-.09.15a.08.08,0,0,1-.13,0A.09.09,0,0,1,22.36,37.21Zm-.15.82,0,0s0,0,0,0,0,0,0,0S22.2,38,22.21,38Zm-.12-.54,0,0s0,0,0,0,0,0,0,0S22.08,37.49,22.09,37.49Zm-.24,1.07h0s0,0,.05,0,0,0-.06,0,0,0,0,0l0,0Zm-.12-1.31h0s0,0,0,0v0S21.7,37.26,21.73,37.25Zm-.36.24h0s0,0,0,0v0S21.34,37.5,21.37,37.49Zm-.12.78s0,0,0,0,0,0,0,0l0,0S21.22,38.28,21.25,38.27Zm-.08-.65h0s0,0,0,0v0S21.16,37.64,21.17,37.62Zm-.41,1.12s0,.07,0,.11a.08.08,0,0,1,0,.07s0-.06,0-.1A.11.11,0,0,1,20.76,38.74Zm-.11.79,0,0v0h0a.21.21,0,0,1-.08,0,.76.76,0,0,1,0,.15s0,0,0,0l-.08-.08a.08.08,0,0,1,0-.1h.09C20.57,39.52,20.59,39.51,20.65,39.53Zm-.21-1.07s0,0,0,0,0,0,0,0l0,0,0,0h0S20.43,38.49,20.44,38.46Zm-.06.92s0,0,0,0l.09.09-.08.07s0,0,0,0A.4.4,0,0,1,20.38,39.38Zm-.11,0h0s0,0,0,0v0S20.26,39.44,20.27,39.42Zm-6,6.64v0s0,0,0,0h0S14.25,46.05,14.22,46.06Zm4.31,3.26s0,0,0,0,0,0,0,0a.3.3,0,0,1,0,.16s0,0,0,0,0-.07,0-.1S18.52,49.34,18.53,49.32ZM17.75,48a0,0,0,0,0,0,0s0,0,0,0v0S17.74,48,17.75,48Zm-.22.46.08.09a.23.23,0,0,1,0,.14s-.09,0-.13,0a.08.08,0,0,1,0-.1s0,0,0-.07S17.5,48.48,17.53,48.46ZM17.4,48h.06c.05.07.05.07,0,.15v.18s0,0,0,0a.68.68,0,0,1,0-.19l-.05-.07ZM17,47.71s.06,0,.08,0,0,0,0,0a.06.06,0,0,1,0,.07l-.07.06C17,47.82,17,47.76,17,47.71Zm-1.14-1.27s0,0,0,0h0l0,0,0,0s0,0,0,0S15.87,46.47,15.88,46.44Zm-1-.09s0,0,0,0l0,0s0,0,0,0S14.9,46.35,14.89,46.35Zm.68-1.82a.09.09,0,0,1,.13,0A.08.08,0,0,1,15.57,44.53Zm.15-.46s0,0,0,0,0,0,0,0l0,0S15.73,44.08,15.72,44.07Zm.06.24s0,0,0,0,0,0,0,0l0,0S15.79,44.32,15.78,44.31Zm.06-.35a0,0,0,0,1,0,0s0,0,0,0h0S15.87,44,15.84,44Zm.3-.3a.08.08,0,0,1,0-.12l.09.09S16.18,43.66,16.14,43.66Zm.23-.07v0s0,0,0,0,0,0,0,0S16.39,43.6,16.37,43.59Zm8.43,7.73v0s0,0,0,0h0S24.81,51.31,24.8,51.32Zm1.4,1.13,0,0s0,0,0,0,0,0,0,0,0,0,0,0,0,0,0-.05A0,0,0,0,1,26.2,52.45Zm-.29,0a0,0,0,0,0,0,0s0,0,0,0v0S25.9,52.52,25.91,52.5ZM25,51.67l0,0s0,0,0,0,0,0,0,0,0,0,0,0,0,0,0,0A0,0,0,0,1,25,51.67Zm0-.26s0,0,0,0,0,0,0,0l0,0S25,51.41,25,51.41Zm-.3-.49.06-.05h.06c0,.06,0,.06,0,.11h-.09a.05.05,0,0,1-.05,0Zm-.06-.11,0,0s0,0,0,0l0,0S24.6,50.81,24.61,50.81Zm-.12.42h0s0,0,0,0l0,0S24.46,51.24,24.49,51.23Zm-.12-.72h0s0,0,0,0l0,0S24.34,50.52,24.37,50.51Zm0,.38s0,0,0,0a.06.06,0,0,1,0,0s0,0,0,0-.05,0-.12,0Zm-.11.35h.1s0,0,0,0a.06.06,0,0,1-.1,0Zm0,.53,0,0s0,0,0,0,0,0,0,0S24.3,51.77,24.31,51.77Zm-.21-.51,0,0,.09.09-.08.07s0,0-.05,0A.45.45,0,0,1,24.1,51.26ZM24,51s0,0,0,0,0,0,0,0l0,0S24,51,24,51Zm-.08-.41h0s0,0,0,0v0S23.92,50.6,23.93,50.58Zm0,.82s0,.05.06.06,0,0,0,0a0,0,0,0,1-.05,0h0Q23.82,51.48,23.89,51.4Zm-.2-1.72s0,0,0,0,0,0,0,0v0S23.68,49.7,23.69,49.68Zm-.32.67c-.07-.08-.07-.08,0-.14h.06c.05,0,0,.12.08.14l-.06.07v.07a.25.25,0,0,1-.17,0v-.07C23.28,50.36,23.36,50.41,23.37,50.35Zm-.14-.44h0s0,0,0,0l0,0S23.2,49.92,23.23,49.91Zm0,1a.07.07,0,0,1,0,.12Q23.16,50.92,23.23,50.86Zm-.4-.14a.06.06,0,0,1-.1,0s0,0,0,0a.07.07,0,0,1,.1,0S22.82,50.72,22.83,50.72ZM23,49.14a0,0,0,0,0,0,0s0,0,0,0a0,0,0,0,1,0,0S23,49.16,23,49.14Zm-.24.15v0l0,0h.18l0,.07a.55.55,0,0,1-.12.14l0,0-.1-.07.06-.07Zm-.28.07h.11l0,0,0,0h-.12l0,0ZM22.37,49s0,0,0,0,0,0,0,0,0,0,0,0Zm-2-1.59,0,0s0,0,0,0h0S20.37,47.41,20.37,47.42Zm1.8,1.2,0,0s0,0,0,0,0,0,0,0S22.17,48.61,22.17,48.62Zm0,1.28a.07.07,0,0,1,0-.12Q22.28,49.84,22.2,49.9Zm-.05-1.55.09.08s-.08,0-.13,0S22.1,48.36,22.15,48.35Zm-.24.54,0,0s0,0,0,0,0,0,0,0S21.9,48.89,21.91,48.89Zm-.24-.72h0s0,0,0,0v0S21.64,48.18,21.67,48.17Zm-.32,1.15s0,0,0,0,0,0,0,0v0S21.34,49.34,21.35,49.32Zm-.09-.44a.11.11,0,0,1,.08,0,.13.13,0,0,1,0,.06s0,0,0,0-.1-.05-.16-.06S21.22,48.89,21.26,48.88Zm-.2-1.07s0,0,0,0,0,0,0,0,0,0,0,0Zm-.77-1.09h.05c.05.06.05.08,0,.12l0,0,0,0s0-.07,0-.11A.09.09,0,0,1,20.29,46.72Zm-.45-.62,0,0,0,0,0,0S19.82,46.12,19.84,46.1Zm-.05,0s0,0,0,0,0,0,0,0v0h0A0,0,0,0,1,19.79,46.14Zm-.31,1s0,0,0,0,.09,0,.09.08,0,.08,0,.11l-.07-.09A0,0,0,0,1,19.48,47.19Zm-.23-1.77h0s0,0,0,0l0,0S19.24,45.44,19.25,45.42Zm-.18-.18,0,0s0,0,0,0a0,0,0,0,1,0,0S19.06,45.26,19.07,45.24Zm0,.29.07,0h.05l0,0,0,0h-.11C19,45.59,19,45.59,19.08,45.53Zm0,.45,0,0,0,0s0,0,0,0,0,.06,0,0,0,0,0,0S19.05,46,19.06,46Zm-.19-.72a.07.07,0,0,1-.1,0s0,0,0,0a.07.07,0,0,1,.1,0S18.86,45.26,18.87,45.26Zm-.11-.37,0,0,0,0s0,0,0,0,0,0,0,0,0,0,0,0A0,0,0,0,1,18.76,44.89Zm-.22,1.36a.08.08,0,0,1,.09,0l-.08.09a.07.07,0,0,1-.09,0Zm-.17-.12,0,0,0,0h0a.28.28,0,0,1,0,.09l0,0-.08-.08s0,0,0,0h.08v0Zm-.2-1.61,0,0h.09v-.12c-.06,0-.08,0-.06-.09l0,0h0v0a.25.25,0,0,1,0,.08.06.06,0,0,1,0,0,.11.11,0,0,1,0,.08s0,0,0,0,0,.08-.1.06l0,0Zm-.86-.71s0,0,0,0,0,0,0,0l0,0S17.3,43.79,17.31,43.81Zm0,.69-.06,0s0,0,0-.05,0,0,.05,0h0C17.33,44.44,17.33,44.44,17.29,44.5Zm0-2s0,0,0,0,0,0,0,0,0,0,0,0Zm-.23.35.09.09c0,.05-.05,0-.09,0A.08.08,0,0,1,17.1,42.82Zm-.19.08s0,0,.05,0h0c.05,0,.05.08,0,.13s0,0-.06-.07S16.9,42.92,16.91,42.9Zm0-.13,0,0s0,0,0,0,0,0,0,0S16.86,42.77,16.87,42.77Zm-.26,1.32s0,0,0,0,0,0,0,0,0,0,0,0Zm1.13-2.61,0,0,0,0,0,0S17.72,41.5,17.74,41.48Zm0,0s0,0,0,0,0,0,0,0v0h0A0,0,0,0,1,17.69,41.52Zm0,1.39s0,0,0,0a.06.06,0,0,1,0,0,0,0,0,0,0,0,0s.07,0,.12,0S17.75,42.89,17.74,42.91ZM18,41.74a.08.08,0,0,1,0-.12s.08,0,.09,0Zm.42-.66,0,0s0,0,0,0h0S18.45,41.07,18.42,41.08Zm.06-.24v0s0,0,0,0h0S18.51,40.83,18.48,40.84Zm.06-.36v0s0,0,0,0h0S18.57,40.47,18.54,40.48Zm2.35,3h0s0,0,0,0v0S20.86,43.44,20.89,43.43Zm-1.25-2.34v0s0,0,0,0,0,0,0,0S19.62,41.09,19.64,41.09Zm-.15-1.43h0s0,0,0,0v0S19.48,39.68,19.49,39.66Zm-.76,1.91.09.08c0,.05-.08,0-.13,0S18.68,41.58,18.73,41.57Zm.47.83v0s0,0,0,0h0S19.23,42.39,19.2,42.4Zm.06.12,0,0s0,0,0,0h0S19.29,42.51,19.26,42.52Zm.36-.78a.11.11,0,0,1-.1,0c-.07,0-.16,0-.22-.05v0l.05-.07s0-.06,0-.08a.14.14,0,0,1,.08.07.42.42,0,0,1,0,.1h.06c.06,0,0-.09.06-.12s0,0,0,.08,0,.05.05.07A.26.26,0,0,1,19.62,41.74Zm.45.09a.09.09,0,0,1,.13,0A.08.08,0,0,1,20.07,41.83Zm.24.42,0,0-.09-.09.08-.07s0,0,0,0A.48.48,0,0,1,20.31,42.25Zm.11,1.33v0s0,0,0,0h0S20.43,43.57,20.42,43.58Zm.28-.22,0,0s0,0,0,0,0,0,0,0S20.73,43.35,20.7,43.36Zm.18.41s0,0,0,0,0,0,0,0v0S20.89,43.78,20.88,43.77Zm.72.49v0s0,0,0,0h0S21.63,44.25,21.6,44.26Zm.09,0a.09.09,0,0,1,.13,0A.08.08,0,0,1,21.69,44.29Zm1.5,1.87a.08.08,0,0,1-.12,0l.09-.09C23.21,46.08,23.19,46.12,23.19,46.16Zm.12-.9a.07.07,0,0,1-.1,0s0,0,0,0a.07.07,0,0,1,.1,0Zm.11,1v0s0,0,0,0h0S23.43,46.21,23.42,46.22Zm.17.5s0,.05-.06.07-.05-.09,0-.13,0,0,.07,0S23.6,46.71,23.59,46.72Zm2.7,1.81h0s0,0,0,0v0S26.26,48.54,26.29,48.53Zm-2.4-1.63h-.06s0,0,0-.12h.06C23.93,46.84,23.93,46.84,23.89,46.9Zm.25.1v0s0,0,0,0h0S24.15,47,24.14,47Zm.05.19s0,0,0,0v0s0,0,0,0S24.2,47.19,24.19,47.19Zm.15-.93a.07.07,0,0,1,.1,0s0,0,0,0a.06.06,0,0,1-.1,0S24.34,46.27,24.34,46.26Zm.1,1.4a.07.07,0,0,1-.1,0v0h0a0,0,0,0,1,.05,0h0S24.45,47.66,24.44,47.66Zm0-.46,0,0s0,0,0,0h0S24.51,47.19,24.48,47.2Zm.15.69c-.06,0-.06,0-.12,0v-.06c.07,0,.07,0,.12,0Zm.18.66a.09.09,0,0,1,.13,0C24.89,48.6,24.86,48.6,24.81,48.55Zm.17-.17a.07.07,0,0,1-.1,0,0,0,0,0,1,0,0H25S25,48.38,25,48.38Zm.32,0,0,0h0s-.06,0-.07,0,0,0,0-.06l0,0,0,0s.06,0,.07,0S25.32,48.35,25.3,48.37Zm.1-.82s-.09,0-.13.06-.07,0-.1,0l.11-.09h.11l0,0Zm.05.61s0-.06,0-.1a.11.11,0,0,1,.05-.09C25.47,48.06,25.5,48.12,25.45,48.16Zm.3,0s0-.05-.07-.07,0,0,0,0,0,0,0,0h0S25.78,48.12,25.75,48.17ZM26,48s0,0,0,0,0,0,0,0v0S26,48,26,48Zm.31,1.39a.08.08,0,0,1,0,.12Q26.21,49.42,26.29,49.36Zm.05.59s0,0,0,0,0,0,0,0l0,0S26.35,50,26.34,50Zm2.05.44,0,0s0,0,0,0,0,0,0,0S28.38,50.39,28.39,50.39Zm-1.27-1.27a.08.08,0,0,1,0-.12Q27.2,49.06,27.12,49.12Zm.54,1a.4.4,0,0,1-.11,0s0,0,0,0L27.6,50l.09.09S27.67,50.08,27.66,50.08Zm0-.24a.08.08,0,0,1,0-.12Q27.74,49.78,27.66,49.84Zm.33.94,0,0s0,0,0,0h0S28,50.77,28,50.78Zm.19,0s0,0,0,0-.06.05-.12,0l.05-.06,0,0S28.18,50.78,28.18,50.8Zm.22,0a.06.06,0,0,1-.1,0v0h.1S28.41,50.78,28.4,50.78Zm.14.35s-.08,0-.13,0l.07-.06s0,0,0,0a.06.06,0,0,1,0,0S28.54,51.12,28.54,51.13Zm.14.87,0,0s0,0,0,0,0,0,0,0S28.71,52,28.68,52Zm.57-.26,0,0s0,0,0,0h0S29.25,51.73,29.25,51.74Zm.05.48v0s0,0,0,0h0S29.31,52.21,29.3,52.22Zm.53,0s0,0,0,0l0,0s0,0,0,0S29.84,52.17,29.83,52.17Zm.05-.35a0,0,0,0,1,0,0s0,0,0,0h0S29.91,51.81,29.88,51.82Zm.41.53v0s0,0,0,0l0,0S30.31,52.36,30.29,52.35Z" style="fill:#281e53"/><path d="M36.6,43.06s0,0,0,0h0s0,0,0,0Z" style="fill:#281e53"/><path d="M27.5,50h0A22.5,22.5,0,0,1,5,27.5H5A22.5,22.5,0,0,1,27.5,5h0A22.5,22.5,0,0,1,50,27.5h0A22.5,22.5,0,0,1,27.5,50Z" style="fill:#fffa0c"/><path d="M23,22a4,4,0,0,0-4,4v6a4,4,0,0,0,8,0V26A4,4,0,0,0,23,22Zm1,10a1,1,0,0,1-2,0V26a1,1,0,0,1,2,0Z" style="fill:#28282a"/><path d="M40,16H36V12.5A12.77,12.77,0,0,0,23,0,12.77,12.77,0,0,0,10,12.5V16H6a6,6,0,0,0-6,6V42a6,6,0,0,0,6,6H40a6,6,0,0,0,6-6V22A6,6,0,0,0,40,16ZM13,12.5A9.77,9.77,0,0,1,23,3a9.77,9.77,0,0,1,10,9.5V16H31V12.5A7.77,7.77,0,0,0,23,5a7.77,7.77,0,0,0-8,7.5V16H13Zm15,0V16H18V12.5A4.77,4.77,0,0,1,23,8,4.77,4.77,0,0,1,28,12.5ZM40,45H6a3,3,0,0,1-3-3H43A3,3,0,0,1,40,45Zm3-6H3V22a3,3,0,0,1,3-3H40a3,3,0,0,1,3,3Z" style="fill:#28282a"/></g></g></svg>