<svg xmlns="http://www.w3.org/2000/svg" viewBox="0 0 53 52.5"><title>security_1</title><g id="f38a6cf3-cef4-46c0-a670-c0b60e7aa143" data-name="Layer 2"><g id="be19dcbe-26c0-4940-baa1-8a40828bab0e" data-name="Working Layer"><path d="M16.06,22.6s0,.06.06.06S16.1,22.61,16.06,22.6Z" style="fill:#281e53"/><path d="M30.67,41a0,0,0,0,0,0,0l0,0h.06s0,0,0-.06Z" style="fill:#281e53"/><path d="M30.53,40.8a0,0,0,0,1,0,0l0,0c.06,0,.08,0,.1-.06h-.11Z" style="fill:#281e53"/><path d="M30.34,51.4s-.07,0-.06,0v0l-.09-.09s-.07,0-.11,0a.08.08,0,0,1,.08,0l-3.51-3.51v0h-.06c0-.05-.05-.05,0-.1L23,44.06h0s0,0,0,0h0l-.63-.62,0,0s0,0,0,0a0,0,0,0,1,0,0l-2.59-2.58,1.05-1.06L24,43h0l3,3h.12s0,0,0,0h-.08l6.25,6.26c.33,0,.66-.09,1-.15h0c.06,0,.06,0,.12,0l.78-.15-.16-.16,0,0s0-.07,0-.11L35,51.72l0,0-.06,0h0c-.05-.06-.05-.06,0-.13h0l-3.24-3.24h0a.08.08,0,0,1-.07,0s0,0,.06,0l-3.68-3.68s-.08,0-.09,0v0a.05.05,0,0,1,0,0l-5.95-6,1.05-1,7.32,7.33v0s.07,0,.08,0,0,0,0,.06l.47.48a.32.32,0,0,1,0-.17s.05,0,.07,0l.09.09a1.22,1.22,0,0,1,0,.27l2.66,2.66h0l0,0s0,0,0,0h0l3.27,3.28c.56-.17,1.12-.35,1.66-.56L31,43.45l0,0h-.12l-.06.06s0,0,0,0a0,0,0,0,1,0,0l.12-.12L29.53,42h0l-.15-.14h0L28.05,40.5v.07s0,0,0,0l0,0v-.11h0l-4-4,1-1,5.4,5.4h0v-.05l0,0a.17.17,0,0,1,.14,0s0,0,0,0h0a.24.24,0,0,1,.09.08V41c.06,0,.08.06.06.1l0,0h-.06l.78.78h0c.08,0,.08,0,.08.07v0l1.48,1.48h0L40,50.39h0s0,0,0,0,0,0,0,0h0s0,0,0,0c.47-.22.93-.46,1.39-.72l-.69-.69h0s0,0,0,0l-.37-.37a0,0,0,0,1,0,0s0,0,0,0,0,0,0,0h0l-.57-.57h0s0,0,0,0L26.35,34.48h0s0,0,0,0l-.15-.16,1-1L28.9,35l0,0s0,0,0,.07l7.55,7.56s0-.09,0-.14v0l0,0h.19s0,0,0,0l0,0s0,.11,0,.19l0,0,1.8,1.8h0s0,0,0,0l4.11,4.12,0,0a.25.25,0,0,1,0,.08l.15.15c.45-.3.89-.61,1.32-.94L28.32,32.15l.14-.14h-.05l.11-.09h.05l.77-.77,2.7,2.7h.06l0,0,0,0h0L45.23,47c.4-.35.79-.71,1.17-1.09l.33-.34s0,0-.08,0,0-.06,0-.07,0,0,.06,0l0,0h0a23,23,0,0,0,4-5.85L46.54,44l.06,0s-.07,0-.11,0l-1,1-1-1,1.65-1.65,0,0h0l3.07-3.06,0,0a0,0,0,0,1,0,0,.06.06,0,0,1,.09,0l2.25-2.25s0,0,0,0a.11.11,0,0,1,0,0s0,0,0,0v0l0,0,0,0,0,0h0v0l.51-.51a22.7,22.7,0,0,0,.57-2.47h0s-.07,0-.06,0,0,0,0,0h0c0-.12,0-.23,0-.35l-.59.59,0,0,0,0,0,0-.75.75h.17l0,0-.08.08h-.12c0-.05,0-.05,0-.1l-8,8-1-1L53,31.17q0-.59,0-1.17T53,29l-.79.79a0,0,0,0,0,0,0s0,.08,0,.13,0-.05-.06-.06v0L50,31.91s0,0,0,0l0,0a0,0,0,0,1,0,0S50,32,50,32L45,36.9h0a0,0,0,0,1,0,0A.05.05,0,0,1,45,37l-3.74,3.73h0s0,0,0,0h0l-1-1L48.82,31a.08.08,0,0,1,0-.08l0,0,1.51-1.51v0s.06,0,.08,0L52.8,27c-.08-.64-.19-1.26-.32-1.87l-1.69,1.68v0s0,.07,0,.06l0,0L39.06,38.57l-1.06-1,3.7-3.7h-.05l0,0,0,0h0s0,0,0,0h0l.13-.13a.07.07,0,0,0,0-.05l0,0h0L43,32.52s0,0,0-.06a.11.11,0,0,1,0-.09s0,.07,0,.1l.86-.87,0,0s0,0-.06-.06.09-.05.13,0,0,0,0,.05l.94-.93a1.06,1.06,0,0,0-.11-.09l.08,0a.17.17,0,0,1,.08.06l6.24-6.24a.07.07,0,0,1,0-.12l.06.06.8-.8c-.17-.55-.35-1.09-.56-1.62L40.72,32.63h.09l0,0v.17l0,0-.06-.06h-.12l0,0L39,34.32h0s0,.07,0,.1l0,0-2.05,2-1.06-1.07,4.75-4.75s0,0,0,0h0l2.73-2.74s0,0,0,0h0l7.45-7.46c-.23-.48-.48-1-.74-1.42l-5.39,5.4a0,0,0,0,1,0,0s0,0,0,0l0,0h0l-.39.4v0s0,0,0,0h0v0l-2.61,2.62h.05l0,0s0,0,0,0h-.11l-4.68,4.69s0,0,0,0v0l0,0-2.11,2.11-1.08-1.07,8.89-8.89h0l.06,0s0-.07,0-.09l0,0h0l.54-.54h0l0,0h0l6-6c-.29-.43-.58-.85-.89-1.26l-2.06,2.06s0,0,0,0h0s0,0,0,0l-2.47,2.47h0l0,0,0,0s0,0,0,0a0,0,0,0,1,0,0L41.36,23.4a.09.09,0,0,1,0,.11l-.05-.05L32.8,32l.06,0v.06c-.06,0-.06,0-.13,0v0l-.11.11-1.08-1.08.83-.83s0,0,0,0a.71.71,0,0,1-.07-.09s0-.07,0-.1l.12.12v0l15-15c-.33-.37-.67-.74-1-1.09a22.72,22.72,0,0,0-5.93-4.25l5.09,5.08-.42.42h0l-.66.65-.94-1h0L43.43,15v0l-2.49-2.49s-.07,0-.11,0v-.07l-.06,0,0,0L36.93,8.43a23.7,23.7,0,0,0-2.8-.64L35.33,9h.07l0,0s0,0,0,0l0,0,8,8-1.06,1.06L34.5,10.3s0,0,0,0h0L31.74,7.53h-.22s-.05,0-.08,0a0,0,0,0,1,0,0h-.37l0,0h0l0,0h-.5l-.95,0,2.84,2.85,0,0h0l1,1a.24.24,0,0,1,.08-.06c.07,0,.09.05.14.09v.06l-.06.06,7.53,7.53h0s0,0,0,.05l.12.11-1.06,1.06L34.1,14.19s-.08,0-.1,0v0h.05L27.7,7.78h-.11s0,0,0,0h0l0,0-.4,0v0s0,0-.05,0h0l0,0c-.47.07-.93.15-1.38.25l6.64,6.65v0s0,0,0-.05,0,0,0,0a.13.13,0,0,0,.06.05v.14l4.5,4.5s0,0,0,0a.08.08,0,0,1,.08,0l.09.08s-.06,0-.1,0l2,2,0,0,0,0a0,0,0,0,1,0,0s0,0-.07,0l-1,1-4.26-4.26h0l-9.7-9.7c-.56.16-1.11.35-1.65.56l3.79,3.79s0,0,0,0,0,0,0,.05h0l1.31,1.31s.06,0,.07,0l0,0,9.33,9.33L36.5,24h0l-.14.14,0,0,0,0s0,0,0,0l-.44.44-3.36-3.36s0,0,0,0l0,0h0c0-.06,0-.06,0-.12a0,0,0,0,0,0,0L23.3,12l0,0s-.06,0-.07,0,0,0,0-.05L21,9.62l-.95.47s0,.08,0,.11-.07.07-.09.11l-.09-.09v0l-.36.2L30.77,21.66h0s0,0,0,0,0,0,0,0l4,4-1,1-.21-.21h0s0,0,0,0l-7.11-7.12-.06.06c-.05,0-.06-.06-.09-.08v-.13h0L26,19A.07.07,0,0,1,26,19a0,0,0,0,1,0,0h0L18.2,11.16q-.68.43-1.32.93l6.78,6.78.05,0,.09.09-.05,0,8.88,8.88-1,1-6.33-6.33h0a.07.07,0,0,1,0-.06l-6-6s0,0-.07,0h0l-.81-.81h0s0,0,0,0h0L15.76,13l-.37.33h0v0h0c-.26.24-.52.48-.78.74a23.28,23.28,0,0,0-3.45,4.44s0,0,0,.06l0,0s0,0,0,.05,0,0,0,0h0l-.07.06s0,0,0,0c-.23.4-.45.81-.66,1.22l.78-.77a0,0,0,0,1,0,0l0,0h0l4.21-4.21a.17.17,0,0,1,0-.07s0,0,0,0l.09.09s0,.07,0,.09h0l1,1-.66.65s0,0,0,.05a.07.07,0,0,1-.08,0l-2.85,2.85v0H13s0,.06,0,.12-.07-.06-.09-.12h0l-1.74,1.74a0,0,0,0,1,.05,0l0,0v0a.06.06,0,0,1-.1,0h0L9,23.51c-.1.35-.2.71-.29,1.07h0s0,0,0,.06,0,0,0,.05h0l0,0,0,0,0,0a0,0,0,0,1,0,0s0,0,0-.05h-.1c-.13.55-.25,1.11-.34,1.68l3.08-3.08s0,0,0,0h0l6.14-6.14,1.07,1.06-4.55,4.55v0h0L12.45,24.3h0s0,0,0,0h0L8,28.71c0,.43,0,.86,0,1.29s0,.61,0,.91l7-7a0,0,0,0,1,0,0,.11.11,0,0,1,0-.05s0,0,0,0v0s0,0,0,0l0,0s0,0,0,0h0v0l4.67-4.67,1.05,1.06L17.07,24s0,0,0,.06a.08.08,0,0,1,0,.07A.07.07,0,0,1,17,24l-4.82,4.82s0,0,0,0,0,0,0,0,0,0,0,0l-4,4c.05.41.12.81.19,1.21h0l0,0s0,0,0,0l0,0,.12.61L21.86,21.38l1.05,1-4.27,4.27s0,0,0,0l0,0s0,0,0,0-.06,0-.08,0L16,29.32h.07s0,0,0,.05a.06.06,0,0,1,0,.07.2.2,0,0,0-.06.07L16,29.44a.08.08,0,0,1,0,0L12.32,33a0,0,0,0,1,0,0s0,0-.05,0l-3,3h0l0,0s0,0,0,0-.06,0-.08,0l-.31.31,0,.11.1-.1h.13s0,.05,0,.08l-.07.07v.06c0,.05-.09,0-.14,0v0l.12.38a0,0,0,0,1,0,0h0s0,0,0,0,.09.27.14.4h0s0,0,.05,0,0,0,0,.05,0,0,0,0,0,0,0,0c.06.17.12.35.19.52l6.4-6.41s0,0,0,0v0h0l2.55-2.55L18.39,29l.08,0s.05,0,.06.05l1.2-1.2h0s0,0,0,0h0l1.47-1.46-.06-.07s0,0,0-.05h.11l0,0L24,23.53l1,1-4.88,4.88s0,.05,0,.11H20.1l0,0-1.23,1.23s0,0,0,0v0s0,0,0,0l-.8.8h0a0,0,0,0,1,0,0l0,0s0,0-.07,0l-.05.07,0,0-.57.57a0,0,0,0,1,0,0l0,0s0,0,0,0a.06.06,0,0,1-.1,0h0l-7.21,7.21c.23.51.48,1,.75,1.48l.77-.76v0h0s0,0,0,0l5.55-5.55h0s0,0,0,0h0l1.11-1.11h0s0,0,.05,0l7.78-7.78,1,1-.87.87a.05.05,0,0,1,0,0s0,0-.06,0h0L19.4,34.51h0l-.05,0-5.51,5.52,0,0s-.05,0-.09,0h0l-2.16,2.16q.43.67.93,1.32l7.09-7.09h0s0,0,0,0l8.63-8.63,1,1-.28.29h0l0,0s0,0,0,0-.08,0-.1,0h0l-2.37,2.37s0,0,0,0l0,0h0l-1.87,1.87,0,0v.06l-.15.15h-.1l-1.69,1.69h0s0,0,0,0h0l-.87.87s0,0,.08,0v.06c0,.05,0,.05-.11,0v0l-.27.26s0,0,0,0,0,0,0,0,0,0,0,0l-1.71,1.72,0,0,0,0,.07-.06H20l.07,0c.05,0,0,.09,0,.14s0,0-.05,0H20a.14.14,0,0,1-.16,0s0,0-.05,0a.14.14,0,0,0,0-.09h0l-.62.62h0a.06.06,0,0,1,0,.1h0s0-.05,0-.07l-1.39,1.38a.09.09,0,0,1,0,.08l0,0-2.85,2.85s0,0,0,0v0s0,0,0,0l-1.38,1.38c.35.4.72.8,1.1,1.18a22.12,22.12,0,0,0,3.25,2.69h0l0,0a22.7,22.7,0,0,0,2.62,1.53l-2.82-2.81h-.12l0,0,.06-.06-2.07-2.07s-.07,0-.08,0v0l0,0,0,0L16.47,44l3.09,3.09h0l.06,0,0,0,2.64,2.64,0,0a.1.1,0,0,1,0,.1l.66.66h0l0,0,0,0s0,0,0,0h0l1,1a22.44,22.44,0,0,0,2.81.65l-7.45-7.45-.05,0,0,0s0,0,0-.05l0,0-1.77-1.77,1.07-1.07L23.74,47a0,0,0,0,0,0,0,.07.07,0,0,1,.11,0s0,0,0,.07l.05.07-.06,0,5.38,5.37c.42,0,.84,0,1.27,0l.92,0-1.07-1.07Zm1.23-1s0,0,0,0h0s0,0,0,0Zm1.28.34-.08.08s0,0,0,0a.88.88,0,0,1,0-.23s0,0,0,0v0a.13.13,0,0,1,0,.06l.05.05Zm.63,1.34v0s0,0,0,0,0,0,0,0S33.51,52.11,33.48,52.12Zm.05-.12v0s0,0,0,0h0S33.55,52,33.53,52Zm.8-.42h.18s0,.05.06.06,0,0,0,0a.06.06,0,0,1,0,0h0l-.07-.05h-.11l0,0Zm-.84-1.24h0s0,0,0,0h0S33.48,50.33,33.49,50.34Zm0,.29c.05,0,0,.06,0,.08l.06.07-.1,0-.06,0h-.06l0-.06A.86.86,0,0,1,33.48,50.63Zm-.19,1.22v0s0,0,0,0l0,0S33.28,51.86,33.29,51.85Zm-.11-1.29a.08.08,0,0,1,0,.13A.09.09,0,0,1,33.18,50.56ZM33,50.5l.06.06s0,.06,0,.12H33l0,0S33,50.54,33,50.5Zm-.09-.08s0,0,0,0l0,0s0,0,0,0S32.9,50.44,32.92,50.42Zm-.05,0s0,0,0,0,0,0,0,0v0h0S32.86,50.48,32.87,50.46Zm-.26-.52s0,0,.08,0,0,0,.07,0a.07.07,0,0,1,.1,0V50a.56.56,0,0,1-.22,0S32.62,50,32.61,49.94Zm-.1.89v0s0,0,0,0v0S32.5,50.84,32.51,50.83Zm0-.18,0,0h0a.06.06,0,0,1,0-.1h0v0A0,0,0,0,1,32.49,50.65Zm-.14-1.17h.11l0,0-.09.09-.07-.08S32.32,49.5,32.35,49.48Zm-.5-.39s0,0,0,0,0,0,0,0h0S31.84,49.1,31.85,49.09Zm0,1.67h0s0,0,0,0h0S31.86,50.75,31.87,50.76Zm-.08-1.85v0s0,0,0,0h0S31.78,48.92,31.79,48.91Zm-.34.57.05,0h.06s0,0,0,.09l0,0a.17.17,0,0,1-.14,0s0,0,0,0Zm-.05,0s0,0,0,0,0,0,0,0h0v0S31.38,49.43,31.4,49.44Zm-.15-.95s0,0,0,0,0,0,0,0v0S31.24,48.5,31.25,48.49Zm-.3.9v0s0,0,0,0v0S30.94,49.4,31,49.39Zm-.06-1.62s0,0,0,0,0,0,0,0v0S30.88,47.78,30.89,47.77Zm-.13.89h0s0,0,0,0v0S30.76,48.68,30.76,48.66Zm0-1.16a.09.09,0,0,1,0,.13A.08.08,0,0,1,30.73,47.5Zm-.44,1.35v0s0,0,0,0l0,0S30.28,48.86,30.29,48.85Zm-.06-1.26s0,0,0,0,0,0,0,0l0,0S30.22,47.6,30.23,47.59Zm-.95.1h.06c.05.05.05.05,0,.11h-.06S29.25,47.75,29.28,47.69Zm-.07.24s0,0,0,0h0s0,0,0,0Zm-.54-2.44s0,0,0,0,0,0,0,0h0S28.66,45.5,28.67,45.49Zm0,.18s0,0,0,0,0,0,0,0v0S28.66,45.68,28.67,45.67Zm-.6-.3v0s0,0,0,0v0S28.06,45.38,28.07,45.37ZM28,46.74l0,0h.09a.08.08,0,0,1,0,.12h-.07s0,0-.06-.06S28,46.76,28,46.74Zm-.54-2.15s0,0,0,0,0,0,0,0h0S27.46,44.6,27.47,44.59Zm-.6.66a.71.71,0,0,1,.07-.09H27a0,0,0,0,1,0,0l-.14.15S26.84,45.28,26.87,45.25ZM26.71,45l0,0s0,0,0,0h0S26.7,45,26.71,45Zm-.09.32s0,0,0,0a.06.06,0,0,1,0,.05s0,0,0,0-.08,0-.13,0S26.6,45.34,26.62,45.31Zm-.33-1.11a.09.09,0,0,1,0,.13C26.24,44.28,26.24,44.25,26.29,44.2Zm-.24.08h0s0,0,0,0h0S26,44.27,26.05,44.28Zm-.42-.54h0s0,0,0,0h0S25.62,43.73,25.63,43.74Zm-.08.61v0s0,0,0,0l0,0S25.54,44.36,25.55,44.35Zm-.1-.85h0s0,0,0,0v0S25.44,43.49,25.45,43.5Zm-.72-1.33v0s0,0,0,0v0S24.7,42.18,24.73,42.17Zm-.24,1v0s0,0,0,0v0S24.46,43.2,24.49,43.19Zm-1.16-2.08,0,0s0,0,0,0,0,0,0,0S23.32,41.12,23.33,41.11Zm-.12.72s0,0,0,0,0,0,0,0l0,0S23.2,41.84,23.21,41.83Zm-.08-1.31,0,0h0c0,.06,0,.06,0,.12s-.06,0-.07,0S23.11,40.54,23.13,40.52Zm-.38.45h0s0,0,0,0,0,0-.06,0h0l0,0Zm-.24-.35h0s0,0,0,0h0S22.5,40.61,22.51,40.62Zm-.24.48h0s0,0,0,0h0S22.26,41.09,22.27,41.1Zm-.12-1.75,0,0s0,0,0,0v0S22.12,39.36,22.15,39.35Zm-.2.8s0,0,0,0,0,0,0,0l0,0S21.94,40.16,22,40.15Zm-.06.54s0,0,0,0,0,0,0,0v0S21.88,40.7,21.89,40.69Zm-.52-.5s0,0-.06.06,0-.09,0-.13.05,0,.07,0S21.38,40.17,21.37,40.19Zm.11-.79v0s0,0,0,0l0,0S21.51,39.39,21.48,39.4Zm0-.32s0,0,0,0,0,0,0,0h0S21.51,39.07,21.5,39.08Zm.31.48a.06.06,0,0,1-.1,0,0,0,0,0,1,0,0s.08,0,.1,0A0,0,0,0,1,21.81,39.56Zm15.4,11.07a.08.08,0,0,1,0,.12l-.09-.09S37.17,50.63,37.21,50.63ZM37,49.7s0,0,0,0l.09.09-.07.05s0,0,0,.06,0,0,0,0A1,1,0,0,1,37,49.7Zm0,1.41,0,0s0,0,0,0h0S37,51.11,37,51.11Zm0,.31h0a.06.06,0,0,1,0,.1h0A.06.06,0,0,1,37,51.42Zm-2.27-2.25h0s0,0,0,0l0,0S34.69,49.18,34.68,49.17Zm1.2,1.33,0,0s0,0,0,0,0,0,0,0S35.91,50.49,35.88,50.5Zm.25-.35v0s0,0,0,0v0S36.1,50.16,36.13,50.15ZM36,48.55a.08.08,0,0,1-.13,0A.09.09,0,0,1,36,48.55Zm-.28,1.29.09.09s0,0-.09,0A.08.08,0,0,1,35.7,49.84Zm-.25-1.77v0s0,0,0,0,0,0,0,0S35.44,48.08,35.45,48.07Zm.11,1.2c-.05,0-.08,0-.13,0A.09.09,0,0,1,35.56,49.27ZM35.23,49h0s0,0,0,0v0S35.2,49,35.23,49Zm-.44-1.3v0s0,0,0,0v0S34.78,47.72,34.79,47.71Zm0,.24s0,0,0,0,0,0,0,0,0,0,0,0S34.78,48,34.79,48Zm0-.12a0,0,0,0,1,0,0s-.08,0-.1,0a0,0,0,0,1,0,0h0a0,0,0,0,1,.05,0Zm-.22-.43h.1a0,0,0,0,1,0,0l0,0,0,0,0,0h0s0,.07-.09,0a0,0,0,0,1,0,0Zm-.12.08-.08,0c-.06,0-.08-.07-.13-.1l.08,0C34.36,47.4,34.38,47.45,34.43,47.48Zm-.25-.42s0,0,0,0l0,0,0,0S34.16,47.08,34.18,47.06Zm0,0s0,0,0,0,0,0,0,0v0h0S34.12,47.12,34.13,47.1Zm-.1-.61,0,0s0,0,0,0v0S34,46.5,34,46.49Zm-.26.2s0,0,0,0,0,0,0,0v0S33.76,46.7,33.77,46.69Zm-.06.6s0,0,0,0,0,0,0,0h0S33.7,47.3,33.71,47.29Zm0-1h0s0,0,0,0,0,0,0,0S33.64,46.26,33.67,46.25Zm0,.42,0,0s0,0,0,0v0S33.64,46.68,33.67,46.67ZM31,44.18c-.05,0,0,.11-.07.15l-.09-.09c0-.05.06-.06.08-.09H31S31.06,44.18,31,44.18Zm.63,1.34v0s0,0,0,0h0S31.69,45.52,31.67,45.52Zm0-.15a0,0,0,0,1,0,0h0s0,0,0,0,0,0,0,0S31.72,45.36,31.71,45.37Zm.11,0h-.1c0-.06,0-.08.09-.06a0,0,0,0,1,0,0Zm1.66,2.31s0,0,0,0h0s0,0,0,0Zm-.2-1.3a.09.09,0,0,1-.13,0A.08.08,0,0,1,33.28,46.34Zm-.34.86s.08,0,.09,0l-.09.09S32.91,47.25,32.94,47.2Zm-.12-.34s0,0,0,0h0s0,0,0,0Zm0-1.6a.09.09,0,0,1-.13,0A.08.08,0,0,1,32.8,45.26Zm-.21.16h0s0,0,0,0h0S32.58,45.41,32.59,45.42Zm0,1c0,.06-.09,0-.15,0l0,0a0,0,0,0,1-.05,0s0,0,0,0,0-.1,0-.14l.07,0h0l.07,0Zm-.15-.32a.05.05,0,0,1,0,.09.34.34,0,0,1-.08.09h-.06l-.09-.09s0-.06,0-.07,0,0,.06,0l.07,0Zm-.09-.57s0,0-.07,0,0,0-.06,0,0,0,0,0,0,0,0-.06l.08-.07S32.28,45.47,32.31,45.5Zm-.1-.49s0,0,0,0,0,0,0,0l0,0S32.2,45,32.21,45Zm-.09-.25s0,0,0,0h0s0,0,0,0l0,0s0,0,0,0v0h-.06C32.08,44.76,32.09,44.74,32.12,44.76Zm-.09.06s0,0,0,0,0,0,0,0a0,0,0,0,1,0,0h0S32,44.84,32,44.82Zm-.13,1.39s0,0,.05,0h0l0,0,0,0h0S31.89,46.23,31.9,46.21Zm-.25-1.37s0,0,.05,0a.06.06,0,0,1,.07,0l.07.07-.09.08c-.05,0-.06-.07-.1-.08Zm0,1.37v0s0,0,0,0h0S31.6,46.22,31.61,46.21Zm-.09-1.64v0s0,0,0,0h0S31.5,44.57,31.52,44.57Zm-.18,1s0,0,0,0,0,0,0,0,0,0,0,0S31.35,45.61,31.34,45.62Zm0-.48s-.08,0-.1,0v0s.08,0,.1,0Zm-.08-.33s0,0,0,0,0,0,0,0,0,.07,0,.06,0,0,0-.05,0,0,0,0Zm-.38-1c.07,0,.14,0,.2,0l.06-.05.09.08V44h-.33s0-.05,0-.08Zm-.09-.24h0s0,0,0,0h0S30.78,43.61,30.8,43.62Zm-1-.08s0,0,0-.06,0,0,0,0l0,0s0,0,0,0a0,0,0,0,1,0,0S29.8,43.53,29.77,43.54Zm0-.5s0,0,0,0h0s0,0,0,0Zm.92,1.23s.08,0,.09,0l-.09.08C30.62,44.33,30.62,44.33,30.66,44.27Zm-.16.52h0s0-.08,0-.1,0,0,0,0S30.53,44.77,30.5,44.79Zm-.1-1.37c.06,0,.08.07.12.1v0a.07.07,0,0,1-.1,0l-.15-.14C30.31,43.4,30.36,43.44,30.4,43.42Zm-.18,1.23s.08,0,.1,0v0a.06.06,0,0,1-.1,0Zm-.29-2a0,0,0,0,1,0,0s0,0,0,0v0S29.92,42.68,29.93,42.67Zm0,1.25s0,0,0,0,0,0,0,0l.07,0s0,.05,0,.06,0,0,0,0-.1,0-.14-.07V44s0,0,.05-.05S29.88,43.91,29.9,43.92Zm-.17-1.3c.05,0,.06,0,.12,0s-.06.07-.12.09Zm0,.1s0,0,0,0,0,0,0,0a0,0,0,0,1,0,0h0S29.68,42.74,29.69,42.72Zm-.22.23s0,0,0,0,0,0,0,0h0S29.44,43,29.47,43Zm0,1a.08.08,0,0,1-.13,0A.09.09,0,0,1,29.5,43.93Zm-.35-1.56v0s0,0,0,0v0S29.14,42.38,29.15,42.37Zm0,.7,0,0s0,0,0,0,0,.07,0,.06,0,0,0,0,0,0,0,0S29.1,43.07,29.11,43.07Zm-.06-.23,0,0s0,0,0,0h0S29,42.83,29.05,42.84Zm-.08.67s0,0,0,0,0,0,0,0h0S29,43.52,29,43.51Zm-.28-.74s0,0,0,0,0,0,0,0h0S28.66,42.78,28.69,42.77ZM28,40.83l.14.15s0,0,0,0,0,0,0,0h0L28,41l0,0Zm0,.71v0s.09,0,.15,0,0,.1,0,.12h-.06s0,0-.06,0S28,41.56,28,41.54Zm-.05,0s0,0,0,0,0,0,0,0v0h0S27.94,41.6,28,41.58Zm0,.3h0s0,0,0,0v0S28,41.87,28,41.88Zm-.14-1.25s0,0,0,0,0,0,0,0,0,0,0,0S27.82,40.64,27.83,40.63Zm-.24.11s0,0,0,0h0s0,0,0,0Zm0,.59,0,0s0,0,0,0v0S27.52,41.34,27.55,41.33Zm-.1-.69,0,0s0,0,0,0a0,0,0,0,0,0,0c-.05,0-.05,0-.11,0Zm-.32-.7s.06,0,.07,0,0,0,0,.06l0,0h0C27.08,40,27.08,40,27.13,39.94Zm-.62-.88h0s0,.08,0,.1h0S26.48,39.08,26.51,39.06ZM26,38.68s.06,0,.07,0,0,0,0,.06l0,0h0C26,38.74,26,38.74,26,38.68Zm-.54-.16h0s0,0,0,0h0S25.44,38.51,25.45,38.52Zm-.26,1.27s0,0,0,0,0,0,0,0l0,0S25.18,39.8,25.19,39.79Zm-.1-1.39h0s0,0,0,0h0S25.08,38.39,25.09,38.4Zm-.54-.78h0s0,0,0,0h0S24.54,37.61,24.55,37.62Zm-.08.37s0,0,0,0,0,0,0,0l0,0S24.46,38,24.47,38Zm-.3.29s0,0,0,0,0,0,0,0,.05.08,0,.13,0,0-.06-.06S24.16,38.3,24.17,38.28ZM40.6,48.85a.06.06,0,0,1,.1,0v0s-.08,0-.1,0Zm0,1.06s0,.08,0,.1h0a.06.06,0,0,1,0-.1S40.57,49.92,40.57,49.91Zm-.14-.12s.08,0,.11,0a.31.31,0,0,1-.09.07,0,0,0,0,1-.05,0l0,0C40.36,49.79,40.36,49.79,40.43,49.79Zm-.28.31a.71.71,0,0,1,.09.07s-.07,0-.1,0a.71.71,0,0,1-.09-.07S40.12,50.07,40.15,50.1Zm-.43-.67s0,0,0,0h0s0,0,0,0Zm-.35-.11h0s0,0,0,0h0S39.36,49.31,39.37,49.32Zm-.12-1.8h0s0,0,0,0h0S39.24,47.51,39.25,47.52Zm-.06.35,0,0s0,0,0,0h0S39.18,47.87,39.19,47.87Zm0,1.43a.09.09,0,0,1,0,.13A.08.08,0,0,1,39.19,49.3Zm-.25-1.66s0,0,0,0h0s0,0,0,0Zm-.49-.3h0s0,0,0,0v0S38.44,47.36,38.45,47.34Zm-.31-.78h0s0,0,0,0,0,0,0,0S38.14,46.58,38.14,46.56Zm0,.27v0c0-.05,0-.1,0-.14l.06,0c.05,0,0-.06,0-.09s0,0,.05,0v0l0,0,0,0,0,0h0v.15l-.14.14h-.05s0,0,0,0Zm-.31-.15h0s0,0,0,0h0S37.8,46.67,37.81,46.68Zm-.43-1s0,0,0,0h0s0,0,0,0Zm-.07-.18s0,0,0,0h0s0,0,0,0Zm-.1.36h0s0,0,0,0v0S37.18,45.84,37.21,45.83Zm-.26.73H37l0,0s0,0,0,0-.08,0-.1,0Zm-.52-1.51v0s0,0,0,0l0,0S36.4,45.06,36.43,45.05Zm-.22,1.23-.08.08s-.06-.06-.1-.08l.09-.1C36.22,46.19,36.22,46.19,36.21,46.28Zm-.14-1.71s0,0,0,0,0,0,0,0h0S36,44.58,36.07,44.57Zm-.09,1a.06.06,0,0,1,.1,0,0,0,0,0,1,0,0,.06.06,0,0,1-.1,0A0,0,0,0,1,36,45.55Zm-.17-.78s0,0,0,0,0,0,0,0h0S35.8,44.78,35.81,44.77Zm-.1.88h0s0,0,0,0,0,0-.06,0h0l0,0S35.69,45.66,35.71,45.65Zm-.21-1.48s0,0,0,0h0s0,0,0,0l0,0h0S35.49,44.19,35.5,44.17Zm0,.54,0,0s0,0,0,0v0S35.44,44.72,35.45,44.71Zm-.16-.25h0s0,0,0,0v0S35.28,44.45,35.29,44.46Zm0,.3h0s0,0,0,0v0S35.28,44.75,35.29,44.76Zm0-.11a.08.08,0,0,1-.13,0A.09.09,0,0,1,35.26,44.65Zm-.69-1.94v0s0,0,0,0l0,0S34.54,42.72,34.57,42.71Zm-.15.56s.08,0,.1,0,0,0,0,0-.08,0-.1,0Zm0,1.24h.06l.08.09,0,0s0,0-.05,0l-.09-.08S34.44,44.51,34.45,44.51Zm-.2-.16v0s0,0,0,0v0S34.24,44.36,34.25,44.35Zm-.12-1.62v0s0,0,0,0v0S34.12,42.74,34.13,42.73Zm-.22.7s0,0,0,0,0,0,0,0l0,0S33.88,43.44,33.91,43.43Zm0,.7s0,0,0,0H34s0,.06,0,.1a.07.07,0,0,1,0,.07.34.34,0,0,0-.06-.06A.06.06,0,0,1,33.88,44.13Zm-.29-.63h0a.06.06,0,0,1,0,.1h0A.06.06,0,0,1,33.59,43.5Zm-.34-.73,0,0s0,0,0,0h0S33.24,42.77,33.25,42.77Zm-.82-1.53,0,0s0,0,0,0v0S32.43,41.23,32.43,41.24Zm.32,1.19v0s0,0,0,0,0,0,0,0S32.74,42.44,32.75,42.43Zm-.07-1,0,0,0,0s0,0,0,0,0,0,0,.05,0,0,0-.06S32.67,41.48,32.68,41.48Zm0,.26a.08.08,0,0,1,0,.13A.09.09,0,0,1,32.64,41.74Zm-.23-.64h0s0,0,0,0h0S32.4,41.09,32.41,41.1Zm-.12.16s0,0,0-.06,0,0,0,0l0,0,0,0a0,0,0,0,1,0,0S32.32,41.25,32.29,41.26Zm0-.84s0,.08,0,.13-.08,0-.09,0Zm-.6,0h0s0,0,0,0,0,0,0,0S31.66,40.44,31.69,40.43Zm0,.25h0s0,0,0,0v0S31.68,40.67,31.69,40.68Zm-.06.83h0s0,0,0,0v0S31.6,41.52,31.63,41.51Zm-.16-.7.06.06s0,0,0,.06v0h0l-.15-.14C31.42,40.77,31.43,40.77,31.47,40.81Zm-.11-.29s0,0,0,0l0,0,0,0S31.34,40.54,31.36,40.52Zm-.05,0s0,0,0,0,0,0,0,0v0h0S31.3,40.58,31.31,40.56Zm-.17.82s0,0,.07.07,0,0,0,0a.06.06,0,0,1,0,0h0S31.11,41.43,31.14,41.38Zm-.35-2a.14.14,0,0,1,.11,0l0,0-.09.09s-.06,0-.07,0A.06.06,0,0,1,30.79,39.35Zm-.13-.43a.08.08,0,0,1,0,.13A.09.09,0,0,1,30.66,38.92Zm-2.68-1v0s0,0,0,0v0S28,37.87,28,37.88ZM30.23,40v0s0,0,0,0l0,0S30.22,40,30.23,40Zm-1.06-2.59h0s0,0,0,0h0S29.16,37.43,29.17,37.44Zm-.12.29v0s0,0,0,0,0,0,0,0S29,37.74,29.05,37.73Zm-1-.85s0,0,.06-.06.05.09,0,.13-.05,0-.07,0S28.07,36.9,28.08,36.88ZM28,36.36h0s0,0,0,0v0S28,36.35,28,36.36ZM28,37h0s0,0,0,0h0S28,37,28,37Zm0,.66h0s0,0,0,0h0S28,37.67,28,37.68ZM27.59,37h.07l0,0s0,0,0,0a.06.06,0,0,1-.1,0Zm-.18.07s0,0,0,0,0,0,0,0l0,0S27.4,37.1,27.41,37.09Zm-1.12-1.57h0s0,0,0,0h0S26.28,35.51,26.29,35.52Zm14.21,10h0s0,0,0,0,0,0,0,0S40.53,45.51,40.5,45.52Zm.49.06s0,0,0,0,0,0,0,0,0,0,0,0Zm2.06,2.56,0,0s0,0,0,0-.07,0-.06,0,0,0,.05,0h0S43.05,48.13,43.05,48.14Zm.63-.27h0v0a0,0,0,0,1,0,.05l0,0h0A.06.06,0,0,1,43.68,47.87Zm-.5-.29h0s0,0,0,0,0,0,0,0S43.18,47.6,43.18,47.58Zm-.24,0c.06,0,.06,0,.12,0v.06c-.07,0-.07,0-.12,0Zm-.18.36s0,0,.05,0h0l0,0,0,0h0S42.75,47.91,42.76,47.89Zm0,.16v0s0,0,0,0l0,0S42.7,48.06,42.73,48.05Zm0,.62s0,0,0,0,0,0,0,0v0S42.7,48.68,42.71,48.67Zm-.1-1.52h0s0,0,0,0,0,0-.06,0h0l0,0Zm0,1s0,0,0,0h0s0,0,0,0Zm-.1-.25v0s0,0,0,0l0,0S42.46,47.88,42.49,47.87Zm0,.12s0,0,0,0,0,0,0,0h0S42.46,48,42.49,48Zm-.26-1.3s0,0,0,0,0,0,0,0v0S42.22,46.7,42.23,46.69Zm-.1-.38h0s0,0,0,0v0S42.1,46.32,42.13,46.31Zm0,1.58v0s0,0,0,0l0,0S42.1,47.9,42.11,47.89ZM41.89,47a0,0,0,0,1,0,0s0,0,0,0h0S41.88,47,41.89,47Zm-.24.6h0s0,0,0,0h0S41.64,47.63,41.65,47.64Zm-.5-1.14s.05,0,.07,0l0,0,0,0a.07.07,0,0,1,0,.05s0,0,0,0l-.09-.08S41.12,46.51,41.15,46.5Zm-.07-1.13a.08.08,0,0,1-.13,0A.09.09,0,0,1,41.08,45.37Zm-.14.11s0,0,0,0h0v0S40.92,45.47,40.94,45.48Zm-.27-.66h0a0,0,0,0,1,.05,0l0,0a0,0,0,0,1,0,0s-.08,0-.1,0A0,0,0,0,1,40.67,44.82Zm-.05.88.07.06s.05,0,.07,0,0,0,0,0,0,0-.06.06h-.12c-.06,0,0-.11,0-.16S40.59,45.71,40.62,45.7Zm-.26-.87.06-.06a.06.06,0,0,1,.07,0s0,0,0,0v.12l-.08.08-.09-.08Zm0,.6v0s0,0,0,0,0,0,0,0S40.3,45.44,40.31,45.43Zm-.22-1.16h0s0,0,0,0,0,0,0,0S40.06,44.28,40.09,44.27Zm-.48-.12s0,0,0,0,0,0,0,0l0,0S39.58,44.16,39.61,44.15Zm-.43-.89s0,0,0,0h0s0,0,0,0Zm-.06.7a.08.08,0,0,1,0,.13A.09.09,0,0,1,39.12,44Zm-.7-1.55v0s0,0,0,0h0S38.4,42.41,38.42,42.41Zm-.37-.06v0s0,0,0,0v0S38,42.36,38.05,42.35Zm-.08.24s0,0,0,0h0s0,0,0,0Zm-.27-.72v0s0,0,0,0h0S37.68,41.87,37.7,41.87Zm0,.21a0,0,0,0,1,0,0l0,0a0,0,0,0,1,0,.05l.07.07v0c-.06,0-.06,0-.12,0A1,1,0,0,1,37.66,42.08Zm-.16.08a.08.08,0,0,1,0,.13A.09.09,0,0,1,37.5,42.16Zm-.12,0s0,0,0,0h0s0,0,0,0Zm-.06.88.09.09,0,0h-.23a.08.08,0,0,1,0-.11C37.19,43.05,37.26,43.07,37.32,43.06Zm-.26-2s0,0,0,0,.09,0,.09.08,0,.08,0,.11a.31.31,0,0,1-.07-.09A0,0,0,0,1,37.06,41.07Zm-2.46-.8,0,0h0c0-.06,0-.06,0-.12s.06,0,.07,0S34.62,40.25,34.6,40.27ZM36,41.61h0a.41.41,0,0,1-.11,0h0s0,0,0,0H36S36,41.59,36,41.61Zm0-1.06,0,0s0,0,0,0,0,0,0,0S36,40.56,36,40.55Zm-.11.24h.15l.11.09L36,41s0-.09-.07-.12a.6.6,0,0,1-.08-.08S35.88,40.79,35.9,40.79Zm-.07-.36,0,0s0,0,0,0,0,0,0,0S35.8,40.44,35.83,40.43Zm-.19-.73s.07,0,.08,0,0,0,0,.06l0,0h0A.08.08,0,0,1,35.64,39.7Zm-.17.72h-.06c0-.05,0-.05,0-.11h.06S35.51,40.36,35.47,40.42ZM35.32,40a.06.06,0,0,1,.1,0s0,0,0,0-.08,0-.1,0Zm-.79-1v0s.07-.05.1,0a.2.2,0,0,1,.08.08v.06l.05.06-.08.08h-.07l-.14-.14Zm-.52.84v0s0,0,0,0,0,0,0,0S34,39.92,34,39.91Zm-2.08-3.62h0s0,0,0,0v0S31.9,36.3,31.93,36.29Zm-.18.83s.05,0,.07,0,0,0,0,0,0,0-.06.06S31.7,37.16,31.75,37.12ZM31.62,37s0,0,0,0h0s0,0,0,0Zm-.06-.41s0,0,0,0h0s0,0,0,0Zm-.07.31v0s0,0,0,0l0,0S31.48,36.92,31.49,36.91Zm-.24.24s0,0,0,0,0,0,0,0v0S31.24,37.16,31.25,37.15Zm-.3-.43H31l0,0a0,0,0,0,1,0,0s-.08,0-.1,0A0,0,0,0,1,31,36.72Zm-.28-.67h0s0,0,0,0,0,0,0,0S30.64,36.06,30.67,36.05Zm-.51-.63s0,0,0,0l0,0s0,0,0,0S30.14,35.44,30.16,35.42Zm-.05,0s0,0,0,0,0,0,0,0v0h0S30.1,35.48,30.11,35.46ZM29.8,34.4l0,0,0,0,0,0S29.78,34.42,29.8,34.4Zm-.05,0s0,0,0,0,0,0,0,0v0h0S29.74,34.46,29.75,34.44Zm-.13.37c-.05,0-.08,0-.13,0A.09.09,0,0,1,29.62,34.81Zm-.23.3s0,0,0,0,0,0,0,0l0,0S29.38,35.12,29.39,35.11Zm-.18-1.75h0s0,.08,0,.1h0A.06.06,0,0,1,29.21,33.36Zm-.34.65h0s0,0,.05,0,0,0-.06,0h0l0,0Zm-.48-.35h0s0,0,0,0h0S28.38,33.65,28.39,33.66Zm20.49,8.59s.08,0,.1,0v0s-.08,0-.1,0Zm-.65,1.2s0,0,0,0,0,0,0,0l0,0S48.22,43.46,48.23,43.45ZM48,42.59s0,0,0,0,0,0,0,0h0S47.92,42.6,48,42.59Zm-.2,1.28v0s0,0,0,0v0S47.74,43.88,47.75,43.87Zm-.3.36,0,0s0,0,0,0,0,0,0,0S47.44,44.24,47.45,44.23ZM47,43.79s0,0,0,0,0,0,0,0l0,0S47,43.8,47,43.79Zm-.06.72v0s0,0,0,0v0S46.9,44.52,46.93,44.51Zm-.84.24s0,0,0,0,0,0,0,0h0S46.06,44.76,46.09,44.75Zm-.49,1,0,0s0,0,0,0v0S45.63,45.75,45.6,45.76Zm-.19-.09s0,0,0,0,0,0,0,0h0S45.4,45.68,45.41,45.67ZM45.22,45l0,0,0,0a0,0,0,0,1,0,0s0,0,0,0,0,0,0-.06S45.21,45,45.22,45Zm0,2v0s0,0,0,0h0S45.16,46.94,45.17,46.93Zm-.12-1.63h.07l0,0s0,0,0,0a.06.06,0,0,1-.1,0Zm-.11.94.09.09a1,1,0,0,1,0,.17.08.08,0,0,1,0,0s0,0,0-.07,0,0,0-.07S44.91,46.29,44.94,46.24Zm-.37-.94h.13l0,0s0,0,0,.05h-.11S44.56,45.32,44.57,45.3Zm0,.73v0s0,0,0,0h0S44.56,46,44.57,46Zm-.06-.18v0s0,0,0,0h0S44.5,45.86,44.51,45.85Zm7.71-10.3h-.1c0-.05,0-.07.09-.05l0,0Zm0-.23s0,0,0,0,0,0,0,0h0S52.29,35.31,52.26,35.32Zm0-.24h0l0,0,0,0,0,0v0a.21.21,0,0,0-.11,0s0,0-.06,0,0,0,0,0l.06-.05S52.3,35,52.3,35.08Zm-.23-.7s0,0,.06,0l0,0v0s-.08,0-.12,0S52,34.39,52.07,34.38Zm-.13.61s0,0,.05,0h0s0,0,0,0l0,0h0S51.93,35,51.94,35Zm0,.61.08-.09s0,.06.1.06v.09l-.09.08a.08.08,0,0,1-.08,0,.08.08,0,0,1,0,0A.25.25,0,0,0,51.94,35.6Zm-.11-.37v0s0,0,0,0,0,0,0,0S51.82,35.24,51.83,35.23Zm0,1.18H52l0,0-.09.08-.1-.08Zm-.37-1.32s0,0,0,0h0s0,0,0,0Zm-.13.19h0s0,0,0,0,0,0,0,0S51.34,35.3,51.34,35.28Zm0,1.67v0s0,0,0,0,0,0,0,0S51.34,37,51.37,37ZM44.08,44.8a0,0,0,0,0,0,0c0,.05,0,.05-.11,0l0-.06,0,0S44.08,44.78,44.08,44.8Zm.34.4v0s0,0,0,0,0,0,0,0S44.43,45.19,44.42,45.2Zm0-.84v0s0,0,0,0v0S44.43,44.35,44.42,44.36Zm1-1.79h0s0,0,0,0h0S45.43,42.58,45.41,42.57Zm.2-.6s0,0,0,0v0s0,0,0,0Zm5.67-5.35,0,0,0,0s0,0,0,0S51.26,36.64,51.28,36.62Zm-.05,0s0,0,0,0,0,0,0,0v0h0S51.22,36.68,51.23,36.66Zm-.16.1s0,0,0,0h0s0,0,0,0ZM51,35.4h.07l0,0s0,0,0,0-.08,0-.1,0A0,0,0,0,1,51,35.4Zm-.24.31v0s0,0,0,0v0S50.74,35.72,50.75,35.71Zm0,1.61s0,0,0,0,0,0,.06.06-.09,0-.13,0S50.72,37.34,50.75,37.32Zm-.41-.73s0,0,0,.09a.07.07,0,0,1-.12,0Zm-.23-.06v0s0,0,0,0l0,0S50.08,36.54,50.11,36.53Zm-.14,1s0,0,.05,0,0,0,.06.06-.09,0-.13,0S49.94,37.52,50,37.5Zm-.12.07v0s0,0,0,0,0,0,0,0S49.84,37.58,49.85,37.57Zm-.12-.9s0,0,0,0,0,0,0,0h0S49.72,36.68,49.73,36.67Zm-.28,1.18v0s0,0,0,0v0S49.42,37.86,49.45,37.85Zm-.08-.28v0s0,0,0,0,0,0,0,0S49.36,37.58,49.37,37.57Zm-.06-.31h0s0,0,0,0,0,0,0,0S49.3,37.28,49.31,37.26Zm0,.61v0s0,0,0,0v0S49.3,37.88,49.31,37.87Zm-.3.75h0a.13.13,0,0,0,.12.06l.11.11s.06,0,.08,0,0,0,0,0h-.18l-.07-.06H49l-.14-.14C48.91,38.6,49,38.64,49,38.62Zm-.3-.39v0s0,0,0,0v0S48.7,38.24,48.71,38.23Zm-.41.28.09.08,0,0a.41.41,0,0,1-.11,0l0,0Zm-.78,1.75s0,0,0,0v0s0,0,0,0ZM47.46,39l0,0,0,0s0,0,0,0S47.44,39,47.46,39Zm0-.05s0,0,0,0,0,0,0,0h0v0S47.4,38.93,47.42,38.94Zm-.56,2h0v0a0,0,0,0,1,0,.05l0,0h0S46.83,40.93,46.86,40.91Zm-.14-.69s0,.06,0,.07,0,0-.06,0l0,0v0S46.68,40.17,46.72,40.22Zm-.33,1h0s0,0,0,0,0,0-.06,0,0,0,0,0l0,0S46.37,41.22,46.39,41.21Zm0,.74a0,0,0,0,1,0,0s0,0,0,0,0,0,0,0S46.36,42,46.37,42Zm-.06-1.16s0,0,0,0h0s0,0,0,0Zm-.13-.16s-.08,0-.13,0A.09.09,0,0,1,46.18,40.63Zm-.1.1h0v0a0,0,0,0,1,0,.05l0,0h0S46.05,40.75,46.08,40.73ZM46,40.27s0,0,0,0,0,0,0,0h0S46,40.28,46,40.27ZM46,42a.11.11,0,0,1,0-.05s0,0,0,0a.28.28,0,0,1,0-.09,0,0,0,0,1,0,0,0,0,0,0,1,0,0,.11.11,0,0,1,0,0s0,0-.05,0a.21.21,0,0,1,0,.08,0,0,0,0,1,0,0A0,0,0,0,1,46,42Zm-.15,0a.09.09,0,0,1,0,.13A.08.08,0,0,1,45.85,42Zm0,.63s-.08,0-.13,0A.09.09,0,0,1,45.82,42.61Zm-.07-1.45a.09.09,0,0,1,0,.05,1.36,1.36,0,0,0-.12-.12s0,0,0-.05a.06.06,0,0,1,0,0h0l.07.09A0,0,0,0,1,45.75,41.16Zm-.08-.31,0,0v0h-.11S45.61,40.83,45.67,40.85Zm-.14-.11h.07l0,0v0a.06.06,0,0,1-.1,0Zm0,.18s0,0,0,0,0,0,0,0v0h0S45.52,40.94,45.53,40.92Zm-.09.23h0a.05.05,0,0,1,0,.06s0,0,0,.07a.08.08,0,0,1,0,.11h-.06l-.07.06h-.06s0-.12-.09-.15Zm-.45.14s0,0,0,0,0,0,0,0l0,0S45,41.3,45,41.29Zm-.18.53h0a0,0,0,0,1,.05,0l0,0s0,0,0,0-.08,0-.1,0A0,0,0,0,1,44.81,41.82Zm-.12.49s0,0,0,0,0,0,0,0l0,0S44.68,42.32,44.69,42.31Zm-.19.17h0s0,0,0,0v0S44.5,42.5,44.5,42.48Zm0-.23v0s0,0,0,0h0S44.44,42.26,44.45,42.25Zm-.1,1.3v0s0,0,0,0l0,0S44.32,43.56,44.35,43.55Zm-.14-1.3v0s0,0,0,0h0S44.2,42.26,44.21,42.25Zm-.4,1a.71.71,0,0,1,.07.09s0,.07,0,.1a.71.71,0,0,1-.07-.09S43.77,43.33,43.81,43.3Zm-.74.86s0,0,0,0h0s0,0,0,0Zm0-1s0,0,0,0h0s0,0,0,0Zm-.28-.73v0s0,0,0,0h0S42.72,42.41,42.74,42.41ZM52.93,29.69s0,0,0,0,0,0,0,0v0S52.9,29.7,52.93,29.69Zm-.2-.46s0,0,0,0,0,0,0,0l0,0S52.72,29.24,52.73,29.23Zm-.06.17h.1v0l0,0,0,0s0,0,0,0h0c0,.05,0,.07-.09.05l0,0A0,0,0,0,0,52.67,29.4Zm0,.26s0,0,0,0a0,0,0,0,1,0,0,.41.41,0,0,1,0,.11,0,0,0,0,1,0,0s0,0,0,0Zm-.06,1.2,0,0,0,0s0,0,0,0S52.58,30.88,52.6,30.86Zm-.05-.31s0,0,0,0,0,0,0,0l0,0S52.54,30.56,52.55,30.55Zm0,.35s0,0,0,0,0,0,0,0a0,0,0,0,1,0,0h0S52.54,30.92,52.55,30.9ZM52.37,30v0s0,0,0,0,0,0,0,0S52.36,30,52.37,30Zm-.06,1.13h0s0,0,0,0,0,0,0,0S52.3,31.16,52.31,31.14Zm0,.29v0s0,0,0,0v0S52.3,31.44,52.33,31.43Zm-.94,1s-.08,0-.1,0v0a.06.06,0,0,1,.1,0ZM52,31.36s0,0,0,0,0,0,0,0h0S52,31.35,52,31.36ZM52,30l0,0s0,0,0,0h0S52,30,52,30Zm-.39,1.23,0,0,0,0s0,0,0,0,0,.07,0,.06,0,0,0-.05S51.57,31.23,51.58,31.22Zm-.09,1.22s0,0,.07,0,0,0,0,0,0,0-.06.06S51.44,32.48,51.49,32.44Zm-.21-1.65s.08,0,.1,0a0,0,0,0,1,0,0s-.08,0-.1,0A0,0,0,0,1,51.28,30.79Zm0,.12v0s0,0,0,0v0S51.28,30.92,51.29,30.91Zm0,.27h.06c.05.06.05.06,0,.13h-.06C51.2,31.25,51.2,31.25,51.24,31.18Zm-.11.73,0,0s0,0,0,0v0S51.1,31.92,51.13,31.91ZM51,31v0s0,0,0,0h0S51,31,51,31Zm-.52,2.36s.08,0,.1,0v0a.06.06,0,0,1-.1,0Zm0-1.4v0s0,0,0,0v0S50.44,31.92,50.47,31.91Zm-.42,1.79h.11s0,0,0,0l-.09.08L50,33.74S50,33.72,50.05,33.7Zm-3,3.4s0,0,0,0,0,0,0,0,0,0,0,0S47,37.09,47,37.1Zm.42-1.62s0,0,0,0,0,0,0,0h0S47.43,35.47,47.42,35.48Zm1.26-.06s0,0,0,0,0,0,0,0v0S48.69,35.41,48.68,35.42Zm.25-.34s0,.07,0,.06,0,0,0,0,0,0,0,0,0,0,0,0,0,0,0,0S48.93,35.07,48.93,35.08Zm1-1.95s0,0,0,0,0,0,0,0v0S50,33.14,50,33.13Zm0,.7v0s0,0,0,0l0,0S49.9,33.84,49.93,33.83Zm-.24-1.38s0,0,0,0,0,0,0,0v0S49.66,32.46,49.69,32.45Zm-.33,1,.21-.21s.06,0,.08,0l0,.06a.48.48,0,0,0,0,.12l-.06.07v.11s0,0,0,0a0,0,0,0,1-.05,0l-.08-.06ZM49,34.2h0a.06.06,0,0,1,0,.1h0S48.92,34.22,49,34.2Zm0,.53s0,0,0-.06,0-.05,0-.06l0,0a0,0,0,0,0,0,0s.06,0,.06,0a.06.06,0,0,1,0,.08L49,34.73h-.09v.08s0,0-.11,0S48.88,34.75,48.93,34.73Zm-.29-1.24c.06,0,.06,0,.11,0v.06c-.06,0-.06,0-.11,0Zm-.23,1.78s0,0,0,0h0s0,0,0,0Zm-.3-1.37h0s0,.08,0,.1h0A.06.06,0,0,1,48.11,33.9Zm-.36,1.2s0,0,.06,0l0,0v0s-.08,0-.12,0S47.72,35.11,47.75,35.1Zm-.25-.36h0s0,0,0,0,0,0,0,0S47.5,34.76,47.5,34.74Zm0,.59,0,0,0,0,0,0S47.44,35.31,47.46,35.33Zm0,0s0,0,0,0h0v0S47.4,35.27,47.42,35.28ZM47,36s0,0,0,0l0,0s0,0,0,0,0,.07,0,.06,0,0,0,0S47,36,47,36Zm0,.69s0,0,0,0,0,0,0,0l0,0s0,0,0,0,0,.07,0,.06S47,36.67,47,36.65Zm-.13-.41h0s0,0,0,0h0S46.8,36.23,46.82,36.24Zm-.12-.31v0s0,0,0,0h0S46.68,35.93,46.7,35.93Zm-.15,1.58s0,0,0,0,0,0,0,0v0S46.54,37.52,46.55,37.51Zm-.25-.59,0,0s0,0,0,0,0,0,0,0,0,.07,0,.06,0,0,0,0S46.29,36.93,46.3,36.92Zm-.06-.19a.08.08,0,0,1-.13,0A.09.09,0,0,1,46.24,36.73Zm-.21.71a0,0,0,0,1,0,0s0,0,0,0h0S46,37.43,46,37.44Zm-.32.79v0s0,0,0,0l0,0S45.7,38.24,45.71,38.23ZM45.54,37h.07s0,0,.06.06,0,0,0,0a.06.06,0,0,1,0,0h-.08S45.5,37.05,45.54,37Zm-.2.39,0,0s0,0,0,0v0S45.34,37.4,45.34,37.39Zm-2.59,2.1v0h0s0,0,0,0,0,0,0,0S42.76,39.48,42.75,39.49ZM42.83,41v0s0,0,0,0h0S42.85,41,42.83,41Zm.76-1.76,0,0s0,0,0,0v0S43.59,39.25,43.59,39.26Zm1.23-1.58s0,0,0,0h0s0,0,0,0Zm-.11.41s0,0,0,0,0,0,0,0h0S44.68,38.1,44.71,38.09Zm-.12,1.14v0s0,0,0,0v0S44.56,39.24,44.59,39.23Zm-.12.3,0,0s0,0,0,0,0,0,0,0S44.44,39.54,44.47,39.53Zm-.2-.41s0,0,0,0h0s0,0,0,0Zm-.7-.49,0,0s0,0,0,0,0,0,0,0S43.54,38.64,43.57,38.63Zm0,.32a.08.08,0,0,1-.13,0A.09.09,0,0,1,43.6,39Zm-.39.11h0s0,0,0,0h0S43.2,39.05,43.21,39.06ZM43.09,39s0,0,0,0,0,0,0,0h0S43.06,39,43.09,39Zm-.12.6a.27.27,0,0,1,.09,0c0-.05,0-.06.06-.07a.21.21,0,0,1,0-.08l0,0a0,0,0,0,1,0,.05.11.11,0,0,1,0,0s0,0,0,0,0,.06-.06.07,0,.07-.1,0a0,0,0,0,1,0,0v0Zm-.27-.28s0,0,0,0,.08.06.16,0,0,.1,0,.14l-.09.09s-.05-.06-.09-.06,0-.05-.06-.09S42.69,39.33,42.7,39.31Zm-.06.84s0,0,0,0h0l0,0,0,0h0S42.63,40.17,42.64,40.15Zm-.06.19c0-.05.07-.05.11,0v.06s0,0-.11,0Zm-.22.2s.08,0,.09,0l-.09.09S42.33,40.59,42.36,40.54Zm0,.4a.09.09,0,0,1-.13,0A.08.08,0,0,1,42.34,40.94Zm-.41-.74s0,0,0,0,0,.08,0,.1h0S41.9,40.22,41.93,40.2Zm-.4.42h0s0,0,0,0h0S41.52,40.61,41.53,40.62Zm.24.94h0v0s0,0,0,0,0,0,0,0Zm.06.06,0,0s0,0,0,0l0,0Zm.35,1.93a.09.09,0,0,1,0-.13A.08.08,0,0,1,42.18,43.55Zm-1-2.08s0,0,0,0h0l0,0,0,0h0S41.13,41.49,41.14,41.47ZM41,40.74s0,0,0,0h0s0,0,0,0ZM40.74,42s0,0,0,0h0s0,0,0,0Zm-.19-.71s0,0,0,0,0,0,0,0l0,0S40.54,41.3,40.55,41.29ZM52.62,26.15s0,0,0,0l0,0,0,0S52.6,26.13,52.62,26.15Zm0,0s0,0,0,0h0a0,0,0,0,1,0,0S52.56,26.09,52.58,26.1Zm-1.49,1a.09.09,0,0,1,.13,0C51.17,27.18,51.14,27.18,51.09,27.13Zm1.34-1s0,0,0,0,0,0,0,0v0S52.42,26.18,52.43,26.17Zm-.28-.39h.06l.09.08s0,.07,0,.09,0,.05,0,.06l0,0,0,0h-.06l-.09-.07A.33.33,0,0,1,52.15,25.78Zm0,1.41a.08.08,0,0,1-.13,0A.09.09,0,0,1,52.18,27.19Zm-.15.22s0,0,0,0,0,0,0,0l0,0S52,27.42,52,27.41Zm-.15,0s0,0,0,0l0,0v.12l0,0,0,0Zm-.09-1.1h0s0,0,0,0h0S51.78,26.27,51.79,26.28Zm-.14.36h.07l0,0a0,0,0,0,1,0,0s-.08,0-.1,0A0,0,0,0,1,51.65,26.64Zm-.09-.25v0s0,0,0,0h0S51.54,26.39,51.56,26.39Zm-.14.31,0,0s0,0,.07,0,0,0,0,0a.23.23,0,0,1-.24,0Zm0,1.16-.08.08a.07.07,0,0,1-.09,0l.08-.08A.07.07,0,0,1,51.39,27.86Zm-.26-1a.71.71,0,0,1,.07.09s0,.07,0,.1a.71.71,0,0,1-.07-.09S51.09,26.89,51.13,26.86Zm-.28.31h0s0,0,0,0h0s0,0,0,0l0,0s0,0,0,0a0,0,0,0,1,0,0,.11.11,0,0,1-.08,0l0,0A0,0,0,0,1,50.85,27.17Zm-.15,1.61c.08,0,.09,0,.09.08s-.06.07-.08.11-.09,0-.09-.08S50.68,28.82,50.7,28.78Zm-.2-.69s0,0,0,0,0,0,0,0,0,.06,0,.12l-.06-.05S50.5,28.1,50.5,28.09Zm-.65.3s0,0,0,0,0,0,0,0h0S49.84,28.4,49.85,28.39Zm-.43.3s0,0,0,0,0,0,0,0,0,.06,0,.12l-.06-.05Zm-.33.22v0s0,0,0,0v0S49.06,28.92,49.09,28.91Zm-.2.56v0s0,0,0,0h0S48.88,29.48,48.89,29.47ZM39.32,40.88v0s0,0,0,0v0S39.33,40.87,39.32,40.88Zm.16.2L39.4,41a.07.07,0,0,1,.07,0s.08,0,.1,0S39.52,41.06,39.48,41.08Zm.19-1.33s0,0,0,0v0s0,0,0,0Zm0-.18s0,0,0,0v0s0,0,0,0Zm.14,1.62h0s0,0,0,0,0,0,0,0S39.81,41.17,39.81,41.19Zm0-1.36s0-.08,0-.13A.09.09,0,0,1,39.79,39.83Zm4.3-5.36h0s0,0,0,0h0S44.11,34.48,44.09,34.47Zm.49.31v0s0,0,0,0v0S44.61,34.77,44.58,34.78Zm1.28-2.12v0s0,0,0,0,0,0,0,0S45.87,32.65,45.86,32.66Zm.07,1.15h0s0,0,0,0,0,0,0,0S45.93,33.79,45.93,33.81Zm2.85-3h-.11s0,0,0,0l.09-.09.08.09S48.8,30.81,48.78,30.82Zm-.14-1.46c0-.05.06,0,.1,0s0,0,.07,0a.4.4,0,0,1,0,.11s0,0,0,0a.19.19,0,0,0-.1,0s0,0,0,0ZM48.54,31l.06,0s0,0,0,0,0,0-.05,0h0C48.5,31.07,48.5,31.07,48.54,31Zm-.38.38,0,0h.11l0,0,0,0h-.11ZM47.41,31v0s0,0,0,0l0,0S47.38,31,47.41,31ZM47.35,32a.09.09,0,0,1,0,.13A.08.08,0,0,1,47.35,32ZM47,31.68h0a0,0,0,0,1,.05,0l0,0s0,0,0,0-.08,0-.1,0Zm0,.74,0,0s0,0,0,0,0,0,0,0-.06.05-.12,0Zm-.29.36v0s0,0,0,0v.11s0,0,0,0v0A.41.41,0,0,1,46.72,32.78Zm-.78-.55a.08.08,0,0,1-.13,0A.09.09,0,0,1,45.94,32.23Zm-.15,1.25h0s0,0,0,0h0S45.78,33.47,45.79,33.48Zm-.13-1,.1.08,0,0H45.6l0,0Zm-.44.08s0,0,.05,0h0l0,0,0,0h0S45.21,32.55,45.22,32.53Zm0,1,0,0s0,0,0,0h0S45.18,33.53,45.19,33.54Zm-.2-.3h.07l0,0s0,0,0,0-.08,0-.1,0Zm-.49-.09s0,0,0,0l.06.06h.11l.09.08v.07l-.11,0-.08.11h-.09a.13.13,0,0,1,0,0A1.22,1.22,0,0,1,44.5,33.15Zm-.29,1.71h0a.06.06,0,0,1,0,.1h0S44.18,34.88,44.21,34.86Zm-.07-1s0,.08,0,.09L44,33.85S44.09,33.82,44.14,33.85Zm-.28,1.77h.06c0,.06,0,.06,0,.12h-.06C43.82,35.69,43.82,35.69,43.86,35.62Zm-.44.09s0,0,0,0h0l0,0,0,0h0S43.41,35.73,43.42,35.71Zm-.54-.06s0,0,0,0h0l0,0,0,0h0S42.87,35.67,42.88,35.65Zm-1.07.54s0,0,0,0,0,0,0,0v0S41.8,36.2,41.81,36.19Zm-.17,1.11,0,0s0,0,0,0,0,0,0,0S41.67,37.29,41.64,37.3Zm-.08-1s.08,0,.1,0v0s-.08,0-.1,0Zm0,.78s0,0,0,0h0l0,0,0,0s0,0,0,0S41.55,37.11,41.56,37.09Zm-.1-.68,0,0,0,0,0,0S41.44,36.39,41.46,36.41Zm0,0s0,0,0,0h0a0,0,0,0,1,0,0S41.4,36.35,41.42,36.36Zm-.13.11,0,0s0,0,0,0h0S41.28,36.47,41.29,36.47Zm.09,1.82a.08.08,0,0,1-.13,0A.09.09,0,0,1,41.38,38.29Zm-.6.48s0,0,0,0h0s0,0,0,0l0,0s0,0,0,0S40.77,38.79,40.78,38.77Zm-.13-.29,0,0s0,0,0,0,0,0,0,0-.06,0-.12,0Zm-.22.41v0s0,0,0,0v0S40.42,38.9,40.43,38.89Zm-.46.52h0s0,0,0,0,0,0,0,0S39.94,39.42,40,39.41Zm.14.17h0l0,0,0,0h0s-.07,0-.06,0S40.09,39.58,40.11,39.58Zm-1.1.19s0,0,0,0,0,0,0,0v0S39,39.78,39,39.77Zm0,.3a0,0,0,0,1,0,0v0h0a.27.27,0,0,1-.09,0S39,40.05,39,40.07Zm-.14.07s0,0,0,0,0,0,0,0v0h0S38.86,40.16,38.87,40.14Zm-.1-.78h0s0,0,0,0h0S38.76,39.35,38.77,39.36Zm-.15,0,0,0a0,0,0,0,1,0,0,.48.48,0,0,1,0,.12s-.07,0-.12,0l.07-.05S38.61,39.39,38.62,39.37Zm-.15-.8s0,0,0,0,0,0,0,0v0S38.44,38.58,38.47,38.57Zm-.11-.35h0s0,0,0,0h0S38.34,38.21,38.36,38.22Zm-.19,1.55s0,0,0,0,0,0,0,0l0,0S38.14,39.78,38.17,39.77ZM51.82,23.36a0,0,0,0,1,0,0s0,.05.07.05.06,0,.08.05a.3.3,0,0,1-.16,0A.06.06,0,0,1,51.82,23.36Zm-.14-.75v0s0,0,0,0h0S51.66,22.61,51.68,22.61Zm-.39.06s0,0,0,0h0s0,0,0,0Zm-5.79,6s0,0,0,0,0,0,0,0v0S45.51,28.63,45.5,28.64Zm5-3.71h0s0,0,0,0h0S50.47,24.94,50.45,24.93Zm0-.18h0s0,0,0,0h0S50.47,24.76,50.46,24.75Zm.13-.94,0,0s0,0,0,0,0,0,0,0S50.56,23.82,50.59,23.81Zm-.21-.46s0,0,0,0h0c0,.06,0,.06,0,.12l-.06-.05Zm-1.11,1.19h0s0,0,0,0h0S49.26,24.53,49.27,24.54ZM49,26.06s0,0,0,0a.06.06,0,0,1,0-.05s0,0,0,0,.08,0,.13,0S49,26,49,26.06Zm0-1s0,0,0,0l0,0s0,0,0,0S49,25.12,49,25.1Zm0,0s0,0,0,0v0l.06.05v.06s0,0-.09,0l0,0A.17.17,0,0,1,49,25.14Zm0,1.23,0,.08c0,.06-.07.08-.1.13l0-.08C48.83,26.44,48.88,26.42,48.91,26.37Zm-.32-1.05h0a.06.06,0,0,1,0,.1h0A.06.06,0,0,1,48.59,25.32Zm-.11,1.24h.18s0,0,0,0l-.09.09-.05-.07h-.06S48.46,26.6,48.48,26.56Zm-.19-.4s0,0,0,0h0s0,0,0,0Zm-.52,1.07v0s0,0,0,0v0S47.74,27.24,47.77,27.23Zm-.27,0a.09.09,0,0,1-.13,0A.08.08,0,0,1,47.5,27.26Zm-.66-.13,0,0s0,0,0,0,0,0,0,0S46.84,27.14,46.84,27.13Zm0,.58h0s0,0,0,0,0,0,0,0S46.84,27.72,46.87,27.71Zm-.24.72v0s0,0,0,0v0S46.6,28.44,46.63,28.43Zm-1.14-.29h0s0,0,0,0h0S45.48,28.13,45.49,28.14Zm-.36.59s0,0,0,0,0,0,0,0h0S45.1,28.74,45.13,28.73Zm0,1.49a.08.08,0,0,1,0,.13A.09.09,0,0,1,45.12,30.22ZM45,28.73s0,0,0,0,0,0,0,0h0S45,28.74,45,28.73ZM44.86,30s0,0,0,0h0s0,0,0,0l0,0s0,0,0,0S44.85,30,44.86,30Zm-.39.4h0s0,0,0,0,0,0-.06,0h0l0,0S44.45,30.42,44.47,30.41Zm-.2-1.31s0,0,0,0v.11s0,0,0,0v0a.41.41,0,0,1,0-.11Zm-.05,2s0,0,0,0l0,0s0,0,0,0Zm-.65.3h0s0,0,0,0h0S43.56,31.43,43.57,31.44Zm-.31.35s0,0,0,0l0,0s0,0,0,0-.07,0-.06,0,0,0,0,0Zm0-.79a.09.09,0,0,1,0,.13A.08.08,0,0,1,43.21,31Zm-1.06,2s-.08,0-.1,0a0,0,0,0,1,0,0,.06.06,0,0,1,.1,0A0,0,0,0,1,42.15,33Zm.15.08s0,0,0,0,0,0,0,0l0,0S42.33,33.09,42.3,33.1Zm.45-.87s0-.06,0-.07,0,0,.06,0l0,0v0C42.81,32.28,42.81,32.28,42.75,32.23Zm.2-.54s0,0,0,0,0,0,0,0v0S42.94,31.7,43,31.69Zm-.1.76c-.05-.05-.05-.08,0-.13A.09.09,0,0,1,42.85,32.45Zm0-.6c0,.06,0,.06,0,.11h-.06c0-.06,0-.06,0-.11Zm-.13-.67a.08.08,0,0,1,0,.13A.09.09,0,0,1,42.72,31.18ZM42.61,31h0s0,0,0,0,0,0,0,0S42.58,31,42.61,31Zm-.09.39s0,0,0,0,.1.05.16.06-.08,0-.12.05a.07.07,0,0,1-.07,0S42.51,31.35,42.52,31.34Zm-.1,1.17h0v0a0,0,0,0,1,0,.05l0,0h0A.06.06,0,0,1,42.42,32.51Zm-.11.31,0,0s0,0,0,0h0S42.3,32.81,42.31,32.82Zm-.2-1.13s0,0,0,0,0,0,0,0l0,0S42.1,31.7,42.11,31.69Zm-.1-.26.09.09s-.08,0-.13,0S42,31.44,42,31.43Zm-.24.65s.07,0,.08,0l-.09.09s-.07,0-.08,0Zm-.42,1.8h.11s0,0,0,0h0a.41.41,0,0,1-.11,0h0S41.33,33.9,41.35,33.88Zm-.09-1.34,0,0,0,0s0,0,0,0,0,.07,0,.06,0,0,0,0S41.25,32.55,41.26,32.54Zm-.22,1s0,0,.06-.06,0,.09,0,.13-.05,0-.07,0S41,33.54,41,33.52Zm0,.39v0s0,0,0,0l0,0S41,33.92,41,33.91Zm0,.22h.06l.08.09s0,0,0,0H41.1L41,34.16S41,34.13,41.05,34.13Zm0,.27,0,0,0,0,0,0S41,34.42,41,34.4Zm-.21-1.17v0s0,0,0,0h0S40.78,33.24,40.81,33.23Zm0,1.14h.12s0,.05.07.05,0,0,0,0l0,0a1.16,1.16,0,0,1-.32,0v0a0,0,0,0,1,0,0Zm-.24-1.14.07-.07.08.09s-.06.06-.09.1h-.06C40.52,33.28,40.52,33.27,40.56,33.23Zm-.56.5s.08,0,.1,0,0,0,0,0-.08,0-.1,0A0,0,0,0,1,40,33.73Zm-.41,1.56s0,0,0,0,0,0,0,0l0,0S39.58,35.3,39.59,35.29Zm-.4-1.1,0,0s0,0,0,0h0S39.18,34.19,39.19,34.19Zm0,1.47s0,.06,0,.07,0,0-.06,0l0,0v0C39.16,35.61,39.16,35.61,39.22,35.66ZM39,34.51s0,0,.05,0,0,0,0,0,0,.06,0,.12l-.06-.05S39,34.52,39,34.51Zm0,.7s0,0,0,0h0s0,0,0,0Zm-.22,1h0s0,0,0,0,0,0-.06,0h0l0,0Zm-.43-.13s.08.06.09.11.1.09,0,.18l-.06.06h0v0a1,1,0,0,1,0-.17l-.07-.07Zm-.32.39s0,0,.05,0h0s0,0,0,0l0,0h0S38.07,36.51,38.08,36.49Zm-.63.4a.08.08,0,0,1,0-.13A.09.09,0,0,1,37.45,36.89Zm-.07-.42s0,0,0,0h0s0,0,0,0Zm-.45,1.12h0s0,0,0,0v0S36.93,37.57,36.93,37.59Zm.15-.59s0,0,0,0,0,0,0,0l0,0S37.11,37,37.08,37Zm.06.71a0,0,0,0,1,0,0s0,0,0,0l.14-.15h.06s0,0,0,0Zm0-.44v-.05c.06,0,.06,0,.12,0v.06S37.18,37.31,37.11,37.27Zm.45.81v0s0,0,0,0v0S37.59,38.07,37.56,38.08Zm.19.84s0,0,0-.06,0,0,0,0,0,0,0,0l0,0s0,0,0,0S37.78,38.91,37.75,38.92Zm-.81-2.24s0,.06,0,.07,0,0-.06,0l0,0v0C36.88,36.63,36.88,36.63,36.94,36.68Zm-.22.93h.07l.06,0s0,0,0,.05,0,0,0,0h-.08S36.68,37.67,36.72,37.61Zm-.13-.76v0s0,0,0,0h0S36.58,36.86,36.59,36.85ZM36.51,38s0,0,0,0,.06,0,.12,0l-.05.06,0,0S36.51,38.05,36.51,38Zm-.21-2s0,0,0,0l0,0,0,0S36.28,36,36.3,36.05Zm0,0s0,0,0,0h0a0,0,0,0,1,0,0S36.24,36,36.26,36Zm-.09,1.25s0,0,0,0h0s0,0,0,0Zm9.69-12.8s0,0,0,0,0,.05-.06.05,0-.05.06-.05a.27.27,0,0,1,0-.09l0,0a0,0,0,0,1,0,0A.11.11,0,0,1,45.86,24.45Zm2.22-2.23s0,0,0,0,0,0,0,0a0,0,0,0,1,0,0S48.09,22.21,48.08,22.22Zm.28,0h0s0,0,0,0a0,0,0,0,1,0,0S48.37,22.18,48.36,22.17ZM50.1,20.4s0,0,0,0h0s0,0,0,0Zm-.19-1.19s0,0,0,0,0,0,0,0,0,0,0,0S49.9,19.22,49.91,19.21Zm-.58,1.71a.09.09,0,0,1,0,.13A.08.08,0,0,1,49.33,20.92Zm-.06.31h.06c0,.06,0,.06,0,.11h0C49.23,21.28,49.23,21.28,49.27,21.23Zm-.56.86s0,0,0,0,0,0,0,0v0S48.7,22.1,48.71,22.09Zm0-.79h0s0,0,0,0h0S48.66,21.29,48.67,21.3Zm-.07-.37,0,0a.41.41,0,0,1,0,.11l0,0L48.51,21Zm-.27.34,0,0h0s0,.08,0,.12-.06,0-.07,0S48.31,21.29,48.33,21.27Zm-.26.61.07.08s0,0,0,0A.4.4,0,0,1,48,22l0,0Zm-.78,1.44a.07.07,0,0,1,0,.12s-.08,0-.09,0ZM47.11,23l0,0s0,0,0,0h0S47.1,23,47.11,23Zm-.47-.24v0s0,0,0,0h0S46.62,22.79,46.64,22.79Zm-.88.86a.08.08,0,0,1,.12,0l-.09.09S45.76,23.69,45.76,23.65Zm-.06.92s0,0,0,0,0,0,0,0,0,0,0,0l.06.05s0,0,0,0A.05.05,0,0,1,45.7,24.57Zm-.29.39h.07l0,0s0,0,0,0a.06.06,0,0,1-.1,0A0,0,0,0,1,45.41,25Zm-.29.24s0,0,0,0l0,0s0,0,0,0Zm-.25-.59s0,0,0,0,0,0,0,0h0S44.86,24.62,44.87,24.61Zm-.21.67v0s0,0,0,0l0,0S44.67,25.27,44.66,25.28Zm-.1-.19a.06.06,0,0,1,.1,0,0,0,0,0,1,0,0s-.08,0-.1,0A0,0,0,0,1,44.56,25.09Zm-.17.84s0,0,0,0,0,0,0,0v0S44.38,25.94,44.39,25.93Zm0,.09s.08,0,.09,0l-.09.09S44.37,26.07,44.4,26Zm-.17-.78h.07c0,.08,0,.14,0,.19l-.06-.07S44.18,25.3,44.23,25.24ZM44.11,27h0s0,0,0,0v0S44.1,27,44.11,27Zm-.6-.19v0s0,0,0,0v0S43.48,26.82,43.51,26.81Zm-.06.17s.06,0,.07,0,0,0,0,.06l0,0h0C43.4,27,43.4,27,43.45,27Zm-.26-.57s0,0,0,0,0,0,0,0v0S43.18,26.42,43.19,26.41Zm-.84,1.49h0a0,0,0,0,1,.05,0l0,0s0,0,0,0a.06.06,0,0,1-.1,0A0,0,0,0,1,42.35,27.9Zm-2,2.29,0,0s0,0,0,0,0,0,0,0S40.36,30.2,40.36,30.19Zm-.16.69c0,.05,0,.08,0,.13A.09.09,0,0,1,40.2,30.88Zm-.17,0h0s0,0,0,0h0S40,30.89,40,30.9Zm-.07.16s0,0,0,0,0,0,0,0l0,0S40,31.05,40,31.06Zm-.12-.54,0,0v-.13a.05.05,0,0,1,0,0,.06.06,0,0,1,0,0s0,0,0,.05l0,0v.12a.05.05,0,0,1,0,0,.06.06,0,0,1-.05,0S39.82,30.54,39.84,30.52Zm-.11.31h0s0,0,.05,0,0,0-.06,0,0,0,0,0l0,0Zm-.2,0s0,0,0,0,0,0,0,0v0S39.52,30.86,39.53,30.85Zm-.1.29a0,0,0,0,1,0,0s0,0,0,0h0S39.42,31.13,39.43,31.14Zm0-.4a0,0,0,0,1,0,0h0v0a.27.27,0,0,1,0-.09S39.41,30.68,39.39,30.74Zm-.07-.14s0,0,0,0h0a0,0,0,0,1,0,0S39.3,30.59,39.32,30.6Zm-.67.65v0s0,0,0,0v0S38.62,31.26,38.65,31.25Zm-1.08,2.1v0s0,0,0,0v0S37.54,33.36,37.57,33.35Zm0,.13h0s0,0,0,0l0,0S37.56,33.47,37.57,33.48Zm-.48-.78h0s0,0,0,0v0S37.08,32.69,37.09,32.7Zm-.21,1.09a.08.08,0,0,1-.13,0A.09.09,0,0,1,36.88,33.79Zm-.27-.19h0s0,0,0,0h0S36.6,33.59,36.61,33.6Zm-.32.43a0,0,0,0,1,0,0s0,0,0,0v0S36.28,34,36.29,34Zm0,.4a0,0,0,0,0,0,0s0,0,.11,0l0,.06,0,0S36.27,34.45,36.27,34.43Zm-.43.42v0s0,0,0,0h0S35.82,34.85,35.84,34.85Zm-.34-.94a.08.08,0,0,1-.13,0A.09.09,0,0,1,35.5,33.91ZM34.93,35h0v0s0,0,0,0,0,0,0,0ZM35,35l0,0s0,0,0,0,0,0,0,0Zm.41.24s0,0,0,0,0,0,0,0v0S35.43,35.25,35.4,35.26Zm.24,1.63h0c-.06,0,0-.11,0-.16s.06,0,.08,0a.09.09,0,0,1,0,.08S35.68,36.86,35.64,36.89ZM34,34.49h0s0,0,0,0v0S33.94,34.5,34,34.49Zm14.2-17.08s0,0,0,0,0,0,0,0v0S48.16,17.42,48.17,17.41Zm-.19,0c0,.05-.08.05-.13,0A.09.09,0,0,1,48,17.41ZM47,18s0,0,0,0l0,0,0,0S47,18,47,18Zm0,0s0,0,0,0h0a0,0,0,0,1,0,0S46.92,17.93,46.94,17.94Zm-.1,1.39s0,0,0,0h0s0,0,0,0l0,0s0,0,0,0S46.83,19.35,46.84,19.33Zm-1.47.7,0,0s0,0,0,0,0,0,0,0S45.34,20,45.37,20Zm-.36.12h0s0,0,0,0,0,0,0,0S45,20.16,45,20.15Zm-1.42,3,0,0s0,0,0,0,0,0,0,0S43.59,23.11,43.59,23.12Zm0-1.08s0,0,0,0,0,0,0,0l0,0S43.59,22,43.58,22Zm.13.77s0,0,0,0h0s0-.08,0-.1h0a0,0,0,0,1,0,0A0,0,0,0,1,43.71,22.81Zm.1-1.7v0s0,0,0,0l0,0S43.78,21.12,43.81,21.11Zm-.27.28s0,0,0,0,0,.06.09,0,0-.07.09,0a0,0,0,0,1,0,0,0,0,0,0,0,0,0h0a.21.21,0,0,1-.08,0s0,0,0,0a.08.08,0,0,1-.09,0A.06.06,0,0,1,43.54,21.39Zm-.14,1.76v0s0,0,0,0h0S43.38,23.15,43.4,23.15Zm-.06.29a.07.07,0,0,1,.07,0l-.08.08s-.06-.06-.09-.09S43.31,23.45,43.34,23.44Zm-.4-.62s0,0,0,0l0,0s0,0,0,0,0,0,0,0,0,0,0-.06S42.93,22.82,42.94,22.82Zm0,.8H43c.06.05,0,.11,0,.16s0,0,0,0a.49.49,0,0,1,0-.11l-.07.06S42.86,23.66,42.91,23.62Zm-.18-.29,0,0s0,0,0,0h0S42.72,23.33,42.73,23.33Zm0,.6v0s0,0,0,0h0S42.66,23.93,42.68,23.93Zm-.21-1.44s0,0,0,0h0s0,0,0,0Zm-.13,1.28a.08.08,0,0,1-.13,0A.09.09,0,0,1,42.34,23.77Zm-.42.67s0,0,0,0,0,0,0,0,0,0,0,0,0,.07,0,.06,0,0,0-.05S41.91,24.45,41.92,24.44Zm-.21-.87h0s0,0,0,0v0S41.68,23.58,41.71,23.57Zm0,1.33h0s0,0,0,0h0S41.7,24.89,41.71,24.9Zm-.12-.5a.09.09,0,0,1,0,.13C41.54,24.48,41.54,24.45,41.59,24.4Zm-1.33,1s0,0,0,0,0,0,0,0h0S40.29,25.41,40.26,25.42Zm.93-1.27,0,0h0c0,.06,0,.06,0,.12s-.06,0-.07,0S41.17,24.17,41.19,24.15Zm-.85.8v0s0,0,0,0h0S40.32,25,40.34,25Zm-.08.3s0,0,0,0l0,0s0,0,0,0S40.24,25.23,40.26,25.25Zm0-.05s0,0,0,0,0,0,0,0h0v0S40.2,25.19,40.22,25.2Zm-.13,1.19v0s0,0,0,0v0S40.06,26.4,40.09,26.39Zm-.56-.95h0s0,0,0,0v0S39.52,25.46,39.53,25.44Zm.09.88a.09.09,0,0,1,.08,0v.05c-.06.05-.08.05-.12,0l0,0-.05,0S39.58,26.33,39.62,26.32Zm-1.53,2.25s0,0,0,0,0,0,0,0h0S38.08,28.58,38.09,28.57Zm-1.15.66,0,0s0,0,0,0,0,0,0,0S36.94,29.24,36.94,29.23Zm-.3.18s0,0,0,0h0s0,0,0,0l0,0h0S36.63,29.43,36.64,29.41Zm-.22-.21h.06c.05.06.05.06,0,.12h0C36.38,29.27,36.38,29.27,36.42,29.2Zm-.11.07,0,0s0,0,0,0h0S36.3,29.27,36.31,29.27Zm-.48.23a.09.09,0,0,1,0,.13A.08.08,0,0,1,35.83,29.5Zm-.14.93s0,0,0,0,0,0,0,0l0,0S35.68,30.44,35.69,30.43Zm-.1-.38h0s0,0,0,0,0,0,0,0S35.56,30.06,35.59,30.05Zm-.23-.24v0s0,0,0,0h0S35.34,29.81,35.36,29.81Zm0,.75,0,0,0,0,0,0S35.3,30.58,35.32,30.56Zm0,0s0,0,0,0,0,0,0,0a0,0,0,0,1,0,0h0S35.26,30.62,35.27,30.6ZM35.1,31s0,0,0,0h0s0,0,0,0ZM35,30.44s0,0,0,0l0,0a.23.23,0,0,1,0,.14s0,0,0,0A.76.76,0,0,1,35,30.44Zm-.06.19s0,0,0,0,0,0,0,0,0,0,0,0l.07.05s0,0-.05,0A.05.05,0,0,1,34.9,30.63Zm-.09,0h0s0,0,0,0h0S34.8,30.59,34.81,30.6Zm-.12.58s.06,0,.07,0,0,0,0,.06l0,0h0C34.64,31.24,34.64,31.24,34.69,31.18Zm-.11-.65v0s0,0,0,0h0S34.56,30.53,34.58,30.53Zm-.93,2.24s0,0,0,0,0,0,0,0l0,0S33.64,32.78,33.65,32.77Zm-.18-1v0s0,0,0,0h0S33.46,31.82,33.47,31.81ZM33,32.1h0s0,0,0,0h0S32.94,32.09,33,32.1Zm-.13,1.42s0,0,0,0l0,0,0,0Zm.06-.24h0s0,0,0,0v0S32.91,33.27,32.88,33.28Zm.06-.6h0c0-.06,0-.06,0-.12H33C33,32.63,33,32.63,32.94,32.68Zm.06.12,0,0s0,0,0,0,0,0,0,0S33,32.79,33,32.8Zm.06.84s0,0,0,0l0,0,0,0Zm0-.47v0s0,0,0,0v0S33,33.18,33.07,33.17Zm.17.65a.14.14,0,0,1-.11,0s0,0,0,0l.09-.09s.06,0,.07,0A.06.06,0,0,1,33.24,33.82Zm.09-.63s0,0,0-.07,0,0,0,0,0,0,.06.06S33.37,33.24,33.33,33.19Zm.18.31,0,0s0,0,0,0,0,0,0,0S33.51,33.49,33.51,33.5Zm-.94-.74h.07l0,0v0a.06.06,0,0,1-.1,0ZM32.41,34h0s0,0,0,0v0S32.4,34,32.41,34Zm-.2-.73s0,0,0,0v0s-.06,0-.1,0a.07.07,0,0,1-.07,0l.06-.06A.06.06,0,0,1,32.21,33.29Zm0-.72s0,0,0,0,0,0,0,0v0S32.14,32.58,32.17,32.57Zm-.12.17h.11l0,0,0,0h-.11l0,0Zm-.08,1v0s0,0,0,0v0S32,33.74,32,33.73Zm-.06-2s0,0,0,0,0,0,0,0l0,0S31.9,31.76,31.91,31.75Zm-.1.4v0s0,0,0,0v0S31.78,32.16,31.81,32.15ZM31.54,32h0s0,0,0,0v0S31.54,32,31.54,32ZM41.61,10.63s0-.05,0-.07,0,0,0,0,0,0,.06.06S41.65,10.68,41.61,10.63Zm.63.63v0s0,0,0,0h0S42.27,11.25,42.24,11.26Zm1.23,1.31h0s0,0,0,0,0,0,0,0S43.47,12.55,43.47,12.57Zm.69-.29,0,0s0,0,0,0v0S44.19,12.27,44.16,12.28Zm.26.83h0s0,0,0,0v0S44.43,13.09,44.42,13.11Zm.06-.49s0,0,0,0,0,0,0,0h0S44.49,12.61,44.48,12.62Zm.64.62v0s0,0,0,0v0S45.15,13.23,45.12,13.24Zm.12,1.32s0,0,0,0,0,0,0,0l0,0S45.27,14.55,45.24,14.56Zm-9-5.82h0l0,0s0,0,0,0h0s0,0,0,0S36.31,8.74,36.27,8.74Zm1.23.56s0,0,0,0h0s0,0,0,0Zm0,.43v0h0s0,0,0,0,0,0,0,0S37.54,9.72,37.53,9.73Zm.11,0h0a.21.21,0,0,1-.08,0s0-.07.09,0l0,0ZM39.2,12v0s0,0,0,0v0S39.21,12,39.2,12Zm.19.6,0,0h0s-.07,0-.06,0,0,0,0,0h0S39.39,12.55,39.39,12.56Zm0-.18v0s0,0,0,0v0S39.39,12.37,39.38,12.38ZM43,14.52s0,0,0,0l0,0s0,0,0,0Zm0,.6,0,0s0,0,0,0h0S43,15.11,43,15.12Zm-2-.56s0,0,0,0,0,0,0,0h0S41,14.55,41,14.56Zm1,.78h0c-.05-.06-.05-.06,0-.12h0C42.05,15.29,42.05,15.29,42,15.34Zm.33-.62-.09.09c-.09,0-.09,0-.08-.1l.08-.08C42.34,14.63,42.34,14.63,42.33,14.72Zm.33,1.15h0s0,0,0,0v0S42.67,15.88,42.66,15.87Zm.09-1.21,0,0h0s-.07,0-.06,0,0,0,0,0h0S42.75,14.65,42.75,14.66ZM43,15.82h-.11s0,0,0,0l0,0H43l.07,0C43.06,15.77,43.06,15.77,43,15.82Zm.49.91s0,0,0,0,0,0,0,0v0S43.48,16.74,43.51,16.73Zm.39-.89h0s0,0,0,0v0S43.9,15.86,43.9,15.84Zm-.4,0s0,0,0,0h0s0,0,0,0Zm-.07-.46v0s0,0,0,0l0,0S43.42,15.38,43.43,15.37ZM43.62,17l0,0s0,0,0,0v0S43.65,17,43.62,17Zm.15,1.49h0s0,0,0,0v0S43.77,18.49,43.77,18.51Zm1.95-3.3h0s0,0,0,0h0S45.73,15.22,45.72,15.21Zm-.2.34,0,0s0,0,0,0v0S45.52,15.56,45.52,15.55Zm-.27.16s0,0,0,0,0,0,0,0l0,0S45.22,15.72,45.25,15.71Zm-.13.07s0,0,0,0l0,0s0,0,0,0Zm-.54,2.15s0,0,0,0l0,0h0s-.07,0-.06,0,0,0,0,0Zm0-.89v0a.06.06,0,0,1-.1,0v0S44.52,17,44.54,17Zm0-.28,0,0s0,0,0,0,0,0,0,0S44.49,16.75,44.49,16.76ZM43,18.28s.07,0,.08,0,0,0,0,.06,0,0,0,0h0A.08.08,0,0,1,43,18.28Zm-.08,0c0,.05-.08.05-.13,0A.09.09,0,0,1,42.94,18.31ZM30.15,7.71h0s0,0,0,0,0,0,0,0S30.15,7.69,30.15,7.71Zm.84,0,0,0s0,0,0,0,0,0,0,0S31,7.75,31,7.76Zm.51.86a1,1,0,0,1-.17,0s0,0,0,0,0,0,.05,0h0l.05-.06.09.09S31.51,8.62,31.5,8.62Zm.37.54h0v0s0,0,0,0,0,0,0,0Zm.06.06,0,0s0,0,0,0l0,0Zm.2.29h0s0,0,0,0v0S32.13,9.49,32.13,9.51Zm.23-.24a.06.06,0,0,1-.1,0v0h.07l0,0S32.37,9.26,32.36,9.27ZM33.11,9v0s0,0,0,0h0S33.1,9,33.11,9Zm-.64.44s0,0,0,0v0s0,0,0,0Zm0-.48s0,0,0,0h0s0,0,0,0Zm.17.42h0s0,0,0,0l0,0S32.65,9.34,32.64,9.33Zm.08.95v0s0,0,0,0v0S32.73,10.27,32.72,10.28Zm.36-.95h0s0,0,0,0v0S33.09,9.31,33.08,9.33Zm.1.84a.71.71,0,0,1-.09-.07s.07,0,.1,0a.71.71,0,0,1,.09.07S33.21,10.2,33.18,10.17Zm.18-.24h0s0,0,0,0l0,0S33.37,9.94,33.36,9.93Zm.14-.24h0a.06.06,0,0,1,0-.1h0S33.53,9.67,33.5,9.69ZM34,11h0s0,0,0,0h0S34,11,34,11ZM34,11.8v0s0,0,0,0v0S34,11.79,34,11.8Zm.25.3,0,0v0h-.09L34,12a0,0,0,0,1,0-.05s0,0,0,0l.17.18h0l0,0Zm.14-.45a.09.09,0,0,1,.13,0S34.4,11.7,34.35,11.65Zm6.56,5.58a0,0,0,0,1,0,0s0,0,0,0,0,0,0,0S40.9,17.24,40.91,17.23Zm-6-6.32,0,0s0,0,0,0h0S34.86,10.91,34.87,10.91Zm0,1.23,0,0h0s-.07,0-.06,0,0,0,0,0h0S34.89,12.13,34.89,12.14Zm0-.41v0a.06.06,0,0,1,.1,0v0S34.87,11.76,34.85,11.73Zm.09.71v0s0,0,0,0l0,0S35,12.43,34.94,12.44Zm.64,0s0,0-.07,0,0,0,0,0,0,0,.06-.06S35.63,12.43,35.58,12.47ZM39,16.82l0,0s0,0,0,0v0S39,16.81,39,16.82Zm.11-1.49h0s0-.08,0-.1h0A.06.06,0,0,1,39.08,15.33Zm1,1.2h0s0,0,0,0l0,0S40.09,16.54,40.08,16.53Zm.25.13a.48.48,0,0,1-.12,0l0,0,.09-.09.07.08S40.35,16.65,40.33,16.66Zm.07.23h0a.06.06,0,0,1,0-.1s0,0,0,0S40.43,16.87,40.4,16.89Zm.43.88s0,0,0,0h0s0-.08,0-.1h0v0A0,0,0,0,1,40.83,17.77Zm.14.38s0,0-.09,0l0,0,0,0H41c.05,0,.07.06.1.1A.07.07,0,0,1,41,18.15Zm.19-.48h0s0,0,0,0l0,0S41.17,17.68,41.16,17.67Zm.09.66h0s0,0,0,0v0S41.25,18.31,41.25,18.33Zm.22,1.38s0,0,0,0h0s0,0,0,0Zm.24,1s0,0,0,0a.27.27,0,0,1,0-.09h-.15s0,0,0-.07a.19.19,0,0,0,0-.08s0,0,0,0,.1,0,.1-.1l0,0s0,0,0,0a.13.13,0,0,1,0,.06v.2h.08s0,0,0,0Zm-.15-1.1s0,0,0,0h.11l0,0-.08.08Zm.58-.42s0,0,0,0,0,0,0,0l0,0S42.15,19.15,42.14,19.16ZM27.1,8.65c-.06,0-.06,0-.13,0V8.6c.06,0,.06,0,.13,0Zm1.47.11h0s0,0,0,0l0,0S28.56,8.75,28.57,8.76Zm-1.36-.65a.09.09,0,0,1,.13,0A.08.08,0,0,1,27.21,8.11ZM27.53,8s0,0,0,0,0,0,0,0,.08,0,.13,0-.05,0-.06.06S27.55,8,27.53,8Zm.14.12s0,0,0,0l0,0s0,0,0,0Zm.07.19s0,0,0,0h0s0,0,0,0Zm0,.23h0s0,0,0,0l0,0S27.79,8.5,27.78,8.49Zm.14,1.09s0,0,0,0h0s0,0,0,0Zm.19-.14,0,0h0s-.07,0-.06,0,0,0,.05,0h0S28.11,9.43,28.11,9.44Zm.49.35,0,0h0c0-.06,0-.06,0-.12s.06,0,.07,0S28.62,9.77,28.6,9.79Zm.16-.28h0s0,0,0,0v0S28.77,9.49,28.76,9.51Zm.34-.17h0s0,0,0,0v0S29.13,9.33,29.1,9.34Zm.45,1.84,0,0s0,0,0,0v0S29.55,11.17,29.55,11.18Zm-.12-.25a.09.09,0,0,1,.13,0A.08.08,0,0,1,29.43,10.93Zm.13-.33s0,.07,0,.06,0,0,0-.05,0,0,0,0,0,0,0,0l0,0S29.56,10.59,29.56,10.6Zm.16.05a.06.06,0,0,1-.1,0v0h.07l0,0Zm.06.23v0s0,0,0,0v0S29.79,10.87,29.78,10.88Zm.18.73a.06.06,0,0,1-.1,0v0h.07l0,0Zm.06-.43v0s0,0,0,0v0S30,11.17,30,11.18Zm.13.54,0,0s0,0,0,0,0,0,0,0S30.15,11.71,30.15,11.72Zm.72-.23h0s0,0,0,0v0S30.87,11.47,30.87,11.49Zm.18-.25,0,0s0,0,0,0,0,0,0,0S31.05,11.23,31.05,11.24Zm.42.54,0,0h0s-.07,0-.06,0,0,0,.05,0h0S31.47,11.77,31.47,11.78Zm.35.84v0s0,0,0,0v0S31.83,12.61,31.82,12.62Zm.88.88s0,0,0,0h0s0,0,0,0ZM32.41,13h0s0,0,0,0h0S32.4,13,32.41,13Zm0,1v0h0s0,0,0,0,0,0,0,0S32.44,14,32.43,14.05Zm.15,0h-.14s0,0,0,0,.07,0,.09,0l-.06-.07,0-.07h.06s0,0,0,0a1,1,0,0,1,0,.17Zm.12.54-.08-.08a.07.07,0,0,1,0-.09l.08.08A.07.07,0,0,1,32.7,14.56Zm.36-.31h0s0,0,0,0l0,0S33.07,14.26,33.06,14.25Zm.18,0a.08.08,0,0,1,0-.12l.09.09S33.28,14.26,33.24,14.26Zm.39-.44,0,0h0s-.07,0-.06,0,0,0,0,0h0Zm1.77,2.12v0s0,0,0,0v0S35.43,15.93,35.4,15.94Zm.15,1.47a.09.09,0,0,1,.13,0A.08.08,0,0,1,35.55,17.41Zm1.23,1.17h-.07a.23.23,0,0,1,0-.14s0,0,.08,0l.06,0c.07,0,0,.1,0,.14Zm.21-.86a.08.08,0,0,1,.13,0A.09.09,0,0,1,37,17.72Zm.77.36v0s0,0,0,0,0,0,0,0S37.77,18.07,37.76,18.08Zm.32,1.62v0h0a0,0,0,0,1,0,0l0,0v0A.06.06,0,0,1,38.08,19.7Zm.09.45a.08.08,0,0,1,0-.13A.09.09,0,0,1,38.17,20.15Zm.83.28h0s0,0,0,0h0S39,20.44,39,20.43Zm.45,1.37,0,0s0,0,0,0v0S39.45,21.79,39.45,21.8Zm.3-.54,0,0h0s-.07,0-.06,0,0,0,0,0h0S39.75,21.25,39.75,21.26Zm.09.49h0s0,0,0,0l0,0S39.85,21.76,39.84,21.75Zm.63-.8s0,0,0,0,0,0,0,0,0-.08,0-.1h0v0A0,0,0,0,1,40.47,21Zm0-.45h0a0,0,0,0,1,0,0s0,0,0,0,0,0,0,0S40.52,20.51,40.51,20.5Zm.12.12a.32.32,0,0,1-.1-.11h.09C40.67,20.55,40.67,20.56,40.63,20.62Zm-.12-.6a.09.09,0,0,1,0,.13A.08.08,0,0,1,40.51,20Zm-.07.55c.05,0,0,.05,0,.09a.08.08,0,0,1-.12,0Zm-.23.9h0l0,0s0,0,0,0-.08,0-.1,0a0,0,0,0,1,0,0Zm-1.12.21,0,0h0c0,.06,0,.06,0,.12s-.06,0-.07,0S39.07,21.7,39.09,21.68Zm-.2,1H39c0,.06,0,.07,0,.12h-.11C38.84,22.73,38.84,22.72,38.89,22.66Zm-.12.73a1,1,0,0,1,.17,0l0,0s0,0,0,0h-.17l0,0S38.75,23.4,38.77,23.39Zm-.48.3v0s0,0,0,0,0,0,0,0S38.26,23.7,38.29,23.69Zm-.18.72s0,0,0,0,0,0,0,0h0S38.08,24.42,38.11,24.41ZM23.85,9.92l0,0s0,0,0,0v0S23.85,9.91,23.85,9.92Zm.24.65a.09.09,0,0,1,.13,0S24.14,10.62,24.09,10.57Zm.65-.41v0s0,0,0,0l0,0S24.75,10.15,24.74,10.16Zm.18-.18v0s0,0,0,0l0,0S24.93,10,24.92,10Zm.19.11v0h0s0,0,0,0,0,0,0,0S25.12,10.08,25.11,10.09Zm0,0s0,0,0,0l0,0,0,0Zm.32,1h0s0-.08,0-.1h0A.06.06,0,0,1,25.46,11.07Zm.19-.61s0,0,0,0h0c-.05-.05-.05-.05,0-.11l.06.05S25.65,10.45,25.65,10.46Zm.21.92h-.05c-.06-.05,0-.11,0-.16s.06,0,.08,0a.09.09,0,0,1,0,.08S25.9,11.36,25.86,11.38Zm.24-.67h0s0,0,0,0h0S26.11,10.72,26.1,10.71Zm.21,2,0,0s0,0,0,0v0S26.31,12.67,26.31,12.68Zm.48.56h0l0,0,0,0h0s0,0,.05,0S26.83,13.24,26.79,13.24Zm.15-1h0s0,0,0,0h0S27,12.22,26.94,12.21Zm.82,1.09s0,.07,0,.06,0,0,0,0,0,0,0,0,0,0,0,0l0,0S27.76,13.29,27.76,13.3Zm.28.46v0s0,0,0,0v0S28.05,13.75,28,13.76Zm.6-.23s0,0,0,0h0s0,0,0,0Zm.23.07h0v0s0,0,0,0,0,0,0,0Zm.06.06,0,0s0,0,0,0l0,0Zm1.45,2.09s-.08,0-.1,0v0h0a0,0,0,0,1,.05,0l0,0S30.39,15.74,30.38,15.75ZM31.59,18a.06.06,0,0,1-.1,0,0,0,0,0,1,0,0,.06.06,0,0,1,.1,0A0,0,0,0,1,31.59,18Zm.93.43h0s0,0,0,0l0,0S32.53,18.4,32.52,18.39Zm.3-.59v0s0,0,0,0l0,0S32.85,17.79,32.82,17.8ZM33.3,19s0,0,0,0,0,0,0,0l0,0S33.33,19,33.3,19Zm.3.11h0s0,0,0,0l0,0S33.61,19.12,33.6,19.11Zm.24,1.2h0s0,0,0,0v0S33.85,20.32,33.84,20.31Zm2.22.67v0s0,0,0,0l0,0S36.09,21,36.06,21Zm.25,1.56s0,0,0-.06,0,0,0,0,0,0,0,0,0,0,0,0,0,0,0,0S36.34,22.53,36.31,22.54Zm.5,0,0,0s0,0,0,0,0,0,0,0S36.81,22.51,36.81,22.52Zm.47,1.14s0,0,0,0,0,0,0,0l0,0S37.29,23.65,37.28,23.66Zm.31,1.2-.09.08-.08-.08V24.8l.08-.09c.06,0,.07.07.11.09Zm0-1.24v0s0,0,0,0h0S37.65,23.61,37.62,23.62ZM37,23.39s0,0,0,0,0,0,0,0l0,0S36.94,23.4,37,23.39Zm.65-.55a.2.2,0,0,1-.11,0l-.07.06h0c0-.06,0-.06,0-.12h.23a0,0,0,0,1,0,0Zm-15-11.24s0,.06,0,.07,0,0-.06,0l0,0v0C22.6,11.55,22.6,11.55,22.66,11.6ZM22,10.81v0s0,0,0,0v0S22,10.82,22,10.81Zm-.21.2s0,0,0,0h0s0,0,0,0ZM22,12.75h0s0,0,0,0v0S22,12.76,22,12.75Zm.18-.4H22L22,12.28a.06.06,0,0,1,0-.07s0,0,0-.05h.12a.2.2,0,0,0,.06.07.06.06,0,0,1,0,.07S22.15,12.33,22.14,12.35Zm.18.71,0,0,0,0-.06-.06a.07.07,0,0,1,0-.07s0,0,0-.05h.12C22.37,13,22.37,13,22.32,13.06Zm.31.12s0,0,0,0h0s0,0,0,0Zm.05-.48h-.11c-.05,0-.05-.06,0-.11h.11C22.73,12.64,22.73,12.65,22.68,12.7Zm.13-.12,0,0a0,0,0,0,1,0,0c-.05,0-.07,0-.05-.09l0,0h0v0a.25.25,0,0,1,0,.08h0l0,0ZM28.36,18s0,0,0,0,0,0,0,0,0,0,0,0,0,0,0,.05,0,0,0-.06S28.35,18,28.36,18Zm-4.1-3.9v0s0,0,0,0,0,0,0,0S24.27,14.05,24.26,14.06Zm.37.78c.05-.05.08-.05.13,0A.09.09,0,0,1,24.63,14.84Zm.64.5s0,0,0,0h0s0,0,0,0Zm.17-.3,0,0s0,0,0,0v0S25.47,15,25.44,15Zm.19-.24h-.06l-.07.06h-.05l-.06,0,0,0s0,0,.05,0h.09l.07-.05h.05C25.67,14.74,25.67,14.74,25.63,14.8Zm.07,1.12v0s0,0,0,0l0,0S25.71,15.91,25.7,15.92Zm.24-.12v0s0,0,0,0h0S26,15.79,25.94,15.8Zm0-.22s0,.07,0,.06,0,0,0-.05,0,0,0,0l0,0,0,0S26,15.57,26,15.58Zm.7,1.62-.06-.05s0,0,0,0,0,0,.05,0h0C26.69,17.14,26.69,17.14,26.65,17.2Zm.08-.56,0,0s0,0,0,0-.07,0-.06,0,0,0,.05,0h0S26.73,16.63,26.73,16.64Zm.53,1.09h0s0-.08,0-.1h0A.06.06,0,0,1,27.26,17.73Zm.07-.37s0,.05,0,.07,0,.06,0,.08l-.08-.09c0-.05.07-.06.08-.1h.06A0,0,0,0,1,27.33,17.36Zm.33.87-.05-.07-.06.07c-.05-.07-.05-.07,0-.13h.11C27.7,18.16,27.7,18.16,27.66,18.23Zm.78.35h-.05c-.05-.06-.05-.06,0-.12h.06C28.48,18.53,28.48,18.53,28.44,18.58Zm.3-.24h0s0,0,0,0v0S28.77,18.33,28.74,18.34Zm.66,1.85h0s0,0,0,0h0S29.41,20.2,29.4,20.19Zm.81-.5c-.05,0-.05,0-.11,0v-.05c0-.05,0-.05.11,0Zm.29,1s0,0,0,0h0s0,0,0,0Zm.23-.54h0v0s0,0,0,0,0,0,0,0S30.74,20.21,30.73,20.2Zm.05,0,0,0,0,0,0,0S30.76,20.19,30.78,20.21Zm0,.88h0s0,0,0,0h0S30.79,21.1,30.78,21.09Zm.75-.85,0,0h0s-.07,0-.06,0,0,0,0,0h0Zm.69,1.93h0s0,0,0,0h0S32.23,22.18,32.22,22.17Zm-.06-1.07s0-.05,0-.09l.06-.05,0,0s0,0,0,.05,0,0,0,0l.06.05S32.27,21.11,32.16,21.1Zm.3,1.86,0,0s0,0,0,0,0,0,0,0S32.49,23,32.46,23Zm0-1.07a.09.09,0,0,1,0-.13A.08.08,0,0,1,32.46,21.89Zm1.07,1.46s0,0,0,0,0,0,0,0h0S33.52,23.36,33.53,23.35Zm-.41-.5s0,0,0,0h0s0,0,0,0Zm-.29-1.2,0,0s0,0,0,0,0,0,0,0S32.8,21.66,32.83,21.65Zm0,1.66h0s0,0,0,0l0,0S32.83,23.32,32.82,23.31Zm.18-.24h0s0,0,0,0l0,0S33,23.08,33,23.07Zm.18.49s0,0-.06,0L33,23.48s0,0,0,0h.06l.08.09S33.21,23.56,33.18,23.56Zm.21.58a.06.06,0,0,1-.1,0,0,0,0,0,1,0,0s.08,0,.1,0A0,0,0,0,1,33.39,24.14Zm.16,0h0a0,0,0,0,1,0,0s0,0,0,0,0,0,0,0S33.56,24.17,33.55,24.16Zm.06.06,0,0s0,0,0,0l0,0Zm.18-1.56h-.14a.81.81,0,0,1-.06-.08s0,0,0,0a0,0,0,0,1,0,0h.17C33.83,22.6,33.83,22.6,33.79,22.66ZM34,24.34H33.9c0-.06,0-.06,0-.12H34C34,24.29,34,24.29,34,24.34Zm.56.22v0s0,0,0,0,0,0,0,0S34.53,24.55,34.52,24.56Zm.13-.18,0,0s0,0,0,0,0,0,0,0S34.65,24.37,34.65,24.38Zm.45,2.53h0s0,0,0,0h0S35.11,26.92,35.1,26.91Zm.74-1.62h0s0,0,0,0,0,0,0,0,0,0,0,0A0,0,0,0,1,35.84,25.29ZM36.6,24l.09.1v.11c0,.06-.09,0-.13,0s-.08-.06-.09-.09Zm-.17.49v0s0,0,0,0l0,0S36.4,24.48,36.43,24.47Zm0,1.26c0,.07,0,.13,0,.18l-.06-.07s0-.06,0-.11Zm-.14-1.15c0,.05,0,.08,0,.13A.09.09,0,0,1,36.24,24.58Zm-.33,2.07s0,0,0,0h0s0,0,0,0Zm0-1.44,0,0s0,0,0,0l0,0Zm-.58-.9v0s0,0,0,0l0,0S35.32,24.32,35.33,24.31Zm-.46.77h0s0,0,0,0h0S34.86,25.07,34.87,25.08Zm.24.28s0,0,0,0a0,0,0,0,1,0,0s0,0,0,0S35.11,25.37,35.11,25.36Zm-.6,2.53h0s0,0,0,0v0S34.48,27.9,34.51,27.89Zm-.24-.18s0,0,0,0,0,0,0,0l0,0S34.24,27.72,34.27,27.71ZM17.38,12c-.06.05-.06.05-.13,0s.05,0,.07-.06,0,0,0,0a.06.06,0,0,1,0,.05A0,0,0,0,0,17.38,12Zm.5,1h0s0,0,0,0h0S17.89,13,17.88,13Zm2.63,1.3,0,0s0,0,0,0v0S20.5,14.3,20.51,14.29Zm.08.21s0,.05.06.06,0,0,0,0,0,0,0,0h0l-.06.07,0-.07C20.51,14.56,20.56,14.54,20.59,14.5Zm-1.8-2.32h0s0,0,0,0h0S18.78,12.17,18.79,12.18Zm.08.73c-.06,0-.06,0-.11,0v-.06c.06,0,.06,0,.11,0Zm1.71,2.67h-.07c-.07,0-.07,0-.08-.1a.42.42,0,0,1,.25,0Zm.39.12s0,0,0,0l0,0s0,0,0,0h0s0,0,.05,0S21,15.7,21,15.7Zm.12-.68,0,0s0,0,0,0v0S21.09,15,21.09,15Zm.15.14,0,0s0,0,0,0,0,0,0,0S21.27,15.15,21.24,15.16Zm.1-.81a.09.09,0,0,1-.08,0s-.08,0-.1,0a.4.4,0,0,1,0-.11,0,0,0,0,1,0,0s0,0,0,0l.05,0s0,0,.05,0Zm.44.57h0s0,0,0,0v0S21.81,14.91,21.78,14.92Zm.27.34s-.08,0-.1,0v0s.08,0,.1,0Zm1,1.88s0,0,0-.06,0,0,0,0l0,0s0,0,0,0,0,0,0,0S23.08,17.13,23.05,17.14Zm.47.24s0,0,0,0,0,0,0,0v0S23.55,17.37,23.52,17.38Zm1.44.68s0,0,0,0h0s0,0,0,0Zm-1.08-1h0s0,0,0,0h0S23.89,17,23.88,17Zm.42,2.41s0,0,0,0,0,0,0,0l0,0S24.33,19.41,24.3,19.42Zm.14-.14v0s0,0,0,0l0,0S24.45,19.27,24.44,19.28Zm.62.39s0,0,0,.09l-.09.08a1.21,1.21,0,0,1-.19,0l0-.09s0,0,.05,0,.05,0,.05,0,.11,0,.14-.08,0,0,.05,0S25.06,19.64,25.06,19.67Zm0-.92c-.06,0-.11,0-.18,0l.07-.08s0-.08,0-.09l.09.09S25.13,18.74,25.1,18.75Zm.17-.34s0,0-.06.06-.05-.09,0-.13.05,0,.07,0S25.28,18.39,25.27,18.41Zm.38,1.72h0s0,0,0,0,0,0,0,0S25.65,20.11,25.65,20.13Zm.11-.91c-.05,0,0,.1-.07.15l0,0-.06-.06s0,0,0-.05,0,0,.06-.06h.06S25.78,19.22,25.76,19.22Zm0-.17s0,0-.07,0-.06,0-.08-.05a.3.3,0,0,1,.16,0,.06.06,0,0,1,0,.08S25.75,19.06,25.74,19.05Zm.07.79s0,0,0,0h0s0,0,0,0Zm.15-.09,0,0h0c0-.06,0-.06,0-.12s.06,0,.07,0S26,19.73,26,19.75Zm.22-.41s0,0,0,0,0,0,0,0l0,0S26.19,19.33,26.18,19.34Zm3.63,4.07s0,0,0,0,0,0,0,0v0S29.8,23.42,29.81,23.41Zm-1.92-1.8s0,0,0,0,0,0,0,0l0,0S27.88,21.62,27.89,21.61Zm-1.43-1.75s0,0,0,0h0s0,0,0,0Zm-.05.54h0s0,0,0,0h0S26.4,20.39,26.41,20.4Zm.06,1h-.06s0,0,0-.12h.06C26.51,21.34,26.51,21.34,26.47,21.4Zm.18-.84h-.06s0,0,0-.12h.05C26.69,20.5,26.69,20.5,26.65,20.56Zm.23,1.19h0s0,0,0,0h0S26.89,21.76,26.88,21.75Zm.08.35v0s0,0,0,0a0,0,0,0,1,0,0S27,22.09,27,22.1Zm.11-1.67s0,0,0,0h0s0,0,0,0Zm.18-.16v0s0,0,0,0h0S27.22,20.28,27.25,20.27Zm0,.14s0,0,.05,0,0,0,0,0l.05-.06c.07.05,0,.11,0,.15s-.06,0-.1,0l-.05-.06S27.22,20.42,27.22,20.41Zm.28,2c-.05,0-.09,0-.13.06s-.07,0-.09,0V22.4s0,0,.05,0h.16S27.52,22.4,27.5,22.41Zm0-.38v0s0,0,0,0,0,0,0,0S27.46,22,27.47,22Zm.12.15v0s0,0,0,0h0S27.61,22.18,27.59,22.18Zm.09-.67c-.05,0-.1,0-.14,0l-.08-.09,0,0a1.15,1.15,0,0,1,.18,0c.05,0,0,.06,0,.09Zm.13.25a.11.11,0,0,1,0,0s0,0,0,0a.76.76,0,0,1,0,.15s0,0,0,0l0,0a.23.23,0,0,1,0-.14s0,0,.05,0a.21.21,0,0,1,0-.08l0,0A0,0,0,0,1,27.81,21.76Zm.12.09v0h0s0,0,0,0,0,0,0,0S27.94,21.84,27.93,21.85Zm0,0s0,0,0,0,0,0,0,0l0,0Zm.26-.61h0s0,0,0,0,0,0,0,0S28.23,21.19,28.22,21.21Zm0,1.5h0s0,0,0,0h0S28.27,22.72,28.26,22.71Zm.18-.71a1,1,0,0,1-.17,0s0,0,0,0h.08l.05-.05h.07C28.49,22,28.49,22,28.44,22Zm.24,1.79h0s0,0,0,0v0S28.69,23.8,28.68,23.79Zm.07-1.71h0s0,0,0,0h0S28.74,22.07,28.75,22.08Zm0,1.27v0h0s0,0,0,0,0,0,0,0S28.78,23.34,28.77,23.35Zm.06-.09a.11.11,0,0,1,0,0s0,0-.05,0a.25.25,0,0,1,0-.08l0,0A0,0,0,0,1,28.83,23.26Zm.18-.07h0s0,0,0,0,0,0,0,0S29,23.17,29,23.19Zm.43-.49v0h0a0,0,0,0,1,.05,0l0,0v0A.06.06,0,0,1,29.44,22.7Zm.11,1.62,0,0s0,0,0,0v0S29.55,24.31,29.55,24.32Zm.27-.16h-.05c0-.05,0-.05,0-.12h.06C29.87,24.1,29.87,24.1,29.82,24.16Zm.13.29s0,0,0,0h0s0,0,0,0Zm.21-.38c0,.05-.08.05-.13,0s0,0,.06-.06,0,0,.05,0,0,0,0,.05S30.16,24.06,30.16,24.07Zm0-.14L30,23.84c0-.05.05,0,.09,0A.08.08,0,0,1,30.13,23.93Zm.2.21,0,0s0,0,0,0v0S30.33,24.13,30.33,24.14Zm.09,1v0s0,0,0,0l0,0S30.45,25.11,30.42,25.12Zm.2.59a.06.06,0,0,1-.1,0v0h0a0,0,0,0,1,.05,0l0,0Zm-.05-.77h0l0,0s0,0,0,0h0s0,0,.05,0S30.61,24.94,30.57,24.94Zm.15-.07h0s0,0,0,0l0,0S30.73,24.88,30.72,24.87Zm1.74,2.71,0,0s0,0,0,0,0,0,0,0S32.49,27.57,32.46,27.58Zm0-.32v0s0,0,0,0l0,0S32.49,27.25,32.48,27.26Zm1.2-.56h0s0,0,0,0h0S33.66,26.69,33.68,26.7Zm-.32,1.9h0s0,0,0,0,0,0,0,0S33.39,28.59,33.36,28.6Zm.06-.37h0s0,0,0,0h0S33.43,28.24,33.42,28.23Zm.06-.29v0s0,0,0,0h0S33.51,27.93,33.48,27.94Zm-1,1.74s0,.05.07.07,0,0,0,0a.06.06,0,0,1,0,0h0S32.43,29.73,32.46,29.68Zm-.07-.27s0,0,0,0,0,0,0,0l0,0S32.38,29.42,32.39,29.41Zm-.53.82H32c.05.05.05.05,0,.11a1,1,0,0,1-.17,0l0,0Zm-.11-.36h0s0,0,0,0,0,0,0,0S31.72,29.88,31.75,29.87ZM10.83,19.23h0s0,0,0,0,0,0,0,0S10.83,19.21,10.83,19.23Zm2.33-2.53s0,0,0,0,0,0,0,0l0,0S13.17,16.69,13.16,16.7Zm.08-.43s0,0-.05,0a0,0,0,0,1,0,0,.41.41,0,0,1,0-.11,0,0,0,0,1,0,0s0,0,.05,0Zm0,.21v0s0,0,0,0v0S13.29,16.47,13.26,16.48Zm.42-.6-.08-.08a.07.07,0,0,1,0-.09l.08.08A.07.07,0,0,1,13.68,15.88Zm.18-.13h0s0,0,0,0h0S13.87,15.76,13.86,15.75Zm.36-.29h0s0,0,0,0v0S14.25,15.45,14.22,15.46Zm1-.39v0h0s0,0,0,0,0,0,0,0S15.22,15.06,15.21,15.07Zm0,0s0,0,0,0l0,0,0,0Zm.1-1.41a.08.08,0,0,1-.13,0A.09.09,0,0,1,15.34,13.63ZM15,14h0s0,0,0,0h0S15,14,15,14Zm.92-.76,0,0s0,0,0,0,0,0,0,0S15.93,13.21,15.93,13.22Zm.17,2.28v0s0,0,0,0v0S16.11,15.49,16.1,15.5ZM8.78,24.87s-.08,0-.1,0v0h.07l0,0S8.79,24.86,8.78,24.87Zm1.91-2.56h0s0,0,0,0,0,0,0,0S10.66,22.32,10.69,22.31Zm0,.25h0s0,0,0,0h0S10.68,22.55,10.69,22.56ZM9,25.34s0,0,0,0,0,0,0,0v0S9,25.33,9,25.34Zm0-.1-.09-.09s.08,0,.13,0S9.05,25.23,9,25.24Zm.2-.62v0s0,0,0,0v0S9.21,24.61,9.2,24.62Zm.88-1.77H10s0,0,0,0l.08-.09.09.09S10.1,22.83,10.08,22.85Zm.25.77-.06-.05,0,0s0,0,0,0,0,0,0,0S10.36,23.56,10.33,23.62Zm.14-.86a.08.08,0,0,1,.13,0A.09.09,0,0,1,10.47,22.76Zm.21,1.15h0s0,0,0,0l0,0S10.69,23.92,10.68,23.91Zm0-.68a.09.09,0,0,1,.13,0A.08.08,0,0,1,10.65,23.23Zm.54-.76h0s0,0,0,0v0S11.19,22.45,11.19,22.47Zm0-.72h0s0,0,0,0h0S11.17,21.76,11.16,21.75Zm.06-.17h0s0,0,0,0,0,0,0,0S11.25,21.57,11.22,21.58Zm1.63-.17h0s0,0,0,0v0S12.82,21.42,12.85,21.41Zm-.18-1.56s0,0,0,0,0,0,0,0l0,0S12.64,19.86,12.67,19.85Zm0,1.5,0,0s0,0,0,0h0S12.66,21.35,12.67,21.35ZM11.52,23h0s0,0,0,0h0S11.53,23,11.52,23Zm.12-.54h0s0,0,0,0h0S11.65,22.42,11.64,22.41Zm.06-.65s0,0,0,0,0,0,0,0l0,0S11.73,21.75,11.7,21.76Zm.09.46,0,0s0,0,0,0,0,0,0,0S11.79,22.21,11.79,22.22Zm.18-.79a.09.09,0,0,1,.13,0A.08.08,0,0,1,12,21.43Zm.37.09s0,0,0,0a.71.71,0,0,1-.09.07s-.07,0-.1,0l.12-.12s0,0,.05,0S12.34,21.5,12.34,21.52Zm.51.24h-.19l0,0c.11,0,.19,0,.26,0Zm.37-1.21a.06.06,0,0,1-.1,0v0h0a0,0,0,0,1,0,0l0,0Zm0-.17s0,0,0,0,0,0,0,0h0S13.29,20.37,13.26,20.38Zm1.35-.44s0,0,0,.06,0,0-.05,0a.06.06,0,0,1,0-.05.22.22,0,0,0,0-.08c.05-.05.05-.05.11,0Zm1-2.4s0,0,0,0,0,0,0,0l0,0S15.57,17.53,15.56,17.54Zm.16.86,0,0s0,0,0,0,0,0,0,0S15.75,18.39,15.72,18.4Zm.44-2s0,0,0,0,0,0,0,0h0S16.17,16.39,16.16,16.4Zm.09,1v0s0,0,0,0h0S16.27,17.44,16.25,17.44Zm.28.33a.09.09,0,0,1,.13,0C16.61,17.82,16.58,17.82,16.53,17.77Zm.13-1.25s0,0,0,0h0s0,0,0,0Zm.11,1.14,0,0s0,0,0,0-.07,0-.06,0,0,0,.05,0h0S16.77,17.65,16.77,17.66Zm.16-.21s0,0-.06.05h-.09a.06.06,0,0,1-.05,0s0,0,0,0,0,0,.06-.06.07,0,.09,0a.06.06,0,0,1,.05,0S16.94,17.43,16.93,17.45ZM17,17.2H17c0-.06,0-.06,0-.11h.06C17.09,17.15,17.09,17.15,17,17.2Zm-.41-2.09s0,0,0,0,0,0,0,0l0,0S16.6,15.12,16.63,15.11Zm-.12.49h0s0,0,0,0h0S16.5,15.59,16.51,15.6ZM17.65,17a.08.08,0,0,1,0-.13A.09.09,0,0,1,17.65,17Zm.23-1.28h0s0,0,0,0h0S17.89,15.76,17.88,15.75Zm.39,1.84s0,0,0,0h0a.06.06,0,0,1,0-.1h0v0A0,0,0,0,1,18.27,17.59ZM9.61,28h0s0,0,0,0,0,0-.06,0,0,0,0,0l0,0S9.59,28,9.61,28Zm.08.21,0,0s0,0,0,0-.07,0-.06,0,0,0,.05,0h0S9.69,28.15,9.69,28.16Zm.06.11a.09.09,0,0,1,.13,0A.08.08,0,0,1,9.75,28.27Zm.34-1.05s0,.05.06.06,0,0,0,0,0,0-.05,0,0,0,0,0S10,27.27,10.09,27.22Zm0,1a.09.09,0,0,1,.13,0C10.13,28.26,10.1,28.26,10.05,28.21Zm.23-.41v0s0,0,0,0v0S10.29,27.79,10.28,27.8Zm.12-1.19h0s0,0,0,0,0,0,0,0S10.41,26.59,10.4,26.61Zm.14,0a.41.41,0,0,1,0-.11l0,0,.08.08-.08.09S10.55,26.67,10.54,26.65Zm.17.19,0,0s0,0,0,0-.07,0-.06,0,0,0,.05,0h0S10.71,26.83,10.71,26.84Zm.39-.76a.08.08,0,0,1,0,.13A.09.09,0,0,1,11.1,26.08Zm0,.58s0-.08,0-.09l.09.09S11.18,26.69,11.13,26.66Zm.21.2s0,0,0,0,0,0,0,0h0S11.37,26.85,11.34,26.86Zm.18-.07h0s0,0,0,0v0S11.53,26.8,11.52,26.79Zm.21-.79,0,0s0,0,0,0-.07,0-.06,0,0,0,.05,0h0S11.73,26,11.73,26Zm.36-.11h0s0,0,0,0,0,0,0,0S12.09,25.87,12.09,25.89Zm.53-.48s0,0,0,0,0,0-.06-.06.09-.05.13,0S12.65,25.39,12.62,25.41Zm.13-.31c-.06,0-.06,0-.11,0V25c.06,0,.06,0,.11,0Zm0-.81s-.08,0-.09,0l.09-.09S12.76,24.24,12.73,24.29ZM13,24.1l-.06-.05,0,0s0,0,0,0h0C13,24,13,24,13,24.1Zm.17-.13h0s0,0,0,0h0S13.15,24,13.14,24Zm1.59-.37-.05,0a.13.13,0,0,1,0,.06,0,0,0,0,1,0,0l-.09-.09.07,0v-.07s.08,0,.11,0Zm.53-.06s0,0,0,0,0,0,0,0v0S15.27,23.53,15.26,23.54Zm.08-1.39c-.06.05-.08.05-.12,0l0,0,0,0s.07,0,.11,0a.09.09,0,0,1,.08,0Zm.33.75-.07,0s-.06,0-.08-.05a.33.33,0,0,1,0-.1,0,0,0,0,1,0,0,0,0,0,0,1,0,0l.14.15Zm.45-.24s0,0,0,0l-.08.09H16a.52.52,0,0,1-.1-.11l0-.08h.16c0-.05,0-.06.06-.06s.05,0,.05.06S16.17,22.65,16.12,22.66Zm0-1s0,0,0,0a.4.4,0,0,1,0-.11s0,0,0,0l.09.09Zm.28-.72h0s0,0,0,0h0S16.39,20.92,16.38,20.91Zm2.54-2v0s0,0,0,0a0,0,0,0,1,0,0S18.93,18.91,18.92,18.92Zm-.1-.73c-.05,0-.08,0-.13,0A.09.09,0,0,1,18.82,18.19ZM8.38,33.46s0,.07,0,.06,0,0,0-.05,0,0,0,0l0,0,0,0S8.38,33.45,8.38,33.46Zm4.23-4.72,0,0s0,0,0,0h0S12.6,28.73,12.61,28.74ZM8.52,33.88l0,0s0,0,0,0v0S8.55,33.87,8.52,33.88Zm.33-.11s-.06-.06-.1-.06-.06,0-.07,0l.15-.15c.05,0,0,.1,0,.15l.05.06A.06.06,0,0,1,8.85,33.77Zm.24.21,0,0H9S9,34,9,34s0,0,0,0h0Zm.18-.06,0,0s0,0,0,0-.07,0-.06,0,0,0,.05,0h0S9.27,33.91,9.27,33.92Zm.09-.45h0c-.05-.07-.05-.07,0-.13h.06C9.4,33.41,9.4,33.41,9.36,33.47Zm.13-.85s0,0,0,0h0s0,0,0,0Zm0-.9s0,0,0,0,0,0,0,0h0S9.57,31.71,9.54,31.72Zm.27-.07h0s0,0,0,0v0S9.81,31.63,9.81,31.65Zm.51-.23s0,0,0,0,0,0,0,0l0,0S10.35,31.41,10.32,31.42Zm.68.28s0,0,0,0,0,0,0,0h0S11,31.69,11,31.7Zm.1-.17h0s0,0,0,0l0,0S11.11,31.54,11.1,31.53ZM12.19,31s0,0,0,0l0,0s0,0,0,0Zm.29-1.73s0,0,0,0,0,0,0,0l0,0S12.51,29.25,12.48,29.26Zm.12.24c0-.06,0-.06,0-.12s.06,0,.07,0,0,0,0,.06l0,0Zm.15.94,0,0h0s-.07,0-.06,0,0,0,0,0h0S12.75,30.43,12.75,30.44ZM13,29s0,0,0-.06,0,0,0,0l0,0s0,0,0,0,0,0,0,0S13,29,13,29Zm.38.21v0h0s0,0,0,0,0,0,0,0S13.36,29.16,13.35,29.17Zm.11,0h-.11c0-.06,0-.08.1-.06a0,0,0,0,1,0,0Zm.12.41s0,0,0,0,0,0,0,0h0S13.59,29.53,13.58,29.54Zm.06-1.49a.06.06,0,0,1-.05,0h0s0-.07,0-.12l.07.07S13.65,28,13.64,28.05Zm.28.24h0s0,0,0,0l0,0S13.93,28.3,13.92,28.29Zm.33-1.14h0s0,0,0,0v0S14.25,27.13,14.25,27.15Zm.33.91s0,0,0,0,0,0,0,0l0,0S14.61,28.05,14.58,28.06Zm.22-.57c-.06.05-.06.05-.12,0v0c.05-.05.05-.05.12,0Zm0-.34h0a.06.06,0,0,1,0-.1h0A.06.06,0,0,1,14.84,27.15Zm.23.25H15l-.05.06h-.08a0,0,0,0,1,0,0l.14-.14h.07S15.11,27.37,15.07,27.4Zm0-.24a1,1,0,0,1-.17,0s0,0,0,0L15,27h.07l.07.09S15.14,27.15,15.12,27.16ZM15.6,27h0s0,0,0,0l0,0S15.61,27,15.6,27Zm.12-.12h0s0,0,0,0l0,0S15.73,26.86,15.72,26.85Zm.2-.12s-.08,0-.1,0v0h0a0,0,0,0,1,.05,0l0,0S15.93,26.72,15.92,26.73Zm.46-.66h0s0,0,0,0h0S16.39,26.08,16.38,26.07Zm.15-.67,0,0h0s-.07,0-.06,0,0,0,0,0h0Zm.06-.3,0,0h0s-.07,0-.06,0,0,0,.05,0h0S16.59,25.09,16.59,25.1Zm.12.36a.06.06,0,0,1-.1,0,0,0,0,0,1,0,0,.06.06,0,0,1,.1,0S16.7,25.46,16.71,25.46Zm.15-.22s0,0,0,0,0,0,0,0h0S16.89,25.23,16.86,25.24Zm.07-.65a.08.08,0,0,1,0-.13A.09.09,0,0,1,16.93,24.59Zm.2.86a0,0,0,0,1,0,0h0s0,0,0,0,0,0,0,0S17.14,25.44,17.13,25.45Zm.06-.09a.11.11,0,0,1,0,.05s0,0,0,0a.21.21,0,0,1,0-.08,0,0,0,0,1,0,0A0,0,0,0,1,17.19,25.36Zm.33-1.21h0s0,0,0,0h0S17.53,24.16,17.52,24.15Zm.26.12h0s0,0,0,0,0,0,0,0S17.79,24.25,17.78,24.27Zm.4.36h0s0,0,0,0h0S18.19,24.64,18.18,24.63Zm.48-1.13s0,0,0,0,0,0,0,0v0S18.69,23.49,18.66,23.5Zm.57-.93v0h0s0,0,0,0,0,0,0,0S19.24,22.56,19.23,22.57Zm0,0s0,0,0,0l0,0,0,0Zm.32.7v0s0,0,0,0,0,0,0,0S19.59,23.23,19.58,23.24Zm.17-1.36h-.08c-.07,0-.07,0-.07-.08a.05.05,0,0,1,.09,0,.31.31,0,0,1,.09.07S19.76,21.88,19.75,21.88Zm.71-.73h0s0,0,0,0h0S20.47,21.16,20.46,21.15Zm2.29.24s-.07,0-.1,0v-.05l-.06-.07v-.06l.09-.09h0s0,0,0,.08,0,.05,0,.07,0,0,0,.06A.34.34,0,0,1,22.75,21.39ZM9.37,37h0s0,0,0,0h0S9.36,37,9.37,37Zm0,.22a.07.07,0,0,1-.09,0l.08-.08a.07.07,0,0,1,.09,0Zm2.93-4s.07,0,.08,0,0,0,0,.06l0,0h0A.08.08,0,0,1,12.3,33.28ZM9.54,37.54l0,0s0,0,0,0,0,0,0,0S9.57,37.53,9.54,37.54Zm.32-.32v0s0,0,0,0h0S9.87,37.21,9.86,37.22ZM10.29,36h0s0,0,0,0,0,0,0,0S10.29,36,10.29,36Zm.36.83,0,0s0,0,0,0,0,0,0,0S10.65,36.79,10.65,36.8Zm.81-1.31h0s0,0,0,0l0,0S11.47,35.5,11.46,35.49Zm.25-.52c-.05,0-.05-.08,0-.13A.09.09,0,0,1,11.71,35Zm.13-1h0s0,0,0,0,0,0,0,0S11.85,34,11.84,34Zm.52.55h0c0,.05,0,.07-.09.05a0,0,0,0,1,0,0v0h.1a0,0,0,0,1,0,0s0,0,0,0l0,0Zm.06-.37h0s0,0,0,0v0S12.43,34.18,12.42,34.17Zm.19-.05h0v0s0,0,0,0,0,0,0,0S12.62,34.13,12.61,34.12Zm.06.06,0,0s0,0,0,0l0,0Zm0,.39a.09.09,0,0,1,.13,0A.08.08,0,0,1,12.69,34.57Zm.87-2.2h0s0,0,0,0h0S13.57,32.38,13.56,32.37Zm.62.6s-.08,0-.1,0v0h.07l0,0S14.19,33,14.18,33Zm0-.53s0,0,0,0h0s0,0,0,0Zm.23-1.38s0,0,0,0,0,0,0,0,0,0,0,0,0,0,0,0,0,0,0,0S14.42,31.07,14.4,31.06Zm.07.54s0,0,0-.06,0,0,0,0l0,0s0,0,0,0a0,0,0,0,1,0,0S14.5,31.59,14.47,31.6Zm.11-.55h0s0,0,0,0h0S14.59,31.06,14.58,31.05Zm.2,1.44s0,0,0,0h0s0,0,0,0Zm.28-2h0s0,0,0,0h0S15.07,30.52,15.06,30.51Zm.09.37s0,.07,0,.06,0,0,0-.05,0,0,0,0,0,0,0,0l0,0S15.15,30.87,15.15,30.88Zm.06-.56,0,0s0,0,0,0v0S15.21,30.31,15.21,30.32Zm0,.32v0s0,0,0,0h0S15.27,30.63,15.24,30.64Zm.51,1.06a.15.15,0,0,1-.1,0,1.24,1.24,0,0,1,0-.25l.09-.11C15.76,31.43,15.76,31.43,15.75,31.7Zm0-1h-.05c-.05-.06-.05-.06,0-.11h.05C15.77,30.65,15.77,30.65,15.72,30.7Zm.08.28s0,0,0,0,0,0,0,0h0S15.81,31,15.8,31Zm.41-1.48h0a0,0,0,0,1,0,0s0,0,0,0,0,0,0,0S16.22,29.51,16.21,29.5Zm.05,0,0,0,0,0,0,0S16.24,29.49,16.26,29.51Zm0,.28a0,0,0,0,1,0,0s.08,0,.1,0,0,0,0,0A.06.06,0,0,1,16.25,29.79ZM16.39,31,16.33,31s0,0,0,0,0,0,.05,0,0,0,0,0S16.42,30.94,16.39,31Zm.47-.53s0,0-.06-.07,0,0,0,0a.06.06,0,0,1,.05,0,0,0,0,0,0,0,0C16.91,30.4,16.91,30.4,16.86,30.47Zm1.62-3.2h0s0,0,0,0h0S18.49,27.28,18.48,27.27Zm.15,1.43,0,0s0,0,0,0,0,0,0,0S18.63,28.69,18.63,28.7Zm1.21-2.41a.08.08,0,0,1-.13,0A.09.09,0,0,1,19.84,26.29Zm-.23.95h.13l0,0s0,0,0,0h-.11S19.6,27.26,19.61,27.24Zm0,.28-.06-.05s0,0,0,0,0,0,.05,0,0,0,0,0l.05.06h.12s0,0,0,0l0,0A1,1,0,0,1,19.63,27.52Zm.24.13s0,0-.06.06,0-.09,0-.13.05,0,.07,0S19.88,27.63,19.87,27.65ZM20,25.41h0s0,0,0,0h0S20,25.42,20,25.41Zm.2-.12s0,0,0,0h0s0,0,0,0Zm.17,1.8s0,0,0,0h0s0,0,0,0Zm.6-.83h0v0s0,0,0,0,0,0,0,0Zm.06.06s0,0,0,0,0,0,0,0,0,0,0,0Zm0-.24h0s0,0,0,0,0,0,0,0S21.09,26.07,21.06,26.08Zm.24-1.15h0s0,0,0,0h0S21.31,24.94,21.3,24.93Zm.06.66h0s0,0,0,0h0S21.37,25.6,21.36,25.59Zm.38.12h0s0,0,0,0,0,0,0,0S21.75,25.69,21.74,25.71Zm.22-1h0s0,0,0,0h0S22,24.76,22,24.75Zm.06-.29h0s0,0,0,0,0,0,0,0S22.05,24.45,22,24.46Zm.72-.48v0s0,0,0,0h0S22.77,24,22.74,24Zm0-.12s0,0,0,0,0,0,0,0l0,0S22.77,23.85,22.74,23.86Zm.12-.23-.06.05h-.12c0-.06,0-.06,0-.12a.75.75,0,0,0,.15,0s0,0,.05,0S22.88,23.61,22.86,23.63Zm0-.86h0s0,0,0,0l0,0S22.87,22.78,22.86,22.77Zm.25.54s0,0,0,0h0s0,0,0,0Zm.47.48h0s0,0,0,0v0S23.59,23.8,23.58,23.79Zm.27-2.26h0s0,0,0,0h0l0,0,0,0s0,0,0,0a0,0,0,0,1,0,0h-.08l0,0A0,0,0,0,1,23.85,21.53Zm-.1.31s0,0,0,0,0,.08,0,.1h0A.06.06,0,0,1,23.75,21.84Zm-.34.29h0s0,0,0,0,0,0-.06,0,0,0,0,0l0,0S23.39,22.14,23.41,22.13Zm-.31-1.68a.2.2,0,0,1,.09.09l-.08.09L23,20.54Zm.06.35v0s0,0,0,0v0S23.19,20.79,23.16,20.8Zm1,1.05s0,0,0,0l0,0v-.11l0,0,0,0ZM10.64,40.23a.06.06,0,0,1-.05,0h0q-.08,0,0-.12s0,.05.06.06S10.65,40.21,10.64,40.23Zm0-1s-.07,0-.12,0,.05,0,.06-.06,0,0,.05,0a.06.06,0,0,1,0,0S10.65,39.24,10.65,39.25Zm.09.57s0,0,0,0,0,0,0,0h0S10.77,39.81,10.74,39.82Zm.75-1.23,0,0h0a.06.06,0,0,1,0-.1h0v0A0,0,0,0,1,11.49,38.59Zm.21.15v0s0,0,0,0h0S11.73,38.73,11.7,38.74Zm.36.72,0,0s0,0,0,0v0S12.09,39.45,12.06,39.46Zm.08-.19h0a.06.06,0,0,1,0-.1h0S12.17,39.25,12.14,39.27Zm.3-1.75v0s0,0,0,0l0,0S12.45,37.51,12.44,37.52Zm.25,1.32,0,0h-.11s0,0,0,0l0,0h.11S12.69,38.83,12.69,38.84Zm.06-1.08,0,0h0s-.07,0-.06,0,0,0,0,0h0Zm.3.6,0,0s0,0,0,0v0S13.05,38.35,13.05,38.36Zm.29.12s0,0,0,0,0,0,0,0l0,0S13.35,38.47,13.34,38.48Zm.31-1.5s.08,0,.13,0A.09.09,0,0,1,13.65,37Zm.27.92h-.05c0-.06,0-.06,0-.12h.05C14,37.85,14,37.85,13.92,37.9Zm.26-.26s0,0,0,0,0,0,0,0,0,0,0,0S14.19,37.63,14.18,37.64Zm.16-.23h0s0,0,0,0l0,0S14.35,37.42,14.34,37.41Zm.55-1.85h0v0s0,0,0,0,0,0,0,0Zm.06.06,0,0s0,0,0,0l0,0Zm.23.9h0c-.05-.05-.05-.05,0-.12h0C15.22,36.46,15.22,36.46,15.18,36.52Zm1.12-1.77,0,0,0,0v-.11l0,0,0,0Zm.3.12,0,0s0,0,0,0,0,0,0,0,.06,0,.12,0Zm.29-1.43a.06.06,0,0,1-.1,0v0a.06.06,0,0,1,.1,0S16.88,33.44,16.89,33.44Zm.39-.1v0s0,0,0,0,0,0,0,0S17.31,33.33,17.28,33.34Zm0-.73s0,0,0,0v0s0,0,0,0Zm.52-.44v0s0,0,0,0v0S17.8,32.18,17.81,32.17Zm-.29.63H17.4c0-.06,0-.06,0-.12h.11C17.57,32.75,17.57,32.75,17.52,32.8Zm.08-.43h0s0,0,0,0v0S17.61,32.35,17.6,32.37Zm.25.41,0,0s0,0,0,0-.07,0-.06,0,0,0,.05,0h0Zm.06-.18a.08.08,0,0,1-.12,0l.09-.09C17.93,32.52,17.91,32.56,17.91,32.6Zm.09.19h0s0,0,0,0h0S18,32.8,18,32.79Zm1.63-2.44.08.08s0,0,0,0h-.11s0,0,0,0Zm-.75.68,0,0s0,0,0,0,0,0,0,0S18.88,31,18.88,31Zm-.44,1.61s0,0,0,0h0v0S18.42,32.63,18.44,32.64Zm-.35-.34a.08.08,0,0,1,.13,0A.09.09,0,0,1,18.09,32.3Zm.15,1.1v0s0,0,0,0l0,0S18.27,33.39,18.24,33.4Zm.09-1.49s0,0,0,0,0,0,0,0l0,0s0,0,0,0,0,.07,0,.06S18.33,31.93,18.33,31.91Zm.11,1.32s-.08,0-.1,0,0,0,0,0a.08.08,0,0,0,0,0s0,0,0-.06h0l0,0A.3.3,0,0,1,18.44,33.23Zm0-.49,0,0s0,0,0,0l0,0Zm.14-.44a.08.08,0,0,1,.13,0A.09.09,0,0,1,18.63,32.3Zm.17.43h0s0,0,0,0v0S18.81,32.71,18.8,32.73Zm.1-.71-.09-.09s.08,0,.13,0S19,32,18.9,32Zm.09-.51a.09.09,0,0,1,.13,0A.08.08,0,0,1,19,31.51Zm.3-.9a.09.09,0,0,1,.13,0A.08.08,0,0,1,19.29,30.61Zm.4,1.05h-.14a.81.81,0,0,1-.06-.08s0,0,0,0a0,0,0,0,1,0,0h.17C19.73,31.6,19.73,31.6,19.69,31.66Zm.16.11h0s0,0,0,0h0S19.87,31.78,19.85,31.77Zm.07-.72h0s0,0,0,0h0S19.93,31.06,19.92,31.05Zm.54-1.13v0s0,0,0,0,0,0,0,0S20.49,29.91,20.46,29.92Zm.45,0c-.06.05-.06.05-.11,0v-.12c.06,0,.06,0,.11,0Zm.39-1.06h0s0,0,0,0v0S21.31,28.84,21.3,28.83Zm.43.92s0,0-.06.05h-.12a0,0,0,0,1,0,0l0,0h.06l.05-.06s.06,0,.08,0S21.74,29.73,21.73,29.75Zm0-.92s0,0,0,0l0,0s0,0,0,0Zm.11.6h0s0,0,0,0h0S21.85,29.44,21.84,29.43Zm.43-.16a.08.08,0,0,1,0-.13A.09.09,0,0,1,22.27,29.27Zm.23-.85,0,0s0,0,0,0h0S22.51,28.42,22.5,28.42Zm0-.2v-.06l-.05-.07a.15.15,0,0,1,.16,0c0,.06,0,.13,0,.22S22.57,28.24,22.53,28.22Zm.48.3c0-.05.08-.05.13,0A.09.09,0,0,1,23,28.52Zm.27-1.72v0s0,0,0,0l0,0S23.31,26.79,23.28,26.8Zm.12.11h0s0,0,0,0h0S23.41,26.92,23.4,26.91Zm.33-.61,0,0h-.11s0,0,0,0l0,0h.12S23.73,26.29,23.73,26.3Zm.1,1.51s0,0,0,0h0s0,0,0,0ZM24,26.9l0,0s0,0,0,0,0,0,0,0S24,26.89,24,26.9Zm.15.79h0s0,0,0,0v0S24.13,27.7,24.12,27.69ZM24.2,27l-.07.08L24,27s0,0,0,0h.11S24.21,27,24.2,27Zm0-.28s0,0,0,0,0,0,0,0l0,0S24.16,26.7,24.19,26.69Zm-.1-.94a.09.09,0,0,1,.13,0C24.17,25.8,24.14,25.8,24.09,25.75Zm.41,1.47s0,0,0,0h0s0,0,0,0Zm.37-1.1,0,0s0,0,0,0,0,0,0,0S24.87,26.11,24.87,26.12Zm1.08-1s-.08,0-.1,0a0,0,0,0,1,0,0s.08,0,.1,0A0,0,0,0,1,26,25.16ZM25.72,24a.06.06,0,0,1,.1,0v0s-.08,0-.1,0Zm.07.15s0,0,.07-.05a0,0,0,0,1,0,0s0,0,0,.06l-.05.06s.06,0,0,.06-.05,0-.08,0a.6.6,0,0,1-.08-.08V24.2A.07.07,0,0,1,25.79,24.16Zm.88.58,0,0s0,0,0,0,0,0,0,0S26.67,24.73,26.67,24.74Zm-14.51,18s0,.07,0,.06,0,0,0,0,0,0,0,0,0,0,0,0,0,0,0,0S12.16,42.75,12.16,42.76Zm.27.31s0-.08,0-.13A.09.09,0,0,1,12.43,43.07Zm.5-.87a.08.08,0,0,1-.12,0l.09-.09S12.93,42.16,12.93,42.2Zm.05-.54s0,0,0,0,0,0,0,0,0,0,0,0S13,41.65,13,41.66Zm0-.35h0s0,0,0,0h0S13,41.32,13,41.31Zm.45-.43,0,0s0,0,0,0v0S13.41,40.87,13.41,40.88Zm.09-.29h0s0,0,0,0h0S13.51,40.6,13.5,40.59Zm.05.49v0s0,0,0,0h0S13.57,41.08,13.55,41.08Zm.14,1.15a.08.08,0,0,1,0-.13A.09.09,0,0,1,13.69,42.23Zm0-.9s0-.08,0-.13.08,0,.09,0Zm5.8-6.4s0,0,.05,0v0s0,0,0,0l0,0,0,0h0V35h0s0,0,0,0l0,0s0,0,0,0v0s0,0-.05,0A.09.09,0,0,1,19.48,34.93Zm-3,3.7,0,0s0,0,0,0h0S16.5,38.63,16.51,38.63Zm-2.64,2.11h0s0,0,0,0h0S13.86,40.73,13.87,40.74Zm0,.39h0s0,0,0,0h0S13.87,41.14,13.86,41.13Zm.21.59a.06.06,0,0,1-.1,0v0a.06.06,0,0,1,.1,0ZM14.15,40v0s0,0,0,0v0S14.14,40,14.15,40Zm.09,1.7a.06.06,0,0,1-.1,0v0h.07l0,0Zm.23-2.14h-.06l0,0a0,0,0,0,1,0,0h.17s0,0,0,0l-.09.09Zm.31.64a.06.06,0,0,1,0,0h-.09s0,0-.06-.05,0,0,0,0,0,0,0,0,.05,0,.09,0,0,.05.06.06S14.79,40.21,14.78,40.23Zm.3-.37v0s0,0,0,0v0S15.09,39.85,15.08,39.86Zm.32-.12a0,0,0,0,1,0,0h.07l0,0a0,0,0,0,1,0,0A.06.06,0,0,1,15.4,39.74Zm.09.51a.08.08,0,0,1,0-.13A.09.09,0,0,1,15.49,40.25Zm.15-.76,0,0h0c0-.06,0-.06,0-.12s.06,0,.07,0S15.66,39.47,15.64,39.49Zm.32.15s0,0,0,0,0,0,0,0h0S16,39.63,16,39.64Zm.19-1.26a.3.3,0,0,1-.16,0s0-.08,0-.1l0,0,0,0,.06,0v0Zm0-.25s0,0,0,0l0,0s0,0,0,0Zm.5.95s0,0,0,0h-.09c-.05-.05-.05-.05,0-.11h.06l.06,0Zm.84-.72,0,0h0s-.07,0-.06,0,0,0,.05,0h0Zm.15-.52,0,0s0,0,0,0,0,0,0,0S17.67,37.83,17.64,37.84Zm.2-1.21s0,0,0,0h0s0,0,0,0Zm.26-.44v0s0,0,.12,0v.06C18.16,36.24,18.16,36.24,18.1,36.19Zm.17.18s0,0,.05,0,0,0,0,0,0,0,0,0-.07,0-.12,0S18.26,36.4,18.27,36.37Zm0,.4c0-.05,0-.08,0-.13A.09.09,0,0,1,18.31,36.77Zm.17.35h-.05s0,0,0-.12h.06C18.53,37.06,18.53,37.06,18.48,37.12Zm.15-1.1,0,0h0s-.07,0-.06,0,0,0,.05,0h0S18.63,36,18.63,36Zm-.12-.49a.09.09,0,0,1,.13,0C18.59,35.58,18.56,35.58,18.51,35.53Zm.17.25s0,0,0,0,0,0,0,0,0,0,0,0S18.69,35.77,18.68,35.78Zm.12-.17h0s0,0,0,0,0,0,0,0S18.81,35.59,18.8,35.61Zm0-.22a.09.09,0,0,1,0-.13A.08.08,0,0,1,18.78,35.39ZM19,36.46l0,0s0,0,0,0v0S19,36.45,19,36.46Zm0-1.15h0a.06.06,0,0,1,0-.1h0A.06.06,0,0,1,19,35.31Zm.22.25a.08.08,0,0,1,0-.12l.09.09S19.24,35.56,19.2,35.56Zm.29.36a.06.06,0,0,1-.07,0l-.06-.07s.1,0,.15,0,0,.06,0,.08S19.51,35.92,19.49,35.92Zm0-.2a.08.08,0,0,1,.13,0A.09.09,0,0,1,19.47,35.72Zm7.46-7.51v0s0,0,0,0,0,0,0,0S26.92,28.22,26.93,28.21Zm-4.24,4h0s0,0,0,0,0,0,0,0S22.66,32.22,22.69,32.21Zm-.6-.29a0,0,0,0,1,0,0s0,0,0,0h0S22.08,31.91,22.09,31.92Zm-1.48,2.29s0,0,0,0h0s0,0,0,0Zm0-.15,0,0s0,0-.05,0h0c-.05,0-.05,0,0-.11ZM20,35.91h0s0,0,0,0l0,0S20,35.92,20,35.91Zm.15-.19c.05,0,.08,0,.13,0A.09.09,0,0,1,20.13,35.72Zm.15-.46s0,0,0,0,0,0,0,0v0S20.31,35.25,20.28,35.26Zm.15-1.65s0,0,.05,0,0,0,0,0,0,0,0,0-.07,0-.12,0S20.42,33.64,20.43,33.61Zm0,1.09v-.07c.06,0,.06,0,.12,0v.11a.09.09,0,0,1-.08,0s-.08,0-.11,0Zm0,.72a.06.06,0,0,1-.1,0,0,0,0,0,1,0,0s.08,0,.1,0S20.48,35.42,20.49,35.42Zm.06.14h0l0,0,0,0h0s0,0,.05,0S20.59,35.56,20.55,35.56Zm.07-1.05c-.07.05-.07.05-.13,0v-.06c.07,0,.07,0,.13,0Zm0-.63v0s0,0,0,0h0S20.67,33.87,20.64,33.88Zm.09.45a.09.09,0,0,1,.13,0A.08.08,0,0,1,20.73,34.33ZM20.9,34s-.08,0-.1,0v0h0a0,0,0,0,1,.05,0l0,0Zm.1-.41s0,0,0,0,0,0,0,0h0S21,33.57,21,33.58Zm.21,1.3,0,0h0s-.07,0-.06,0,0,0,0,0h0S21.21,34.87,21.21,34.88Zm.05-1.68v0s0,0,0,0v0S21.27,33.19,21.26,33.2Zm.13.84a.08.08,0,0,1-.12,0l.09-.09C21.41,34,21.39,34,21.39,34Zm0-.52v0s0,0,0,0h0S21.45,33.51,21.42,33.52Zm.18.72v0s0,0,0,0h0S21.63,34.23,21.6,34.24Zm.21-.86a.08.08,0,0,1,.13,0A.09.09,0,0,1,21.81,33.38Zm.18-.79s0-.05,0-.07,0,0,0,0,0,0,.06.06S22,32.64,22,32.59Zm.15.75,0,0s0,0,0,0h0S22.15,33.34,22.14,33.34Zm.19-.24h-.06c-.05-.05-.05-.05,0-.12h.05C22.37,33,22.37,33,22.33,33.1Zm.2.46,0,0s0,0,0,0-.07,0-.06,0,0,0,0,0h0S22.53,33.55,22.53,33.56Zm.1-1.64h0s0,0,0,0h0S22.62,31.91,22.63,31.92Zm0,1h0v0s0,0,0,0,0,0,0,0Zm.09.13s0,0-.07,0v-.08h.09a.05.05,0,0,1,0,.06S22.76,33,22.72,33.05Zm.15-.42c-.05-.05-.05-.08,0-.13A.09.09,0,0,1,22.87,32.63Zm.41-.24h-.07a.3.3,0,0,1,0-.16s.05,0,.09,0l.07.09S23.31,32.35,23.28,32.39Zm.36-1h-.12l0,0,0,0h.11l0,0Zm.36-.66-.08-.08a.07.07,0,0,1,.07,0s.08,0,.1,0S24,30.74,24,30.76Zm1-1.13c-.05,0-.07-.07-.11-.09s0-.07,0-.09l0,0,0,0,.09.08Zm.11-.6c0-.05,0-.08,0-.13A.09.09,0,0,1,25.15,29Zm.26,1.72h0s0,0,0,0,0,0,0,0S25.41,30.73,25.41,30.75Zm.18-1,0,0s0,0,0,0,0,0,0,0S25.59,29.77,25.59,29.78Zm.21-1.23a.09.09,0,0,1,0-.13A.08.08,0,0,1,25.8,28.55Zm.64.25a.74.74,0,0,1-.12.13c0,.09,0,.1-.1.09s0-.05,0-.08l-.05-.06.05-.07v-.06l.07,0,.07.06s0,0,0,0,0-.06,0-.09l0,0C26.47,28.66,26.42,28.74,26.44,28.8Zm.5.09h0s0,0,0,0h0S27,28.9,26.94,28.89Zm.34-1.73s0,.07,0,.06,0,0,0,0,0,0,0,0,0,0,0,0,0,0,0,0S27.28,27.15,27.28,27.16Zm.81-.65s0,0,0,0,0,0,0,0v0S28.06,26.52,28.09,26.51Zm-.39-.22s.08,0,.1,0a0,0,0,0,1,0,0,.06.06,0,0,1-.1,0A0,0,0,0,1,27.7,26.29Zm1.91,4.93s0,0-.05,0h0c-.05,0-.05,0,0-.11l.06.05Zm0-2.14a.09.09,0,0,1,0,.13C29.6,29.16,29.6,29.13,29.65,29.08Zm0,1.38v0s0,0,0,0h0S29.71,30.46,29.69,30.46Zm.6.41h0s0,0,0,0h0S30.31,30.88,30.29,30.87Zm.55-.59h-.06s0,0-.06-.06,0,0,0,0l.05,0a.21.21,0,0,0,.08,0C30.89,30.23,30.89,30.23,30.84,30.28Zm.51,2.45h0s0,0,0,0v0S31.35,32.71,31.35,32.73Zm.16-3.83h0c.05.06.05.06,0,.12h0C31.46,29,31.46,29,31.51,28.9Zm-.06,2.23h0s0,0,0,0,0,0,0,0S31.42,31.14,31.45,31.13Zm-.19-2,.07-.07s0,.05.06.06,0,0,0,.05a.06.06,0,0,1,0,0s0,0,0,0l-.05.07C31.22,29.2,31.22,29.19,31.26,29.15Zm-.05.36s0,0,0,0,0,0,.05,0,0,0-.06,0,0,0,0,0l0,0Zm0,2,0,0s0,0,0,0h0S31.2,31.49,31.21,31.49Zm0,1.11,0,0s0,0,0,0,0,0,0,0S31.17,32.59,31.17,32.6ZM31.09,32s0,0,.06.06,0,0,0,.05,0,0-.05,0h0Q31,32.1,31.09,32Zm-.25-3.82s0,0,.06,0l0,0v0c-.06,0-.06,0-.12,0S30.8,28.21,30.84,28.2Zm-.11.7,0,0c.06,0,.12,0,.16,0s-.14.1-.12.2h-.14c-.06,0,0-.13-.1-.13S30.69,28.93,30.73,28.9Zm-.29,1.22h0s0,0,0,0h0S30.42,30.11,30.44,30.12Zm-.07-2.34h0s0,0,0,0h0S30.36,27.77,30.37,27.78Zm-.06.4s.06,0,.07,0,0,0,0,.06l0,0h0C30.26,28.24,30.26,28.24,30.31,28.18Zm-.14-.51s0,0,0,0,0,0,0,0h0S30.16,27.68,30.17,27.67Zm-.05,1.24a.09.09,0,0,1,0-.13A.08.08,0,0,1,30.12,28.91Zm-.07-1.42v0s0,0,0,0h0S30,27.5,30.05,27.49Zm0,.88.09.09s-.08,0-.13,0S30,28.38,30.07,28.37Zm0,2.78a.08.08,0,0,1-.13,0A.09.09,0,0,1,30,31.15Zm-.17-.85h.07l0,0a0,0,0,0,1,0,0,.06.06,0,0,1-.1,0A0,0,0,0,1,29.87,30.3Zm0,1.14s0,0,0,0h0s0,0,0,0Zm-.06-1.34s0,0,0,0,0,0,0,0h0S29.85,30.09,29.82,30.1Zm0-2s0,0,0,0h-.17l0,0s0,0,0,0h.17Zm-.17-.78s0,0,.05,0h0c0,.06,0,.06,0,.12l-.06,0S29.68,27.32,29.68,27.31Zm0-.18a.08.08,0,0,1-.13,0A.09.09,0,0,1,29.68,27.13Zm-.16,1.24c.05,0,0,.05,0,.09a.08.08,0,0,1-.12,0Zm-1.08-.79v0s0,0,0,0,0,0,0,0S28.47,27.57,28.44,27.58Zm0-.52s0,0,0,0h-.05s0-.06,0-.1a.07.07,0,0,1,0-.07l.06.06A.06.06,0,0,1,28.47,27.06Zm.64,1.24L29,28.25H29l0,0,0,0h.11C29.15,28.24,29.15,28.24,29.11,28.3Zm.2.27s0-.06,0-.07,0,0,.06,0l0,0v0C29.37,28.62,29.37,28.62,29.31,28.57Zm-.16,2.15h0a0,0,0,0,1,0,0l0,0v0s-.08,0-.1,0Zm0,.16s0,.05.06.06,0,0,0,0a.06.06,0,0,1,0,0s0,0,0,0S29.12,30.93,29.17,30.88Zm-.67-.29h0a0,0,0,0,1,0,0,.48.48,0,0,1,0,.17s0,0,0,0l0,0-.06,0,0,0Zm-.34,2.17v0s-.08,0-.1,0v0A.06.06,0,0,1,28.16,32.76Zm-.14.75h0s0,0,0,0l0,0S28,33.52,28,33.51Zm.15-.55s0,0-.05,0h0c-.05,0-.05,0,0-.11l.06.05Zm0,.44v0s0,0,0,0v0S28.23,33.39,28.2,33.4Zm0-.86c-.06,0-.06,0-.12,0s0-.06,0-.08,0,0,0-.05,0,0,.05,0l.05.05Zm-.16-.26h.08l.05,0h.07c0,.06,0,.06,0,.11h-.17S28.06,32.3,28.07,32.28Zm-.31-.71s.08,0,.1,0,0,0,0,0a.06.06,0,0,1-.1,0Zm-.21-.74s0,0,0,0,0,0,0,0l0,0S27.52,30.84,27.55,30.83Zm-.12,1.09h0s0,0,0,0h0S27.42,31.91,27.43,31.92Zm-.27.25s.08,0,.1,0v0s-.08,0-.1,0Zm0-.14h0s0,0,0,0,0,0,0,0S27.1,32,27.13,32Zm-.15.44,0,0a.16.16,0,0,1,.16,0s.07,0,.1,0v.06l-.09.08h-.08c-.07,0-.07,0-.08-.09l0,0v-.08Zm.12.3c-.05,0-.08,0-.13,0A.09.09,0,0,1,27.1,32.77Zm-.29-1.21h0a0,0,0,0,1,.05,0l0,0v0s-.08,0-.1,0Zm0,1.85v0s0,0,0,0,0,0,0,0S26.74,33.42,26.77,33.41Zm-1.51,1.86c0,.06,0,.06,0,.11h-.11c0-.06,0-.06,0-.11Zm.64-2.91,0,0,0,0,0,0S25.88,32.38,25.9,32.36Zm0,0s0,0,0,0,0,0,0,0a0,0,0,0,1,0,0h0S25.84,32.42,25.85,32.4Zm-.28,1.49v0s0,0,0,0l0,0S25.54,33.9,25.57,33.89Zm0,.32v0s0,0,0,0l0,0S25.54,34.22,25.55,34.21Zm-.35-1.16s0,0,0,0h0s0,0,0,0Zm-.12.12.06,0,0,0s0,0-.05,0h0C25,33.23,25,33.23,25.08,33.17Zm0,.39s0,0,0,0l0,0s0,0,0,0S25,33.58,25.06,33.56Zm0,0s0,0,0,0,0,0,0,0v0h0S25,33.62,25,33.6Zm-1,.73s0,0,0,0,0,0,0,0v0S24,34.34,24.05,34.33Zm-.42.34s0,0,0,0h0s0,0,0,0Zm0,.31h0s0,0,0,0h0S23.64,35,23.65,35Zm-.15,2.11c-.05,0-.08,0-.13,0A.09.09,0,0,1,23.5,37.09Zm-.15-1.64h0s0,0,0,0,0,0,0,0S23.32,35.46,23.35,35.45Zm-.21,0,0,0,0,0s0,0,0,0,0,.07,0,.06,0,0,0-.05S23.13,35.49,23.14,35.48Zm-.51,1.35v0s0,0,0,0h0S22.6,36.84,22.63,36.83Zm-.18-.3h0s0,0,.05,0,0,0-.06,0,0,0,0,0l0,0S22.43,36.54,22.45,36.53Zm-.09.14a.08.08,0,0,1-.13,0A.09.09,0,0,1,22.36,36.67Zm-.15.83,0,0s0,0,0,0h0S22.2,37.49,22.21,37.5ZM22.09,37l0,0s0,0,0,0h0S22.08,37,22.09,37ZM21.85,38h0s0,0,.05,0,0,0-.06,0,0,0,0,0l0,0S21.83,38,21.85,38Zm-.12-1.32h0s0,0,0,0,0,0,0,0S21.7,36.72,21.73,36.71Zm-.36.24v0s0,0,0,0,0,0,0,0S21.34,37,21.37,37Zm-.12.78v0s0,0,0,0h0S21.22,37.74,21.25,37.73Zm-.08-.64s0,0,0,0,0,0,0,0v0S21.16,37.1,21.17,37.09Zm-.41,1.12s0,.06,0,.1a.08.08,0,0,1,0,.07s0-.06,0-.1A.08.08,0,0,1,20.76,38.21Zm-.11.78,0,0v0h-.1a.71.71,0,0,1,0,.14s0,0,0,0l-.08-.08s0-.07,0-.09h.09C20.57,39,20.59,39,20.65,39Zm-.21-1.06s0,0,0,0h0l0,0,0,0h0S20.43,38,20.44,37.93Zm-.06.91s0,0,0,0l.09.09-.08.07s0,0,0,0A.4.4,0,0,1,20.38,38.84Zm-.11,0v0s0,0,0,0v0S20.26,38.9,20.27,38.89Zm-6,6.63v0s0,0,0,0l0,0S14.25,45.51,14.22,45.52Zm4.31,3.26s0,0,0,0h0a.27.27,0,0,1,0,.15s0,0,0,0,0-.08,0-.1S18.52,48.8,18.53,48.78Zm-.78-1.31,0,0s0,0,0,0,0,0,0,0S17.74,47.48,17.75,47.47Zm-.22.46.08.08a.23.23,0,0,1,0,.14s-.09,0-.13,0a.08.08,0,0,1,0-.1s0,0,0-.07S17.5,47.94,17.53,47.93Zm-.13-.42h.06c.05.06.05.06,0,.14v.18s0,0,0,0a.68.68,0,0,1,0-.19l-.05-.07ZM17,47.17s.06,0,.08,0,0,0,0,0a.06.06,0,0,1,0,.07l-.07.06C17,47.28,17,47.22,17,47.17Zm-1.14-1.26s0,0,0,0h0s0,0,0,0l0,0s0,0,0,0S15.87,45.93,15.88,45.91Zm-1-.1s0,0,0,0h0s0,0,0,0ZM15.57,44a.09.09,0,0,1,.13,0A.08.08,0,0,1,15.57,44Zm.15-.46h0s0,0,0,0l0,0S15.73,43.54,15.72,43.53Zm.06.24h0s0,0,0,0h0S15.79,43.78,15.78,43.77Zm.06-.35v0s0,0,0,0h0S15.87,43.41,15.84,43.42Zm.3-.3a.08.08,0,0,1,0-.12l.09.09S16.18,43.12,16.14,43.12Zm.23-.06v0s0,0,0,0h0S16.39,43.06,16.37,43.06Zm8.43,7.72v0s0,0,0,0,0,0,0,0S24.81,50.77,24.8,50.78Zm1.4,1.14s0,0,0,0,0,0,0,0,0,0,0,0,0,0,0,0,0,0,0-.06S26.19,51.92,26.2,51.92Zm-.29,0s0,0,0,0,0,0,0,0,0,0,0,0S25.9,52,25.91,52ZM25,51.14l0,0s0,0,0,0a0,0,0,0,1,0,0s0,0,0,0,0,0,0-.06S25,51.14,25,51.14Zm0-.26h0s0,0,0,0l0,0S25,50.87,25,50.88Zm-.3-.5.06-.05h.06c0,.06,0,.06,0,.11h-.09s0,0-.05,0S24.65,50.4,24.67,50.38Zm-.06-.1h0s0,0,0,0h0S24.6,50.27,24.61,50.28Zm-.12.41v0s0,0,0,0h0S24.46,50.7,24.49,50.69ZM24.37,50s0,0,0,0,0,0,0,0h0S24.34,50,24.37,50Zm0,.38s0,0,0,0a.06.06,0,0,1,0,0v0c-.05.05-.05.05-.12,0S24.38,50.38,24.4,50.35Zm-.11.35h.07l0,0v0a.06.06,0,0,1-.1,0Zm0,.54h0s0,0,0,0h0S24.3,51.23,24.31,51.24Zm-.21-.52,0,0,.09.09-.08.07s0,0-.05,0A.49.49,0,0,1,24.1,50.72ZM24,50.45s0,0,0,0,0,0,0,0l0,0S24,50.46,24,50.45Zm-.08-.4v0s0,0,0,0v0S23.92,50.06,23.93,50.05Zm0,.81s0,0,.06.06,0,0,0,0,0,0-.05,0,0,0,0,0S23.84,50.91,23.89,50.86Zm-.2-1.71s0,0,0,0,0,0,0,0v0S23.68,49.16,23.69,49.15Zm-.32.66c-.07-.08-.07-.08,0-.14h.06c.05,0,0,.12.08.14l0,.07V50a.28.28,0,0,1-.18,0v-.07C23.28,49.82,23.36,49.87,23.37,49.81Zm-.14-.44v0s0,0,0,0l0,0S23.2,49.38,23.23,49.37Zm0,1a.09.09,0,0,1,0,.13C23.18,50.4,23.18,50.37,23.23,50.32Zm-.4-.14a.06.06,0,0,1-.1,0v0a.06.06,0,0,1,.1,0S22.82,50.18,22.83,50.18ZM23,48.61v0s0,0,0,0,0,0,0,0S23,48.62,23,48.61Zm-.24.14a0,0,0,0,1,0,0l0,0h.18l0,.07a.55.55,0,0,1-.12.14l0,0-.1-.07.06-.07Zm-.28.07h.11l0,0,0,0h-.12l0,0Zm-.08-.34s0,0,0,0h0s0,0,0,0Zm-2-1.6,0,0s0,0,0,0v0S20.37,46.87,20.37,46.88Zm1.8,1.2,0,0s0,0,0,0v0S22.17,48.07,22.17,48.08Zm0,1.29a.09.09,0,0,1,0-.13C22.25,49.29,22.25,49.32,22.2,49.37Zm-.05-1.56.09.09s-.08,0-.13,0S22.1,47.82,22.15,47.81Zm-.24.54,0,0s0,0,0,0h0S21.9,48.35,21.91,48.35Zm-.24-.72v0s0,0,0,0,0,0,0,0S21.64,47.64,21.67,47.63Zm-.32,1.16s0,0,0,0,0,0,0,0v0S21.34,48.8,21.35,48.79Zm-.09-.45a.09.09,0,0,1,.08,0s0,0,0,0,0,0,0,0-.1-.05-.16-.06S21.22,48.35,21.26,48.34Zm-.2-1.07s0,0,0,0h0s0,0,0,0Zm-.77-1.09h.05c.05.06.05.08,0,.12l0,0,0,0s0-.07,0-.11A.09.09,0,0,1,20.29,46.18Zm-.45-.62s0,0,0,0l0,0s0,0,0,0S19.82,45.58,19.84,45.56Zm-.05,0s0,0,0,0,0,0,0,0v0h0S19.78,45.62,19.79,45.6Zm-.31,1s0,0,0,0,.09,0,.09.08,0,.08,0,.11a.31.31,0,0,1-.07-.09A0,0,0,0,1,19.48,46.65Zm-.23-1.76v0s0,0,0,0l0,0S19.24,44.9,19.25,44.89Zm-.18-.18,0,0s0,0,0,0v0S19.06,44.72,19.07,44.71Zm0,.28.07,0h.05l0,0,0,0h-.11C19,45.05,19,45.05,19.08,45Zm0,.45s0,0,0,0l0,0s0,0,0,0,0,.07,0,.06,0,0,0-.05S19.05,45.45,19.06,45.44Zm-.19-.72s-.08,0-.1,0v0s.08,0,.1,0S18.86,44.72,18.87,44.72Zm-.11-.36,0,0,0,0a0,0,0,0,1,0,0s0,0,0,0,0,0,0-.06S18.75,44.36,18.76,44.36Zm-.22,1.35a.07.07,0,0,1,.09,0l-.08.08a.07.07,0,0,1-.09,0Zm-.17-.12,0,0s0,0,0,0h0a.25.25,0,0,1,0,.08s0,0,0,0l-.08-.08,0,0h.08v0ZM18.17,44h.11v-.12c-.06,0-.08,0-.06-.09l0,0h0v0a.25.25,0,0,1,0,.08s0,0,0,0a.09.09,0,0,1,0,.07s0,0,0,0,0,.08-.1.06l0,0A0,0,0,0,0,18.17,44Zm-.86-.7h0s0,0,0,0h0S17.3,43.25,17.31,43.28Zm0,.68-.06-.05s0,0,0,0,0,0,.05,0h0C17.33,43.9,17.33,43.9,17.29,44Zm0-2s0,0,0,0h0s0,0,0,0Zm-.23.35.09.09c0,.05-.05,0-.09,0A.08.08,0,0,1,17.1,42.28Zm-.19.08s0,0,.05,0h0c.05,0,.05.08,0,.13s0,0-.06-.06S16.9,42.38,16.91,42.36Zm0-.12h0s0,0,0,0h0S16.86,42.23,16.87,42.24Zm-.26,1.31s0,0,0,0h0s0,0,0,0Zm1.13-2.61,0,0,0,0,0,0S17.72,41,17.74,40.94Zm0,0s0,0,0,0,0,0,0,0v0h0S17.68,41,17.69,41Zm0,1.4s0,0,0,0a.06.06,0,0,1,0,0s0,0,0,0,.07,0,.12,0S17.75,42.35,17.74,42.38ZM18,41.21s0-.08,0-.13.08,0,.09,0Zm.42-.67,0,0s0,0,0,0,0,0,0,0S18.45,40.53,18.42,40.54Zm.06-.24h0s0,0,0,0,0,0,0,0S18.51,40.29,18.48,40.3Zm.06-.36s0,0,0,0,0,0,0,0l0,0S18.57,39.93,18.54,39.94Zm2.35,3,0,0s0,0,0,0,0,0,0,0S20.86,42.9,20.89,42.89Zm-1.25-2.33h0s0,0,0,0h0S19.62,40.55,19.64,40.56Zm-.15-1.43s0,0,0,0,0,0,0,0v0S19.48,39.14,19.49,39.13ZM18.73,41l.09.09s-.08,0-.13,0S18.68,41,18.73,41Zm.47.83v0s0,0,0,0,0,0,0,0S19.23,41.85,19.2,41.86Zm.06.12,0,0s0,0,0,0,0,0,0,0S19.29,42,19.26,42Zm.36-.78a.11.11,0,0,1-.1,0c-.07,0-.16,0-.22,0v0l.05-.07s0-.06,0-.08a.14.14,0,0,1,.08.07.42.42,0,0,1,0,.1h.06c.06,0,0-.09.06-.11s0,0,0,.07,0,.05.05.07A.26.26,0,0,1,19.62,41.2Zm.45.1a.08.08,0,0,1,.13,0A.09.09,0,0,1,20.07,41.3Zm.24.41,0,0-.09-.09.08-.07s0,0,0,0A.48.48,0,0,1,20.31,41.71ZM20.42,43v0s0,0,0,0v0S20.43,43,20.42,43Zm.28-.22h0s0,0,0,0,0,0,0,0S20.73,42.81,20.7,42.82Zm.18.41h0s0,0,0,0v0S20.89,43.24,20.88,43.23Zm.72.49h0s0,0,0,0,0,0,0,0S21.63,43.71,21.6,43.72Zm.09,0a.09.09,0,0,1,.13,0A.08.08,0,0,1,21.69,43.75Zm1.5,1.87a.08.08,0,0,1-.12,0l.09-.09C23.21,45.54,23.19,45.58,23.19,45.62Zm.12-.9s-.08,0-.1,0v0s.08,0,.1,0Zm.11,1v0s0,0,0,0v0S23.43,45.67,23.42,45.68Zm.17.51s0,0-.06.06-.05-.09,0-.13,0,0,.07,0S23.6,46.17,23.59,46.19Zm2.7,1.8s0,0,0,0,0,0,0,0h0S26.26,48,26.29,48Zm-2.4-1.63h-.06s0,0,0-.12h.06C23.93,46.3,23.93,46.3,23.89,46.36Zm.25.1s0,0,0,0,0,0,0,0h0S24.15,46.45,24.14,46.46Zm.05.19s0,0,0,0v0s0,0,0,0Zm.15-.92a.06.06,0,0,1,.1,0s0,0,0,0a.06.06,0,0,1-.1,0A0,0,0,0,1,24.34,45.73Zm.1,1.4s-.08,0-.1,0v0h0a0,0,0,0,1,.05,0l0,0S24.45,47.12,24.44,47.13Zm0-.47,0,0s0,0,0,0,0,0,0,0S24.51,46.65,24.48,46.66Zm.15.69c-.06,0-.06,0-.11,0v-.06c.06,0,.06,0,.11,0Zm.18.66a.09.09,0,0,1,.13,0C24.89,48.06,24.86,48.06,24.81,48Zm.17-.16s-.08,0-.1,0a0,0,0,0,1,0,0h0a0,0,0,0,1,.05,0l0,0S25,47.84,25,47.85Zm.32,0,0,0,0,0s-.06,0-.07,0,0,0,0-.06l0,0,0,0s.06,0,.07,0S25.32,47.81,25.3,47.83Zm.1-.82s-.09,0-.13.06-.07,0-.1,0l.11-.09h.11l0,0Zm.05.61s0-.06,0-.1a.11.11,0,0,1,.05-.09C25.47,47.52,25.5,47.58,25.45,47.62Zm.3,0s0-.05-.07-.07,0,0,0,0a.06.06,0,0,1,0,0h0S25.78,47.58,25.75,47.63Zm.23-.2h0s0,0,0,0h0S26,47.44,26,47.43Zm.31,1.39a.09.09,0,0,1,0,.13A.08.08,0,0,1,26.29,48.82Zm.05.59h0s0,0,0,0l0,0S26.35,49.42,26.34,49.41Zm2.05.45h0s0,0,0,0h0S28.38,49.85,28.39,49.86Zm-1.27-1.27a.09.09,0,0,1,0-.13A.08.08,0,0,1,27.12,48.59Zm.54.95h-.11s0,0,0,0l.07-.08.09.09Zm0-.23a.09.09,0,0,1,0-.13A.08.08,0,0,1,27.66,49.31Zm.33.93,0,0s0,0,0,0v0S28,50.23,28,50.24Zm.19,0s0,0,0,0-.06.05-.12,0l.05-.06,0,0S28.18,50.24,28.18,50.26Zm.22,0a.06.06,0,0,1-.1,0,0,0,0,0,1,0,0h.07l0,0S28.41,50.24,28.4,50.25Zm.14.35s-.08,0-.13,0,.05,0,.07-.07,0,0,0,0a.06.06,0,0,1,0,0S28.54,50.59,28.54,50.6Zm.14.86h0s0,0,0,0v0S28.71,51.45,28.68,51.46Zm.57-.26,0,0s0,0,0,0,0,0,0,0S29.25,51.19,29.25,51.2Zm.05.48v0s0,0,0,0,0,0,0,0S29.31,51.67,29.3,51.68Zm.53,0s0,0,0,0l0,0s0,0,0,0Zm.05-.35s0,0,0,0,0,0,0,0l0,0S29.91,51.27,29.88,51.28Zm.41.53h0s0,0,0,0h0S30.31,51.82,30.29,51.81Z" style="fill:#281e53"/><path d="M36.6,42.52s0,0,0,0h0s0,0,0,0Z" style="fill:#281e53"/><rect x="5" y="5" width="45" height="45" rx="22.5" style="fill:#fffa0c"/><path d="M23,22a4,4,0,0,0-4,4v6a4,4,0,0,0,8,0V26A4,4,0,0,0,23,22Zm1,10a1,1,0,0,1-2,0V26a1,1,0,0,1,2,0Z" style="fill:#28282a"/><path d="M40,16H36V12.5A12.77,12.77,0,0,0,23,0,12.77,12.77,0,0,0,10,12.5V16H6a6,6,0,0,0-6,6V42a6,6,0,0,0,6,6H40a6,6,0,0,0,6-6V22A6,6,0,0,0,40,16ZM13,12.5A9.77,9.77,0,0,1,23,3a9.77,9.77,0,0,1,10,9.5V16H31V12.5A7.77,7.77,0,0,0,23,5a7.77,7.77,0,0,0-8,7.5V16H13Zm15,0V16H18V12.5A4.77,4.77,0,0,1,23,8,4.77,4.77,0,0,1,28,12.5ZM40,45H6a3,3,0,0,1-3-3H43A3,3,0,0,1,40,45Zm3-6H3V22a3,3,0,0,1,3-3H40a3,3,0,0,1,3,3Z" style="fill:#28282a"/></g></g></svg>