<svg xmlns="http://www.w3.org/2000/svg" viewBox="0 0 51 51"><title>segmentation2</title><g id="a1805772-7893-4b6d-911c-30cf5d2b7d28" data-name="Layer 2"><g id="ae2628e6-eebd-4065-912d-a01746f8b990" data-name="Working Layer"><rect x="6" y="6" width="45" height="45" rx="22.5" style="fill:#fffa0c"/><path d="M44.56,14.5H37a18.36,18.36,0,0,0-2-5.16,18.77,18.77,0,0,0-4.56-5.28h0A19,19,0,0,0,22.89.47h0A19.05,19.05,0,0,0,18.75,0,18.72,18.72,0,0,0,0,18.75a18.49,18.49,0,0,0,.22,2.73h0a18.52,18.52,0,0,0,2.28,6.6A18.73,18.73,0,0,0,14.5,37v0h0v0h0v7.56A3.44,3.44,0,0,0,17.94,48H44.56A3.44,3.44,0,0,0,48,44.56V17.94A3.44,3.44,0,0,0,44.56,14.5ZM45,17.94v4.94L36.73,18.1l-1-.6h8.87A.44.44,0,0,1,45,17.94ZM31.24,30.07,27,27.63,20.72,24,17.5,22.13V18.06l1.94,1.12,6.31,3.63,6.32,3.64.75-1.3-.75,1.3,1.55.9h0L45,33.91V38Zm-8,6.41h0L38,45H30.9L17.5,37.26v-4.1L19,34l.75-1.3L19,34Zm-8.74-2.6a15.54,15.54,0,0,1-3.7-1.57l3.7-2.13v3.7Zm20.62-9.13-.75,1.3.75-1.3-1.55-.89h0l-6.32-3.63L22.54,17.5h7.15L32.32,19l2.91,1.68L45,26.34v4.1ZM33.05,12.18a15.61,15.61,0,0,1,.83,2.32H29ZM31.54,9.59,23,14.5H17.94a3.4,3.4,0,0,0-1.33.27l.58,1.37h0l-.58-1.37a3.42,3.42,0,0,0-2.11,3.17v1.49L4.42,25.25a15.13,15.13,0,0,1-1-3.22l25.9-15A15.9,15.9,0,0,1,31.54,9.59ZM3,18.75a15.78,15.78,0,0,1,.55-4.11L22.76,3.55a15.71,15.71,0,0,1,3.86,1.59L3,18.78ZM17.64,3,5.69,9.94A15.7,15.7,0,0,1,17.64,3ZM5.91,27.85l8.59-5v3.82L8.16,30.37A15.84,15.84,0,0,1,5.91,27.85ZM17.5,44.56V40.73L24.9,45h-7A.44.44,0,0,1,17.5,44.56ZM44.56,45H44L24.74,33.88,24,35.18l.75-1.3-4.26-2.47h0l-3-1.71V25.59l1.72,1,6.31,3.64,4.21,2.43L45,41.47v3.09A.44.44,0,0,1,44.56,45Z"/></g></g></svg>