<svg xmlns="http://www.w3.org/2000/svg" viewBox="0 0 52.5 48.76"><title>success</title><g id="aa00546b-4e31-4e14-836c-9e2d61423add" data-name="Layer 2"><g id="bf8c998d-63ff-4eb5-ab91-a3b8bef7755e" data-name="Working Layer"><path d="M46.5,48.76H7.5v-45h45v39A6,6,0,0,1,46.5,48.76Z" style="fill:#fffa0c"/><path d="M48.5.32,38.94,7.78a3.49,3.49,0,0,0-.63,5l.77.94c-.25.08-.5.18-.75.28a17.61,17.61,0,0,1-3.58.83.88.88,0,0,1-.43-.1L30.83,13a5.68,5.68,0,0,0-2.48-.53,6.27,6.27,0,0,0-3.08.79l-.61-.3a6.6,6.6,0,0,0-2.94-.62,6.83,6.83,0,0,0-2.67.5l-2.39,1a2.21,2.21,0,0,1-.92.15,19.84,19.84,0,0,1-2.87-.34l-.18,0-.23-.06.67-.75a3.52,3.52,0,0,0-.64-5L2.4.3A1.5,1.5,0,1,0,.6,2.7l10.09,7.55a.5.5,0,0,1,.2.34.47.47,0,0,1-.06.32L7.15,15.08h0L2.82,19.93.39,22.6a1.5,1.5,0,0,0,1.88,2.29,4.37,4.37,0,0,0,1,1.19L6.9,29.33a3.69,3.69,0,0,0,.2,5l.29.27a3.52,3.52,0,0,0,.83.55A3.77,3.77,0,0,0,9,39.71l.32.3a3.76,3.76,0,0,0,2.57,1H12a3.82,3.82,0,0,0,1.86-.59,3.82,3.82,0,0,0,.6.74l.32.29a3.77,3.77,0,0,0,2.58,1h.14a3.75,3.75,0,0,0,1.16-.24,3.75,3.75,0,0,0,.75,1l.32.29a3.73,3.73,0,0,0,2.57,1h.15A3.65,3.65,0,0,0,24.23,44h0a4.3,4.3,0,0,0,3,1.17h0a4.41,4.41,0,0,0,3.2-1.39l.26-.28a4.35,4.35,0,0,0,2.5.78h0a4.38,4.38,0,0,0,3.21-1.39l.36-.39a4.19,4.19,0,0,0,.71-1,4.42,4.42,0,0,0,2.85-1.38l.36-.39a4.28,4.28,0,0,0,1.15-2.53,4.34,4.34,0,0,0,1.27-.93l.36-.4a4.29,4.29,0,0,0,1.17-3,4.36,4.36,0,0,0-1-2.77l4-4.13a4.71,4.71,0,0,0,.71-1.1A1.42,1.42,0,0,0,49,25a1.51,1.51,0,0,0,1.15-2.47l-2.29-2.73-3.64-4.66L44,14.94h0l-3.32-4a.49.49,0,0,1-.1-.37.53.53,0,0,1,.22-.36l9.59-7.48A1.5,1.5,0,1,0,48.5.32ZM13,29.37l-2.54,2.88a.94.94,0,0,1-.61.3.56.56,0,0,1-.37-.12l-.29-.27a.77.77,0,0,1,.13-1l2.56-2.89a.9.9,0,0,1,.6-.29.52.52,0,0,1,.36.12l.29.27C13.32,28.57,13.27,29,13,29.37Zm-1,8.65a.78.78,0,0,1-.57-.21l-.32-.3a.79.79,0,0,1,0-1.13l6.53-7.2a.75.75,0,0,1,.55-.25.7.7,0,0,1,.57.21l.32.29a.81.81,0,0,1,0,1.14l-2,2.22-.12.11-.86,1-3.53,3.9A.81.81,0,0,1,11.91,38Zm5.5,1.46a.8.8,0,0,1-.57-.22L16.53,39a.8.8,0,0,1,0-1.15L18.2,35.9l.93-1a.77.77,0,0,1,1.05,0l.31.3a.81.81,0,0,1,0,1.15L18,39.22A.78.78,0,0,1,17.41,39.48Zm4.95,2.05a.75.75,0,0,1-.57-.21L21.47,41a.81.81,0,0,1,0-1.17l1.3-1.53a.81.81,0,0,1,.53-.24.75.75,0,0,1,.57.22l.32.29a.81.81,0,0,1,0,1.17l-1.28,1.51A.73.73,0,0,1,22.36,41.53Zm4.85.64h0a1.37,1.37,0,0,1-.85-.29v0l.08-.1a3.74,3.74,0,0,0,.84-1.5l1.21,1.2-.26.27A1.35,1.35,0,0,1,27.21,42.17Zm10.91-4.11a1.39,1.39,0,0,1-1,.44l-6.3-6.3a1.5,1.5,0,0,0-2.12,2.12l6,6-.11.15-.36.39a1.38,1.38,0,0,1-1,.43h0a1.37,1.37,0,0,1-.94-.36l-.87-.81L29,37.71a1.49,1.49,0,0,0-1.9-.15,3.74,3.74,0,0,0-.84-1.16l-.31-.29a3.76,3.76,0,0,0-2.25-1A3.68,3.68,0,0,0,22.53,33l-.31-.29a3.44,3.44,0,0,0-.71-.51,3.81,3.81,0,0,0-.51-5l-.32-.29a3.71,3.71,0,0,0-2.72-1,3.76,3.76,0,0,0-2.29.9,3.49,3.49,0,0,0-.55-.68l-.28-.27A3.52,3.52,0,0,0,12.32,25a3.94,3.94,0,0,0-2.7,1.26l-.75.85L5.19,23.82a1.33,1.33,0,0,1-.47-1,1.29,1.29,0,0,1,.34-.87l4.33-4.86a1.94,1.94,0,0,1,.75-.5,2.47,2.47,0,0,1,1.76,0l.19.06a22.74,22.74,0,0,0,3.46.44,5.28,5.28,0,0,0,2.3-.4l2.37-1a4,4,0,0,1,1.5-.26,4.44,4.44,0,0,1,1.08.13l-.8.8a4.58,4.58,0,0,0,5.37,7.28l1.89-1a2.11,2.11,0,0,1,2.41.33l7.72,7.28h0l1.81,1.68a1.28,1.28,0,0,1,.43,1,1.32,1.32,0,0,1-.36.93l-.37.39a1.18,1.18,0,0,1-.21.18l-6-6a1.51,1.51,0,1,0-2.13,2.13l6.32,6.31a1.31,1.31,0,0,1-.36.87Zm7.3-14.12-4,4.11-7.74-7.3a5.11,5.11,0,0,0-5.87-.81l-1.88,1a1.58,1.58,0,0,1-1.83-.27,1.6,1.6,0,0,1-.48-1.12,1.57,1.57,0,0,1,.46-1.12l2.23-2.24.29-.21a3,3,0,0,1,1.7-.47,2.74,2.74,0,0,1,1.17.23L33,17.42a3.82,3.82,0,0,0,2.09.39,20.85,20.85,0,0,0,4.46-1.07,3.47,3.47,0,0,1,1-.3,1.65,1.65,0,0,1,1.3.59l3.65,4.68a1.85,1.85,0,0,1,0,2.23Z" style="fill:#28282a"/></g></g></svg>