<svg xmlns="http://www.w3.org/2000/svg" viewBox="0 0 636.23 636"><title>logo2</title><g id="e865489d-00ee-4ab9-a806-5072198904cc" data-name="Layer 2"><g id="ac35e0c1-383a-444e-93e3-dfde75a081f2" data-name="Layer 1"><path d="M601.46,173.53A320.86,320.86,0,0,0,508.92,63.61L487.3,92.39a284.53,284.53,0,0,1,82.1,97.52A278.81,278.81,0,0,1,600.11,318,281.7,281.7,0,0,1,374.53,594.35h0a285,285,0,0,1-96.6,2.81,2.06,2.06,0,0,1-1.82-2V138h-36V595.16a38.27,38.27,0,0,0,32.74,37.64,321,321,0,0,0,108.84-3.17,318.13,318.13,0,0,0,219.77-456.1Z"/><path d="M66.82,446.09A278.81,278.81,0,0,1,36.11,318,281.7,281.7,0,0,1,261.69,41.65a285,285,0,0,1,96.6-2.81,2,2,0,0,1,1.82,2V498h36V40.84A38.26,38.26,0,0,0,363.37,3.2,317.84,317.84,0,0,0,72.89,115.53,317.64,317.64,0,0,0,34.76,462.47,321.08,321.08,0,0,0,127.3,572.39l21.62-28.78A284.85,284.85,0,0,1,66.82,446.09Z"/></g></g></svg>