<svg xmlns="http://www.w3.org/2000/svg" viewBox="0 0 167.28 88.4"><defs><style>.cls-1{fill:#ffd400;}</style></defs><title>ob-logo</title><g id="Layer_2" data-name="Layer 2"><g id="Layer_1-2" data-name="Layer 1"><path class="cls-1" d="M72.54,44.74a7.53,7.53,0,0,0-3.66,1.06,3,3,0,0,0-1.31,2.69,3,3,0,0,0,.32,1.41,3,3,0,0,0,.85,1,3.5,3.5,0,0,0,1.23.58,5.57,5.57,0,0,0,1.41.19,9.55,9.55,0,0,0,2.39-.31,6.46,6.46,0,0,0,2.06-.94,4.71,4.71,0,0,0,1.44-1.6,4.53,4.53,0,0,0,.55-2.3V43.76a10.11,10.11,0,0,1-2.62.71C74.31,44.59,73.42,44.68,72.54,44.74Z"/><path class="cls-1" d="M29.74,44.74a7.53,7.53,0,0,0-3.66,1.06,3,3,0,0,0-1.31,2.69,3,3,0,0,0,.32,1.41,3,3,0,0,0,.85,1,3.58,3.58,0,0,0,1.23.58,5.7,5.7,0,0,0,1.41.19A9.55,9.55,0,0,0,31,51.35,6.46,6.46,0,0,0,33,50.41a4.71,4.71,0,0,0,1.44-1.6,4.53,4.53,0,0,0,.55-2.3V43.76a10,10,0,0,1-2.62.71C31.51,44.59,30.63,44.68,29.74,44.74Z"/><path class="cls-1" d="M0,0V88.4H88.4V0ZM21.43,50.58a4.64,4.64,0,0,1-1.5,1.62,6.84,6.84,0,0,1-2.26,1,11.74,11.74,0,0,1-2.88.33A7.88,7.88,0,0,1,12,53,6.15,6.15,0,0,1,10,51.76a5.92,5.92,0,0,1-1.33-1.91,6.52,6.52,0,0,1-.54-2.35h2.07a5.19,5.19,0,0,0,1.72,3.22,5.8,5.8,0,0,0,3.56.94,5.89,5.89,0,0,0,1.94-.28,3.86,3.86,0,0,0,1.35-.73,3.19,3.19,0,0,0,.8-1,2.82,2.82,0,0,0,.27-1.22A2.29,2.29,0,0,0,19,46.46a6.2,6.2,0,0,0-2.1-1,26.7,26.7,0,0,0-2.72-.62,13.33,13.33,0,0,1-2.73-.76,5.43,5.43,0,0,1-2.09-1.47,3.92,3.92,0,0,1-.83-2.69,4.61,4.61,0,0,1,1.61-3.63,6.77,6.77,0,0,1,4.58-1.41,7.82,7.82,0,0,1,4.65,1.28,5.83,5.83,0,0,1,2.16,4.27H19.42a3.79,3.79,0,0,0-1.54-2.87,5.78,5.78,0,0,0-3.22-.84,4.54,4.54,0,0,0-3,.84,2.66,2.66,0,0,0-1,2.19,2.13,2.13,0,0,0,.84,1.82,6.91,6.91,0,0,0,2.09,1q1.26.39,2.73.69a14.19,14.19,0,0,1,2.72.87,5.91,5.91,0,0,1,2.09,1.52A3.87,3.87,0,0,1,22,48.35,4.39,4.39,0,0,1,21.43,50.58ZM39.21,53l-.7.2a2.9,2.9,0,0,1-.9.14,3.93,3.93,0,0,1-.92-.1,1.61,1.61,0,0,1-.82-.32,2,2,0,0,1-.49-.62,2.56,2.56,0,0,1-.26-.78,5.14,5.14,0,0,1-.07-.9,8.92,8.92,0,0,1-3,2.18,8.71,8.71,0,0,1-3.61.75,8.28,8.28,0,0,1-2.23-.31,5.61,5.61,0,0,1-1.89-.95,4.64,4.64,0,0,1-1.29-1.59,4.83,4.83,0,0,1-.48-2.23c0-3,2.05-4.77,6.16-5.31l2.83-.38c.38,0,.84-.11,1.38-.2a5.62,5.62,0,0,0,1.31-.37,1.1,1.1,0,0,0,.63-.8,5.11,5.11,0,0,0,.12-1,3.47,3.47,0,0,0-1-2.57,4.68,4.68,0,0,0-3.38-1,9,9,0,0,0-1.94.19,4.08,4.08,0,0,0-1.55.65,3.39,3.39,0,0,0-1.09,1.22,5.24,5.24,0,0,0-.57,1.93H23.41a6.34,6.34,0,0,1,.71-2.68,5.33,5.33,0,0,1,1.59-1.8,6.3,6.3,0,0,1,2.24-1,10.82,10.82,0,0,1,2.71-.33,10.51,10.51,0,0,1,2.5.29,5.74,5.74,0,0,1,2.05.92,4.32,4.32,0,0,1,1.36,1.69,6,6,0,0,1,.49,2.58V50c0,.79.14,1.3.43,1.51s.85.17,1.72-.15ZM64.16,53h-2V40.83a5,5,0,0,0-.8-3,3.48,3.48,0,0,0-3-1.09,5.09,5.09,0,0,0-2.16.49,5,5,0,0,0-1.82,1.52,3.69,3.69,0,0,0-.56,1A8.43,8.43,0,0,0,53.44,41a11.31,11.31,0,0,0-.19,1.3c0,.43,0,.82,0,1.19V53h-2V40.83a5,5,0,0,0-.8-3,3.49,3.49,0,0,0-3-1.09,4.93,4.93,0,0,0-4,2,4.28,4.28,0,0,0-.56,1A9.87,9.87,0,0,0,42.47,41a9.45,9.45,0,0,0-.18,1.3c0,.43,0,.82,0,1.19V53H40.19V35.38h2.05V38h.06a5.5,5.5,0,0,1,2.25-2.33,6.61,6.61,0,0,1,3.2-.8,7,7,0,0,1,2.08.27,4.82,4.82,0,0,1,1.45.74,4.16,4.16,0,0,1,1,1.07,7.2,7.2,0,0,1,.67,1.33,5.92,5.92,0,0,1,2.36-2.57,6.76,6.76,0,0,1,3.39-.84,5.93,5.93,0,0,1,2.88.6,4.35,4.35,0,0,1,1.65,1.56A6.08,6.08,0,0,1,64,39.29a18.37,18.37,0,0,1,.18,2.59ZM82,53l-.69.2a2.92,2.92,0,0,1-.91.14,3.91,3.91,0,0,1-.91-.1,1.57,1.57,0,0,1-.82-.32,2,2,0,0,1-.5-.62,2.55,2.55,0,0,1-.25-.78,5.14,5.14,0,0,1-.07-.9,8.92,8.92,0,0,1-3,2.18,8.71,8.71,0,0,1-3.61.75,8.23,8.23,0,0,1-2.23-.31,5.43,5.43,0,0,1-1.89-.95,4.64,4.64,0,0,1-1.29-1.59,4.83,4.83,0,0,1-.48-2.23c0-3,2-4.77,6.16-5.31l2.83-.38c.38,0,.84-.11,1.38-.2a5.62,5.62,0,0,0,1.31-.37,1.1,1.1,0,0,0,.63-.8,5.11,5.11,0,0,0,.12-1,3.47,3.47,0,0,0-1-2.57,4.69,4.69,0,0,0-3.39-1,9.05,9.05,0,0,0-1.94.19,4.15,4.15,0,0,0-1.55.65,3.59,3.59,0,0,0-1.09,1.22,5.24,5.24,0,0,0-.56,1.93H66.21a6.19,6.19,0,0,1,.71-2.68,5.41,5.41,0,0,1,1.58-1.8,6.43,6.43,0,0,1,2.25-1,10.82,10.82,0,0,1,2.71-.33,10.58,10.58,0,0,1,2.5.29,5.69,5.69,0,0,1,2,.92,4.26,4.26,0,0,1,1.37,1.69,6,6,0,0,1,.49,2.58V50c0,.79.14,1.3.43,1.51s.85.17,1.71-.15Z"/><path class="cls-1" d="M99.43,53.51c-3,0-4.9-1.93-4.9-4.53V47.75H97v.83c0,1.82.83,2.76,2.42,2.76a2.14,2.14,0,0,0,2.35-2.3c0-1.59-.69-2.58-2.94-4-2-1.28-4.13-3-4.13-5.6a4.73,4.73,0,0,1,9.46,0v1.15h-2.41v-.83c0-1.5-.73-2.68-2.42-2.68a1.9,1.9,0,0,0-2.11,2c0,1.59.72,2.42,3.29,4.08s3.78,3.19,3.78,5.49A4.65,4.65,0,0,1,99.43,53.51Z"/><path class="cls-1" d="M111.24,53.51c-3.34,0-5-2.2-5-5.12V40c0-2.9,1.64-5.09,5-5.09s5,2.19,5,5.09v8.41C116.23,51.31,114.62,53.51,111.24,53.51Zm2.47-13.75a2.34,2.34,0,0,0-2.47-2.62,2.31,2.31,0,0,0-2.43,2.62v8.85a2.31,2.31,0,0,0,2.43,2.62,2.34,2.34,0,0,0,2.47-2.62Z"/><path class="cls-1" d="M123.45,53.51c-2.9,0-5-1.71-5-4.66V35.26H121V48.85a2.44,2.44,0,1,0,4.87,0V35.26h2.52V48.85C128.43,51.8,126.37,53.51,123.45,53.51Z"/><path class="cls-1" d="M140.29,53.3c-2,0-2.7-.57-2.7-2.42V47.4c0-1.23-.57-2.06-1.85-2.06h-2.52v7.77h-2.55V35.26h5.18c2.89,0,4.18,1.45,4.18,4v2c0,1.74-.59,2.79-2.31,3.14a2.88,2.88,0,0,1,2.39,3.1V50.7c0,.48.21.69.75.69V53.3Zm-2.81-14.1c0-1-.43-1.74-1.63-1.74h-2.63v5.95h2.36c1.23,0,1.9-.7,1.9-2Z"/><path class="cls-1" d="M147.3,53.51a4.67,4.67,0,0,1-5-5V39.82a4.65,4.65,0,0,1,5-4.93c3.37,0,4.85,2.09,4.85,4.69v1.93h-2.28V39.63a2.51,2.51,0,0,0-5-.11v9.33a2.51,2.51,0,0,0,5-.11V46.87h2.28v1.92C152.15,51.39,150.67,53.51,147.3,53.51Z"/><path class="cls-1" d="M154.37,53.11V35.26h8.31v2.31h-5.79v5.09h4.18v2.2h-4.18V50.8h5.79v2.31Z"/><path class="cls-1" d="M166.11,37.61a1.18,1.18,0,1,1,1.17-1.18A1.16,1.16,0,0,1,166.11,37.61Zm0-2.18a1,1,0,1,0,1,1A1,1,0,0,0,166.11,35.43Zm.35,1.54c-.11,0-.15-.06-.15-.17v-.13a.12.12,0,0,0-.14-.13H166V37h-.26V35.9h.5c.25,0,.36.12.36.29v0a.23.23,0,0,1-.2.24.21.21,0,0,1,.2.23v.11a.1.1,0,0,0,.05.1V37Zm-.16-.75c0-.08,0-.12-.14-.12H166v.28h.18c.1,0,.15,0,.15-.13Z"/></g></g></svg>