<svg data-ga-category="Top Nav" data-ga-label="Quid Logo" class="header__logo-img" version="1.1" xmlns="http://www.w3.org/2000/svg" xmlns:xlink="http://www.w3.org/1999/xlink" x="0px" y="0px" width="94.667px" height="48.333px" viewBox="0 0 94.667 48.333" enable-background="new 0 0 94.667 48.333" xml:space="preserve">
						<g id="Layer_1" display="none">
							<path display="inline" fill="#DD3131" d="M49.791,17.856c0-1.1,0.041-1.18-1.099-1.18c-1.385,0-1.545-0.041-1.545-0.569
								c0-0.611,0.486-0.611,1.382-0.611c1.139,0,2.438-0.039,3.414-0.161l0.773-0.08c0.283,0,0.363,0.202,0.363,0.486
								c0,0.04-0.08,1.503-0.08,1.788c0,0.813-0.041,1.788-0.041,2.642v5.774c0,1.868,0,3.13,0.487,3.615
								c0.284,0.327,0.487,0.327,1.421,0.407c0.449,0,0.529,0.285,0.529,0.568c0,0.529-0.121,0.609-0.771,0.609
								c-1.057,0-1.22,0-2.07,0.041l-2.318,0.286c-0.365,0-0.486-0.082-0.527-3.7c-1.221,1.786-2.684,3.82-5.896,3.82
								c-2.195,0-5-1.178-5-5.284c0-0.364,0.082-3.373,0.123-4.104c0.04-0.975,0.12-2.683,0.162-4.309c0.04-1.14-0.042-1.222-1.506-1.222
								c-0.729,0-1.056,0-1.056-0.567c0-0.447,0.203-0.61,0.609-0.61c2.397,0,2.682-0.081,4.471-0.201c0.406-0.041,0.65-0.041,0.65-0.041
								c0.201,0,0.366,0.041,0.366,0.324c0,0.163-0.123,1.506-0.123,1.787c-0.12,1.709-0.405,5.407-0.405,8.417
								c0,3.332,1.016,4.35,2.722,4.35c2.969,0,4.474-2.969,4.718-4.391c0.201-1.138,0.242-3.942,0.242-5.244v-2.643"></path>
							<path display="inline" fill="#DD3131" d="M62.876,6.149c0,1.015-0.567,2.234-1.951,2.234c-1.096,0-1.951-0.771-1.951-2.234
								c0-1.262,0.732-2.155,1.951-2.155C62.267,3.993,62.876,5.171,62.876,6.149 M62.714,27.734c0,1.787,0,2.192,1.059,2.233
								c1.423,0.082,1.585,0.123,1.585,0.771c0,0.489-0.202,0.528-0.651,0.528c-0.404,0-2.232-0.121-3.17-0.121
								c-1.099,0-3.007,0.121-3.943,0.121c-0.689,0-0.812-0.121-0.812-0.569c0-0.607,0.163-0.648,1.627-0.73
								c1.301-0.08,1.137-1.055,1.137-2.438v-8.822c0-1.667,0.041-2.031-0.854-2.031c-1.1,0-1.789,0.201-1.789-0.569
								c0-0.488,0.406-0.609,0.773-0.609c0.365,0,1.748-0.081,2.602-0.163c1.098-0.121,2.114-0.283,2.195-0.283
								c0.322,0,0.404,0.324,0.404,0.567c0,0.283-0.123,1.667-0.123,2.237c0,0.447-0.039,1.544-0.039,2.152V27.734L62.714,27.734z"></path>
							<path display="inline" fill="#DD3131" d="M79.387,20.171c0-2.029-0.937-4.306-4.146-4.306c-3.943,0-5.082,4.187-5.082,7.151
								c0,3.74,1.18,7.113,4.838,7.113c1.95,0,3.537-1.139,3.984-2.521c0.405-1.22,0.405-3.007,0.405-3.535V20.171 M79.632,9.929
								c0-0.812,0.08-3.416-0.082-4.024c-0.122-0.448-0.485-0.448-0.895-0.448c-0.201,0-1.058,0.042-1.22,0
								c-0.243-0.039-0.406-0.16-0.406-0.525c0-0.65,0.283-0.65,1.341-0.693C79.1,4.2,81.216,3.915,82.07,3.753
								c0.122-0.043,0.366-0.08,0.529-0.08c0.445,0,0.445,0.283,0.445,0.486c0,0.203-0.203,4.634-0.203,5.488
								c0,1.056-0.162,6.666-0.162,7.439v8.534c0,4.104,0.203,4.229,1.667,4.229c0.487,0,0.731,0.08,0.731,0.647
								c0,0.528-0.123,0.528-1.222,0.57c-0.812,0.041-1.505,0.08-1.991,0.163c-0.691,0.122-1.748,0.364-1.789,0.364
								c-0.527,0-0.568-1.016-0.609-2.965c-1.342,1.949-3.495,2.965-5.854,2.965c-3.658,0-7.234-2.764-7.234-7.765
								c0-4.675,3.209-8.981,8.131-8.981c2.602,0,4.023,1.179,4.957,2.274L79.632,9.929z"></path>
							<path display="inline" fill="#DD3131" d="M43.826,38.834c-1.152,0-2.088,0.937-2.088,2.09c0,0.841,0.5,1.561,1.217,1.892
								c-6.183,1.245-19.053-5.229-24.517-7.496c-1.384-0.573-2.609-0.95-3.708-1.178c0.568-0.341,1.082-0.685,1.543-1.03
								c0.33,0.02,0.66,0.028,0.997,0.028c5.563,0,10.521-2.396,13.676-6.336c2.154-2.629,3.541-6.056,3.541-10.281
								C34.489,7.529,27.217,0,17.216,0C7.751,0-0.002,6.891-0.002,16.62c0,0.338,0.019,0.8,0.067,1.338
								c0.027,0.339,0.071,0.677,0.121,1.015c0.011,0.072,0.021,0.145,0.032,0.22c0.116,0.724,0.267,1.438,0.476,2.134
								c0.01,0.03,0.013,0.055,0.021,0.085c0.024,0.077,0.053,0.152,0.078,0.229c1.012,3.312,3.29,7.271,8.309,9.605
								c1.482,0.742,3.107,1.291,4.846,1.604c-0.619,0.396-1.316,0.75-2.091,1.055c-2.189,0.158-3.559,1.208-4.329,2.682
								c-0.179,0.336-0.54,0.936-0.501,1.058c-0.002,0.291,0.79,0.81,1.094,0.207c1.615-3.2,4.528-2.601,7.187-1.825
								c4.848,1.417,11.133,4.852,20.051,8.344c7.66,3.002,9.864-1.517,10.318-2.496c0.148-0.285,0.235-0.603,0.235-0.941
								C45.914,39.77,44.981,38.834,43.826,38.834z M4.999,16.52c0-12.121,5.963-15.054,12.165-15.054c6.258,0,12.326,2.934,12.326,15.054
								c0,11.609-5.521,14.77-11.462,15.036c2.824-3.017,2.322-5.782,2.001-6.302c-0.143-0.229-0.271-0.436-0.533-0.418
								c-0.188,0.011-0.334,0.127-0.389,0.283l-0.008-0.002c0.001,0.002,0.001,0.01,0.001,0.01c-0.113,0.556-0.726,3.779-3.446,6.383
								C10.105,31.026,4.999,27.638,4.999,16.52z"></path>
							<path display="inline" fill="#DD3131" d="M91.378,6.001h-0.293c-0.024,0-0.062-0.01-0.062-0.054V4.322
								c-0.168,0.212-0.504,0.627-0.731,0.883h-0.054L89.48,4.296v1.65c0,0.036-0.027,0.053-0.055,0.053h-0.301
								c-0.025,0-0.062-0.009-0.062-0.053V4.074h-0.786v1.872c0,0.036-0.025,0.053-0.062,0.053h-0.291c-0.023,0-0.062-0.009-0.062-0.053
								V4.074H87.21c-0.026,0-0.053-0.009-0.053-0.053V3.729c0-0.035,0.043-0.061,0.043-0.061h2.233c0.019,0.008,0.036,0.016,0.036,0.033
								c0.246,0.273,0.793,0.945,0.793,0.945l0.77-0.945c0.01-0.008,0.018-0.033,0.053-0.033h0.302c0.044,0,0.053,0.033,0.053,0.061v2.216
								C91.44,5.983,91.414,6.001,91.378,6.001"></path>
						</g>
						<g id="Layer_2">
							<path fill="#FFFFFF" d="M53.387,19.059c0-1.161,0.043-1.247-1.159-1.247c-1.463,0-1.634-0.043-1.634-0.602
								c0-0.646,0.515-0.646,1.461-0.646c1.202,0,2.578-0.042,3.607-0.171l0.819-0.086c0.299,0,0.383,0.215,0.383,0.515
								c0,0.043-0.084,1.59-0.084,1.892c0,0.86-0.044,1.89-0.044,2.791v6.102c0,1.977,0,3.309,0.518,3.824
								c0.3,0.344,0.515,0.344,1.502,0.43c0.473,0,0.559,0.303,0.559,0.602c0,0.559-0.129,0.645-0.816,0.645c-1.116,0-1.287,0-2.188,0.043
								l-2.452,0.301c-0.385,0-0.516-0.086-0.558-3.91c-1.289,1.891-2.836,4.039-6.23,4.039c-2.32,0-5.284-1.244-5.284-5.586
								c0-0.387,0.087-3.565,0.13-4.338c0.042-1.032,0.128-2.836,0.171-4.554c0.042-1.205-0.043-1.29-1.591-1.29
								c-0.773,0-1.116,0-1.116-0.602c0-0.472,0.215-0.646,0.644-0.646c2.534,0,2.834-0.085,4.725-0.213
								c0.43-0.044,0.688-0.044,0.688-0.044c0.215,0,0.387,0.044,0.387,0.345c0,0.17-0.129,1.59-0.129,1.889
								c-0.129,1.805-0.43,5.716-0.43,8.895c0,3.525,1.074,4.598,2.878,4.598c3.136,0,4.728-3.137,4.984-4.641
								c0.214-1.201,0.259-4.167,0.259-5.542V19.059z"></path>
							<path fill="#FFFFFF" d="M67.218,6.686c0,1.073-0.6,2.363-2.062,2.363c-1.158,0-2.063-0.817-2.063-2.363
								c0-1.333,0.776-2.278,2.063-2.278C66.576,4.407,67.218,5.652,67.218,6.686 M67.048,29.499c0,1.891,0,2.318,1.116,2.363
								c1.504,0.086,1.677,0.129,1.677,0.818c0,0.514-0.216,0.557-0.689,0.557c-0.43,0-2.362-0.129-3.35-0.129
								c-1.162,0-3.18,0.129-4.169,0.129c-0.73,0-0.858-0.129-0.858-0.602c0-0.645,0.172-0.688,1.719-0.773
								c1.375-0.086,1.203-1.115,1.203-2.576v-9.324c0-1.762,0.042-2.149-0.903-2.149c-1.16,0-1.891,0.214-1.891-0.602
								c0-0.515,0.43-0.645,0.818-0.645c0.387,0,1.847-0.085,2.747-0.172c1.16-0.128,2.236-0.299,2.321-0.299
								c0.345,0,0.429,0.344,0.429,0.602c0,0.298-0.13,1.761-0.13,2.363c0,0.472-0.04,1.632-0.04,2.276V29.499z"></path>
							<path fill="#FFFFFF" d="M84.669,21.508c0-2.148-0.986-4.553-4.383-4.553c-4.167,0-5.37,4.424-5.37,7.559
								c0,3.954,1.246,7.52,5.112,7.52c2.063,0,3.739-1.203,4.212-2.664c0.429-1.289,0.429-3.178,0.429-3.736V21.508z M84.929,10.681
								c0-0.86,0.085-3.611-0.087-4.254c-0.129-0.473-0.516-0.473-0.947-0.473c-0.212,0-1.114,0.044-1.288,0
								c-0.256-0.041-0.429-0.17-0.429-0.557c0-0.688,0.299-0.688,1.418-0.733c0.772-0.041,3.006-0.342,3.91-0.514
								c0.13-0.044,0.385-0.084,0.559-0.084c0.473,0,0.473,0.3,0.473,0.514s-0.216,4.898-0.216,5.8c0,1.116-0.173,7.046-0.173,7.862v9.022
								c0,4.34,0.216,4.469,1.764,4.469c0.516,0,0.772,0.084,0.772,0.688c0,0.559-0.128,0.559-1.289,0.602
								c-0.858,0.043-1.59,0.086-2.105,0.172c-0.729,0.131-1.849,0.387-1.891,0.387c-0.558,0-0.601-1.074-0.644-3.135
								c-1.419,2.061-3.695,3.135-6.188,3.135c-3.866,0-7.646-2.92-7.646-8.207c0-4.941,3.393-9.495,8.594-9.495
								c2.749,0,4.253,1.247,5.241,2.406L84.929,10.681z"></path>
							<path fill="#FFFFFF" d="M47.083,41.233c-1.218,0-2.206,0.988-2.206,2.209c0,0.887,0.528,1.646,1.286,1.998
								c-6.537,1.314-20.138-5.525-25.914-7.924c-1.464-0.607-2.762-1.006-3.925-1.245c0.601-0.359,1.14-0.723,1.627-1.088
								c0.352,0.018,0.706,0.03,1.064,0.03c5.881,0,11.122-2.533,14.455-6.697c2.278-2.779,3.743-6.402,3.743-10.869
								c0-9.505-7.685-17.463-18.255-17.463C8.956,0.184,0.761,7.468,0.761,17.75c0,0.357,0.021,0.846,0.07,1.415
								c0.03,0.358,0.076,0.716,0.128,1.072c0.012,0.077,0.023,0.152,0.036,0.232c0.123,0.765,0.28,1.52,0.501,2.255
								c0.009,0.031,0.014,0.058,0.024,0.09c0.024,0.082,0.055,0.161,0.082,0.245c1.07,3.499,3.478,7.683,8.782,10.151
								c1.567,0.786,3.284,1.366,5.12,1.694c-0.654,0.419-1.39,0.793-2.208,1.114c-2.315,0.168-3.762,1.276-4.577,2.832
								c-0.188,0.357-0.571,0.99-0.528,1.119c-0.003,0.307,0.834,0.855,1.156,0.221c1.707-3.383,4.786-2.75,7.595-1.932
								c5.123,1.498,11.767,5.127,21.191,8.816c8.098,3.174,10.427-1.6,10.909-2.637c0.156-0.303,0.249-0.635,0.249-0.996
								C49.291,42.221,48.303,41.233,47.083,41.233z M6.045,17.647c0-12.812,6.304-15.912,12.857-15.912
								c6.615,0,13.028,3.101,13.028,15.912c0,12.275-5.839,15.611-12.121,15.892c2.983-3.187,2.462-6.11,2.12-6.657
								c-0.149-0.242-0.287-0.461-0.562-0.443c-0.198,0.01-0.354,0.137-0.412,0.299l-0.008-0.002c0.002,0.002,0.002,0.01,0.002,0.012
								c-0.12,0.584-0.767,3.992-3.643,6.744C11.442,32.978,6.045,29.399,6.045,17.647z"></path>
							<g>
								<path fill="#FFFFFF" d="M92.365,3.989c0.259,0,0.513,0.066,0.759,0.199c0.246,0.133,0.438,0.323,0.577,0.57
									c0.138,0.248,0.206,0.505,0.206,0.774c0,0.266-0.067,0.522-0.203,0.767c-0.136,0.246-0.326,0.436-0.57,0.572
									c-0.246,0.135-0.501,0.203-0.769,0.203c-0.267,0-0.523-0.068-0.768-0.203c-0.245-0.136-0.436-0.326-0.571-0.572
									c-0.136-0.245-0.204-0.501-0.204-0.767c0-0.269,0.068-0.526,0.207-0.774c0.14-0.248,0.331-0.437,0.578-0.57
									C91.853,4.055,92.105,3.989,92.365,3.989z M92.365,4.244c-0.217,0-0.427,0.056-0.633,0.167c-0.204,0.111-0.365,0.27-0.481,0.476
									c-0.115,0.207-0.174,0.422-0.174,0.645c0,0.223,0.058,0.436,0.17,0.639c0.114,0.204,0.274,0.363,0.479,0.477
									c0.204,0.114,0.417,0.17,0.64,0.17s0.436-0.056,0.641-0.17c0.204-0.114,0.362-0.273,0.477-0.477
									c0.112-0.204,0.169-0.417,0.169-0.639c0-0.223-0.057-0.438-0.173-0.645c-0.114-0.206-0.275-0.365-0.481-0.476
									C92.791,4.3,92.581,4.244,92.365,4.244z M91.688,6.385v-1.66h0.571c0.194,0,0.336,0.016,0.422,0.046
									c0.088,0.031,0.157,0.084,0.209,0.161c0.053,0.076,0.078,0.157,0.078,0.243c0,0.121-0.043,0.227-0.131,0.317
									c-0.086,0.09-0.2,0.141-0.344,0.151c0.059,0.024,0.105,0.054,0.142,0.088c0.066,0.065,0.148,0.175,0.245,0.329l0.202,0.325h-0.327
									l-0.146-0.261c-0.116-0.206-0.21-0.334-0.28-0.386c-0.05-0.039-0.122-0.058-0.215-0.058h-0.157v0.705H91.688z M91.957,5.451h0.325
									c0.154,0,0.262-0.024,0.317-0.07c0.057-0.046,0.085-0.108,0.085-0.184c0-0.049-0.014-0.093-0.041-0.132
									c-0.027-0.038-0.065-0.067-0.113-0.087c-0.049-0.019-0.138-0.028-0.269-0.028h-0.305V5.451z"></path>
							</g>
						</g>
						</svg>