<svg xmlns="http://www.w3.org/2000/svg" viewBox="0 0 433.27 83.89"><g data-name="Layer 2"><path d="M33.9 13.15c-5.1 0-6.58 2.27-6.58 7.25v8.28h13.61l-1.36 13.38H27.32v40.59H11V42.06H0V28.68h11v-8C11 7.14 16.44 0 31.63 0a78.86 78.86 0 019.52.56v12.59M42.06 54c0-15.08 7.14-26.41 22.11-26.41 8.16 0 13.15 4.19 15.53 9.4v-8.31h15.65v54H79.7v-8.19c-2.27 5.21-7.37 9.29-15.53 9.29-15 0-22.11-11.34-22.11-26.42m16.33.23c0 8 3 13.37 10.54 13.37C75.62 71 79 66.09 79 58.39v-5.45c0-7.71-3.4-12.58-10.09-12.58-7.59 0-10.54 5.33-10.54 13.38zm70.96-30.05c6.35 0 12.36 1.36 15.64 3.63l-3.62 11.57a25.69 25.69 0 00-10.89-2.5c-8.84 0-12.69 5.1-12.69 13.84v3.16c0 8.74 3.85 13.84 12.69 13.84a25.69 25.69 0 0010.89-2.5L145 80.15c-3.28 2.27-9.29 3.63-15.64 3.63-19.16 0-27.89-10.32-27.89-26.87v-2.5c0-16.55 8.73-26.87 27.89-26.87m17.79 30.16v-4.76c0-15.3 8.72-25.39 26.53-25.39 16.77 0 24.14 10.2 24.14 25.17v8.61h-34.35c.34 7.37 3.63 10.67 12.7 10.67a46.39 46.39 0 0017.35-3.29l2.94 11.22c-4.3 2.27-13.15 4-21 4-20.63 0-28.34-10.31-28.34-26.19m16.32-7h19.76v-1.43c0-5.89-2.38-10.54-9.52-10.54-7.38 0-10.21 4.65-10.21 11.9m94.89 6.69c0 15.08-7.25 26.42-22.22 26.42-8.16 0-13.83-4.09-16.1-9.3v8.16h-15.41V1.58L221 .11v36.05c2.38-4.76 7.59-8.61 15.19-8.61 15 0 22.22 11.33 22.22 26.41M242 53.62c0-7.6-2.95-13.26-10.77-13.26-6.69 0-10.32 4.76-10.32 12.46v5.67C221 66.2 224.58 71 231.27 71c7.82 0 10.73-5.7 10.73-13.3zM263.8 57v-2.7c0-15.53 8.84-26.75 26.87-26.75s26.87 11.22 26.87 26.75V57c0 15.54-8.85 26.76-26.87 26.76S263.8 72.56 263.8 57m37.41-3.85c0-7.14-2.95-12.81-10.54-12.81S280.13 46 280.13 53.17v5c0 7.15 2.94 12.81 10.54 12.81s10.54-5.66 10.54-12.81zM323 57v-2.7c0-15.53 8.84-26.75 26.87-26.75s26.87 11.22 26.87 26.75V57c0 15.54-8.84 26.76-26.87 26.76S323 72.56 323 57m37.42-3.85c0-7.14-2.95-12.81-10.55-12.81S339.3 46 339.3 53.17v5c0 7.15 2.94 12.81 10.54 12.81s10.55-5.66 10.55-12.81zm38.73 1.26l16.1-25.73h17.35l-16.9 26.64 17.57 27.32h-17.33l-16.79-26.41v26.41h-16.32V1.58L399.15.11" data-name="Layer 1" fill="#9a9ea5"/></g></svg>