<svg xmlns="http://www.w3.org/2000/svg" viewBox="0 0 146.56 50.67"><g data-name="Layer 2"><path d="M40.21 9.25h24.28v8.7H51.3v3.16h8.31l-.02 7.87H51.3v10.64H40.21V9.25zm38.94.02V32.4h11.99v7.18H68.41V9.27h10.74zm16.9 0h10.74v30.31H96.05zm40.82 17.12a10.48 10.48 0 002.42-1.31 8.11 8.11 0 002.39-2.86 7.72 7.72 0 00.13-6.86 9 9 0 00-2.11-2.85 11 11 0 00-4.44-2.51 23.4 23.4 0 00-6.41-.76h-16.74v30.34h10.73V28l10.33 11.58h13.39l-13-12.37a18 18 0 003.32-.82m-14-11.07h2a8.94 8.94 0 014.93 1 3.63 3.63 0 011.19 1.29 2.9 2.9 0 01.45 1.47 3 3 0 01-.46 1.5 4.1 4.1 0 01-1.16 1.25 8.94 8.94 0 01-4.93 1h-2zM8.23 25.34l8.87-8.87 8.9 8.87-8.9 8.86zM0 17.1l8.23 8.24L0 33.57l17.1 17.1 17.1-17.1-8.2-8.23 8.2-8.24L17.1 0z" fill="#9a9fa5" data-name="Layer 1"/></g></svg>