<svg xmlns="http://www.w3.org/2000/svg" viewBox="0 0 39.87 39.87"><g data-name="Layer 2"><g data-name="Layer 1" fill-rule="evenodd"><path d="M19.93 0A19.94 19.94 0 110 19.93 19.93 19.93 0 0119.93 0z" fill="#9a9ea5"/><path d="M3.18 14.27A5.41 5.41 0 013 15a11.45 11.45 0 00-.23 5.51c.92 3.16 3.87 2 3.26.19-.26-.77-.94-1.22-1.36-2.2a6.46 6.46 0 01-.35-3.13A16 16 0 016 9.87a12.47 12.47 0 011.37-2.15 9.78 9.78 0 01.84-1 15 15 0 011.92-1.64c.33-.24.72-.48 1.08-.69a17.28 17.28 0 018.4-2.29 17.65 17.65 0 015.49.76 1.06 1.06 0 01.56.31 8.35 8.35 0 01-1.44-.35 15 15 0 00-1.54-.24c-6.58-.76-6.05 4-3.55 3.44.71-.15 1.26-.91 2.22-1.36a6.4 6.4 0 013.12-.38 17.69 17.69 0 013 .62 13.81 13.81 0 019.16 8.68 18.27 18.27 0 011.15 6 17.48 17.48 0 01-.78 5.54c-.06.2-.11.54-.35.53a13.56 13.56 0 00.35-1.43 10.35 10.35 0 00.07-4.79 2.62 2.62 0 00-1.6-2 1.34 1.34 0 00-1.68 1.67c.18.77 1 1.35 1.35 2.23 1.08 2.52-.11 6.43-1.22 8.61a13.16 13.16 0 01-3.14 4 15.3 15.3 0 01-4.49 2.64 18.19 18.19 0 01-6 1.12 17.43 17.43 0 01-3.29-.17c-.63-.1-2.52-.42-2.77-.78a5.85 5.85 0 011.46.28 10.86 10.86 0 004.81.07c.85-.25 1.77-.77 1.94-1.62a1.37 1.37 0 00-1.75-1.65c-.69.2-1.36 1.06-2.16 1.4a6.12 6.12 0 01-3.11.38A16.23 16.23 0 019.89 34a12.88 12.88 0 01-2.17-1.41 13.94 13.94 0 01-3.3-3.83 18 18 0 01-1.76-13.25c.06-.23.13-.45.18-.7s.13-.44.34-.54zM19.12 1A18.91 18.91 0 007.94 5.2L7 6a18.39 18.39 0 00-2 2.2 14.42 14.42 0 00-1 1.39 19.61 19.61 0 00-1.65 3.11 19.31 19.31 0 00-1.41 8.06 18.84 18.84 0 004.25 11.17c.19.23.36.44.56.65l.42.47.15.14a17.51 17.51 0 001.87 1.69 19.15 19.15 0 0016.68 3.42 19.22 19.22 0 004.22-1.71 17.81 17.81 0 002.17-1.4c.47-.35.89-.7 1.31-1.07s1.16-1.11 1.35-1.33l.42-.47a19.29 19.29 0 001.52-2 17.94 17.94 0 001.64-3.11 18.8 18.8 0 001.4-8c0-.73-.1-1.44-.21-2.15a18.66 18.66 0 00-3.53-8.34 17.34 17.34 0 00-2.24-2.62A17.21 17.21 0 0031 4.5c-.24-.17-.46-.33-.71-.49a21.24 21.24 0 00-3.11-1.64 18.85 18.85 0 00-8-1.42z" fill="#fffffb"/><path d="M16.51 21.4a9.15 9.15 0 01-.2 1.42c-.36 1.83-1.11 4.4-2.74 5.37-.69.41-1.84.7-2.46.08a1.58 1.58 0 01-.35-1.27 4.57 4.57 0 011.41-2.63 13.59 13.59 0 012.26-1.81 15.11 15.11 0 012.08-1.16zm-2.57-5.85a6.48 6.48 0 01.35-1.71c.33-.92 1.1-2.6 2-3.14.5-.29 1.42 0 .59 1.64a9.06 9.06 0 01-.8 1.26c-.4.53-1.62 1.85-2.17 2zm10.47-.85a5.56 5.56 0 01.68-2.7 6.12 6.12 0 01.7-1c.21-.21.78-.59 1.14-.22.53.53-.59 1.93-.82 2.23a11.27 11.27 0 01-1.7 1.68zm-12.14 1.08a1.24 1.24 0 01-.86-.5c-.7-.92-.08-2.44-.07-2.87a1.27 1.27 0 00-.2-.49c-.83 0-1.1.45-1.33 1.08a3.67 3.67 0 00-.1 2.08 2.9 2.9 0 00.9 1.5 3.14 3.14 0 001.73.7A2.81 2.81 0 0014 19.21a3.25 3.25 0 002.53-.41 3.18 3.18 0 01.3-.17 4.48 4.48 0 01-.07.64c-.06.32-.07.32-.29.46s-.64.34-1 .51c-1.76.94-4 2.08-5.23 3.61A4.76 4.76 0 009.1 28.2a3.1 3.1 0 003.7 2.08 5.38 5.38 0 003.53-2.37A9.77 9.77 0 0018 23.64c.14-.9.17-1.76.27-2.67.07-.66 0-.54.61-.86.89-.51 1.91-1.13 2.74-1.68.52-.34 1.27-.84 1.75-1.21a5.13 5.13 0 01.54.69 9.49 9.49 0 00-1.76 1.26 6.65 6.65 0 00-1.31 1.7c-1.53 2.94-.86 6.86 1.89 8.6a5.64 5.64 0 004.86.54 5.41 5.41 0 003.1-2.94 5.06 5.06 0 00-.53-4.78 3.18 3.18 0 00-1.8-1.29 3.43 3.43 0 00-4.08 1.71 2.85 2.85 0 00.7 3.32c.88.65 1.95.25 1.7-.59a5.42 5.42 0 00-.62-.89c-1-1.65 1.48-3 2.67-1.21a3.67 3.67 0 01-.06 3.6 3.59 3.59 0 01-.67.84 3.39 3.39 0 01-4.41 0A5.19 5.19 0 0122 23.33a5.3 5.3 0 012.14-3.91 2.85 2.85 0 011.59-.62 6.11 6.11 0 002.09 0c.37-.09.76-.33.78-.74 0-.77-1.26-1-2.06-.94l-.65.11c-.3.06-.35.13-.59 0-.39-.24-.49-.68-.62-.89l1.07-.85c.18-.14.34-.29.51-.44 1.11-1 2.6-2.75 2.24-4.43a1.89 1.89 0 00-2.4-1.34 3.25 3.25 0 00-1.32.63 6.41 6.41 0 00-2.07 5.55c.06.54 0 .54-.23.71a20.78 20.78 0 01-1.72 1.17 25.57 25.57 0 01-2.42 1.42 5.53 5.53 0 01.16-1.47c.08-.33.8-1 1.18-1.62 1.1-1.91-.29-2.33-1.28-1.35a4.56 4.56 0 00-.82 1.39c-.31.71-.12.89-.79 1.45a3.6 3.6 0 01-1.42.79 1.11 1.11 0 01-.92-.09 1.13 1.13 0 01-.43-.7 6.63 6.63 0 002-1.22A7.94 7.94 0 0018.61 12a2.35 2.35 0 00-.45-2.46 2.45 2.45 0 00-2.52-.07c-2 1-3.22 3.87-3.37 6.29z" fill="#fffffb"/></g></g></svg>