<svg xmlns="http://www.w3.org/2000/svg" viewBox="0 0 238.96 238.93"><defs><style>.cls-2{fill:#fff}</style></defs><g id="Layer_2" data-name="Layer 2"><g id="svg4111"><path id="rect4057" d="M0 0h239v238.93H0z" fill="#9ba0a5"/><path id="rect4059" class="cls-2" d="M59.77 160h119.55v19.4H59.77V160z"/><path id="polyline4061" class="cls-2" d="M119.05 60h20.2l9.88 65.68L159.24 60h20v89.74H165.9V82.13l-11.22 67.58h-11.5l-10.83-67.58v67.45h-13.3V60"/><path id="path4063" class="cls-2" d="M91.36 88.46H105v-6.33c0-6.21 0-24-22.84-24-22.33 0-22.33 20.34-22.33 24v46.64c0 13.62 5 22.54 17.88 22.63 7.64 0 13-4.76 14.08-6.58v4.76l13.21.13v-48.63H83.54v10.8h7.82v14.21c0 7.2-2.25 12.11-9 12.11s-8.86-5.23-8.86-12.11v-44c0-3.57 0-11.72 8.86-11.72s9 8.28 9 11.72v6.33"/></g></g></svg>