<svg xmlns="http://www.w3.org/2000/svg" viewBox="0 0 269.6 88.6"><g data-name="Layer 2"><path d="M115.3 46.5a22.2 22.2 0 01-44.4 0 22.2 22.2 0 0144.4 0zm-9.7 0c0-8-5.8-13.4-12.5-13.4s-12.5 5.5-12.5 13.4 5.8 13.4 12.5 13.4 12.5-5.5 12.5-13.4zm57.7 0a22.2 22.2 0 01-44.4 0 22.2 22.2 0 0144.4 0zm-9.7 0c0-8-5.8-13.4-12.5-13.4s-12.5 5.5-12.5 13.4 5.8 13.4 12.5 13.4 12.5-5.5 12.5-13.4zm55.7-20.8v39.8c0 16.4-9.7 23.1-21.1 23.1a21.19 21.19 0 01-19.7-13.1L177 72c1.5 3.6 5.2 7.9 11.2 7.9 7.3 0 11.8-4.5 11.8-13v-3.2h-.3a15.13 15.13 0 01-11.7 5c-11.1 0-21.2-9.7-21.2-22.1S177 24.3 188 24.3a15.47 15.47 0 0111.7 5h.3v-3.6zm-8.5 20.9c0-7.8-5.2-13.5-11.8-13.5s-12.4 5.7-12.4 13.5S182.2 60 189 60c6.6 0 11.8-5.6 11.8-13.4zm23.8-44.2v65h-9.5v-65zm37 51.4l7.6 5a22 22 0 01-18.5 9.8c-12.6 0-22-9.7-22-22.2 0-13.2 9.5-22.2 20.9-22.2s17.1 9.2 19 14.1l1 2.5L240 53.3c2.3 4.5 5.8 6.7 10.8 6.7s8.3-2.5 10.8-6.2zm-23.3-7.9l19.8-8.2c-1.1-2.8-4.4-4.7-8.2-4.7-4.9-.1-11.8 4.3-11.6 12.9zM34.9 40.8v-9.4h31.7a31.8 31.8 0 01.5 5.7c0 7.1-1.9 15.8-8.2 22-6 6.3-13.8 9.7-24 9.7C15.9 68.8 0 53.3 0 34.4S16 0 34.9 0a32.67 32.67 0 0123.6 9.5l-6.6 6.6a23.88 23.88 0 00-17-6.7 24.69 24.69 0 00-24.7 25 24.69 24.69 0 0024.7 25c9 0 14.1-3.6 17.4-6.9 2.7-2.7 4.4-6.5 5.1-11.7z" fill="#9ba0a5" data-name="Layer 1"/></g></svg>