<svg xmlns="http://www.w3.org/2000/svg" viewBox="0 0 380.54 246.87"><defs><style>.cls-1,.cls-2{fill:#9ba0a5}.cls-1{fill-rule:evenodd}</style></defs><g id="Layer_2" data-name="Layer 2"><g id="svg4673"><path class="cls-1" d="M190.27 0c68.92 0 129.48 24 162.86 59.73l-21.9 1.38c-31.59-26.95-83-44.53-141-44.53-95.67 0-173.71 48-173.71 106.87s78 106.88 173.71 106.88c60.34 0 113.64-19.1 144.8-48l21.24 1.21c-32.64 37.71-94.88 63.28-166 63.28C85.48 246.87 0 191.43 0 123.44S85.48 0 190.27 0z"/><path class="cls-1" d="M190.27 31.06c47.49 0 90.24 12.16 119.45 31.4L51.08 78.66c27.24-28.35 79.47-47.6 139.19-47.6zm124.17 150.12c-29.22 21.11-74.05 34.66-124.17 34.66-61.41 0-114.89-20.36-141.44-50zM363 71.81l-63.59 4c15 33.22 6.67 72.92-1.19 91.88l21.41 1.24a100.87 100.87 0 009.42-25.07l26 .5c-3.13 11.34-6.73 18.2-11.11 26l1.84.14 19.52 1.21c9.76-14.83 15.16-31.13 15.16-48.22.08-18.49-6.2-35.98-17.46-51.68zm-31.18 49.49c-.24-7.49-1.08-17.68-3.61-26.35l23.28-.69a60.79 60.79 0 017.23 27zm-90.69-41.87c7.65 28.16 7 56.92-.08 84.88l45.61 2.69a155.67 155.67 0 005.74-18.53l-21.28-1.18c4.69-20.61 2.2-52.43-5-69.42zM182 83.13c8.58 22.23 6.44 54.09.18 77.74l45.77 2.68c2.09-5.84 3.35-13.3 4.19-17.82l-20.36-.83c4.47-21.12 2.5-48.29-4.89-63.33zm-65.53 4.1c-12.1 22.58-12.87 46-.84 69.75l48.1 2.83c1.47-5.29 2.68-10.24 3.61-15a3.18 3.18 0 000-.34l-35-1.49a44.85 44.85 0 01-2.23-11.26l39 .19c1.09-3.17 1.46-14.12 0-17.54l-39.56.12A88.59 88.59 0 01132 102.3l35.76-2c-1-5-2.38-10.45-4-16zM40.25 92c-11.69 20.48-12.41 40.66-1.12 60.52l18.14 1.07c-.77-1.56-5.35-11-6.47-20.58h18.63s2.22 12.83 6.13 21.62l21.1 1.28c-11-21.79-10.54-45.61-.62-67.36l-20.9 1.31a117.77 117.77 0 00-5.68 22.24H50.94c1.45-9.61 4.12-14.86 6.56-21.1l-17.25 1"/><path class="cls-2" d="M190.27 0c68.92 0 129.48 24 162.86 59.73l-21.9 1.38c-31.59-26.95-83-44.53-141-44.53-95.67 0-173.71 48-173.71 106.87s78 106.88 173.71 106.88c60.34 0 113.64-19.1 144.8-48l21.24 1.21c-32.64 37.71-94.88 63.28-166 63.28C85.48 246.87 0 191.43 0 123.44S85.48 0 190.27 0z"/><path class="cls-2" d="M190.27 31.06c47.49 0 90.24 12.16 119.45 31.4L51.08 78.66c27.24-28.35 79.47-47.6 139.19-47.6zm124.17 150.12c-29.22 21.11-74.05 34.66-124.17 34.66-61.41 0-114.89-20.36-141.44-50zM363 71.81l-63.59 4c15 33.22 6.67 72.92-1.19 91.88l21.41 1.24a100.87 100.87 0 009.42-25.07l26 .5c-3.13 11.34-6.73 18.2-11.11 26l1.84.14 19.52 1.21c9.76-14.83 15.16-31.13 15.16-48.22.08-18.49-6.2-35.98-17.46-51.68zm-31.18 49.49c-.24-7.49-1.08-17.68-3.61-26.35l23.28-.69a60.79 60.79 0 017.23 27zm-90.69-41.87c7.65 28.16 7 56.92-.08 84.88l45.61 2.69a155.67 155.67 0 005.74-18.53l-21.28-1.18c4.69-20.61 2.2-52.43-5-69.42zM182 83.13c8.58 22.23 6.44 54.09.18 77.74l45.77 2.68c2.09-5.84 3.35-13.3 4.19-17.82l-20.36-.83c4.47-21.12 2.5-48.29-4.89-63.33zm-65.53 4.1c-12.1 22.58-12.87 46-.84 69.75l48.1 2.83c1.47-5.29 2.68-10.24 3.61-15a3.18 3.18 0 000-.34l-35-1.49a44.85 44.85 0 01-2.23-11.26l39 .19c1.09-3.17 1.46-14.12 0-17.54l-39.56.12A88.59 88.59 0 01132 102.3l35.76-2c-1-5-2.38-10.45-4-16zM40.25 92c-11.69 20.48-12.41 40.66-1.12 60.52l18.14 1.07c-.77-1.56-5.35-11-6.47-20.58h18.63s2.22 12.83 6.13 21.62l21.1 1.28c-11-21.79-10.54-45.61-.62-67.36l-20.9 1.31a117.77 117.77 0 00-5.68 22.24H50.94c1.45-9.61 4.12-14.86 6.56-21.1z"/></g></g></svg>