<svg xmlns="http://www.w3.org/2000/svg" viewBox="0 0 93.74 37.85"><g data-name="Layer 2"><path d="M93.74 2.69H78.13L79.1 0h14.64v2.69zM52.14 0h14.49l1 2.7H52.2L52.14 0zm-11.5 0a10.41 10.41 0 016.23 2.7H20.61V0zM0 0h18.24v2.69H0zm93.74 7.74H76.35l.94-2.68h16.45zm-24.37 0H52.14V5.06h16.29l.94 2.68zM48.91 5.06a6.92 6.92 0 01.76 2.68H20.61V5.06zM0 5.06h18.24v2.68H0zm74.57 7.74l.95-2.69h13.06v2.68l-14.01.01zm-4.36-2.69l.95 2.69H57.28v-2.69h12.93zm-20.31 0a8.75 8.75 0 01-.39 2.69h-7.95v-2.69zm-44.81.01h7.84v2.68H5.09zm20.8-.01h7.83v2.69h-7.83zM65 15.7v2.05h-7.72v-2.68H72l.91 2.49s.88-2.5.89-2.49h14.78v2.68H80.9V15.7l-.71 2.05H65.7zm-39.11-.63h22.47a10.25 10.25 0 01-2.23 2.68H25.89zm-20.8 0h7.84v2.68H5.09zm75.81 5.05h7.67v2.68H80.9zm-15.9 0h-7.72v2.67H65v-2.67zm14.35 0s-.9 2.67-.93 2.67H67.49s-1-2.69-1-2.68zm-53.46-.01h20.2a13 13 0 012.41 2.68H25.89zm-12.96 2.68v-2.68H5.1v2.68h7.83zm67.97 2.37h7.67v2.68H80.9zm-23.62 0h7.71v2.68h-7.71zm19.34 2.69s.95-2.69 1-2.69h-9.33l1 2.68zm-50.73-.01v-2.68h7.94v2.68zm23.73-2.68a8 8 0 01.5 2.69H41.7v-2.69zm-44.52 0h7.83v2.68H5.1zm75.8 4.95h12.83v2.68H80.9zm-28.76 0h12.85v2.68H52.14zm22.76 2.67h-3.92l-.94-2.67h5.76l-.9 2.67zM0 30.11v2.67h18.23v-2.67zm49.78 0a5.71 5.71 0 01-1 2.68H20.61v-2.68zm23.34 7.73h-.36l-.92-2.68h2.22l-.94 2.68zm7.78-2.68h12.83v2.69H80.9zm-60.29 2.68v-2.68H47a10 10 0 01-6.81 2.68H20.61m31.53-2.68h12.85v2.69H52.14zm-33.91.01v2.67H0v-2.68z" data-name="Layer 1" fill="#9a9ea5"/></g></svg>