<svg xmlns="http://www.w3.org/2000/svg" viewBox="0 0 318.89 92.2"><defs><style>.cls-2{fill-rule:evenodd;fill:#9ba0a5}</style></defs><g id="Layer_2" data-name="Layer 2"><g id="Layer_1-2" data-name="Layer 1"><path d="M281.27 13c-.26 1.53-.36 5.28 1.83 4.8 2.92-.63 2.54-.93 4.15-2.33 1.06-.94 3.69 1.62 0 5.69-2 2.23-2.43 2.91-1.37 4.2s4 1.85 4 6c0 3.62 4.65 1 5.77-.42s1.91-7.67 5-3.09C303 31 299.16 38 303.72 38.7c3.75.57 4.4 4.84 4.51 5.93v.25c9.58-9.2 3.2-21.11 3-22.55-.41-2.58 1-1.64 2.69-.06A42 42 0 00268.74.79C277 1 282.79 4.27 281.27 13m22 50.61c-2.58 1-3.7-.62-5.61 1.25-2.11 2.05 4.62 6.08-7.76 3.26-5.52-1.26-4.77 4.75-11 1.59-1.71-4.09-1.76-6.5-.3-9.06 1.71-3 2.33-2 1.29-5.29-.41-1.29 0-1.86.66-3.66s-.19-4.28-2.71-4.14c-3.37.19-3 1.72-5.05 3.11-1.39.93-3.74-3.8 1.18-8.06 2.69-2.32 3.33-3.07 2.44-4.86s-2.63-1.19-3.32-3.33c-.53-1.64.29-4.73-2.07-5.47-2.68-.84-4.82 3-6.36 4.49-1.81 1.75-3.78 4.87-4.75 2.38-1.72-4.43 6.19-11 1.32-12.78-4.59-1.65-6.09-6.47-6.09-6.47-12.6 9.34-6.63 17.56-7.68 19s-3.07-1.77-4.77-.23c-1.31 1.2-2.48 8.84 5.59 13.69 3.06 1.83 4.07 2.3 3.33 3.41-.58.88-3 .14-3 2.16.08 4.05 6.58 2.83 7.76 7.9 1.11 4.74 21.26 7.58 21.26 7.58s.09 0 .25.06l1 .53a8.92 8.92 0 004.3 5.55c4.64 2.39-.28 1.24.35 2.92.32.86 3.61 3.08 9.46 1.73a42.08 42.08 0 0019.48-16.57c-5-3.91-5.37-3.1-9.18-.71" fill-rule="evenodd" fill="#fff"/><path class="cls-2" d="M277.92 70.12c-.16-.05-.27-.08-.25-.06s-20.15-2.84-21.26-7.58c-1.18-5.07-7.68-3.85-7.76-7.9 0-2 2.42-1.28 3-2.16.74-1.11-.27-1.58-3.33-3.41-8.07-4.85-6.9-12.49-5.59-13.69 1.7-1.54 3.72 1.68 4.77.23s-4.92-9.68 7.68-19c0 0 1.5 4.82 6.09 6.47 4.87 1.75-3 8.35-1.32 12.78 1 2.49 2.94-.63 4.75-2.38 1.54-1.5 3.68-5.33 6.36-4.49 2.36.74 1.54 3.83 2.07 5.47.69 2.14 2.39 1.47 3.32 3.33s.25 2.54-2.44 4.86c-4.92 4.26-2.57 9-1.18 8.06 2.07-1.39 1.68-2.92 5.05-3.11 2.52-.14 3.39 2.35 2.72 4.14s-1.08 2.37-.67 3.66c1 3.3.43 2.29-1.29 5.29-1.47 2.56-1.41 5 .3 9.06 6.21 3.16 5.46-2.85 11-1.59 12.38 2.82 5.65-1.21 7.76-3.26 1.91-1.87 3-.22 5.61-1.25 3.81-2.39 4.18-3.2 9.21.73A42 42 0 00314 22.35c-1.76-1.63-3.2-2.65-2.78 0 .24 1.45 6.62 13.35-3 22.55v-.25c-.11-1.09-.76-5.36-4.51-5.92-4.56-.69-.77-7.66-3-10.92-3.13-4.58-3.94 1.71-5 3.09s-5.77 4-5.77.41c0-4.11-2.89-4.63-4-6s-.62-2 1.37-4.2c3.64-4.07 1-6.63 0-5.69-1.6 1.39-1.22 1.7-4.15 2.33-2.19.47-2.09-3.28-1.83-4.8C282.79 4.27 277 1 268.71.79A42 42 0 10293 80.85c-5.86 1.37-9.16-.86-9.48-1.72-.63-1.68 4.29-.54-.35-2.92a8.93 8.93 0 01-4.3-5.56l-1-.53"/><path class="cls-2" d="M280.29 71.41s-27.63-10.73-28.59-37.93c0 0 2.67 20.68 28.59 37.92m-.2-71.33a32.61 32.61 0 0113 4.89c2.33 2.18 5.64 7.55.54 18.56 0 0 6.54-8.83 4.89-14.19 5.48 5.5 10.1 14.23 10.27 28.06 0 0 6.1-34.65-28.73-37.32m27.63 68.71c-2.11 1.28-5.53 4.3-11.12 2.53a9.56 9.56 0 005.7 1.59c-4.48 2.32-9.35 2.87-17.05.95 0 0 15.59 9.19 26.48-8.4a37.7 37.7 0 01-4 3.33M13.4 31.65c0 3 .58 3.87 2.73 3.87v.75H7.2v-.75c1.81 0 2.86-.53 2.86-4V12.31H6.41c-3.38 0-4.92 1-5.14 3.6H.52v-5.76h.75a3.23 3.23 0 001.36.7 10.51 10.51 0 002.42.22h13.19c2.2 0 3.21-.26 4-.92H23v5.76h-.48c-.49-2.11-1.32-3.6-5.32-3.6h-3.8v19.34m27.19.88c0 2.38.43 3 2.5 3v.75H35v-.75c2.12 0 2.6-.48 2.6-2.5v-7.7c0-2.07-1.23-3.39-3.12-3.39s-3 .84-4.53 2.95v8.54c0 1.62.65 2.1 2.59 2.1v.75h-8.35v-.75c2.33 0 2.77-.48 2.77-3V12.26c0-2-.58-2.33-2.77-2.33v-.75l5-.53H30v14.74c2-2.29 3.43-3.12 5.44-3.12a5 5 0 015.2 5.4v6.86M56.35 26c.13-3.44-2.2-4.84-4.18-4.84-2.59 0-4.13 1.93-4.31 4.84zm-8.49.74c-.08 7 4.09 8.75 6.2 8.75s3.26-.75 5.5-3.25v1.14c-1.89 2.42-3.7 3.34-6.42 3.34-4.88 0-8.4-3.38-8.4-8.09s3.43-8.39 7.82-8.39c3.61 0 6.95 2.9 6.74 6.5zm51.87 19h-1.18L70.39 11h-.14v28c0 4 1.6 5.51 5.23 5.51v1.18H63.35v-1.15c3.34 0 4.94-1 4.94-6.84V14.36c0-4.46-1.18-7-5.92-7.39V5.79h10.24l25 31.08h.14V13.52C97.71 8.29 96.32 7 92.83 7V5.79h12.06V7c-3.9 0-5.16 1.6-5.16 6.27v32.45M136.58 21h8.58v1.81h-8.58v15.87c0 3.42 1.74 5.16 4.46 5.16a5.7 5.7 0 004.6-2.37l.77.9c-2.16 2.72-4.67 4.11-7.46 4.11a6.82 6.82 0 01-7.11-7.17V22.79h-4.67v-1.18c3.35-1.68 6.13-4.68 8.23-8.93h1.18V21m36.67 20.07c0 2.72.91 3.49 4.25 3.49v1.18l-9 .49v-4.55h-.13c-2.45 3.21-5.3 4.81-8.65 4.81-4.88 0-8.08-3.7-8.08-8.3V25.58c0-2.37-.84-3.28-4.4-3.28v-1.18l7.95-.77h1.19V38a5.2 5.2 0 005.62 5.56c2.37 0 4.53-1.32 6.55-4V26.21c0-3.42-.56-3.84-4.81-3.91v-1.18l8.37-.77h1.18v20.7m15.32 0c0 2.72.83 3.49 4.11 3.49v1.18h-13v-1.18c3.76 0 4.18-1 4.18-4.74V26.35c0-3.63-.91-4.05-5.09-4.05v-1.18l8.64-.77h1.19v5.37c4.6-4 6.76-5.37 8.43-5.37a7.75 7.75 0 014.54 1.95l-1.89 4.39c-2-1.11-4.18-2.16-5.85-2.16s-3 .84-5.23 3v13.52m31.75-11.57c.21-5.44-3.48-7.67-6.62-7.67-4.11 0-6.55 3.07-6.83 7.67zm-13.45 1.19c-.14 11.08 6.48 13.87 9.83 13.87s5.15-1.19 8.71-5.16v1.81c-3 3.83-5.86 5.29-10.18 5.29-7.74 0-13.31-5.36-13.31-12.82s5.43-13.31 12.41-13.31c5.71 0 11 4.6 10.66 10.32zM25.36 55.52c-1.46-5.64-4.54-8.09-9.7-8.09-7.21 0-11.07 5.79-11.07 13.46 0 9 4.65 14.87 11.38 14.87 4.69 0 8.19-2.19 10.44-6.58l.78.73c-2 4.75-6.73 7.73-12.47 7.73C7.52 77.64 0 72.73 0 62.77c0-9.5 6.52-16.49 15.45-16.49 3.75 0 6.57 1.25 8.34 1.25a1.63 1.63 0 001.62-.94h.84v8.92h-.89M39.18 59c-3.91 0-6.27 3.44-6.27 8.76 0 4.75 2 8.72 6.26 8.72s6.27-4.23 6.27-8.72c0-4.64-2-8.76-6.27-8.76zm0 18.52c-5.8 0-10.13-4.17-10.13-9.76s4.33-9.81 10.13-9.81 10.12 4.14 10.12 9.77-4.3 9.76-10.13 9.76zm31.56-4.59c0 2.4.52 3.13 3.13 3.13v.89H64V76c2.5 0 3.18-.57 3.18-2.29v-9.64a4 4 0 00-4.12-4.22c-1.83 0-3.45 1.15-5.27 3.6v9c0 2.81.36 3.54 3.13 3.54v.89h-9.75V76c2.45 0 3.07-.21 3.07-3.54V62.09c0-2.24-.57-2.71-3.07-2.71v-.89l5.74-.58h.89v3.7c2.19-2.5 4.33-3.7 6.67-3.7a6.22 6.22 0 016.27 6.63v8.35M86 63.6c-.37-3.08-2.4-4.64-4.59-4.64-1.83 0-3.08 1-3.08 2.5 0 4.7 9.7 3.45 9.7 10.33a5.84 5.84 0 01-5.84 5.69c-2 0-3.81-1.36-4.7-1.36a1.26 1.26 0 00-1.2 1.26h-.89v-6.32h.89c.79 3.87 3.66 5.38 6 5.38a3.15 3.15 0 003.24-3.19c0-5.16-9.82-3.75-9.82-10a5.55 5.55 0 015.64-5.32c1.94 0 2.51.89 3.76.89.47 0 .83-.27 1.09-.89h.89v5.67H86m17.78 1.15c.15-4.07-2.61-5.74-5-5.74-3.08 0-4.9 2.3-5.12 5.74zm-10.08.89C93.61 73.93 98.57 76 101.07 76s3.86-.89 6.53-3.86v1.35c-2.25 2.87-4.39 4-7.62 4-5.79 0-10-4-10-9.6s4.07-10 9.29-10c4.27 0 8.24 3.45 8 7.73zm22.77 7.77c0 2 .62 2.61 3.08 2.61v.89h-9.75V76c2.81 0 3.13-.73 3.13-3.55V62.4c0-2.71-.68-3-3.81-3v-.89l6.47-.57h.89v4c3.44-3 5.06-4 6.31-4a5.71 5.71 0 013.39 1.46l-1.41 3.28a10.58 10.58 0 00-4.38-1.61c-1.2 0-2.25.62-3.91 2.24v10.1m22-1l3.6-9.34c.89-2.4.89-3.49-1.83-3.7v-.89h6.79v.89c-2.14.21-2.67.67-3.56 2.66l-5.94 15.29h-.89l-5.9-14.51c-1.25-3-1.72-3.34-3.91-3.44v-.89h8.92v.89c-1.77.16-2.24 1.14-1.41 3.18l4.12 9.86m45.4.47c0 2.4.52 3.13 3.13 3.13v.89h-9.86V76c2.5 0 3.18-.57 3.18-2.29v-9.64a4 4 0 00-4.12-4.22c-1.83 0-3.44 1.15-5.27 3.6v9c0 2.81.36 3.54 3.13 3.54v.89h-9.76V76c2.45 0 3.08-.21 3.08-3.54V62.09c0-2.24-.58-2.71-3.08-2.71v-.89l5.74-.58h.96v3.7c2.19-2.5 4.33-3.7 6.67-3.7a6.21 6.21 0 016.27 6.63v8.35m20.53-8.45h-.89c-.78-3.34-3.13-5.48-6.21-5.48-3.65 0-6.21 3.13-6.21 7.67 0 5.06 3.19 9.29 6.95 9.29a8.78 8.78 0 006.88-3.86v1.35a9.67 9.67 0 01-8.14 4.07 8.89 8.89 0 01-9.29-9.34c0-5.69 4.28-10.22 9.55-10.22 2.77 0 4.28 1 5.22 1a1.5 1.5 0 001.25-1h.89v6.52m13.26 8.19l3.23-9.76c.73-2.19.58-3.39-1.46-3.49v-.89h6.5v.89c-2 0-3.19 1.25-4.23 4.33l-7.36 21.76c-1.46 4.27-3.86 6.73-6.11 6.73a4 4 0 01-2.29-.78l1.2-3.19a3.86 3.86 0 001.77.42c2.24 0 3.55-1.31 4.7-4.54l2.4-6.68-6.63-15.29c-.94-2.14-1.62-2.71-3.76-2.76v-.89h8.87v.89c-1.41.21-2 1.25-1.3 2.81l4.43 10.44M119.05 40.7a6.19 6.19 0 01-5.05 3.14c-2 0-3.76-2-3.76-4.53 0-5 4.18-5 8.85-7v8.39zm4.73-.35V29.41c0-6.69-4.81-9.06-8.92-9.06a9.29 9.29 0 00-9.13 7.6l1.25.35a6.83 6.83 0 016.56-5.3c3.48 0 5.5 2.51 5.5 6v1.8c-4 2.38-13.66 2.1-13.66 9.14a6.84 6.84 0 007 6.55c2.58 0 4.47-1 6.91-3.67v3H128v-1.2c-3.53 0-4.24-1-4.24-4.23zM157 73.13a4.58 4.58 0 01-3.77 2.33 3.14 3.14 0 01-2.79-3.36c0-3.72 3.1-3.67 6.56-5.17v6.2zm3.51-.27v-8.1c0-5-3.57-6.72-6.62-6.72a6.9 6.9 0 00-6.77 5.64l.94.25a5 5 0 014.85-3.93c2.58 0 4.08 1.86 4.08 4.44v1.34c-3 1.76-10.13 1.55-10.13 6.77a5.07 5.07 0 005.22 4.86c1.92 0 3.32-.76 5.13-2.72v2.2h6.42V76c-2.62 0-3.14-.73-3.14-3.14z"/></g></g></svg>