<svg version="1.1" id="Layer_1" xmlns="http://www.w3.org/2000/svg" x="0" y="0" viewBox="0 0 351.5 258.8" xml:space="preserve"><style>.st0{fill:#9ba0a5}</style><path id="path19" class="st0" d="M294.3 205.5l10.6 29h-21.5l10.9-29zm-11.4-11.3l-24.4 61.9h17.2l3.9-10.9h28.9l3.7 10.9h18.7l-24.6-61.9h-23.4zm-49 61.9h17.5v-61.9h-17.5v61.9zm-121.5-61.9l-14.6 49.1-14-49.1H64.9l20 61.9h25.2l20.1-61.9h-17.8zm70.7 13.5h7.5c10.9 0 18 4.9 18 17.6s-7.1 17.6-18 17.6h-7.5v-35.2zm-17.3-13.5v61.9h28.4c15.1 0 20-2.5 25.4-8.1 3.8-4 6.2-12.6 6.2-22.1 0-8.7-2.1-16.5-5.7-21.3-6.5-8.6-15.8-10.3-29.8-10.3l-24.5-.1zM0 194.1v62h17.7V209h13.7c4.5 0 7.8 1.1 9.9 3.5 2.8 2.9 3.9 7.7 3.9 16.4v27.2h17.1v-34.3c0-24.5-15.6-27.8-30.8-27.8H0v.1zm137.6.1v61.9h17.5v-61.9h-17.5z"/><path id="path21" class="st0" d="M47.1 70.9s22.5-33.2 67.4-36.6v-12c-49.8 4-92.9 46.1-92.9 46.1s24.4 70.6 92.9 77v-12.8c-50.2-6.4-67.4-61.7-67.4-61.7zm67.4 36.2v11.7C76.5 112 66 72.6 66 72.6c13.1-13.1 30.1-21.3 48.5-23.5V62h-.1c-15.9-1.9-28.3 12.9-28.3 12.9s7 25 28.4 32.2m0-107.1v22.2l4.4-.3c56.6-1.9 93.4 46.4 93.4 46.4s-42.3 51.5-86.5 51.5c-3.8 0-7.6-.4-11.4-1v13.7c3.2.4 6.3.6 9.5.6 41.1 0 70.7-21 99.5-45.8 4.8 3.8 24.3 13.1 28.3 17.2-27.3 22.9-91 41.3-127.1 41.3-3.5 0-6.8-.2-10.1-.5v19.3h156V0h-156zm0 49.1V34.2c1.4-.1 2.9-.2 4.4-.2 40.7-1.3 67.4 35 67.4 35s-28.8 40-59.7 40c-4.1 0-8.1-.6-12-1.9V62c15.8 1.9 19 8.9 28.6 24.8l21.2-17.9s-15.5-20.3-41.5-20.3c-2.8 0-5.6.2-8.4.5"/></svg>