<svg xmlns="http://www.w3.org/2000/svg" viewBox="0 0 2497.78 457.99"><g data-name="Layer 2"><path d="M253.66 169.21c0 57-27.58 95.66-97.44 95.66h-22.07V83.23c7.85-.45 15.18-.45 22.07-.45 66.15 0 97.44 31.26 97.44 86.43M182 344c125 0 204-64.39 204-176.56C386 44.13 301.42 0 163.58 0 110.27 0 45.94 3.67 0 9.18v439.64h134.16V344zm1797.5-174.74c0 57-27.55 95.66-97.42 95.66h-22V83.23c7.78-.45 15.12-.45 22-.45 66.15 0 97.42 31.26 97.42 86.43M1907.84 344c124.88 0 204-64.39 204-176.56C2111.79 44.13 2027.26 0 1889.41 0c-53.3 0-117.67 3.67-163.61 9.18v439.64H1860V344zm378.53-222.57c0-23.9 23.92-34.95 62.48-34.95 42.29 0 88.27 9.2 119.49 22.13l-11-95.68C2422.38 5.52 2391.14 0 2334.18 0c-108.45 0-181.94 42.78-181.94 132.45 0 154.47 209.56 123.23 209.56 195 0 27.56-20.25 42.27-69.9 42.27-44 0-112.1-14.71-152.53-34.93L2154.12 436c40.39 14.71 95.53 22 139.66 22 112.08 0 204-36.79 204-147.17 0-147.1-211.41-119.54-211.41-189.44M1624.75 9.18H1490.6v439.64h134.15zm-544 0H946.54v439.64h134.17zm233.37 351.32V9.18H1180v439.64h242.64l20.19-88.32zM847.3 9.18H713.13v174.74H573.44V9.18H439.25v439.64h134.18V275.89h139.69v172.93h134.17V9.18z" fill="#9a9fa5" data-name="Layer 1"/></g></svg>