<svg xmlns="http://www.w3.org/2000/svg" viewBox="0 0 192.2 192.2"><defs><style>.cls-2{fill:#9ba0a5}</style></defs><g id="Layer_2" data-name="Layer 2"><g opacity=".8" id="svg2"><path class="cls-2" d="M95.3 115.8l-18.5 47.9-.1 1.5a72.28 72.28 0 0037.3.3l-.2-1.8z"/><path class="cls-2" d="M131.9 34.3l-21 57.8H81.4l-21.1-58a69.87 69.87 0 00-20.2 17.3L70 129l11-28.3h28.7l11 28.3 30.2-78.5a70.23 70.23 0 00-19-16.2zM24.3 96.2a71.37 71.37 0 0037.3 62.7L28.3 72.4a72.05 72.05 0 00-4 23.8z"/><path class="cls-2" d="M114.2 26.9a72.36 72.36 0 00-36.2 0L96.2 77zm48.7 44l-34.1 88.9a71.7 71.7 0 0038.6-63.5 69 69 0 00-4.5-25.4z"/><path class="cls-2" d="M96.1 0a96.1 96.1 0 1096.1 96.1A96.07 96.07 0 0096.1 0zm-.2 179.5a83.35 83.35 0 110-166.7 83.63 83.63 0 0183.4 83.5c0 45.8-37.5 83.2-83.4 83.2z"/></g></g></svg>