<svg xmlns="http://www.w3.org/2000/svg" viewBox="0 0 52 52"><title>accuracy</title><g id="b42a6e79-04b3-4171-b427-b0864a406ef6" data-name="Layer 2"><g id="bf3bc26d-e23f-478a-b9aa-a36c8465e7ec" data-name="Working Layer"><path d="M46,52H7V7H52V46A6,6,0,0,1,46,52Z" style="fill:#fffa0c"/><path d="M45.8,21h.7a1.5,1.5,0,0,0,0-3h-.7l1.63-3.06A2,2,0,0,0,45.67,12H38.43a2,2,0,0,0-1.76,1.06L34,18H20a1.5,1.5,0,0,0,0,3H34l2.64,4.94A2,2,0,0,0,38.43,27h7.24a2,2,0,0,0,1.76-2.94ZM39,15h5l-1.15,2.15a5.2,5.2,0,0,0-.34.85H37.43Zm0,9-1.6-3h5.08a5.2,5.2,0,0,0,.34.85L44,24Z" style="fill:#28282a"/><path d="M35.82,27.2a1.51,1.51,0,0,0-2,.55,16.5,16.5,0,1,1,0-16.5,1.5,1.5,0,0,0,2.6-1.5A19.49,19.49,0,1,0,11,37L5.68,46.78a1.51,1.51,0,0,0,.6,2A1.57,1.57,0,0,0,7,49a1.51,1.51,0,0,0,1.32-.78l5.49-10.07a19.27,19.27,0,0,0,4.19.77V48.5a1.5,1.5,0,0,0,3,0V38.94a18.78,18.78,0,0,0,3.75-.68l5.43,10A1.51,1.51,0,0,0,31.5,49a1.57,1.57,0,0,0,.72-.18,1.51,1.51,0,0,0,.6-2L27.6,37.21a19.61,19.61,0,0,0,8.77-8A1.5,1.5,0,0,0,35.82,27.2Z" style="fill:#28282a"/><path d="M29.56,15.55a1.5,1.5,0,1,0,2.79-1.1,13.82,13.82,0,1,0,0,10.1,1.5,1.5,0,1,0-2.79-1.1,10.82,10.82,0,1,1,0-7.9Z" style="fill:#28282a"/><path d="M19.5,14.84a4.64,4.64,0,0,1,3.17,1.26,1.5,1.5,0,0,0,2-2.2,7.66,7.66,0,1,0,0,11.2,1.5,1.5,0,0,0-2-2.2,4.66,4.66,0,1,1-3.17-8.06Z" style="fill:#28282a"/></g></g></svg>