<svg xmlns="http://www.w3.org/2000/svg" viewBox="0 0 51 51"><title>content_1-layer</title><g id="b96f8092-e8d3-4773-a1b7-482b5b89b64c" data-name="Layer 2"><g id="bc15b95f-7334-49ae-b138-216399463c94" data-name="Working Layer"><path d="M28.5,51h0A22.5,22.5,0,0,1,6,28.5H6A22.5,22.5,0,0,1,28.5,6h0A22.5,22.5,0,0,1,51,28.5h0A22.5,22.5,0,0,1,28.5,51Z" style="fill:#fffa0c"/><path d="M50,19.5a3.48,3.48,0,0,0-1-2.47,3.57,3.57,0,0,0-5,0l-5,5V10a1.46,1.46,0,0,0-.11-.55v0a1.63,1.63,0,0,0-.33-.49L30.06.44a1.63,1.63,0,0,0-.49-.33h0A1.46,1.46,0,0,0,29,0H1.5A1.5,1.5,0,0,0,0,1.5v45A1.5,1.5,0,0,0,1.5,48h36A1.5,1.5,0,0,0,39,46.5V31.89L48.92,22A3.48,3.48,0,0,0,50,19.5ZM30.5,5.12,33.88,8.5H30.5ZM36,45H3V3H27.5v7A1.5,1.5,0,0,0,29,11.5h7V25l-8.65,8.64a1.57,1.57,0,0,0-.36.59l-1.41,4.24A1.51,1.51,0,0,0,25.94,40a1.53,1.53,0,0,0,1.06.44,1.5,1.5,0,0,0,.47-.08L31.72,39a1.35,1.35,0,0,0,.58-.36l3.7-3.7ZM46.8,19.85,30.43,36.22l-1.06.35.36-1.06L46.09,19.15a.5.5,0,0,1,.71,0A.5.5,0,0,1,46.8,19.85Z" style="fill:#28282a"/><path d="M10.5,10h14a1.5,1.5,0,0,0,0-3h-14a1.5,1.5,0,0,0,0,3Z" style="fill:#28282a"/><path d="M6.5,16h26a1.5,1.5,0,0,0,0-3H6.5a1.5,1.5,0,0,0,0,3Z" style="fill:#28282a"/><path d="M6.5,22h26a1.5,1.5,0,0,0,0-3H6.5a1.5,1.5,0,0,0,0,3Z" style="fill:#28282a"/><path d="M6.5,28h23a1.5,1.5,0,0,0,0-3H6.5a1.5,1.5,0,0,0,0,3Z" style="fill:#28282a"/><path d="M23.5,31H6.5a1.5,1.5,0,0,0,0,3h17a1.5,1.5,0,0,0,0-3Z" style="fill:#28282a"/><path d="M21.5,37H6.5a1.5,1.5,0,0,0,0,3h15a1.5,1.5,0,0,0,0-3Z" style="fill:#28282a"/></g></g></svg>