<svg xmlns="http://www.w3.org/2000/svg" viewBox="0 0 52.01 51.23"><title>lidar2</title><g id="a437ea76-d7c1-4351-92c6-3ec74fdb0ec6" data-name="Layer 2"><g id="ba2c6a1b-7244-4aa3-85a0-aebc6bc046e2" data-name="Working Layer"><rect x="7.01" y="6.23" width="45" height="45" rx="22.5" style="fill:#fffa0c"/><path d="M43.68,32.4l-11-5.9V21.19a1.54,1.54,0,0,0-.14-.66.43.43,0,0,0,0-.07h0a1.46,1.46,0,0,0-.65-.63l-5.31-2.73V7.23a1.5,1.5,0,0,0-3,0v9.86l-5.29,2.72-.13.07a1.48,1.48,0,0,0-.46.44,1.51,1.51,0,0,0-.21.49,1.23,1.23,0,0,0,0,.38V26.5l-11,5.9a1.5,1.5,0,0,0,.71,2.83,1.46,1.46,0,0,0,.7-.18L18.89,29.1l5.41,2.78a1.4,1.4,0,0,0,.68.17H25a1.4,1.4,0,0,0,.68-.17l5.41-2.78,11.14,5.95a1.53,1.53,0,0,0,.71.18,1.5,1.5,0,0,0,.7-2.83ZM23.51,28.1l-3.13-1.61v-2.9l3.13,1.58ZM25,22.57l-2.83-1.42L25,19.69l2.83,1.46Zm4.64,3.92L26.51,28.1V25.17l3.14-1.58Z" style="fill:#282828"/><path d="M37.51,2.57A25,25,0,0,0,31.4.05,1.5,1.5,0,1,0,30.63,3,22.3,22.3,0,0,1,36,5.17,22,22,0,0,1,46.25,30a1.49,1.49,0,0,0,1,1.84,1.31,1.31,0,0,0,.39.05,1.51,1.51,0,0,0,1.45-1.1A25,25,0,0,0,37.51,2.57Z" style="fill:#282828"/><path d="M6,13.23A21.83,21.83,0,0,1,19.39,3a1.5,1.5,0,0,0-.76-2.9A25,25,0,0,0,.89,30.78a1.49,1.49,0,0,0,1.44,1.11,1.83,1.83,0,0,0,.4-.05,1.49,1.49,0,0,0,1-1.84A21.86,21.86,0,0,1,6,13.23Z" style="fill:#282828"/><path d="M40.63,39.73A22,22,0,0,1,14,43.28a22.27,22.27,0,0,1-4.62-3.55,1.5,1.5,0,1,0-2.12,2.11,25,25,0,0,0,35.49,0,1.5,1.5,0,1,0-2.13-2.11Z" style="fill:#282828"/><path d="M30,15.57l.21.13A10,10,0,0,1,35,24a1.5,1.5,0,0,0,1.5,1.46h0A1.5,1.5,0,0,0,38,23.9a13,13,0,0,0-6.22-10.77L31.51,13A1.5,1.5,0,1,0,30,15.57Z" style="fill:#282828"/><path d="M18.23,13.13A13,13,0,0,0,12,23.9a1.51,1.51,0,0,0,1.47,1.54h0A1.5,1.5,0,0,0,15,24a10,10,0,0,1,1.34-4.74,10.14,10.14,0,0,1,3.44-3.54,1.5,1.5,0,0,0-1.56-2.56Z" style="fill:#282828"/><path d="M25,37.23a13.12,13.12,0,0,0,6.22-1.58,1.52,1.52,0,0,0,.6-2,1.5,1.5,0,0,0-2-.6,10,10,0,0,1-9.56,0,1.5,1.5,0,0,0-1.43,2.64A13,13,0,0,0,25,37.23Z" style="fill:#282828"/><path d="M42,28.73l.26,0a1.5,1.5,0,0,0,1.48-1.24A19.07,19.07,0,0,0,34.51,7.77a18.74,18.74,0,0,0-3-1.39,1.5,1.5,0,1,0-1,2.81A16.87,16.87,0,0,1,33,10.37,16,16,0,0,1,40.77,27,1.51,1.51,0,0,0,42,28.73Z" style="fill:#282828"/><path d="M18.5,6.38A19,19,0,0,0,6.3,27.51a1.5,1.5,0,0,0,1.47,1.24l.26,0A1.5,1.5,0,0,0,9.25,27,16,16,0,0,1,19.52,9.2a1.51,1.51,0,0,0,.9-1.93A1.49,1.49,0,0,0,18.5,6.38Z" style="fill:#282828"/><path d="M14.73,36.49a1.5,1.5,0,0,0-1.92,2.3,19.5,19.5,0,0,0,2.7,1.89,19.09,19.09,0,0,0,21.71-1.89,1.5,1.5,0,0,0-1.93-2.3A16.05,16.05,0,0,1,17,38.08,16.32,16.32,0,0,1,14.73,36.49Z" style="fill:#282828"/></g></g></svg>