<svg xmlns="http://www.w3.org/2000/svg" viewBox="0 0 50.54 50.5"><title>quality2</title><g id="baf92e08-b297-4733-a80d-57d08ac79942" data-name="Layer 2"><g id="bad4414d-0d04-44e7-b690-3a93585423ff" data-name="Working Layer"><rect x="5.54" y="5.5" width="45" height="45" rx="22.5" style="fill:#fffa0c"/><path d="M28.6,3l4.76,1.83-.47,1.51a4.06,4.06,0,0,0,1.3,4.32,17.75,17.75,0,0,1,1.55,1.46,4.1,4.1,0,0,0,3,1.31,4.17,4.17,0,0,0,1.4-.25l1.5-.56,2.07,4.66L42.3,18a4,4,0,0,0-2.14,4,15.06,15.06,0,0,1,.06,2.12A4,4,0,0,0,42.59,28l1.45.67-1.83,4.75-1.51-.46a4,4,0,0,0-4.32,1.3,17.48,17.48,0,0,1-1.52,1.59,4,4,0,0,0-1.08,4.4l.54,1.49-4.65,2.07-.74-1.42a4,4,0,0,0-3.61-2.17l-.36,0c-.49,0-1,.06-1.48.06h-.81A4.07,4.07,0,0,0,19,42.61L18.31,44l-4.76-1.83L14,40.68a4,4,0,0,0-1.28-4.32,17.76,17.76,0,0,1-1.54-1.47,4.07,4.07,0,0,0-3-1.32,4.15,4.15,0,0,0-1.39.24l-1.49.55L3.26,29.7,4.68,29a4.05,4.05,0,0,0,2.15-4,16.72,16.72,0,0,1,0-2.12A4.07,4.07,0,0,0,4.43,19L3,18.34l1.83-4.75,1.52.47a4,4,0,0,0,4.34-1.28,15,15,0,0,1,1.4-1.48,4.07,4.07,0,0,0,1.05-4.4l-.56-1.49,4.66-2.07L18,4.74a4.08,4.08,0,0,0,3.6,2.16l.38,0c.52,0,1-.07,1.56-.07h.71a4.09,4.09,0,0,0,3.71-2.37L28.6,3m0-3a3,3,0,0,0-2.73,1.75L25.21,3.2a1.06,1.06,0,0,1-1,.62h-.71c-.61,0-1.22,0-1.84.08h-.1a1.05,1.05,0,0,1-.94-.56l-.75-1.41A3,3,0,0,0,17.24.34,2.94,2.94,0,0,0,16,.6L11.36,2.67A3,3,0,0,0,9.77,6.45L10.33,8A1.08,1.08,0,0,1,10,9.11a19.31,19.31,0,0,0-1.65,1.74,1.1,1.1,0,0,1-.83.4,1.19,1.19,0,0,1-.32-.05l-1.52-.48a3.06,3.06,0,0,0-.89-.14A3,3,0,0,0,2,12.51L.2,17.27a3,3,0,0,0,1.54,3.79l1.43.67a1.07,1.07,0,0,1,.61,1,21.09,21.09,0,0,0,.06,2.51,1.07,1.07,0,0,1-.56,1l-1.41.74A3,3,0,0,0,.52,30.92l2.07,4.66a3,3,0,0,0,2.74,1.78,3.06,3.06,0,0,0,1-.18l1.49-.55a1.13,1.13,0,0,1,.36-.06,1.11,1.11,0,0,1,.8.35,19.81,19.81,0,0,0,1.81,1.74,1.06,1.06,0,0,1,.34,1.13l-.65,2.08a2.2,2.2,0,0,0,1.2,2.85l5.52,2.12a3.13,3.13,0,0,0,1.08.2A3,3,0,0,0,21,45.3l.66-1.43a1.07,1.07,0,0,1,1-.61h.81a16.88,16.88,0,0,0,1.74-.08h.1a1.07,1.07,0,0,1,.95.56L27,45.17a3,3,0,0,0,2.66,1.61,2.94,2.94,0,0,0,1.22-.26l4.65-2.07a3,3,0,0,0,1.6-3.78l-.54-1.48A1.08,1.08,0,0,1,36.89,38a20.1,20.1,0,0,0,1.8-1.89,1.06,1.06,0,0,1,.82-.39.87.87,0,0,1,.31,0l2.07.63a2.69,2.69,0,0,0,.82.13,2.09,2.09,0,0,0,2-1.33l2.12-5.52a3,3,0,0,0-1.55-3.8l-1.45-.67a1.06,1.06,0,0,1-.62-1,21,21,0,0,0-.07-2.51,1.07,1.07,0,0,1,.55-1l1.4-.74a3,3,0,0,0,1.34-3.87L44.37,11.4a3,3,0,0,0-3.79-1.59l-1.49.55a.92.92,0,0,1-.36.07,1.11,1.11,0,0,1-.8-.35,19.81,19.81,0,0,0-1.82-1.73,1.05,1.05,0,0,1-.35-1.13l.64-2.07a2.2,2.2,0,0,0-1.21-2.83L29.68.2A3,3,0,0,0,28.6,0Z"/><path d="M23.51,37.47a14,14,0,1,1,14-14A14,14,0,0,1,23.51,37.47Zm0-25a11,11,0,1,0,11,11A11,11,0,0,0,23.51,12.47Z"/><path d="M21.07,29.47a2.51,2.51,0,0,1-1.75-.71L16,25.45a1.5,1.5,0,1,1,2.1-2.13l3,2.95,7.88-7.94a1.5,1.5,0,1,1,2.13,2.11l-8.23,8.3A2.47,2.47,0,0,1,21.07,29.47Z"/></g></g></svg>