<svg xmlns="http://www.w3.org/2000/svg" viewBox="0 0 50 50"><title>security2</title><g id="a3530933-3890-4600-9cb2-0f81ec3e849c" data-name="Layer 2"><g id="f8d516a0-1069-49b5-b74b-f8b807426bba" data-name="Working Layer"><rect x="5" y="5" width="45" height="45" rx="22.5" style="fill:#fffa0c"/><path d="M23,22a4,4,0,0,0-4,4v6a4,4,0,0,0,8,0V26A4,4,0,0,0,23,22Zm1,10a1,1,0,0,1-2,0V26a1,1,0,0,1,2,0Z" style="fill:#28282a"/><path d="M40,16H36V12.5A12.77,12.77,0,0,0,23,0,12.77,12.77,0,0,0,10,12.5V16H6a6,6,0,0,0-6,6V42a6,6,0,0,0,6,6H40a6,6,0,0,0,6-6V22A6,6,0,0,0,40,16ZM13,12.5A9.77,9.77,0,0,1,23,3a9.77,9.77,0,0,1,10,9.5V16H31V12.5A7.77,7.77,0,0,0,23,5a7.77,7.77,0,0,0-8,7.5V16H13Zm15,0V16H18V12.5A4.77,4.77,0,0,1,23,8,4.77,4.77,0,0,1,28,12.5ZM40,45H6a3,3,0,0,1-3-3H43A3,3,0,0,1,40,45Zm3-6H3V22a3,3,0,0,1,3-3H40a3,3,0,0,1,3,3Z" style="fill:#28282a"/></g></g></svg>