<svg xmlns="http://www.w3.org/2000/svg" viewBox="0 0 51 47"><title>video2</title><g id="e371dbcb-72ea-48c4-ab9f-710c60607a6a" data-name="Layer 2"><g id="b1fbc323-a177-45d4-9766-956a87545d01" data-name="Working Layer"><rect x="6" y="2" width="45" height="45" rx="22.5" style="fill:#fffa0c"/><path d="M43.5,0H4.5A4.51,4.51,0,0,0,0,4.5v31A4.51,4.51,0,0,0,4.5,40h39A4.51,4.51,0,0,0,48,35.5V4.5A4.51,4.51,0,0,0,43.5,0ZM3,12H45V28H3ZM3,4.5A1.5,1.5,0,0,1,4.5,3h39A1.5,1.5,0,0,1,45,4.5V9H3Zm42,31A1.5,1.5,0,0,1,43.5,37H4.5A1.5,1.5,0,0,1,3,35.5V31H45Z" style="fill:#282828"/><rect x="29.5" y="4" width="5" height="4" rx="1.5" style="fill:#282828"/><rect x="37.5" y="4" width="5" height="4" rx="1.5" style="fill:#282828"/><rect x="21.5" y="4" width="5" height="4" rx="1.5" style="fill:#282828"/><rect x="13.5" y="4" width="5" height="4" rx="1.5" style="fill:#282828"/><rect x="5.5" y="4" width="5" height="4" rx="1.5" style="fill:#282828"/><rect x="13.5" y="32" width="5" height="4" rx="1.5" style="fill:#282828"/><rect x="5.5" y="32" width="5" height="4" rx="1.5" style="fill:#282828"/><rect x="21.5" y="32" width="5" height="4" rx="1.5" style="fill:#282828"/><rect x="29.5" y="32" width="5" height="4" rx="1.5" style="fill:#282828"/><rect x="37.5" y="32" width="5" height="4" rx="1.5" style="fill:#282828"/><path d="M28.87,18.78,22.14,14a1.5,1.5,0,0,0-2.37,1.22v9.52a1.5,1.5,0,0,0,.81,1.33,1.56,1.56,0,0,0,.69.17,1.53,1.53,0,0,0,.87-.28l6.73-4.76a1.5,1.5,0,0,0,0-2.44Zm-6.1,3.08V18.14L25.4,20Z" style="fill:#282828"/></g></g></svg>