<svg xmlns="http://www.w3.org/2000/svg" viewBox="0 0 111.37 153.8"><defs><clipPath id="a"><path d="M0 54.84A54.83 54.83 0 0 0 100.9 84.6a47.68 47.68 0 1 1 0-59.51A54.83 54.83 0 0 0 0 54.84" fill="none"/></clipPath><linearGradient id="b" x1="-256.92" y1="450" x2="-255.92" y2="450" gradientTransform="matrix(0 -106.56 -106.56 0 48002.19 -27268.21)" gradientUnits="userSpaceOnUse"><stop offset="0" stop-color="#2b5ca9"/><stop offset=".24" stop-color="#2d6fad"/><stop offset=".74" stop-color="#31a1b8"/><stop offset="1" stop-color="#34bebe"/></linearGradient><clipPath id="c"><path d="M30.87 54.84a25.48 25.48 0 0 0 46.89 13.83 22.16 22.16 0 1 1 0-27.65 25.48 25.48 0 0 0-46.89 13.82" fill="none"/></clipPath><linearGradient id="d" x1="-247.21" y1="456.65" x2="-246.21" y2="456.65" gradientTransform="matrix(0 45.85 45.85 0 -20884.08 11363.36)" gradientUnits="userSpaceOnUse"><stop offset="0" stop-color="#bdd538"/><stop offset=".32" stop-color="#b5cd39"/><stop offset=".84" stop-color="#9fb63a"/><stop offset="1" stop-color="#97ad3b"/></linearGradient><clipPath id="e"><path d="M32.16 33.87a33.62 33.62 0 1 1 0 41.95 38.67 38.67 0 1 0 0-41.95" fill="none"/></clipPath><linearGradient id="f" x1="-249.77" y1="454.89" x2="-248.77" y2="454.89" gradientTransform="matrix(0 73.58 73.58 0 -33403.02 18394.73)" gradientUnits="userSpaceOnUse"><stop offset="0" stop-color="#f26832"/><stop offset=".52" stop-color="#ed2b88"/><stop offset=".59" stop-color="#df2d8a"/><stop offset=".74" stop-color="#ba328e"/><stop offset=".93" stop-color="#7f3b95"/><stop offset="1" stop-color="#683e98"/></linearGradient><clipPath id="g"><path d="M48 53.74a12.41 12.41 0 1 0 12.38-12.41A12.42 12.42 0 0 0 48 53.74" fill="none"/></clipPath><linearGradient id="h" x1="-266.62" y1="443.36" x2="-265.62" y2="443.36" gradientTransform="matrix(0 -24.65 -24.65 0 10987.92 -6505.25)" gradientUnits="userSpaceOnUse"><stop offset="0" stop-color="#2a5ba9"/><stop offset=".24" stop-color="#2c6ead"/><stop offset=".72" stop-color="#2f9fb7"/><stop offset="1" stop-color="#32bebe"/></linearGradient></defs><g data-name="Layer 2"><g data-name="Layer 1"><g clip-path="url(#a)"><path fill="url(#b)" d="M0 0H100.9V109.69H0z"/></g><g clip-path="url(#c)"><path fill="url(#d)" d="M30.87 29.36H77.76V80.33H30.87z"/></g><g clip-path="url(#e)"><path fill="url(#f)" d="M32.16 16.18H103.3V93.50999999999999H32.16z"/></g><g clip-path="url(#g)"><path fill="url(#h)" d="M47.97 41.33H72.78999999999999V66.15H47.97z"/></g><path d="M13.4 127.79v-.36h4.72v.36c-1.5 0-1.71.31-1.71 2.11v1.37c-2 0-2.81.94-4.68.94a5.71 5.71 0 0 1 0-11.42 4.57 4.57 0 0 1 3.34 1.53 1.83 1.83 0 0 0 .62-1h.36v4h-.36c-.49-2.34-1.89-3.77-3.91-3.77-2.88 0-3.93 2.78-3.93 5s.94 4.93 4.27 4.93c1.57 0 3-.85 3-2.47-.03-.82-.48-1.22-1.72-1.22zm8.85 3.55h.63c1.3 0 1.5-.22 1.64-.81l.09-.32h.29l-.12 1.69h-6v-.34c1 0 1.17-.24 1.17-1.52v-2.3c0-1.28-.16-1.49-1.17-1.49v-.35h3.59v.35c-1 0-1.17.21-1.17 1.49v2.11c-.04 1.27.12 1.49 1.05 1.49zm7.19.79a3.25 3.25 0 1 1 0-6.46 3.25 3.25 0 1 1 0 6.46zm0-5.9c-1.66 0-2.24 1.49-2.24 2.66s.58 2.67 2.24 2.67 2.25-1.48 2.25-2.67-.58-2.66-2.25-2.66zm5.34 5.33c1 0 1.17-.24 1.17-1.52v-2.3c0-1.28-.16-1.49-1.17-1.49v-.35H38c1.44 0 2.18.69 2.18 1.57a1.51 1.51 0 0 1-.54 1.13 1.71 1.71 0 0 1 1.08 1.57c0 1-.84 1.73-2.43 1.73h-3.51zm3.15-5.12h-.74v2h.74a.92.92 0 0 0 1-1 .94.94 0 0 0-1-1zm.34 2.58h-1.08v1.39c0 .79.09.93.83.93h.25a1.09 1.09 0 0 0 1.16-1.17 1.08 1.08 0 0 0-1.16-1.17zm5.6 1.53c-.34.72-.34 1 .78 1v.34h-2.87v-.34c.9 0 1.06-.24 1.51-1.23l2.2-4.66h.33l2.18 4.67c.45 1 .63 1.23 1.45 1.23v.34H46v-.34c1 0 1.13-.29.79-1l-.27-.59h-2.38zm1.44-3.06l-.9 1.93h1.8zm8.57 3.85h.63c1.3 0 1.49-.22 1.64-.81l.09-.32h.29l-.13 1.69h-6v-.34c1 0 1.17-.24 1.17-1.52v-2.3c0-1.28-.16-1.49-1.17-1.49v-.35H54v.35c-1 0-1.17.21-1.17 1.49v2.11c-.05 1.27.11 1.49 1.05 1.49zm7.5.56v-.38c1.5 0 1.71-.31 1.71-2.1v-5.86c0-1.8-.21-2.09-1.71-2.09v-.37h4.87v.37c-1.5 0-1.71.29-1.71 2.09v5.86c0 1.79.21 2.1 1.71 2.1v.38zm11.62 0v-.34c1 0 1.17-.24 1.17-1.52v-2.62l-2.2 4.71h-.3l-2.18-4.68V130c0 1.28.16 1.52 1.17 1.52v.34h-2.9v-.34c1 0 1.17-.24 1.17-1.52v-2.3c0-1.28-.16-1.49-1.17-1.49v-.35h2.21l2.15 4.6 2.14-4.6h2.14v.35c-1 0-1.17.21-1.17 1.49v2.3c0 1.28.16 1.52 1.17 1.52v.34zm8.54-.34v.34H78v-.34c1 0 1.17-.24 1.17-1.52v-2.3c0-1.28-.16-1.49-1.17-1.49v-.35h3.15c1.59 0 2.43.76 2.43 1.75s-.84 1.75-2.43 1.75h-.74v.6c-.04 1.32.13 1.56 1.13 1.56zm-.43-5.12h-.74v2.4h.74a1.2 1.2 0 0 0 0-2.4zm4.66 4.11c-.34.72-.34 1 .78 1v.34h-2.86v-.34c.9 0 1.06-.24 1.51-1.23l2.19-4.66h.33l2.18 4.66c.45 1 .63 1.23 1.44 1.23v.34h-3.48v-.34c1 0 1.14-.29.8-1l-.28-.59H86zm1.44-3.06l-.9 1.93h1.81zm10.52 4.41a3.7 3.7 0 0 0-.22-.63 2.88 2.88 0 0 1-1.94.86 3.24 3.24 0 1 1 0-6.46 2.7 2.7 0 0 1 1.92.85 3.35 3.35 0 0 0 .24-.62h.34v2.47h-.36c-.29-1.33-1-2.14-2.14-2.14-1.62 0-2.06 1.51-2.06 2.66s.44 2.67 2.06 2.67c1.1 0 1.85-.81 2.14-2.14h.36v2.48zm3.63-5.46c-1.29 0-1.49.22-1.64.81l-.09.35h-.3l.14-1.7h6.63l.12 1.7h-.28l-.09-.35c-.17-.59-.35-.81-1.64-.81h-.81V130c0 1.28.16 1.52 1.17 1.52v.34H101v-.34c1 0 1.17-.24 1.17-1.52v-3.6zM.42 153.8H.06v-4h.36a3.24 3.24 0 0 0 3.33 3.24 2.06 2.06 0 0 0 2.25-2c0-.82-.83-1.53-2.07-2.17L2.2 148a3.47 3.47 0 0 1-2-3 2.79 2.79 0 0 1 3-2.68 3.33 3.33 0 0 1 2.2.74 1.51 1.51 0 0 0 .52-.83h.36v4h-.39c-.12-1.44-.66-3.15-2.75-3.15a1.64 1.64 0 0 0-1.75 1.6c0 .94.63 1.42 2.18 2.24l1.73.88a3 3 0 0 1 1.87 2.73 3.24 3.24 0 0 1-3.42 3.24A8.18 8.18 0 0 1 .94 153a1.56 1.56 0 0 0-.52.8zm12.11-.07a3.25 3.25 0 1 1 0-6.46 3.25 3.25 0 1 1 0 6.46zm0-5.9c-1.65 0-2.23 1.49-2.23 2.66s.58 2.67 2.23 2.67 2.26-1.48 2.26-2.67-.58-2.66-2.26-2.66zm11.35 1.51v1.76a2.43 2.43 0 0 1-2.62 2.61 2.52 2.52 0 0 1-2.73-2.61v-1.76c0-1.28-.16-1.49-1.17-1.49v-.35h3.54v.35c-1 0-1.17.21-1.17 1.49v1.85a1.6 1.6 0 0 0 1.71 1.81 1.62 1.62 0 0 0 1.75-1.77v-1.85c0-1.28-.14-1.49-1.15-1.49v-.35h3v.35c-1.04-.04-1.16.17-1.16 1.45zm4.89 1.66v.64c0 1.28.16 1.52 1.17 1.52v.34h-3.58v-.34c1 0 1.17-.24 1.17-1.52v-2.3c0-1.28-.16-1.49-1.17-1.49v-.35h3.17c1.58 0 2.43.76 2.43 1.75 0 .79-.6 1.49-1.71 1.69l.82.9a3.33 3.33 0 0 0 2 1.32v.34h-2l-2-2.5zm.74-3h-.74v2.4h.74a1.2 1.2 0 0 0 0-2.4zm10.15 5.5a3 3 0 0 0-.22-.63 2.86 2.86 0 0 1-1.94.86 3.24 3.24 0 1 1 0-6.46 2.72 2.72 0 0 1 1.93.85 3.38 3.38 0 0 0 .23-.62H40v2.5h-.36c-.29-1.33-1-2.14-2.14-2.14-1.62 0-2 1.51-2 2.66s.43 2.67 2 2.67c1.1 0 1.85-.81 2.14-2.15H40v2.49zm2.19 0v-.34c1 0 1.18-.24 1.18-1.52v-2.3c0-1.28-.17-1.49-1.18-1.49v-.35h3.59v.35c-1 0-1.17.21-1.17 1.49v2.3c0 1.28.16 1.52 1.17 1.52v.34zm11.47-4.16v4.37h-.38l-4.19-4.55v2.48c0 1.28.16 1.52 1.17 1.52v.34H47v-.34c1 0 1.17-.24 1.17-1.52v-2.3c0-1.28-.16-1.49-1.17-1.49v-.35h1.8l4 4.29v-2.45c0-1.28-.16-1.49-1.17-1.49v-.35h2.9v.35c-1.05 0-1.21.21-1.21 1.49zm2.61 1.15a3.34 3.34 0 0 1 3.42-3.22 2.72 2.72 0 0 1 1.93.85 3.38 3.38 0 0 0 .23-.62h.34v2.5h-.36c-.28-1.33-1-2.14-2.14-2.14-1.62 0-2.05 1.51-2.05 2.66s.43 2.67 2.05 2.67c.92 0 1.68-.33 1.68-1.16 0-.61-.27-.84-1.14-.84v-.34h3.4v.34c-1 0-1.17.21-1.17 1.49v.54c-.77 0-2 .54-2.77.54a3.34 3.34 0 0 1-3.42-3.27zm13.99 1.26c-.44 1-.09 1.37 1.4 1.37v.38h-4.21v-.38c1.51 0 1.6-.31 2.16-1.57l4-9.16h.23l4 9.16c.56 1.26.65 1.57 2.15 1.57v.38h-5v-.38c1.49 0 1.83-.38 1.4-1.37l-.86-2h-4.41zm3-7l-1.87 4.34h3.76zm14.57 4.3l-1.7 4.68h-.32L84 149.57l-1.53 4.16h-.3l-1.66-4.68c-.34-.93-.56-1.2-1.44-1.2v-.35h3.42v.35c-.86 0-1.06.25-.79 1l1 2.65 1.48-4h.41l1.43 4 1-2.69c.27-.73.14-1-.78-1v-.35H89v.35c-1 .04-1.17.32-1.51 1.24zm2.93 3.1c-.34.72-.34 1 .77 1v.34h-2.86v-.34c.9 0 1.06-.24 1.51-1.23l2.2-4.66h.32l2.18 4.66c.45 1 .63 1.23 1.44 1.23v.34h-3.47v-.34c1 0 1.13-.29.79-1l-.27-.6h-2.34zm1.44-3.06L91 151h1.8zm7.47 1.91v.64c0 1.28.16 1.52 1.17 1.52v.34h-3.58v-.34c1 0 1.17-.24 1.17-1.52v-2.3c0-1.28-.17-1.49-1.17-1.49v-.35h3.16c1.59 0 2.44.76 2.44 1.75 0 .79-.6 1.49-1.72 1.69l.83.9a3.33 3.33 0 0 0 2 1.32v.34h-2l-2-2.5zm.74-3h-.74v2.4h.74a1.2 1.2 0 0 0 0-2.4zm4.39 5.16c1 0 1.17-.24 1.17-1.52v-2.3c0-1.28-.16-1.49-1.17-1.49v-.35h3.22c2.58 0 3.69 1.35 3.69 3s-1.11 3-3.69 3h-3.22zm3.27-5.12h-.86V152c0 .83.09 1 .74 1h.12c1.88 0 2.22-1.37 2.22-2.47s-.34-2.53-2.22-2.53z"/></g></g></svg>