<?xml version="1.0" encoding="utf-8"?>
<!-- Generator: Adobe Illustrator 23.0.4, SVG Export Plug-In . SVG Version: 6.00 Build 0)  -->
<svg version="1.1" id="Layer_1" xmlns="http://www.w3.org/2000/svg" xmlns:xlink="http://www.w3.org/1999/xlink" x="0px" y="0px"
	 width="20px" height="20px" viewBox="0 0 20 20" style="enable-background:new 0 0 20 20;" xml:space="preserve">
<style type="text/css">
	.st0{opacity:0.22;fill:#28282A;}
	.st1{fill:#28282A;}
	.st2{fill:#FFFA0C;}
</style>
<g>
	<ellipse class="st0" cx="10" cy="19" rx="3.3" ry="1"/>
	<path class="st1" d="M15.7,5.7C15.7,2.6,13.2,0,10,0S4.3,2.6,4.3,5.7c0,0.2,0,0.4,0,0.7C4.7,11.6,9.8,19,9.8,19
		c0.1,0.2,0.3,0.2,0.4,0c0,0,5.1-7.4,5.5-12.6C15.7,6.2,15.7,6,15.7,5.7z"/>
	<g>
		<path class="st2" d="M13.7,3.8c-0.3-0.6-0.7-1.1-1.2-1.4l-0.3,0.4c0.5,0.3,0.8,0.8,1.1,1.3C14,5.4,13.8,7,12.9,8.2
			C12.2,9,11.1,9.5,10,9.5c-0.2,0-0.3,0-0.5-0.1l0,0V3.4H9v6c0,0.2,0.2,0.5,0.5,0.5c1.4,0.2,2.9-0.3,3.8-1.5
			C14.3,7.1,14.5,5.3,13.7,3.8L13.7,3.8z"/>
		<path class="st2" d="M6.7,7.4C6,6.1,6.2,4.5,7.1,3.4C7.8,2.5,8.9,2,10,2c0.2,0,0.3,0,0.5,0.1l0,0v6H11v-6c0-0.2-0.2-0.5-0.5-0.5
			C9.1,1.4,7.7,2,6.8,3C5.7,4.3,5.5,6.1,6.3,7.6C6.6,8.2,7,8.7,7.5,9.1l0.3-0.4C7.3,8.4,7,7.9,6.7,7.4z"/>
	</g>
</g>
</svg>
