<svg xmlns="http://www.w3.org/2000/svg" viewBox="0 0 1116 927"><g data-name="Layer 2"><g data-name="Layer 1"><circle cx="1102.5" cy="13.5" r="13.5"/><circle cx="1102.5" cy="113.5" r="13.5"/><circle cx="1102.5" cy="213.5" r="13.5"/><circle cx="1102.5" cy="313.5" r="13.5"/><circle cx="1102.5" cy="413.5" r="13.5"/><circle cx="1102.5" cy="513.5" r="13.5"/><circle cx="1102.5" cy="613.5" r="13.5"/><circle cx="1102.5" cy="713.5" r="13.5"/><circle cx="1102.5" cy="813.5" r="13.5"/><circle cx="1102.5" cy="913.5" r="13.5"/><circle cx="1003.5" cy="13.5" r="13.5"/><circle cx="1003.5" cy="113.5" r="13.5"/><circle cx="1003.5" cy="213.5" r="13.5"/><circle cx="1003.5" cy="313.5" r="13.5"/><circle cx="1003.5" cy="413.5" r="13.5"/><circle cx="1003.5" cy="513.5" r="13.5"/><circle cx="1003.5" cy="613.5" r="13.5"/><circle cx="1003.5" cy="713.5" r="13.5"/><circle cx="1003.5" cy="813.5" r="13.5"/><circle cx="1003.5" cy="913.5" r="13.5"/><circle cx="904.5" cy="13.5" r="13.5"/><circle cx="904.5" cy="113.5" r="13.5"/><circle cx="904.5" cy="213.5" r="13.5"/><circle cx="904.5" cy="313.5" r="13.5"/><circle cx="904.5" cy="413.5" r="13.5"/><circle cx="904.5" cy="513.5" r="13.5"/><circle cx="904.5" cy="613.5" r="13.5"/><circle cx="904.5" cy="713.5" r="13.5"/><circle cx="904.5" cy="813.5" r="13.5"/><circle cx="904.5" cy="913.5" r="13.5"/><circle cx="805.5" cy="13.5" r="13.5"/><circle cx="805.5" cy="113.5" r="13.5"/><circle cx="805.5" cy="213.5" r="13.5"/><circle cx="805.5" cy="313.5" r="13.5"/><circle cx="805.5" cy="413.5" r="13.5"/><circle cx="805.5" cy="513.5" r="13.5"/><circle cx="805.5" cy="613.5" r="13.5"/><circle cx="805.5" cy="713.5" r="13.5"/><circle cx="805.5" cy="813.5" r="13.5"/><circle cx="805.5" cy="913.5" r="13.5"/><circle cx="706.5" cy="13.5" r="13.5"/><circle cx="706.5" cy="113.5" r="13.5"/><circle cx="706.5" cy="213.5" r="13.5"/><circle cx="706.5" cy="313.5" r="13.5"/><circle cx="706.5" cy="413.5" r="13.5"/><circle cx="706.5" cy="513.5" r="13.5"/><circle cx="706.5" cy="613.5" r="13.5"/><circle cx="706.5" cy="713.5" r="13.5"/><circle cx="706.5" cy="813.5" r="13.5"/><circle cx="706.5" cy="913.5" r="13.5"/><circle cx="607.5" cy="13.5" r="13.5"/><circle cx="607.5" cy="113.5" r="13.5"/><circle cx="607.5" cy="213.5" r="13.5"/><circle cx="607.5" cy="313.5" r="13.5"/><circle cx="607.5" cy="413.5" r="13.5"/><circle cx="607.5" cy="513.5" r="13.5"/><circle cx="607.5" cy="613.5" r="13.5"/><circle cx="607.5" cy="713.5" r="13.5"/><circle cx="607.5" cy="813.5" r="13.5"/><circle cx="607.5" cy="913.5" r="13.5"/><circle cx="508.5" cy="13.5" r="13.5"/><circle cx="508.5" cy="113.5" r="13.5"/><circle cx="508.5" cy="213.5" r="13.5"/><circle cx="508.5" cy="313.5" r="13.5"/><circle cx="508.5" cy="413.5" r="13.5"/><circle cx="508.5" cy="513.5" r="13.5"/><circle cx="508.5" cy="613.5" r="13.5"/><circle cx="508.5" cy="713.5" r="13.5"/><circle cx="508.5" cy="813.5" r="13.5"/><circle cx="508.5" cy="913.5" r="13.5"/><circle cx="409.5" cy="13.5" r="13.5"/><circle cx="409.5" cy="113.5" r="13.5"/><circle cx="409.5" cy="213.5" r="13.5"/><circle cx="409.5" cy="313.5" r="13.5"/><circle cx="409.5" cy="413.5" r="13.5"/><circle cx="409.5" cy="513.5" r="13.5"/><circle cx="409.5" cy="613.5" r="13.5"/><circle cx="409.5" cy="713.5" r="13.5"/><circle cx="409.5" cy="813.5" r="13.5"/><circle cx="409.5" cy="913.5" r="13.5"/><circle cx="310.5" cy="13.5" r="13.5"/><circle cx="310.5" cy="113.5" r="13.5"/><circle cx="310.5" cy="213.5" r="13.5"/><circle cx="310.5" cy="313.5" r="13.5"/><circle cx="310.5" cy="413.5" r="13.5"/><circle cx="310.5" cy="513.5" r="13.5"/><circle cx="310.5" cy="613.5" r="13.5"/><circle cx="310.5" cy="713.5" r="13.5"/><circle cx="310.5" cy="813.5" r="13.5"/><circle cx="310.5" cy="913.5" r="13.5"/><circle cx="211.5" cy="13.5" r="13.5"/><circle cx="211.5" cy="113.5" r="13.5"/><circle cx="211.5" cy="213.5" r="13.5"/><circle cx="211.5" cy="313.5" r="13.5"/><circle cx="211.5" cy="413.5" r="13.5"/><circle cx="211.5" cy="513.5" r="13.5"/><circle cx="211.5" cy="613.5" r="13.5"/><circle cx="211.5" cy="713.5" r="13.5"/><circle cx="211.5" cy="813.5" r="13.5"/><circle cx="211.5" cy="913.5" r="13.5"/><circle cx="112.5" cy="13.5" r="13.5"/><circle cx="112.5" cy="113.5" r="13.5"/><circle cx="112.5" cy="213.5" r="13.5"/><circle cx="112.5" cy="313.5" r="13.5"/><circle cx="112.5" cy="413.5" r="13.5"/><circle cx="112.5" cy="513.5" r="13.5"/><circle cx="112.5" cy="613.5" r="13.5"/><circle cx="112.5" cy="713.5" r="13.5"/><circle cx="112.5" cy="813.5" r="13.5"/><circle cx="112.5" cy="913.5" r="13.5"/><circle cx="13.5" cy="13.5" r="13.5"/><circle cx="13.5" cy="113.5" r="13.5"/><circle cx="13.5" cy="213.5" r="13.5"/><circle cx="13.5" cy="313.5" r="13.5"/><circle cx="13.5" cy="413.5" r="13.5"/><circle cx="13.5" cy="513.5" r="13.5"/><circle cx="13.5" cy="613.5" r="13.5"/><circle cx="13.5" cy="713.5" r="13.5"/><circle cx="13.5" cy="813.5" r="13.5"/><circle cx="13.5" cy="913.5" r="13.5"/></g></g></svg>