<svg viewBox="0 0 759.84 681.63" xmlns="http://www.w3.org/2000/svg"><g fill="none" stroke-miterlimit="10"><g stroke="#505052" stroke-width="4"><circle cx="319.92" cy="102.89" r="60"/><circle cx="499.92" cy="102.89" r="60"/><circle cx="379.92" cy="342.89" r="60"/><circle cx="379.92" cy="462.89" r="60"/><circle cx="379.92" cy="582.89" r="60"/><circle cx="259.92" cy="582.89" r="60"/><circle cx="379.92" cy="222.89" r="60"/><circle cx="379.92" cy="102.89" r="60"/><circle cx="419.92" cy="65.89" r="20"/><circle cx="379.92" cy="65.89" r="20"/><circle cx="339.92" cy="65.89" r="20"/><circle cx="439.92" cy="582.89" r="60"/><circle cx="259.92" cy="342.89" r="60"/><circle cx="139.92" cy="342.89" r="60"/><circle cx="339.94" cy="619.3" r="20"/><circle cx="419.92" cy="619.3" r="20"/><circle cx="379.92" cy="619.3" r="20"/></g><path d="M439.92 636.88c136.93-27.8 240-148.86 240-294a299.52 299.52 0 00-120-240m-240-53.99c-136.94 27.8-240 148.86-240 294a299.55 299.55 0 00120 240m120-534a303.35 303.35 0 01107.46-2.27 15 15 0 0112.54 14.8v461.47m-120-360v461.46a14.94 14.94 0 0012.54 14.8 302.72 302.72 0 00107.46-2.27" opacity=".42" stroke="#000" stroke-width="36"/><path d="M439.92 636.88c136.93-27.8 240-148.86 240-294a299.52 299.52 0 00-120-240m-240-53.99c-136.94 27.8-240 148.86-240 294a299.55 299.55 0 00120 240m120-534a303.27 303.27 0 01102.72-3 20.05 20.05 0 0117.28 19.82v457.18m-120-360v457.16a20 20 0 0017.28 19.81 302.57 302.57 0 00102.72-3M0 582.89h759.84M0 102.89h759.84M0 42.89h759.84M0 642.89h759.84m-633.08 37.54L636.18 1.2" stroke="#505052" stroke-width="4"/></g></svg>