<svg xmlns="http://www.w3.org/2000/svg" viewBox="0 0 869 476.28"><g data-name="Layer 2"><g data-name="Layer 1"><path d="M13 47.28h165v368a59 59 0 01-59 59H13v-427zm229.5.5h165v368a59 59 0 01-59 59h-106v-427zm230 0h165v368a59 59 0 01-59 59h-106v-427zm230 0h165v368a59 59 0 01-59 59h-106v-427z" fill="#fff" stroke="#281e53" stroke-miterlimit="10" stroke-width="3"/><path d="M1.5 35.78h165v371.3a55.7 55.7 0 01-55.7 55.7H1.5v-427zm229.5.5h165v371.3a55.7 55.7 0 01-55.7 55.7H231v-427zm230 0h165v371.3a55.7 55.7 0 01-55.7 55.7H461v-427zm230 0h165v371.3a55.7 55.7 0 01-55.7 55.7H691v-427z" fill="#fff" stroke="#281e53" stroke-miterlimit="10" stroke-width="3"/><path d="M53.44 20a5.26 5.26 0 01-1.53-3.93v-.78A.33.33 0 0152 15a.36.36 0 01.26-.11H55a.38.38 0 01.36.36v.6a2.9 2.9 0 00.58 1.89 1.87 1.87 0 001.52.72 2 2 0 001.54-.65 2.6 2.6 0 00.6-1.79 2.65 2.65 0 00-.33-1.35 4.19 4.19 0 00-.93-1.08q-.6-.51-1.92-1.47A26.93 26.93 0 0154 10.2a7.23 7.23 0 01-1.53-2 5.9 5.9 0 01-.61-2.75 5.29 5.29 0 011.5-4 6 6 0 018 .08 5.55 5.55 0 011.53 4.09v.72a.36.36 0 01-.11.26.33.33 0 01-.25.1H59.8a.34.34 0 01-.36-.36v-.76a2.83 2.83 0 00-.59-1.87A1.9 1.9 0 0057.31 3a1.88 1.88 0 00-1.47.65 2.59 2.59 0 00-.57 1.78 2.79 2.79 0 00.61 1.83 14.49 14.49 0 002.42 2.07 34.78 34.78 0 012.76 2.21 6.48 6.48 0 011.44 1.87 5.38 5.38 0 01.5 2.43 5.58 5.58 0 01-1.53 4.1 5.4 5.4 0 01-4 1.54A5.5 5.5 0 0153.44 20zM76.28.35a.34.34 0 01.11.25v2.28a.36.36 0 01-.11.26.33.33 0 01-.25.1h-3.81a.13.13 0 00-.15.15v17.49a.36.36 0 01-.11.26.33.33 0 01-.25.1H69a.34.34 0 01-.36-.36V3.39a.13.13 0 00-.15-.15h-3.6a.34.34 0 01-.36-.36V.6a.33.33 0 01.1-.25.36.36 0 01.26-.11H76a.34.34 0 01.28.11zm9.23 20.56l-.57-3.15q0-.15-.18-.15h-4.38q-.18 0-.18.15l-.57 3.15a.34.34 0 01-.39.33h-2.73q-.42 0-.33-.39L80.62.57A.36.36 0 0181 .24h3.18a.36.36 0 01.39.33L89 20.85V21q0 .27-.33.27H85.9a.34.34 0 01-.39-.36zm-4.62-6h3.33q.18 0 .15-.15l-1.74-9.51q0-.09-.09-.09s-.07 0-.09.09l-1.71 9.48q-.03.15.15.15zM99 20.94l-2.55-8.61q-.06-.12-.15-.12h-1.61a.13.13 0 00-.15.15v8.52a.36.36 0 01-.11.26.33.33 0 01-.25.1h-2.76a.34.34 0 01-.36-.36V.6a.33.33 0 01.1-.25.36.36 0 01.26-.11h5.64a5.14 5.14 0 012.8.77 5.12 5.12 0 011.89 2.16 7.23 7.23 0 01.68 3.19 6.73 6.73 0 01-.72 3.21 4.83 4.83 0 01-2 2q-.12 0-.09.18l2.94 9a.33.33 0 010 .15q0 .27-.33.27h-2.86a.38.38 0 01-.37-.23zM94.54 3.39v6a.13.13 0 00.15.15h1.83a2.14 2.14 0 001.75-.84A3.54 3.54 0 0099 6.39a3.59 3.59 0 00-.68-2.29 2.13 2.13 0 00-1.75-.86h-1.88a.13.13 0 00-.15.15zM115.91.35a.34.34 0 01.09.25v2.28a.36.36 0 01-.11.26.33.33 0 01-.25.1h-3.81a.13.13 0 00-.15.15v17.49a.36.36 0 01-.11.26.33.33 0 01-.25.1h-2.76a.34.34 0 01-.36-.36V3.39a.13.13 0 00-.15-.15h-3.6a.34.34 0 01-.36-.36V.6a.33.33 0 01.1-.25.36.36 0 01.26-.11h11.19a.34.34 0 01.27.11zM274 12.74a.34.34 0 01.11.25v2.43a.36.36 0 01-.11.26.33.33 0 01-.25.1h-.9a.13.13 0 00-.15.15v4.95a.36.36 0 01-.11.26.33.33 0 01-.25.1h-2.76a.34.34 0 01-.36-.36v-4.95a.13.13 0 00-.15-.15h-7.38a.34.34 0 01-.36-.36v-1.95a1.44 1.44 0 01.06-.45l4.2-12.48a.38.38 0 01.39-.3h3a.34.34 0 01.27.11.32.32 0 010 .31l-3.84 11.79q0 .18.12.18h3.54a.13.13 0 00.15-.15v-3.6a.37.37 0 01.1-.26.4.4 0 01.26-.1h2.76a.37.37 0 01.25.1.38.38 0 01.11.26v3.6a.13.13 0 00.15.15h.9a.34.34 0 01.25.11zM292.11.24h2.76a.34.34 0 01.25.11.34.34 0 01.11.25v20.28a.36.36 0 01-.11.26.33.33 0 01-.25.1h-2.76a.34.34 0 01-.36-.36V6.72q0-.12-.06-.12s-.08 0-.12.09L289 11.43q-.15.24-.27.24t-.27-.24l-2.61-4.74q-.06-.09-.12-.09s-.06 0-.06.12v14.16a.36.36 0 01-.11.26.33.33 0 01-.25.1h-2.76a.34.34 0 01-.36-.36V.6a.33.33 0 01.1-.25.36.36 0 01.26-.11h2.76a.5.5 0 01.45.24l2.91 5.13q.09.12.18 0l2.81-5.13a.5.5 0 01.45-.24zm7.48 19.68a5.56 5.56 0 01-1.59-4.14V5.7a5.56 5.56 0 011.57-4.14 6.34 6.34 0 018.33 0 5.54 5.54 0 011.59 4.14v10.08a5.54 5.54 0 01-1.59 4.14 6.34 6.34 0 01-8.33 0zm5.81-2.14a2.68 2.68 0 00.63-1.85V5.55a2.65 2.65 0 00-.63-1.84 2.11 2.11 0 00-1.65-.71 2.08 2.08 0 00-1.64.71 2.69 2.69 0 00-.61 1.84v10.38a2.72 2.72 0 00.61 1.85 2.07 2.07 0 001.64.7 2.1 2.1 0 001.65-.7zM321 .35a.36.36 0 01.26-.11H324a.34.34 0 01.25.11.34.34 0 01.11.25v20.28a.36.36 0 01-.11.26.33.33 0 01-.25.1h-3.15a.38.38 0 01-.39-.3L316 8.22a.09.09 0 00-.11-.07c-.05 0-.07 0-.07.1v12.63a.36.36 0 01-.11.26.33.33 0 01-.25.1h-2.73a.34.34 0 01-.36-.36V.6a.33.33 0 01.1-.25.36.36 0 01.26-.11h3.09a.38.38 0 01.39.3l4.5 12.63c0 .06 0 .09.1.08a.1.1 0 00.08-.11V.6a.33.33 0 01.11-.25zm17.62 0a.34.34 0 01.11.25v2.28a.36.36 0 01-.11.26.33.33 0 01-.25.1h-3.81a.13.13 0 00-.15.15v17.49a.36.36 0 01-.11.26.33.33 0 01-.25.1h-2.76a.34.34 0 01-.36-.36V3.39a.13.13 0 00-.15-.15h-3.6a.34.34 0 01-.36-.36V.6a.33.33 0 01.1-.25.36.36 0 01.26-.11h11.19a.34.34 0 01.25.11zm10.23 0a.36.36 0 01.26-.11h2.76a.34.34 0 01.25.11.34.34 0 01.11.25v20.28a.36.36 0 01-.11.26.33.33 0 01-.25.1h-2.76a.34.34 0 01-.36-.36v-8.49a.13.13 0 00-.15-.15h-3.81a.13.13 0 00-.15.15v8.49a.36.36 0 01-.11.26.33.33 0 01-.25.1h-2.76a.34.34 0 01-.36-.36V.6a.33.33 0 01.1-.25.36.36 0 01.26-.11h2.76a.34.34 0 01.25.11.34.34 0 01.11.25v8.46a.13.13 0 00.15.15h3.81a.13.13 0 00.15-.15V.6a.33.33 0 01.1-.25zM356.4 20a5.26 5.26 0 01-1.53-3.93v-.78A.33.33 0 01355 15a.36.36 0 01.26-.11H358a.38.38 0 01.36.36v.6a2.9 2.9 0 00.58 1.89 1.87 1.87 0 001.52.72 2 2 0 001.53-.67 2.6 2.6 0 00.6-1.79 2.65 2.65 0 00-.33-1.35 4.19 4.19 0 00-.93-1.08q-.6-.51-1.92-1.47a26.93 26.93 0 01-2.41-1.9 7.23 7.23 0 01-1.53-2 5.9 5.9 0 01-.61-2.75 5.29 5.29 0 011.5-4 6 6 0 018 .08 5.55 5.55 0 011.53 4.09v.72a.36.36 0 01-.11.26.33.33 0 01-.25.1h-2.7a.34.34 0 01-.36-.36v-.76a2.83 2.83 0 00-.59-1.87 1.9 1.9 0 00-1.61-.71 1.88 1.88 0 00-1.47.65 2.59 2.59 0 00-.57 1.78 2.79 2.79 0 00.61 1.83 14.49 14.49 0 002.42 2.07 34.78 34.78 0 012.74 2.21 6.48 6.48 0 011.44 1.87 5.38 5.38 0 01.51 2.43 5.58 5.58 0 01-1.53 4.1 5.4 5.4 0 01-4 1.54A5.5 5.5 0 01356.4 20zm131.1-3.8a5.1 5.1 0 01-1.5 3.86 5.42 5.42 0 01-3.91 1.42 5 5 0 01-3.71-1.48 5.18 5.18 0 01-1.38-3.8v-.75a.33.33 0 01.1-.25.36.36 0 01.25-.11h2.76a.36.36 0 01.26.11.33.33 0 01.1.25V16a2.81 2.81 0 00.5 1.7 1.43 1.43 0 001.19.67 1.67 1.67 0 001.36-.66A2.66 2.66 0 00484 16v-3a.14.14 0 00-.05-.12.11.11 0 00-.13 0 3.12 3.12 0 01-2.16.78 4.5 4.5 0 01-3.36-1.32 5.61 5.61 0 01-1.5-3.51 14 14 0 01-.15-2.1q0-1 .09-1.95a4.78 4.78 0 011.55-3.52A5.55 5.55 0 01482.07 0a5.36 5.36 0 013.57 1.16 5.11 5.11 0 011.68 3.4 11.49 11.49 0 01.15 1.89zM484 7q0-.9-.09-2c-.22-1.32-.82-2-1.79-2a1.54 1.54 0 00-1.23.54 2.84 2.84 0 00-.65 1.46c0 .48-.05 1.12-.05 1.92a14.66 14.66 0 00.14 2.13 2.31 2.31 0 00.62 1.29 1.73 1.73 0 002.34 0 2.38 2.38 0 00.59-1.34 17.91 17.91 0 00.12-2zm5.59 6.61a.36.36 0 01-.11-.26v-2.28a.38.38 0 01.36-.36h7.41a.36.36 0 01.26.11.33.33 0 01.1.25v2.28a.34.34 0 01-.36.36h-7.41a.33.33 0 01-.25-.1zM502.08.24H505a.36.36 0 01.26.11.33.33 0 01.1.25v20.28a.34.34 0 01-.36.36h-2.8a.33.33 0 01-.25-.1.36.36 0 01-.11-.26V4a.19.19 0 000-.12.08.08 0 00-.11 0l-2.46.48h-.09a.29.29 0 01-.33-.33l-.09-2a.43.43 0 01.24-.42l2.67-1.2a1.13 1.13 0 01.41-.17zm9.72 17.94a.12.12 0 00.12.06h6.57a.36.36 0 01.26.11.33.33 0 01.1.25v2.28a.34.34 0 01-.36.36H508a.33.33 0 01-.25-.1.36.36 0 01-.11-.26v-2.4a.68.68 0 01.15-.45l1.21-1.59c.78-1 1.55-2.1 2.3-3.18s1.38-2 1.9-2.91a9.9 9.9 0 001.74-4.77 3.05 3.05 0 00-.52-1.89A1.68 1.68 0 00513 3a1.64 1.64 0 00-1.38.68 2.73 2.73 0 00-.48 1.78v1.17a.34.34 0 01-.36.36H508a.33.33 0 01-.25-.1.36.36 0 01-.11-.26V5.34a5.56 5.56 0 011.64-3.87A5.37 5.37 0 01513.15 0 5 5 0 01517 1.55a5.67 5.67 0 011.45 4.06 9 9 0 01-.51 3 14.33 14.33 0 01-1.62 3.15c-.5.8-1.09 1.68-1.78 2.64l-1.37 1.89q-.9 1.2-1.32 1.8a.1.1 0 00-.05.09zM537 .24h2.76a.36.36 0 01.26.11.33.33 0 01.1.25v20.28a.34.34 0 01-.36.36H537a.33.33 0 01-.25-.1.36.36 0 01-.11-.26V6.72q0-.12-.06-.12s-.08 0-.12.09l-2.61 4.74q-.15.24-.27.24t-.27-.24l-2.61-4.74q-.06-.09-.12-.09s-.06 0-.06.12v14.16a.34.34 0 01-.36.36h-2.76a.33.33 0 01-.25-.1.36.36 0 01-.11-.26V.6a.34.34 0 01.11-.25.34.34 0 01.25-.11h2.76a.5.5 0 01.45.24l2.91 5.13q.09.12.18 0l2.82-5.13a.5.5 0 01.48-.24zm7.46 19.68a5.57 5.57 0 01-1.58-4.14V5.7a5.57 5.57 0 011.58-4.14A5.64 5.64 0 01548.61 0a5.7 5.7 0 014.17 1.56 5.54 5.54 0 011.59 4.14v10.08a5.54 5.54 0 01-1.59 4.14 5.7 5.7 0 01-4.17 1.56 5.64 5.64 0 01-4.15-1.56zm5.8-2.14a2.68 2.68 0 00.63-1.85V5.55a2.65 2.65 0 00-.63-1.84 2.11 2.11 0 00-1.65-.71 2.06 2.06 0 00-1.63.71 2.69 2.69 0 00-.62 1.84v10.38a2.72 2.72 0 00.62 1.85 2 2 0 001.63.7 2.1 2.1 0 001.65-.7zM565.88.35a.34.34 0 01.25-.11h2.73a.36.36 0 01.26.11.33.33 0 01.1.25v20.28a.34.34 0 01-.36.36h-3.15a.38.38 0 01-.39-.3l-4.47-12.72c0-.06-.05-.08-.1-.07a.09.09 0 00-.08.1v12.63a.34.34 0 01-.36.36h-2.73a.33.33 0 01-.25-.1.36.36 0 01-.11-.26V.6a.34.34 0 01.11-.25.34.34 0 01.25-.11h3.09a.38.38 0 01.39.3l4.5 12.63c0 .06.06.09.11.08s.07-.05.07-.11V.6a.34.34 0 01.14-.25zm17.61 0a.33.33 0 01.1.25v2.28a.34.34 0 01-.36.36h-3.81a.13.13 0 00-.15.15v17.49a.34.34 0 01-.36.36h-2.76a.33.33 0 01-.25-.1.36.36 0 01-.11-.26V3.39a.13.13 0 00-.15-.15H572a.33.33 0 01-.25-.1.36.36 0 01-.11-.26V.6a.34.34 0 01.11-.25.34.34 0 01.25-.11h11.19a.36.36 0 01.3.11zm10.23 0a.34.34 0 01.28-.11h2.76a.36.36 0 01.26.11.33.33 0 01.1.25v20.28a.34.34 0 01-.36.36H594a.33.33 0 01-.25-.1.36.36 0 01-.11-.26v-8.49a.13.13 0 00-.15-.15h-3.81a.13.13 0 00-.15.15v8.49a.34.34 0 01-.36.36h-2.76a.33.33 0 01-.25-.1.36.36 0 01-.11-.26V.6a.34.34 0 01.11-.25.34.34 0 01.25-.11h2.76a.36.36 0 01.26.11.33.33 0 01.1.25v8.46a.13.13 0 00.15.15h3.81a.13.13 0 00.15-.15V.6a.34.34 0 01.08-.25zM601.26 20a5.26 5.26 0 01-1.53-3.93v-.78a.38.38 0 01.36-.36h2.73a.36.36 0 01.26.11.33.33 0 01.1.25v.6a2.91 2.91 0 00.59 1.89 1.85 1.85 0 001.51.72 2 2 0 001.53-.67 2.6 2.6 0 00.6-1.79 2.65 2.65 0 00-.33-1.35 4.19 4.19 0 00-.93-1.08q-.6-.51-1.92-1.47a26.61 26.61 0 01-2.41-1.92 7.23 7.23 0 01-1.53-2 5.9 5.9 0 01-.62-2.75 5.29 5.29 0 011.5-4 6 6 0 018 .08 5.55 5.55 0 011.53 4.09v.72a.34.34 0 01-.36.36h-2.7a.33.33 0 01-.25-.1.36.36 0 01-.11-.26v-.78a2.83 2.83 0 00-.58-1.87 1.92 1.92 0 00-1.57-.71 1.88 1.88 0 00-1.47.65 2.59 2.59 0 00-.57 1.78 2.8 2.8 0 00.62 1.83 14.31 14.31 0 002.41 2.07 34.78 34.78 0 012.76 2.21 6.48 6.48 0 011.44 1.87 5.38 5.38 0 01.51 2.43 5.58 5.58 0 01-1.53 4.1 5.4 5.4 0 01-4 1.54 5.5 5.5 0 01-4.04-1.48zM725.38.24h2.88a.34.34 0 01.25.11.34.34 0 01.11.25v20.28a.36.36 0 01-.11.26.33.33 0 01-.25.1h-2.76a.34.34 0 01-.36-.36V4a.21.21 0 000-.12.07.07 0 00-.1 0l-2.46.48h-.09a.29.29 0 01-.33-.33L722 2a.43.43 0 01.24-.42l2.67-1.2a1.13 1.13 0 01.47-.14zm5.47 13.37a.35.35 0 01-.1-.26v-2.28a.33.33 0 01.1-.25.36.36 0 01.26-.11h7.41a.38.38 0 01.36.36v2.28a.36.36 0 01-.11.26.33.33 0 01-.25.1h-7.41a.35.35 0 01-.26-.1zm13.91 4.57a.12.12 0 00.12.06h6.57a.38.38 0 01.36.36v2.28a.36.36 0 01-.11.26.33.33 0 01-.25.1H741a.34.34 0 01-.36-.36v-2.4a.68.68 0 01.15-.45l1.17-1.59c.78-1 1.54-2.1 2.29-3.18s1.39-2 1.91-2.91a9.9 9.9 0 001.74-4.77 3.05 3.05 0 00-.53-1.89 1.74 1.74 0 00-2.77 0 2.73 2.73 0 00-.48 1.78v1.16a.36.36 0 01-.11.26.33.33 0 01-.25.1h-2.82a.34.34 0 01-.36-.36V5.34a5.55 5.55 0 011.63-3.87 5.4 5.4 0 013.9-1.47 5 5 0 013.82 1.55 5.68 5.68 0 011.46 4.06 9 9 0 01-.51 3 14.33 14.33 0 01-1.62 3.15c-.5.8-1.1 1.68-1.79 2.64l-1.36 1.89q-.9 1.2-1.32 1.8a.1.1 0 00-.03.09zm18.88 2.93a.35.35 0 01-.1-.26v-8.37L759.34.66a.33.33 0 010-.15q0-.27.33-.27h2.88a.4.4 0 01.42.3l2.25 7.71q0 .09.09.09s.07 0 .09-.09l2.22-7.71a.4.4 0 01.42-.3h2.88a.34.34 0 01.27.11.32.32 0 010 .31l-4.17 11.82v8.37a.36.36 0 01-.11.26.33.33 0 01-.25.1h-2.76a.35.35 0 01-.26-.1zm20.07-17.97a.33.33 0 01-.25.1H777a.13.13 0 00-.15.15v5.67a.13.13 0 00.15.15h3.84a.38.38 0 01.36.36v2.31a.36.36 0 01-.11.26.33.33 0 01-.25.1H777a.13.13 0 00-.15.15v5.7a.13.13 0 00.15.15h6.48a.38.38 0 01.36.36v2.28a.36.36 0 01-.11.26.33.33 0 01-.25.1h-9.75a.34.34 0 01-.36-.36V.6a.33.33 0 01.1-.25.36.36 0 01.26-.11h9.75a.34.34 0 01.25.11.34.34 0 01.11.25v2.28a.36.36 0 01-.13.26zm11.39 17.77l-.57-3.15q0-.15-.18-.15H790q-.18 0-.18.15l-.57 3.15a.34.34 0 01-.39.33h-2.76q-.42 0-.33-.39L790.21.57a.36.36 0 01.39-.33h3.18a.36.36 0 01.39.33l4.44 20.28V21q0 .27-.33.27h-2.79a.34.34 0 01-.39-.36zm-4.62-6h3.33q.18 0 .15-.15l-1.74-9.48q0-.09-.09-.09s-.07 0-.09.09l-1.71 9.48q-.03.12.15.12zm18.09 6.03L806 12.33q-.06-.12-.15-.12h-1.59a.13.13 0 00-.15.15v8.52a.36.36 0 01-.11.26.33.33 0 01-.25.1H801a.34.34 0 01-.36-.36V.6a.33.33 0 01.1-.25.36.36 0 01.26-.11h5.64a5.14 5.14 0 012.8.77 5.12 5.12 0 011.89 2.16 7.23 7.23 0 01.67 3.19 6.73 6.73 0 01-.72 3.21 4.83 4.83 0 01-2 2q-.12 0-.09.18l2.94 9a.33.33 0 010 .15q0 .27-.33.27H809a.38.38 0 01-.43-.23zm-4.44-17.55v6a.13.13 0 00.15.15h1.83a2.14 2.14 0 001.75-.84 3.54 3.54 0 00.68-2.28 3.59 3.59 0 00-.68-2.29 2.13 2.13 0 00-1.75-.86h-1.83a.13.13 0 00-.15.12zM815.53 20a5.26 5.26 0 01-1.53-3.95v-.78a.33.33 0 01.1-.25.36.36 0 01.26-.11h2.73a.38.38 0 01.36.36v.6a2.9 2.9 0 00.58 1.89 1.87 1.87 0 001.52.72 2 2 0 001.53-.67 2.6 2.6 0 00.6-1.79 2.65 2.65 0 00-.33-1.35 4.19 4.19 0 00-.93-1.08q-.6-.51-1.92-1.47a26.93 26.93 0 01-2.42-1.92 7.23 7.23 0 01-1.53-2 5.9 5.9 0 01-.61-2.75 5.29 5.29 0 011.5-4 6 6 0 018 .08A5.55 5.55 0 01825 5.64v.72a.36.36 0 01-.11.26.33.33 0 01-.25.1h-2.7a.34.34 0 01-.36-.36v-.78a2.83 2.83 0 00-.59-1.87A1.9 1.9 0 00819.4 3a1.88 1.88 0 00-1.47.65 2.59 2.59 0 00-.57 1.78 2.79 2.79 0 00.64 1.83 14.49 14.49 0 002.42 2.07 34.78 34.78 0 012.76 2.21 6.48 6.48 0 011.44 1.87 5.38 5.38 0 01.51 2.43 5.58 5.58 0 01-1.53 4.1 5.4 5.4 0 01-4 1.54 5.5 5.5 0 01-4.07-1.48zM59.57 66.23a3.74 3.74 0 01-2.65 1h-3.35a.26.26 0 01-.16-.07.24.24 0 01-.07-.16V54.1a.26.26 0 01.07-.16.25.25 0 01.16-.06h3a4.12 4.12 0 012.84.91 3.38 3.38 0 011 2.66A3 3 0 0159 60.24q-.09.06 0 .12a3.31 3.31 0 011.16 1.27 4.13 4.13 0 01.41 1.9 3.56 3.56 0 01-1 2.7zm-4-10.36v3.54a.08.08 0 00.09.09h1a1.6 1.6 0 001.17-.5 1.94 1.94 0 00.44-1.35 2.07 2.07 0 00-.44-1.41 1.54 1.54 0 00-1.22-.49h-1a.08.08 0 00-.06.12zm2.39 8.86a2.34 2.34 0 00.44-1.51 2.45 2.45 0 00-.44-1.54 1.41 1.41 0 00-1.19-.56h-1.13a.08.08 0 00-.09.09v3.95c0 .07 0 .1.09.1h1.11a1.47 1.47 0 001.19-.53zM66.89 67l-.36-2c0-.06 0-.09-.11-.09h-2.78c-.07 0-.11 0-.11.09l-.36 2a.22.22 0 01-.25.21h-1.73c-.18 0-.25-.09-.21-.25l2.81-12.84a.23.23 0 01.25-.21h2a.23.23 0 01.25.21l2.81 12.84V67c0 .11-.07.17-.2.17h-1.76c-.14.01-.24-.06-.25-.17zM64 63.15h2.11c.08 0 .11 0 .1-.1l-1.1-6L65 57l-.06.06-1.08 6c0 .06.03.09.14.09zm6.56 3.23a3.31 3.31 0 01-1-2.49v-.49a.22.22 0 01.07-.17.21.21 0 01.16-.06h1.73a.25.25 0 01.16.06.25.25 0 01.06.17v.38a1.86 1.86 0 00.4 1.22 1.17 1.17 0 001 .46 1.21 1.21 0 001-.43 1.6 1.6 0 00.38-1.13 1.65 1.65 0 00-.21-.85 2.6 2.6 0 00-.58-.69c-.26-.21-.66-.52-1.22-.93a17.72 17.72 0 01-1.53-1.22 4.46 4.46 0 01-1-1.28 3.72 3.72 0 01-.39-1.74 3.35 3.35 0 011-2.5 3.8 3.8 0 015 0 3.53 3.53 0 011 2.6v.45a.22.22 0 01-.22.23h-1.78a.22.22 0 01-.17-.07.21.21 0 01-.06-.16v-.49a1.84 1.84 0 00-.36-1.18 1.22 1.22 0 00-1-.45 1.19 1.19 0 00-.93.41 1.67 1.67 0 00-.36 1.13 1.75 1.75 0 00.39 1.16 8.67 8.67 0 001.53 1.31A21.84 21.84 0 0175.38 61a4.1 4.1 0 01.92 1.19 3.47 3.47 0 01.32 1.54 3.51 3.51 0 01-1 2.59 3.44 3.44 0 01-2.55 1 3.49 3.49 0 01-2.51-.94zM84.7 55.71a.22.22 0 01-.16.07h-4.1c-.06 0-.1 0-.1.09v3.59a.09.09 0 00.1.1h2.43a.23.23 0 01.16.06.22.22 0 01.07.17v1.46a.2.2 0 01-.07.16.24.24 0 01-.16.07h-2.43c-.06 0-.1 0-.1.09v3.61a.09.09 0 00.1.1h4.1a.22.22 0 01.23.22V67a.2.2 0 01-.07.16.22.22 0 01-.16.07h-6.17a.22.22 0 01-.16-.07.2.2 0 01-.07-.16V54.1a.22.22 0 01.23-.22h6.17a.22.22 0 01.23.22v1.45a.2.2 0 01-.07.16zm1.77 11.4a.24.24 0 01-.07-.11V54.1a.26.26 0 01.07-.16.25.25 0 01.16-.06h1.75a.23.23 0 01.16.06.21.21 0 01.07.16v11.08c0 .07 0 .1.09.1h4.11a.25.25 0 01.16.06.26.26 0 01.07.16V67a.24.24 0 01-.07.16.26.26 0 01-.16.07h-6.18a.26.26 0 01-.16-.12zm7.89 0a.2.2 0 01-.07-.16V54.1a.22.22 0 01.23-.22h1.75a.21.21 0 01.22.22V67a.23.23 0 01-.06.16.26.26 0 01-.16.07h-1.75a.22.22 0 01-.16-.12zM104 53.94a.23.23 0 01.16-.06h1.73a.23.23 0 01.16.06.26.26 0 01.07.16V67a.24.24 0 01-.23.23h-2a.24.24 0 01-.24-.19l-2.83-8.06h-.07a.07.07 0 00-.05.07v8a.2.2 0 01-.07.16.22.22 0 01-.16.07h-1.7a.26.26 0 01-.16-.07.24.24 0 01-.07-.16V54.1a.26.26 0 01.07-.16.25.25 0 01.16-.06h2a.24.24 0 01.25.19l2.85 8h.06a.06.06 0 000-.06V54.1a.21.21 0 01.07-.16zm10.74 1.77a.24.24 0 01-.16.07h-4.1c-.07 0-.1 0-.1.09v3.59c0 .07 0 .1.1.1h2.43a.23.23 0 01.16.06.22.22 0 01.07.17v1.46a.2.2 0 01-.07.16.24.24 0 01-.16.07h-2.43c-.07 0-.1 0-.1.09v3.61c0 .07 0 .1.1.1h4.1a.23.23 0 01.16.06.21.21 0 01.07.16V67a.2.2 0 01-.07.16.24.24 0 01-.16.07h-6.17a.26.26 0 01-.17-.07.23.23 0 01-.06-.16V54.1a.25.25 0 01.06-.16.25.25 0 01.17-.06h6.17a.23.23 0 01.16.06.21.21 0 01.07.16v1.45a.2.2 0 01-.07.16zm168.26 0a.24.24 0 01-.16.07h-4.08c-.07 0-.1 0-.1.09v3.59c0 .07 0 .1.1.1h2.41a.25.25 0 01.16.06.26.26 0 01.07.17v1.46a.24.24 0 01-.07.16.26.26 0 01-.16.07h-2.41c-.07 0-.1 0-.1.09V67a.2.2 0 01-.07.16.22.22 0 01-.16.07h-1.75a.26.26 0 01-.16-.07.23.23 0 01-.06-.16V54.1a.21.21 0 01.22-.22h6.16a.23.23 0 01.16.06.21.21 0 01.07.16v1.45a.2.2 0 01-.07.16zm2.12 10.63a3.54 3.54 0 01-1-2.62v-6.39a3.42 3.42 0 013.63-3.61 3.6 3.6 0 012.64 1 3.53 3.53 0 011 2.62v6.39a3.51 3.51 0 01-1 2.62 4 4 0 01-5.27 0zM288.8 65a1.71 1.71 0 00.4-1.17v-6.59a1.73 1.73 0 00-.4-1.17 1.35 1.35 0 00-1.05-.45 1.29 1.29 0 00-1 .45 1.72 1.72 0 00-.39 1.17v6.57a1.7 1.7 0 00.39 1.17 1.29 1.29 0 001 .45 1.35 1.35 0 001.05-.43zm4.49 2.11a.24.24 0 01-.07-.16V54.1a.26.26 0 01.07-.16.23.23 0 01.16-.06h1.75a.23.23 0 01.16.06.21.21 0 01.07.16v11.08c0 .07 0 .1.09.1h4.11a.25.25 0 01.16.06.26.26 0 01.07.16V67a.24.24 0 01-.07.16.26.26 0 01-.16.07h-6.18a.24.24 0 01-.16-.12zm7.89 0a.2.2 0 01-.07-.16V54.1a.22.22 0 01.23-.22h1.74a.25.25 0 01.17.06.25.25 0 01.06.16v11.08c0 .07 0 .1.1.1h4.1a.22.22 0 01.23.22V67a.2.2 0 01-.07.16.22.22 0 01-.16.07h-6.17a.22.22 0 01-.16-.12zm8.53-.77a3.5 3.5 0 01-1-2.62v-6.39a3.52 3.52 0 011-2.62 3.56 3.56 0 012.63-1 3.6 3.6 0 012.64 1 3.53 3.53 0 011 2.62v6.39a3.51 3.51 0 01-1 2.62 3.6 3.6 0 01-2.64 1 3.56 3.56 0 01-2.63-1zm3.67-1.34a1.66 1.66 0 00.4-1.17v-6.59a1.68 1.68 0 00-.4-1.17 1.43 1.43 0 00-2.08 0 1.72 1.72 0 00-.39 1.17v6.57a1.7 1.7 0 00.39 1.19 1.43 1.43 0 002.08 0zm6.35 2l-2.53-12.88v-.07c0-.12.07-.17.21-.17h1.83a.21.21 0 01.24.21l1.31 7.91s0 .06.06.06 0 0 .06-.06l1.19-7.92a.22.22 0 01.25-.21h1.52c.15 0 .24.07.25.21l1.29 7.92s0 .06.06.06 0 0 0-.06l1.2-7.92c0-.14.1-.21.25-.21h1.76q.25 0 .21.24L326.53 67c0 .14-.09.21-.25.21h-1.61c-.15 0-.24-.07-.25-.21l-1.27-8.08s0-.07-.06-.07 0 0 0 .07L321.86 67a.22.22 0 01-.25.21H320c-.18-.03-.26-.1-.27-.21zm9.38-4.66a.2.2 0 01-.07-.16v-1.44a.22.22 0 01.07-.17.21.21 0 01.16-.06H334a.23.23 0 01.16.06.22.22 0 01.07.17v1.44a.24.24 0 01-.23.23h-4.69a.19.19 0 01-.2-.07zm7.52 3.93a3.93 3.93 0 01-1-2.78V54.1a.22.22 0 01.23-.22h1.75a.21.21 0 01.22.22v9.62a1.9 1.9 0 00.38 1.23 1.23 1.23 0 001 .48 1.22 1.22 0 001-.48 1.9 1.9 0 00.38-1.23V54.1a.22.22 0 01.23-.22h1.74a.25.25 0 01.17.06.25.25 0 01.06.16v9.39a3.89 3.89 0 01-1 2.78 3.73 3.73 0 01-5.21 0zm13.57-11.92a3.25 3.25 0 011.19 1.39 4.55 4.55 0 01.43 2 4.09 4.09 0 01-.9 2.76 3 3 0 01-2.39 1h-1.61c-.07 0-.1 0-.1.1V67a.23.23 0 01-.06.16.26.26 0 01-.17.07h-1.74a.22.22 0 01-.16-.07.2.2 0 01-.07-.16V54.09a.22.22 0 01.07-.17.21.21 0 01.16-.06h3.57a3.24 3.24 0 011.78.49zm-1 4.95a2.34 2.34 0 00.43-1.47 2.46 2.46 0 00-.43-1.51 1.34 1.34 0 00-1.13-.56h-1.14c-.07 0-.1 0-.1.09v3.9c0 .06 0 .09.1.09h1.14a1.37 1.37 0 001.12-.54zm159.46-3.59a.24.24 0 01-.16.07h-4.1c-.07 0-.1 0-.1.09v3.59c0 .07 0 .1.1.1h2.43a.23.23 0 01.16.06.26.26 0 01.07.17v1.46a.24.24 0 01-.23.23h-2.43c-.07 0-.1 0-.1.09v3.61c0 .07 0 .1.1.1h4.1a.23.23 0 01.16.06.21.21 0 01.07.16V67a.2.2 0 01-.07.16.24.24 0 01-.16.07h-6.18a.26.26 0 01-.16-.07.23.23 0 01-.06-.16V54.1a.21.21 0 01.22-.22h6.18a.23.23 0 01.16.06.21.21 0 01.07.16v1.45a.2.2 0 01-.07.16zm1.26 11.39a.3.3 0 010-.19l2.61-6.33a.2.2 0 000-.11l-2.61-6.33a.31.31 0 010-.11c0-.1.06-.15.19-.15h1.8a.24.24 0 01.25.19l1.52 4.12s0 .06.05.06 0 0 .06-.06l1.5-4.12a.24.24 0 01.25-.19h1.79a.18.18 0 01.17.07.31.31 0 010 .19l-2.61 6.33a.2.2 0 000 .11l2.61 6.33a.31.31 0 010 .11c0 .11-.07.16-.19.16h-1.77a.26.26 0 01-.27-.19l-1.5-4.11s0-.05-.06-.05 0 0-.05.05L512.15 67a.26.26 0 01-.27.19h-1.78a.19.19 0 01-.18-.09zm9.25.01a.2.2 0 01-.07-.16V54.1a.21.21 0 01.07-.16.23.23 0 01.16-.06h1.75a.23.23 0 01.16.06.26.26 0 01.07.16V67a.24.24 0 01-.23.23h-1.75a.24.24 0 01-.16-.12zm11.17-13.17a.26.26 0 01.07.16v1.45a.24.24 0 01-.07.16.26.26 0 01-.16.07h-2.41c-.07 0-.1 0-.1.09V67a.2.2 0 01-.07.16.22.22 0 01-.16.07h-1.75a.26.26 0 01-.16-.07.23.23 0 01-.06-.16V55.87c0-.06 0-.09-.1-.09h-2.28a.24.24 0 01-.23-.23V54.1a.26.26 0 01.07-.16.23.23 0 01.16-.06h7.09a.25.25 0 01.16.06zm5.99 12.44a3.34 3.34 0 01-1-2.49v-.49a.25.25 0 01.06-.17.25.25 0 01.16-.06h1.73a.23.23 0 01.16.06.22.22 0 01.07.17v.38a1.8 1.8 0 00.37 1.19 1.17 1.17 0 001 .46 1.23 1.23 0 001-.43 1.85 1.85 0 00.17-2 2.86 2.86 0 00-.59-.69c-.25-.21-.66-.52-1.22-.93a16 16 0 01-1.52-1.22 4.46 4.46 0 01-1-1.28 3.72 3.72 0 01-.39-1.74 3.31 3.31 0 01.95-2.5 3.8 3.8 0 015.05 0 3.53 3.53 0 011 2.6v.45a.19.19 0 01-.07.16.2.2 0 01-.16.07h-1.71a.21.21 0 01-.16-.07.22.22 0 01-.07-.16v-.49a1.78 1.78 0 00-.37-1.19 1.19 1.19 0 00-1-.45 1.21 1.21 0 00-.94.41 1.67 1.67 0 00-.36 1.13 1.75 1.75 0 00.39 1.16 8.67 8.67 0 001.53 1.31 22.35 22.35 0 011.75 1.4 4.06 4.06 0 01.91 1.19 3.33 3.33 0 01.32 1.54 3.54 3.54 0 01-1 2.59 3.45 3.45 0 01-2.55 1 3.51 3.51 0 01-2.51-.91zm8.56-.11a3.93 3.93 0 01-1-2.78V54.1a.21.21 0 01.22-.22h1.75a.23.23 0 01.16.06.21.21 0 01.07.16v9.62a1.9 1.9 0 00.41 1.28 1.29 1.29 0 002 0 1.85 1.85 0 00.38-1.23V54.1a.26.26 0 01.07-.16.23.23 0 01.16-.06h1.75a.23.23 0 01.16.06.26.26 0 01.07.16v9.39a3.89 3.89 0 01-1 2.78 3.74 3.74 0 01-5.22 0zm13.2.73l-1.62-5.46a.09.09 0 00-.09-.07h-1a.08.08 0 00-.09.09V67a.24.24 0 01-.23.23h-1.76a.24.24 0 01-.16-.07.2.2 0 01-.07-.16V54.1a.21.21 0 01.07-.16.23.23 0 01.16-.06h3.57a3.16 3.16 0 013 1.85 4.65 4.65 0 01.42 2 4.33 4.33 0 01-.45 2 3.06 3.06 0 01-1.28 1.29s-.07.05 0 .11l1.86 5.72a.3.3 0 010 .1c0 .11-.07.17-.21.17h-1.82a.25.25 0 01-.3-.12zm-2.81-11.12v3.78c0 .07 0 .1.09.1h1.16a1.36 1.36 0 001.11-.53 2.66 2.66 0 000-2.9 1.34 1.34 0 00-1.11-.54h-1.16a.08.08 0 00-.09.08zM564 67l-2.72-12.85v-.07c0-.12.07-.17.21-.17h1.92a.21.21 0 01.24.21l1.58 9.13s0 .06.06.06 0 0 .06-.06l1.53-9.13a.22.22 0 01.25-.21H569c.17 0 .23.08.19.24L566.47 67a.23.23 0 01-.25.21h-1.94A.22.22 0 01564 67zm13.33-11.29a.26.26 0 01-.17.07h-4.1c-.06 0-.1 0-.1.09v3.59a.09.09 0 00.1.1h2.43a.21.21 0 01.16.06.22.22 0 01.07.17v1.46a.2.2 0 01-.07.16.22.22 0 01-.16.07h-2.43c-.06 0-.1 0-.1.09v3.61a.09.09 0 00.1.1h4.1a.25.25 0 01.17.06.25.25 0 01.06.16V67a.23.23 0 01-.06.16.26.26 0 01-.17.07H571a.24.24 0 01-.16-.07.2.2 0 01-.07-.16V54.1a.21.21 0 01.07-.16.23.23 0 01.16-.06h6.17a.25.25 0 01.17.06.25.25 0 01.06.16v1.45a.23.23 0 01-.07.16zm3.97 11.38a.2.2 0 01-.07-.16v-5.3l-2.64-7.49a.2.2 0 010-.09c0-.12.07-.17.21-.17h1.82a.25.25 0 01.27.19l1.39 4.93s0 .06.05.06 0 0 .06-.06l1.42-4.88a.25.25 0 01.27-.19h1.82a.24.24 0 01.18.06.22.22 0 010 .2l-2.64 7.49v5.3a.23.23 0 01-.06.16.21.21 0 01-.16.07h-1.75a.19.19 0 01-.17-.12zm136.12-12.74a3.34 3.34 0 011.2 1.39 4.69 4.69 0 01.42 2 4.09 4.09 0 01-.9 2.76 3 3 0 01-2.38 1h-1.62c-.06 0-.09 0-.09.1V67a.24.24 0 01-.23.23h-1.75a.24.24 0 01-.16-.07.2.2 0 01-.07-.16V54.09a.22.22 0 01.07-.17.23.23 0 01.16-.06h3.57a3.22 3.22 0 011.78.49zm-1 4.95a2.28 2.28 0 00.43-1.47 2.4 2.4 0 00-.43-1.51 1.33 1.33 0 00-1.13-.56h-1.14a.08.08 0 00-.09.09v3.9a.08.08 0 00.09.09h1.14a1.36 1.36 0 001.12-.54zm4.89 7.04a3.54 3.54 0 01-1-2.62v-6.39a3.55 3.55 0 011-2.62 3.59 3.59 0 012.63-1 3.64 3.64 0 012.65 1 3.52 3.52 0 011 2.62v6.39a3.5 3.5 0 01-1 2.62 3.64 3.64 0 01-2.65 1 3.59 3.59 0 01-2.63-1zM725 65a1.66 1.66 0 00.4-1.17v-6.59a1.68 1.68 0 00-.4-1.17 1.33 1.33 0 00-1-.45 1.29 1.29 0 00-1 .45 1.72 1.72 0 00-.39 1.17v6.57a1.7 1.7 0 00.39 1.17 1.29 1.29 0 001 .45 1.33 1.33 0 001-.43zm5 1.38a3.31 3.31 0 01-1-2.49v-.49a.25.25 0 01.06-.17.25.25 0 01.16-.06H731a.21.21 0 01.23.23v.38a1.86 1.86 0 00.37 1.19 1.17 1.17 0 001 .46 1.23 1.23 0 001-.43 1.85 1.85 0 00.17-2 2.65 2.65 0 00-.59-.69c-.25-.21-.66-.52-1.21-.93a15.07 15.07 0 01-1.53-1.22 4.46 4.46 0 01-1-1.28 3.72 3.72 0 01-.39-1.74 3.35 3.35 0 011-2.5 3.8 3.8 0 015 0 3.53 3.53 0 011 2.6v.45a.21.21 0 01-.06.16.22.22 0 01-.17.07H734a.22.22 0 01-.22-.23v-.49a1.84 1.84 0 00-.37-1.19 1.22 1.22 0 00-1-.45 1.19 1.19 0 00-.93.41 1.67 1.67 0 00-.36 1.13 1.74 1.74 0 00.38 1.16 8.67 8.67 0 001.53 1.31 20.59 20.59 0 011.75 1.4 4.06 4.06 0 01.91 1.19 3.33 3.33 0 01.33 1.54 3.55 3.55 0 01-1 2.59 3.84 3.84 0 01-5.09 0zm14.47-12.44a.21.21 0 01.07.16v1.45a.2.2 0 01-.07.16.22.22 0 01-.16.07h-2.41c-.06 0-.1 0-.1.09V67a.23.23 0 01-.06.16.26.26 0 01-.16.07h-1.75a.22.22 0 01-.16-.07.2.2 0 01-.07-.16V55.87a.08.08 0 00-.09-.09h-2.28a.26.26 0 01-.17-.07.23.23 0 01-.06-.16V54.1a.25.25 0 01.06-.16.25.25 0 01.17-.06h7.08a.21.21 0 01.16.06zm-.03 8.4a.2.2 0 01-.07-.16v-1.44a.22.22 0 01.07-.17.21.21 0 01.16-.06h4.69a.23.23 0 01.16.06.22.22 0 01.07.17v1.44a.24.24 0 01-.23.23h-4.69a.19.19 0 01-.16-.07zm7.21 4.04a3.31 3.31 0 01-1-2.49v-.49a.21.21 0 01.23-.23h1.72a.21.21 0 01.23.23v.38a1.86 1.86 0 00.37 1.19 1.17 1.17 0 001 .46 1.23 1.23 0 001-.43 1.6 1.6 0 00.38-1.13 1.65 1.65 0 00-.21-.85 2.65 2.65 0 00-.59-.69c-.25-.21-.66-.52-1.21-.93a15.07 15.07 0 01-1.57-1.22 4.46 4.46 0 01-1-1.28 3.72 3.72 0 01-.39-1.74 3.35 3.35 0 011-2.5 3.8 3.8 0 015 0 3.53 3.53 0 011 2.6v.45a.21.21 0 01-.06.16.22.22 0 01-.17.07h-1.71a.22.22 0 01-.22-.23v-.49a1.84 1.84 0 00-.37-1.19 1.22 1.22 0 00-1-.45 1.19 1.19 0 00-.93.41 1.67 1.67 0 00-.36 1.13 1.75 1.75 0 00.39 1.16 8.15 8.15 0 001.52 1.31 20.59 20.59 0 011.75 1.4 3.9 3.9 0 01.91 1.19 3.33 3.33 0 01.33 1.54 3.55 3.55 0 01-1 2.59 3.84 3.84 0 01-5.09 0zm12.8.62l-.36-2c0-.06 0-.09-.11-.09h-2.78c-.07 0-.11 0-.11.09l-.36 2c0 .14-.1.21-.25.21h-1.73c-.18 0-.25-.09-.21-.25l2.82-12.84a.22.22 0 01.24-.21h2a.22.22 0 01.24.21l2.81 12.84V67c0 .11-.06.17-.2.17h-1.75c-.15.01-.24-.06-.25-.17zm-2.92-3.82h2.1c.08 0 .11 0 .1-.1l-1.1-6s0-.06-.06-.06 0 0-.06.06l-1.08 6c-.01.04.02.07.1.07zm12.69-9.3H776a.21.21 0 01.22.22V67a.23.23 0 01-.06.16.26.26 0 01-.16.07h-1.75a.22.22 0 01-.16-.07.2.2 0 01-.09-.16v-9.08a.1.1 0 00-.07.06l-1.66 3c-.06.11-.12.16-.17.16s-.11 0-.17-.16l-1.65-3s-.05-.06-.08-.06 0 0 0 .08v9a.23.23 0 01-.06.16.26.26 0 01-.16.07h-1.75a.22.22 0 01-.16-.07.2.2 0 01-.07-.16V54.1a.22.22 0 01.23-.22h1.75a.31.31 0 01.28.15l1.74 3.25h.12l1.8-3.25a.33.33 0 01.3-.15zM783.34 67l-.34-2q0-.09-.12-.09h-2.77q-.12 0-.12.09l-.36 2a.21.21 0 01-.24.21h-1.73c-.18 0-.25-.09-.21-.25l2.81-12.84a.23.23 0 01.25-.21h2a.23.23 0 01.25.21l2.81 12.84V67c0 .11-.07.17-.21.17h-1.77a.21.21 0 01-.25-.17zm-2.93-3.82h2.11c.08 0 .11 0 .1-.1l-1.11-6v-.06s-.05 0-.06.06l-1.08 6c-.07.04-.03.07.04.07zm6.59 3.2a3.31 3.31 0 01-1-2.49v-.49a.25.25 0 01.06-.17.25.25 0 01.16-.06H788a.21.21 0 01.23.23v.38a1.8 1.8 0 00.37 1.19 1.17 1.17 0 001 .46 1.23 1.23 0 001-.43 1.85 1.85 0 00.17-2 2.65 2.65 0 00-.59-.69c-.25-.21-.66-.52-1.21-.93a15.07 15.07 0 01-1.53-1.22 4.46 4.46 0 01-1-1.28 3.72 3.72 0 01-.39-1.74 3.31 3.31 0 011-2.5 3.8 3.8 0 015 0 3.53 3.53 0 011 2.6v.45a.21.21 0 01-.06.16.22.22 0 01-.17.07H791a.22.22 0 01-.22-.23v-.49a1.79 1.79 0 00-.38-1.19 1.27 1.27 0 00-1.9 0 1.62 1.62 0 00-.37 1.13 1.75 1.75 0 00.39 1.16 8.67 8.67 0 001.53 1.31 20.59 20.59 0 011.75 1.4 4.06 4.06 0 01.91 1.19 3.33 3.33 0 01.33 1.54 3.55 3.55 0 01-1 2.59 3.84 3.84 0 01-5.09 0zm8.43-.04a3.54 3.54 0 01-1-2.62v-6.39a3.42 3.42 0 013.63-3.61 3.6 3.6 0 012.64 1 3.49 3.49 0 011 2.62v6.39a3.47 3.47 0 01-1 2.62 4 4 0 01-5.27 0zm3.68-1.34a1.71 1.71 0 00.4-1.17v-6.59a1.73 1.73 0 00-.4-1.17 1.35 1.35 0 00-1.05-.45 1.29 1.29 0 00-1 .45 1.72 1.72 0 00-.39 1.17v6.57A1.7 1.7 0 00797 65a1.29 1.29 0 001 .45 1.35 1.35 0 001.11-.45zm5.33 1.27a3.89 3.89 0 01-1-2.78V54.1a.22.22 0 01.23-.22h1.74a.25.25 0 01.17.06.25.25 0 01.06.16v9.62A1.9 1.9 0 00806 65a1.3 1.3 0 002 0 1.9 1.9 0 00.38-1.23V54.1a.21.21 0 01.22-.22h1.75a.22.22 0 01.23.22v9.39a3.89 3.89 0 01-1 2.78 3.73 3.73 0 01-5.21 0zm13.19.73L816 61.53c0-.05-.06-.07-.1-.07h-1c-.07 0-.1 0-.1.09V67a.2.2 0 01-.07.16.22.22 0 01-.16.07h-1.75a.26.26 0 01-.16-.07.23.23 0 01-.06-.16V54.1a.21.21 0 01.22-.22h3.58a3.26 3.26 0 011.77.48 3.15 3.15 0 011.2 1.37 4.65 4.65 0 01.43 2 4.21 4.21 0 01-.46 2 3 3 0 01-1.27 1.29c-.05 0-.07.05-.06.11l1.86 5.72a.16.16 0 010 .1c0 .11-.07.17-.21.17h-1.82a.25.25 0 01-.21-.12zm-2.81-11.12v3.78c0 .07 0 .1.1.1h1.15a1.39 1.39 0 001.12-.53 2.71 2.71 0 000-2.9 1.37 1.37 0 00-1.12-.54h-1.15c-.07-.01-.1.02-.1.08zm7.31 10.47a3.48 3.48 0 01-1-2.59v-6.48a3.45 3.45 0 011-2.6 3.53 3.53 0 012.59-1 3.6 3.6 0 012.62 1 3.46 3.46 0 011 2.6v.23a.23.23 0 01-.07.17.19.19 0 01-.16.07l-1.77.08c-.15 0-.22-.08-.22-.23v-.47a1.57 1.57 0 00-.38-1.09 1.31 1.31 0 00-1-.42 1.26 1.26 0 00-1 .42 1.57 1.57 0 00-.38 1.09v6.8a1.56 1.56 0 00.38 1.08 1.26 1.26 0 001 .42 1.31 1.31 0 001-.42 1.56 1.56 0 00.38-1.08v-.48a.25.25 0 01.06-.16.26.26 0 01.16-.07l1.77.08a.19.19 0 01.16.07.2.2 0 01.07.16v.23a3.48 3.48 0 01-1 2.59 3.57 3.57 0 01-2.62 1 3.5 3.5 0 01-2.59-1zm14.49-10.64a.24.24 0 01-.16.07h-4.1c-.07 0-.1 0-.1.09v3.59c0 .07 0 .1.1.1h2.43a.23.23 0 01.16.06.22.22 0 01.07.17v1.46a.2.2 0 01-.07.16.24.24 0 01-.16.07h-2.43c-.07 0-.1 0-.1.09v3.61c0 .07 0 .1.1.1h4.1a.23.23 0 01.16.06.21.21 0 01.07.16V67a.2.2 0 01-.07.16.24.24 0 01-.16.07h-6.17a.26.26 0 01-.17-.07.23.23 0 01-.06-.16V54.1a.25.25 0 01.06-.16.25.25 0 01.17-.06h6.17a.23.23 0 01.16.06.21.21 0 01.07.16v1.45a.2.2 0 01-.07.16z" fill="#282828"/><path d="M39.05 170.16a6.12 6.12 0 11-5.92 6.12 5.9 5.9 0 015.92-6.12zm0 11.27a5.16 5.16 0 10-4.9-5.15 4.93 4.93 0 004.9 5.15zm8.89-5.87a3.58 3.58 0 015.49.06 3.67 3.67 0 01.66 2.48v4.13h-1v-4.06a3.11 3.11 0 00-.44-1.91 2.41 2.41 0 00-2-1 3.08 3.08 0 00-2.65 1.58v5.39h-1v-7.75h.94zm8.87-5.4h1v12.07h-1zm4.34.76a.88.88 0 01.87.87.86.86 0 01-.87.85.84.84 0 01-.85-.85.86.86 0 01.85-.87zm-.48 3.56h1v7.75h-1zm4.8 1.08a3.58 3.58 0 015.49.06 3.72 3.72 0 01.66 2.48v4.13h-1v-4.06a3.11 3.11 0 00-.44-1.91 2.41 2.41 0 00-2-1 3.07 3.07 0 00-2.69 1.61v5.39h-1v-7.75h.94zM80.71 181a4 4 0 01-3.16 1.43 3.85 3.85 0 01-3.89-4.05 3.8 3.8 0 013.71-4A3.61 3.61 0 0181 178.1a2.53 2.53 0 010 .34h-6.37a2.94 2.94 0 002.92 3 3.12 3.12 0 002.45-1.12zm-6-3.42H80a2.62 2.62 0 00-2.6-2.32 2.76 2.76 0 00-2.72 2.29zm12.96 2.15a3.84 3.84 0 003.19 1.7 2.35 2.35 0 002.45-2.23c0-2.16-2.55-2.39-4.28-3.46a2.82 2.82 0 01-1.62-2.45 3.16 3.16 0 013.39-3.13 4.45 4.45 0 013 1.19l-.65.75a3.33 3.33 0 00-2.36-1 2.18 2.18 0 00-2.4 2.11c0 1.8 2.4 2 4.1 3.09a3.31 3.31 0 011.8 2.87 3.25 3.25 0 01-3.47 3.2 4.75 4.75 0 01-3.94-2zm14.6 1.44a3.34 3.34 0 01-2.62 1.23 3.25 3.25 0 01-2.9-1.6 4.28 4.28 0 01-.46-2.19v-4.13h1v4a3.35 3.35 0 00.44 2 2.31 2.31 0 002 1 3 3 0 002.59-1.61v-5.39h1v7.75h-.94zm7.73-5.93h-.46a2.71 2.71 0 00-2.44 1.71v5.29h-1v-7.75h1v1a3 3 0 012.45-1.19 5.09 5.09 0 01.58 0zm4.8 6.99l-3.6-7.75h1l2.86 6.18 2.85-6.18H119l-3.59 7.75zM127 181a4 4 0 01-3.16 1.43 3.85 3.85 0 01-3.89-4.05 3.8 3.8 0 013.71-4 3.61 3.61 0 013.6 3.79 2.53 2.53 0 010 .34h-6.32a2.94 2.94 0 002.92 3 3.09 3.09 0 002.48-1.16zm-6-3.42h5.29a2.62 2.62 0 00-2.6-2.32 2.76 2.76 0 00-2.69 2.29zm8.49 8.73l2.12-4.71-3.5-7.12h1.09l2.91 6 2.73-6h1l-5.37 11.83zM48.81 286.33l5.19 11.9h-1l-1.56-3.59h-5.85L44 298.23h-1l5.13-11.9zM46 293.67h4.95l-2.47-5.74zm9.22 2.88a3.69 3.69 0 002.35.93c1 0 1.78-.54 1.78-1.36 0-2-4.47-.9-4.47-3.55a2.45 2.45 0 012.64-2.26 4.44 4.44 0 012.5.75l-.51.79a3.23 3.23 0 00-1.94-.62c-.82 0-1.72.42-1.72 1.32 0 1.72 4.47.8 4.47 3.52a2.44 2.44 0 01-2.68 2.33 4.4 4.4 0 01-3-1.11zm7.23 0a3.67 3.67 0 002.34.93c1 0 1.79-.54 1.79-1.36 0-2-4.47-.9-4.47-3.55a2.44 2.44 0 012.63-2.26 4.41 4.41 0 012.5.75l-.51.79a3.21 3.21 0 00-1.94-.62c-.81 0-1.71.42-1.71 1.32 0 1.72 4.47.8 4.47 3.52a2.45 2.45 0 01-2.69 2.33 4.4 4.4 0 01-3-1.11zm13.77.45a4 4 0 01-3.16 1.43 3.85 3.85 0 01-3.9-4 3.8 3.8 0 013.71-4 3.61 3.61 0 013.6 3.79v.34h-6.34a2.94 2.94 0 002.93 3 3.09 3.09 0 002.48-1.16zm-6-3.42h5.29a2.61 2.61 0 00-2.6-2.32 2.76 2.76 0 00-2.73 2.29zm8.29 2.97a3.69 3.69 0 002.35.93c1 0 1.78-.54 1.78-1.36 0-2-4.47-.9-4.47-3.55a2.45 2.45 0 012.64-2.26 4.44 4.44 0 012.5.75l-.51.79a3.23 3.23 0 00-1.94-.62c-.82 0-1.72.42-1.72 1.32 0 1.72 4.47.8 4.47 3.52a2.44 2.44 0 01-2.68 2.33 4.38 4.38 0 01-3-1.11zm8.33-5.02a3.33 3.33 0 012.62-1.22 3.23 3.23 0 012.91 1.69 3.57 3.57 0 013-1.65 3.29 3.29 0 012.91 1.63 4.3 4.3 0 01.46 2.19v4.1h-1v-4a3.31 3.31 0 00-.44-2 2.3 2.3 0 00-2-1 3.09 3.09 0 00-2.67 1.8 6.78 6.78 0 01.09 1.1v4.1h-1v-4a3.31 3.31 0 00-.44-2 2.3 2.3 0 00-2-1 3 3 0 00-2.58 1.61v5.39h-1v-7.75h.93zm21.03 5.47a4 4 0 01-3.16 1.43 3.84 3.84 0 01-3.89-4 3.8 3.8 0 013.7-4 3.61 3.61 0 013.61 3.79 2.53 2.53 0 010 .34h-6.32a2.93 2.93 0 002.92 3 3.09 3.09 0 002.48-1.16zm-6-3.42h5.28a2.61 2.61 0 00-2.6-2.32 2.75 2.75 0 00-2.71 2.29zm9.4-2.02a3.58 3.58 0 015.49.06 3.67 3.67 0 01.66 2.48v4.13h-1v-4.06a3 3 0 00-.45-1.91 2.41 2.41 0 00-2-1 3.08 3.08 0 00-2.69 1.61v5.39h-1v-7.75h.93zm13.21-.16h-2.63v4.25a1.88 1.88 0 00.34 1.29 1.58 1.58 0 001.29.54 3.28 3.28 0 00.83-.1l.17.88a3.55 3.55 0 01-1 .14 2.6 2.6 0 01-2.08-.89 2.84 2.84 0 01-.52-1.9v-4.21h-2.18v-.92h2.18v-2.11h1v2.11h2.63zM53.84 407.14h-7.65v6.09h-1v-11.9h1v4.84h7.65v-4.84h1v11.9h-1zm7.31 6.26a4 4 0 114-4 4 4 0 01-4 4zm0-7.17a3.13 3.13 0 103 3.12 3 3 0 00-3-3.12zm12.02 5.94a3.36 3.36 0 01-2.62 1.23 3.25 3.25 0 01-2.91-1.6 4.28 4.28 0 01-.46-2.19v-4.13h1v4a3.35 3.35 0 00.44 2 2.32 2.32 0 002 1 3 3 0 002.58-1.61v-5.39h1v7.75h-.93zm3.65-.62a3.69 3.69 0 002.35.93c1 0 1.78-.54 1.78-1.36 0-2-4.47-.9-4.47-3.55a2.45 2.45 0 012.64-2.26 4.44 4.44 0 012.5.75l-.51.79a3.23 3.23 0 00-1.94-.62c-.82 0-1.72.42-1.72 1.32 0 1.72 4.47.8 4.47 3.52a2.44 2.44 0 01-2.68 2.33 4.38 4.38 0 01-3-1.11zm13.77.45a4 4 0 01-3.16 1.43 3.84 3.84 0 01-3.89-4 3.8 3.8 0 013.7-4 3.61 3.61 0 013.61 3.79 2.53 2.53 0 010 .34h-6.34a2.93 2.93 0 002.92 3 3.09 3.09 0 002.48-1.16zm-6-3.42h5.28a2.61 2.61 0 00-2.6-2.32 2.76 2.76 0 00-2.71 2.29zm9.41-2.07a3.59 3.59 0 015.45.11 3.67 3.67 0 01.66 2.48v4.13h-1v-4.06a3 3 0 00-.45-1.91 2.41 2.41 0 00-2-1 3.05 3.05 0 00-2.66 1.58v5.39h-1v-12.07h1zm12.18 6.89a4 4 0 114-4 4 4 0 01-4 4zm0-7.17a3.13 3.13 0 103 3.12 3 3 0 00-3-3.12zm6.21-5.07h1v12.07h-1zm4.82 11.51a4 4 0 01-1.65-3.32 4.13 4.13 0 011.45-3.18 4 4 0 012.46-.86 3.82 3.82 0 012.81 1.2v-5.35h1v12.07h-.94v-1.14a3.4 3.4 0 01-2.78 1.31 4 4 0 01-2.35-.73zm5.07-4.88a3.4 3.4 0 00-2.79-1.56 3 3 0 00-1.87.66 3.16 3.16 0 00-1.09 2.46 3 3 0 003 3.13 3.22 3.22 0 002.77-1.7zm-61.51 23.34a3.86 3.86 0 003.2 1.7 2.35 2.35 0 002.45-2.23c0-2.16-2.55-2.39-4.29-3.46a2.83 2.83 0 01-1.61-2.45 3.16 3.16 0 013.38-3.13 4.48 4.48 0 013.1 1.19l-.65.75a3.36 3.36 0 00-2.36-1 2.18 2.18 0 00-2.4 2.11c0 1.8 2.4 2 4.1 3.09a3.33 3.33 0 011.8 2.87A3.25 3.25 0 0164 433.8a4.75 4.75 0 01-3.94-2zm14.61 1.44a3.36 3.36 0 01-2.62 1.23 3.25 3.25 0 01-2.91-1.6 4.3 4.3 0 01-.46-2.19v-4.13h1v4a3.36 3.36 0 00.44 2 2.32 2.32 0 002 1 3 3 0 002.58-1.61v-5.39h1v7.75h-.93zm7.68-5.93a3.94 3.94 0 00-.46 0 2.71 2.71 0 00-2.43 1.72v5.29h-1v-7.75h1v1a3 3 0 012.45-1.19 5.35 5.35 0 01.58 0zm4.85 6.99l-3.61-7.75h1.06l2.85 6.18 2.86-6.18h1.05l-3.59 7.75zm12.2-1.26A4 4 0 0197 433.8a3.84 3.84 0 01-3.89-4.05 3.8 3.8 0 013.7-4 3.61 3.61 0 013.61 3.79 2.45 2.45 0 010 .34H94a2.93 2.93 0 002.92 3 3.09 3.09 0 002.48-1.16zm-6-3.42h5.28a2.62 2.62 0 00-2.6-2.33 2.77 2.77 0 00-2.71 2.38zm8.48 8.76l2.13-4.71-3.5-7.12h1.08l2.91 6 2.74-6h1l-5.38 11.83zm165.46-266.55a6.12 6.12 0 11-5.92 6.12 5.9 5.9 0 015.92-6.12zm0 11.27a5.16 5.16 0 10-4.9-5.15 4.93 4.93 0 004.9 5.15zm8.89-5.87a3.58 3.58 0 015.49.06 3.67 3.67 0 01.66 2.48v4.13h-1v-4.06a3.11 3.11 0 00-.44-1.91 2.41 2.41 0 00-2-1 3.08 3.08 0 00-2.69 1.61v5.39h-1v-7.75h.94zm8.87-5.4h1v12.07h-1zm4.34.76a.88.88 0 01.87.87.86.86 0 01-.87.85.84.84 0 01-.85-.85.86.86 0 01.85-.87zm-.48 3.56h1v7.75h-1zm4.8 1.08a3.58 3.58 0 015.49.06 3.72 3.72 0 01.66 2.48v4.13h-1v-4.06a3.11 3.11 0 00-.44-1.91 2.41 2.41 0 00-2-1 3.07 3.07 0 00-2.69 1.61v5.39h-1v-7.75h.94zm15.24 5.44a4 4 0 01-3.16 1.43 3.85 3.85 0 01-3.89-4.05 3.8 3.8 0 013.71-4 3.61 3.61 0 013.6 3.79 2.53 2.53 0 010 .34h-6.32a2.94 2.94 0 002.92 3 3.12 3.12 0 002.49-1.16zm-6-3.42H309a2.62 2.62 0 00-2.6-2.32 2.76 2.76 0 00-2.72 2.29zm12.96 2.15a3.84 3.84 0 003.19 1.7 2.35 2.35 0 002.45-2.23c0-2.16-2.55-2.39-4.28-3.46a2.82 2.82 0 01-1.62-2.45 3.16 3.16 0 013.39-3.13 4.45 4.45 0 013 1.19l-.65.75a3.33 3.33 0 00-2.36-1 2.18 2.18 0 00-2.4 2.11c0 1.8 2.4 2 4.1 3.09a3.31 3.31 0 011.8 2.87 3.25 3.25 0 01-3.47 3.2 4.75 4.75 0 01-3.94-2zm14.6 1.44a3.34 3.34 0 01-2.62 1.23 3.25 3.25 0 01-2.9-1.6 4.28 4.28 0 01-.46-2.19v-4.13h1v4a3.35 3.35 0 00.44 2 2.31 2.31 0 001.95 1 3 3 0 002.59-1.61v-5.39h1v7.75h-.94zm7.73-5.93h-.46a2.71 2.71 0 00-2.44 1.71v5.29h-1v-7.75h1v1a3 3 0 012.45-1.19 5.09 5.09 0 01.58 0zm4.8 6.99l-3.6-7.75h1.05l2.86 6.18 2.85-6.18H348l-3.59 7.75zM356 182a4 4 0 01-3.16 1.43 3.85 3.85 0 01-3.89-4.05 3.8 3.8 0 013.71-4 3.61 3.61 0 013.6 3.79 2.53 2.53 0 010 .34h-6.32a2.94 2.94 0 002.92 3 3.09 3.09 0 002.48-1.16zm-6-3.42h5.29a2.62 2.62 0 00-2.6-2.32 2.76 2.76 0 00-2.69 2.29zm8.49 8.73l2.12-4.71-3.5-7.12h1.09l2.91 6 2.73-6h1l-5.37 11.83zm-80.68 99.02l5.14 11.9h-1l-1.56-3.59h-5.78l-1.61 3.59h-1l5.13-11.9zm-2.81 7.34h4.95l-2.47-5.74zm9.22 2.88a3.69 3.69 0 002.35.93c1 0 1.78-.54 1.78-1.36 0-2-4.47-.9-4.47-3.55a2.45 2.45 0 012.64-2.26 4.44 4.44 0 012.5.75l-.51.79a3.23 3.23 0 00-1.94-.62c-.82 0-1.72.42-1.72 1.32 0 1.72 4.47.8 4.47 3.52a2.44 2.44 0 01-2.68 2.33 4.4 4.4 0 01-3-1.11zm7.23 0a3.67 3.67 0 002.34.93c1 0 1.79-.54 1.79-1.36 0-2-4.47-.9-4.47-3.55a2.44 2.44 0 012.63-2.26 4.41 4.41 0 012.5.75l-.51.79a3.21 3.21 0 00-1.94-.62c-.81 0-1.71.42-1.71 1.32 0 1.72 4.47.8 4.47 3.52a2.45 2.45 0 01-2.69 2.33 4.4 4.4 0 01-3-1.11zm13.77.45a4 4 0 01-3.16 1.43 3.85 3.85 0 01-3.9-4 3.8 3.8 0 013.71-4 3.61 3.61 0 013.6 3.79v.34h-6.33a2.94 2.94 0 002.93 3 3.09 3.09 0 002.48-1.16zm-6-3.42h5.29a2.61 2.61 0 00-2.6-2.32 2.76 2.76 0 00-2.73 2.29zm8.29 2.97a3.69 3.69 0 002.35.93c1 0 1.78-.54 1.78-1.36 0-2-4.47-.9-4.47-3.55a2.45 2.45 0 012.64-2.26 4.44 4.44 0 012.5.75l-.51.79a3.23 3.23 0 00-1.94-.62c-.82 0-1.72.42-1.72 1.32 0 1.72 4.47.8 4.47 3.52a2.44 2.44 0 01-2.68 2.33 4.38 4.38 0 01-3-1.11zm8.33-5.02a3.33 3.33 0 012.62-1.22 3.23 3.23 0 012.91 1.65 3.57 3.57 0 013-1.65 3.29 3.29 0 012.91 1.63 4.3 4.3 0 01.46 2.19v4.1h-1v-4a3.31 3.31 0 00-.44-2 2.3 2.3 0 00-2-1 3.09 3.09 0 00-2.67 1.8 6.78 6.78 0 01.09 1.1v4.1h-1v-4a3.31 3.31 0 00-.44-2 2.3 2.3 0 00-2-1 3 3 0 00-2.58 1.61v5.39h-1v-7.75h.93zm21.03 5.47a4 4 0 01-3.16 1.43 3.84 3.84 0 01-3.89-4 3.8 3.8 0 013.7-4 3.61 3.61 0 013.61 3.79 2.53 2.53 0 010 .34h-6.32a2.93 2.93 0 002.92 3 3.09 3.09 0 002.48-1.16zm-6-3.42h5.28a2.61 2.61 0 00-2.6-2.32 2.75 2.75 0 00-2.71 2.29zm9.4-2.02a3.58 3.58 0 015.49.06 3.67 3.67 0 01.66 2.48v4.13h-1v-4.06a3 3 0 00-.45-1.91 2.41 2.41 0 00-2-1 3.08 3.08 0 00-2.69 1.61v5.39h-1v-7.75h.93zm13.21-.16h-2.63v4.25a1.88 1.88 0 00.34 1.29 1.58 1.58 0 001.29.54 3.28 3.28 0 00.83-.1l.17.88a3.55 3.55 0 01-1 .14 2.6 2.6 0 01-2.08-.89 2.84 2.84 0 01-.52-1.9v-4.21h-2.18v-.92h2.18v-2.11h1v2.11h2.63zM505 172.3v3.87h4.25v1H505v5.12h5.61v1H504v-11.9h6.46v1zm10.23 7.41l-2.54 3.52h-1.14l3-4.17-2.55-3.58h1.14l2.11 2.94 2.1-2.94h1.14l-2.56 3.58 3 4.17h-1.14zm5.85-7.79a.88.88 0 01.86.87.86.86 0 01-1.72 0 .87.87 0 01.86-.87zm-.48 3.56h1v7.75h-1zm8.28.92h-2.64v4.25a1.94 1.94 0 00.34 1.29 1.61 1.61 0 001.3.54 3.28 3.28 0 00.83-.1l.17.88a3.61 3.61 0 01-1 .14 2.6 2.6 0 01-2.08-.89 2.84 2.84 0 01-.53-1.9v-4.21h-2.17v-.92h2.17v-2.11h1v2.11h2.64zm6.87 4.33a3.83 3.83 0 003.19 1.7 2.35 2.35 0 002.45-2.23c0-2.16-2.55-2.39-4.28-3.46a2.82 2.82 0 01-1.62-2.45 3.16 3.16 0 013.38-3.13 4.48 4.48 0 013 1.19l-.65.75a3.36 3.36 0 00-2.36-1 2.18 2.18 0 00-2.4 2.11c0 1.8 2.4 2 4.1 3.09a3.33 3.33 0 011.8 2.87 3.25 3.25 0 01-3.47 3.2 4.75 4.75 0 01-3.94-2zm14.6 1.44a3.36 3.36 0 01-2.62 1.23 3.26 3.26 0 01-2.91-1.6 4.4 4.4 0 01-.45-2.19v-4.13h1v4a3.26 3.26 0 00.45 2 2.29 2.29 0 002 1 3 3 0 002.58-1.61v-5.39h1v7.75h-.93zm7.65-5.93h-.46a2.7 2.7 0 00-2.43 1.71v5.29h-1v-7.75h1v1a3 3 0 012.45-1.19 5.09 5.09 0 01.58 0zm4.88 6.99l-3.61-7.75h1.06l2.85 6.18 2.86-6.18h1.05l-3.58 7.75zm12.2-1.23a4 4 0 01-3.16 1.43 3.84 3.84 0 01-3.89-4.05 3.8 3.8 0 013.7-4 3.61 3.61 0 013.61 3.79 2.53 2.53 0 010 .34H569a2.93 2.93 0 002.92 3 3.09 3.09 0 002.48-1.16zm-6-3.42h5.28a2.61 2.61 0 00-2.6-2.32 2.76 2.76 0 00-2.71 2.29zm8.48 8.73l2.13-4.71-3.5-7.12h1.09l2.9 6 2.74-6h1l-5.38 11.83zm178.86-6.46h-.68l-4.2-7v9.42h-1v-11.9h.68l4.88 8.18 4.88-8.18h.68v11.9h-1v-9.42zm11.51 2.55a4 4 0 114-4.05 4 4 0 01-4 4.05zm0-7.17a3.13 3.13 0 103 3.12 3 3 0 00-3-3.12zm7.14 5.86v1.14h-.93v-12.07h1v5.35a3.82 3.82 0 012.81-1.2 4 4 0 012.46.86 4.13 4.13 0 011.45 3.18 4 4 0 01-1.65 3.32 4 4 0 01-2.31.73 3.42 3.42 0 01-2.83-1.31zm0-1.31a3.25 3.25 0 002.78 1.7 3 3 0 003-3.13 3.16 3.16 0 00-1.09-2.46 3 3 0 00-1.87-.66 3.4 3.4 0 00-2.79 1.56zm9.43-8.86a.88.88 0 01.87.87.85.85 0 01-.87.85.83.83 0 01-.84-.85.86.86 0 01.84-.87zm-.47 3.56h1v7.75h-1zm3.86-4.32h1v12.07h-1zM798.12 182a4 4 0 01-3.12 1.4 3.84 3.84 0 01-3.89-4.05 3.8 3.8 0 013.7-4 3.61 3.61 0 013.61 3.79 2.53 2.53 0 010 .34H792a2.93 2.93 0 002.92 3 3.09 3.09 0 002.48-1.16zm-6-3.42h5.28a2.61 2.61 0 00-2.6-2.32 2.76 2.76 0 00-2.71 2.29zm-50.9 107.75h1v11.9h-1zm4.93 5.23a3.58 3.58 0 015.49.06 3.66 3.66 0 01.67 2.48v4.13h-1v-4.06a3.11 3.11 0 00-.44-1.91 2.44 2.44 0 00-2-1 3.05 3.05 0 00-2.68 1.61v5.39h-1v-7.75h.93zm14.57.92v5.75h-1v-11.9h4.41a3.42 3.42 0 012.32.71 3.11 3.11 0 010 4.73 3.42 3.42 0 01-2.32.71zm3.33-1a2.39 2.39 0 001.84-.62 2.14 2.14 0 00.61-1.48 2.1 2.1 0 00-.61-1.48 2.39 2.39 0 00-1.84-.63h-3.33v4.21zM775 297a4 4 0 01-3.16 1.43 3.85 3.85 0 01-3.89-4 3.8 3.8 0 013.7-4 3.61 3.61 0 013.61 3.79 2.53 2.53 0 010 .34h-6.32a2.93 2.93 0 002.92 3 3.09 3.09 0 002.48-1.16zm-6-3.42h5.28a2.61 2.61 0 00-2.6-2.32 2.76 2.76 0 00-2.68 2.29zm12.33-2.34h-.46a2.68 2.68 0 00-2.43 1.71v5.29h-1v-7.75h1v1a2.94 2.94 0 012.44-1.19 5.09 5.09 0 01.58 0zm1.83 5.31a3.69 3.69 0 002.35.93c1 0 1.78-.54 1.78-1.36 0-2-4.47-.9-4.47-3.55a2.45 2.45 0 012.64-2.26 4.44 4.44 0 012.5.75l-.51.79a3.23 3.23 0 00-1.94-.62c-.82 0-1.72.42-1.72 1.32 0 1.72 4.47.8 4.47 3.52a2.44 2.44 0 01-2.68 2.33 4.38 4.38 0 01-3-1.11zm10.71 1.85a4 4 0 114-4 4 4 0 01-4 4zm0-7.17a3.13 3.13 0 103 3.12 3 3 0 00-3-3.12zm7.13.33a3.58 3.58 0 015.49.06 3.66 3.66 0 01.67 2.48v4.13h-1v-4.06a3 3 0 00-.45-1.91 2.41 2.41 0 00-2-1 3.05 3.05 0 00-2.68 1.61v5.39h-1v-7.75h.97z"/><rect x="746.91" y="214.18" width="64.6" height="64.6" rx="32.3" fill="#fffa0c"/><path d="M805.78 209.24L792.05 220a5 5 0 00-.9 7.18l1.1 1.34-1.07.41a26.79 26.79 0 01-5.14 1.19 1.29 1.29 0 01-.62-.15l-5-2.43a8 8 0 00-3.55-.76 8.72 8.72 0 00-4.42 1.13l-.88-.44a9.75 9.75 0 00-4.22-.89 9.87 9.87 0 00-3.83.73l-3.43 1.46a3.34 3.34 0 01-1.32.22 28.68 28.68 0 01-4.12-.5l-.25-.06-.34-.09 1-1.08a5 5 0 00-.92-7.16l-14.54-10.89a2.15 2.15 0 10-2.58 3.45l14.48 10.84a.7.7 0 01.28.48.64.64 0 01-.08.46l-5.28 6-6.21 7-3.49 3.83a2.15 2.15 0 001.59 3.61 2.23 2.23 0 001.11-.32 5.91 5.91 0 001.36 1.71l5.27 4.67a5.28 5.28 0 00.3 7.21l.41.39a5.24 5.24 0 001.19.79 5.45 5.45 0 001.09 6.51l.46.42a5.41 5.41 0 003.7 1.46h.21a5.35 5.35 0 002.67-.84 5.71 5.71 0 00.86 1.06l.46.42a5.4 5.4 0 003.7 1.45h.21a5.46 5.46 0 001.66-.35 5.25 5.25 0 001.07 1.43l.46.43a5.4 5.4 0 003.7 1.45h.21a5.42 5.42 0 002.53-.77 6.22 6.22 0 004.25 1.67 6.33 6.33 0 004.59-2l.37-.4a6.28 6.28 0 003.59 1.12 6.32 6.32 0 004.6-2l.52-.56a5.86 5.86 0 001-1.46 6.31 6.31 0 004.1-2l.52-.56a6.23 6.23 0 001.65-3.64 6.13 6.13 0 001.82-1.34l.52-.56a6.23 6.23 0 001.68-4.26 6.31 6.31 0 00-1.42-4l5.72-5.94a6.62 6.62 0 001-1.57 2.06 2.06 0 00.91.21 2.13 2.13 0 001.38-.51 2.15 2.15 0 00.27-3l-3.29-3.91-5.23-6.69c-.09-.13-.2-.23-.3-.35l-4.75-5.79a.73.73 0 01-.16-.54.76.76 0 01.32-.51l13.76-10.74a2.15 2.15 0 10-2.64-3.39zm-51 41.69l-3.66 4.14a1.24 1.24 0 01-.87.43.76.76 0 01-.53-.17l-.41-.38a1.07 1.07 0 01.19-1.46l3.66-4.16a1.31 1.31 0 01.87-.41.75.75 0 01.52.17l.41.39a1.06 1.06 0 01-.21 1.45zm-1.5 12.43a1.11 1.11 0 01-.82-.31l-.46-.42a1.15 1.15 0 010-1.63l9.38-10.34a1.12 1.12 0 01.78-.36 1.07 1.07 0 01.82.31l.46.42a1.15 1.15 0 010 1.63l-2.9 3.2-.16.14-1.24 1.4L754 263a1.11 1.11 0 01-.75.36zm7.9 2.09a1.11 1.11 0 01-.82-.31l-.46-.42a1.16 1.16 0 010-1.65l2.43-2.76 1.33-1.46a1.15 1.15 0 01.69-.28 1.13 1.13 0 01.82.3l.45.42a1.16 1.16 0 010 1.65l-3.66 4.14a1.11 1.11 0 01-.81.37zm7.1 2.95a1.11 1.11 0 01-.82-.3l-.46-.42a1.18 1.18 0 010-1.69l1.86-2.19a1.14 1.14 0 01.77-.34 1.1 1.1 0 01.81.31l.46.42a1.17 1.17 0 010 1.68L769 268a1.14 1.14 0 01-.75.4zm7 .91a1.9 1.9 0 01-1.21-.42l.12-.14a5.32 5.32 0 001.2-2.16l1.61 1.71-.36.39a2 2 0 01-1.42.62zm15.65-5.89a2 2 0 01-1.44.63l-9-9.05a2.15 2.15 0 10-3 3.05l8.59 8.59a1.63 1.63 0 01-.17.22l-.52.56a2 2 0 01-1.46.62 1.94 1.94 0 01-1.34-.52l-1.26-1.16-3.44-3.44a2.12 2.12 0 00-2.72-.22 5.57 5.57 0 00-1.21-1.67l-.46-.42a5.32 5.32 0 00-3.21-1.41 5.38 5.38 0 00-1.64-3.06l-.45-.43a6 6 0 00-1-.73 5.45 5.45 0 00-.73-7.11l-.46-.42a5.33 5.33 0 00-3.91-1.45 5.4 5.4 0 00-3.28 1.29 4.54 4.54 0 00-.79-1l-.41-.38a4.9 4.9 0 00-3.61-1.32 5.63 5.63 0 00-3.88 1.8l-1.08 1.22-5.45-4.61a1.89 1.89 0 01-.19-2.7l6.22-7a2.92 2.92 0 011.08-.72 3.49 3.49 0 012.52-.05l.28.07a31.68 31.68 0 005 .64 7.64 7.64 0 003.3-.57l3.41-1.45a5.55 5.55 0 012.15-.38 6.17 6.17 0 011.56.19l-1.15 1.16a6.56 6.56 0 00.09 9.34 6.56 6.56 0 007.61 1.11l2.71-1.42a3 3 0 013.47.48l11.08 10.45 2.6 2.41a1.95 1.95 0 01.1 2.75l-.52.57a1.92 1.92 0 01-.32.26l-8.65-8.65a2.15 2.15 0 10-3 3l9.06 9.06a1.92 1.92 0 01-.51 1.26zm10.49-20.27l-5.74 5.85-11.11-10.47a7.32 7.32 0 00-8.42-1.16l-2.7 1.41a2.28 2.28 0 01-2.63-.38 2.28 2.28 0 010-3.22L774 232l.41-.29a4.47 4.47 0 012.45-.68 3.87 3.87 0 011.68.34l5 2.42a5.64 5.64 0 003 .56 30.68 30.68 0 006.4-1.53 4.6 4.6 0 011.38-.45 2.36 2.36 0 011.86.86l5.25 6.72a2.49 2.49 0 01.5 1.54 2.52 2.52 0 01-.57 1.66z" fill="#282828"/><rect x="747.24" y="94.49" width="65.29" height="65.29" rx="32.65" fill="#fffa0c"/><path d="M791.49 85.78h-36.27A2.17 2.17 0 00753 88v65.29a2.18 2.18 0 002.18 2.18h36.27a2.19 2.19 0 002.18-2.18V88a2.18 2.18 0 00-2.14-2.22zm-2.18 4.35v45h-31.92v-45zm-31.92 60.94v-11.6h31.92v11.6z" fill="#282828"/><circle cx="773.35" cy="145.27" r="4.35" fill="#282828"/><rect x="58.89" y="95.17" width="64.61" height="64.61" rx="32.31" fill="#fffa0c"/><path d="M117 93.73H52.42a2.15 2.15 0 00-2.15 2.15v51.7a2.15 2.15 0 002.15 2.15H117a2.15 2.15 0 002.15-2.15v-51.7a2.15 2.15 0 00-2.15-2.15zM114.88 98v7.18h-60.3V98zm-60.3 47.38v-35.85h60.3v35.89z" fill="#282828"/><path d="M59.6 103.78h4.31a2.16 2.16 0 100-4.31H59.6a2.16 2.16 0 000 4.31zm45.95 10.05h-35.9a2.16 2.16 0 000 4.31h35.9a2.16 2.16 0 100-4.31zm-33.02-10.05h4.3a2.16 2.16 0 100-4.31h-4.3a2.16 2.16 0 100 4.31zm12.92 0h4.31a2.16 2.16 0 000-4.31h-4.31a2.16 2.16 0 000 4.31zM61 112.4a3.59 3.59 0 103.63 3.6 3.59 3.59 0 00-3.63-3.6zm0 4.3a.72.72 0 11.72-.71.71.71 0 01-.72.71zm44.55 8.62h-35.9a2.16 2.16 0 000 4.31h35.9a2.16 2.16 0 100-4.31zM61 123.88a3.59 3.59 0 103.59 3.59 3.59 3.59 0 00-3.59-3.59zm0 4.31a.72.72 0 11.72-.72.72.72 0 01-.72.72zm44.55 8.62h-35.9a2.15 2.15 0 000 4.3h35.9a2.15 2.15 0 100-4.3zM61 135.37a3.59 3.59 0 103.63 3.63 3.59 3.59 0 00-3.63-3.63zm0 4.31a.72.72 0 11.72-.72.72.72 0 01-.72.72z" fill="#282828"/><rect x="285.89" y="95.17" width="64.61" height="64.61" rx="32.31" fill="#fffa0c"/><path d="M344 93.73h-64.58a2.15 2.15 0 00-2.15 2.15v51.7a2.15 2.15 0 002.15 2.15H344a2.15 2.15 0 002.15-2.15v-51.7a2.15 2.15 0 00-2.15-2.15zM341.88 98v7.18h-60.3V98zm-60.3 47.38v-35.85h60.3v35.89z" fill="#282828"/><path d="M286.6 103.78h4.31a2.16 2.16 0 100-4.31h-4.31a2.16 2.16 0 000 4.31zm45.95 10.05h-35.9a2.16 2.16 0 000 4.31h35.9a2.16 2.16 0 100-4.31zm-33.02-10.05h4.3a2.16 2.16 0 100-4.31h-4.3a2.16 2.16 0 100 4.31zm12.92 0h4.31a2.16 2.16 0 000-4.31h-4.31a2.16 2.16 0 000 4.31zM288 112.4a3.59 3.59 0 103.59 3.59 3.59 3.59 0 00-3.59-3.59zm0 4.3a.72.72 0 11.72-.71.71.71 0 01-.72.71zm44.55 8.62h-35.9a2.16 2.16 0 000 4.31h35.9a2.16 2.16 0 100-4.31zM288 123.88a3.59 3.59 0 103.59 3.59 3.59 3.59 0 00-3.59-3.59zm0 4.31a.72.72 0 11.72-.72.72.72 0 01-.72.72zm44.55 8.62h-35.9a2.15 2.15 0 100 4.3h35.9a2.15 2.15 0 100-4.3zM288 135.37a3.59 3.59 0 103.59 3.59 3.59 3.59 0 00-3.59-3.59zm0 4.31a.72.72 0 11.72-.72.72.72 0 01-.72.72z" fill="#282828"/><rect x="517.89" y="95.17" width="64.61" height="64.61" rx="32.31" fill="#fffa0c"/><path d="M576 93.73h-64.58a2.15 2.15 0 00-2.15 2.15v51.7a2.15 2.15 0 002.15 2.15H576a2.15 2.15 0 002.15-2.15v-51.7a2.15 2.15 0 00-2.15-2.15zM573.88 98v7.18h-60.3V98zm-60.3 47.38v-35.85h60.3v35.89z" fill="#282828"/><path d="M518.6 103.78h4.31a2.16 2.16 0 100-4.31h-4.31a2.16 2.16 0 000 4.31zm45.95 10.05h-35.9a2.16 2.16 0 000 4.31h35.9a2.16 2.16 0 100-4.31zm-33.02-10.05h4.3a2.16 2.16 0 100-4.31h-4.3a2.16 2.16 0 100 4.31zm12.92 0h4.31a2.16 2.16 0 000-4.31h-4.31a2.16 2.16 0 000 4.31zM520 112.4a3.59 3.59 0 103.59 3.59 3.59 3.59 0 00-3.59-3.59zm0 4.3a.72.72 0 11.72-.71.71.71 0 01-.72.71zm44.55 8.62h-35.9a2.16 2.16 0 000 4.31h35.9a2.16 2.16 0 100-4.31zM520 123.88a3.59 3.59 0 103.59 3.59 3.59 3.59 0 00-3.59-3.59zm0 4.31a.72.72 0 11.72-.72.72.72 0 01-.72.72zm44.55 8.62h-35.9a2.15 2.15 0 100 4.3h35.9a2.15 2.15 0 100-4.3zM520 135.37a3.59 3.59 0 103.59 3.59 3.59 3.59 0 00-3.59-3.59zm0 4.31a.72.72 0 11.72-.72.72.72 0 01-.72.72z" fill="#282828"/><rect x="285.93" y="214.22" width="64.57" height="64.57" rx="32.28" fill="#fffa0c"/><path d="M344 212.78h-64.52a2.15 2.15 0 00-2.15 2.15v51.66a2.15 2.15 0 002.15 2.15H344a2.16 2.16 0 002.16-2.15v-51.66a2.16 2.16 0 00-2.16-2.15zm-2.15 4.31v7.17h-60.22v-7.17zm-60.26 47.34v-35.87h60.26v35.87z" fill="#282828"/><path d="M286.65 222.82H291a2.15 2.15 0 100-4.3h-4.31a2.15 2.15 0 100 4.3zm12.92 0h4.3a2.15 2.15 0 100-4.3h-4.3a2.15 2.15 0 100 4.3zm12.91 0h4.3a2.15 2.15 0 100-4.3h-4.3a2.15 2.15 0 000 4.3zm-22.24 11.48a5 5 0 105 5 5 5 0 00-5-5zm0 5.74a.72.72 0 11.72-.72.72.72 0 01-.72.68zm14.35-5.74a5 5 0 105 5 5 5 0 00-5-5zm0 5.74a.72.72 0 11.71-.72.72.72 0 01-.71.68zm14.34-5.74a5 5 0 105 5 5 5 0 00-5-5zm0 5.74a.72.72 0 11.72-.72.71.71 0 01-.72.68zm14.35-5.74a5 5 0 105 5 5 5 0 00-5-5zm0 5.74a.72.72 0 11.72-.72.71.71 0 01-.72.68zm-43.04 7.18a2.15 2.15 0 00-2.15 2.15v7.17a2.15 2.15 0 104.3 0v-7.17a2.15 2.15 0 00-2.15-2.15zm14.35 0a2.16 2.16 0 00-2.16 2.15v7.17a2.16 2.16 0 004.31 0v-7.17a2.15 2.15 0 00-2.15-2.15zm14.34 0a2.15 2.15 0 00-2.15 2.15v7.17a2.16 2.16 0 004.31 0v-7.17a2.16 2.16 0 00-2.16-2.15zm14.35 0a2.15 2.15 0 00-2.15 2.15v7.17a2.15 2.15 0 104.3 0v-7.17a2.15 2.15 0 00-2.15-2.15z" fill="#282828"/><rect x="58.93" y="214.22" width="64.57" height="64.57" rx="32.28" fill="#fffa0c"/><path d="M117 212.78H52.48a2.15 2.15 0 00-2.15 2.15v51.66a2.15 2.15 0 002.15 2.15H117a2.16 2.16 0 002.16-2.15v-51.66a2.16 2.16 0 00-2.16-2.15zm-2.15 4.31v7.17H54.63v-7.17zm-60.22 47.34v-35.87h60.26v35.87z" fill="#282828"/><path d="M59.65 222.82H64a2.15 2.15 0 100-4.3h-4.35a2.15 2.15 0 000 4.3zm12.92 0h4.3a2.15 2.15 0 000-4.3h-4.3a2.15 2.15 0 100 4.3zm12.91 0h4.3a2.15 2.15 0 100-4.3h-4.3a2.15 2.15 0 000 4.3zM63.24 234.3a5 5 0 105 5 5 5 0 00-5-5zm0 5.74a.72.72 0 11.72-.72.72.72 0 01-.72.68zm14.35-5.74a5 5 0 105 5 5 5 0 00-5-5zm0 5.74a.72.72 0 11.71-.72.72.72 0 01-.71.68zm14.34-5.74a5 5 0 105 5 5 5 0 00-5-5zm0 5.74a.72.72 0 11.72-.72.71.71 0 01-.72.68zm14.35-5.74a5 5 0 105 5 5 5 0 00-5-5zm0 5.74a.72.72 0 11.72-.72.71.71 0 01-.72.68zm-43.04 7.18a2.15 2.15 0 00-2.15 2.15v7.17a2.15 2.15 0 004.3 0v-7.17a2.15 2.15 0 00-2.15-2.15zm14.35 0a2.16 2.16 0 00-2.16 2.15v7.17a2.16 2.16 0 004.31 0v-7.17a2.15 2.15 0 00-2.15-2.15zm14.34 0a2.15 2.15 0 00-2.15 2.15v7.17a2.16 2.16 0 004.31 0v-7.17a2.16 2.16 0 00-2.16-2.15zm14.35 0a2.15 2.15 0 00-2.15 2.15v7.17a2.15 2.15 0 004.3 0v-7.17a2.15 2.15 0 00-2.15-2.15z" fill="#282828"/><circle cx="91.42" cy="359.7" r="31.58" fill="#fffa0c"/><path d="M91.42 328.62a31.08 31.08 0 11-31.08 31.08 31.11 31.11 0 0131.08-31.08m0-1a32.08 32.08 0 00-32.08 32.08 32.08 32.08 0 0032.08 32.08 32.08 32.08 0 0032.08-32.08 32.08 32.08 0 00-32.08-32.08z" fill="#fffa0c"/><path d="M105.24 324.69h-7a3.8 3.8 0 00-3.79-2.84h-4.71l-1.57-1.27a3.53 3.53 0 00-2.24-.8h-2.56a3.53 3.53 0 00-2.24.8l-1.57 1.27h-4a3.8 3.8 0 00-3.79 2.84h-7a8.32 8.32 0 00-8.28 8.31v46.13a8.32 8.32 0 008.28 8.34h40.47a8.32 8.32 0 008.28-8.34V333a8.32 8.32 0 00-8.28-8.31zM76 326.12h7.33v-1.78l.35-.28h2l.34.28v1.78h8v2.23H76zm33.29 53a4 4 0 01-4 4.07H64.77a4 4 0 01-4-4.07V333a4 4 0 014-4.06h6.91v.12a3.71 3.71 0 003.86 3.53h18.93a3.71 3.71 0 003.86-3.53V329h6.91a4 4 0 014 4.06z" fill="#282828"/><path d="M74.23 338.08a2.13 2.13 0 00-3 .32l-2.66 3.3-.51-.55a2.14 2.14 0 00-3.17 2.85l1.91 2.08a2.62 2.62 0 003.69 0l4.06-5a2.13 2.13 0 00-.32-3zm0 15.68a2.14 2.14 0 00-3 .32l-2.66 3.31-.51-.56a2.14 2.14 0 00-3.16 2.89l1.91 2.08a2.62 2.62 0 003.69 0l4.06-5a2.14 2.14 0 00-.33-3.04zm0 15.68a2.14 2.14 0 00-3 .33l-2.66 3.3-.51-.56a2.14 2.14 0 00-3.16 2.89l1.91 2.09a2.66 2.66 0 001.84.74 2.57 2.57 0 001.85-.77l4.06-5a2.14 2.14 0 00-.33-3.02zm28.6-31.84H80a2.14 2.14 0 000 4.28h22.82a2.14 2.14 0 100-4.28zM80 347.58h16.4a2.14 2.14 0 100-4.27H80a2.14 2.14 0 000 4.27zm22.83 5.71H80a2.14 2.14 0 000 4.27h22.82a2.14 2.14 0 100-4.27zM80 363.27h16.4a2.14 2.14 0 100-4.28H80a2.14 2.14 0 000 4.28zm22.83 5.73H80a2.14 2.14 0 000 4.28h22.82a2.14 2.14 0 100-4.28zm-6.42 5.67H80a2.14 2.14 0 000 4.33h16.4a2.14 2.14 0 100-4.28z" fill="#282828"/></g></g></svg>