<svg xmlns="http://www.w3.org/2000/svg" viewBox="0 0 675.24 597.83"><g data-name="Layer 2"><g data-name="Layer 1"><path d="M218 166.64h236.58v36.48A17.88 17.88 0 01436.7 221H218h0v-54.36h0z" fill="#fff" stroke="#8a8f93" stroke-miterlimit="10" stroke-width="2" stroke-dasharray="3,5"/><path d="M1 1h294.58v81.31a28.34 28.34 0 01-28.34 28.34H1h0V1h0z" fill="#fff" stroke="#291d54" stroke-miterlimit="10" stroke-width="2"/><circle cx="35.68" cy="34.74" r="18.9" fill="#fff200"/><circle cx="31.48" cy="30.54" r="18.9" fill="#291d54"/><path d="M30 20.46h2.6a.33.33 0 01.23.09.32.32 0 01.09.23V39a.32.32 0 01-.09.23.34.34 0 01-.23.1h-2.54a.34.34 0 01-.23-.1.32.32 0 01-.09-.23V23.8a.21.21 0 000-.1.07.07 0 00-.1 0l-2.21.43h-.08a.27.27 0 01-.3-.3L26.93 22a.37.37 0 01.22-.37l2.4-1.08a.9.9 0 01.45-.09z" fill="#fff"/><path d="M81.74 47.37l5.73 13.3h-1.14l-1.75-4h-6.45l-1.75 4h-1.14L81 47.37zm-3.16 8.21h5.53l-2.75-6.42zm17.86 7.85a4 4 0 01-3.76 2 4.6 4.6 0 01-3.93-2.07l.85-.63a3.52 3.52 0 003.1 1.67 2.89 2.89 0 002.79-1.48 4.83 4.83 0 00.34-2.24v-1.24a3.83 3.83 0 01-3.07 1.42 4.4 4.4 0 01-4.43-4.52 4.64 4.64 0 011.61-3.55 4.43 4.43 0 012.76-1 4.23 4.23 0 013.17 1.38V52h1v8.62a5.9 5.9 0 01-.43 2.81zm-.61-8.84a3.82 3.82 0 00-3.11-1.75 3.38 3.38 0 00-2.09.74 3.56 3.56 0 00-1.22 2.76 3.34 3.34 0 003.33 3.49 3.59 3.59 0 003.09-1.89zm11.44 4.68a4.51 4.51 0 01-3.53 1.59 4.3 4.3 0 01-4.35-4.52 4.24 4.24 0 014.14-4.52 4 4 0 014 4.23 3.07 3.07 0 010 .38h-7.07a3.28 3.28 0 003.27 3.4 3.44 3.44 0 002.77-1.29zm-6.74-3.82h5.9a2.93 2.93 0 00-2.9-2.61 3.09 3.09 0 00-3 2.61zm10.54-2.23a4 4 0 016.14.06 4.18 4.18 0 01.74 2.77v4.62h-1.08v-4.54a3.4 3.4 0 00-.5-2.13 2.69 2.69 0 00-2.26-1.16 3.43 3.43 0 00-3 1.81v6H110V52h1zm14.76-.22h-2.94v4.75a2.14 2.14 0 00.38 1.45 1.77 1.77 0 001.44.6 3.21 3.21 0 00.93-.11l.19 1a4.39 4.39 0 01-1.12.15 2.9 2.9 0 01-2.31-1 3.18 3.18 0 01-.59-2.12V53h-2.43v-1h2.43v-2.35h1.08V52h2.94zm7.79 12.23V52h1v1.2a4.23 4.23 0 013.17-1.38 4.43 4.43 0 012.76 1 4.64 4.64 0 011.61 3.55 4.4 4.4 0 01-4.42 4.52 3.83 3.83 0 01-3.08-1.42v5.79zm1.09-7.29a3.59 3.59 0 003.09 1.89 3.34 3.34 0 003.33-3.49 3.56 3.56 0 00-1.22-2.76 3.36 3.36 0 00-2.09-.74 3.82 3.82 0 00-3.11 1.75zM152 59.27a4.52 4.52 0 01-3.54 1.59 4.3 4.3 0 01-4.35-4.52 4.24 4.24 0 014.14-4.52 4 4 0 014 4.23 3.07 3.07 0 010 .38h-7.05a3.27 3.27 0 003.26 3.4 3.47 3.47 0 002.78-1.29zm-6.75-3.82h5.91a2.94 2.94 0 00-2.91-2.61 3.11 3.11 0 00-3 2.61zm13.81-2.59a4.79 4.79 0 00-.51 0 3 3 0 00-2.71 1.92v5.91h-1.09V52h1.09v1.14a3.29 3.29 0 012.73-1.33 6.48 6.48 0 01.65 0zm7.17-4.77a2.76 2.76 0 00-.65-.07 2 2 0 00-1.69.82 2.82 2.82 0 00-.4 1.8V52h2.95v1h-2.95v7.64h-1.08V53h-2.24v-1h2.24v-1.3a3.86 3.86 0 01.72-2.64A3.13 3.13 0 01165.6 47a3.94 3.94 0 01.84.1zm5.62 12.77a4.52 4.52 0 114.47-4.52 4.42 4.42 0 01-4.47 4.52zm0-8a3.5 3.5 0 103.38 3.5 3.38 3.38 0 00-3.38-3.52zm11.25 0a4.89 4.89 0 00-.51 0 3 3 0 00-2.72 1.92v5.91h-1.08V52h1.08v1.14a3.33 3.33 0 012.74-1.33 6.1 6.1 0 01.64 0zm3.38.33a3.72 3.72 0 012.93-1.37 3.62 3.62 0 013.25 1.84 4 4 0 013.4-1.84 3.66 3.66 0 013.24 1.82 4.72 4.72 0 01.52 2.45v4.58h-1.09v-4.44a3.79 3.79 0 00-.49-2.25 2.58 2.58 0 00-2.18-1.14 3.48 3.48 0 00-3 2 7.19 7.19 0 01.1 1.23v4.58h-1.08v-4.42a3.7 3.7 0 00-.5-2.25 2.57 2.57 0 00-2.18-1.14 3.36 3.36 0 00-2.89 1.81v6h-1.08V52h1zm16.19 5.6a4.08 4.08 0 002.62 1c1.08 0 2-.6 2-1.51 0-2.23-5-1-5-4a2.73 2.73 0 012.94-2.52 5.11 5.11 0 012.8.83l-.57.9a3.55 3.55 0 00-2.17-.71c-.91 0-1.92.48-1.92 1.49 0 1.91 5 .89 5 3.93a2.73 2.73 0 01-3 2.6 4.93 4.93 0 01-3.37-1.17zM221 53h-2.94v4.75a2.14 2.14 0 00.38 1.45 1.77 1.77 0 001.44.6 3.21 3.21 0 00.93-.11l.19 1a4.39 4.39 0 01-1.12.15 2.89 2.89 0 01-2.31-1 3.12 3.12 0 01-.59-2.12V53h-2.44v-1H217v-2.35h1.08V52H221zm9.16 7.67V59.4a3.82 3.82 0 01-3.11 1.46 4.4 4.4 0 01-4.43-4.52 4.64 4.64 0 011.61-3.55 4.43 4.43 0 012.76-1 4.23 4.23 0 013.17 1.38V52h1.05v8.66zm0-6.08a3.82 3.82 0 00-3.16-1.75 3.38 3.38 0 00-2.09.74 3.56 3.56 0 00-1.22 2.76 3.34 3.34 0 003.31 3.49 3.59 3.59 0 003.09-1.89zm4.09 4.2a4.08 4.08 0 002.62 1c1.08 0 2-.6 2-1.51 0-2.23-5-1-5-4a2.73 2.73 0 012.94-2.52 5 5 0 012.79.83l-.57.9a3.52 3.52 0 00-2.16-.71c-.91 0-1.92.48-1.92 1.49 0 1.91 5 .89 5 3.93a2.73 2.73 0 01-3 2.6 4.93 4.93 0 01-3.36-1.23zm14.26 1.88l-4.92-4.58v4.58h-1.08V47.18h1.08v8.44L248 52h1.62l-4.75 3.89 5.13 4.78zm3.05-1.88a4.08 4.08 0 002.62 1c1.08 0 2-.6 2-1.51 0-2.23-5-1-5-4a2.73 2.73 0 012.94-2.52 5 5 0 012.79.83l-.57.9a3.52 3.52 0 00-2.16-.71c-.91 0-1.92.48-1.92 1.49 0 1.91 5 .89 5 3.93a2.72 2.72 0 01-3 2.6 4.93 4.93 0 01-3.36-1.23zm-7.69 125.39a6.84 6.84 0 11-6.61 6.84 6.6 6.6 0 016.61-6.84zm0 12.6a5.76 5.76 0 10-5.47-5.78 5.51 5.51 0 005.47 5.78zm8.89 5.45V189h1.05v1.19a4.23 4.23 0 013.17-1.38 4.4 4.4 0 012.75 1 4.61 4.61 0 011.62 3.55 4.4 4.4 0 01-4.43 4.52 3.81 3.81 0 01-3.07-1.42v5.79zm1.09-7.29a3.59 3.59 0 003.09 1.89 3.34 3.34 0 003.33-3.49 3.56 3.56 0 00-1.22-2.76 3.38 3.38 0 00-2.09-.74 3.81 3.81 0 00-3.11 1.75zm14.81-4.94h-2.94v4.75a2.14 2.14 0 00.38 1.45 1.77 1.77 0 001.44.6 3.21 3.21 0 00.93-.11l.19 1a4.33 4.33 0 01-1.12.15 2.91 2.91 0 01-2.31-1 3.18 3.18 0 01-.59-2.12V190h-2.43v-1h2.43v-2.36h1.08V189h2.94zm3.2-5a1 1 0 011 1 1 1 0 01-1 1 .94.94 0 01-.95-1 1 1 0 01.95-1zm-.53 4h1.08v8.66h-1.08zm8.01 8.86a4.52 4.52 0 114.47-4.52 4.42 4.42 0 01-4.47 4.52zm0-8a3.5 3.5 0 103.38 3.5 3.38 3.38 0 00-3.38-3.52zm7.98.36a3.78 3.78 0 013.06-1.4 3.73 3.73 0 013.08 1.46 4.18 4.18 0 01.74 2.77v4.62h-1.08v-4.54a3.4 3.4 0 00-.5-2.13 2.69 2.69 0 00-2.26-1.16 3.45 3.45 0 00-3 1.81v6h-1.08V189h1zm16.68 7.45v-1.27a3.8 3.8 0 01-3.11 1.46 4.4 4.4 0 01-4.43-4.52 4.61 4.61 0 011.62-3.55 4.4 4.4 0 012.75-1 4.23 4.23 0 013.17 1.41V189h1.05v8.66zm0-6.08a3.83 3.83 0 00-3.12-1.75 3.38 3.38 0 00-2.09.74 3.56 3.56 0 00-1.22 2.76 3.34 3.34 0 003.33 3.49 3.62 3.62 0 003.1-1.89zm4.3-7.41h1.08v13.49h-1.08zm13.85.19l5.74 13.3h-1.14l-1.75-4h-6.46l-1.75 4h-1.14l5.74-13.3zm-3.15 8.21h5.52l-2.75-6.42zm10.6 9.65V189h1v1.19a4.23 4.23 0 013.18-1.38 4.4 4.4 0 012.75 1 4.6 4.6 0 011.61 3.55 4.4 4.4 0 01-4.42 4.52 3.85 3.85 0 01-3.08-1.42v5.79zm1.08-7.29a3.6 3.6 0 003.1 1.89 3.34 3.34 0 003.32-3.49 3.55 3.55 0 00-1.21-2.76 3.38 3.38 0 00-2.09-.74 3.83 3.83 0 00-3.12 1.75zm9.98 7.29V189h1v1.19a4.23 4.23 0 013.17-1.38 4.4 4.4 0 012.76 1 4.6 4.6 0 011.61 3.55 4.4 4.4 0 01-4.42 4.52 3.83 3.83 0 01-3.08-1.42v5.79zm1.08-7.29a3.59 3.59 0 003.09 1.89 3.34 3.34 0 003.33-3.49 3.56 3.56 0 00-1.22-2.76 3.34 3.34 0 00-2.09-.74 3.82 3.82 0 00-3.11 1.75zm14.26-5.08a5.07 5.07 0 00-.52 0 3 3 0 00-2.71 1.92v5.91h-1.09V189h1.09v1.14a3.31 3.31 0 012.73-1.33 6.48 6.48 0 01.65 0zm5.78 8a4.52 4.52 0 114.47-4.52 4.42 4.42 0 01-4.47 4.52zm0-8a3.5 3.5 0 103.38 3.5 3.38 3.38 0 00-3.38-3.52zm9.54 7.81l-4-8.66h1.18l3.19 6.91 3.19-6.91H376l-4 8.66zm13.68-1.4a4.5 4.5 0 01-3.53 1.59 4.3 4.3 0 01-4.35-4.52 4.24 4.24 0 014.14-4.52 4 4 0 014 4.23 3.07 3.07 0 010 .38h-7.07a3.28 3.28 0 003.27 3.4 3.44 3.44 0 002.77-1.29zm-6.74-3.82h5.91a2.94 2.94 0 00-2.91-2.61 3.09 3.09 0 00-3.04 2.61zm13.74-2.59a4.89 4.89 0 00-.51 0 3 3 0 00-2.72 1.92v5.91h-1.08V189h1.08v1.14a3.33 3.33 0 012.74-1.33 6.1 6.1 0 01.64 0zm7.38 5.02a4.3 4.3 0 003.58 1.9 2.62 2.62 0 002.73-2.49c0-2.41-2.85-2.68-4.79-3.88a3.13 3.13 0 01-1.8-2.73 3.54 3.54 0 013.78-3.5 5 5 0 013.4 1.33l-.72.84a3.71 3.71 0 00-2.64-1.08 2.44 2.44 0 00-2.68 2.35c0 2 2.68 2.28 4.58 3.46a3.7 3.7 0 012 3.21 3.63 3.63 0 01-3.87 3.57 5.33 5.33 0 01-4.41-2.24zm14.48-4.88h-2.94v4.75a2.14 2.14 0 00.38 1.45 1.75 1.75 0 001.44.6 3.21 3.21 0 00.93-.11l.19 1a4.39 4.39 0 01-1.12.15 2.92 2.92 0 01-2.32-1 3.18 3.18 0 01-.59-2.12V190h-2.43v-1h2.43v-2.36h1.09V189h2.94zm9.5 6.27a4.51 4.51 0 01-3.53 1.59 4.3 4.3 0 01-4.35-4.52 4.24 4.24 0 014.14-4.52 4 4 0 014 4.23 3.07 3.07 0 010 .38h-7.07a3.28 3.28 0 003.27 3.4 3.44 3.44 0 002.77-1.29zm-6.74-3.82h5.9a2.93 2.93 0 00-2.9-2.61 3.09 3.09 0 00-3 2.61zm9.5 9.78V189h1v1.19a4.23 4.23 0 013.17-1.38 4.4 4.4 0 012.76 1 4.6 4.6 0 011.61 3.55 4.4 4.4 0 01-4.42 4.52 3.83 3.83 0 01-3.08-1.42v5.79zm1.08-7.29a3.6 3.6 0 003.1 1.89 3.34 3.34 0 003.32-3.49 3.56 3.56 0 00-1.22-2.76 3.34 3.34 0 00-2.09-.74 3.82 3.82 0 00-3.11 1.75z"/><path d="M526.1 385.64l-122.1-62 122.14-62 122.14 62z" fill="#fff" stroke="#291d54" stroke-linecap="round" stroke-linejoin="round" stroke-width="2"/><path d="M487.28 337v4.33H492v1.08h-4.75v6.8h-1.14v-13.3h7.21V337zm14.28 12.17v-1.27a3.8 3.8 0 01-3.11 1.46 4.4 4.4 0 01-4.43-4.52 4.61 4.61 0 011.62-3.55 4.4 4.4 0 012.75-1 4.23 4.23 0 013.17 1.38v-1.19h1.05v8.66zm0-6.08a3.83 3.83 0 00-3.12-1.75 3.38 3.38 0 00-2.09.74 3.56 3.56 0 00-1.22 2.76 3.34 3.34 0 003.33 3.49 3.62 3.62 0 003.1-1.89zm4.81-6.55a1 1 0 011 1 1 1 0 01-1 .95.94.94 0 01-.95-.95 1 1 0 01.95-1zm-.53 4h1.08v8.66h-1.08zm4.31-4.86h1.08v13.49h-1.08zm3.93 13.49l6.22-13.3h1.1l-6.21 13.3zm10.83-6.42v6.42h-1.14v-13.3h4.92a3.87 3.87 0 012.61.8 3.48 3.48 0 010 5.28 3.82 3.82 0 01-2.61.8zm3.73-1.08a2.66 2.66 0 002.05-.71 2.3 2.3 0 00.68-1.65 2.34 2.34 0 00-.68-1.65 2.66 2.66 0 00-2.05-.7h-3.73v4.71zm11.89 7.5v-1.27a3.82 3.82 0 01-3.11 1.46 4.4 4.4 0 01-4.43-4.52 4.64 4.64 0 011.61-3.55 4.43 4.43 0 012.76-1 4.23 4.23 0 013.17 1.38v-1.19h1.05v8.66zm0-6.08a3.82 3.82 0 00-3.11-1.75 3.38 3.38 0 00-2.09.74 3.56 3.56 0 00-1.22 2.76 3.34 3.34 0 003.33 3.49 3.59 3.59 0 003.09-1.89zm4.09 4.2a4.08 4.08 0 002.62 1c1.08 0 2-.6 2-1.51 0-2.23-5-1-5-4a2.73 2.73 0 012.94-2.52 5 5 0 012.79.83l-.57.9a3.52 3.52 0 00-2.16-.71c-.91 0-1.92.48-1.92 1.49 0 1.91 5 .89 5 3.93a2.73 2.73 0 01-3 2.6 4.93 4.93 0 01-3.36-1.23zm8.07 0a4.08 4.08 0 002.62 1c1.09 0 2-.6 2-1.51 0-2.23-5-1-5-4a2.74 2.74 0 013-2.52 5.1 5.1 0 012.79.83l-.57.9a3.53 3.53 0 00-2.17-.71c-.91 0-1.92.48-1.92 1.49 0 1.91 5 .89 5 3.93a2.73 2.73 0 01-3 2.6 4.93 4.93 0 01-3.36-1.23zm7.98-9.04a3.68 3.68 0 013.71-2.57 3.57 3.57 0 013.79 3.42 3.82 3.82 0 01-1.86 3.16c-.95.7-2 1.12-2 1.72a1.74 1.74 0 00.64 1l-.79.76a2.32 2.32 0 01-.93-1.77c0-1.29 1.4-1.76 2.48-2.58a2.87 2.87 0 001.35-2.3 2.5 2.5 0 00-2.71-2.39 2.6 2.6 0 00-2.68 1.84zm3.61 9.14a1 1 0 11-1 1 1 1 0 011-1z"/><path d="M379.67 1h294.57v81.31a28.34 28.34 0 01-28.34 28.34H379.67h0V1h0z" fill="#fff" stroke="#291d54" stroke-miterlimit="10" stroke-width="2"/><path d="M465 29.87h-8.55v6.8h-1.14v-13.3h1.14v5.42H465v-5.42h1.14v13.3H465zm10.92 5.62a3.75 3.75 0 01-2.92 1.37 3.63 3.63 0 01-3.25-1.78 4.77 4.77 0 01-.52-2.46V28h1.09v4.44a3.79 3.79 0 00.49 2.25 2.59 2.59 0 002.19 1.14 3.35 3.35 0 002.88-1.8V28H477v8.66h-1.05zm5.32-6.3a3.72 3.72 0 012.93-1.37 3.62 3.62 0 013.25 1.84 4 4 0 013.4-1.84 3.69 3.69 0 013.25 1.82 4.84 4.84 0 01.51 2.45v4.58h-1.08v-4.44A3.7 3.7 0 00493 30a2.57 2.57 0 00-2.18-1.14 3.48 3.48 0 00-3 2 7.19 7.19 0 01.1 1.23v4.58h-1.08v-4.44a3.7 3.7 0 00-.5-2.25 2.57 2.57 0 00-2.18-1.14 3.36 3.36 0 00-2.89 1.81v6h-1.07V28h1zm23.16 7.48V35.4a3.8 3.8 0 01-3.11 1.46 4.4 4.4 0 01-4.43-4.52 4.61 4.61 0 011.62-3.55 4.38 4.38 0 012.75-1 4.23 4.23 0 013.17 1.38V28h1.05v8.66zm0-6.08a3.82 3.82 0 00-3.11-1.75 3.38 3.38 0 00-2.09.74 3.56 3.56 0 00-1.22 2.76 3.34 3.34 0 003.33 3.49 3.59 3.59 0 003.09-1.89zm5.32-1.37a3.78 3.78 0 013.06-1.4 3.73 3.73 0 013.08 1.46 4.18 4.18 0 01.74 2.77v4.62h-1.08v-4.54A3.4 3.4 0 00515 30a2.69 2.69 0 00-2.26-1.16 3.45 3.45 0 00-3 1.81v6h-1.08V28h1zm25.71 7.45h-1.5L532.16 35a5.38 5.38 0 01-4.25 1.88c-2.59 0-4.75-1.69-4.75-4a4.72 4.72 0 012.6-4 4.4 4.4 0 01-1.58-3 2.78 2.78 0 015.55 0c0 1.44-1.12 2.43-2.28 3.15l4.5 4.32a5.58 5.58 0 00.5-2.25 10.08 10.08 0 00-.29-2.24l1.06-.24a10.38 10.38 0 01.31 2.48 6.3 6.3 0 01-.78 3zm-7.52-.84a4.18 4.18 0 003.47-1.57l-4.82-4.64c-1.47.93-2.32 1.9-2.32 3.23 0 1.6 1.52 2.98 3.67 2.98zM527 24.21a1.64 1.64 0 00-1.7 1.67 3.39 3.39 0 001.22 2.22l.21.21c1-.64 2-1.38 2-2.43a1.63 1.63 0 00-1.73-1.67zm18.63-.84l5.74 13.3h-1.14l-1.75-4H542l-1.74 4h-1.14l5.73-13.3zm-3.15 8.21H548l-2.76-6.42zm17 3.91a3.73 3.73 0 01-2.92 1.37 3.64 3.64 0 01-3.25-1.78 4.88 4.88 0 01-.51-2.46V28h1.08v4.44a3.79 3.79 0 00.49 2.25 2.59 2.59 0 002.19 1.13 3.35 3.35 0 002.89-1.8V28h1.08v8.66h-1zM568.7 29h-3v4.75a2.19 2.19 0 00.38 1.45 1.79 1.79 0 001.45.6 3.25 3.25 0 00.93-.11l.19 1a4.46 4.46 0 01-1.12.15 2.92 2.92 0 01-2.32-1 3.18 3.18 0 01-.59-2.12V29h-2.43v-1h2.43v-2.35h1.08V28h3zm6.08 7.86a4.52 4.52 0 114.46-4.52 4.43 4.43 0 01-4.46 4.52zm0-8a3.5 3.5 0 103.38 3.5 3.38 3.38 0 00-3.38-3.52zm7.98.33a3.72 3.72 0 012.92-1.37 3.61 3.61 0 013.25 1.84 4 4 0 013.4-1.84 3.66 3.66 0 013.25 1.82 4.84 4.84 0 01.51 2.45v4.58H595v-4.44a3.79 3.79 0 00-.49-2.25 2.6 2.6 0 00-2.19-1.14 3.46 3.46 0 00-3 2 7.19 7.19 0 01.1 1.23v4.58h-1.09v-4.42a3.79 3.79 0 00-.49-2.25 2.6 2.6 0 00-2.19-1.14 3.36 3.36 0 00-2.88 1.81v6h-1.09V28h1zm23.16 7.48V35.4a3.84 3.84 0 01-3.12 1.46 4.4 4.4 0 01-4.42-4.52 4.6 4.6 0 011.62-3.55 4.4 4.4 0 012.76-1 4.23 4.23 0 013.17 1.38V28h1v8.66zm0-6.08a3.82 3.82 0 00-3.11-1.75 3.34 3.34 0 00-2.09.74 3.56 3.56 0 00-1.22 2.76 3.34 3.34 0 003.32 3.49 3.6 3.6 0 003.1-1.89zm9.21-1.59h-2.94v4.75a2.14 2.14 0 00.38 1.45 1.77 1.77 0 001.44.6 3.21 3.21 0 00.93-.11l.19 1a4.33 4.33 0 01-1.12.15 2.9 2.9 0 01-2.31-1 3.18 3.18 0 01-.59-2.12V29h-2.44v-1h2.44v-2.35h1.08V28h2.94zm9.5 6.27a4.5 4.5 0 01-3.53 1.59 4.3 4.3 0 01-4.35-4.52 4.24 4.24 0 014.14-4.52 4 4 0 014 4.23 3.07 3.07 0 010 .38h-7.07a3.29 3.29 0 003.27 3.4 3.44 3.44 0 002.77-1.29zm-6.74-3.82h5.91a2.94 2.94 0 00-2.91-2.61 3.09 3.09 0 00-3 2.61zM628.57 36a4.43 4.43 0 01-1.85-3.7 4.61 4.61 0 011.62-3.55 4.4 4.4 0 012.75-1 4.24 4.24 0 013.14 1.35v-6h1.08v13.57h-1V35.4a3.84 3.84 0 01-3.12 1.46 4.36 4.36 0 01-2.62-.86zm5.66-5.45a3.83 3.83 0 00-3.12-1.75 3.38 3.38 0 00-2.09.74 3.55 3.55 0 00-1.21 2.76 3.34 3.34 0 003.32 3.49 3.62 3.62 0 003.1-1.89zM478.77 46a6.6 6.6 0 016.61 6.84 7.08 7.08 0 01-1.57 4.52l1.95 2.13h-1.44l-1.25-1.39a6.5 6.5 0 01-4.3 1.58 6.84 6.84 0 010-13.68zm.93 6.84l3.35 3.67a6 6 0 001.19-3.67 5.48 5.48 0 10-5.47 5.76 5.32 5.32 0 003.55-1.31l-3.4-3.76zm12.85-6.67l5.73 13.3h-1.14l-1.74-4h-6.46l-1.75 4h-1.14l5.74-13.3zm-3.16 8.21h5.53L492.17 48zm20.1-2.55h-2.94v4.75a2.14 2.14 0 00.38 1.45 1.77 1.77 0 001.44.61 3.25 3.25 0 00.93-.12l.19 1a4.33 4.33 0 01-1.12.15 2.91 2.91 0 01-2.31-1 3.18 3.18 0 01-.59-2.12v-4.72H503v-1h2.43v-2.38h1.08v2.36h2.94zm9.51 6.24a4.5 4.5 0 01-3.53 1.59 4.3 4.3 0 01-4.35-4.52 4.24 4.24 0 014.14-4.52 4 4 0 014 4.23 3.07 3.07 0 010 .38h-7.07a3.3 3.3 0 003.27 3.41 3.44 3.44 0 002.77-1.3zm-6.74-3.82h5.91a2.94 2.94 0 00-2.91-2.61 3.09 3.09 0 00-3.01 2.61zm9.3 3.34a4.09 4.09 0 002.62 1c1.08 0 2-.61 2-1.52 0-2.23-5-1-5-4a2.73 2.73 0 012.94-2.52 5.11 5.11 0 012.8.83l-.57.9a3.55 3.55 0 00-2.17-.71c-.91 0-1.92.48-1.92 1.49 0 1.91 5 .89 5 3.93a2.73 2.73 0 01-3 2.6 4.89 4.89 0 01-3.36-1.23zm13.2-5.76h-2.94v4.75a2.14 2.14 0 00.38 1.42 1.77 1.77 0 001.44.61 3.25 3.25 0 00.93-.12l.19 1a4.33 4.33 0 01-1.12.15 2.9 2.9 0 01-2.31-1 3.18 3.18 0 01-.59-2.12v-4.69h-2.43v-1h2.43v-2.38h1.08v2.36h2.94zm2.57 5.76a4.09 4.09 0 002.62 1c1.08 0 2-.61 2-1.52 0-2.23-5-1-5-4a2.73 2.73 0 012.94-2.52 5.11 5.11 0 012.8.83l-.57.9a3.55 3.55 0 00-2.17-.71c-.91 0-1.92.48-1.92 1.49 0 1.91 5 .89 5 3.93a2.73 2.73 0 01-3 2.6 4.93 4.93 0 01-3.37-1.23zm13.2 0a4.13 4.13 0 002.63 1c1.08 0 2-.61 2-1.52 0-2.23-5-1-5-4a2.74 2.74 0 013-2.52 5 5 0 012.79.83l-.57.9a3.52 3.52 0 00-2.16-.71c-.92 0-1.92.48-1.92 1.49 0 1.91 5 .89 5 3.93a2.72 2.72 0 01-3 2.6 4.93 4.93 0 01-3.36-1.23zm15.05 1.88V58.2a3.82 3.82 0 01-3.11 1.46 4.4 4.4 0 01-4.47-4.52 4.64 4.64 0 011.61-3.55 4.43 4.43 0 012.76-1 4.2 4.2 0 013.21 1.41v-1.2h1v8.66zm0-6.08a3.82 3.82 0 00-3.11-1.75 3.33 3.33 0 00-2.09.75 3.53 3.53 0 00-1.22 2.75 3.36 3.36 0 003.33 3.5 3.6 3.6 0 003.09-1.9zM570.9 52a3.72 3.72 0 012.93-1.37 3.62 3.62 0 013.25 1.84 4 4 0 013.4-1.84 3.66 3.66 0 013.24 1.82 4.72 4.72 0 01.52 2.45v4.58h-1.09V55a3.79 3.79 0 00-.49-2.25 2.58 2.58 0 00-2.18-1.14 3.48 3.48 0 00-3 2 7.19 7.19 0 01.1 1.23v4.58h-1.08V55a3.7 3.7 0 00-.5-2.25 2.57 2.57 0 00-2.18-1.14 3.36 3.36 0 00-2.89 1.81v6h-1.08v-8.61h1zm16.38 12V50.81h1V52a4.21 4.21 0 013.18-1.39 4.4 4.4 0 012.75 1 4.61 4.61 0 011.62 3.55 4.43 4.43 0 01-1.85 3.7 4.36 4.36 0 01-2.58.82 3.85 3.85 0 01-3.08-1.42V64zm1.08-7.29a3.63 3.63 0 003.1 1.9 3.35 3.35 0 003.32-3.5 3.52 3.52 0 00-1.21-2.75 3.33 3.33 0 00-2.09-.75 3.83 3.83 0 00-3.12 1.75zM598.34 46h1.08v13.47h-1.08zm11.43 12.07a4.5 4.5 0 01-3.53 1.59 4.3 4.3 0 01-4.35-4.52 4.24 4.24 0 014.11-4.52 4 4 0 014 4.23 3.07 3.07 0 010 .38h-7a3.3 3.3 0 003.27 3.41 3.44 3.44 0 002.77-1.3zM603 54.25h5.91a2.94 2.94 0 00-2.91-2.61 3.09 3.09 0 00-3 2.61zm9.34 3.34a4.09 4.09 0 002.62 1c1.08 0 2-.61 2-1.52 0-2.23-5-1-5-4a2.73 2.73 0 012.94-2.52 5.11 5.11 0 012.8.83l-.57.9a3.55 3.55 0 00-2.17-.71c-.91 0-1.92.48-1.92 1.49 0 1.91 5 .89 5 3.93a2.73 2.73 0 01-3 2.6 5 5 0 01-3.37-1.23zm-117.8 24.68V81a3.82 3.82 0 01-3.11 1.46 4.4 4.4 0 01-4.43-4.52 4.64 4.64 0 011.61-3.55 4.43 4.43 0 012.76-1 4.2 4.2 0 013.17 1.39v-1.2h1v8.66zm0-6.08a3.82 3.82 0 00-3.11-1.75 3.38 3.38 0 00-2.09.74 3.56 3.56 0 00-1.22 2.76 3.34 3.34 0 003.33 3.49 3.59 3.59 0 003.09-1.89zM506.17 85a4 4 0 01-3.76 2 4.59 4.59 0 01-3.93-2l.85-.63a3.52 3.52 0 003.1 1.67 2.89 2.89 0 002.79-1.48 4.83 4.83 0 00.34-2.24V81a3.83 3.83 0 01-3.08 1.42 4.4 4.4 0 01-4.42-4.52 4.6 4.6 0 011.61-3.55 4.4 4.4 0 012.76-1 4.2 4.2 0 013.17 1.39v-1.2h1v8.62a5.91 5.91 0 01-.43 2.84zm-.61-8.84a3.82 3.82 0 00-3.11-1.75 3.34 3.34 0 00-2.09.74 3.56 3.56 0 00-1.22 2.76 3.34 3.34 0 003.32 3.49 3.6 3.6 0 003.1-1.89zm11.1 6.11V81a3.84 3.84 0 01-3.12 1.46 4.36 4.36 0 01-2.58-.82 4.43 4.43 0 01-1.85-3.7 4.61 4.61 0 011.62-3.55 4.4 4.4 0 012.75-1 4.21 4.21 0 013.18 1.39v-1.2h1v8.66zm0-6.08a3.83 3.83 0 00-3.12-1.75 3.38 3.38 0 00-2.09.74 3.55 3.55 0 00-1.21 2.76 3.34 3.34 0 003.32 3.49 3.61 3.61 0 003.1-1.89zm4.8-6.55a1 1 0 011 1 1 1 0 01-1 1 .94.94 0 01-1-1 1 1 0 011-1zm-.53 4H522v8.66h-1.09zm5.36 1.18a4 4 0 016.14.06 4.18 4.18 0 01.74 2.77v4.62h-1.09v-4.54a3.48 3.48 0 00-.49-2.13 2.69 2.69 0 00-2.26-1.16 3.43 3.43 0 00-3 1.81v6h-1.08v-8.64h1zm9.71 5.57a4.08 4.08 0 002.62 1c1.08 0 2-.6 2-1.51 0-2.23-5-1-5-4a2.73 2.73 0 012.94-2.52 5.11 5.11 0 012.8.83l-.57.9a3.57 3.57 0 00-2.17-.71c-.91 0-1.92.48-1.92 1.49 0 1.91 5 .89 5 3.93a2.73 2.73 0 01-3 2.6 4.93 4.93 0 01-3.37-1.23zm13.22-5.76h-2.94v4.75a2.14 2.14 0 00.38 1.45 1.77 1.77 0 001.44.6 3.21 3.21 0 00.93-.11l.19 1a4.39 4.39 0 01-1.12.15 2.92 2.92 0 01-2.32-1 3.18 3.18 0 01-.58-2.12v-4.72h-2.44v-1h2.44v-2.38h1.08v2.36h2.94zm12.11-.17a5.07 5.07 0 00-.52 0 3 3 0 00-2.71 1.92v5.91H557v-8.68h1.09v1.14a3.29 3.29 0 012.73-1.33 6.48 6.48 0 01.65 0zm8.74 6.63a3.75 3.75 0 01-2.93 1.37 3.64 3.64 0 01-3.25-1.78 4.88 4.88 0 01-.51-2.46v-4.61h1.08v4.44a3.79 3.79 0 00.54 2.25 2.59 2.59 0 002.19 1.13 3.35 3.35 0 002.89-1.8v-6h1.08v8.66h-1zm5.32-.09v1.27h-1V68.78h1.08v6a4.24 4.24 0 013.14-1.35 4.4 4.4 0 012.75 1 4.61 4.61 0 011.62 3.55 4.4 4.4 0 01-4.43 4.52 3.8 3.8 0 01-3.16-1.5zm0-1.46a3.62 3.62 0 003.1 1.89 3.33 3.33 0 003.32-3.49 3.55 3.55 0 00-1.21-2.76 3.38 3.38 0 00-2.09-.74 3.83 3.83 0 00-3.12 1.75zm14.32-5.08a4.79 4.79 0 00-.51 0 3 3 0 00-2.72 1.92v5.91h-1.08v-8.68h1.08v1.14a3.33 3.33 0 012.74-1.33 6.1 6.1 0 01.64 0zm2.87-4.82a1 1 0 011 1 1 1 0 01-1 1 .94.94 0 01-1-1 1 1 0 011-1zm-.53 4h1.08v8.66h-1.08zM603.77 81a4.57 4.57 0 01-3.42 1.5 4.51 4.51 0 01-4.65-4.52 4.46 4.46 0 014.48-4.52 4.55 4.55 0 013.31 1.35l-.69.78a3.69 3.69 0 00-2.62-1.11 3.5 3.5 0 00.15 7 3.6 3.6 0 002.67-1.24z"/><circle cx="414.34" cy="34.74" r="18.9" fill="#fff200"/><circle cx="410.14" cy="30.54" r="18.9" fill="#291d54"/><path d="M408.5 36.6a.09.09 0 00.1.06h5.92a.33.33 0 01.23.09.32.32 0 01.09.23V39a.32.32 0 01-.09.23.34.34 0 01-.23.1h-9.43a.34.34 0 01-.23-.1.32.32 0 01-.09-.23v-2.13a.58.58 0 01.13-.4L406 35c.7-.94 1.39-1.89 2.06-2.87s1.25-1.84 1.72-2.62a8.87 8.87 0 001.56-4.29 2.7 2.7 0 00-.47-1.7 1.5 1.5 0 00-1.25-.62 1.47 1.47 0 00-1.25.61 2.49 2.49 0 00-.43 1.6v1.06a.31.31 0 01-.32.32H405a.32.32 0 01-.23-.09.33.33 0 01-.09-.23v-1.12a5 5 0 011.47-3.49 4.85 4.85 0 013.52-1.32 4.49 4.49 0 013.44 1.39 5.1 5.1 0 011.31 3.66A8 8 0 01414 28a13 13 0 01-1.45 2.84c-.45.72-1 1.51-1.61 2.37s-1 1.43-1.23 1.7c-.54.72-.94 1.26-1.19 1.62-.03 0-.04.04-.02.07z" fill="#fff"/><path d="M1 271h294.58v81.31a28.34 28.34 0 01-28.34 28.34H1h0V271h0z" fill="#fff" stroke="#291d54" stroke-miterlimit="10" stroke-width="2"/><path d="M78 294.46v4.33h4.75v1.08H78v6.8h-1.1v-13.3h7.22v1.09zm14.67 10.81a4.51 4.51 0 01-3.53 1.59 4.29 4.29 0 01-4.35-4.52 4.24 4.24 0 014.14-4.52 4 4 0 014 4.23v.38h-7.06a3.28 3.28 0 003.27 3.4 3.44 3.44 0 002.77-1.29zm-6.74-3.82h5.9a2.93 2.93 0 00-2.9-2.61 3.09 3.09 0 00-3 2.61zm16.71 3.82a4.5 4.5 0 01-3.53 1.59 4.3 4.3 0 01-4.35-4.52 4.24 4.24 0 014.14-4.52 4 4 0 014 4.23 3.07 3.07 0 010 .38h-7.06a3.29 3.29 0 003.27 3.4 3.44 3.44 0 002.77-1.29zm-6.74-3.82h5.91a2.94 2.94 0 00-2.91-2.61 3.09 3.09 0 00-3 2.61zm10.68 4.55a4.43 4.43 0 01-1.84-3.7 4.6 4.6 0 011.61-3.55 4.4 4.4 0 012.75-1 4.24 4.24 0 013.14 1.35v-6h1.08v13.49h-1v-1.19a3.84 3.84 0 01-3.12 1.46 4.36 4.36 0 01-2.62-.86zm5.66-5.45a3.83 3.83 0 00-3.12-1.75 3.38 3.38 0 00-2.09.74 3.55 3.55 0 00-1.21 2.76 3.34 3.34 0 003.32 3.49 3.6 3.6 0 003.1-1.89zm5.36 4.85v1.27h-1v-13.49h1.09v6a4.2 4.2 0 013.13-1.35 4.43 4.43 0 012.76 1 4.64 4.64 0 011.61 3.55 4.4 4.4 0 01-4.43 4.52 3.8 3.8 0 01-3.16-1.5zm0-1.46a3.59 3.59 0 003.09 1.89 3.34 3.34 0 003.33-3.49 3.56 3.56 0 00-1.22-2.76 3.38 3.38 0 00-2.09-.74 3.82 3.82 0 00-3.11 1.75zm16.98 2.73v-1.27a3.8 3.8 0 01-3.11 1.46 4.4 4.4 0 01-4.43-4.52 4.61 4.61 0 011.62-3.55 4.38 4.38 0 012.75-1 4.23 4.23 0 013.17 1.38V298h1v8.66zm0-6.08a3.82 3.82 0 00-3.11-1.75 3.38 3.38 0 00-2.09.74 3.56 3.56 0 00-1.22 2.76 3.34 3.34 0 003.33 3.49 3.59 3.59 0 003.09-1.89zm11.69 4.77a4.59 4.59 0 01-3.42 1.5 4.51 4.51 0 01-4.66-4.52 4.46 4.46 0 014.49-4.52 4.52 4.52 0 013.3 1.35l-.68.78a3.71 3.71 0 00-2.62-1.11 3.5 3.5 0 00.15 7 3.6 3.6 0 002.66-1.19zm8.19 1.31l-4.92-4.58v4.58h-1.09v-13.49h1.09v8.44L154 298h1.62l-4.75 3.89 5.15 4.77zm8.54 4.56V298h1v1.19a4.23 4.23 0 013.17-1.38 4.4 4.4 0 012.76 1 4.6 4.6 0 011.61 3.55 4.4 4.4 0 01-4.42 4.52 3.85 3.85 0 01-3.08-1.42v5.79zm1.08-7.29a3.6 3.6 0 003.1 1.89 3.34 3.34 0 003.32-3.49 3.56 3.56 0 00-1.22-2.76 3.34 3.34 0 00-2.09-.74 3.82 3.82 0 00-3.11 1.75zm14.3-5.08a5.07 5.07 0 00-.52 0 3 3 0 00-2.71 1.92v5.91h-1.09V298h1.09v1.14a3.31 3.31 0 012.73-1.33 6.48 6.48 0 01.65 0zm5.75 8a4.52 4.52 0 114.47-4.52 4.42 4.42 0 01-4.47 4.52zm0-8a3.5 3.5 0 103.38 3.5 3.38 3.38 0 00-3.38-3.52zm9.54 7.81l-4-8.66h1.18l3.19 6.91 3.2-6.91h1.17l-4 8.66zm7.15-12.67a1 1 0 011 1 1 1 0 01-1 .95.94.94 0 01-.95-.95 1 1 0 01.95-1zm-.54 4h1.09v8.66h-1.09zm5.4 8a4.43 4.43 0 01-1.84-3.7 4.6 4.6 0 011.61-3.55 4.4 4.4 0 012.76-1 4.24 4.24 0 013.13 1.35v-6h1.08v13.49h-1v-1.19a3.84 3.84 0 01-3.12 1.46 4.38 4.38 0 01-2.62-.86zm5.66-5.45a3.82 3.82 0 00-3.11-1.75 3.34 3.34 0 00-2.09.74 3.56 3.56 0 00-1.22 2.76 3.34 3.34 0 003.32 3.49 3.6 3.6 0 003.1-1.89zm11.44 4.72a4.52 4.52 0 01-3.54 1.59 4.3 4.3 0 01-4.35-4.52 4.25 4.25 0 014.15-4.52 4 4 0 014 4.23 3.07 3.07 0 010 .38H216a3.27 3.27 0 003.26 3.4 3.47 3.47 0 002.78-1.29zm-6.78-3.82h5.91a2.93 2.93 0 00-2.9-2.61 3.11 3.11 0 00-3.01 2.61zm10.71 4.55a4.43 4.43 0 01-1.84-3.7 4.64 4.64 0 011.61-3.55 4.43 4.43 0 012.76-1 4.2 4.2 0 013.13 1.35v-6h1.09v13.49h-1.05v-1.19a3.82 3.82 0 01-3.11 1.46 4.41 4.41 0 01-2.59-.86zm5.66-5.45a3.82 3.82 0 00-3.11-1.75 3.38 3.38 0 00-2.09.74 3.56 3.56 0 00-1.22 2.76 3.34 3.34 0 003.33 3.49 3.59 3.59 0 003.09-1.89zm14.39-1.55h-2.95v4.75a2.14 2.14 0 00.38 1.45 1.78 1.78 0 001.44.6 3.32 3.32 0 00.94-.11l.19 1a4.47 4.47 0 01-1.13.15 2.91 2.91 0 01-2.31-1 3.18 3.18 0 01-.59-2.12V299h-2.43v-1h2.43v-2.36h1.08V298h2.95zm6.08 7.86a4.52 4.52 0 114.46-4.52 4.42 4.42 0 01-4.46 4.52zm0-8a3.5 3.5 0 103.38 3.5 3.39 3.39 0 00-3.38-3.52zM74.35 329.47v-1.27a3.8 3.8 0 01-3.11 1.46 4.4 4.4 0 01-4.43-4.52 4.61 4.61 0 011.62-3.55 4.4 4.4 0 012.75-1 4.2 4.2 0 013.17 1.41v-1.2h1.05v8.66zm0-6.08a3.83 3.83 0 00-3.12-1.75 3.33 3.33 0 00-2.09.75 3.53 3.53 0 00-1.22 2.75 3.36 3.36 0 003.33 3.5 3.63 3.63 0 003.1-1.9zM86 332.23a4 4 0 01-3.76 2 4.6 4.6 0 01-3.93-2.07l.85-.63a3.52 3.52 0 003.1 1.67 2.89 2.89 0 002.74-1.49 4.83 4.83 0 00.34-2.24v-1.23a3.83 3.83 0 01-3.07 1.42 4.4 4.4 0 01-4.43-4.52 4.64 4.64 0 011.61-3.55 4.43 4.43 0 012.76-1 4.2 4.2 0 013.2 1.41v-1.2h1v8.62a5.9 5.9 0 01-.41 2.81zm-.61-8.84a3.82 3.82 0 00-3.11-1.75 3.33 3.33 0 00-2.09.75 3.53 3.53 0 00-1.19 2.75 3.36 3.36 0 003.33 3.5 3.6 3.6 0 003.09-1.9zm11.42 4.68a4.51 4.51 0 01-3.53 1.59 4.3 4.3 0 01-4.35-4.52 4.24 4.24 0 014.14-4.52 4 4 0 014 4.23 3.07 3.07 0 010 .38H90a3.29 3.29 0 003.27 3.41 3.44 3.44 0 002.77-1.3zm-6.74-3.82H96a2.93 2.93 0 00-2.9-2.61 3.09 3.09 0 00-3.03 2.61zm10.54-2.25a4 4 0 016.14.06 4.18 4.18 0 01.74 2.77v4.62h-1.08v-4.54a3.4 3.4 0 00-.5-2.13 2.69 2.69 0 00-2.26-1.16 3.43 3.43 0 00-3 1.81v6h-1.08v-8.66h1zm14.76-.17h-2.94v4.75a2.14 2.14 0 00.38 1.45 1.77 1.77 0 001.44.61 3.25 3.25 0 00.93-.12l.19 1a4.39 4.39 0 01-1.12.15 2.9 2.9 0 01-2.31-1 3.18 3.18 0 01-.59-2.12v-4.72h-2.43v-1h2.43v-2.36h1.08v2.36h2.94zm3.43 7.64l6.21-13.3h1.1l-6.21 13.3zm15.61-7.81a4.79 4.79 0 00-.51 0 3 3 0 00-2.72 1.92v5.91h-1.08v-8.66h1.08V322a3.33 3.33 0 012.74-1.33 6.1 6.1 0 01.64 0zm9.18 6.41a4.52 4.52 0 01-3.54 1.59 4.3 4.3 0 01-4.35-4.52 4.25 4.25 0 014.15-4.52 4 4 0 014 4.23 3.07 3.07 0 010 .38h-7.06a3.28 3.28 0 003.26 3.41 3.46 3.46 0 002.78-1.3zm-6.75-3.82h5.91a2.93 2.93 0 00-2.9-2.61 3.11 3.11 0 00-3.01 2.61zm14.44-2.42h-2.94v4.75a2.14 2.14 0 00.38 1.45 1.77 1.77 0 001.44.61 3.25 3.25 0 00.93-.12l.19 1a4.33 4.33 0 01-1.12.15 2.89 2.89 0 01-2.31-1 3.18 3.18 0 01-.59-2.12v-4.72h-2.44v-1h2.44v-2.36h1.08v2.36h2.94zm6.98-.17a5.07 5.07 0 00-.52 0 3 3 0 00-2.71 1.92v5.91h-1.09v-8.66H155V322a3.31 3.31 0 012.73-1.33 6.3 6.3 0 01.65 0zm8.83 7.81v-1.27a3.82 3.82 0 01-3.11 1.46 4.4 4.4 0 01-4.43-4.52 4.64 4.64 0 011.61-3.55 4.43 4.43 0 012.76-1 4.2 4.2 0 013.17 1.39v-1.2h1v8.66zm0-6.08a3.82 3.82 0 00-3.11-1.75 3.33 3.33 0 00-2.09.75 3.53 3.53 0 00-1.22 2.75 3.36 3.36 0 003.33 3.5 3.6 3.6 0 003.09-1.9zm4.81-6.55a1 1 0 011 1 1 1 0 01-1 .95.94.94 0 01-1-.95 1 1 0 011-1zm-.53 4h1.08v8.66h-1.08zm5.35 1.16a3.78 3.78 0 013.06-1.4 3.73 3.73 0 013.08 1.46 4.12 4.12 0 01.74 2.77v4.62h-1.08v-4.54a3.48 3.48 0 00-.49-2.13 2.72 2.72 0 00-2.27-1.16 3.45 3.45 0 00-3 1.81v6h-1.08v-8.66h1zm10.45-5.16a1 1 0 011 1 1 1 0 01-1 .95.94.94 0 01-.95-.95 1 1 0 01.95-1zm-.53 4h1.09v8.66h-1.09zM192 322a4 4 0 016.14.06 4.18 4.18 0 01.74 2.77v4.62h-1.09v-4.54a3.48 3.48 0 00-.49-2.13 2.69 2.69 0 00-2.26-1.16 3.43 3.43 0 00-3 1.81v6H191v-8.66h1zm17.27 10.23a4 4 0 01-3.76 2 4.6 4.6 0 01-3.93-2.07l.85-.63a3.52 3.52 0 003.1 1.67 2.89 2.89 0 002.79-1.48 4.83 4.83 0 00.34-2.24v-1.23a3.83 3.83 0 01-3.07 1.42 4.4 4.4 0 01-4.43-4.52 4.64 4.64 0 011.61-3.55 4.43 4.43 0 012.76-1 4.2 4.2 0 013.17 1.4v-1.2h1.05v8.62a5.9 5.9 0 01-.48 2.81zm-.61-8.84a3.82 3.82 0 00-3.11-1.75 3.33 3.33 0 00-2.09.75 3.53 3.53 0 00-1.22 2.75 3.36 3.36 0 003.33 3.5 3.6 3.6 0 003.09-1.9zm5.08 6.08l6.21-13.3h1.1l-6.21 13.3zm18.43-1.4a4.54 4.54 0 01-3.54 1.59 4.3 4.3 0 01-4.35-4.52 4.24 4.24 0 014.14-4.52 4 4 0 014 4.23 3.07 3.07 0 010 .38h-7.07a3.3 3.3 0 003.27 3.41 3.48 3.48 0 002.78-1.3zm-6.75-3.82h5.91a2.94 2.94 0 00-2.91-2.61 3.09 3.09 0 00-3 2.61zm12.08 1.29l-2.83 3.93h-1.27l3.34-4.65-2.86-4h1.27l2.35 3.29 2.36-3.29h1.27l-2.87 4 3.35 4.65h-1.27zm11.42-3.71H246v4.75a2.14 2.14 0 00.38 1.45 1.77 1.77 0 001.44.61 3.25 3.25 0 00.93-.12l.19 1a4.39 4.39 0 01-1.12.15 2.89 2.89 0 01-2.31-1 3.12 3.12 0 01-.59-2.12v-4.72h-2.44v-1h2.44v-2.36H246v2.36h2.94zm6.98-.17a5.07 5.07 0 00-.52 0 3 3 0 00-2.71 1.92v5.91h-1.09v-8.66h1.09V322a3.31 3.31 0 012.73-1.33 6.48 6.48 0 01.65 0zm8.83 7.81v-1.27a3.82 3.82 0 01-3.11 1.46 4.4 4.4 0 01-4.43-4.52 4.64 4.64 0 011.61-3.55 4.43 4.43 0 012.76-1 4.2 4.2 0 013.17 1.39v-1.2h1v8.66zm0-6.08a3.82 3.82 0 00-3.11-1.75 3.33 3.33 0 00-2.09.75 3.53 3.53 0 00-1.22 2.75 3.36 3.36 0 003.33 3.5 3.6 3.6 0 003.09-1.9zM84.09 351a4.57 4.57 0 01-3.42 1.5 4.51 4.51 0 01-4.67-4.56 4.46 4.46 0 014.48-4.52 4.55 4.55 0 013.31 1.35l-.69.78a3.69 3.69 0 00-2.62-1.11 3.5 3.5 0 00.15 7 3.6 3.6 0 002.66-1.19zm5.91 1.46a4.52 4.52 0 114.47-4.52 4.42 4.42 0 01-4.47 4.52zm0-8a3.5 3.5 0 103.38 3.5 3.38 3.38 0 00-3.38-3.52zm13.89 7.81V351a3.84 3.84 0 01-3.12 1.46 4.4 4.4 0 01-4.42-4.52 4.6 4.6 0 011.65-3.55 4.4 4.4 0 012.76-1 4.2 4.2 0 013.17 1.39v-1.2h1v8.66zm0-6.08a3.82 3.82 0 00-3.11-1.75 3.34 3.34 0 00-2.09.74 3.56 3.56 0 00-1.22 2.76 3.34 3.34 0 003.32 3.49 3.6 3.6 0 003.1-1.89zm11.68 4.81a4.57 4.57 0 01-3.42 1.5 4.51 4.51 0 01-4.65-4.52 4.46 4.46 0 014.48-4.52 4.53 4.53 0 013.31 1.35l-.69.78a3.69 3.69 0 00-2.62-1.11 3.5 3.5 0 00.15 7 3.6 3.6 0 002.66-1.19zm3.27-6.23a4 4 0 016.1.11 4.18 4.18 0 01.74 2.77v4.62h-1.08v-4.54a3.4 3.4 0 00-.5-2.13 2.69 2.69 0 00-2.26-1.16 3.45 3.45 0 00-3 1.81v6h-1.08v-13.47h1.08zm10.41-5.13a1 1 0 011 1 1 1 0 01-1 .95.94.94 0 01-.95-.95 1 1 0 01.95-1zm-.53 4h1.08v8.66h-1.08zm5.36 1.18a4 4 0 016.14.06 4.18 4.18 0 01.74 2.77v4.62h-1.09v-4.54a3.48 3.48 0 00-.49-2.13 2.69 2.69 0 00-2.26-1.16 3.43 3.43 0 00-3 1.81v6H133v-8.66h1.05zM151.35 355a4 4 0 01-3.76 2 4.6 4.6 0 01-3.93-2.07l.85-.63a3.52 3.52 0 003.1 1.67 2.89 2.89 0 002.79-1.48 4.83 4.83 0 00.34-2.24V351a3.83 3.83 0 01-3.08 1.42 4.4 4.4 0 01-4.42-4.52 4.6 4.6 0 011.61-3.55 4.4 4.4 0 012.76-1 4.2 4.2 0 013.17 1.39v-1.2h1v8.62a5.91 5.91 0 01-.43 2.84zm-.61-8.84a3.82 3.82 0 00-3.11-1.75 3.34 3.34 0 00-2.09.74 3.56 3.56 0 00-1.22 2.76 3.34 3.34 0 003.33 3.49 3.59 3.59 0 003.09-1.89zm9.98-6.52a1 1 0 011 1 1 1 0 01-1 .95.94.94 0 01-.95-.95 1 1 0 01.95-1zm-.53 4h1.08v8.66h-1.08zm8.94-3.95a2.67 2.67 0 00-.64-.07 1.94 1.94 0 00-1.69.82 2.82 2.82 0 00-.4 1.8v1.37h2.94v1h-2.94v7.64h-1.08v-7.64h-2.25v-1h2.25v-1.31a3.86 3.86 0 01.72-2.64 3.13 3.13 0 012.47-1.07 3.77 3.77 0 01.83.1zm8.19 5.13a3.78 3.78 0 013.06-1.4 3.73 3.73 0 013.08 1.46 4.18 4.18 0 01.74 2.77v4.62h-1.08v-4.54a3.4 3.4 0 00-.5-2.13 2.69 2.69 0 00-2.26-1.16 3.45 3.45 0 00-3 1.81v6h-1.08v-8.66h1zm17.04 6.05a4.5 4.5 0 01-3.53 1.59 4.3 4.3 0 01-4.35-4.52 4.24 4.24 0 014.14-4.52 4 4 0 014 4.23 3.07 3.07 0 010 .38h-7.07a3.29 3.29 0 003.27 3.4 3.47 3.47 0 002.78-1.29zm-6.74-3.82h5.91a2.94 2.94 0 00-2.91-2.61 3.09 3.09 0 00-3 2.61zm17 3.95a4.57 4.57 0 01-3.42 1.5 4.51 4.51 0 01-4.65-4.52 4.46 4.46 0 014.48-4.52 4.53 4.53 0 013.31 1.35l-.68.78a3.71 3.71 0 00-2.63-1.11 3.5 3.5 0 00.16 7 3.63 3.63 0 002.66-1.19zm9.31-.13a4.5 4.5 0 01-3.53 1.59 4.3 4.3 0 01-4.35-4.52 4.24 4.24 0 014.14-4.52 4 4 0 014 4.23 3.07 3.07 0 010 .38h-7.07a3.29 3.29 0 003.27 3.4 3.44 3.44 0 002.77-1.29zm-6.74-3.82h5.91a2.94 2.94 0 00-2.91-2.61 3.09 3.09 0 00-3 2.61zm9.31 3.34a4.08 4.08 0 002.62 1c1.08 0 2-.6 2-1.51 0-2.23-5-1-5-4a2.73 2.73 0 012.94-2.52 5.11 5.11 0 012.8.83l-.57.9a3.55 3.55 0 00-2.17-.71c-.91 0-1.92.48-1.92 1.49 0 1.91 5 .89 5 3.93a2.73 2.73 0 01-3 2.6 4.89 4.89 0 01-3.36-1.23zm8.07 0a4.12 4.12 0 002.63 1c1.08 0 2-.6 2-1.51 0-2.23-5-1-5-4a2.73 2.73 0 012.94-2.52 5 5 0 012.79.83l-.57.9a3.52 3.52 0 00-2.16-.71c-.92 0-1.92.48-1.92 1.49 0 1.91 5 .89 5 3.93a2.72 2.72 0 01-3 2.6 4.93 4.93 0 01-3.36-1.23zm15.05 1.88V351a3.82 3.82 0 01-3.11 1.46 4.4 4.4 0 01-4.43-4.52 4.64 4.64 0 011.61-3.55 4.43 4.43 0 012.76-1 4.2 4.2 0 013.17 1.39v-1.2h1v8.66zm0-6.08a3.82 3.82 0 00-3.11-1.75 3.38 3.38 0 00-2.09.74 3.56 3.56 0 00-1.22 2.76 3.34 3.34 0 003.33 3.49 3.59 3.59 0 003.09-1.89zm8.59-1.73a4.89 4.89 0 00-.51 0 3 3 0 00-2.72 1.92v5.91h-1.08v-8.66h1.1v1.14a3.33 3.33 0 012.74-1.33 6.1 6.1 0 01.64 0zm3.02 12.37l2.38-5.26-3.92-8h1.22l3.25 6.72 3.06-6.72h1.15l-6 13.22z"/><circle cx="35.68" cy="304.74" r="18.9" fill="#fff200"/><circle cx="31.48" cy="300.54" r="18.9" fill="#291d54"/><path d="M36 301.7a.32.32 0 01.09.23v2.19a.33.33 0 01-.09.23.32.32 0 01-.23.09H35a.13.13 0 00-.14.14V309a.32.32 0 01-.09.23.33.33 0 01-.23.1h-2.49a.33.33 0 01-.23-.1.29.29 0 01-.1-.23v-4.45c0-.09 0-.14-.13-.14H25a.32.32 0 01-.23-.09.3.3 0 01-.1-.23v-1.76a1.16 1.16 0 01.06-.4l3.75-11.23a.34.34 0 01.35-.27h2.7a.3.3 0 01.24.09.27.27 0 010 .28l-3.46 10.61c0 .11 0 .17.11.17h3.19c.09 0 .13-.05.13-.14v-3.24a.3.3 0 01.1-.23.32.32 0 01.23-.09h2.48a.32.32 0 01.23.09.33.33 0 01.09.23v3.24a.13.13 0 00.14.14h.81a.32.32 0 01.18.12z" fill="#fff"/><path d="M189.87 487.18h294.58v81.31a28.34 28.34 0 01-28.34 28.34H189.87h0V487.18h0z" fill="#fff" stroke="#291d54" stroke-miterlimit="10" stroke-width="2"/><path d="M274.09 528.31a4 4 0 012.34 3.61 3.93 3.93 0 01-1.31 2.93 4.31 4.31 0 01-3 1h-4.79v-13.3h4.35a3.54 3.54 0 012.6.9 3.21 3.21 0 011 2.35 3.26 3.26 0 01-1.19 2.51zm-2.49-.31a2.55 2.55 0 002-.7 2.12 2.12 0 00.57-1.47 2.1 2.1 0 00-.57-1.46 2.51 2.51 0 00-2-.7h-3.15V528zm-3.15 1.08v5.72H272a3.18 3.18 0 002.38-.8 2.85 2.85 0 000-4.1 3.18 3.18 0 00-2.38-.82zm17.04 6.77v-1.27a3.8 3.8 0 01-3.11 1.46 4.38 4.38 0 01-4.43-4.52 4.61 4.61 0 011.62-3.55 4.4 4.4 0 012.75-1 4.2 4.2 0 013.17 1.39v-1.2h1.05v8.66zm0-6.08a3.82 3.82 0 00-3.11-1.75 3.33 3.33 0 00-2.09.75 3.53 3.53 0 00-1.22 2.75 3.36 3.36 0 003.33 3.5 3.6 3.6 0 003.09-1.9zm9.22-1.55h-2.95V533a2.14 2.14 0 00.38 1.45 1.79 1.79 0 001.45.61 3.34 3.34 0 00.93-.12l.19 1a4.46 4.46 0 01-1.12.15 2.92 2.92 0 01-2.32-1 3.18 3.18 0 01-.59-2.12v-4.71h-2.43v-1h2.43v-2.36h1.08v2.36h2.95zm9.78 6.32a4.57 4.57 0 01-3.42 1.5 4.51 4.51 0 01-4.65-4.52 4.46 4.46 0 014.48-4.52 4.53 4.53 0 013.31 1.35l-.69.78a3.69 3.69 0 00-2.62-1.13 3.5 3.5 0 00.15 7 3.61 3.61 0 002.66-1.2zm3.27-6.19a4 4 0 016.1.11 4.19 4.19 0 01.74 2.78v4.61h-1.08v-4.54a3.4 3.4 0 00-.5-2.13 2.69 2.69 0 00-2.26-1.16 3.45 3.45 0 00-3 1.81v6h-1.08v-13.47h1.08zm15.54-5.13a1 1 0 011 1 1 1 0 01-1 .95.94.94 0 01-.95-.95 1 1 0 01.95-1zm-.53 4h1.08v8.66h-1.08zm4.12 6.78a4.11 4.11 0 002.63 1c1.08 0 2-.61 2-1.52 0-2.23-5-1-5-4a2.74 2.74 0 012.95-2.53 5 5 0 012.79.84l-.57.89a3.52 3.52 0 00-2.16-.71c-.92 0-1.92.48-1.92 1.49 0 1.92 5 .89 5 3.93a2.72 2.72 0 01-3 2.6 4.93 4.93 0 01-3.36-1.23zM346 522.36a6.6 6.6 0 016.61 6.84 7 7 0 01-1.58 4.52l2 2.13h-1.53l-1.26-1.38A6.51 6.51 0 01346 536a6.84 6.84 0 010-13.68zm.93 6.84l3.34 3.67a6 6 0 001.2-3.67A5.48 5.48 0 10346 535a5.27 5.27 0 003.55-1.31l-3.4-3.76zm12.79-6.65l5.74 13.3h-1.14l-1.75-4h-6.46l-1.74 4h-1.14l5.73-13.3zm-3.15 8.21h5.53l-2.76-6.42zm15.07-.11v.93h-4.94v-.93zm9.92 5.2v-1.27a3.84 3.84 0 01-3.12 1.46 4.42 4.42 0 01-2.58-.81 4.47 4.47 0 01-1.85-3.71 4.61 4.61 0 011.62-3.55 4.4 4.4 0 012.75-1 4.21 4.21 0 013.18 1.39v-1.2h1v8.66zm0-6.08a3.83 3.83 0 00-3.16-1.77 3.33 3.33 0 00-2.09.75 3.52 3.52 0 00-1.21 2.75 3.35 3.35 0 003.32 3.5 3.63 3.63 0 003.1-1.9zm4.27 10.64v-13.22h1.05v1.2a4.17 4.17 0 013.17-1.39 4.4 4.4 0 012.75 1 4.61 4.61 0 011.62 3.55A4.38 4.38 0 01390 536a3.85 3.85 0 01-3.08-1.42v5.79zm1.08-7.29A3.63 3.63 0 00390 535a3.36 3.36 0 003.33-3.5 3.53 3.53 0 00-1.22-2.75A3.33 3.33 0 00390 528a3.83 3.83 0 00-3.12 1.75zm9.98 7.29v-13.22h1v1.2a4.21 4.21 0 013.18-1.39 4.4 4.4 0 012.75 1 4.61 4.61 0 011.62 3.55 4.47 4.47 0 01-1.85 3.71 4.42 4.42 0 01-2.58.81 3.85 3.85 0 01-3.08-1.42v5.79zm1.08-7.29a3.63 3.63 0 003.1 1.9 3.35 3.35 0 003.32-3.5 3.52 3.52 0 00-1.21-2.75 3.33 3.33 0 00-2.09-.75 3.83 3.83 0 00-3.12 1.75zm14.29-5.12a5 5 0 00-.51 0 3 3 0 00-2.72 1.92v5.91H408v-8.66h1v1.14a3.32 3.32 0 012.73-1.33 6.12 6.12 0 01.65 0zm5.74 8a4.52 4.52 0 114.46-4.52A4.42 4.42 0 01418 536zm0-8a3.5 3.5 0 103.38 3.5A3.39 3.39 0 00418 528zm9.55 7.85l-4-8.66h1.17l3.2 6.91 3.19-6.91h1.18l-4 8.66zm13.65-1.4a4.52 4.52 0 01-3.54 1.59 4.3 4.3 0 01-4.35-4.52 4.24 4.24 0 014.14-4.52 4 4 0 014 4.24 3.24 3.24 0 010 .38h-7.07a3.29 3.29 0 003.27 3.4 3.48 3.48 0 002.78-1.3zm-6.75-3.82h5.91a2.94 2.94 0 00-2.91-2.61 3.1 3.1 0 00-3 2.61zm10.68 4.6a4.46 4.46 0 01-1.84-3.71 4.6 4.6 0 011.61-3.52 4.4 4.4 0 012.76-1 4.24 4.24 0 013.13 1.35v-6h1.08v13.49h-1v-1.27a3.84 3.84 0 01-3.12 1.46 4.44 4.44 0 01-2.62-.8zm5.66-5.46a3.83 3.83 0 00-3.12-1.75 3.28 3.28 0 00-2.08.75 3.53 3.53 0 00-1.22 2.75 3.36 3.36 0 003.32 3.5 3.61 3.61 0 003.1-1.9zm-157.66 16.31a2.32 2.32 0 00-.65-.08 2 2 0 00-1.69.82 2.92 2.92 0 00-.39 1.8V550h2.94v1h-2.94v7.63h-1.09V551h-2.24v-1h2.24v-1.31A3.91 3.91 0 01290 546a3.18 3.18 0 012.5-1 3.86 3.86 0 01.84.1zm5.62 12.76a4.52 4.52 0 114.47-4.52 4.42 4.42 0 01-4.47 4.52zm0-8a3.5 3.5 0 103.39 3.49 3.38 3.38 0 00-3.39-3.5zm11.25 0h-.51a3 3 0 00-2.72 1.91v5.91h-1.08V550h1.08v1.14a3.33 3.33 0 012.74-1.33 6.1 6.1 0 01.64 0zm14.88 6.5a4.59 4.59 0 01-3.42 1.5 4.52 4.52 0 01-4.66-4.52 4.55 4.55 0 017.79-3.17l-.68.78a3.7 3.7 0 00-2.62-1.1 3.5 3.5 0 00.15 7 3.61 3.61 0 002.66-1.2zm2.18-12.18h1.09v13.49h-1.09zm4.85.84a1 1 0 011 1 1 1 0 01-1 1 .94.94 0 01-1-1 1 1 0 011-1zm-.53 4h1.08v8.66h-1.08zm11.43 7.25a4.5 4.5 0 01-3.53 1.59 4.3 4.3 0 01-4.35-4.52 4.24 4.24 0 014.14-4.52 4 4 0 014 4.24 3.24 3.24 0 010 .38H336a3.29 3.29 0 003.27 3.4 3.44 3.44 0 002.77-1.3zm-6.74-3.82H342a2.93 2.93 0 00-2.91-2.6 3.08 3.08 0 00-3.02 2.6zm10.55-2.22a4 4 0 016.13 0 4.13 4.13 0 01.74 2.78v4.61h-1.08v-4.54a3.48 3.48 0 00-.49-2.13 2.71 2.71 0 00-2.27-1.15 3.44 3.44 0 00-3 1.8v6h-1.08V550h1.05zm14.76-.21h-2.95v4.74a2.19 2.19 0 00.38 1.45 1.79 1.79 0 001.45.61 3.34 3.34 0 00.93-.12l.19 1a4.46 4.46 0 01-1.12.15 2.89 2.89 0 01-2.32-1 3.18 3.18 0 01-.59-2.12V551h-2.43v-1h2.43v-2.36h1.08V550h2.95zm8.87 7a4.43 4.43 0 01-1.84-3.7 4.64 4.64 0 011.61-3.55 4.43 4.43 0 012.76-1 4.22 4.22 0 013.13 1.35v-6H377v13.49h-1v-1.27a3.83 3.83 0 01-3.11 1.46 4.41 4.41 0 01-2.64-.78zm5.66-5.45a3.82 3.82 0 00-3.11-1.74 3.32 3.32 0 00-2.09.74 3.53 3.53 0 00-1.22 2.75 3.36 3.36 0 003.33 3.5 3.6 3.6 0 003.09-1.9zm11.44 4.7a4.51 4.51 0 01-3.53 1.59 4.29 4.29 0 01-4.35-4.52 4.24 4.24 0 014.14-4.52 4 4 0 014 4.24v.38h-7.07a3.29 3.29 0 003.27 3.4 3.44 3.44 0 002.77-1.3zm-6.74-3.82h5.9a2.92 2.92 0 00-2.9-2.6 3.08 3.08 0 00-3 2.6zm9.5-8.27h1.08v13.49h-1.08zm4.89.84a1 1 0 011 1 1 1 0 01-1 1 .94.94 0 01-.95-1 1 1 0 01.95-1zm-.53 4h1.08v8.66h-1.08zm6.96 8.65l-4-8.66h1.18l3.19 6.91 3.2-6.9h1.18l-4 8.66zm13.64-1.4a4.51 4.51 0 01-3.53 1.59 4.3 4.3 0 01-4.35-4.52 4.24 4.24 0 014.14-4.52 4 4 0 014 4.24 3.24 3.24 0 010 .38h-7.07a3.29 3.29 0 003.27 3.4 3.44 3.44 0 002.77-1.3zm-6.74-3.82h5.91a2.93 2.93 0 00-2.91-2.6 3.08 3.08 0 00-3 2.6zm13.81-2.59h-.51a3 3 0 00-2.72 1.91v5.91h-1.08V550h1.08v1.14a3.33 3.33 0 012.74-1.33 6.1 6.1 0 01.64 0zm3.02 12.37l2.38-5.26-3.92-8h1.22l3.25 6.72 3.05-6.72h1.16l-6 13.22z"/><circle cx="224.55" cy="520.93" r="18.9" fill="#fff200"/><circle cx="220.35" cy="516.73" r="18.9" fill="#291d54"/><path d="M225.25 519.7a12.82 12.82 0 01-.11 1.89 4.19 4.19 0 01-1.4 3.08 5 5 0 01-3.37 1.08 4.91 4.91 0 01-3.24-1 4.59 4.59 0 01-1.52-3.08l-.08-.76a.29.29 0 01.33-.32h2.48a.31.31 0 01.35.32 3 3 0 00.06.49c.21 1.11.75 1.67 1.62 1.67a1.44 1.44 0 001.09-.43 2.23 2.23 0 00.55-1.21 11.57 11.57 0 00.11-1.73 7.9 7.9 0 00-.12-1.7 1.93 1.93 0 00-.56-1.09 1.44 1.44 0 00-1-.4 1.61 1.61 0 00-1.68 1.25.34.34 0 01-.35.29h-2.51a.31.31 0 01-.32-.32V507a.31.31 0 01.32-.32h8.8a.32.32 0 01.23.09.33.33 0 01.1.23v2a.33.33 0 01-.1.23.29.29 0 01-.23.1h-5.86c-.09 0-.13 0-.13.13v5.27s0 .08.05.09a.11.11 0 00.11 0 3.66 3.66 0 015.12 0 4.88 4.88 0 011.17 2.93 10.4 10.4 0 01.09 1.95z" fill="#fff"/><circle cx="530.59" cy="302.24" r="18.9" fill="#fff200"/><circle cx="526.39" cy="298.04" r="18.9" fill="#291d54"/><path d="M531 301a11.46 11.46 0 01-.19 2.27 4.62 4.62 0 01-1.47 2.83 4.55 4.55 0 01-3.12 1 5 5 0 01-3.35-1.09 4.19 4.19 0 01-1.45-3c0-.39-.08-1-.11-1.72a.29.29 0 01.32-.33h2.49a.29.29 0 01.32.33c0 .61.07 1.07.11 1.37a2.34 2.34 0 00.57 1.29 1.47 1.47 0 001.1.44 1.49 1.49 0 001.08-.42 2.12 2.12 0 00.57-1.2 13.32 13.32 0 00.13-2.1 12.25 12.25 0 00-.18-2.3 2.07 2.07 0 00-.57-1.08 1.45 1.45 0 00-1-.38 1.15 1.15 0 00-.73.25.48.48 0 01-.24.1.52.52 0 01-.22-.1l-1.26-1.3a.3.3 0 01-.11-.24.32.32 0 01.08-.22l3.37-4.59a.08.08 0 000-.11.17.17 0 00-.12-.05h-5.13a.34.34 0 01-.33-.33v-2a.29.29 0 01.1-.23.32.32 0 01.23-.09h8.74a.32.32 0 01.23.09.29.29 0 01.1.23v2.13a.8.8 0 01-.14.41L527.7 295c-.07.11-.05.17.06.19a2.92 2.92 0 011.9 1 4.86 4.86 0 011.07 2.3A11.08 11.08 0 01531 301zM418.52 157.28l34.93-34.93" fill="#fff"/><path fill="none" stroke="#8a8f93" stroke-linecap="round" stroke-miterlimit="10" stroke-width="2" d="M418.52 157.28l1.06-1.06"/><path fill="none" stroke="#8a8f93" stroke-linecap="round" stroke-miterlimit="10" stroke-width="2" stroke-dasharray="3.0935678482055664,5.155946254730225" d="M423.23 152.58l27.34-27.35"/><path fill="none" stroke="#8a8f93" stroke-linecap="round" stroke-miterlimit="10" stroke-width="2" d="M452.39 123.41l1.06-1.06"/><path fill="none" stroke="#8a8f93" stroke-linecap="round" stroke-linejoin="round" stroke-width="2" d="M442.14 121.64h1.5"/><path fill="none" stroke="#8a8f93" stroke-linecap="round" stroke-linejoin="round" stroke-width="2" stroke-dasharray="2.05712628364563,3.42854380607605" d="M447.07 121.64h3.77"/><path fill="none" stroke="#8a8f93" stroke-linecap="round" stroke-linejoin="round" stroke-width="2" d="M452.56 121.64h1.5v1.5"/><path fill="none" stroke="#8a8f93" stroke-linecap="round" stroke-linejoin="round" stroke-width="2" stroke-dasharray="2.05712628364563,3.42854380607605" d="M454.06 126.57v3.77"/><path fill="none" stroke="#8a8f93" stroke-linecap="round" stroke-linejoin="round" stroke-width="2" d="M454.06 132.06v1.5"/><path fill="#fff" d="M218.47 121.7l34.93 34.93"/><path fill="none" stroke="#8a8f93" stroke-linecap="round" stroke-miterlimit="10" stroke-width="2" d="M218.47 121.7l1.06 1.06"/><path fill="none" stroke="#8a8f93" stroke-linecap="round" stroke-miterlimit="10" stroke-width="2" stroke-dasharray="3.0935678482055664,5.155946254730225" d="M223.17 126.4l27.35 27.35"/><path fill="none" stroke="#8a8f93" stroke-linecap="round" stroke-miterlimit="10" stroke-width="2" d="M252.34 155.57l1.06 1.06"/><path fill="none" stroke="#8a8f93" stroke-linecap="round" stroke-linejoin="round" stroke-width="2" d="M254.11 145.32v1.5"/><path fill="none" stroke="#8a8f93" stroke-linecap="round" stroke-linejoin="round" stroke-width="2" stroke-dasharray="2.05712628364563,3.42854380607605" d="M254.11 150.25v3.77"/><path fill="none" stroke="#8a8f93" stroke-linecap="round" stroke-linejoin="round" stroke-width="2" d="M254.11 155.73v1.5h-1.5"/><path fill="none" stroke="#8a8f93" stroke-linecap="round" stroke-linejoin="round" stroke-width="2" stroke-dasharray="2.05712628364563,3.42854380607605" d="M249.18 157.23h-3.77"/><path fill="none" stroke="#8a8f93" stroke-linecap="round" stroke-linejoin="round" stroke-width="2" d="M243.69 157.23h-1.5"/><path fill="#fff" stroke="#8a8f93" stroke-linecap="round" stroke-miterlimit="10" stroke-width="2" d="M312.66 53.82h49"/><path fill="none" stroke="#8a8f93" stroke-linecap="round" stroke-linejoin="round" stroke-width="2" d="M354.16 45.4l8.42 8.42-8.42 8.43"/><path fill="#fff" stroke="#8a8f93" stroke-linecap="round" stroke-miterlimit="10" stroke-width="2" d="M526.59 129.6v115.68"/><path fill="none" stroke="#8a8f93" stroke-linecap="round" stroke-linejoin="round" stroke-width="2" d="M535.01 237.78l-8.42 8.43-8.42-8.43"/><path fill="#fff" stroke="#8a8f93" stroke-linecap="round" stroke-linejoin="round" stroke-width="2" d="M337.16 477.36v-41.03H526.1v-40.29"/><path fill="none" stroke="#8a8f93" stroke-linecap="round" stroke-linejoin="round" stroke-width="2" d="M345.58 469.86l-8.42 8.42-8.42-8.42"/><path fill="#fff" stroke="#8a8f93" stroke-linecap="round" stroke-miterlimit="10" stroke-width="2" d="M148.29 246.21V130.53"/><path fill="none" stroke="#8a8f93" stroke-linecap="round" stroke-linejoin="round" stroke-width="2" d="M139.86 138.03l8.43-8.43 8.42 8.43"/><path fill="#fff" stroke="#8a8f93" stroke-linecap="round" stroke-miterlimit="10" stroke-width="2" d="M387.26 323.64h-73.68"/><path fill="none" stroke="#8a8f93" stroke-linecap="round" stroke-linejoin="round" stroke-width="2" d="M321.08 332.07l-8.42-8.43 8.42-8.42"/></g></g></svg>