<svg xmlns="http://www.w3.org/2000/svg" width="20" height="20"><circle cx="10" cy="10" r="10" fill="#28282a"/><g fill="#fffa0c"><path d="M16.5 6.7c-.5-1-1.2-1.9-2.1-2.5l-.5.7c.8.6 1.4 1.4 1.9 2.2 1.2 2.3.9 5.1-.8 7.1-1.2 1.5-3.1 2.4-5 2.4-.3 0-.6 0-.9-.1V5.9h-.9v10.5c0 .4.3.8.8.9 2.5.4 5.1-.6 6.7-2.6 1.8-2.3 2.1-5.4.8-8z"/><path d="M4.2 12.9c-1.2-2.3-.9-5 .8-7 1.2-1.5 3.1-2.4 5-2.4.3 0 .6 0 .9.1v10.5h.8V3.6c0-.4-.3-.8-.8-.9-2.4-.3-4.9.7-6.5 2.6-1.9 2.2-2.2 5.4-.9 8 .5 1 1.2 1.9 2.1 2.5l.5-.7c-.8-.5-1.4-1.3-1.9-2.2z"/></g></svg>