<svg version="1.1" id="Layer_1" xmlns="http://www.w3.org/2000/svg" x="0" y="0" width="20" height="20" xml:space="preserve"><style>.st2{fill:#fffa0c}</style><ellipse cx="10" cy="19" rx="3.3" ry="1" opacity=".22" fill="#28282a"/><path d="M15.7 5.7C15.7 2.6 13.2 0 10 0S4.3 2.6 4.3 5.7v.7C4.7 11.6 9.8 19 9.8 19c.1.2.3.2.4 0 0 0 5.1-7.4 5.5-12.6v-.7z" fill="#28282a"/><path class="st2" d="M13.7 3.8c-.3-.6-.7-1.1-1.2-1.4l-.3.4c.5.3.8.8 1.1 1.3.7 1.3.5 2.9-.4 4.1-.7.8-1.8 1.3-2.9 1.3-.2 0-.3 0-.5-.1v-6H9v6c0 .2.2.5.5.5 1.4.2 2.9-.3 3.8-1.5 1-1.3 1.2-3.1.4-4.6z"/><path class="st2" d="M6.7 7.4c-.7-1.3-.5-2.9.4-4C7.8 2.5 8.9 2 10 2c.2 0 .3 0 .5.1v6h.5v-6c0-.2-.2-.5-.5-.5C9.1 1.4 7.7 2 6.8 3c-1.1 1.3-1.3 3.1-.5 4.6.3.6.7 1.1 1.2 1.5l.3-.4c-.5-.3-.8-.8-1.1-1.3z"/></svg>