<svg xmlns="http://www.w3.org/2000/svg" viewBox="0 0 302.76 311.09"><g data-name="Layer 2"><g data-name="Layer 1"><path d="M114.53 285.52a3.45 3.45 0 013.32-2.43 3.27 3.27 0 013.36 3.24 4.56 4.56 0 01-1.35 3l-2.24 2.59h3.7v1.8h-6.82v-1.2l3.69-4.18a3.14 3.14 0 001-2.06 1.38 1.38 0 00-1.36-1.41 1.5 1.5 0 00-1.43 1.18zm11.93-2.43c2.68 0 3.67 2.42 3.67 5.4s-1 5.4-3.67 5.4-3.67-2.41-3.67-5.4.98-5.4 3.67-5.4zm0 1.8c-1.22 0-1.65 1.62-1.65 3.6s.43 3.6 1.65 3.6 1.65-1.62 1.65-3.6-.44-3.6-1.65-3.6zm8.1-1.8a2.78 2.78 0 11-2.85 2.77 2.79 2.79 0 012.85-2.77zm0 1.65a1.13 1.13 0 101 1.12 1 1 0 00-1-1.12zm-.24 9l6.13-10.5h1.67l-6.14 10.5zm7.51-5.4a2.78 2.78 0 11-2.85 2.77 2.78 2.78 0 012.85-2.77zm0 1.65a1.13 1.13 0 101.05 1.12 1.05 1.05 0 00-1.05-1.12zm36.05-37.75h6.9v1.2l-4.46 9.3h-2.2l4.25-8.7h-4.49zm8.18 1.5l2.55-1.5h1.42v10.5h-2v-8.16l-1.95 1.08zm9.15-1.65a2.78 2.78 0 11-2.85 2.77 2.79 2.79 0 012.85-2.77zm0 1.65a1.13 1.13 0 101.05 1.12 1 1 0 00-1.05-1.12zm-.24 9l6.13-10.5h1.67l-6.14 10.5zm7.51-5.4a2.78 2.78 0 11-2.85 2.77 2.78 2.78 0 012.85-2.77zm0 1.65a1.13 1.13 0 101.05 1.12 1.05 1.05 0 00-1.05-1.12zm-91.86-63.25l2.55-1.5h1.43v10.5h-2v-8.16l-2 1.08zm7.98 9l2-3.34h-.13a3.61 3.61 0 01-3.68-3.62 3.73 3.73 0 013.74-3.69 3.68 3.68 0 013.84 3.59 5.71 5.71 0 01-1 2.89l-2.47 4.17zm3.8-7.06a1.83 1.83 0 00-1.86-1.79 1.77 1.77 0 00-1.77 1.83 1.84 1.84 0 001.87 1.88 2.62 2.62 0 001.13-.26 2.88 2.88 0 00.63-1.66zm6.22-3.59a2.78 2.78 0 11-2.85 2.77 2.79 2.79 0 012.85-2.77zm0 1.65a1.13 1.13 0 101 1.12 1.05 1.05 0 00-1-1.12zm-.24 9l6.14-10.5h1.66l-6.13 10.5zm7.52-5.4a2.78 2.78 0 11-2.85 2.77 2.78 2.78 0 012.85-2.77zm0 1.65a1.13 1.13 0 101 1.12 1 1 0 00-1-1.12zm79.15-36.25l2.55-1.5h1.42v10.5h-2v-8.16l-2 1.08zm10.05-1.65c2.68 0 3.67 2.42 3.67 5.4s-1 5.4-3.67 5.4-3.68-2.41-3.68-5.4.99-5.4 3.68-5.4zm0 1.8c-1.22 0-1.65 1.62-1.65 3.6s.43 3.6 1.65 3.6 1.65-1.62 1.65-3.6-.43-3.6-1.65-3.6zm9-1.8c2.68 0 3.67 2.42 3.67 5.4s-1 5.4-3.67 5.4-3.68-2.41-3.68-5.4.99-5.4 3.68-5.4zm0 1.8c-1.22 0-1.65 1.62-1.65 3.6s.43 3.6 1.65 3.6 1.65-1.62 1.65-3.6-.43-3.6-1.65-3.6zm8.1-1.8a2.78 2.78 0 11-2.85 2.77 2.79 2.79 0 012.85-2.77zm0 1.65a1.13 1.13 0 101.05 1.12 1 1 0 00-1.05-1.12zm-.24 9l6.13-10.5h1.67l-6.14 10.5zm7.51-5.4a2.78 2.78 0 11-2.85 2.77 2.78 2.78 0 012.85-2.77zm0 1.65a1.13 1.13 0 101.05 1.12 1.05 1.05 0 00-1.05-1.12zm-34.42-60.25l2.55-1.5h1.42v10.5h-2v-8.16l-2 1.08zm10.05-1.65c2.68 0 3.67 2.42 3.67 5.4s-1 5.4-3.67 5.4-3.68-2.41-3.68-5.4.99-5.4 3.68-5.4zm0 1.8c-1.22 0-1.65 1.62-1.65 3.6s.43 3.6 1.65 3.6 1.65-1.62 1.65-3.6-.43-3.6-1.65-3.6zm9-1.8c2.68 0 3.67 2.42 3.67 5.4s-1 5.4-3.67 5.4-3.68-2.41-3.68-5.4.99-5.4 3.68-5.4zm0 1.8c-1.22 0-1.65 1.62-1.65 3.6s.43 3.6 1.65 3.6 1.65-1.62 1.65-3.6-.43-3.6-1.65-3.6zm8.1-1.8a2.78 2.78 0 11-2.85 2.77 2.79 2.79 0 012.85-2.77zm0 1.65a1.13 1.13 0 101.05 1.12 1 1 0 00-1.05-1.12zm-.24 9l6.13-10.5h1.67l-6.14 10.5zm7.51-5.4a2.78 2.78 0 11-2.85 2.77 2.78 2.78 0 012.85-2.77zm0 1.65a1.13 1.13 0 101.05 1.12 1.05 1.05 0 00-1.05-1.12zm15.47-37.25l2.55-1.5h1.42v10.5h-2v-8.16l-1.95 1.08zm12.74-1.5v6.3h1.73v1.8h-1.73v2.4h-2v-2.4h-4.87v-1.2l5.47-6.9zm-2 6.3v-2.46l-2 2.46zm8.53-6.45c2.68 0 3.67 2.42 3.67 5.4s-1 5.4-3.67 5.4-3.67-2.41-3.67-5.4.98-5.4 3.67-5.4zm0 1.8c-1.21 0-1.65 1.62-1.65 3.6s.44 3.6 1.65 3.6 1.65-1.62 1.65-3.6-.44-3.6-1.65-3.6zm8.11-1.8a2.78 2.78 0 11-2.85 2.77 2.79 2.79 0 012.85-2.77zm0 1.65a1.13 1.13 0 101 1.12 1 1 0 00-1-1.12zm-.24 9l6.13-10.5h1.67l-6.13 10.5zm7.51-5.4a2.78 2.78 0 11-2.84 2.77 2.78 2.78 0 012.83-2.77zm0 1.65a1.13 1.13 0 101.05 1.12 1.05 1.05 0 00-1.06-1.12zM47.11.14h1.65a.25.25 0 01.16.06.23.23 0 01.06.16v12.16a.23.23 0 01-.06.16.25.25 0 01-.16.06h-1.65a.25.25 0 01-.16-.06.23.23 0 01-.06-.16V3.96l-.07.05-1.6 2.84c-.06.1-.12.15-.17.15s-.1-.05-.16-.15l-1.57-2.84s0-.05-.08-.05 0 0 0 .07v8.49a.23.23 0 01-.06.16.25.25 0 01-.16.06h-1.7a.25.25 0 01-.16-.06.23.23 0 01-.06-.16V.36a.23.23 0 01.06-.16.25.25 0 01.16-.06h1.65a.31.31 0 01.27.14l1.78 3.08h.11L46.84.28a.31.31 0 01.27-.14zm4.49 11.81a3.35 3.35 0 01-1-2.49V3.44a3.35 3.35 0 011-2.49 3.81 3.81 0 015 0 3.32 3.32 0 011 2.49v6a3.32 3.32 0 01-1 2.49 3.81 3.81 0 01-5 0zm3.48-1.29a1.61 1.61 0 00.38-1.11V3.33a1.61 1.61 0 00-.38-1.11 1.26 1.26 0 00-1-.42 1.24 1.24 0 00-1 .42 1.6 1.6 0 00-.37 1.11v6.22a1.6 1.6 0 00.37 1.11 1.24 1.24 0 001 .42 1.26 1.26 0 001-.42zM64.45.2a.2.2 0 01.15-.06h1.64a.2.2 0 01.15.06.24.24 0 01.07.16v12.16a.24.24 0 01-.07.16.2.2 0 01-.15.06h-1.92a.22.22 0 01-.23-.18l-2.66-7.63h-.06c-.06 0 0 0 0 .07v7.57a.23.23 0 01-.06.16.2.2 0 01-.15.06h-1.67a.2.2 0 01-.15-.06.2.2 0 01-.07-.16V.36a.2.2 0 01.05-.16.2.2 0 01.15-.06h1.85a.24.24 0 01.24.18l2.76 7.58h.06c.06 0 0 0 0-.06V.36a.23.23 0 01.07-.16zm10.57 0a.23.23 0 01.06.16v1.36a.21.21 0 01-.22.22h-2.28a.08.08 0 00-.09.09v10.49a.2.2 0 01-.07.16.2.2 0 01-.15.06h-1.66a.2.2 0 01-.15-.06.23.23 0 01-.06-.16V2.03a.08.08 0 00-.08-.09h-2.17a.2.2 0 01-.15-.06.21.21 0 01-.07-.16V.36A.2.2 0 0168 .2a.2.2 0 01.15-.06h6.71a.25.25 0 01.16.06zm6.13 0a.23.23 0 01.17-.06h1.65a.2.2 0 01.15.06.2.2 0 01.07.16v12.16a.2.2 0 01-.07.16.2.2 0 01-.15.06h-1.65a.21.21 0 01-.22-.22V7.44a.08.08 0 00-.09-.09h-2.3a.08.08 0 00-.09.09v5.09a.23.23 0 01-.06.16.2.2 0 01-.15.06h-1.66a.2.2 0 01-.15-.06.23.23 0 01-.06-.16V.36A.23.23 0 0176.6.2a.2.2 0 01.15-.06h1.66a.2.2 0 01.15.06.23.23 0 01.06.16v5.08a.08.08 0 00.09.09H81a.08.08 0 00.09-.09V.36a.23.23 0 01.06-.16zm4.03 12.48a.23.23 0 01-.06-.16V.36a.23.23 0 01.06-.16.25.25 0 01.14-.06h1.65a.25.25 0 01.16.06.23.23 0 01.06.16v10.49a.08.08 0 00.09.09h3.89a.2.2 0 01.15.06.25.25 0 01.06.16v1.36a.23.23 0 01-.06.16.2.2 0 01-.15.06h-5.85a.25.25 0 01-.14-.06zm9-.02a.2.2 0 01-.06-.15V7.48L91.6.44a.2.2 0 010-.09c0-.11.07-.16.2-.16h1.73a.23.23 0 01.25.18L95.13 5a.06.06 0 00.06 0h.05L96.59.37a.24.24 0 01.25-.18h1.73a.2.2 0 01.16.06.2.2 0 010 .19l-2.5 7v5.03a.2.2 0 01-.06.15.25.25 0 01-.16.06h-1.69a.25.25 0 01-.14-.02zm9.72.02a.23.23 0 01-.06-.16V.36a.23.23 0 01.06-.16.25.25 0 01.16-.06h1.65a.25.25 0 01.16.06.23.23 0 01.06.16v12.16a.23.23 0 01-.06.16.25.25 0 01-.16.06h-1.65a.25.25 0 01-.16-.06zM113.05.2a.2.2 0 01.15-.06h1.64a.2.2 0 01.15.06.24.24 0 01.07.16v12.16a.24.24 0 01-.07.16.2.2 0 01-.15.06h-1.89a.22.22 0 01-.23-.18l-2.69-7.63h-.06c-.06 0 0 0 0 .07v7.57a.23.23 0 01-.06.16.2.2 0 01-.15.06h-1.64a.2.2 0 01-.15-.06.2.2 0 01-.07-.16V.36a.2.2 0 01.07-.16.2.2 0 01.15-.06h1.85a.24.24 0 01.24.18l2.7 7.58h.06c.06 0 0 0 0-.06V.36a.23.23 0 01.08-.16zm4.66 11.76a3.33 3.33 0 01-.93-2.46V3.36a3.29 3.29 0 01.93-2.46 3.84 3.84 0 014.94 0 3.26 3.26 0 01.94 2.46v.22a.21.21 0 01-.07.16.18.18 0 01-.15.07l-1.67.07c-.15 0-.22-.07-.22-.21v-.45a1.49 1.49 0 00-.36-1 1.24 1.24 0 00-1-.39 1.21 1.21 0 00-.94.39 1.49 1.49 0 00-.36 1v6.44a1.49 1.49 0 00.36 1 1.21 1.21 0 00.94.39 1.24 1.24 0 001-.39 1.49 1.49 0 00.36-1v-.45a.2.2 0 01.06-.15.25.25 0 01.16-.06l1.67.07a.2.2 0 01.15.06.18.18 0 01.07.15v.22a3.29 3.29 0 01-.94 2.46 3.78 3.78 0 01-4.94 0zm12.27.6l-1.53-5.12s-.06-.07-.09-.07h-1a.08.08 0 00-.04.07v5.11a.23.23 0 01-.06.16.2.2 0 01-.15.06h-1.66a.2.2 0 01-.15-.06.23.23 0 01-.06-.16V.36a.23.23 0 01.06-.16.2.2 0 01.15-.06h3.38a3 3 0 012.82 1.76 4.29 4.29 0 01.41 1.91 4 4 0 01-.44 1.93 2.83 2.83 0 01-1.2 1.22c-.05 0-.07.05-.06.11l1.77 5.42a.2.2 0 010 .09c0 .11-.07.16-.2.16h-1.73a.22.22 0 01-.22-.18zm-2.66-10.53v3.58a.08.08 0 00.09.09h1.1a1.3 1.3 0 001-.5 2.13 2.13 0 00.41-1.37 2.16 2.16 0 00-.37-1.39 1.28 1.28 0 00-1-.51h-1.1a.082.082 0 00-.13.1zm12.42-.15a.2.2 0 01-.15.06h-3.89a.08.08 0 00-.09.09v3.41a.08.08 0 00.09.09h2.31a.22.22 0 01.15.06.25.25 0 01.06.16v1.37a.25.25 0 01-.06.16.22.22 0 01-.15.06h-2.31a.08.08 0 00-.09.09v3.42a.08.08 0 00.09.09h3.89a.2.2 0 01.15.06.26.26 0 01.07.16v1.36a.24.24 0 01-.07.16.2.2 0 01-.15.06h-5.85a.2.2 0 01-.15-.06.2.2 0 01-.07-.16V.36a.2.2 0 01.07-.16.2.2 0 01.15-.06h5.85a.2.2 0 01.15.06.24.24 0 01.07.16v1.36a.26.26 0 01-.07.16zm6.83 10.66l-.34-1.89c0-.06 0-.09-.11-.09h-2.62c-.08 0-.11 0-.11.09l-.35 1.89a.2.2 0 01-.23.2h-1.64c-.17 0-.23-.08-.19-.23L143.64.34a.21.21 0 01.23-.2h1.91a.23.23 0 01.24.2l2.66 12.17v.07c0 .11-.07.16-.2.16h-1.67c-.15 0-.23-.07-.24-.2zm-2.77-3.62h2q.11 0 .09-.09l-1-5.68s0-.06-.06-.06 0 0-.05.06l-1 5.68q-.08.09.02.09zm6.25 3.06a3.11 3.11 0 01-.92-2.35v-.47a.25.25 0 01.06-.16.21.21 0 01.16-.06h1.63a.21.21 0 01.22.22v.36a1.75 1.75 0 00.35 1.13 1.11 1.11 0 00.91.43 1.18 1.18 0 00.92-.4 1.56 1.56 0 00.36-1.07 1.62 1.62 0 00-.2-.81 2.4 2.4 0 00-.56-.65c-.24-.2-.62-.5-1.15-.88a17.52 17.52 0 01-1.45-1.15 4.5 4.5 0 01-.92-1.22 3.58 3.58 0 01-.37-1.65 3.17 3.17 0 01.9-2.37 3.64 3.64 0 014.79 0 3.36 3.36 0 01.92 2.46v.43a.2.2 0 01-.06.15.21.21 0 01-.16.07h-1.62a.18.18 0 01-.15-.07.2.2 0 01-.06-.15v-.43a1.72 1.72 0 00-.33-1.12 1.17 1.17 0 00-.93-.42 1.13 1.13 0 00-.88.38 1.57 1.57 0 00-.35 1.07 1.7 1.7 0 00.37 1.1 8.46 8.46 0 001.45 1.24 19.26 19.26 0 011.66 1.33 3.78 3.78 0 01.86 1.12 3.17 3.17 0 01.31 1.46 3.36 3.36 0 01-.92 2.46 3.65 3.65 0 01-4.82 0zm13.4-10.1a.23.23 0 01-.16.06h-3.88a.08.08 0 00-.09.09v3.41a.08.08 0 00.09.09h2.3a.2.2 0 01.15.06.21.21 0 01.07.16v1.37a.21.21 0 01-.07.16.2.2 0 01-.15.06h-2.3a.08.08 0 00-.09.1v3.42a.08.08 0 00.09.09h3.91a.23.23 0 01.16.06.25.25 0 01.06.16v1.36a.21.21 0 01-.22.22h-5.85a.2.2 0 01-.15-.06.23.23 0 01-.06-.16V.36a.23.23 0 01.06-.16.2.2 0 01.15-.06h5.85a.21.21 0 01.22.22v1.36a.25.25 0 01-.09.16zm5.27 10.8a.23.23 0 01-.06-.16V.36a.23.23 0 01.06-.16.2.2 0 01.15-.06h1.66a.2.2 0 01.15.06.2.2 0 01.07.16v12.16a.2.2 0 01-.07.16.2.2 0 01-.15.06h-1.66a.2.2 0 01-.15-.06zM177.87.2a.2.2 0 01.15-.06h1.64a.2.2 0 01.15.06.23.23 0 01.06.16v12.16a.23.23 0 01-.06.16.2.2 0 01-.15.06h-1.89a.24.24 0 01-.24-.18l-2.68-7.63h-.06a.07.07 0 00-.05.07v7.57a.21.21 0 01-.22.22h-1.63a.25.25 0 01-.16-.06.23.23 0 01-.06-.16V.36a.23.23 0 01.06-.16.25.25 0 01.16-.06h1.85a.22.22 0 01.23.18l2.7 7.58h.07c.07 0 0 0 0-.06V.36a.2.2 0 01.13-.16zm12.16 0a.25.25 0 01.16-.06h1.65a.25.25 0 01.16.06.23.23 0 01.06.16v12.16a.23.23 0 01-.06.16.25.25 0 01-.16.06h-1.65a.25.25 0 01-.16-.06.23.23 0 01-.06-.16V7.44a.08.08 0 00-.09-.09h-2.29a.08.08 0 00-.09.09v5.09a.23.23 0 01-.06.16.2.2 0 01-.15.06h-1.66a.2.2 0 01-.15-.06.23.23 0 01-.06-.16V.36a.23.23 0 01.06-.16.2.2 0 01.15-.06h1.69a.2.2 0 01.15.06.23.23 0 01.06.16v5.08a.08.08 0 00.09.09h2.29a.08.08 0 00.09-.09V.36a.23.23 0 01.03-.16zm4.7 11.75a3.35 3.35 0 01-.94-2.49V3.44a3.35 3.35 0 01.94-2.49 3.4 3.4 0 012.49-.93 3.44 3.44 0 012.51.93 3.35 3.35 0 011 2.49v6a3.35 3.35 0 01-1 2.49 3.44 3.44 0 01-2.51.93 3.4 3.4 0 01-2.49-.91zm3.48-1.29a1.56 1.56 0 00.38-1.11V3.33a1.56 1.56 0 00-.38-1.11 1.37 1.37 0 00-2 0 1.65 1.65 0 00-.37 1.11v6.22a1.65 1.65 0 00.37 1.11 1.37 1.37 0 002 0zm5.05 1.22a3.69 3.69 0 01-.92-2.63V.36a.23.23 0 01.06-.16.2.2 0 01.15-.06h1.66a.2.2 0 01.15.06.23.23 0 01.06.16v9.08a1.82 1.82 0 00.36 1.17 1.24 1.24 0 001.91 0 1.82 1.82 0 00.36-1.17V.36a.2.2 0 01.07-.16.2.2 0 01.2-.06h1.65a.25.25 0 01.16.06.23.23 0 01.06.16v8.89a3.65 3.65 0 01-.94 2.63 3.55 3.55 0 01-4.94 0zm8.31.1a3.15 3.15 0 01-.92-2.35v-.47a.21.21 0 01.22-.22h1.64a.2.2 0 01.15.06.25.25 0 01.06.16v.36a1.75 1.75 0 00.35 1.13 1.12 1.12 0 00.91.43 1.18 1.18 0 00.92-.4 1.56 1.56 0 00.36-1.07 1.62 1.62 0 00-.2-.81 2.4 2.4 0 00-.56-.65c-.24-.2-.62-.5-1.15-.88a17.52 17.52 0 01-1.45-1.15 4.72 4.72 0 01-.92-1.22 3.58 3.58 0 01-.36-1.65 3.17 3.17 0 01.9-2.37 3.62 3.62 0 014.78 0 3.32 3.32 0 01.92 2.46v.43a.2.2 0 01-.06.15.18.18 0 01-.15.07h-1.62a.2.2 0 01-.16-.07.2.2 0 01-.06-.15v-.43a1.72 1.72 0 00-.35-1.12 1.15 1.15 0 00-.93-.42 1.14 1.14 0 00-.88.38 1.56 1.56 0 00-.34 1.07 1.65 1.65 0 00.37 1.1 8.08 8.08 0 001.45 1.24 18.83 18.83 0 011.65 1.33 4 4 0 01.87 1.12 3.31 3.31 0 01.3 1.46 3.32 3.32 0 01-.92 2.46 3.26 3.26 0 01-2.41.92 3.3 3.3 0 01-2.41-.9zm13.4-10.1a.2.2 0 01-.15.06h-3.89a.08.08 0 00-.09.09v3.41a.08.08 0 00.09.09h2.3a.21.21 0 01.22.22v1.37a.21.21 0 01-.22.22h-2.3a.08.08 0 00-.09.09v3.42a.08.08 0 00.09.09h3.89a.2.2 0 01.15.06.25.25 0 01.06.16v1.36a.23.23 0 01-.06.16.2.2 0 01-.15.06h-5.85a.2.2 0 01-.15-.06.2.2 0 01-.07-.16V.36a.2.2 0 01.07-.16.2.2 0 01.15-.06h5.85a.2.2 0 01.15.06.23.23 0 01.06.16v1.36a.25.25 0 01-.06.16zM231.2.2a.2.2 0 01.12-.06h1.66a.2.2 0 01.15.06.23.23 0 01.06.16v12.16a.23.23 0 01-.06.16.2.2 0 01-.15.06h-1.66a.2.2 0 01-.15-.06.23.23 0 01-.06-.16V7.44a.08.08 0 00-.09-.09h-2.29a.08.08 0 00-.09.09v5.09a.23.23 0 01-.06.16.25.25 0 01-.16.06h-1.65a.2.2 0 01-.15-.06.2.2 0 01-.07-.16V.36a.2.2 0 01.07-.16.2.2 0 01.15-.06h1.65a.25.25 0 01.16.06.23.23 0 01.06.16v5.08a.08.08 0 00.09.09h2.29a.08.08 0 00.09-.09V.36a.23.23 0 01.09-.16zm4.7 11.75a3.35 3.35 0 01-1-2.49V3.44a3.35 3.35 0 011-2.49 3.4 3.4 0 012.49-.93 3.44 3.44 0 012.5.93 3.32 3.32 0 011 2.49v6a3.32 3.32 0 01-1 2.49 3.44 3.44 0 01-2.5.93 3.4 3.4 0 01-2.49-.91zm3.48-1.29a1.61 1.61 0 00.38-1.11V3.33a1.61 1.61 0 00-.38-1.11 1.26 1.26 0 00-1-.42 1.24 1.24 0 00-1 .42 1.6 1.6 0 00-.37 1.11v6.22a1.6 1.6 0 00.37 1.11 1.24 1.24 0 001 .42 1.26 1.26 0 001-.42zm4.26 2.02a.2.2 0 01-.07-.16V.36a.2.2 0 01.07-.16.2.2 0 01.15-.06h1.66a.22.22 0 01.15.06.23.23 0 01.06.16v10.49a.08.08 0 00.09.09h3.89a.2.2 0 01.15.06.26.26 0 01.07.16v1.36a.24.24 0 01-.07.16.2.2 0 01-.15.06h-5.85a.2.2 0 01-.15-.06zm7.47 0a.2.2 0 01-.07-.16V.36a.2.2 0 01.07-.16.2.2 0 01.15-.06h3.06a3.3 3.3 0 012.47.94 3.37 3.37 0 01.93 2.5V9.3a3.37 3.37 0 01-.93 2.5 3.3 3.3 0 01-2.47.94h-3.08a.2.2 0 01-.13-.06zm2.11-1.74h1.08a1.14 1.14 0 001-.48 2 2 0 00.39-1.26V3.7a2 2 0 00-.37-1.26 1.19 1.19 0 00-1-.48h-1.1a.08.08 0 00-.09.09v8.82a.08.08 0 00.09.07zm10.48 1.04a3.11 3.11 0 01-.92-2.35v-.47a.25.25 0 01.06-.16.21.21 0 01.16-.06h1.63a.21.21 0 01.22.22v.36a1.75 1.75 0 00.35 1.13 1.11 1.11 0 00.91.43 1.18 1.18 0 00.92-.4 1.56 1.56 0 00.36-1.07 1.62 1.62 0 00-.2-.81 2.4 2.4 0 00-.56-.65c-.24-.2-.62-.5-1.15-.88a17.52 17.52 0 01-1.45-1.15 4.5 4.5 0 01-.92-1.22 3.58 3.58 0 01-.37-1.65 3.17 3.17 0 01.9-2.37 3.64 3.64 0 014.79 0 3.36 3.36 0 01.89 2.5v.43a.2.2 0 01-.06.15.21.21 0 01-.16.07h-1.62a.18.18 0 01-.15-.07.2.2 0 01-.06-.15v-.47a1.72 1.72 0 00-.35-1.12 1.17 1.17 0 00-.93-.42 1.14 1.14 0 00-.88.38 1.56 1.56 0 00-.34 1.07 1.69 1.69 0 00.36 1.1 8.46 8.46 0 001.45 1.24 19.26 19.26 0 011.74 1.33 3.78 3.78 0 01.86 1.12 3.17 3.17 0 01.31 1.46 3.36 3.36 0 01-.92 2.46 3.65 3.65 0 01-4.82 0zM276.14.59a3.11 3.11 0 011.18 1.31 4.44 4.44 0 01.4 1.93 3.85 3.85 0 01-.89 2.61 2.85 2.85 0 01-2.26 1h-1.53a.08.08 0 00-.09.09v5a.23.23 0 01-.06.16.25.25 0 01-.16.06h-1.65a.25.25 0 01-.16-.06.23.23 0 01-.06-.16V.34a.2.2 0 01.06-.15.21.21 0 01.16-.07h3.38a3 3 0 011.68.47zm-.95 4.69a2.2 2.2 0 00.4-1.4 2.31 2.31 0 00-.4-1.43 1.29 1.29 0 00-1.07-.53h-1.08a.08.08 0 00-.09.09V5.7a.08.08 0 00.09.09h1.08a1.3 1.3 0 001.07-.51zm10.13-3.4a.2.2 0 01-.15.06h-3.85a.08.08 0 00-.09.09v3.41a.08.08 0 00.09.09h2.31a.2.2 0 01.15.06.25.25 0 01.06.16v1.37a.25.25 0 01-.06.16.2.2 0 01-.15.06h-2.31a.08.08 0 00-.09.09v3.42a.08.08 0 00.09.09h3.89a.2.2 0 01.15.06.21.21 0 01.07.16v1.36a.2.2 0 01-.07.16.2.2 0 01-.15.06h-5.89a.2.2 0 01-.15-.06.24.24 0 01-.07-.16V.36a.24.24 0 01.07-.16.2.2 0 01.15-.06h5.85a.2.2 0 01.15.06.2.2 0 01.07.16v1.36a.21.21 0 01-.07.16zM292.11.2a.2.2 0 01.15-.06h1.64a.2.2 0 01.15.06.2.2 0 01.07.16v12.16a.2.2 0 01-.07.16.2.2 0 01-.15.06h-1.89a.22.22 0 01-.23-.18l-2.69-7.63h-.06c-.06 0 0 0 0 .07v7.57a.23.23 0 01-.06.16.2.2 0 01-.15.06h-1.64a.2.2 0 01-.15-.06.24.24 0 01-.07-.16V.36a.24.24 0 01.07-.16.2.2 0 01.15-.06h1.85a.24.24 0 01.24.18l2.7 7.58h.06c.06 0 .05 0 .05-.06V.36a.23.23 0 01.03-.16zm4.01 12.48a.23.23 0 01-.06-.16V.36a.23.23 0 01.06-.16.25.25 0 01.2-.06h3a3.31 3.31 0 012.48.94 3.37 3.37 0 01.93 2.5V9.3a3.37 3.37 0 01-.93 2.5 3.31 3.31 0 01-2.48.94h-3a.25.25 0 01-.2-.06zm2.12-1.74h1.08a1.15 1.15 0 001-.48 2 2 0 00.39-1.26V3.7a2 2 0 00-.39-1.26 1.2 1.2 0 00-1-.48h-1.06a.08.08 0 00-.09.09v8.82a.08.08 0 00.07.07zM139.97 35.92a12.28 12.28 0 01-1.34-3.29 18.18 18.18 0 010-8.51 12.62 12.62 0 011.34-3.32.28.28 0 01.26-.14h1.62a.18.18 0 01.17.07.22.22 0 010 .18 18.21 18.21 0 00-1.12 3.39 17.83 17.83 0 00-.45 4.1 18 18 0 00.44 4 17.74 17.74 0 001.13 3.37.22.22 0 010 .09.13.13 0 010 .11.22.22 0 01-.14.05h-1.66a.25.25 0 01-.25-.1zm10.35-5.48a9.15 9.15 0 01-.07 1.26 2.78 2.78 0 01-.94 2 3.34 3.34 0 01-2.25.72 3.29 3.29 0 01-2.16-.68 3.07 3.07 0 01-1-2l-.06-.51c0-.14.07-.21.22-.21h1.65a.21.21 0 01.24.21 2.63 2.63 0 000 .33q.23 1.11 1.08 1.11a1 1 0 00.73-.28 1.53 1.53 0 00.37-.81 7.41 7.41 0 00.07-1.16 5.59 5.59 0 00-.1-1.15 1.37 1.37 0 00-.37-.73 1 1 0 00-.7-.26 1.07 1.07 0 00-1.11.83.24.24 0 01-.24.2h-1.67a.18.18 0 01-.15-.07.21.21 0 01-.07-.15v-7.13a.24.24 0 01.07-.16.2.2 0 01.15-.06h5.87a.2.2 0 01.15.06.23.23 0 01.06.16v1.36a.25.25 0 01-.06.16.2.2 0 01-.15.06h-3.91a.08.08 0 00-.09.09v3.57a.07.07 0 00.07 0 2.14 2.14 0 01.75-.52 2.4 2.4 0 01.92-.19 2.27 2.27 0 011.74.7 3.16 3.16 0 01.78 1.95 6.49 6.49 0 01.18 1.3zm1.09-.68a.18.18 0 01-.07-.15v-1.37a.21.21 0 01.07-.16.2.2 0 01.15-.06H156a.23.23 0 01.16.06.25.25 0 01.06.16v1.37a.2.2 0 01-.06.15.23.23 0 01-.16.06h-4.44a.2.2 0 01-.15-.06zm12.19-8.02h1.66a.2.2 0 01.15.06.23.23 0 01.06.16v12.16a.25.25 0 01-.06.16.2.2 0 01-.15.06h-1.66a.2.2 0 01-.15-.06.26.26 0 01-.07-.16v-8.56s-.05 0-.07.05l-1.6 2.83c-.06.1-.11.15-.16.15s-.1-.05-.16-.15l-1.57-2.84a.08.08 0 00-.07-.05v8.56a.25.25 0 01-.06.16.2.2 0 01-.15.06h-1.66a.2.2 0 01-.15-.06.26.26 0 01-.07-.16V21.96a.24.24 0 01.07-.16.2.2 0 01.15-.06h1.66a.31.31 0 01.27.14l1.74 3.08c0 .05.07.05.11 0l1.66-3.08a.31.31 0 01.28-.14zm4.49 11.81a3.35 3.35 0 01-.94-2.49v-6a3.35 3.35 0 01.94-2.49 3.4 3.4 0 012.49-.93 3.44 3.44 0 012.51.93 3.35 3.35 0 01.95 2.49v6a3.35 3.35 0 01-.95 2.49 3.44 3.44 0 01-2.51.93 3.4 3.4 0 01-2.49-.93zm3.48-1.29a1.56 1.56 0 00.38-1.11v-6.22a1.56 1.56 0 00-.38-1.11 1.37 1.37 0 00-2 0 1.65 1.65 0 00-.37 1.11v6.22a1.65 1.65 0 00.37 1.11 1.37 1.37 0 002 0zm9.37-10.46a.25.25 0 01.16-.06h1.63a.21.21 0 01.22.22v12.16a.25.25 0 01-.06.16.23.23 0 01-.16.06h-1.89a.22.22 0 01-.23-.18l-2.68-7.63a.06.06 0 00-.06-.05.07.07 0 00-.05.07v7.57a.21.21 0 01-.22.22h-1.64a.2.2 0 01-.15-.06.25.25 0 01-.06-.16V21.96a.23.23 0 01.06-.16.2.2 0 01.15-.06h1.86a.22.22 0 01.23.18l2.7 7.58a.06.06 0 00.07 0v-7.54a.23.23 0 01.12-.16zm10.57 0a.23.23 0 01.06.16v1.36a.25.25 0 01-.06.16.2.2 0 01-.15.06h-2.29a.08.08 0 00-.09.09v10.49a.21.21 0 01-.22.22h-1.65a.2.2 0 01-.15-.06.21.21 0 01-.07-.16V23.63a.08.08 0 00-.09-.09h-2.16a.2.2 0 01-.15-.06.25.25 0 01-.06-.16v-1.36a.23.23 0 01.06-.16.2.2 0 01.15-.06h6.68a.2.2 0 01.19.06zm6.14 0a.2.2 0 01.15-.06h1.66a.2.2 0 01.15.06.23.23 0 01.06.16v12.16a.25.25 0 01-.06.16.2.2 0 01-.15.06h-1.66a.2.2 0 01-.15-.06.21.21 0 01-.07-.16v-5.09a.08.08 0 00-.09-.09h-2.28a.08.08 0 00-.09.09v5.09a.21.21 0 01-.22.22h-1.65a.21.21 0 01-.22-.22V21.96a.23.23 0 01.06-.16.25.25 0 01.16-.06h1.65a.25.25 0 01.16.06.23.23 0 01.06.16v5.07a.08.08 0 00.09.09h2.28a.08.08 0 00.09-.09v-5.07a.2.2 0 01.07-.16zm6.18-1a12.34 12.34 0 011.34 3.29 16.55 16.55 0 01.51 4.22 16.91 16.91 0 01-.51 4.28 11.87 11.87 0 01-1.36 3.33.26.26 0 01-.25.15h-1.62a.17.17 0 01-.16-.07.19.19 0 010-.18 20.2 20.2 0 001.11-3.38 18.14 18.14 0 00.44-4.07 17.89 17.89 0 00-.44-4.05 19.88 19.88 0 00-1.11-3.37.27.27 0 010-.11c0-.09.06-.14.18-.14h1.64a.26.26 0 01.23.1z"/><path d="M201.07 112.81v11.5h-127v-22.5h116a11 11 0 0111 11z" fill="#9a9fa5"/><path d="M252.65 80.84v11.5H74.92v-22.5h166.73a11 11 0 0111 11z" fill="#fffa0c"/><path fill="none" stroke="#282828" stroke-miterlimit="10" stroke-width="3" d="M73.53 59.09v76"/><path d="M99.52 199.34v11.5H75.4v-22.5h13.12a11 11 0 0111 11z" fill="#9a9fa5"/><path d="M200.6 167.34v11.5h-127v-22.5h116a11 11 0 0111 11z" fill="#fffa0c"/><path fill="none" stroke="#282828" stroke-miterlimit="10" stroke-width="3" d="M73.53 145.59v76"/><path d="M100.31 288.8v11.5H74.92v-22.5h14.39a11 11 0 0111 11z" fill="#9a9fa5"/><path d="M164.41 256.84v11.5H74.28v-22.5h79.13a11 11 0 0111 11z" fill="#fffa0c"/><path fill="none" stroke="#282828" stroke-miterlimit="10" stroke-width="3" d="M73.53 235.09v76"/><path d="M16.42 96.92a3.38 3.38 0 002.82 1.5 2.07 2.07 0 002.16-2c0-1.91-2.25-2.12-3.78-3.06a2.48 2.48 0 01-1.42-2.16 2.78 2.78 0 013-2.76 4 4 0 012.69 1l-.57.66a3 3 0 00-2.09-.86 1.92 1.92 0 00-2.11 1.86c0 1.59 2.11 1.8 3.61 2.73a2.93 2.93 0 011.59 2.61 2.87 2.87 0 01-3.06 2.82 4.23 4.23 0 01-3.48-1.77zm13.19 2.21v-1a3 3 0 01-2.46 1.16 3.46 3.46 0 01-2-.65 3.51 3.51 0 01-1.46-2.92 3.67 3.67 0 011.28-2.81 3.5 3.5 0 012.17-.76 3.34 3.34 0 012.51 1.09v-.94h.82v6.84zm0-4.8a3 3 0 00-2.46-1.38 2.64 2.64 0 00-1.65.58 2.81 2.81 0 00-1 2.18 2.75 2.75 0 001.08 2.25 2.7 2.7 0 001.54.51 2.84 2.84 0 002.45-1.5zm5.5 4.8l-3.18-6.84h.93l2.52 5.46 2.52-5.46h.93l-3.16 6.84zm5.64-9.98a.78.78 0 01.77.77.76.76 0 01-.77.75.74.74 0 01-.75-.75.76.76 0 01.75-.77zm-.43 3.14h.86v6.84h-.86zm4.24.96a3.17 3.17 0 014.85 0 3.32 3.32 0 01.58 2.19v3.65h-.85v-3.55a2.72 2.72 0 00-.39-1.68 2.13 2.13 0 00-1.79-.91 2.71 2.71 0 00-2.37 1.42v4.76h-.85v-6.84h.82zm13.64 8.05a3.14 3.14 0 01-3 1.58 3.66 3.66 0 01-3.11-1.64l.68-.49a2.77 2.77 0 002.44 1.31 2.3 2.3 0 002.21-1.16 3.87 3.87 0 00.27-1.77v-1a3 3 0 01-2.37 1.15 3.46 3.46 0 01-2-.65 3.51 3.51 0 01-1.46-2.92 3.67 3.67 0 011.28-2.81 3.5 3.5 0 012.17-.76 3.34 3.34 0 012.51 1.09v-.94h.82v6.81a4.69 4.69 0 01-.44 2.2zm-.48-7a3 3 0 00-2.46-1.38 2.64 2.64 0 00-1.65.58 2.81 2.81 0 00-1 2.18 2.75 2.75 0 001.08 2.25 2.7 2.7 0 001.63.51 2.84 2.84 0 002.45-1.5zm3.25 3.34a3.24 3.24 0 002.07.83c.86 0 1.58-.48 1.58-1.2 0-1.76-4-.8-4-3.14a2.16 2.16 0 012.33-2 3.91 3.91 0 012.2.66l-.45.7a2.82 2.82 0 00-1.71-.55c-.72 0-1.51.37-1.51 1.17 0 1.51 3.94.7 3.94 3.1a2.15 2.15 0 01-2.37 2.06 3.84 3.84 0 01-2.65-1zm-25.23 77.8v3.42h3.75v.86h-3.75v5.37h-.9v-10.5h5.7v.85zm8.85 9.84a3.57 3.57 0 113.53-3.57 3.49 3.49 0 01-3.53 3.57zm0-6.33a2.76 2.76 0 102.67 2.76 2.67 2.67 0 00-2.67-2.76zm8.55 6.33a3.57 3.57 0 113.53-3.57 3.49 3.49 0 01-3.53 3.57zm0-6.33a2.76 2.76 0 102.67 2.76 2.67 2.67 0 00-2.67-2.76zm6.48 5.68a3.5 3.5 0 01-1.45-2.92 3.66 3.66 0 011.27-2.81 3.51 3.51 0 012.18-.76 3.34 3.34 0 012.47 1.06v-4.76h.86v10.65h-.83v-1a3 3 0 01-2.46 1.16 3.5 3.5 0 01-2.04-.62zm4.47-4.3a3 3 0 00-2.46-1.38 2.64 2.64 0 00-1.65.58 2.81 2.81 0 00-1 2.18 2.64 2.64 0 002.67 2.73 2.84 2.84 0 002.44-1.5zM.9 265.44v3.42h3.75v.86H.9v4.51h4.95v.86H0v-10.5h5.7v.85zm7.42 9.19a3.5 3.5 0 01-1.45-2.92 3.66 3.66 0 011.27-2.81 3.51 3.51 0 012.18-.76 3.34 3.34 0 012.47 1.06v-4.76h.86v10.65h-.83v-1a3 3 0 01-2.46 1.16 3.5 3.5 0 01-2.04-.62zm4.47-4.3a3 3 0 00-2.47-1.38 2.64 2.64 0 00-1.65.58 2.81 2.81 0 00-1 2.18 2.64 2.64 0 002.71 2.73 2.84 2.84 0 002.44-1.5zm8.53 3.87a3 3 0 01-2.31 1.08 2.88 2.88 0 01-2.57-1.41 3.88 3.88 0 01-.4-1.94v-3.64h.85v3.51a2.94 2.94 0 00.39 1.77 2 2 0 001.73.9 2.64 2.64 0 002.31-1.43v-4.75h.85v6.84h-.85zm9.26-.11a3.61 3.61 0 01-2.7 1.19 3.56 3.56 0 01-3.67-3.57 3.52 3.52 0 013.54-3.57 3.6 3.6 0 012.57 1.06l-.54.62a2.91 2.91 0 00-2.07-.87 2.76 2.76 0 00.12 5.52 2.86 2.86 0 002.1-.95zm7.08 1.04v-1a3 3 0 01-2.46 1.16 3.47 3.47 0 01-3.49-3.57 3.66 3.66 0 011.27-2.81 3.51 3.51 0 012.18-.76 3.31 3.31 0 012.5 1.09v-.94h.83v6.84zm0-4.8a3 3 0 00-2.46-1.38 2.64 2.64 0 00-1.65.58 2.81 2.81 0 00-1 2.18 2.64 2.64 0 002.64 2.73 2.84 2.84 0 002.44-1.5zm7.28-1.23h-2.33v3.75a1.69 1.69 0 00.3 1.14 1.4 1.4 0 001.14.48 3 3 0 00.74-.09l.15.78a3.61 3.61 0 01-.89.12 2.32 2.32 0 01-1.83-.78 2.54 2.54 0 01-.46-1.68v-3.72h-1.92v-.81h1.92v-1.85h.85v1.86h2.33zm2.52-3.95a.77.77 0 01.76.77.75.75 0 01-.76.75.74.74 0 01-.75-.75.76.76 0 01.75-.77zm-.42 3.14h.85v6.84h-.85zm6.33 6.99a3.57 3.57 0 113.52-3.57 3.5 3.5 0 01-3.52 3.57zm0-6.33a2.76 2.76 0 102.67 2.76 2.67 2.67 0 00-2.67-2.76zm6.3.3a3.16 3.16 0 014.84 0 3.26 3.26 0 01.59 2.19v3.65h-.86v-3.55a2.72 2.72 0 00-.39-1.68 2.11 2.11 0 00-1.78-.91 2.7 2.7 0 00-2.37 1.42v4.76h-.86v-6.84h.83z"/></g></g></svg>