<svg version="1.1" id="Layer_1" xmlns="http://www.w3.org/2000/svg" x="0" y="0" viewBox="0 0 408.4 307.8" xml:space="preserve"><style>.st1{fill:#9a9fa5}.st2{fill:#fffa0c}</style><path d="M56.4 225.2h340m-340-54.4h340m-340-54.4h340" fill="none" stroke="#9a9fa5" stroke-miterlimit="10"/><path d="M13.9 218.8v1H9.2l-.5 3.5c.5-.3 1.1-.4 1.7-.4 2.2 0 4 1.8 4 4s-1.8 4-4 4c-1.3 0-2.6-.7-3.3-1.8l.8-.6c.6.8 1.5 1.3 2.5 1.3 1.7 0 3-1.3 3-3s-1.3-3-3-3c-.8 0-1.5.3-2.1.8l-.7-.1.8-5.8 5.5.1zm6.6-.1c2.9 0 4 2.6 4 6.1s-1.1 6.1-4 6.1-4-2.6-4-6.1 1.1-6.1 4-6.1zm0 11.2c2.2 0 3-2.2 3-5.1s-.8-5.1-3-5.1-3 2.2-3 5.1.8 5.1 3 5.1zm9-11.2c1.7 0 3 1.3 3 2.9 0 1.7-1.3 3-2.9 3-1.7 0-3-1.3-3-2.9-.1-1.7 1.2-3 2.9-3zm0 .8c-1.2-.1-2.3.9-2.3 2.1-.1 1.2.9 2.3 2.1 2.3s2.3-.9 2.3-2.1v-.1c0-1.1-.9-2.1-2.1-2.2zm-.3 11.2l6.9-11.9h.9l-6.9 11.9h-.9zm7.5-5.9c1.7 0 3 1.3 3 3s-1.3 3-3 3c-1.6 0-3-1.3-3-2.9-.1-1.7 1.3-3.1 3-3.1-.1 0-.1 0 0 0zm0 .9c-1.2-.1-2.3.9-2.3 2.1s.9 2.3 2.1 2.3c1.2.1 2.3-.9 2.3-2.1v-.1c0-1.2-.9-2.2-2.1-2.2zm41.8 15c.5.7 1.3 1.2 2.2 1.2 1.2 0 2.2-.9 2.2-2.1s-.9-2.2-2.1-2.2h-.3c-.5 0-1 .1-1.4.3v-1.4l2.2-2.6h-4v-2h7.2v1.4l-2.2 2.6c1.6.6 2.7 2.1 2.8 3.9 0 2.3-1.9 4.2-4.2 4.2h-.2c-1.5 0-3-.7-3.9-1.9l1.7-1.4zm9.7 0c.5.7 1.3 1.2 2.2 1.2 1.2 0 2.2-.9 2.2-2.1s-.9-2.2-2.1-2.2h-.3c-.5 0-1 .1-1.4.3v-1.4l2.2-2.6h-4v-2h7.2v1.4l-2.2 2.6c1.6.6 2.7 2.1 2.8 3.9 0 2.3-1.9 4.2-4.2 4.2h-.3c-1.5 0-3-.7-3.9-1.9l1.8-1.4zm11.8-9c1.7 0 3.1 1.5 3.1 3.2 0 1.7-1.5 3.1-3.2 3.1-1.7 0-3.1-1.4-3.1-3.1 0-1.8 1.4-3.2 3.2-3.2-.1 0 0 0 0 0zm0 1.8c-.7 0-1.3.5-1.4 1.2 0 .7.5 1.3 1.2 1.4.7 0 1.3-.5 1.4-1.2v-.1c0-.6-.5-1.2-1.2-1.3zm-.3 10.2l7-11.9h1.9l-7 11.9h-1.9zm8.5-6.1c1.7 0 3.1 1.5 3.1 3.2 0 1.7-1.5 3.1-3.2 3.1-1.7 0-3.1-1.4-3.1-3.1 0-1.8 1.4-3.2 3.2-3.2zm0 1.9c-.7 0-1.3.5-1.4 1.2 0 .7.5 1.3 1.2 1.4.7 0 1.3-.5 1.4-1.2v-.1c.1-.7-.4-1.3-1.2-1.3.1 0 .1 0 0 0zm55.4-29.7v7.1h1.9v2h-1.9v2.7h-2.3V219h-5.5v-1.4l6.2-7.8h1.6zm-2.3 7.2v-2.8l-2.2 2.8h2.2zm5.1-4.6c.5-1.6 2-2.8 3.8-2.8 2-.1 3.8 1.5 3.9 3.6v.1c-.1 1.3-.6 2.5-1.5 3.4l-2.5 2.9h4.1v2h-7.7v-1.4l4.2-4.7c.7-.6 1.1-1.4 1.2-2.3 0-.9-.7-1.6-1.6-1.6-.8 0-1.5.6-1.6 1.3l-2.3-.5zm12.7-2.7c1.7 0 3.1 1.5 3.1 3.2 0 1.7-1.5 3.1-3.2 3.1-1.7 0-3.1-1.4-3.1-3.1-.1-1.8 1.4-3.2 3.2-3.2-.1 0-.1 0 0 0zm0 1.8c-.7 0-1.3.5-1.4 1.2 0 .7.5 1.3 1.2 1.4.7 0 1.3-.5 1.4-1.2v-.1c0-.6-.5-1.2-1.2-1.3zm-.3 10.2l7-11.9h1.9l-6.9 11.9h-2zm8.5-6.1c1.7 0 3.1 1.5 3.1 3.2 0 1.7-1.5 3.1-3.2 3.1-1.7 0-3.1-1.4-3.1-3.1 0-1.8 1.4-3.2 3.2-3.2-.1 0 0 0 0 0zm0 1.9c-.7 0-1.3.5-1.4 1.2 0 .7.5 1.3 1.2 1.4.7 0 1.3-.5 1.4-1.2v-.1c0-.7-.5-1.3-1.2-1.3zM0 166.4l2.6-1.6h.7v11.9h-1v-10.6L0 167.4v-1zm10.4-1.7c2.9 0 4 2.6 4 6.1s-1.1 6.1-4 6.1-4-2.6-4-6.1 1.1-6.1 4-6.1zm0 11.2c2.2 0 3-2.2 3-5.1s-.8-5.1-3-5.1-3 2.2-3 5.1.8 5.1 3 5.1zm10.1-11.2c2.9 0 4 2.6 4 6.1s-1.1 6.1-4 6.1-4-2.6-4-6.1 1.1-6.1 4-6.1zm0 11.2c2.2 0 3-2.2 3-5.1s-.8-5.1-3-5.1-3 2.2-3 5.1.8 5.1 3 5.1zm9-11.2c1.7 0 3 1.3 3 2.9 0 1.7-1.3 3-2.9 3-1.7 0-3-1.3-3-2.9-.1-1.7 1.2-3 2.9-3zm0 .8c-1.2-.1-2.3.9-2.3 2.1-.1 1.2.9 2.3 2.1 2.3s2.3-.9 2.3-2.1v-.1c0-1.1-.9-2.1-2.1-2.2zm-.3 11.2l6.9-11.9h.9l-6.9 11.9h-.9zm7.5-5.9c1.7 0 3 1.3 3 3s-1.3 3-3 3c-1.6 0-3-1.3-3-2.9-.1-1.7 1.3-3.1 3-3.1-.1 0-.1 0 0 0zm0 .9c-1.2-.1-2.3.9-2.3 2.1s.9 2.3 2.1 2.3c1.2.1 2.3-.9 2.3-2.1v-.1c0-1.2-.9-2.2-2.1-2.2zM.8 112.4l2.6-1.6h.7v11.9h-1v-10.6l-2.3 1.3v-1zm13.1-1.6v1H9.2l-.5 3.5c.5-.3 1.1-.4 1.7-.4 2.2 0 4 1.8 4 4s-1.8 4-4 4c-1.3 0-2.6-.7-3.3-1.8l.8-.6c.6.8 1.5 1.3 2.5 1.3 1.7 0 3-1.3 3-3s-1.3-3-3-3c-.8 0-1.5.3-2.1.8l-.7-.1.8-5.8 5.5.1zm6.6-.1c2.9 0 4 2.6 4 6.1s-1.1 6.1-4 6.1-4-2.6-4-6.1 1.1-6.1 4-6.1zm0 11.2c2.2 0 3-2.2 3-5.2s-.8-5.2-3-5.2-3 2.2-3 5.2.8 5.2 3 5.2zm9-11.2c1.7 0 3 1.3 3 2.9s-1.3 3-2.9 3c-1.7 0-3-1.3-3-2.9-.1-1.7 1.2-3 2.9-3zm0 .8c-1.2-.1-2.3.9-2.3 2.1-.1 1.2.9 2.3 2.1 2.3s2.3-.9 2.3-2.1v-.1c0-1.1-.9-2.1-2.1-2.2zm-.3 11.2l6.9-11.9h.9l-6.9 11.9h-.9zm7.5-5.9c1.7 0 3 1.3 3 3s-1.3 3-3 3c-1.6 0-3-1.3-3-2.9-.1-1.7 1.3-3.1 3-3.1-.1 0-.1 0 0 0zm0 .9c-1.2-.1-2.3.9-2.3 2.1-.1 1.2.9 2.3 2.1 2.3s2.3-.9 2.3-2.1v-.1c0-1.2-.9-2.2-2.1-2.2zm67.6 174.1v1h-4.8l-.5 3.5c.5-.3 1.1-.4 1.7-.4 2.2 0 4 1.8 4 4s-1.8 4-4 4c-1.3 0-2.6-.7-3.3-1.8l.8-.5c.6.8 1.5 1.3 2.5 1.3 1.7 0 3-1.3 3-3s-1.3-3-3-3c-.8 0-1.5.3-2.1.8l-.7-.1.8-5.8h5.6zm13.5 9.6h-.7l-4.2-7v9.4h-1v-11.9h.7l4.9 8.2 4.9-8.2h.7v11.9h-1v-9.4l-4.3 7zm11.5 2.5c-2.2 0-4-1.8-4-4s1.8-4 4-4 4 1.8 4 4-1.7 4-4 4zm0-7.2c-1.7-.1-3.2 1.3-3.3 3-.1 1.7 1.3 3.2 3 3.3 1.7.1 3.2-1.3 3.3-3v-.1c.1-1.7-1.2-3.1-2.9-3.1 0-.1 0-.1-.1-.1zm7.1.4c1.3-1.5 3.5-1.7 5-.4.2.1.3.3.5.5.5.7.7 1.6.7 2.5v4.1h-1v-4.1c.1-.7-.1-1.3-.4-1.9-.5-.6-1.2-1-2-1-1.1 0-2.2.6-2.7 1.6v5.4h-1V296h.9v1.1zm13.3-.2h-2.6v4.2c0 .5.1.9.3 1.3.3.4.8.6 1.3.5.3 0 .6 0 .8-.1l.2.9c-.3.1-.7.1-1 .1-.8 0-1.5-.3-2.1-.9-.4-.6-.6-1.2-.5-1.9v-4.2h-2.2v-.8h2.1v-2.1h1v2.1h2.6l.1.9zm3.3.1c1.3-1.5 3.6-1.6 5.1-.3l.4.4c.5.7.7 1.6.7 2.5v4.1h-1v-4.1c.1-.7-.1-1.3-.4-1.9-.5-.6-1.2-1-2-1-1.1 0-2.2.6-2.7 1.6v5.4h-1v-12.1h1l-.1 5.4zm8.7 5.1c.6.6 1.5.9 2.3.9 1 0 1.8-.5 1.8-1.4 0-2-4.5-.9-4.5-3.5.1-1.3 1.3-2.4 2.6-2.3.9 0 1.8.3 2.5.8l-.5.8c-.6-.4-1.2-.6-1.9-.6-.8 0-1.7.4-1.7 1.3 0 1.7 4.5.8 4.5 3.5 0 1.3-1.2 2.4-2.5 2.3h-.2c-1.1 0-2.2-.4-3-1.1l.6-.7zM139.1.1h1.7c.1 0 .1 0 .1.1 0 0 .1.1.1.2v12.2c0 .1 0 .1-.1.2l-.1.1h-1.7c-.1 0-.1 0-.1-.1 0 0-.1-.1-.1-.2V4h-.1l-1.6 2.8c0 .2 0 .2-.1.2s-.1 0-.2-.1L135.4 4h-.1v8.6c0 .1 0 .1-.1.2l-.1.1h-1.7c-.1 0-.1 0-.1-.1 0 0-.1-.1-.1-.2V.4c0-.1 0-.1.1-.2l.1-.1h1.6c.1 0 .2 0 .3.1l1.7 3.1h.1l1.7-3.1c.1 0 .2-.1.3-.1zm4.5 11.9c-.6-.7-1-1.6-.9-2.5v-6c0-.9.3-1.8.9-2.5.7-.6 1.6-1 2.5-.9.9 0 1.8.3 2.5.9.6.7 1 1.6.9 2.5v6c0 .9-.3 1.8-.9 2.5-.7.6-1.6 1-2.5.9-.9 0-1.8-.3-2.5-.9zm3.5-1.3c.3-.3.4-.7.4-1.1V3.3c0-.4-.1-.8-.4-1.1-.5-.6-1.4-.6-1.9-.1l-.1.1c-.3.3-.4.7-.4 1.1v6.2c0 .4.1.8.4 1.1.5.6 1.3.6 2 .1-.1 0-.1 0 0 0zM156.5.2s.1-.1.2-.1h1.6c.1 0 .1 0 .2.1 0 0 .1.1.1.2v12.2c0 .1 0 .1-.1.2 0 0-.1.1-.2.1h-1.9c-.1 0-.2-.1-.2-.2l-2.7-7.6h-.1v7.7c0 .1 0 .1-.1.2 0 0-.1.1-.2.1h-1.6c-.1 0-.1 0-.1-.1 0 0-.1-.1-.1-.2V.4c0-.1 0-.1.1-.2l.1-.1h1.9c.1 0 .2.1.2.2l2.7 7.6h.1V.4c0-.1 0-.2.1-.2zm10.6 0s.1.1.1.2v1.4c0 .1 0 .1-.1.2l-.1.1h-2.3s-.1 0-.1.1v10.5c0 .1 0 .1-.1.2 0 0-.1.1-.2.1h-1.6c-.1 0-.1 0-.1-.1 0 0-.1-.1-.1-.2V2s0-.1-.1-.1h-2.2c-.1 0-.1 0-.1-.1 0 0-.1-.1-.1-.2V.4c0-.1 0-.1.1-.2l.1-.1h6.7c.1 0 .1.1.2.1zm6.1 0l.1-.1h1.7c.1 0 .1 0 .1.1 0 0 .1.1.1.2v12.2c0 .1 0 .1-.1.2l-.1.1h-1.7c-.1 0-.1 0-.1-.1 0 0-.1-.1-.1-.2V7.4s0-.1-.1-.1h-2.3s-.1 0-.1.1v5.1c0 .1 0 .1-.1.2l-.1.1h-1.6c-.1 0-.2-.1-.2-.2V.4c0-.1.1-.2.2-.2h1.6c.1 0 .1 0 .1.1 0 0 .1.1.1.2v5.1s0 .1.1.1h2.3s.1 0 .1-.1V.4c0-.1 0-.2.1-.2zm4 12.5s-.1-.1-.1-.2V.4c0-.1 0-.1.1-.2l.1-.1h1.7c.1 0 .1 0 .1.1 0 0 .1.1.1.2v10.5s0 .1.1.1h3.9c.1 0 .1 0 .1.1 0 0 .1.1.1.2v1.4c0 .1 0 .1-.1.2l-.1.1h-5.9c0-.3-.1-.3-.1-.3zm9 0l-.1-.1v-5l-2.5-7V.3s.1-.2.2-.2h1.7c.1 0 .2.1.3.2l1.4 4.6h.1l1.4-4.6c0-.1.1-.2.3-.2h1.7c.1 0 .1 0 .2.1v.2l-2.5 7v5c0 .1-.1.2-.2.2h-1.7c-.2.1-.2.1-.3.1zm9.7 0s-.1-.1-.1-.2V.4c0-.1 0-.1.1-.2l.1-.1h1.7c.1 0 .1 0 .1.1 0 0 .1.1.1.2v12.2c0 .1 0 .1-.1.2l-.1.1H196c0-.2 0-.2-.1-.2zM205.1.2s.1-.1.2-.1h1.6c.1 0 .1 0 .2.1 0 0 .1.1.1.2v12.2c0 .1 0 .1-.1.2 0 0-.1.1-.2.1H205c-.1 0-.2-.1-.2-.2l-2.7-7.6h-.1v7.6c0 .1 0 .1-.1.2l-.1.1h-1.6c-.1 0-.1 0-.1-.1 0 0-.1-.1-.1-.2V.4c0-.1 0-.1.1-.2l.1-.1h1.9c.1 0 .2.1.2.2l2.7 7.6h.1c.1 0 0 0 0-.1V.4c-.1-.1-.1-.2 0-.2zm4.6 11.8c-.6-.7-1-1.5-.9-2.5V3.4c0-.9.3-1.8.9-2.5.7-.6 1.6-.9 2.5-.9.9 0 1.8.3 2.5.9.6.7 1 1.5.9 2.5v.2c0 .1 0 .1-.1.2l-.1.1-1.7.1c-.1 0-.2-.1-.2-.2v-.6c0-.4-.1-.7-.4-1-.3-.3-.6-.4-1-.4s-.7.1-.9.4c-.2.3-.4.6-.4 1v6.4c0 .4.1.7.4 1 .2.3.6.4.9.4.4 0 .7-.1 1-.4.2-.3.4-.6.4-1v-.4c0-.1.1-.2.2-.2l1.7.1c.1 0 .2.1.2.2v.2c0 .9-.3 1.8-.9 2.5-.7.6-1.6 1-2.5.9-.9 0-1.8-.3-2.5-.9zm8.3-.1c-.6-.7-1-1.6-.9-2.5v-6c0-.9.3-1.8.9-2.5 1.4-1.2 3.6-1.2 5 0 .7.7 1 1.6 1 2.5v6c0 .9-.3 1.8-1 2.5-1.4 1.3-3.6 1.3-5 0zm3.5-1.2c.3-.3.4-.7.4-1.1V3.3c0-.4-.1-.8-.4-1.1-.3-.3-.6-.4-1-.4s-.7.1-1 .4c-.3.3-.4.7-.4 1.1v6.2c0 .4.1.8.4 1.1.3.3.6.4 1 .4.3.1.7-.1 1-.3zM231.6.1h1.6c.1 0 .1 0 .2.1 0 0 .1.1.1.2v12.2c0 .1 0 .1-.1.2 0 0-.1.1-.2.1h-1.6c-.1 0-.1 0-.2-.1 0 0-.1-.1-.1-.2V4h-.1l-1.6 2.8c.1.2 0 .2 0 .2l-.2-.2-1.6-2.8h-.1v8.6c0 .1 0 .1-.1.2 0 0-.1.1-.2.1h-1.6c-.1 0-.1 0-.2-.1 0 0-.1-.1-.1-.2V.4c0-.1 0-.1.1-.2 0 0 .1-.1.2-.1h1.6c.1 0 .2 0 .3.1l1.8 3.1h.1l1.7-3.1c.1 0 .2 0 .3-.1zm10 1.8s-.1.1-.2.1h-3.9s-.1 0-.1.1v3.4s0 .1.1.1h2.3c.1 0 .1 0 .1.1 0 0 .1.1.1.2v1.4c0 .1 0 .1-.1.2l-.1.1h-2.3s-.1 0-.1.1v3.4s0 .1.1.1h3.9c.1 0 .1 0 .2.1 0 0 .1.1.1.2v1.4c0 .1-.1.2-.2.2h-5.9c-.1 0-.1 0-.1-.1 0 0-.1-.1-.1-.2V.4c0-.1 0-.1.1-.2l.1-.1h5.9c.1 0 .2.1.2.2v1.4c-.1.1-.1.1-.1.2zm5.2 10.8s-.1-.1-.1-.2V.4c0-.1 0-.1.1-.2l.1-.1h1.7c.1 0 .1 0 .1.1 0 0 .1.1.1.2v12.2c0 .1 0 .1-.1.2l-.1.1H247c-.1-.2-.1-.2-.2-.2zM256 .2s.1-.1.2-.1h1.6c.1 0 .1 0 .1.1 0 0 .1.1.1.2v12.2c0 .1 0 .1-.1.2l-.1.1h-1.9c-.1 0-.2-.1-.2-.2L253 4.9h-.1s-.1 0-.1.1v7.6c0 .1-.1.2-.2.2H251c-.1 0-.1 0-.2-.1 0 0-.1-.1-.1-.2V.4c0-.1 0-.1.1-.2 0 0 .1-.1.2-.1h1.9c.1 0 .2.1.2.2l2.7 7.6h.1c.1 0 0 0 0-.1V.4c0-.1 0-.2.1-.2zm4.6 11.8c-.6-.7-1-1.5-.9-2.5V3.4c0-.9.3-1.8.9-2.5.7-.6 1.5-.9 2.5-.9.9 0 1.8.3 2.5.9.6.7 1 1.5.9 2.5v.2c0 .1 0 .1-.1.2l-.1.1-1.7.1c-.1 0-.2-.1-.2-.2v-.6c0-.4-.1-.7-.4-1-.3-.3-.6-.4-1-.4s-.7.1-.9.4c-.2.3-.4.6-.4 1v6.4c0 .4.1.7.4 1 .2.3.6.4.9.4.4 0 .7-.1 1-.4.2-.3.4-.6.4-1v-.4c0-.1.1-.2.2-.2l1.7.1c.1 0 .2.1.2.2v.2c0 .9-.3 1.8-.9 2.5-.7.6-1.6 1-2.5.9-.9 0-1.8-.3-2.5-.9zm12.3.6l-1.5-5.1s0-.1-.1-.1h-1s-.1 0-.1.1v5.1c0 .1 0 .1-.1.2 0 0-.1.1-.2.1h-1.6c-.1 0-.1 0-.1-.1 0 0-.1-.1-.1-.2V.4c0-.1 0-.1.1-.2l.1-.1h3.4c1.2 0 2.3.7 2.8 1.8.3.6.4 1.3.4 1.9 0 .7-.1 1.3-.4 1.9-.3.5-.7.9-1.2 1.2l-.1.1 1.8 5.4v.1c0 .1-.1.2-.2.2h-1.7c-.1 0-.2 0-.2-.1zM270.2 2v3.6s0 .1.1.1h1.1c.4 0 .8-.2 1-.5.3-.4.4-.9.4-1.4 0-.5-.1-1-.4-1.4-.2-.3-.6-.5-1-.5l-1.2.1c.1-.1 0 0 0 0zm12.5-.1l-.1.1h-3.9s-.1 0-.1.1v3.4s0 .1.1.1h2.3c.1 0 .2.1.2.2v1.4c0 .1-.1.2-.2.2h-2.3s-.1 0-.1.1v3.4s0 .1.1.1h3.9c.1 0 .1 0 .1.1 0 0 .1.1.1.2v1.4c0 .1 0 .1-.1.2l-.1.1h-5.9c-.1 0-.1 0-.2-.1 0 0-.1-.1-.1-.2V.4c0-.1 0-.1.1-.2 0 0 .1-.1.2-.1h5.9c.1 0 .1 0 .1.1 0 0 .1.1.1.2v1.4c-.1 0-.1 0-.1.1zm6.8 10.6l-.3-1.9c0-.1 0-.1-.1-.1h-2.6c-.1 0-.1 0-.1.1l-.3 1.9c0 .1-.1.2-.2.2h-1.7c-.2 0-.2-.1-.2-.2L286.7.3c0-.1.1-.2.2-.2h1.9c.1 0 .2.1.2.2l2.7 12.2v.1c0 .1-.1.2-.2.2h-1.7c-.2 0-.3-.1-.3-.3 0 .1 0 .1 0 0zm-2.8-3.6h2c.1 0 .1 0 .1-.1l-1-5.7-.1.1-1 5.7zM293 12c-.6-.6-.9-1.5-.9-2.4v-.4c0-.1 0-.1.1-.2l.1-.1h1.6c.1 0 .1 0 .1.1 0 0 .1.1.1.2v.4c0 .4.1.8.4 1.1.2.3.6.4.9.4.3 0 .7-.1.9-.4.2-.3.4-.7.4-1.1 0-.3-.1-.6-.2-.8-.1-.2-.3-.5-.6-.6-.2-.2-.6-.5-1.1-.9-.5-.4-1-.7-1.5-1.2-.4-.4-.7-.8-.9-1.2-.2-.5-.4-1.1-.3-1.7 0-.9.3-1.7.9-2.4.6-.6 1.5-.9 2.4-.9.9 0 1.8.3 2.4.9.6.7 1 1.5.9 2.5v.4c0 .1-.1.2-.2.2h-1.6c-.1 0-.1 0-.1-.1 0 0-.1-.1-.1-.2v-.3c0-.4-.1-.8-.4-1.1-.2-.3-.6-.4-.9-.4-.3 0-.7.1-.9.4-.3.3-.4.7-.4 1.1 0 .4.1.8.4 1.1.4.5.9.9 1.5 1.2.6.4 1.1.9 1.7 1.3.4.3.6.7.9 1.1.2.5.3 1 .3 1.5 0 .9-.3 1.8-.9 2.5-.6.6-1.5 1-2.4.9-1.1 0-2-.3-2.6-.9zm13.4-10.1l-.1.1h-3.9s-.1 0-.1.1v3.4s0 .1.1.1h2.3c.1 0 .1 0 .1.1 0 0 .1.1.1.2v1.4c0 .1 0 .1-.1.2l-.1.1h-2.3s-.1 0-.1.1v3.4s0 .1.1.1h3.9c.1 0 .1 0 .1.1 0 0 .1.1.1.2v1.4c0 .1 0 .1-.1.2l-.1.1h-5.9c-.1 0-.1 0-.1-.1 0 0-.1-.1-.1-.2V.4c0-.1 0-.1.1-.2l.1-.1h5.9c.1 0 .1 0 .1.1 0 0 .1.1.1.2v1.4c-.1 0-.1 0-.1.1zm-129.8 34c-.6-1-1-2.1-1.3-3.3-.7-2.8-.7-5.7 0-8.5.3-1.2.7-2.3 1.3-3.3 0-.1.1-.1.2-.1h1.6c.1 0 .1 0 .2.1v.2c-.5 1.1-.8 2.2-1.1 3.4-.3 1.3-.5 2.7-.4 4.1 0 1.3.1 2.7.4 4 .3 1.2.6 2.3 1.1 3.4v.2h-1.7c-.1-.1-.2-.1-.3-.2zM187 23.4l-.1.1H183s-.1 0-.1.1V27s0 .1.1.1h2.3c.1 0 .1 0 .2.1 0 0 .1.1.1.2v1.4c0 .1 0 .1-.1.2 0 0-.1.1-.2.1H183s-.1 0-.1.1v3.4s0 .1.1.1h3.9c.1 0 .1 0 .1.1 0 0 .1.1.1.2v1.4c0 .1 0 .1-.1.2l-.1.1H181c-.1 0-.1 0-.1-.1 0 0-.1-.1-.1-.2V22c0-.1 0-.1.1-.2l.1-.1h5.9c.1 0 .1 0 .1.1 0 0 .1.1.1.2v1.4h-.1zm6.8 10.7l-.3-1.9c0-.1 0-.1-.1-.1h-2.6c-.1 0-.1 0-.1.1l-.4 1.9c0 .1-.1.2-.2.2h-1.6c-.2 0-.2-.1-.2-.2l2.7-12.2c0-.1.1-.2.2-.2h1.9c.1 0 .2.1.2.2l2.7 12.2v.1c0 .1-.1.2-.2.2h-1.7c-.2-.1-.3-.1-.3-.3zm-2.7-3.6h2c.1 0 .1 0 .1-.1l-1.1-5.7s0-.1-.1-.1 0 0 0 .1l-.9 5.8c-.1 0-.1 0 0 0zm6.2 3.1c-.6-.6-1-1.5-.9-2.4v-.5c0-.1 0-.1.1-.2l.1-.1h1.6c.1 0 .2.1.2.2v.4c0 .4.1.8.4 1.1.2.3.6.4.9.4.4 0 .7-.1.9-.4.2-.3.4-.7.4-1.1 0-.3-.1-.6-.2-.8-.1-.2-.3-.5-.6-.6-.2-.2-.6-.5-1.1-.9-.5-.4-1-.7-1.4-1.1-.4-.4-.7-.8-.9-1.2-.3-.5-.4-1.1-.4-1.6 0-.9.3-1.7.9-2.4 1.4-1.2 3.4-1.2 4.8 0 .6.7 1 1.5.9 2.5v.5c0 .1 0 .1-.1.1 0 0-.1.1-.2.1h-1.6c-.1 0-.1 0-.1-.1l-.1-.1v-.5c0-.4-.1-.8-.4-1.1-.2-.3-.6-.4-.9-.4-.3 0-.7.1-.9.4-.2.3-.4.7-.4 1.1 0 .4.1.8.4 1.1.4.5.9.9 1.4 1.2.6.4 1.1.9 1.7 1.3.4.3.6.7.9 1.1.2.5.3 1 .3 1.5 0 .9-.3 1.8-.9 2.5a3.65 3.65 0 01-4.8 0zM211 21.8s.1.1.1.2v1.4c0 .1 0 .1-.1.2l-.1.1h-2.3s-.1 0-.1.1v10.5c0 .1 0 .1-.1.2l-.1.1h-1.7c-.1 0-.1 0-.1-.1 0 0-.1-.1-.1-.2V23.6s0-.1-.1-.1h-2.2c-.1 0-.1 0-.2-.1 0 0-.1-.1-.1-.2V22c0-.1.1-.2.2-.2h6.7c.2-.1.3 0 .3 0zm10 12.3l-.3-1.9c0-.1 0-.1-.1-.1H218c-.1 0-.1 0-.1.1l-.4 1.9c0 .1-.1.2-.2.2h-1.6c-.2 0-.2-.1-.2-.2l2.7-12.2c0-.1.1-.2.2-.2h1.9c.1 0 .2.1.2.2l2.7 12.2v.1c0 .1-.1.2-.2.2h-1.7c-.2-.1-.2-.1-.3-.3zm-2.8-3.6h2c.1 0 .1 0 .1-.1l-1-5.7s0-.1-.1-.1 0 0 0 .1l-1 5.8zm12.3-7.1l-.1.1h-3.9s-.1 0-.1.1V27s0 .1.1.1h2.3c.1 0 .1 0 .1.1 0 0 .1.1.1.2v1.4c0 .1 0 .1-.1.2l-.1.1h-2.3s-.1 0-.1.1v5.1c0 .1-.1.2-.2.2h-1.6c-.1 0-.2-.1-.2-.2V22c0-.1 0-.1.1-.2 0 0 .1-.1.2-.1h5.8c.1 0 .1 0 .1.1 0 0 .1.1.1.2v1.4h-.2zm6.1 10.8l-1.5-5.2s0-.1-.1-.1h-1s-.1 0-.1.1v5.1c0 .1-.1.2-.2.2h-1.6c-.1 0-.2-.1-.2-.2V22c0-.1 0-.1.1-.2 0 0 .1-.1.2-.1h3.4c1.2 0 2.3.7 2.8 1.8.3.6.4 1.3.4 1.9 0 .7-.1 1.3-.4 1.9-.3.5-.7.9-1.2 1.2-.1 0-.1 0-.1.1l1.8 5.4v.1c0 .1-.1.2-.2.2H237c-.3.1-.4 0-.4-.1zm-2.7-10.6v3.6s0 .1.1.1h1.1c.4 0 .8-.2 1-.5.3-.4.4-.9.4-1.4 0-.5-.1-1-.4-1.4-.2-.3-.6-.5-1-.5l-1.2.1c0-.1 0 0 0 0zm6.3 10.7s-.1-.1-.1-.2V22c0-.1 0-.1.1-.2 0 0 .1-.1.2-.1h1.6c.1 0 .1 0 .1.1 0 0 .1.1.1.2v12.2c0 .1 0 .1-.1.2l-.1.1h-1.6c-.1-.2-.2-.2-.2-.2zm4.6-.7c-.6-.7-1-1.5-.9-2.5V25c0-.9.3-1.8.9-2.5 1.4-1.2 3.5-1.2 4.9 0 .6.7 1 1.5.9 2.5v.2c0 .1 0 .1-.1.2 0 0-.1.1-.2.1l-1.7.1c-.1 0-.2-.1-.2-.2v-.6c0-.4-.1-.7-.4-1-.5-.5-1.4-.5-1.9 0-.2.3-.4.6-.4 1v6.4c0 .4.1.7.4 1 .5.5 1.4.5 1.9 0 .2-.3.4-.6.4-1v-.5c0-.1 0-.1.1-.1l.1-.1 1.7.1c.1 0 .1 0 .2.1l.1.1v.2c0 .9-.3 1.8-.9 2.5-1.3 1.3-3.4 1.3-4.9.1zm12.3.5l-.3-1.9c0-.1 0-.1-.1-.1h-2.6c-.1 0-.1 0-.1.1l-.4 1.9c0 .1-.1.2-.2.2h-1.6c-.2 0-.2-.1-.2-.2l2.6-12.2c0-.1.1-.2.2-.2h1.9c.1 0 .2.1.2.2l2.7 12.2v.1c0 .1-.1.2-.2.2h-1.7c-.1-.1-.2-.1-.2-.3zm-2.8-3.6h2c.1 0 .1 0 .1-.1l-1.1-5.7s0-.1-.1-.1 0 0-.1.1l-.8 5.8c-.1 0 0 0 0 0zm8.3-9.7c.6 1 1.1 2.1 1.3 3.3.4 1.4.5 2.8.5 4.2 0 1.4-.2 2.9-.5 4.3-.3 1.2-.7 2.3-1.4 3.3 0 .1-.1.2-.2.2h-1.6c-.1 0-.1 0-.2-.1v-.2c.5-1.1.8-2.2 1.1-3.4.3-1.3.4-2.7.4-4.1 0-1.4-.1-2.7-.4-4-.3-1.2-.6-2.3-1.1-3.4v-.1c0-.1 0-.1.2-.1h1.6c.2 0 .3 0 .3.1zM283 300.7h-6v-.7l6.4-8.2h.7v7.9h2v1h-2v3.1h-1l-.1-3.1zm0-1v-5.8l-4.5 5.8h4.5zm9.2 8.1l2.1-4.7-3.5-7.1h1.1l2.9 6 2.7-6h1l-5.4 11.8h-.9zm14.3-5.4c-.8.9-2 1.5-3.2 1.4-2.1 0-3.9-1.7-3.9-3.8v-.2c-.1-2.1 1.5-3.9 3.6-4h.1c2 0 3.6 1.6 3.6 3.6v.5h-6.3c0 1.6 1.3 3 2.9 3 1 0 1.9-.4 2.5-1.1l.7.6zm-6-3.4h5.3c-.2-1.3-1.3-2.3-2.6-2.3s-2.5 1-2.7 2.3zm14.6 4.7v-1.1c-.7.9-1.7 1.3-2.8 1.3-2.2 0-4-1.7-4-3.9v-.2c0-1.2.5-2.4 1.4-3.2.7-.6 1.6-.9 2.5-.9 1.1 0 2.1.4 2.8 1.2v-.9h1v7.8l-.9-.1zm0-5.4c-.6-1-1.7-1.5-2.8-1.6-.7 0-1.3.2-1.9.7-.7.6-1.1 1.5-1.1 2.5-.1 1.7 1.2 3.1 2.9 3.1h.1c1.2 0 2.2-.7 2.8-1.7v-3zm7.7-1.5h-.5c-1.1 0-2 .7-2.4 1.7v5.3h-1V296h1v1c.6-.8 1.5-1.2 2.5-1.2h.6l-.2 1zm1.9 5.3c.6.6 1.5.9 2.3.9 1 0 1.8-.5 1.8-1.4 0-2-4.5-.9-4.5-3.5.1-1.3 1.3-2.4 2.6-2.3.9 0 1.8.3 2.5.8l-.5.8c-.6-.4-1.2-.6-1.9-.6-.8 0-1.7.4-1.7 1.3 0 1.7 4.5.8 4.5 3.5 0 1.3-1.2 2.4-2.5 2.3h-.2c-1.1 0-2.2-.4-3-1.1l.6-.7z"/><path class="st1" d="M67.9 249.1h32.3c11.4 0 20.7 9.3 20.7 20.7v9.8h-53v-30.5z"/><path class="st2" d="M146.9 234.1h32.3c11.4 0 20.7 9.3 20.7 20.7v24.8h-53v-45.5z"/><path d="M254.8 209.8v7.1h2v2h-2v2.7h-2.3V219H247v-1.4l6.2-7.8h1.6zm-2.3 7.2v-2.8l-2.2 2.8h2.2zm4.9-5.5l2.9-1.7h1.6v11.9h-2.3v-9.2l-2.2 1.2v-2.2zm10.4-1.8c1.7 0 3.1 1.5 3.1 3.2s-1.5 3.1-3.2 3.1c-1.7 0-3.1-1.4-3.1-3.1 0-1.8 1.4-3.2 3.2-3.2-.1 0 0 0 0 0zm0 1.8c-.7 0-1.3.5-1.4 1.2 0 .7.5 1.3 1.2 1.4s1.3-.5 1.4-1.2v-.1c0-.6-.5-1.2-1.2-1.3zm-.3 10.2l7-11.9h1.9l-7 11.9h-1.9zm8.5-6.1c1.7 0 3.1 1.5 3.1 3.2s-1.5 3.1-3.2 3.1c-1.7 0-3.1-1.4-3.1-3.1 0-1.8 1.4-3.2 3.2-3.2zm0 1.9c-.7 0-1.3.5-1.4 1.2 0 .7.5 1.3 1.2 1.4s1.3-.5 1.4-1.2v-.1c.1-.7-.4-1.3-1.2-1.3.1 0 .1 0 0 0zm45.6-150l2.9-1.7h1.6v11.9h-2.3v-9.2l-2.2 1.2v-2.2zm7.2 6.5c0-1.2.7-2.4 1.7-3-.6-.5-1-1.3-1-2.1 0-1.9 1.6-3.5 3.5-3.5s3.5 1.6 3.5 3.5c0 .8-.3 1.6-1 2.1 1.1.6 1.7 1.8 1.7 3-.2 2.3-2.3 4.1-4.7 3.8-2-.1-3.6-1.7-3.7-3.8zm6.2 0c.1-1.1-.7-2.1-1.8-2.2-1.1-.1-2.1.7-2.2 1.8-.1 1.1.7 2.1 1.8 2.2h.2c1 .1 1.9-.7 2-1.8-.1.1-.1.1 0 0zm-.8-5.1c0-.7-.5-1.2-1.2-1.2s-1.2.5-1.2 1.2.5 1.2 1.2 1.2 1.2-.5 1.2-1.2zm5.8 5.8c.5.7 1.3 1.2 2.2 1.2 1.2 0 2.2-.9 2.2-2.1 0-1.2-.9-2.2-2.1-2.2h-.3c-.5 0-1 .1-1.4.3v-1.4l2.2-2.6h-4v-2h7.2v1.4l-2.2 2.7c1.6.6 2.7 2.1 2.8 3.9 0 2.3-1.9 4.2-4.2 4.2h-.3c-1.5 0-3-.7-4-1.8l1.9-1.6zm11.8-9c1.7 0 3.1 1.5 3.1 3.2s-1.5 3.1-3.2 3.1c-1.7 0-3.1-1.4-3.1-3.1-.1-1.8 1.3-3.2 3.2-3.2-.1 0-.1 0 0 0zm0 1.8c-.7 0-1.3.5-1.4 1.2 0 .7.5 1.3 1.2 1.4s1.3-.5 1.4-1.2v-.1c0-.6-.5-1.2-1.2-1.3zm-.3 10.2l7-11.9h1.9l-7 11.9h-1.9zm8.5-6.1c1.7 0 3.1 1.5 3.1 3.2s-1.5 3.1-3.2 3.1c-1.7 0-3.1-1.4-3.1-3.1 0-1.8 1.4-3.2 3.2-3.2-.1 0 0 0 0 0zm0 1.9c-.7 0-1.3.5-1.4 1.2 0 .7.5 1.3 1.2 1.4s1.3-.5 1.4-1.2v-.1c0-.7-.5-1.3-1.2-1.3z"/><path class="st1" d="M236.9 238.1h32.3c11.4 0 20.7 9.3 20.7 20.7v20.8h-53v-41.5z"/><path class="st2" d="M315.9 83.1h32.3c11.4 0 20.7 9.3 20.7 20.7v175.8h-53V83.1z"/><path d="M36.4 279.6h372" fill="none" stroke="#282828" stroke-width="3" stroke-miterlimit="10"/></svg>