<svg width="465" height="160" xmlns="http://www.w3.org/2000/svg"><g fill="#FFFA0C" fill-rule="evenodd"><circle cx="109.5" cy="91.5" r="3.5"/><circle cx="109.5" cy="113.5" r="3.5"/><circle cx="109.5" cy="134.5" r="3.5"/><circle cx="109.5" cy="156.5" r="3.5"/><circle cx="136.5" cy="91.5" r="3.5"/><circle cx="136.5" cy="113.5" r="3.5"/><circle cx="136.5" cy="134.5" r="3.5"/><circle cx="136.5" cy="156.5" r="3.5"/><circle cx="163.5" cy="91.5" r="3.5"/><circle cx="163.5" cy="113.5" r="3.5"/><circle cx="163.5" cy="134.5" r="3.5"/><circle cx="163.5" cy="156.5" r="3.5"/><circle cx="190.5" cy="91.5" r="3.5"/><circle cx="190.5" cy="113.5" r="3.5"/><circle cx="190.5" cy="134.5" r="3.5"/><circle cx="190.5" cy="156.5" r="3.5"/><circle cx="217.5" cy="91.5" r="3.5"/><circle cx="217.5" cy="113.5" r="3.5"/><circle cx="217.5" cy="134.5" r="3.5"/><circle cx="217.5" cy="156.5" r="3.5"/><circle cx="244.5" cy="91.5" r="3.5"/><circle cx="244.5" cy="113.5" r="3.5"/><circle cx="244.5" cy="134.5" r="3.5"/><circle cx="244.5" cy="156.5" r="3.5"/><circle cx="271.5" cy="91.5" r="3.5"/><circle cx="271.5" cy="113.5" r="3.5"/><circle cx="271.5" cy="134.5" r="3.5"/><circle cx="271.5" cy="156.5" r="3.5"/><circle cx="299.5" cy="91.5" r="3.5"/><circle cx="299.5" cy="113.5" r="3.5"/><circle cx="299.5" cy="134.5" r="3.5"/><circle cx="299.5" cy="156.5" r="3.5"/><circle cx="326.5" cy="91.5" r="3.5"/><circle cx="326.5" cy="113.5" r="3.5"/><circle cx="326.5" cy="134.5" r="3.5"/><circle cx="326.5" cy="156.5" r="3.5"/><circle cx="353.5" cy="91.5" r="3.5"/><circle cx="353.5" cy="113.5" r="3.5"/><circle cx="353.5" cy="134.5" r="3.5"/><circle cx="353.5" cy="156.5" r="3.5"/><circle cx="380.5" cy="91.5" r="3.5"/><circle cx="380.5" cy="113.5" r="3.5"/><circle cx="380.5" cy="134.5" r="3.5"/><circle cx="380.5" cy="156.5" r="3.5"/><circle cx="407.5" cy="91.5" r="3.5"/><circle cx="407.5" cy="113.5" r="3.5"/><circle cx="407.5" cy="134.5" r="3.5"/><circle cx="407.5" cy="156.5" r="3.5"/><circle cx="434.5" cy="91.5" r="3.5"/><circle cx="434.5" cy="113.5" r="3.5"/><circle cx="434.5" cy="134.5" r="3.5"/><circle cx="434.5" cy="156.5" r="3.5"/><circle cx="461.5" cy="91.5" r="3.5"/><circle cx="461.5" cy="113.5" r="3.5"/><circle cx="461.5" cy="134.5" r="3.5"/><circle cx="461.5" cy="156.5" r="3.5"/><circle cx="136.5" cy="91.5" r="3.5"/><circle cx="136.5" cy="113.5" r="3.5"/><circle cx="136.5" cy="134.5" r="3.5"/><circle cx="136.5" cy="156.5" r="3.5"/><circle cx="109.5" cy="3.5" r="3.5"/><circle cx="109.5" cy="25.5" r="3.5"/><circle cx="109.5" cy="46.5" r="3.5"/><circle cx="109.5" cy="68.5" r="3.5"/><circle cx="136.5" cy="3.5" r="3.5"/><circle cx="136.5" cy="25.5" r="3.5"/><circle cx="136.5" cy="46.5" r="3.5"/><circle cx="136.5" cy="68.5" r="3.5"/><circle cx="163.5" cy="3.5" r="3.5"/><circle cx="163.5" cy="25.5" r="3.5"/><circle cx="163.5" cy="46.5" r="3.5"/><circle cx="163.5" cy="68.5" r="3.5"/><circle cx="190.5" cy="3.5" r="3.5"/><circle cx="190.5" cy="25.5" r="3.5"/><circle cx="190.5" cy="46.5" r="3.5"/><circle cx="190.5" cy="68.5" r="3.5"/><circle cx="217.5" cy="3.5" r="3.5"/><circle cx="217.5" cy="25.5" r="3.5"/><circle cx="217.5" cy="46.5" r="3.5"/><circle cx="217.5" cy="68.5" r="3.5"/><circle cx="244.5" cy="3.5" r="3.5"/><circle cx="244.5" cy="25.5" r="3.5"/><circle cx="244.5" cy="46.5" r="3.5"/><circle cx="244.5" cy="68.5" r="3.5"/><circle cx="271.5" cy="3.5" r="3.5"/><circle cx="271.5" cy="25.5" r="3.5"/><circle cx="271.5" cy="46.5" r="3.5"/><circle cx="271.5" cy="68.5" r="3.5"/><circle cx="299.5" cy="3.5" r="3.5"/><circle cx="299.5" cy="25.5" r="3.5"/><circle cx="299.5" cy="46.5" r="3.5"/><circle cx="299.5" cy="68.5" r="3.5"/><circle cx="326.5" cy="3.5" r="3.5"/><circle cx="326.5" cy="25.5" r="3.5"/><circle cx="326.5" cy="46.5" r="3.5"/><circle cx="326.5" cy="68.5" r="3.5"/><circle cx="353.5" cy="3.5" r="3.5"/><circle cx="353.5" cy="25.5" r="3.5"/><circle cx="353.5" cy="46.5" r="3.5"/><circle cx="353.5" cy="68.5" r="3.5"/><circle cx="380.5" cy="3.5" r="3.5"/><circle cx="380.5" cy="25.5" r="3.5"/><circle cx="380.5" cy="46.5" r="3.5"/><circle cx="380.5" cy="68.5" r="3.5"/><circle cx="407.5" cy="3.5" r="3.5"/><circle cx="407.5" cy="25.5" r="3.5"/><circle cx="407.5" cy="46.5" r="3.5"/><circle cx="407.5" cy="68.5" r="3.5"/><circle cx="434.5" cy="3.5" r="3.5"/><circle cx="434.5" cy="25.5" r="3.5"/><circle cx="434.5" cy="46.5" r="3.5"/><circle cx="434.5" cy="68.5" r="3.5"/><circle cx="461.5" cy="3.5" r="3.5"/><circle cx="461.5" cy="25.5" r="3.5"/><circle cx="461.5" cy="46.5" r="3.5"/><circle cx="461.5" cy="68.5" r="3.5"/><circle cx="136.5" cy="3.5" r="3.5"/><circle cx="136.5" cy="25.5" r="3.5"/><circle cx="136.5" cy="46.5" r="3.5"/><circle cx="136.5" cy="68.5" r="3.5"/><circle cx="3.5" cy="3.5" r="3.5"/><circle cx="3.5" cy="25.5" r="3.5"/><circle cx="3.5" cy="46.5" r="3.5"/><circle cx="3.5" cy="68.5" r="3.5"/><circle cx="30.5" cy="3.5" r="3.5"/><circle cx="30.5" cy="25.5" r="3.5"/><circle cx="30.5" cy="46.5" r="3.5"/><circle cx="30.5" cy="68.5" r="3.5"/><circle cx="57.5" cy="3.5" r="3.5"/><circle cx="57.5" cy="25.5" r="3.5"/><circle cx="57.5" cy="46.5" r="3.5"/><circle cx="57.5" cy="68.5" r="3.5"/><circle cx="84.5" cy="3.5" r="3.5"/><circle cx="84.5" cy="25.5" r="3.5"/><circle cx="84.5" cy="46.5" r="3.5"/><circle cx="84.5" cy="68.5" r="3.5"/><circle cx="3.5" cy="91.5" r="3.5"/><circle cx="3.5" cy="113.5" r="3.5"/><circle cx="3.5" cy="134.5" r="3.5"/><circle cx="3.5" cy="156.5" r="3.5"/><circle cx="30.5" cy="91.5" r="3.5"/><circle cx="30.5" cy="113.5" r="3.5"/><circle cx="30.5" cy="134.5" r="3.5"/><circle cx="30.5" cy="156.5" r="3.5"/><circle cx="57.5" cy="91.5" r="3.5"/><circle cx="57.5" cy="113.5" r="3.5"/><circle cx="57.5" cy="134.5" r="3.5"/><circle cx="57.5" cy="156.5" r="3.5"/><circle cx="84.5" cy="91.5" r="3.5"/><circle cx="84.5" cy="113.5" r="3.5"/><circle cx="84.5" cy="134.5" r="3.5"/><circle cx="84.5" cy="156.5" r="3.5"/></g></svg>