<?xml version="1.0" standalone="no"?>
<!DOCTYPE svg PUBLIC "-//W3C//DTD SVG 20010904//EN"
 "http://www.w3.org/TR/2001/REC-SVG-20010904/DTD/svg10.dtd">
<svg version="1.0" xmlns="http://www.w3.org/2000/svg"
 width="700.000000pt" height="700.000000pt" viewBox="0 0 700.000000 700.000000"
 preserveAspectRatio="xMidYMid meet">
<metadata>
Created by potrace 1.11, written by Peter Selinger 2001-2013
</metadata>
<g transform="translate(0.000000,700.000000) scale(0.100000,-0.100000)"
fill="#000000" stroke="none">
<path d="M3285 6994 c-203 -20 -276 -28 -375 -45 -610 -105 -1195 -376 -1665
-772 -95 -81 -310 -294 -394 -392 -468 -542 -742 -1176 -833 -1925 -17 -137
-17 -583 0 -720 69 -569 227 -1028 514 -1491 145 -236 311 -440 525 -649 204
-200 371 -332 592 -468 463 -287 922 -445 1491 -514 137 -17 583 -17 720 0
569 69 1028 227 1491 514 360 222 692 528 958 882 323 430 549 960 640 1501
38 223 46 327 46 585 0 258 -8 362 -46 585 -105 627 -382 1216 -800 1700 -84
98 -299 311 -394 392 -518 437 -1148 710 -1845 798 -117 15 -536 28 -625 19z
m481 -948 c83 -9 148 -21 177 -34 64 -28 122 -85 154 -150 l28 -57 3 -1877 2
-1878 -145 0 -145 0 -2 1847 -3 1848 -40 7 c-78 16 -399 21 -516 9 -470 -49
-907 -236 -1265 -544 -233 -201 -412 -434 -554 -722 -389 -791 -279 -1741 281
-2432 81 -99 223 -242 317 -317 39 -32 72 -61 72 -65 0 -4 -37 -58 -83 -119
l-84 -111 -89 72 c-406 326 -723 826 -855 1346 -57 226 -74 371 -73 631 0 297
28 490 106 745 248 813 874 1442 1687 1699 167 53 363 91 561 110 95 8 349 4
466 -8z m1369 -577 c112 -89 256 -235 355 -359 289 -363 464 -758 541 -1228
31 -181 33 -553 5 -732 -128 -833 -597 -1508 -1321 -1902 -355 -194 -727 -292
-1145 -304 -250 -7 -445 12 -525 51 -62 30 -118 88 -149 154 l-21 46 -3 1878
-2 1877 145 0 145 0 2 -1847 3 -1848 40 -7 c78 -16 399 -21 516 -9 470 49 907
236 1265 544 233 201 412 434 554 722 389 791 279 1741 -281 2432 -81 99 -223
242 -317 317 -43 35 -71 64 -68 72 13 34 162 221 171 215 6 -4 46 -36 90 -72z"/>
</g>
</svg>
