<svg xmlns="http://www.w3.org/2000/svg" viewBox="0 0 116 116"><title>linkedin</title><g id="ae41b70d-337c-49a2-baf5-7f4634ae587c" data-name="Layer 2"><g id="a4b0f8bf-97c6-4615-8184-85bfe40ebee9" data-name="Layer 1"><path d="M77,116H3a3,3,0,0,1-3-3V3A3,3,0,0,1,3,0H113a3,3,0,0,1,3,3V77A39.05,39.05,0,0,1,77,116ZM6,110H77a33,33,0,0,0,33-33V6H6Z" style="fill:#ffec00"/><path d="M86.66,85.79l-12.35,0,0-19.36c0-4.62-.07-10.56-6.41-10.58s-7.44,5-7.45,10.21l-.05,19.7-12.35,0,.09-40.95,11.87,0,0,6.57h.16c1.67-3.13,5.71-6.42,11.73-6.41,12.52,0,14.82,8.28,14.8,19l0,21.85Z" style="fill:#fffa0c"/><path d="M34.18,39.35a7.18,7.18,0,1,1,7.18-7.18A7.17,7.17,0,0,1,34.18,39.35Z" style="fill:#fffa0c"/><rect x="27.99" y="44.8" width="12.39" height="40.95" style="fill:#fffa0c"/></g></g></svg>