<?xml version="1.0" encoding="utf-8"?>
<!-- Generator: Adobe Illustrator 23.0.2, SVG Export Plug-In . SVG Version: 6.00 Build 0)  -->
<svg version="1.1" id="Layer_1" xmlns="http://www.w3.org/2000/svg" xmlns:xlink="http://www.w3.org/1999/xlink" x="0px" y="0px"
	 viewBox="0 0 1979.9 1257.4" style="enable-background:new 0 0 1979.9 1257.4;" xml:space="preserve">
<style type="text/css">
	.st0{fill-rule:evenodd;clip-rule:evenodd;fill:#C9322D;}
	.st1{fill-rule:evenodd;clip-rule:evenodd;fill:#FFFFFF;}
	.st2{fill-rule:evenodd;clip-rule:evenodd;fill:#141414;}
</style>
<path class="st0" d="M1257.4,857.5L857.5,0L0,399.9l399.8,857.5L1257.4,857.5z"/>
<path class="st1" d="M823.6,292.8H623.2v345H382.7l233-345H262l-65.3,97.4h214.2l-234.2,345h477.4l84.1-124v-221h64.3
	c73.9,0,126.2,44.6,126.2,123.8c0,86.2-58.7,123.8-127.4,123.8h-50.8v97.4h73.1c122.7,0,224.8-96.8,224.8-221.2
	C1048.4,389.7,946.9,292.8,823.6,292.8L823.6,292.8z"/>
<path class="st2" d="M1188.3,287.1l86.7,181.1c22.8,48.2,40.4,95.8,49.5,128.4c-3.3-35.2-6.5-93.2-7.2-124.5l-1.9-185.1h86.7v453
	h-95.2l-77.5-173.4c-25.4-56.7-52.8-120.5-61.3-148.6c3.3,37.1,3.9,90.6,4.6,128.3l2.6,193.6h-87.9V287.1H1188.3L1188.3,287.1z"/>
<path class="st2" d="M1731.2,702.9c-38.5,31.3-78.8,46.3-125.8,46.3c-95.7,0-157.7-67.8-157.7-172.7c0-59.9,12.4-99.7,41.7-132.3
	c27.3-30.6,60.6-45,104.9-45c38.4,0,74.9,13,96.4,35.2c30.6,31.2,44.3,76.2,44.3,146v20.2h-192.9v2.6c0,51.5,25.4,80.8,70.4,80.8
	c29.9,0,58-11.1,84.7-33.2L1731.2,702.9L1731.2,702.9z"/>
<path class="st1" d="M1644.5,536.7v-3.9c0-24.8-2.6-37.8-10.4-50.2c-8.5-13-20.9-19.6-38.5-19.6c-33.2,0-52.1,26.1-52.1,72.3v1.3
	h101V536.7z"/>
<path class="st2" d="M1955.8,466.3h-56.1v167.5c0,42.4,7.8,53.4,37.8,53.4c7.8,0,15.7-1.9,31.3-6.5l11.1,52.2
	c-25.4,10.4-48.2,15-71.1,15c-44.3,0-79.5-19.6-90-48.8c-5.2-14.4-5.8-20.9-5.8-51.5V466.3h-33.2v-60h33.2c0-32.6,0-54,3.2-78.8
	l88.6-22.2c-3.4,33.6-5.1,67.3-5.2,101h78.2L1955.8,466.3L1955.8,466.3z"/>
</svg>
