<svg xmlns="http://www.w3.org/2000/svg" viewBox="0 0 116 116"><title>insta</title><g id="b2e2e8fa-8802-4b72-bf82-28272e8f206f" data-name="Layer 2"><g id="e6d559b8-db3d-405d-a011-7496ed6dee09" data-name="Layer 1"><path d="M77,116H3a3,3,0,0,1-3-3V3A3,3,0,0,1,3,0H113a3,3,0,0,1,3,3V77A39.05,39.05,0,0,1,77,116ZM6,110H77a33,33,0,0,0,33-33V6H6Z" style="fill:#ffec00"/><path d="M71.57,29H45.43A15.45,15.45,0,0,0,30,44.43V70.57A15.45,15.45,0,0,0,45.43,86H71.57A15.45,15.45,0,0,0,87,70.57V44.43A15.45,15.45,0,0,0,71.57,29ZM58.5,71.74A14.24,14.24,0,1,1,72.74,57.5,14.26,14.26,0,0,1,58.5,71.74ZM74.46,46a5,5,0,1,1,5-5A5,5,0,0,1,74.46,46Z" style="fill:#fffa0c"/></g></g></svg>