<svg xmlns="http://www.w3.org/2000/svg" viewBox="0 0 116 116"><title>twitter</title><g id="aa229eaf-94b2-4987-81d2-7a606ec42bff" data-name="Layer 2"><g id="b0c140a4-b35e-4b1a-9e3c-377e0e62b34b" data-name="Layer 1"><path d="M77,116H3a3,3,0,0,1-3-3V3A3,3,0,0,1,3,0H113a3,3,0,0,1,3,3V77A39.05,39.05,0,0,1,77,116ZM6,110H77a33,33,0,0,0,33-33V6H6Z" style="fill:#ffec00"/><path d="M51.59,82.49c-10.35,0-18.53-1.81-22.44-5l-.07-.06L29,77.4a3.19,3.19,0,0,1-.84-3.35l0-.1a3.24,3.24,0,0,1,3-2,26.57,26.57,0,0,0,7.06-1,13.39,13.39,0,0,1-7.07-8.16,2.92,2.92,0,0,1,1-3.38,3.06,3.06,0,0,1,.88-.45,19.52,19.52,0,0,1-4-7.18l0-.08,0-.08a3,3,0,0,1,1.4-3.24,3,3,0,0,1,1.43-.4,15.15,15.15,0,0,1-1.14-3.49,14.59,14.59,0,0,1,1.55-9.71l.38-.77a2.15,2.15,0,0,1,3.44-.56l.7.7C42.29,40,47.25,42.7,55.82,44.58a15.17,15.17,0,0,1,4.1-8.75A14.39,14.39,0,0,1,70.19,31.3h0c2.84,0,6.36,1.62,8.49,2.77,1.83-.6,4-1.53,6.32-2.51a2.86,2.86,0,0,1,3.84,3.69q-.26.69-.57,1.35a3.07,3.07,0,0,1,.84.58,3.14,3.14,0,0,1,.78,2.92l0,.1a11.92,11.92,0,0,1-4.78,6.56C84.73,66.53,69.84,82.49,51.59,82.49Z" style="fill:#fffa0c"/></g></g></svg>