<svg xmlns="http://www.w3.org/2000/svg" viewBox="0 0 146.56 50.67"><defs><style>.cls-1{fill:#9a9fa5;}</style></defs><title>flir</title><g id="Layer_2" data-name="Layer 2"><g id="Layer_1-2" data-name="Layer 1"><polygon class="cls-1" points="40.21 9.25 64.49 9.25 64.49 17.95 51.3 17.95 51.3 21.11 59.61 21.11 59.59 28.98 51.3 28.98 51.3 39.62 40.21 39.62 40.21 9.25"/><polygon class="cls-1" points="79.15 9.27 79.15 32.4 91.14 32.4 91.14 39.58 68.41 39.58 68.41 9.27 79.15 9.27"/><rect class="cls-1" x="96.05" y="9.27" width="10.74" height="30.31"/><path class="cls-1" d="M136.87,26.39a10.48,10.48,0,0,0,2.42-1.31,8.11,8.11,0,0,0,2.39-2.86,7.72,7.72,0,0,0,.13-6.86,9,9,0,0,0-2.11-2.85A11,11,0,0,0,135.26,10a23.4,23.4,0,0,0-6.41-.76H112.11V39.58h10.73V28l10.33,11.58h13.39l-13-12.37a18,18,0,0,0,3.32-.82m-14-11.07h2a8.94,8.94,0,0,1,4.93,1A3.63,3.63,0,0,1,131,17.61a2.9,2.9,0,0,1,.45,1.47,3,3,0,0,1-.46,1.5,4.1,4.1,0,0,1-1.16,1.25,8.94,8.94,0,0,1-4.93,1h-2Z"/><path class="cls-1" d="M8.23,25.34l8.87-8.87L26,25.34,17.1,34.2ZM0,17.1l8.23,8.24L0,33.57l17.1,17.1,17.1-17.1L26,25.34,34.2,17.1,17.1,0Z"/></g></g></svg>