<svg xmlns="http://www.w3.org/2000/svg" viewBox="0 0 269.6 88.6"><defs><style>.cls-1{fill:#9ba0a5;}</style></defs><title>google</title><g id="Layer_2" data-name="Layer 2"><g id="Layer_1-2" data-name="Layer 1"><path class="cls-1" d="M115.3,46.5a22.2,22.2,0,0,1-44.4,0,22.2,22.2,0,0,1,44.4,0Zm-9.7,0c0-8-5.8-13.4-12.5-13.4S80.6,38.6,80.6,46.5s5.8,13.4,12.5,13.4S105.6,54.4,105.6,46.5Z"/><path class="cls-1" d="M163.3,46.5a22.2,22.2,0,0,1-44.4,0,22.2,22.2,0,0,1,44.4,0Zm-9.7,0c0-8-5.8-13.4-12.5-13.4s-12.5,5.5-12.5,13.4,5.8,13.4,12.5,13.4S153.6,54.4,153.6,46.5Z"/><path class="cls-1" d="M209.3,25.7V65.5c0,16.4-9.7,23.1-21.1,23.1a21.19,21.19,0,0,1-19.7-13.1L177,72c1.5,3.6,5.2,7.9,11.2,7.9,7.3,0,11.8-4.5,11.8-13V63.7h-.3a15.13,15.13,0,0,1-11.7,5c-11.1,0-21.2-9.7-21.2-22.1S177,24.3,188,24.3a15.47,15.47,0,0,1,11.7,5h.3V25.7Zm-8.5,20.9c0-7.8-5.2-13.5-11.8-13.5s-12.4,5.7-12.4,13.5S182.2,60,189,60C195.6,60,200.8,54.4,200.8,46.6Z"/><path class="cls-1" d="M224.6,2.4v65h-9.5V2.4Z"/><path class="cls-1" d="M261.6,53.8l7.6,5a22,22,0,0,1-18.5,9.8c-12.6,0-22-9.7-22-22.2,0-13.2,9.5-22.2,20.9-22.2s17.1,9.2,19,14.1l1,2.5L240,53.3c2.3,4.5,5.8,6.7,10.8,6.7s8.3-2.5,10.8-6.2Zm-23.3-7.9,19.8-8.2c-1.1-2.8-4.4-4.7-8.2-4.7C245,32.9,238.1,37.3,238.3,45.9Z"/><path class="cls-1" d="M34.9,40.8V31.4H66.6a31.8,31.8,0,0,1,.5,5.7c0,7.1-1.9,15.8-8.2,22-6,6.3-13.8,9.7-24,9.7C15.9,68.8,0,53.3,0,34.4S16,0,34.9,0A32.67,32.67,0,0,1,58.5,9.5l-6.6,6.6a23.88,23.88,0,0,0-17-6.7,24.69,24.69,0,0,0-24.7,25,24.69,24.69,0,0,0,24.7,25c9,0,14.1-3.6,17.4-6.9,2.7-2.7,4.4-6.5,5.1-11.7Z"/></g></g></svg>
