<svg xmlns="http://www.w3.org/2000/svg" viewBox="0 0 93.74 37.85"><title>ibm</title><g id="f6e1a08b-5688-43d4-ae22-ae0de4f160e1" data-name="Layer 2"><g id="b79cf691-cd82-40fe-be11-19dbc0a017a8" data-name="Layer 1"><polygon points="93.74 2.69 78.13 2.69 79.1 0 93.74 0 93.74 2.69" style="fill:#9a9ea5"/><path d="M52.14,0H66.63l1,2.7s-15.43,0-15.43,0S52.14,0,52.14,0Z" style="fill:#9a9ea5"/><path d="M40.64,0a10.41,10.41,0,0,1,6.23,2.7H20.61V0Z" style="fill:#9a9ea5"/><rect width="18.24" height="2.69" style="fill:#9a9ea5"/><path d="M93.74,7.74H76.35l.94-2.68H93.74Z" style="fill:#9a9ea5"/><polygon points="69.37 7.74 52.14 7.74 52.14 5.06 68.43 5.06 69.37 7.74" style="fill:#9a9ea5"/><path d="M48.91,5.06a6.92,6.92,0,0,1,.76,2.68H20.61V5.06Z" style="fill:#9a9ea5"/><rect y="5.06" width="18.24" height="2.68" style="fill:#9a9ea5"/><polygon points="74.57 12.8 75.52 10.11 88.58 10.11 88.58 12.79 74.57 12.8" style="fill:#9a9ea5"/><polygon points="70.21 10.11 71.16 12.8 57.28 12.8 57.28 10.11 70.21 10.11" style="fill:#9a9ea5"/><path d="M49.9,10.11a8.75,8.75,0,0,1-.39,2.69H41.56V10.11Z" style="fill:#9a9ea5"/><rect x="5.09" y="10.12" width="7.84" height="2.68" style="fill:#9a9ea5"/><rect x="25.89" y="10.11" width="7.83" height="2.69" style="fill:#9a9ea5"/><path d="M65,15.7v2.05H57.28V15.07H72l.91,2.49s.88-2.5.89-2.49H88.58v2.68H80.9V15.7l-.71,2.05H65.7Z" style="fill:#9a9ea5"/><path d="M25.89,15.07H48.36a10.25,10.25,0,0,1-2.23,2.68H25.89Z" style="fill:#9a9ea5"/><rect x="5.09" y="15.07" width="7.84" height="2.68" style="fill:#9a9ea5"/><rect x="80.9" y="20.12" width="7.67" height="2.68" style="fill:#9a9ea5"/><path d="M65,20.12H57.28v2.67H65S65,20.12,65,20.12Z" style="fill:#9a9ea5"/><path d="M79.35,20.12s-.9,2.67-.93,2.67H67.49s-1-2.69-1-2.68Z" style="fill:#9a9ea5"/><path d="M25.89,20.11h20.2a13,13,0,0,1,2.41,2.68H25.89Z" style="fill:#9a9ea5"/><polygon points="12.93 22.79 12.93 20.11 5.1 20.11 5.1 22.79 12.93 22.79" style="fill:#9a9ea5"/><rect x="80.9" y="25.16" width="7.67" height="2.68" style="fill:#9a9ea5"/><rect x="57.28" y="25.16" width="7.71" height="2.68" style="fill:#9a9ea5"/><path d="M76.62,27.85s.95-2.69,1-2.69H68.29s1,2.68,1,2.68Z" style="fill:#9a9ea5"/><path d="M25.89,27.84V25.16h7.94s0,2.68,0,2.68Z" style="fill:#9a9ea5"/><path d="M49.62,25.16a8,8,0,0,1,.5,2.69H41.7V25.16Z" style="fill:#9a9ea5"/><rect x="5.1" y="25.16" width="7.83" height="2.68" style="fill:#9a9ea5"/><rect x="80.9" y="30.11" width="12.83" height="2.68" style="fill:#9a9ea5"/><rect x="52.14" y="30.11" width="12.85" height="2.68" style="fill:#9a9ea5"/><polygon points="74.9 32.78 70.98 32.78 70.04 30.11 75.8 30.11 74.9 32.78" style="fill:#9a9ea5"/><path d="M0,30.11v2.67H18.23s0-2.67,0-2.67Z" style="fill:#9a9ea5"/><path d="M49.78,30.11a5.71,5.71,0,0,1-1,2.68H20.61V30.11Z" style="fill:#9a9ea5"/><polygon points="73.12 37.84 72.76 37.84 71.84 35.16 74.06 35.16 73.12 37.84" style="fill:#9a9ea5"/><rect x="80.9" y="35.16" width="12.83" height="2.69" style="fill:#9a9ea5"/><path d="M20.61,37.84V35.16H47a10,10,0,0,1-6.81,2.68H20.61" style="fill:#9a9ea5"/><rect x="52.14" y="35.16" width="12.85" height="2.69" style="fill:#9a9ea5"/><path d="M18.23,35.17s0,2.67,0,2.67H0s0-2.68,0-2.68Z" style="fill:#9a9ea5"/></g></g></svg>