<svg xmlns="http://www.w3.org/2000/svg" viewBox="0 0 375 309.23"><title>kroger</title><g id="a0a88a5c-2306-460d-a500-53257e69623f" data-name="Layer 2"><g id="b5969b98-cc16-46b0-aafd-607e3662c2e7" data-name="Layer 1"><path d="M255,201.73a5,5,0,0,0-3.71,1.57,5.07,5.07,0,0,0-1.5,3.69,5.2,5.2,0,0,0,8.9,3.72,5.18,5.18,0,0,0,1.52-3.72,5.11,5.11,0,0,0-1.51-3.69A5,5,0,0,0,255,201.73Zm1.22,8.76a7.57,7.57,0,0,1-.11-1,2.68,2.68,0,0,0-.12-.87.85.85,0,0,0-.49-.51,2.88,2.88,0,0,0-.64-.11l-.42,0h-.36v2.47h-1.84v-7h3.4a3.68,3.68,0,0,1,1.39.35,1.81,1.81,0,0,1,.92,1.69,1.52,1.52,0,0,1-.5,1.28,2.16,2.16,0,0,1-1.21.46,2.81,2.81,0,0,1,1,.41,1.9,1.9,0,0,1,.61,1.57v.62a.44.44,0,0,0,0,.21.65.65,0,0,0,0,.21l.05.19Z" style="fill:#9a9fa5"/><path d="M255.62,204.87a2.86,2.86,0,0,0-1.08-.16h-.43v2h.71a1.62,1.62,0,0,0,1-.25.93.93,0,0,0,.38-.84A.8.8,0,0,0,255.62,204.87Z" style="fill:#9a9fa5"/><path d="M174.65,163c0-12-3-20.71-10.55-20.71S153.55,151,153.55,163s3,20.72,10.55,20.72S174.65,175,174.65,163Z" style="fill:#9a9fa5"/><path d="M273.48,142.29c-5.08,0-8.09,4-9.5,10.23h19.07C281.61,146.27,278.62,142.29,273.48,142.29Z" style="fill:#9a9fa5"/><path d="M219.36,142.13c-7.58,0-10.62,8.76-10.62,20.84s3,20.8,10.62,20.8S230,175,230,163,227,142.13,219.36,142.13Z" style="fill:#9a9fa5"/><path d="M346.06,99.71c-8.78-16.62-21.28-31.52-37.2-44.29C276.39,29.36,233.29,15,187.5,15h0C141.72,15,98.62,29.36,66.14,55.42,50.23,68.19,37.71,83.09,29,99.71a115.78,115.78,0,0,0,0,109.45c8.75,16.61,21.27,31.51,37.18,44.28,32.48,26.08,75.58,40.39,121.36,40.39s88.89-14.31,121.36-40.39c15.92-12.77,28.42-27.67,37.2-44.28a115.78,115.78,0,0,0,0-109.45ZM102.67,112.07c.66,32.46-21,37.41-17.52,37.47,22.07.35,18.11,44.35,18.48,47.05H86s.1-20.73,0-22.41c-1-18.8-15.77-20.37-15.77-18.7v41.11H53.52V98H70.16s-.29,39.05,0,42.14c0,0,17.34-2.25,16.33-38.39a49.3,49.3,0,0,1,3.25-14.9.93.93,0,0,1,.1-.2c.08-.28.19-.54.28-.81h0c6.07-14.44,18.47-26.72,40.35-26.72h0c45.56,0,42.56,61.31,42.54,61.38l-17,0c-.39-.78,3.08-50.46-27.42-50.07-13.53.17-20.11,10.61-23.75,22.22A66.92,66.92,0,0,0,102.67,112.07ZM123,156v40.63H107.29l.07-67.11H120l1.66,4.33a18.13,18.13,0,0,1,11.06-4.27,13,13,0,0,1,5.73,1v14.71s-8.08.12-12.26,3.91A8.41,8.41,0,0,0,123,156Zm15.24,7.11c0-18.57,9.18-33.59,25.79-33.59,17,0,25.81,15,25.81,33.59S181.6,196.65,164,196.65C146.15,196.65,138.25,181.59,138.25,163.06Zm61,99.6c-45.46,0-43.18-56.88-43.18-57l17,0c.27,1.29-3.11,46.42,28.06,45.72,28.76-.91,28.31-44.21,27.54-57.33-2.76,1.08-5.85,2.55-9.36,2.55-18,0-25.94-14.94-25.94-33.59s9.21-33.94,25.92-33.53c2.93.07,7.11,1.4,9.14,3.53v-3.67H245.1s0,64.54,0,69.44h0C245.17,203.66,248.53,262.66,199.28,262.66Zm60.18-51.13A6.14,6.14,0,0,1,255,213.3a6.28,6.28,0,0,1-6.32-6.31,5.93,5.93,0,0,1,2-4.61,6.14,6.14,0,0,1,4.33-1.72,6.07,6.07,0,0,1,4.48,1.84,6.42,6.42,0,0,1-.05,9Zm40.85-47.82H264c.12,11.63,3.16,20,10.55,20,6.1,0,9.19-5.65,10.15-14.12h15.21c-1.76,15.43-10,27.05-25.43,27.05-17.87,0-25.79-15.06-25.79-33.59s9.17-33.59,25.79-33.59c13.66,0,22,9.65,24.77,23.05h0A47.56,47.56,0,0,1,300.31,163.71Zm34.63-18.47s-8.07.12-12.29,3.91a8.43,8.43,0,0,0-3.15,6.8v40.63H303.77l.07-67.11h12.64l1.66,4.33a18.06,18.06,0,0,1,11.06-4.27,13.09,13.09,0,0,1,5.74,1Z" style="fill:#9a9fa5"/><path d="M360.1,94C350.56,75.58,337,59.06,319.66,44.89,284.3,15.94,237.38,0,187.5,0S90.71,15.94,55.34,44.89C38,59.07,24.44,75.58,14.92,94a130.51,130.51,0,0,0,0,121.19c9.52,18.4,23.11,34.93,40.42,49.13,35.35,28.93,82.29,44.89,132.16,44.89s96.8-16,132.16-44.89c17.29-14.2,30.9-30.73,40.44-49.13a130.68,130.68,0,0,0,0-121.2ZM187.5,303.37C87.16,303.37,5.84,236.79,5.84,154.6S87.17,5.84,187.5,5.84,369.16,72.45,369.16,154.6,287.83,303.37,187.5,303.37Z" style="fill:#9a9fa5"/></g></g></svg>