<?xml version="1.0" encoding="utf-8"?>
<!-- Generator: Adobe Illustrator 23.0.2, SVG Export Plug-In . SVG Version: 6.00 Build 0)  -->
<svg version="1.1" id="Layer_1" xmlns="http://www.w3.org/2000/svg" xmlns:xlink="http://www.w3.org/1999/xlink" x="0px" y="0px"
	 viewBox="0 0 351.5 258.8" style="enable-background:new 0 0 351.5 258.8;" xml:space="preserve">
<style type="text/css">
	.st0{fill:#9BA0A5;}
</style>
<title>nvidia</title>
<path id="path19" class="st0" d="M294.3,205.5l10.6,29h-21.5L294.3,205.5z M282.9,194.2l-24.4,61.9h17.2l3.9-10.9h28.9l3.7,10.9
	h18.7l-24.6-61.9L282.9,194.2z M233.9,256.1h17.5v-61.9h-17.5V256.1z M112.4,194.2l-14.6,49.1l-14-49.1H64.9l20,61.9h25.2l20.1-61.9
	L112.4,194.2z M183.1,207.7h7.5c10.9,0,18,4.9,18,17.6s-7.1,17.6-18,17.6h-7.5V207.7z M165.8,194.2v61.9h28.4
	c15.1,0,20-2.5,25.4-8.1c3.8-4,6.2-12.6,6.2-22.1c0-8.7-2.1-16.5-5.7-21.3c-6.5-8.6-15.8-10.3-29.8-10.3L165.8,194.2L165.8,194.2z
	 M0,194.1v62h17.7V209h13.7c4.5,0,7.8,1.1,9.9,3.5c2.8,2.9,3.9,7.7,3.9,16.4v27.2h17.1v-34.3c0-24.5-15.6-27.8-30.8-27.8H0V194.1z
	 M137.6,194.2v61.9h17.5v-61.9L137.6,194.2z"/>
<path id="path21" class="st0" d="M47.1,70.9c0,0,22.5-33.2,67.4-36.6v-12c-49.8,4-92.9,46.1-92.9,46.1s24.4,70.6,92.9,77v-12.8
	C64.3,126.2,47.1,70.9,47.1,70.9z M114.5,107.1v11.7C76.5,112,66,72.6,66,72.6c13.1-13.1,30.1-21.3,48.5-23.5V62h-0.1
	c-15.9-1.9-28.3,12.9-28.3,12.9S93.1,99.9,114.5,107.1 M114.5,0v22.2l4.4-0.3c56.6-1.9,93.4,46.4,93.4,46.4s-42.3,51.5-86.5,51.5
	c-3.8,0-7.6-0.4-11.4-1v13.7c3.2,0.4,6.3,0.6,9.5,0.6c41.1,0,70.7-21,99.5-45.8c4.8,3.8,24.3,13.1,28.3,17.2
	c-27.3,22.9-91,41.3-127.1,41.3c-3.5,0-6.8-0.2-10.1-0.5v19.3h156V0H114.5z M114.5,49.1V34.2c1.4-0.1,2.9-0.2,4.4-0.2
	c40.7-1.3,67.4,35,67.4,35s-28.8,40-59.7,40c-4.1,0-8.1-0.6-12-1.9V62c15.8,1.9,19,8.9,28.6,24.8l21.2-17.9c0,0-15.5-20.3-41.5-20.3
	C120.1,48.6,117.3,48.8,114.5,49.1"/>
</svg>
