<svg xmlns="http://www.w3.org/2000/svg" viewBox="0 0 218.06 40.07"><defs><style>.cls-1{fill:#9ba0a5;}</style></defs><title>qualcomm</title><g id="Layer_2" data-name="Layer 2"><g id="Layer_1-2" data-name="Layer 1"><path class="cls-1" d="M58.84,11.48a1.12,1.12,0,0,1,1.1,1.1V33.3a1.1,1.1,0,0,1-1.1,1.05H56a1.05,1.05,0,0,1-1.05-1v-1.9C53.55,33.54,51.12,35,47.55,35c-5.95,0-9.62-3.95-9.62-9.81V12.53a1.1,1.1,0,0,1,1.09-1h2.81a1.06,1.06,0,0,1,1.05,1V24.35c0,3.81,2,6.33,6,6.33S55,28.06,55,24.39V12.53a1.1,1.1,0,0,1,1.05-1h2.81M17.39,0A17.21,17.21,0,0,0,0,17.49,17.21,17.21,0,0,0,17.39,35a18,18,0,0,0,4.74-.63L24,39.21a1.23,1.23,0,0,0,1.29.86h3c.72,0,1.24-.48.91-1.38l-2.45-6.38a17.26,17.26,0,0,0,8-14.82A17.2,17.2,0,0,0,17.39,0M25,27.62l-2.19-5.7A1.37,1.37,0,0,0,21.35,21H18.49a.94.94,0,0,0-1,1.38l2.89,7.5a12.45,12.45,0,0,1-3,.37c-7,0-12-5.53-12-12.77s5-12.77,12.05-12.77,12.06,5.52,12.06,12.77A12.9,12.9,0,0,1,25,27.62m193,5.59a.77.77,0,0,1-.76,1.14h-3.14a1.23,1.23,0,0,1-1.24-.85L207,17.87,201.11,33.5a1.22,1.22,0,0,1-1.24.85h-2.81a1.22,1.22,0,0,1-1.24-.85l-6-15.73L184,33.5a1.26,1.26,0,0,1-1.24.85h-2.95a1.27,1.27,0,0,1-1.24-.85l-5.81-15.73-6,15.73a1.2,1.2,0,0,1-1.23.85H162.7a1.2,1.2,0,0,1-1.23-.85l-5.86-15.73L149.74,33.5a1.22,1.22,0,0,1-1.23.85h-3a.78.78,0,0,1-.77-1.14l8-20.82a1.26,1.26,0,0,1,1.24-.91h3.43a1.26,1.26,0,0,1,1.24.91l5.62,15.2,5.67-15.2a1.26,1.26,0,0,1,1.24-.91h3.38a1.25,1.25,0,0,1,1.24.91l5.62,15.2L187,12.39a1.25,1.25,0,0,1,1.24-.91h3.38a1.26,1.26,0,0,1,1.24.91l5.71,15.2,5.58-15.2a1.26,1.26,0,0,1,1.24-.91h3.43a1.26,1.26,0,0,1,1.24.91L218,33.21M86.1,11.48H83.29a1.11,1.11,0,0,0-1.1,1.1v1.9a8.92,8.92,0,0,0-7.48-3.66c-6.19,0-11.53,4.9-11.53,12.05S68.52,35,74.66,35a9,9,0,0,0,7.53-3.67v2a1.09,1.09,0,0,0,1.1,1.05H86.1a1,1,0,0,0,1-1.05V12.58a1.07,1.07,0,0,0-1-1.1M75.23,30.4c-4.09,0-7-3.34-7-7.48s2.91-7.43,7-7.43,7,3.24,7,7.43-3,7.48-7,7.48m44.41.71a1,1,0,0,1-.24,1.58A12.16,12.16,0,0,1,112.06,35c-7.1,0-11.81-5.19-11.81-12s4.71-12.1,11.81-12.1a12.16,12.16,0,0,1,7.34,2.28,1,1,0,0,1,.24,1.58l-1.33,1.85a1.09,1.09,0,0,1-1.67.19,8.44,8.44,0,0,0-4.43-1.38c-4.15,0-6.91,3.34-6.91,7.58s2.76,7.53,6.91,7.53a8.46,8.46,0,0,0,4.33-1.39c.53-.28,1.1-.52,1.67.24Zm13.25-20.25a11.91,11.91,0,0,0-12,12.06,12,12,0,1,0,24,0,11.9,11.9,0,0,0-12-12.06m0,19.49c-4.1,0-7-3.29-7-7.43s2.91-7.43,7-7.43,7,3.24,7,7.43-2.91,7.43-7,7.43M96,.62A1.07,1.07,0,0,1,97,1.72V33.26A1.06,1.06,0,0,1,96,34.35H93.15a1.14,1.14,0,0,1-1.1-1.09V1.72a1.14,1.14,0,0,1,1.1-1.1H96"/></g></g></svg>
