<svg xmlns="http://www.w3.org/2000/svg" viewBox="0 0 592.31 139.58"><defs><style>.cls-1{fill:#9ba0a5;}</style></defs><title>walmart</title><g id="Layer_2" data-name="Layer 2"><g id="Layer_1-2" data-name="Layer 1"><path class="cls-1" d="M342.92,74c0-13.79-5.89-25.92-25.79-25.92-10.22,0-18.34,2.87-22.76,5.43l3.24,11.08a33.33,33.33,0,0,1,16.59-4.67c10.1,0,11.76,5.72,11.76,9.4v.87c-22,0-35.93,7.59-35.93,23.12,0,9.48,7.09,18.36,19.4,18.36,7.57,0,13.91-3,17.7-7.86h.38s2.51,10.51,16.37,6.49a88.71,88.71,0,0,1-1-14.66ZM326.49,88.55A10.77,10.77,0,0,1,315,99.63c-4.56,0-8.17-2.59-8.17-8,0-8.36,9.2-10.67,19.68-10.62Z"/><path class="cls-1" d="M0,29.29s14.38,58.93,16.68,68.5c2.67,11.16,7.5,15.27,21.42,12.5l9-36.54c2.28-9.07,3.8-15.54,5.27-24.77h.25c1,9.32,2.5,15.72,4.37,24.8,0,0,3.65,16.59,5.53,25.3s7.1,14.2,20.73,11.21l21.4-81H87.35L80,64.31c-2,10.19-3.74,18.16-5.12,27.49h-.24C73.43,82.56,71.84,74.91,69.84,65l-7.6-35.69h-18L36.1,64.08c-2.3,10.57-4.46,19.11-5.83,28.12H30c-1.4-8.48-3.27-19.21-5.3-29.45,0,0-4.83-24.88-6.53-33.46Z"/><path class="cls-1" d="M153.72,74c0-13.79-5.89-25.92-25.79-25.92-10.22,0-18.33,2.87-22.76,5.43l3.24,11.08A33.37,33.37,0,0,1,125,59.91c10.1,0,11.75,5.72,11.75,9.4v.87c-22,0-35.92,7.59-35.92,23.12,0,9.48,7.08,18.36,19.39,18.36,7.58,0,13.91-3,17.71-7.86h.37s2.52,10.51,16.38,6.49a88.63,88.63,0,0,1-1-14.66ZM137.29,88.55a10.77,10.77,0,0,1-11.51,11.08c-4.55,0-8.17-2.59-8.17-8,0-8.36,9.21-10.67,19.68-10.62Z"/><polygon class="cls-1" points="181.14 93.09 181.14 29.29 164.69 29.29 164.69 110.29 181.14 110.29 181.14 93.09"/><path class="cls-1" d="M396.35,29.29V89.05c0,8.23,1.55,14,4.87,17.53,2.9,3.09,7.67,5.08,13.39,5.08a39.08,39.08,0,0,0,11.9-1.76l-.21-12.85a25.19,25.19,0,0,1-6.25.74c-5.6,0-7.48-3.59-7.48-11V63.94h14.32V48.45H412.57V29.29Z"/><path class="cls-1" d="M353.89,49.44v60.85h17V79.13a23.68,23.68,0,0,1,.36-4.49c1.26-6.52,6.25-10.7,13.42-10.7a31,31,0,0,1,4.89.44V48.45a16.19,16.19,0,0,0-3.74-.38c-6.33,0-13.53,4.09-16.55,12.85h-.47V49.44Z"/><path class="cls-1" d="M192.66,49.44v60.85H209.2V74.61a14.31,14.31,0,0,1,.77-5c1.37-3.6,4.72-7.8,10.05-7.8,6.67,0,9.8,5.64,9.8,13.78v34.68h16.51V74.18a17,17,0,0,1,.69-4.94,10.43,10.43,0,0,1,9.92-7.41c6.77,0,10,5.54,10,15.12v33.34h16.53V74.45c0-18.9-9.6-26.38-20.44-26.38a22,22,0,0,0-12,3.3A25.66,25.66,0,0,0,243.34,59h-.24c-2.62-6.55-8.77-10.88-16.77-10.88-10.3,0-14.92,5.21-17.73,9.64h-.24V49.44Z"/><path class="cls-1" d="M515.82,47c3.26,0,6-1.7,6.32-3.9l3.23-36.51C525.37,3,521.14,0,515.83,0s-9.54,3-9.54,6.58l3.23,36.51c.35,2.2,3.05,3.9,6.31,3.9Z"/><path class="cls-1" d="M496.08,58.4c1.64-2.83,1.51-6-.22-7.42l-30-21.06c-3.12-1.8-7.8.37-10.46,5s-2.19,9.74.93,11.54l33.23,15.47c2.08.78,4.91-.7,6.54-3.53Z"/><path class="cls-1" d="M535.57,58.38c1.63,2.83,4.45,4.31,6.53,3.53l33.24-15.47c3.13-1.8,3.58-6.94.93-11.54s-7.35-6.78-10.46-5L535.79,51c-1.72,1.41-1.84,4.59-.21,7.42Z"/><path class="cls-1" d="M515.82,92.6c3.26,0,6,1.69,6.32,3.89L525.37,133c0,3.62-4.23,6.58-9.54,6.58s-9.54-3-9.54-6.58l3.23-36.51c.35-2.2,3.05-3.89,6.31-3.89Z"/><path class="cls-1" d="M535.57,81.2c1.63-2.84,4.45-4.31,6.53-3.52l33.24,15.45c3.13,1.81,3.58,7,.93,11.56s-7.35,6.77-10.46,5l-30-21c-1.72-1.43-1.84-4.61-.21-7.44Z"/><path class="cls-1" d="M496.08,81.19c1.64,2.83,1.51,6-.22,7.44l-30,21c-3.12,1.8-7.8-.38-10.46-5s-2.19-9.75.93-11.56l33.23-15.45c2.08-.79,4.91.68,6.54,3.52Z"/><path class="cls-1" d="M587,102.21a5.24,5.24,0,1,1,0,10.47,5.24,5.24,0,1,1,0-10.47Zm-.06.92a4.3,4.3,0,0,0,.06,8.6,4.1,4.1,0,0,0,4.09-4.29,4.15,4.15,0,0,0-4.12-4.31Zm-.92,7.16h-1v-5.46a10.21,10.21,0,0,1,1.9-.17,2.72,2.72,0,0,1,1.73.43,1.38,1.38,0,0,1-.53,2.45v.07a1.6,1.6,0,0,1,.92,1.31,4.16,4.16,0,0,0,.39,1.37h-1a3.63,3.63,0,0,1-.43-1.44c-.13-.59-.49-.85-1.27-.85h-.66Zm0-3.07h.69c.75,0,1.4-.24,1.4-.89s-.32-.88-1.3-.88a4.31,4.31,0,0,0-.79.06Z"/></g></g></svg>
