<svg xmlns="http://www.w3.org/2000/svg" viewBox="0 0 116 116"><g data-name="Layer 2"><g data-name="Layer 1"><path d="M77 116H3a3 3 0 01-3-3V3a3 3 0 013-3h110a3 3 0 013 3v74a39.05 39.05 0 01-39 39zm-71-6h71a33 33 0 0033-33V6H6z" fill="#ffec00"/><path d="M73.1 36.36v-9.9a1.35 1.35 0 00-1.34-1.34h-8.41A15.34 15.34 0 0052 29.46c-2.78 2.84-4.24 6.87-4.24 11.63v7.34h-8.42A1.34 1.34 0 0038 49.77v10.66a1.34 1.34 0 001.34 1.34h8.44v26.89A1.34 1.34 0 0049.12 90h11a1.34 1.34 0 001.34-1.34V61.77h9.87a1.34 1.34 0 001.34-1.34V49.77a1.33 1.33 0 00-1.37-1.34h-9.81v-6.22c0-1.72.25-2.7.84-3.37s1.88-1.13 3.77-1.13h5.66a1.35 1.35 0 001.34-1.35z" fill="#fffa0c"/></g></g></svg>