<svg xmlns="http://www.w3.org/2000/svg" viewBox="0 0 116 116"><g data-name="Layer 2"><g data-name="Layer 1"><path d="M77 116H3a3 3 0 01-3-3V3a3 3 0 013-3h110a3 3 0 013 3v74a39.05 39.05 0 01-39 39zm-71-6h71a33 33 0 0033-33V6H6z" fill="#ffec00"/><path d="M71.57 29H45.43A15.45 15.45 0 0030 44.43v26.14A15.45 15.45 0 0045.43 86h26.14A15.45 15.45 0 0087 70.57V44.43A15.45 15.45 0 0071.57 29zM58.5 71.74A14.24 14.24 0 1172.74 57.5 14.26 14.26 0 0158.5 71.74zM74.46 46a5 5 0 115-5 5 5 0 01-5 5z" fill="#fffa0c"/></g></g></svg>