<svg xmlns="http://www.w3.org/2000/svg" viewBox="0 0 116 116"><g data-name="Layer 2"><g data-name="Layer 1"><path d="M77 116H3a3 3 0 01-3-3V3a3 3 0 013-3h110a3 3 0 013 3v74a39.05 39.05 0 01-39 39zm-71-6h71a33 33 0 0033-33V6H6z" fill="#ffec00"/><path d="M86.66 85.79H74.31V66.43c0-4.62-.07-10.56-6.41-10.58s-7.44 5-7.45 10.21l-.05 19.7H48.05l.09-40.95h11.87v6.57h.16c1.67-3.13 5.71-6.42 11.73-6.41 12.52 0 14.82 8.28 14.8 19v21.85zM34.18 39.35a7.18 7.18 0 117.18-7.18 7.17 7.17 0 01-7.18 7.18zm-6.19 5.45h12.39v40.95H27.99z" fill="#fffa0c"/></g></g></svg>