<svg xmlns="http://www.w3.org/2000/svg" viewBox="0 0 116 116"><g data-name="Layer 2"><g data-name="Layer 1"><path d="M77 116H3a3 3 0 01-3-3V3a3 3 0 013-3h110a3 3 0 013 3v74a39.05 39.05 0 01-39 39zm-71-6h71a33 33 0 0033-33V6H6z" fill="#ffec00"/><path d="M51.59 82.49c-10.35 0-18.53-1.81-22.44-5l-.07-.06-.08-.03a3.19 3.19 0 01-.84-3.35v-.1a3.24 3.24 0 013-2 26.57 26.57 0 007.06-1 13.39 13.39 0 01-7.07-8.16 2.92 2.92 0 011-3.38 3.06 3.06 0 01.88-.45 19.52 19.52 0 01-4-7.18v-.16a3 3 0 011.4-3.24 3 3 0 011.43-.4 15.15 15.15 0 01-1.14-3.49 14.59 14.59 0 011.55-9.71l.38-.77a2.15 2.15 0 013.44-.56l.7.7c5.5 5.85 10.46 8.55 19.03 10.43a15.17 15.17 0 014.1-8.75 14.39 14.39 0 0110.27-4.53c2.84 0 6.36 1.62 8.49 2.77 1.83-.6 4-1.53 6.32-2.51a2.86 2.86 0 013.84 3.69q-.26.69-.57 1.35a3.07 3.07 0 01.84.58 3.14 3.14 0 01.78 2.92v.1a11.92 11.92 0 01-4.78 6.56c-.38 19.77-15.27 35.73-33.52 35.73z" fill="#fffa0c"/></g></g></svg>