<svg xmlns="http://www.w3.org/2000/svg" viewBox="0 0 250 53.21"><g data-name="Layer 2"><g data-name="Layer 1"><g data-name="svg4015"><g data-name="layer1" fill="#fff"><path data-name="path3956" d="M36 0s6.52 6.52 9.52 9.89v2.55C42.76 9.48 37 7 31.57 7c-12.2 0-19.86 9.2-19.86 20.59S19 48.14 31.57 48.14a19.41 19.41 0 0014.1-6v2.43c-3.81 5.23-10.78 8.64-19.45 8.64C10.7 53.21 0 41.94 0 27.6S11.87 2 26.22 2A29.33 29.33 0 0136 3.65z"/><path data-name="path3958" d="M29 27.52c0-8.27.77-11.92 3.56-11.92s3.57 3.65 3.57 11.92-.77 11.91-3.57 11.91S29 35.78 29 27.52m-10.06.08c0 8.18 5 14.83 13.62 14.83s13.6-6.65 13.6-14.83-5-14.84-13.62-14.84-13.62 6.65-13.62 14.84"/><path data-name="path3960" d="M65.33 22.57c0-2.43-.77-4.33-2.88-4.33s-3 1.9-3 4.33v16H62v2.55H48.43v-2.54h2.51v-22h-2.51v-2.52h10.66v4.13h.12a7.68 7.68 0 017.13-4.66 7 7 0 017.17 5.64 23.73 23.73 0 01.37 4.37v15h3.24v2.55H65.33z"/><path data-name="path3962" d="M88.59 16.53v20a1.52 1.52 0 001.33 1.7 1.41 1.41 0 00.41 0 5.25 5.25 0 001.58-.23v2.47s-1.62 1-5.23 1C82.47 41.45 80 39.39 80 35V16.53h-2.88v-1.82c3.2-2.55 6.93-5.47 9.89-7.94h1.58v7.29h3.32v2.47z"/><path data-name="path3964" d="M96 6.89c0 5.31 10.45 5.31 10.45 0S96 1.57 96 6.89m.89 9.64H94.4v-2.47h11v24.52h2.51v2.55H94.4v-2.55h2.48z"/><path data-name="path3966" d="M127 22.57c0-2.43-.77-4.33-2.88-4.33s-3 1.9-3 4.33v16h2.47v2.55h-13.48v-2.54h2.51v-22h-2.51v-2.52h10.66v4.13h.12a7.69 7.69 0 017.11-4.66 7 7 0 017.17 5.64 23.73 23.73 0 01.37 4.37v15h3.24v2.55H127z"/><path data-name="path3968" d="M160.85 33.92a7.47 7.47 0 01-6 2.51c-2.47 0-6.28-1.38-6.45-7.66h14.47c0-.49.08-1.46.08-1.95 0-7.61-3.12-13.29-11.26-13.29s-12.36 6.29-12.36 14.11 4.17 14 12.36 14c5.27 0 8.59-2.47 10.53-6.36zm-12.41-7.78c0-7.14.57-9.81 3-9.81s3 2.59 3 9.81z"/><path data-name="path3970" d="M181.67 22.57c0-2.43-.77-4.33-2.87-4.33s-3 1.9-3 4.33v16h2.47v2.55h-13.49v-2.54h2.51v-22h-2.51v-2.52h10.65v4.13h.12a7.72 7.72 0 017.14-4.66 7 7 0 017.17 5.64 24.64 24.64 0 01.37 4.37v15h3.24v2.55h-11.8z"/><path data-name="path3972" d="M204.94 16.53v20a1.52 1.52 0 001.33 1.7 1.41 1.41 0 00.41 0 5.3 5.3 0 001.58-.28v2.47s-1.62 1-5.23 1c-4.21 0-6.69-2.06-6.69-6.44V16.53h-2.87v-1.82c3.2-2.55 6.93-5.47 9.89-7.94h1.58v7.29h3.32v2.47z"/><path data-name="path3974" d="M223.82 27.72a2.47 2.47 0 00-1.86-.57c-2.56 0-3.12 2.51-3.12 5.11s.77 4.62 3 4.62a2.64 2.64 0 002-.81zm.37 10.17h-.13a8 8 0 01-6.93 3.73c-4.41 0-7.17-3.77-7.17-8.27 0-5.43 3.85-8.88 10-8.88a10.51 10.51 0 013.85.58v-1.71c0-3.28-2-5-5-5a7.79 7.79 0 00-6.2 3.16l-1.5-1.83a12.8 12.8 0 0110.78-6.12c6.56 0 10.45 3.89 10.45 9.81v15.22h2.76v2.55h-10.91z"/><path data-name="path3976" d="M238.13 6.52h-3V4.05h11.51v34.53H250v2.55h-11.87z"/></g></g></g></g></svg>