<svg xmlns="http://www.w3.org/2000/svg" viewBox="0 0 636.23 636"><g data-name="Layer 2"><g data-name="Layer 1"><path d="M601.46 173.53a320.86 320.86 0 00-92.54-109.92L487.3 92.39a284.53 284.53 0 0182.1 97.52A278.81 278.81 0 01600.11 318a281.7 281.7 0 01-225.58 276.35 285 285 0 01-96.6 2.81 2.06 2.06 0 01-1.82-2V138h-36v457.16a38.27 38.27 0 0032.74 37.64 321 321 0 00108.84-3.17 318.13 318.13 0 00219.77-456.1z"/><path d="M66.82 446.09A278.81 278.81 0 0136.11 318 281.7 281.7 0 01261.69 41.65a285 285 0 0196.6-2.81 2 2 0 011.82 2V498h36V40.84A38.26 38.26 0 00363.37 3.2 317.84 317.84 0 0072.89 115.53a317.64 317.64 0 00-38.13 346.94 321.08 321.08 0 0092.54 109.92l21.62-28.78a284.85 284.85 0 01-82.1-97.52z"/></g></g></svg>