<svg xmlns="http://www.w3.org/2000/svg" viewBox="0 0 4244.3 636"><path d="M763.6 403c25.6 21.7 57.2 36.1 90.7 36.1 37.5 0 69-21 69-52.6 0-76.9-172.8-34.8-172.8-137.3 0-54.5 51.2-87.4 101.8-87.4 40.7 0 74.2 13.8 96.6 28.9l-19.7 30.9c-25.6-16.4-44-24.3-74.9-24.3-31.5 0-66.4 16.4-66.4 51.2 0 66.4 172.8 30.9 172.8 136 0 55.9-47.3 90-103.8 90-49.9 0-90-18.4-116.3-42.7l23-28.8zm520.4 65v-44c-22.3 30.2-61.1 50.6-107.8 50.6-28.2 0-59.8-7.2-89.3-28.2-39.4-27.6-63.7-74.2-63.7-128.1 0-49.9 21.7-94 55.8-122.9 25-20.4 59.1-33.5 95.3-33.5 43.4 0 82.8 17.7 109.7 48v-41.4h36.1V468H1284zm-1.3-210.2c-13.1-22.3-52.6-60.4-107.7-60.4-26.3.1-51.8 9.1-72.3 25.6-26.3 21.7-42.1 56.5-42.1 95.3 0 41.4 18.4 78.2 47.3 98.5 19 13.1 42 22.3 67.7 22.3 44 0 83.4-25 107.1-65.7V257.8zm185.2-48.7c21.7-28.2 59.8-47.3 101.2-47.3 49.9 0 91.3 25 112.3 63.7 21-30.2 57.8-63.7 117.6-63.7 49.3 0 90.7 25 112.3 63.1 11.2 20.4 17.7 44.7 17.7 84.8V468h-37.4V314.3c0-42-6.6-61.8-17.1-77.5-15.8-23.7-42.7-39.4-75.6-39.4-48 0-84.8 33.5-103.2 69.6 2.3 14.1 3.3 28.4 3.3 42.7V468h-37.4V314.3c0-42-6.6-61.8-17.1-77.5-15.8-23.7-42.7-39.4-75.6-39.4-40.7 0-80.2 25-99.9 62.4V468h-37.4V168.4h36.1l.2 40.7zM2268.8 468v-44c-22.3 30.2-61.1 50.6-107.8 50.6-28.2 0-59.8-7.2-89.4-28.2-39.4-27.6-63.7-74.2-63.7-128.1 0-49.9 21.7-94 55.8-122.9 25-20.4 59.1-33.5 95.3-33.5 43.4 0 82.8 17.7 109.7 48v-41.4h36.1V468h-36zm-1.3-210.2c-13.1-22.3-52.6-60.4-107.8-60.4-26.3.1-51.8 9.1-72.3 25.6-26.3 21.7-42 56.5-42 95.3 0 41.4 18.4 78.2 47.3 98.5 19.1 13.1 42.1 22.3 67.7 22.3 44 0 83.4-25 107.1-65.7V257.8zM2410 403c25.6 21.7 57.2 36.1 90.7 36.1 37.4 0 69-21 69-52.6 0-76.9-172.8-34.8-172.8-137.3 0-54.5 51.2-87.4 101.8-87.4 40.7 0 74.2 13.8 96.6 28.9l-19.7 30.9c-25.6-16.4-44-24.3-74.9-24.3-31.5 0-66.4 16.4-66.4 51.2 0 66.4 172.8 30.9 172.8 136 0 55.9-47.3 90-103.8 90-49.9 0-90-18.4-116.3-42.7l23-28.8zm413.9 71.6c-89.4 0-154.4-70.3-154.4-156.4s65-156.4 154.4-156.4 154.4 70.3 154.4 156.4-65 156.4-154.4 156.4zm0-277.3c-67.7 0-116.9 53.9-116.9 120.9s49.3 120.9 116.9 120.9 117-53.9 117-120.9-49.3-120.9-117-120.9zm464.5 230c-21 27.6-59.8 47.3-101.2 47.3-49.3 0-90.7-23.6-112.3-61.8-11.2-20.4-17.7-44.7-17.7-84.8V168.4h37.4v153.7c0 42 6.6 61.8 17.1 77.5 15.8 23.6 42.7 39.4 75.6 39.4 40.7 0 80.2-25 99.9-62.4V168.4h37.4V468h-36.1l-.1-40.7zm297-229.3c-3.9-.6-15.8-.6-17.7-.6-40.7 0-78.2 27.6-94 66.4V468h-37.4V168.4h37.4v39.4c13.8-21 48-46 94.6-46 5.3 0 18.4.7 22.3 1.3l-5.2 34.9zm327.2 224.7c-29.6 32.9-72.3 51.9-118.3 51.9-83.4 0-161-60.4-161-156.4 0-84.1 65-156.4 155-156.4 49.9 0 87.4 19.7 114.3 46.6l-23.6 26.9c-22.3-21.7-52.6-38.1-90.7-38.1-63.1 0-117.6 52.6-117.6 120.9 0 67 52.6 120.9 122.9 120.9 34.8 0 66.4-14.5 92-41.4l27 25.1zm321.9-3.3c-22.3 28.2-65 55.2-122.2 55.2-84.1 0-150.4-63.1-150.4-156.4 0-86.1 58.5-156.4 143.2-156.4 80.1 0 139.3 63.1 139.3 146.5 0 4.4-.2 8.8-.6 13.1h-244.4c2.6 63.7 44 117.6 113 117.6 39.4 0 72.3-15.8 95.9-44.7l26.2 25.1zm-233.2-132h204.3c-7.9-52.6-48.6-90-100.5-90-53.3-.1-92.7 38-103.8 90zm-3400-113.9c-22.1-43.2-53.8-80.7-92.5-109.9l-21.6 28.8c34.4 25.9 62.5 59.2 82.1 97.5 20.3 39.6 30.9 83.6 30.7 128.1.1 134.1-94.2 249.6-225.6 276.3-31.8 6.4-64.5 7.4-96.6 2.8-1-.1-1.8-1-1.8-2V138h-36v457.2c.1 18.9 14 34.9 32.7 37.6 15 2.1 30.1 3.2 45.3 3.2 21.4 0 42.7-2.1 63.6-6.4 71.2-14.6 135.3-53.1 181.6-109.2 80.8-97.6 95.8-234 38.1-346.9z"/><path d="M66.7 446.1C46.4 406.5 35.9 362.5 36 318c-.1-134.1 94.2-249.6 225.6-276.3 31.8-6.4 64.5-7.4 96.6-2.8 1 .1 1.8 1 1.8 2V498h36V40.8c-.1-18.9-14-34.9-32.7-37.6-36.2-5.1-73-4.1-108.8 3.2C183.2 21 119.1 59.5 72.8 115.5-8 213.2-23 349.6 34.7 462.5c22.1 43.2 53.8 80.7 92.5 109.9l21.6-28.8c-34.4-25.9-62.4-59.2-82.1-97.5z"/></svg>