<svg xmlns="http://www.w3.org/2000/svg" viewBox="0 0 167.28 88.4"><defs><style>.cls-1{fill:#ffd400}</style></defs><g id="Layer_2" data-name="Layer 2"><g id="Layer_1-2" data-name="Layer 1"><path class="cls-1" d="M72.54 44.74a7.53 7.53 0 00-3.66 1.06 3 3 0 00-1.31 2.69 3 3 0 00.32 1.41 3 3 0 00.85 1 3.5 3.5 0 001.23.58 5.57 5.57 0 001.41.19 9.55 9.55 0 002.39-.31 6.46 6.46 0 002.06-.94 4.71 4.71 0 001.44-1.6 4.53 4.53 0 00.55-2.3v-2.76a10.11 10.11 0 01-2.62.71c-.89.12-1.78.21-2.66.27zm-42.8 0a7.53 7.53 0 00-3.66 1.06 3 3 0 00-1.31 2.69 3 3 0 00.32 1.41 3 3 0 00.85 1 3.58 3.58 0 001.23.58 5.7 5.7 0 001.41.19 9.55 9.55 0 002.42-.32 6.46 6.46 0 002-.94 4.71 4.71 0 001.44-1.6 4.53 4.53 0 00.55-2.3v-2.75a10 10 0 01-2.62.71c-.86.12-1.74.21-2.63.27z"/><path class="cls-1" d="M0 0v88.4h88.4V0zm21.43 50.58a4.64 4.64 0 01-1.5 1.62 6.84 6.84 0 01-2.26 1 11.74 11.74 0 01-2.88.33A7.88 7.88 0 0112 53a6.15 6.15 0 01-2-1.24 5.92 5.92 0 01-1.33-1.91 6.52 6.52 0 01-.54-2.35h2.07a5.19 5.19 0 001.72 3.22 5.8 5.8 0 003.56.94 5.89 5.89 0 001.94-.28 3.86 3.86 0 001.35-.73 3.19 3.19 0 00.8-1 2.82 2.82 0 00.27-1.22 2.29 2.29 0 00-.84-1.97 6.2 6.2 0 00-2.1-1 26.7 26.7 0 00-2.72-.62 13.33 13.33 0 01-2.73-.76 5.43 5.43 0 01-2.09-1.47 3.92 3.92 0 01-.83-2.69 4.61 4.61 0 011.61-3.63 6.77 6.77 0 014.58-1.41 7.82 7.82 0 014.65 1.28 5.83 5.83 0 012.16 4.27h-2.11a3.79 3.79 0 00-1.54-2.87 5.78 5.78 0 00-3.22-.84 4.54 4.54 0 00-3 .84 2.66 2.66 0 00-1 2.19 2.13 2.13 0 00.84 1.82 6.91 6.91 0 002.09 1q1.26.39 2.73.69a14.19 14.19 0 012.72.87 5.91 5.91 0 012.09 1.52 3.87 3.87 0 01.87 2.7 4.39 4.39 0 01-.57 2.23zM39.21 53l-.7.2a2.9 2.9 0 01-.9.14 3.93 3.93 0 01-.92-.1 1.61 1.61 0 01-.82-.32 2 2 0 01-.49-.62 2.56 2.56 0 01-.26-.78 5.14 5.14 0 01-.07-.9 8.92 8.92 0 01-3 2.18 8.71 8.71 0 01-3.61.75 8.28 8.28 0 01-2.23-.31 5.61 5.61 0 01-1.89-.95 4.64 4.64 0 01-1.29-1.59 4.83 4.83 0 01-.48-2.23c0-3 2.05-4.77 6.16-5.31l2.83-.38c.38 0 .84-.11 1.38-.2a5.62 5.62 0 001.31-.37 1.1 1.1 0 00.63-.8 5.11 5.11 0 00.12-1 3.47 3.47 0 00-1-2.57 4.68 4.68 0 00-3.38-1 9 9 0 00-1.94.19 4.08 4.08 0 00-1.55.65 3.39 3.39 0 00-1.09 1.22 5.24 5.24 0 00-.57 1.93h-2.04a6.34 6.34 0 01.71-2.68 5.33 5.33 0 011.59-1.8 6.3 6.3 0 012.24-1 10.82 10.82 0 012.71-.33 10.51 10.51 0 012.5.29 5.74 5.74 0 012.05.92 4.32 4.32 0 011.36 1.69 6 6 0 01.49 2.58V50c0 .79.14 1.3.43 1.51s.85.17 1.72-.15zm24.95 0h-2V40.83a5 5 0 00-.8-3 3.48 3.48 0 00-3-1.09 5.09 5.09 0 00-2.16.49 5 5 0 00-1.82 1.52 3.69 3.69 0 00-.56 1 8.43 8.43 0 00-.38 1.25 11.31 11.31 0 00-.19 1.3V53h-2V40.83a5 5 0 00-.8-3 3.49 3.49 0 00-3-1.09 4.93 4.93 0 00-4 2 4.28 4.28 0 00-.56 1 9.87 9.87 0 00-.42 1.26 9.45 9.45 0 00-.18 1.3V53h-2.1V35.38h2.05V38h.06a5.5 5.5 0 012.25-2.33 6.61 6.61 0 013.2-.8 7 7 0 012.08.27 4.82 4.82 0 011.45.74 4.16 4.16 0 011 1.07 7.2 7.2 0 01.67 1.33 5.92 5.92 0 012.36-2.57 6.76 6.76 0 013.39-.84 5.93 5.93 0 012.88.6 4.35 4.35 0 011.65 1.56 6.08 6.08 0 01.77 2.26 18.37 18.37 0 01.18 2.59zM82 53l-.69.2a2.92 2.92 0 01-.91.14 3.91 3.91 0 01-.91-.1 1.57 1.57 0 01-.82-.32 2 2 0 01-.5-.62 2.55 2.55 0 01-.25-.78 5.14 5.14 0 01-.07-.9 8.92 8.92 0 01-3 2.18 8.71 8.71 0 01-3.61.75 8.23 8.23 0 01-2.23-.31 5.43 5.43 0 01-1.89-.95 4.64 4.64 0 01-1.29-1.59 4.83 4.83 0 01-.48-2.23c0-3 2-4.77 6.16-5.31l2.83-.38c.38 0 .84-.11 1.38-.2a5.62 5.62 0 001.31-.37 1.1 1.1 0 00.63-.8 5.11 5.11 0 00.12-1 3.47 3.47 0 00-1-2.57 4.69 4.69 0 00-3.39-1 9.05 9.05 0 00-1.94.19 4.15 4.15 0 00-1.55.65 3.59 3.59 0 00-1.09 1.22 5.24 5.24 0 00-.56 1.93h-2.04a6.19 6.19 0 01.71-2.68 5.41 5.41 0 011.58-1.8 6.43 6.43 0 012.25-1 10.82 10.82 0 012.71-.33 10.58 10.58 0 012.5.29 5.69 5.69 0 012 .92 4.26 4.26 0 011.37 1.69 6 6 0 01.49 2.58V50c0 .79.14 1.3.43 1.51s.85.17 1.71-.15zm17.43.51c-3 0-4.9-1.93-4.9-4.53v-1.23H97v.83c0 1.82.83 2.76 2.42 2.76a2.14 2.14 0 002.35-2.3c0-1.59-.69-2.58-2.94-4-2-1.28-4.13-3-4.13-5.6a4.73 4.73 0 019.46 0v1.15h-2.41v-.83c0-1.5-.73-2.68-2.42-2.68a1.9 1.9 0 00-2.11 2c0 1.59.72 2.42 3.29 4.08s3.78 3.19 3.78 5.49a4.65 4.65 0 01-4.86 4.86zm11.81 0c-3.34 0-5-2.2-5-5.12V40c0-2.9 1.64-5.09 5-5.09s5 2.19 5 5.09v8.41c-.01 2.9-1.62 5.1-5 5.1zm2.47-13.75a2.34 2.34 0 00-2.47-2.62 2.31 2.31 0 00-2.43 2.62v8.85a2.31 2.31 0 002.43 2.62 2.34 2.34 0 002.47-2.62zm9.74 13.75c-2.9 0-5-1.71-5-4.66V35.26H121v13.59a2.44 2.44 0 104.87 0V35.26h2.52v13.59c.04 2.95-2.02 4.66-4.94 4.66zm16.84-.21c-2 0-2.7-.57-2.7-2.42V47.4c0-1.23-.57-2.06-1.85-2.06h-2.52v7.77h-2.55V35.26h5.18c2.89 0 4.18 1.45 4.18 4v2c0 1.74-.59 2.79-2.31 3.14a2.88 2.88 0 012.39 3.1v3.2c0 .48.21.69.75.69v1.91zm-2.81-14.1c0-1-.43-1.74-1.63-1.74h-2.63v5.95h2.36c1.23 0 1.9-.7 1.9-2zm9.82 14.31a4.67 4.67 0 01-5-5v-8.69a4.65 4.65 0 015-4.93c3.37 0 4.85 2.09 4.85 4.69v1.93h-2.28v-1.88a2.51 2.51 0 00-5-.11v9.33a2.51 2.51 0 005-.11v-1.87h2.28v1.92c0 2.6-1.48 4.72-4.85 4.72zm7.07-.4V35.26h8.31v2.31h-5.79v5.09h4.18v2.2h-4.18v5.94h5.79v2.31zm11.74-15.5a1.18 1.18 0 111.17-1.18 1.16 1.16 0 01-1.17 1.18zm0-2.18a1 1 0 101 1 1 1 0 00-1-1zm.35 1.54c-.11 0-.15-.06-.15-.17v-.13a.12.12 0 00-.14-.13H166V37h-.26v-1.1h.5c.25 0 .36.12.36.29a.23.23 0 01-.2.24.21.21 0 01.2.23v.11a.1.1 0 00.05.1V37zm-.16-.75c0-.08 0-.12-.14-.12H166v.28h.18c.1 0 .15 0 .15-.13z"/></g></g></svg>