<svg data-ga-category="Top Nav" data-ga-label="Quid Logo" class="header__logo-img" xmlns="http://www.w3.org/2000/svg" width="94.667" height="48.333"><path fill="#FFF" d="M53.387 19.059c0-1.161.043-1.247-1.159-1.247-1.463 0-1.634-.043-1.634-.602 0-.646.515-.646 1.461-.646 1.202 0 2.578-.042 3.607-.171l.819-.086c.299 0 .383.215.383.515 0 .043-.084 1.59-.084 1.892 0 .86-.044 1.89-.044 2.791v6.102c0 1.977 0 3.309.518 3.824.3.344.515.344 1.502.43.473 0 .559.303.559.602 0 .559-.129.645-.816.645-1.116 0-1.287 0-2.188.043l-2.452.301c-.385 0-.516-.086-.558-3.91-1.289 1.891-2.836 4.039-6.23 4.039-2.32 0-5.284-1.244-5.284-5.586 0-.387.087-3.565.13-4.338.042-1.032.128-2.836.171-4.554.042-1.205-.043-1.29-1.591-1.29-.773 0-1.116 0-1.116-.602 0-.472.215-.646.644-.646 2.534 0 2.834-.085 4.725-.213.43-.044.688-.044.688-.044.215 0 .387.044.387.345 0 .17-.129 1.59-.129 1.889-.129 1.805-.43 5.716-.43 8.895 0 3.525 1.074 4.598 2.878 4.598 3.136 0 4.728-3.137 4.984-4.641.214-1.201.259-4.167.259-5.542v-2.793zM67.218 6.686c0 1.073-.6 2.363-2.062 2.363-1.158 0-2.063-.817-2.063-2.363 0-1.333.776-2.278 2.063-2.278 1.42-.001 2.062 1.244 2.062 2.278m-.17 22.813c0 1.891 0 2.318 1.116 2.363 1.504.086 1.677.129 1.677.818 0 .514-.216.557-.689.557-.43 0-2.362-.129-3.35-.129-1.162 0-3.18.129-4.169.129-.73 0-.858-.129-.858-.602 0-.645.172-.688 1.719-.773 1.375-.086 1.203-1.115 1.203-2.576v-9.324c0-1.762.042-2.149-.903-2.149-1.16 0-1.891.214-1.891-.602 0-.515.43-.645.818-.645.387 0 1.847-.085 2.747-.172 1.16-.128 2.236-.299 2.321-.299.345 0 .429.344.429.602 0 .298-.13 1.761-.13 2.363 0 .472-.04 1.632-.04 2.276v8.163zm17.621-7.991c0-2.148-.986-4.553-4.383-4.553-4.167 0-5.37 4.424-5.37 7.559 0 3.954 1.246 7.52 5.112 7.52 2.063 0 3.739-1.203 4.212-2.664.429-1.289.429-3.178.429-3.736v-4.126zm.26-10.827c0-.86.085-3.611-.087-4.254-.129-.473-.516-.473-.947-.473-.212 0-1.114.044-1.288 0-.256-.041-.429-.17-.429-.557 0-.688.299-.688 1.418-.733.772-.041 3.006-.342 3.91-.514.13-.044.385-.084.559-.084.473 0 .473.3.473.514s-.216 4.898-.216 5.8c0 1.116-.173 7.046-.173 7.862v9.022c0 4.34.216 4.469 1.764 4.469.516 0 .772.084.772.688 0 .559-.128.559-1.289.602-.858.043-1.59.086-2.105.172-.729.131-1.849.387-1.891.387-.558 0-.601-1.074-.644-3.135-1.419 2.061-3.695 3.135-6.188 3.135-3.866 0-7.646-2.92-7.646-8.207 0-4.941 3.393-9.495 8.594-9.495 2.749 0 4.253 1.247 5.241 2.406l.172-7.605z"/><path fill="#FFF" d="M47.083 41.233a2.204 2.204 0 00-.92 4.207c-6.537 1.314-20.138-5.525-25.914-7.924-1.464-.607-2.762-1.006-3.925-1.245a18.67 18.67 0 001.627-1.088c.352.018.706.03 1.064.03 5.881 0 11.122-2.533 14.455-6.697 2.278-2.779 3.743-6.402 3.743-10.869 0-9.505-7.685-17.463-18.255-17.463C8.956.184.761 7.468.761 17.75c0 .357.021.846.07 1.415.03.358.076.716.128 1.072l.036.232c.123.765.28 1.52.501 2.255.009.031.014.058.024.09.024.082.055.161.082.245 1.07 3.499 3.478 7.683 8.782 10.151a18.761 18.761 0 005.12 1.694c-.654.419-1.39.793-2.208 1.114-2.315.168-3.762 1.276-4.577 2.832-.188.357-.571.99-.528 1.119-.003.307.834.855 1.156.221 1.707-3.383 4.786-2.75 7.595-1.932 5.123 1.498 11.767 5.127 21.191 8.816 8.098 3.174 10.427-1.6 10.909-2.637.156-.303.249-.635.249-.996 0-1.22-.988-2.208-2.208-2.208zM6.045 17.647c0-12.812 6.304-15.912 12.857-15.912 6.615 0 13.028 3.101 13.028 15.912 0 12.275-5.839 15.611-12.121 15.892 2.983-3.187 2.462-6.11 2.12-6.657-.149-.242-.287-.461-.562-.443a.459.459 0 00-.412.299l-.008-.002c.002.002.002.01.002.012-.12.584-.767 3.992-3.643 6.744-5.864-.514-11.261-4.093-11.261-15.845zm86.32-13.658c.259 0 .513.066.759.199s.438.323.577.57a1.559 1.559 0 01.003 1.541 1.439 1.439 0 01-.57.572 1.574 1.574 0 01-.769.203 1.57 1.57 0 01-.768-.203 1.429 1.429 0 01-.571-.572 1.56 1.56 0 01-.204-.767c0-.269.068-.526.207-.774.14-.248.331-.437.578-.57.246-.133.498-.199.758-.199zm0 .255c-.217 0-.427.056-.633.167-.204.111-.365.27-.481.476a1.313 1.313 0 00-.174.645c0 .223.058.436.17.639.114.204.274.363.479.477a1.292 1.292 0 001.758-.477c.112-.204.169-.417.169-.639a1.3 1.3 0 00-.173-.645 1.18 1.18 0 00-.481-.476 1.33 1.33 0 00-.634-.167zm-.677 2.141v-1.66h.571c.194 0 .336.016.422.046a.408.408 0 01.209.161.438.438 0 01-.053.56.505.505 0 01-.344.151.465.465 0 01.142.088c.066.065.148.175.245.329l.202.325h-.327l-.146-.261c-.116-.206-.21-.334-.28-.386a.344.344 0 00-.215-.058h-.157v.705h-.269zm.269-.934h.325c.154 0 .262-.024.317-.07a.225.225 0 00.085-.184.227.227 0 00-.041-.132.255.255 0 00-.113-.087.853.853 0 00-.269-.028h-.305v.501z"/></svg>