<?xml version="1.0" encoding="utf-8"?>
<!-- Generator: Adobe Illustrator 23.0.2, SVG Export Plug-In . SVG Version: 6.00 Build 0)  -->
<svg version="1.1" id="Layer_1" xmlns="http://www.w3.org/2000/svg" xmlns:xlink="http://www.w3.org/1999/xlink" x="0px" y="0px"
	 viewBox="0 0 213.5 85.5" style="enable-background:new 0 0 213.5 85.5;" xml:space="preserve">
<style type="text/css">
	.st0{fill:#40474F;}
</style>
<g>
	<g>
		<g>
			<g>
				<path class="st0" d="M27.9,77.8c-2.7,2.9-5.9,5-10.7,6.6c-2.8,0.9-5.4,0.9-7.8,0.9C4.9,85.3,1,81.6,1,74.8
					c0-5.6,2.4-11.1,11.3-15.1c7.6-3.7,12.2-5.6,14.9-7.6v-6.4c-0.2-2.4-0.5-5.4-2-6.9C24,37.5,21.8,37,19.1,37
					c-2.2,0-5.1,0.7-7.1,2.2c-1.7,1.2-0.5,3.1-0.5,6c0,4.4-2.2,7.1-7.3,7.1C2,52.3,0,50.8,0,48.1c0-3.4,2-7.3,5.6-10
					c5.1-3.9,11.8-6.9,19.8-6.9c6.9,0,9.1,1.5,11.3,3.4c2.7,2.4,2.9,5.9,2.9,9.2l0.2,19.3V69c0,6.6,1,8.6,3.2,8.6c1.7,0,3.4-1,3.9-2
					c0.5-0.7,0.7-0.7,1.2-0.5l1.5,1c0.5,0.2,0.7,0.7,0.2,2c-1.2,2.2-4.2,7.1-11.3,7.1c-4.7,0-8.6-2.2-10.3-7.5L27.9,77.8L27.9,77.8z
					 M27.2,56.6C21.8,60,13.7,62.1,13.7,71c0,5,2.7,7.5,5.6,7.5c3.4-0.2,7.8-3.7,7.8-5.9L27.2,56.6L27.2,56.6z"/>
				<path class="st0" d="M68.2,22.9c0-3.7-0.7-6.4-2.9-6.4c-1.2,0-2.9,0.2-5.1,1l-7.3,2.2c-0.5,0.2-1,0.2-1.2-0.2l-1-2.4
					c-0.2-0.5,0-1,0.7-1.5L79.6,0.9c0.7-0.4,1.5-0.7,2.2-0.7s1,0.5,1,2c0,1-0.5,20.1-0.5,35.9v5.1c0,4.2,0.2,27.4,0.2,29
					c0,6.4,0.5,7.1,7.3,7.1h4.4c1,0,1.2,0.4,1.2,0.9v3.1c0,0.7-0.2,1-1.2,1s-17.6-0.4-19.6-0.4c-2.4,0-19.6,0.4-20.3,0.4
					c-0.6,0-1-0.2-1-0.9v-3.2c0-0.7,0.5-0.9,1.3-0.9h4.8c7.3,0,8.3-0.2,8.6-6.7c0.2-3.4,0.2-22,0.2-25.5L68.2,22.9L68.2,22.9z"/>
				<path class="st0" d="M153.1,56.2c0,11.3-3.4,17.4-7.8,21.5c-5.1,5.1-10.3,7.8-18.9,7.8s-14.2-2.7-18.1-7.6
					c-6.6-7.8-7.8-16.9-7.8-23.3c0-15.9,6.9-30.1,17.4-40.2c7.3-6.9,14.7-10.8,21.3-13.2c2.7-0.7,4.4-1.2,5.1-1.2s1.7,0.7,1.7,1.5
					c0,1-0.5,2-2,2.4c-9.8,3.9-24.2,17.9-27.5,34.9l0.4,0.5c3.2-2.9,8.6-5.1,14.7-5.1C147,34.3,153.1,47.1,153.1,56.2 M117.4,44.9
					c-2.2,2.7-2.4,7.8-2.4,14.8c0,6.6,1.2,21.5,12.5,21.5c3.4,0,11.5-1.5,11.5-19.7c0-11.3-4.4-20.6-12.5-20.6
					C121.6,40.9,118.9,42.7,117.4,44.9"/>
				<path class="st0" d="M163.1,83.8c-1.2,0-1.7-0.7-0.5-2.7l29.6-44.4h-10.8c-7.1,0-9.3,1-19.1,13.5c-0.4,0.5-0.9,0.6-1.2,0.4
					l-1.7-1c-0.5-0.4-0.5-0.6-0.2-1.3l7.3-17.4c2.2,0.5,4.4,1,6.6,1.2c4.4,0.5,6.6,0.7,16.7,0.7h17.9c1.2,0,2,1,1.2,2l-30.6,44.9h14
					c3.2,0,9.1-2.2,17.9-13.1c0.5-0.6,0.9-0.6,1.3-0.4l1.6,1.2c0.5,0.4,0.5,0.7,0.2,1.2l-8.8,16.7c-2.2-0.7-7.1-1-12.7-1.2
					s-11.3-0.2-13-0.2L163.1,83.8L163.1,83.8z"/>
			</g>
		</g>
	</g>
</g>
</svg>
