<?xml version="1.0" encoding="utf-8"?>
<!-- Generator: Adobe Illustrator 23.0.4, SVG Export Plug-In . SVG Version: 6.00 Build 0)  -->
<svg version="1.1" id="Layer_1" xmlns="http://www.w3.org/2000/svg" xmlns:xlink="http://www.w3.org/1999/xlink" x="0px" y="0px"
	 viewBox="0 0 112 22" style="enable-background:new 0 0 112 22;" xml:space="preserve">
<path d="M56.5,19.5c0,0.4,0,0.5,0.3,0.7l1.5,1.4v0.1h-6.5V19c-0.7,1.8-2.4,3-4.3,3c-3.3,0-5.8-2.6-5.8-7.5c0-4.5,2.6-7.6,6.3-7.6
	c1.6-0.1,3.1,0.8,3.8,2.4V3.2c0-0.3-0.1-0.6-0.3-0.7l-1.4-1.4V1l6.5-0.8L56.5,19.5L56.5,19.5z M51.8,18.7V9.5
	c-0.5-0.6-1.2-0.9-1.9-0.9c-1.6,0-3.1,1.4-3.1,5.7c0,4,1.3,5.4,3,5.4C50.5,19.8,51.3,19.4,51.8,18.7z M60.8,21.8V9.4
	c0-0.3-0.1-0.6-0.3-0.7l-1.4-1.5V7.1h6.5v12.5c0,0.4,0,0.5,0.3,0.7l1.4,1.4v0.1H60.8z M60.6,2.6c0-1.4,1.1-2.6,2.6-2.6
	c1.4,0,2.6,1.2,2.6,2.6s-1.2,2.7-2.6,2.7C61.8,5.3,60.7,4.1,60.6,2.6z M83.1,19.5c0,0.4,0,0.5,0.3,0.7l1.5,1.4v0.1h-6.5v-3.2
	c-0.6,2-2.4,3.4-4.5,3.4c-2.9,0-4.4-2.1-4.4-6.2c0-1.9,0-4.1,0.1-6.5c0-0.3-0.1-0.5-0.3-0.7L67.9,7v0.1h6.3v8c0,2.6,0.4,4.4,2,4.4
	c0.9-0.1,1.7-0.6,2.1-1.3V9.5c0-0.3-0.1-0.6-0.3-0.7l-1.4-1.5V7.1h6.5V19.5z M105.1,21.8c0-0.5,0.1-6.5,0.1-7.9
	c0-2.6-0.4-4.5-2.2-4.5c-0.9,0-1.8,0.5-2.3,1.3c0.2,0.8,0.3,1.7,0.3,2.5c0,1.8-0.1,4.2-0.1,6.5c0,0.3,0.1,0.5,0.3,0.7l1.5,1.4v0.1
	h-6.5c0-0.4,0.1-6.5,0.1-7.9c0-2.7-0.4-4.5-2.2-4.5c-0.9,0-1.7,0.5-2.2,1.3v9c0,0.4,0,0.5,0.3,0.7l1.4,1.4V22h-6.5V9.5
	c0-0.3-0.1-0.6-0.3-0.7l-1.4-1.5V7.1H92v3.1c0.6-2.1,2.5-3.5,4.6-3.4c2.2,0,3.6,1.2,4.2,3.5c0.7-2.1,2.7-3.6,4.9-3.5
	c2.9,0,4.5,2.2,4.5,6.2c0,1.9-0.1,4.2-0.1,6.5c-0.1,0.3,0.1,0.6,0.3,0.7l1.4,1.4v0.1L105.1,21.8L105.1,21.8z M23.7,19.8l1.9,1.9v0.1
	h-9.8v-0.1l2-1.9c0.2-0.2,0.3-0.4,0.3-0.7V7.3c0-0.5,0-1.2,0.1-1.8L11.6,22h-0.1L4.8,6.8C4.7,6.4,4.6,6.4,4.4,6.2v10
	c-0.1,0.7,0,1.3,0.3,1.9l2.7,3.6v0.1H0.2v-0.1L3,18c0.3-0.6,0.4-1.3,0.3-1.9v-11c0-0.5-0.1-1.1-0.5-1.5L0.9,1.1V1h7l5.8,12.9L18.9,1
	h6.8v0.1l-1.9,2.2c-0.2,0.2-0.3,0.5-0.3,0.7v15.2C23.5,19.4,23.6,19.7,23.7,19.8z M31.3,13.9c0,3.8,1.9,5.3,4.2,5.3
	c1.9,0.1,3.6-1,4.4-2.7H40c-0.8,3.7-3.1,5.5-6.5,5.5c-3.7,0-7.2-2.2-7.2-7.4c0-5.5,3.5-7.6,7.3-7.6c3.1,0,6.4,1.5,6.4,6.2V14h-8.7
	L31.3,13.9z M31.3,13.1h4.3v-0.8c0-3.9-0.8-4.9-2-4.9C32.2,7.5,31.3,9,31.3,13.1z"/>
</svg>
