<svg xmlns="http://www.w3.org/2000/svg" viewBox="0 0 472.2 414.5"><title>vulcan-white</title><g id="b2b36226-6e87-4e3d-b869-4fff86eb1484" data-name="Layer 2"><g id="b3b78b20-d639-4666-b272-85d0a367a3ea" data-name="Layer 1"><g id="bf0d3a1a-0527-44ae-90c4-746553579559" data-name="layer"><path d="M0,339.5c2.1,4.5,4.3,9.6,8.3,20.2,4.1,10.9,10.4,28.1,12.1,33.1,3.1,0,6.1-.4,7.1-1a6,6,0,0,0,2-2.8c3.9-9.5,7.7-18.5,12.1-29.4,3.7-9.1,5.8-14,7.1-17.5.7-1.9.6-3.2-.4-3.7a35.52,35.52,0,0,0-7.4-1c-1.3,3.4-2.7,7.8-5.7,15.7-3.2,8.5-8,21.3-10,26.7-5.1-15.2-9.6-27.7-12.7-36.5-1.7-4.9-2.3-5.8-3.6-5.8a43.1,43.1,0,0,0-8.9,2" style="fill:#fff"/><path d="M65.5,342.5c0-4.2-.2-4.9-1.7-4.9a74.32,74.32,0,0,0-8.3.7c.2,1.8.3,5.3.3,11.1v16.7c0,19.4,7.9,27,22.4,27,10.7,0,22.9-4.1,22.9-28.5V353.3c0-7.2.1-12.2.3-15.6-1.7,0-4.7.1-7.3.3-1.1.2-1.8.5-1.8,2.2v24.6c0,16.5-5.8,21.3-13.5,21.3-6.2,0-13.4-3.6-13.4-20.5V342.5Z" style="fill:#fff"/><path d="M112.2,389.7l1.3,1.7a96.38,96.38,0,0,0,14.6.9,80.09,80.09,0,0,0,10.5-.4c2.2-1.1,3.8-3.3,4.5-6.5l-.2-.2c-3.9.4-9.2.4-12.8.4a37,37,0,0,1-8.2-.7V342.6c0-4.3-.3-4.9-1.6-4.9a60.62,60.62,0,0,0-8.4.7c.2,1.8.3,5.3.3,11.1v40.2Z" style="fill:#fff"/><path d="M190.7,384a37.89,37.89,0,0,1-12.8,2.1c-13.9,0-21.5-9.5-21.5-21.4,0-13.9,9.2-21.2,19.3-21.2a24.92,24.92,0,0,1,10.7,2.1c1.9.7,3.1.6,3.8-.1a5.79,5.79,0,0,0,1.5-4.4c-1.7-1.8-7.5-4.4-15.6-4.4-7.5,0-14.9,1.9-21,7.3-6.6,5.8-9.1,13.7-9.1,21.4,0,16.3,10.7,27.8,30.1,27.8,5.6,0,10.3-1.2,12.2-2.5a11.22,11.22,0,0,0,2.8-6.4Z" style="fill:#fff"/><path d="M212.3,369.9c3.3-8.6,5.5-14,7.9-20,1,2.4,3.3,8.4,7.5,20Zm17.4,6.3c2.4,5.9,3.4,8.9,5,13.3.9,2.3,1.5,2.8,2.7,2.8a39.6,39.6,0,0,0,8.4-1l.1-.7c-1.6-3.5-3.6-8.5-7.1-17.2-3-7.6-9.6-25-13.6-34.3a2,2,0,0,0-2-1.5,56.6,56.6,0,0,0-8,1l.8,2.1c-3.1,7.3-16.9,39.3-21.5,49.8l.1.7a27.31,27.31,0,0,0,6.9,1.1c1.2,0,1.7-.4,2-1.1,1.3-2.9,3.7-8.9,6.2-15Z" style="fill:#fff"/><path d="M252.7,376.6c0,7.2-.1,12.2-.3,15.7a39.16,39.16,0,0,0,6.4-.4c1.3-.2,1.8-.5,1.8-2.4V367.2c0-4.4,0-9-.3-18.4a211.39,211.39,0,0,0,10.9,18.7c6.5,9.5,11.9,17.6,16.7,24.3a2.33,2.33,0,0,0,2,1,25.25,25.25,0,0,0,7.3-1.4v-38c0-7.2.1-12.2.3-15.9-1.9,0-4,.1-6.4.3-1.3.2-1.7.5-1.7,2.5v23.9c0,4.3,0,8.2.4,15.7-2.1-4.9-5.1-9.4-9.1-15.6-6.8-10.4-14.8-21.5-17.6-25.3a3.26,3.26,0,0,0-2.4-1.5c-1.6,0-7.8.4-9.5.7v.8l1.7,2.2v35.4Z" style="fill:#fff"/><polygon points="324.2 96.2 472.2 0 472.2 318.4 324.2 414.5 324.2 277.2 374.5 226.9 324.2 176.6 324.2 96.2" style="fill:#fff"/><polygon points="190.6 310.3 274 226.9 190.4 143.4 241.3 143.4 324.7 226.9 241.3 310.3 190.6 310.3" style="fill:#fff"/></g></g></g></svg>