<svg xmlns="http://www.w3.org/2000/svg" viewBox="0 0 47 50.5"><title>check_2-layer</title><g id="b8b8884d-4722-47a9-aab9-699c6bcbff2e" data-name="Layer 2"><g id="b7461ba1-28d3-4770-b1c9-3540d0cdac2f" data-name="Working Layer"><circle cx="24.5" cy="28" r="22" style="fill:#fffa0c"/><path d="M24.5,6.5A21.5,21.5,0,1,1,3,28,21.52,21.52,0,0,1,24.5,6.5m0-1h0A22.5,22.5,0,0,0,2,28H2A22.5,22.5,0,0,0,24.5,50.5h0A22.5,22.5,0,0,0,47,28h0A22.5,22.5,0,0,0,24.5,5.5Z" style="fill:#fffa0c"/><path d="M34.19,3.44h-4.9a2.65,2.65,0,0,0-2.65-2H23.32L22.22.56A2.49,2.49,0,0,0,20.65,0h-1.8a2.49,2.49,0,0,0-1.57.56l-1.1.89H13.36a2.65,2.65,0,0,0-2.65,2H5.81A5.84,5.84,0,0,0,0,9.29V41.65A5.84,5.84,0,0,0,5.81,47.5H34.19A5.84,5.84,0,0,0,40,41.65V9.29A5.84,5.84,0,0,0,34.19,3.44Zm-20.54,1h5.14V3.19L19,3h1.44l.24.19V4.45h5.64V6H13.65ZM37,41.65a2.83,2.83,0,0,1-2.81,2.85H5.81A2.83,2.83,0,0,1,3,41.65V9.29A2.83,2.83,0,0,1,5.81,6.44h4.84v.09A2.61,2.61,0,0,0,13.36,9H26.64a2.61,2.61,0,0,0,2.71-2.48V6.44h4.84A2.83,2.83,0,0,1,37,9.29Z" style="fill:#282828"/><path d="M12.44,12.83a1.5,1.5,0,0,0-2.11.23L8.46,15.38,8.11,15a1.5,1.5,0,1,0-2.22,2l1.34,1.46A1.86,1.86,0,0,0,8.52,19a1.83,1.83,0,0,0,1.3-.54l2.85-3.52A1.5,1.5,0,0,0,12.44,12.83Z" style="fill:#282828"/><path d="M12.44,23.83a1.5,1.5,0,0,0-2.11.23L8.46,26.38,8.11,26a1.5,1.5,0,0,0-2.22,2l1.34,1.46A1.86,1.86,0,0,0,8.52,30a1.83,1.83,0,0,0,1.3-.54l2.85-3.52A1.5,1.5,0,0,0,12.44,23.83Z" style="fill:#282828"/><path d="M12.44,34.83a1.5,1.5,0,0,0-2.11.23L8.46,37.38,8.11,37a1.5,1.5,0,0,0-2.22,2l1.34,1.46A1.86,1.86,0,0,0,8.52,41a1.83,1.83,0,0,0,1.3-.54l2.85-3.52A1.5,1.5,0,0,0,12.44,34.83Z" style="fill:#282828"/><path d="M32.5,12.5h-16a1.5,1.5,0,0,0,0,3h16a1.5,1.5,0,0,0,0-3Z" style="fill:#282828"/><path d="M16.5,19.5H28a1.5,1.5,0,0,0,0-3H16.5a1.5,1.5,0,0,0,0,3Z" style="fill:#282828"/><path d="M32.5,23.5h-16a1.5,1.5,0,0,0,0,3h16a1.5,1.5,0,0,0,0-3Z" style="fill:#282828"/><path d="M16.5,30.5H28a1.5,1.5,0,0,0,0-3H16.5a1.5,1.5,0,0,0,0,3Z" style="fill:#282828"/><path d="M32.5,34.5h-16a1.5,1.5,0,0,0,0,3h16a1.5,1.5,0,0,0,0-3Z" style="fill:#282828"/><path d="M28,38.5H16.5a1.5,1.5,0,0,0,0,3H28a1.5,1.5,0,0,0,0-3Z" style="fill:#282828"/></g></g></svg>