<svg xmlns="http://www.w3.org/2000/svg" viewBox="0 0 53 52"><title>gear-brain_2-layer</title><g id="a9624778-24c6-48a2-a6b4-b7fc2d714554" data-name="Layer 2"><g id="fc6bc630-bd66-42ca-be0f-9f1e1c968aa2" data-name="Working Layer"><path d="M29.5,52h0A22.5,22.5,0,0,1,7,29.5H7A22.5,22.5,0,0,1,29.5,7h0A22.5,22.5,0,0,1,52,29.5h0A22.5,22.5,0,0,1,29.5,52Z" style="fill:#fffa0c"/><path d="M33.86,36.52a2.49,2.49,0,0,0-3.28-.91A11.83,11.83,0,0,1,25,37a12.06,12.06,0,0,1-8.92-4,11.94,11.94,0,0,1-3-9.33,12,12,0,0,1,17.52-9.31,2.48,2.48,0,0,0,3.27-.91l2.1-3.4a2.57,2.57,0,0,0,.29-2,2.49,2.49,0,0,0-1.2-1.53,21.13,21.13,0,0,0-4-1.69V2.5A2.5,2.5,0,0,0,28.5,0h-7A2.5,2.5,0,0,0,19,2.5V4.89a20.91,20.91,0,0,0-4,1.65l-1.7-1.69a2.49,2.49,0,0,0-3.53,0l-5,5a2.49,2.49,0,0,0,0,3.53L6.54,15a20.91,20.91,0,0,0-1.65,4H2.5A2.5,2.5,0,0,0,0,21.5v7A2.5,2.5,0,0,0,2.5,31H4.89a20.91,20.91,0,0,0,1.65,4l-1.69,1.7a2.49,2.49,0,0,0,0,3.53l5,4.95a2.49,2.49,0,0,0,3.53,0L15,43.46a20.91,20.91,0,0,0,4,1.65V47.5A2.5,2.5,0,0,0,21.5,50h7A2.5,2.5,0,0,0,31,47.5V45.11a21.13,21.13,0,0,0,4-1.69,2.49,2.49,0,0,0,1.2-1.53,2.57,2.57,0,0,0-.29-2Zm-4,5.8A2.51,2.51,0,0,0,28,44.73V47H22V44.73a2.51,2.51,0,0,0-1.84-2.41,18,18,0,0,1-4-1.65,2.51,2.51,0,0,0-3,.4l-1.61,1.61L7.32,38.44l1.61-1.61a2.52,2.52,0,0,0,.4-3,18,18,0,0,1-1.65-4A2.51,2.51,0,0,0,5.27,28H3V22H5.27a2.51,2.51,0,0,0,2.41-1.84,18,18,0,0,1,1.65-4,2.52,2.52,0,0,0-.4-3L7.32,11.56l4.24-4.24,1.61,1.61a2.52,2.52,0,0,0,3,.4,18,18,0,0,1,4-1.65A2.51,2.51,0,0,0,22,5.27V3h6V5.27a2.51,2.51,0,0,0,1.84,2.41A17.7,17.7,0,0,1,33.12,9l-1.57,2.56a15,15,0,1,0,0,27L33.12,41A17.7,17.7,0,0,1,29.84,42.32Z" style="fill:#282828"/><path d="M52.66,23.88a2.31,2.31,0,0,0-.54-.54A2.05,2.05,0,0,0,51,23a2,2,0,0,0-1.31.5H48a2.48,2.48,0,0,0-1.95.94L44.78,26H22v3H38.17l4.26,6.83A2.52,2.52,0,0,0,44.55,37h2.14a2,2,0,0,0,1.31.5,2.05,2.05,0,0,0,1.12-.34,2.31,2.31,0,0,0,.54-.54,2,2,0,0,0,0-2.24,2.31,2.31,0,0,0-.54-.54A2.05,2.05,0,0,0,48,33.5a2,2,0,0,0-1.31.5H44.83l-3.12-5H45A2.48,2.48,0,0,0,47,28.06l1.25-1.56h1.47A2,2,0,0,0,51,27a2.05,2.05,0,0,0,1.12-.34,2.31,2.31,0,0,0,.54-.54,2,2,0,0,0,0-2.24Z" style="fill:#282828"/><path d="M47.62,39.34A2.05,2.05,0,0,0,46.5,39a2,2,0,0,0-1.31.5H40.6l-5-8a2.49,2.49,0,0,0-2.11-1.17h-4a2.48,2.48,0,0,0-1.23.34,6.5,6.5,0,1,1,0-11.28,2.49,2.49,0,0,0,1.24.34h4a2.49,2.49,0,0,0,2.11-1.17l6-9.53h5.1A2,2,0,0,0,48,9.5a2.05,2.05,0,0,0,1.12-.34,2.31,2.31,0,0,0,.54-.54,2,2,0,0,0,0-2.24,2.31,2.31,0,0,0-.54-.54A2.05,2.05,0,0,0,48,5.5a2,2,0,0,0-1.31.5H41.32a2.48,2.48,0,0,0-2.11,1.16l-6,9.54H29.6a9.48,9.48,0,0,0-11.92,2.24A9.49,9.49,0,0,0,29.6,33.3h3.57l5,8a2.5,2.5,0,0,0,2.12,1.17h4.87a2,2,0,0,0,1.31.5,2.05,2.05,0,0,0,1.12-.34,2.31,2.31,0,0,0,.54-.54,2,2,0,0,0,0-2.24A2.31,2.31,0,0,0,47.62,39.34Z" style="fill:#282828"/><path d="M49.62,16.34A2.05,2.05,0,0,0,48.5,16a2,2,0,0,0-1.31.5h-.65a2.5,2.5,0,0,0-2.08,1.11L42.2,21H39.72l4.11-6.5h1.36a2,2,0,0,0,1.31.5,2.05,2.05,0,0,0,1.12-.34,2.31,2.31,0,0,0,.54-.54,2,2,0,0,0,0-2.24,2.31,2.31,0,0,0-.54-.54A2.05,2.05,0,0,0,46.5,11a2,2,0,0,0-1.31.5H43.55a2.49,2.49,0,0,0-2.11,1.17L36.17,21H22v3H36.45a2.51,2.51,0,0,0,.55-.07V24h5.46a2.5,2.5,0,0,0,2.08-1.11L46.8,19.5h.39a2,2,0,0,0,1.31.5,2.05,2.05,0,0,0,1.12-.34,2.31,2.31,0,0,0,.54-.54,2,2,0,0,0,0-2.24A2.31,2.31,0,0,0,49.62,16.34Z" style="fill:#282828"/></g></g></svg>