<svg xmlns="http://www.w3.org/2000/svg" viewBox="0 0 54 54"><title>press_3-layer</title><g id="a68fba13-f37a-4aca-8026-d667f1d7ddba" data-name="Layer 2"><g id="eb1542bf-ffa6-4b98-a224-1c49979b8a4b" data-name="Working Layer"><path d="M17.06,24.1s0,.06.06.07S17.1,24.11,17.06,24.1Z" style="fill:#281e53"/><path d="M31.67,42.47a0,0,0,0,0,0,0l0,0h.06s0,0,0-.06Z" style="fill:#281e53"/><path d="M31.53,42.3a0,0,0,0,1,0,0l0,0c.06,0,.08,0,.1-.06h-.11Z" style="fill:#281e53"/><path d="M31.34,52.9s-.07,0-.06,0v0l-.09-.09s-.07,0-.11,0a.08.08,0,0,1,.08,0l-3.51-3.51v0h-.06c0-.05-.05-.05,0-.1L24,45.56h0s0,0,0,0h0l-.63-.62,0,0s0,0,0,0a0,0,0,0,1,0,0l-2.59-2.58,1.05-1.06L25,44.45h0l3,3h.12s0,0,0,0h-.08l6.25,6.26c.33,0,.66-.09,1-.15h0c.06,0,.06,0,.12,0l.78-.15-.16-.16,0,0s0-.07,0-.11L36,53.22l0,0-.06,0h0c-.05-.06-.05-.06,0-.13h0l-3.24-3.24h0a.08.08,0,0,1-.07,0s0,0,.06,0l-3.68-3.68s-.08,0-.09,0v0a.05.05,0,0,1,0,0l-5.95-6,1.05-1,7.32,7.33v0s.07,0,.08,0,0,0,0,.06l.47.48a.32.32,0,0,1,0-.17s.05,0,.07,0l.09.09a1.22,1.22,0,0,1,0,.27l2.66,2.66h0l0,0s0,0,0,0h0l3.27,3.28c.56-.17,1.12-.35,1.66-.56L32,45l0,0h-.12l-.06.06s0,0,0,0a0,0,0,0,1,0,0l.12-.12-1.35-1.36h0l-.15-.14h0L29.05,42v.07s0,0,0,0l0,0V42h0l-4-4,1-1,5.4,5.4h0v-.05l0,0a.17.17,0,0,1,.14,0s0,0,0,0h0a.24.24,0,0,1,.09.08v.09c.06,0,.08.06.06.1l0,0h-.06l.78.78h0c.08,0,.08,0,.08.07v0l1.48,1.48h0L41,51.89h0s0,0,0,0,0,0,0,0h0s0,0,0,0c.47-.22.93-.46,1.39-.72l-.69-.69h0s0,0,0,0l-.37-.37a0,0,0,0,1,0,0s0,0,0,0,0,0,0,0h0l-.57-.57h0s0,0,0,0L27.35,36h0s0,0,0,0l-.15-.16,1-1,1.7,1.71,0,0s0,0,0,.07l7.55,7.56s0-.09,0-.14v0l0,0h.19s0,0,0,0l0,0s0,.11,0,.19l0,0,1.8,1.8h0s0,0,0,0l4.11,4.12,0,0a.25.25,0,0,1,0,.08l.15.15c.45-.3.89-.61,1.32-.94L29.32,33.65l.14-.14h-.05l.11-.09h.05l.77-.77,2.7,2.7h.06l0,0,0,0h0L46.23,48.51c.4-.35.79-.71,1.17-1.09l.33-.34s0,0-.08,0,0-.06,0-.07,0,0,.06,0l0,0h0a23,23,0,0,0,4-5.85l-4.27,4.26.06,0s-.07,0-.11,0l-1,1-1-1,1.65-1.65,0,0h0l3.07-3.06,0,0a0,0,0,0,1,0,0,.06.06,0,0,1,.09,0l2.25-2.25s0,0,0,0a.11.11,0,0,1,0,0s0,0,0,0v0l0,0,0,0,0,0h0v0l.51-.51a22.7,22.7,0,0,0,.57-2.47h0s-.07,0-.06,0,0,0,0,0h0c0-.12,0-.23,0-.35l-.59.59,0,0,0,0,0,0-.75.75h.17l0,0-.08.08h-.12c0-.05,0-.05,0-.1l-8,8-1-1L54,32.67q0-.59,0-1.17t0-1.05l-.79.79a0,0,0,0,0,0,0s0,.08,0,.13,0-.05-.06-.06v0L51,33.41h0l0,0v0s-.07,0-.09,0L46,38.4h0a0,0,0,0,1,0,0,.05.05,0,0,1-.05,0l-3.74,3.73h0s0,0,0,0h0l-1-1,8.66-8.65a.08.08,0,0,1,0-.08l0,0L51.37,31v0s.06,0,.08,0l2.35-2.36c-.08-.64-.19-1.26-.32-1.87l-1.69,1.68v0s0,.07,0,.06l0,0L40.06,40.07,39,39l3.7-3.7h-.05l0,0,0,0h0s0,0,0,0h0l.13-.13a.07.07,0,0,0,0-.05l0,0h0L44,34s0,0,0-.06a.11.11,0,0,1,0-.09s0,.07,0,.1l.86-.87,0,0s0,0-.06-.06.09-.05.13,0,0,0,0,0l.94-.93a1.06,1.06,0,0,0-.11-.09l.08,0a.17.17,0,0,1,.08.06l6.24-6.24a.08.08,0,0,1,0-.12l.06.06L53,25c-.17-.55-.35-1.09-.56-1.62L41.72,34.13h.09l0,0v.17l0,0-.06-.06h-.12l0,0L40,35.82h0s0,.07,0,.1l0,0-2.05,2-1.06-1.07,4.75-4.75s0,0,0,0h0l2.73-2.74s0,0,0,0h0l7.45-7.46c-.23-.48-.48-1-.74-1.42l-5.39,5.4a0,0,0,0,1,0,0s0,0,0,0l0,0h0l-.39.4v0s0,0,0,0h0v0l-2.61,2.62h.05l0,0s0,0,0,0h-.11l-4.68,4.69s0,0,0,0v0l0,0-2.11,2.11-1.08-1.07,8.89-8.89h0l.06,0s0-.07,0-.09l0,0h0l.54-.54h0l0,0h0l6-6c-.29-.43-.58-.85-.89-1.26l-2.06,2.06s0,0,0,0h0s0,0,0,0l-2.47,2.47h0l0,0,0,0s0,0,0,0a0,0,0,0,1,0,0L42.36,24.9a.09.09,0,0,1,0,.11L42.3,25l-8.5,8.5.06,0v.06c-.06,0-.06,0-.13,0v0l-.11.11-1.08-1.08.83-.83s0,0,0,0a.71.71,0,0,1-.07-.09s0-.07,0-.1l.12.12v0l15-15c-.33-.37-.67-.74-1-1.09a22.72,22.72,0,0,0-5.93-4.25l5.09,5.08-.42.42h0l-.66.65-.94-.95h0l-.07-.09v0L41.94,14s-.07,0-.11,0v-.07l-.06,0,0,0L37.93,9.93a23.7,23.7,0,0,0-2.8-.64l1.2,1.21h.07l0,0s0,0,0,0l0,0,8,8-1.06,1.06L35.5,11.8s0,0,0,0h0L32.74,9h-.22s-.05,0-.08,0V9h-.37l0,0h0l0,0h-.5l-.95,0,2.84,2.85,0,0h0l1,1a.24.24,0,0,1,.08-.06c.07,0,.09.05.14.09V13l-.06.06,7.53,7.53h0s0,0,0,.05l.12.11-1.06,1.06L35.1,15.69s-.08,0-.1,0v0h.05L28.7,9.28h-.11s0,0,0,0h0l0,0-.4.05v0s0,0-.05,0h0l0,0c-.47.07-.93.15-1.38.25l6.64,6.65v0s0,0,0-.05,0,0,0,0a.13.13,0,0,0,.06.05v.14l4.5,4.5s0,0,0,0a.08.08,0,0,1,.08,0l.09.08s-.06,0-.1,0l2,2,0,0,0,0a0,0,0,0,1,0,0s0,0-.07,0l-1,1-4.26-4.26h0l-9.7-9.7c-.56.16-1.11.35-1.65.56l3.79,3.79s0,0,0,0,0,0,0,.05h0l1.31,1.31s.06,0,.07,0l0,0L37.94,25l-.44.44h0l-.14.14,0,0,0,0s0,0,0,0l-.44.44-3.36-3.36s0,0,0,0l0,0h0c0-.06,0-.06,0-.12a0,0,0,0,0,0,0l-9.2-9.2,0,0s-.06,0-.07,0,0,0,0-.05L22,11.12l-.95.47s0,.08,0,.11-.07.07-.09.11l-.09-.09v0l-.36.2L31.77,23.16h0s0,0,0,0,0,0,0,0l4,4-1,1L34.55,28h0s0,0,0,0l-7.11-7.12-.06.06c-.05,0-.06-.06-.09-.08v-.13h0L27,20.5a.07.07,0,0,1-.08,0,0,0,0,0,1,0,0h0L19.2,12.66q-.68.43-1.32.93l6.78,6.78.05,0,.09.09-.05,0,8.88,8.88-1,1L26.28,24h0a.07.07,0,0,1,0-.06l-6-6s0,0-.07,0h0l-.81-.81h0s0,0,0,0h0l-2.59-2.6-.37.33h0v0h0c-.26.24-.52.48-.78.74A23.28,23.28,0,0,0,12.13,20s0,0,0,.06l0,0s0,0,0,.05,0,0,0,0h0l-.07.06s0,0,0,0c-.23.4-.45.81-.66,1.22l.78-.77a0,0,0,0,1,0,0l0,0h0l4.21-4.21a.17.17,0,0,1,0-.07s0,0,0-.05l.09.09s0,.07,0,.09h0l1,1-.66.65s0,0,0,.05a.07.07,0,0,1-.08,0l-2.85,2.85v0H14s0,.06,0,.12-.07-.06-.09-.12h0l-1.74,1.74a0,0,0,0,1,.05,0l0,0v0a.06.06,0,0,1-.1,0h0L10,25c-.1.35-.2.71-.29,1.07h0s0,0,0,.06,0,0,0,.05h0l0,0,0,0,0,0a0,0,0,0,1,0,0s0,0,0-.05h-.1c-.13.55-.25,1.11-.34,1.68l3.08-3.08s0,0,0,0h0l6.14-6.14,1.07,1.06-4.55,4.55v0h0L13.45,25.8h0s0,0,0,0h0L9,30.21c0,.43,0,.86,0,1.29s0,.61,0,.91l7-7a0,0,0,0,1,0,0,.11.11,0,0,1,0-.05s0,0,0,0v0s0,0,0,0l0,0s0,0,0,0h0v0l4.67-4.67,1.05,1.06-3.69,3.69s0,0,0,.06a.08.08,0,0,1,0,.07.07.07,0,0,1,0-.07l-4.82,4.82s0,0,0,0,0,0,0,0,0,0,0,0l-4,4c.05.41.12.81.19,1.21h0l0,0s0,0,0,0l0,0,.12.61L22.86,22.88l1.05,1-4.27,4.27s0,0,0,0l0,0s0,0,0,0-.06,0-.08,0L17,30.83h.07s0,0,0,0a.06.06,0,0,1,0,.07A.2.2,0,0,0,17,31L17,30.94a.08.08,0,0,1,0,0l-3.62,3.61a0,0,0,0,1,0,0s0,0-.05,0l-3,3h0l0,0s0,0,0,0-.06,0-.08,0l-.31.31L10,38l.1-.1h.13s0,.05,0,.08l-.07.07v.06c0,.05-.09,0-.14,0v0l.12.38a0,0,0,0,1,0,0h0s0,0,0,0,.09.27.14.4h0s0,0,.05,0,0,0,0,.05,0,0,0,0,0,0,0,0c.06.17.12.35.19.52l6.4-6.41s0,0,0,0,0,0,0,0h0l2.55-2.55-.08-.08.08,0s.05,0,.06.05l1.2-1.2h0s0,0,0,0h0l1.47-1.46-.06-.07s0,0,0-.05h.12l0,0L25,25l1,1L21.17,31s0,.05,0,.11H21.1l0,0-1.23,1.23s0,0,0,0v0s0,0,0,0l-.8.8h0a0,0,0,0,1,0,0l0,0s0,0-.07,0l-.05.07,0,0-.57.57a0,0,0,0,1,0,0l0,0s0,0,0,0a.06.06,0,0,1-.1,0h0L11.11,41c.23.51.48,1,.75,1.48l.77-.76v0h0s0,0,0,0l5.55-5.55h0s0,0,0,0h0L19.35,35h0s0,0,.05,0l7.78-7.78,1,1-.87.87a.05.05,0,0,1,0,0s0,0-.06,0h0L20.4,36h0l-.05,0-5.51,5.52,0,0s-.05,0-.09,0h0l-2.16,2.16q.43.67.93,1.32L20.66,38h0s0,0,0,0l8.63-8.63,1,1-.28.29h0l0,0s0,0,0,0-.08,0-.1,0h0l-2.37,2.37s0,0,0,0l0,0h0L25.73,35l0,0v.06l-.15.15h-.1l-1.69,1.69h0s0,0,0,0h0l-.87.87s0,0,.08,0v.06c0,.05,0,.05-.11,0v0l-.27.26s0,0,0,0,0,0,0,0,0,0,0,0l-1.71,1.72,0,0,0,0,.07-.05H21l.07-.06c.05,0,0,.09,0,.14s0,0-.05,0H21a.14.14,0,0,1-.16,0s0,0-.05,0a.27.27,0,0,0,0-.09h0l-.62.62h0a.06.06,0,0,1,0,.1h0s0-.05,0-.07l-1.39,1.38s0,.05,0,.08,0,0,0,0l-2.85,2.85s0,0,0,0v0s0,0,0,0l-1.38,1.38c.35.4.72.8,1.1,1.18a22.12,22.12,0,0,0,3.25,2.69h0l0,0a22.7,22.7,0,0,0,2.62,1.53l-2.82-2.81h-.12l0,0,.06-.06-2.07-2.07s-.07,0-.08,0v0l0,0,0,0,1.07-1.07,3.09,3.09h0l.06,0,0,0,2.64,2.64,0,0a.1.1,0,0,1,0,.1L24,52h0l0,0,0,0s0,0,0,0h0l1,1a22.44,22.44,0,0,0,2.81.65l-7.45-7.45-.05,0,0,0s0,0,0-.05l0,0-1.77-1.77,1.07-1.07,5.12,5.12a0,0,0,0,0,0,0,.07.07,0,0,1,.11,0s0,0,0,.07l.05.07-.06,0L30.23,54c.42,0,.84,0,1.27,0l.92,0-1.07-1.07Zm1.23-1s0,0,0,0h0s0,0,0,0Zm1.28.34-.08.08s0,0,0,0a.88.88,0,0,1,0-.23s0,0,0,0v0a.13.13,0,0,1,0,.06l.05.05Zm.63,1.34v0s0,0,0,0,0,0,0,0S34.51,53.61,34.48,53.62Zm.05-.12v0s0,0,0,0h0S34.55,53.5,34.53,53.5Zm.8-.42h.18s0,.05.06.06,0,0,0,0a.06.06,0,0,1,0,0h0l-.07-.05h-.11l0,0Zm-.84-1.24h0s0,0,0,0h0S34.48,51.83,34.49,51.84Zm0,.29c.05,0,0,.06,0,.08l.06.07-.1,0-.06,0h-.06l0-.06A.86.86,0,0,1,34.48,52.13Zm-.19,1.22v0s0,0,0,0l0,0S34.28,53.36,34.29,53.35Zm-.11-1.29a.08.08,0,0,1,0,.13A.09.09,0,0,1,34.18,52.06ZM34,52l.06.06s0,.06,0,.12H34l0,0S34,52,34,52Zm-.09-.08s0,0,0,0l0,0s0,0,0,0S33.9,51.94,33.92,51.92Zm-.05,0s0,0,0,0,0,0,0,0v0h0S33.86,52,33.87,52Zm-.26-.52s0,0,.08,0,0,0,.07,0a.07.07,0,0,1,.1,0v.13a.56.56,0,0,1-.22,0S33.62,51.46,33.61,51.44Zm-.1.89v0s0,0,0,0v0S33.5,52.34,33.51,52.33Zm0-.18,0,0h0a.06.06,0,0,1,0-.1h0v0A0,0,0,0,1,33.49,52.15ZM33.35,51a.4.4,0,0,1,.11,0l0,0-.09.09L33.33,51S33.32,51,33.35,51Zm-.5-.4s0,0,0,0,0,0,0,0h0S32.84,50.6,32.85,50.59Zm0,1.67h0s0,0,0,0h0S32.86,52.25,32.87,52.26Zm-.08-1.85v0s0,0,0,0h0S32.78,50.42,32.79,50.41Zm-.34.58,0-.06h.06s0,0,0,.09l0,0a.17.17,0,0,1-.14,0s0,0,0,0Zm-.05-.05s0,0,0,0,0,0,0,0h0v0S32.38,50.93,32.4,50.94ZM32.25,50s0,0,0,0,0,0,0,0v0S32.24,50,32.25,50Zm-.3.9v0s0,0,0,0v0S31.94,50.9,32,50.89Zm-.06-1.62s0,0,0,0,0,0,0,0v0S31.88,49.28,31.89,49.27Zm-.13.89h0s0,0,0,0v0S31.76,50.18,31.76,50.16Zm0-1.16a.09.09,0,0,1,0,.13A.08.08,0,0,1,31.73,49Zm-.44,1.35v0s0,0,0,0l0,0S31.28,50.36,31.29,50.35Zm-.06-1.26s0,0,0,0,0,0,0,0l0,0S31.22,49.1,31.23,49.09Zm-.95.1h.06c.05.05.05.05,0,.11h-.06S30.25,49.25,30.28,49.19Zm-.07.24s0,0,0,0h0s0,0,0,0ZM29.67,47s0,0,0,0,0,0,0,0h0S29.66,47,29.67,47Zm0,.18s0,0,0,0,0,0,0,0v0S29.66,47.18,29.67,47.17Zm-.6-.3v0s0,0,0,0v0S29.06,46.88,29.07,46.87ZM29,48.24l0,0h.09a.08.08,0,0,1,0,.12h-.07s0,0-.06-.06S29,48.26,29,48.24Zm-.54-2.15s0,0,0,0,0,0,0,0h0S28.46,46.1,28.47,46.09Zm-.6.66a.29.29,0,0,1,.07-.08s0,0,.06,0h0a0,0,0,0,1,0,0l-.14.15S27.84,46.78,27.87,46.75Zm-.16-.26,0,0s0,0,0,0h0S27.7,46.49,27.71,46.49Zm-.09.32s0,0,0,0a.06.06,0,0,1,0,.05,0,0,0,0,0,0,0s-.07,0-.12,0S27.6,46.84,27.62,46.81Zm-.33-1.11a.09.09,0,0,1,0,.13C27.24,45.78,27.24,45.75,27.29,45.7Zm-.24.08h0s0,0,0,0h0S27,45.77,27.05,45.78Zm-.42-.54h0s0,0,0,0h0S26.62,45.23,26.63,45.24Zm-.08.61v0s0,0,0,0l0,0S26.54,45.86,26.55,45.85Zm-.1-.85h0s0,0,0,0v0S26.44,45,26.45,45Zm-.72-1.33v0s0,0,0,0v0S25.7,43.68,25.73,43.67Zm-.24,1v0s0,0,0,0v0S25.46,44.7,25.49,44.69Zm-1.16-2.08,0,0s0,0,0,0,0,0,0,0S24.32,42.62,24.33,42.61Zm-.12.72s0,0,0,0,0,0,0,0l0,0S24.2,43.34,24.21,43.33ZM24.13,42l0,0h0c0,.06,0,.06,0,.12s-.06,0-.07,0S24.11,42,24.13,42Zm-.38.45h0s0,0,0,0,0,0-.06,0h0l0,0Zm-.24-.35h0s0,0,0,0h0S23.5,42.11,23.51,42.12Zm-.24.48h0s0,0,0,0h0S23.26,42.59,23.27,42.6Zm-.12-1.75,0,0s0,0,0,0v0S23.12,40.86,23.15,40.85Zm-.2.8s0,0,0,0,0,0,0,0l0,0S22.94,41.66,23,41.65Zm-.06.54v0s0,0,0,0v0S22.88,42.2,22.89,42.19Zm-.52-.5s0,0-.06.06,0-.09,0-.13.05,0,.07,0S22.38,41.67,22.37,41.69Zm.11-.79v0s0,0,0,0l0,0S22.51,40.89,22.48,40.9Zm0-.32s0,0,0,0,0,0,0,0h0S22.51,40.57,22.5,40.58Zm.31.48a.06.06,0,0,1-.1,0,0,0,0,0,1,0,0s.08,0,.1,0A0,0,0,0,1,22.81,41.06Zm15.4,11.07a.08.08,0,0,1,0,.12l-.09-.09S38.17,52.13,38.21,52.13ZM38,51.2s0,0,0,0l.09.09-.07.05s0,0,0,.06,0,0,0,0A1,1,0,0,1,38,51.2Zm0,1.41,0,0s0,0,0,0h0S38,52.61,38,52.61Zm0,.31h0a.06.06,0,0,1,0,.1h0A.06.06,0,0,1,38,52.92Zm-2.27-2.25h0s0,0,0,0l0,0S35.69,50.68,35.68,50.67ZM36.88,52l0,0s0,0,0,0,0,0,0,0S36.91,52,36.88,52Zm.25-.35v0s0,0,0,0v0S37.1,51.66,37.13,51.65ZM37,50.05a.08.08,0,0,1-.13,0A.09.09,0,0,1,37,50.05Zm-.28,1.29.09.09s0,0-.09,0A.08.08,0,0,1,36.7,51.34Zm-.25-1.77v0s0,0,0,0,0,0,0,0S36.44,49.58,36.45,49.57Zm.11,1.2c-.05,0-.08,0-.13,0A.09.09,0,0,1,36.56,50.77Zm-.33-.26h0s0,0,0,0v0S36.2,50.52,36.23,50.51Zm-.44-1.3v0s0,0,0,0v0S35.78,49.22,35.79,49.21Zm0,.24s0,0,0,0,0,0,0,0,0,0,0,0S35.78,49.46,35.79,49.45Zm0-.12a0,0,0,0,1,0,0s-.08,0-.1,0a0,0,0,0,1,0,0h0a0,0,0,0,1,.05,0Zm-.22-.43h.1a0,0,0,0,1,0,0l0,0,0,0,0,0h0s0,.07-.09,0a0,0,0,0,1,0,0Zm-.12.08-.08,0c-.06,0-.08-.07-.13-.1l.08,0C35.36,48.9,35.38,49,35.43,49Zm-.25-.42s0,0,0,0l0,0,0,0S35.16,48.58,35.18,48.56Zm0,0s0,0,0,0,0,0,0,0v0h0S35.12,48.62,35.13,48.6ZM35,48l0,0s0,0,0,0v0S35,48,35,48Zm-.26.2s0,0,0,0,0,0,0,0v0S34.76,48.2,34.77,48.19Zm-.06.6s0,0,0,0,0,0,0,0h0S34.7,48.8,34.71,48.79Zm0-1h0s0,0,0,0,0,0,0,0S34.64,47.76,34.67,47.75Zm0,.42,0,0s0,0,0,0v0S34.64,48.18,34.67,48.17ZM32,45.68c-.05,0,0,.11-.07.15l-.09-.09c0-.05.06-.06.08-.09H32S32.06,45.68,32,45.68ZM32.67,47v0s0,0,0,0h0S32.69,47,32.67,47Zm0-.15a0,0,0,0,1,0,0h0s0,0,0,0,0,0,0,0S32.72,46.86,32.71,46.87Zm.11,0h-.1c0-.06,0-.08.09-.06a0,0,0,0,1,0,0Zm1.66,2.31s0,0,0,0h0s0,0,0,0Zm-.2-1.31a.08.08,0,0,1-.13,0A.09.09,0,0,1,34.28,47.83Zm-.34.87s.08,0,.09,0l-.09.09S33.91,48.75,33.94,48.7Zm-.12-.34s0,0,0,0h0s0,0,0,0Zm0-1.6a.09.09,0,0,1-.13,0A.08.08,0,0,1,33.8,46.76Zm-.21.16h0s0,0,0,0h0S33.58,46.91,33.59,46.92Zm0,1c0,.06-.09,0-.15,0l0,0a0,0,0,0,1-.05,0s0,0,0,0,0-.1,0-.14l.07,0h0l.07,0Zm-.15-.32a.05.05,0,0,1,0,.09.34.34,0,0,1-.08.09h-.06l-.09-.09s0-.06,0-.07,0,0,.06,0l.07,0ZM33.31,47s0,0-.07,0,0,0-.06,0,0,0,0,0,0,0,0-.06l.08-.07S33.28,47,33.31,47Zm-.1-.49s0,0,0,0,0,0,0,0l0,0S33.2,46.52,33.21,46.51Zm-.09-.25s0,0,0,0h0s0,0,0,0l0,0s0,0,0,0v0h-.05C33.08,46.26,33.09,46.24,33.12,46.26Zm-.09.06s0,0,0,0,0,0,0,0a0,0,0,0,1,0,0h0S33,46.34,33,46.32Zm-.13,1.39s0,0,.05,0h0l0,0,0,0h0S32.89,47.73,32.9,47.71Zm-.25-1.37s0,0,.05,0a.06.06,0,0,1,.07,0l.07.07-.09.08s-.06-.07-.1-.08Zm0,1.37v0s0,0,0,0h0S32.6,47.72,32.61,47.71Zm-.09-1.64v0s0,0,0,0h0S32.5,46.07,32.52,46.07Zm-.18,1s0,0,0,0,0,0,0,0,0,0,0,0S32.35,47.11,32.34,47.12Zm0-.48s-.08,0-.1,0v0s.08,0,.1,0Zm-.08-.33s0,0,0,0,0,0,0,0,0,.07,0,.06,0,0,0-.05,0,0,0,0S32.26,46.31,32.27,46.31Zm-.38-1c.07,0,.14,0,.2,0l.06-.05.09.08v.08h-.33s0-.05,0-.08Zm-.09-.24h0s0,0,0,0h0S31.78,45.11,31.8,45.12Zm-1-.08s0,0,0-.06,0,0,0,0l0,0s0,0,0,0a0,0,0,0,1,0,0S30.8,45,30.77,45Zm0-.5s0,0,0,0h0s0,0,0,0Zm.92,1.23s.08,0,.09,0l-.09.08C31.62,45.83,31.62,45.83,31.66,45.77Zm-.16.52h0s0-.08,0-.1,0,0,0,0S31.53,46.27,31.5,46.29Zm-.1-1.37c.06,0,.08.07.12.1v0a.07.07,0,0,1-.1,0L31.27,45C31.31,44.9,31.36,44.94,31.4,44.92Zm-.18,1.23s.08,0,.1,0v0a.06.06,0,0,1-.1,0Zm-.29-2a0,0,0,0,1,0,0s0,0,0,0v0S30.92,44.18,30.93,44.17Zm0,1.25s0,0,0,0,0,0,0,0l.06,0s0,.05,0,.06,0,0,0,0-.1,0-.14-.07v-.07s0,0,.05-.05S30.88,45.41,30.9,45.42Zm-.16-1.3s.05,0,.11,0-.06.07-.11.09Zm0,.1s0,0,0,0,0,0,0,0a0,0,0,0,1,0,0h0S30.68,44.24,30.69,44.22Zm-.22.23s0,0,0,0,0,0,0,0h0S30.44,44.46,30.47,44.45Zm0,1a.08.08,0,0,1-.13,0A.09.09,0,0,1,30.5,45.43Zm-.35-1.56v0s0,0,0,0v0S30.14,43.88,30.15,43.87Zm0,.7,0,0s0,0,0,0,0,.07,0,.06,0,0,0,0,0,0,0,0S30.1,44.57,30.11,44.57Zm-.06-.23,0,0s0,0,0,0h0S30,44.33,30.05,44.34ZM30,45s0,0,0,0,0,0,0,0h0S30,45,30,45Zm-.28-.74s0,0,0,0,0,0,0,0h0S29.66,44.28,29.69,44.27ZM29,42.33l.14.15s0,0,0,0,0,0,0,0h0L29,42.45l0,0ZM29,43v0s.09,0,.15,0,0,.1,0,.12h-.06s0,0-.06,0S29,43.06,29,43Zm-.05,0s0,0,0,0,0,0,0,0v0h0S28.94,43.1,29,43.08Zm0,.3h0s0,0,0,0v0S29,43.37,29,43.38Zm-.14-1.25s0,0,0,0,0,0,0,0,0,0,0,0S28.82,42.14,28.83,42.13Zm-.24.11s0,0,0,0h0s0,0,0,0Zm0,.59,0,0s0,0,0,0v0S28.52,42.84,28.55,42.83Zm-.1-.69,0,0s0,0,0,0a0,0,0,0,0,0,0c-.05,0-.05,0-.11,0Zm-.32-.7s.06,0,.07,0,0,0,0,.06l0,0h0C28.08,41.5,28.08,41.5,28.13,41.44Zm-.62-.88h0s0,.08,0,.1h0S27.48,40.58,27.51,40.56ZM27,40.18s.06,0,.07,0,0,0,0,.06l0,0h0C27,40.24,27,40.24,27,40.18ZM26.45,40h0s0,0,0,0h0S26.44,40,26.45,40Zm-.26,1.27s0,0,0,0,0,0,0,0l0,0S26.18,41.3,26.19,41.29Zm-.1-1.39,0,0s0,0,0,0h0S26.08,39.89,26.09,39.9Zm-.54-.78h0s0,0,0,0h0S25.54,39.11,25.55,39.12Zm-.08.37s0,0,0,0,0,0,0,0l0,0S25.46,39.5,25.47,39.49Zm-.3.29s0,0,0,0,0,0,0,0,.05.08,0,.13,0,0-.06-.06S25.16,39.8,25.17,39.78ZM41.6,50.35a.06.06,0,0,1,.1,0v0s-.08,0-.1,0Zm0,1.06s0,.08,0,.1h0a.06.06,0,0,1,0-.1S41.57,51.42,41.57,51.41Zm-.14-.12s.08,0,.11,0a.31.31,0,0,1-.09.07,0,0,0,0,1-.05,0l0,0C41.36,51.29,41.36,51.29,41.43,51.29Zm-.28.31a.71.71,0,0,1,.09.07s-.07,0-.1,0a.71.71,0,0,1-.09-.07S41.12,51.57,41.15,51.6Zm-.43-.67s0,0,0,0h0s0,0,0,0Zm-.35-.11h0s0,0,0,0h0S40.36,50.81,40.37,50.82ZM40.25,49h0s0,0,0,0h0S40.24,49,40.25,49Zm-.06.35,0,0s0,0,0,0h0S40.18,49.37,40.19,49.37Zm0,1.43a.08.08,0,0,1,0,.13A.09.09,0,0,1,40.18,50.8Zm-.24-1.66s0,0,0,0h0s0,0,0,0Zm-.49-.3h0s0,0,0,0v0S39.44,48.86,39.45,48.84Zm-.31-.78h0s0,0,0,0,0,0,0,0S39.14,48.08,39.14,48.06Zm0,.27v0c0-.05,0-.1,0-.14l.06,0c.05,0,0-.06,0-.09s0,0,.05,0v0l0,0,0,0,0,0h0v.15l-.14.14h-.05s0,0,0,0Zm-.31-.15h0s0,0,0,0h0S38.8,48.17,38.81,48.18Zm-.43-1s0,0,0,0h0s0,0,0,0ZM38.31,47s0,0,0,0h0s0,0,0,0Zm-.1.36h0s0,0,0,0v0S38.18,47.34,38.21,47.33Zm-.26.73H38l0,0s0,0,0,0-.08,0-.1,0Zm-.52-1.51v0s0,0,0,0l0,0S37.4,46.56,37.43,46.55Zm-.22,1.23-.08.08s-.06-.06-.1-.08l.09-.1C37.22,47.69,37.22,47.69,37.21,47.78Zm-.14-1.71s0,0,0,0,0,0,0,0h0S37,46.08,37.07,46.07Zm-.09,1a.06.06,0,0,1,.1,0,0,0,0,0,1,0,0,.06.06,0,0,1-.1,0A0,0,0,0,1,37,47.05Zm-.17-.78s0,0,0,0,0,0,0,0h0S36.8,46.28,36.81,46.27Zm-.1.88h0s0,0,0,0,0,0-.06,0h0l0,0S36.69,47.16,36.71,47.15Zm-.21-1.48s0,0,0,0h0s0,0,0,0l0,0h0S36.49,45.69,36.5,45.67Zm0,.54,0,0s0,0,0,0v0S36.44,46.22,36.45,46.21ZM36.29,46h0s0,0,0,0v0S36.28,46,36.29,46Zm0,.3h0s0,0,0,0v0S36.28,46.25,36.29,46.26Zm0-.11a.08.08,0,0,1-.13,0A.09.09,0,0,1,36.26,46.15Zm-.69-1.94v0s0,0,0,0l0,0S35.54,44.22,35.57,44.21Zm-.15.56s.08,0,.1,0,0,0,0,0-.08,0-.1,0Zm0,1.24h.06l.08.09,0,0s0,0-.05,0L35.42,46S35.44,46,35.45,46Zm-.2-.16v0s0,0,0,0v0S35.24,45.86,35.25,45.85Zm-.12-1.62v0s0,0,0,0v0S35.12,44.24,35.13,44.23Zm-.22.7s0,0,0,0,0,0,0,0l0,0S34.88,44.94,34.91,44.93Zm0,.7s0,0,0,0H35s0,.06,0,.1a.07.07,0,0,1,0,.07.34.34,0,0,0-.06-.06A.06.06,0,0,1,34.88,45.63ZM34.59,45h0a.06.06,0,0,1,0,.1h0A.06.06,0,0,1,34.59,45Zm-.34-.73,0,0s0,0,0,0h0S34.24,44.27,34.25,44.27Zm-.82-1.53,0,0s0,0,0,0v0S33.43,42.73,33.43,42.74Zm.32,1.19v0s0,0,0,0,0,0,0,0S33.74,43.94,33.75,43.93Zm-.07-1,0,0,0,0s0,0,0,0,0,0,0,.05,0,0,0-.06S33.67,43,33.68,43Zm0,.26a.08.08,0,0,1,0,.13A.09.09,0,0,1,33.64,43.24Zm-.23-.64h0s0,0,0,0h0S33.4,42.59,33.41,42.6Zm-.12.16s0,0,0-.06,0,0,0,0l0,0,0,0a0,0,0,0,1,0,0S33.32,42.75,33.29,42.76Zm0-.84s0,.08,0,.13-.08,0-.09,0Zm-.6,0h0s0,0,0,0,0,0,0,0S32.66,41.94,32.69,41.93Zm0,.25h0s0,0,0,0v0S32.68,42.17,32.69,42.18Zm-.06.83h0s0,0,0,0v0S32.6,43,32.63,43Zm-.16-.7.06.06s0,0,0,.06v0h0l-.15-.14C32.42,42.27,32.43,42.27,32.47,42.31ZM32.36,42s0,0,0,0l0,0,0,0S32.34,42,32.36,42Zm0,0s0,0,0,0,0,0,0,0v0h0S32.3,42.08,32.31,42.06Zm-.17.82s0,0,.07.07,0,0,0,0a.06.06,0,0,1,0,0h0S32.11,42.93,32.14,42.88Zm-.35-2a.14.14,0,0,1,.11,0l0,0-.09.09s-.06,0-.07,0A.06.06,0,0,1,31.79,40.85Zm-.13-.43a.08.08,0,0,1,0,.13A.09.09,0,0,1,31.66,40.42Zm-2.68-1v0s0,0,0,0v0S29,39.37,29,39.38Zm2.25,2.15v0s0,0,0,0l0,0S31.22,41.54,31.23,41.53Zm-1.06-2.59h0s0,0,0,0h0S30.16,38.93,30.17,38.94Zm-.12.29v0s0,0,0,0,0,0,0,0S30,39.24,30.05,39.23Zm-1-.85s0,0,.06-.06.05.09,0,.13-.05,0-.07,0S29.07,38.4,29.08,38.38ZM29,37.86h0s0,0,0,0v0S29,37.85,29,37.86Zm0,.66h0s0,0,0,0h0S29,38.51,29,38.52Zm0,.66h0s0,0,0,0h0S29,39.17,29,39.18Zm-.39-.66h.07l0,0s0,0,0,0a.06.06,0,0,1-.1,0Zm-.18.07s0,0,0,0,0,0,0,0l0,0S28.4,38.6,28.41,38.59ZM27.29,37h0s0,0,0,0h0S27.28,37,27.29,37ZM41.5,47h0s0,0,0,0,0,0,0,0S41.53,47,41.5,47Zm.49.06s0,0,0,0,0,0,0,0,0,0,0,0Zm2.06,2.56,0,0s0,0,0,0-.07,0-.06,0,0,0,.05,0h0S44.05,49.63,44.05,49.64Zm.63-.27h0v0a0,0,0,0,1,0,.05l0,0h0A.06.06,0,0,1,44.68,49.37Zm-.5-.29h0s0,0,0,0,0,0,0,0S44.18,49.1,44.18,49.08Zm-.24,0c.06,0,.06,0,.12,0v.06c-.07,0-.07,0-.12,0Zm-.18.36s0,0,.05,0h0l0,0,0,0h0S43.75,49.41,43.76,49.39Zm0,.16v0s0,0,0,0l0,0S43.7,49.56,43.73,49.55Zm0,.62s0,0,0,0,0,0,0,0v0S43.7,50.18,43.71,50.17Zm-.1-1.52h0s0,0,0,0,0,0-.06,0h0l0,0Zm0,1s0,0,0,0h0s0,0,0,0Zm-.1-.25v0s0,0,0,0l0,0S43.46,49.38,43.49,49.37Zm0,.12s0,0,0,0,0,0,0,0h0S43.46,49.5,43.49,49.49Zm-.26-1.3s0,0,0,0,0,0,0,0v0S43.22,48.2,43.23,48.19Zm-.1-.38h0s0,0,0,0v0S43.1,47.82,43.13,47.81Zm0,1.58v0s0,0,0,0l0,0S43.1,49.4,43.11,49.39Zm-.22-.85a0,0,0,0,1,0,0s0,0,0,0h0S42.88,48.53,42.89,48.54Zm-.24.6h0s0,0,0,0h0S42.64,49.13,42.65,49.14ZM42.15,48s.05,0,.07,0l0,0,0,0a.07.07,0,0,1,0,.05s0,0,0,0l-.09-.08S42.12,48,42.15,48Zm-.07-1.13a.08.08,0,0,1-.13,0A.09.09,0,0,1,42.08,46.87Zm-.14.11s0,0,0,0h0v0S41.92,47,41.94,47Zm-.27-.66h0a0,0,0,0,1,.05,0l0,0a0,0,0,0,1,0,0s-.08,0-.1,0A0,0,0,0,1,41.67,46.32Zm-.05.88.07.06s.05,0,.07,0,0,0,0,0,0,0-.06.06h-.12c-.06,0,0-.11,0-.16S41.59,47.21,41.62,47.2Zm-.26-.87.06-.06a.06.06,0,0,1,.07,0s0,0,0,0v.12l-.08.08-.09-.08Zm0,.6v0s0,0,0,0,0,0,0,0S41.3,46.94,41.31,46.93Zm-.22-1.16h0s0,0,0,0,0,0,0,0S41.06,45.78,41.09,45.77Zm-.48-.12s0,0,0,0,0,0,0,0l0,0S40.58,45.66,40.61,45.65Zm-.43-.89s0,0,0,0h0s0,0,0,0Zm-.06.7a.08.08,0,0,1,0,.13A.09.09,0,0,1,40.12,45.46Zm-.7-1.55v0s0,0,0,0h0S39.4,43.91,39.42,43.91Zm-.37-.06v0s0,0,0,0v0S39,43.86,39.05,43.85Zm-.08.24s0,0,0,0h0s0,0,0,0Zm-.27-.72v0s0,0,0,0h0S38.68,43.37,38.7,43.37Zm0,.21a0,0,0,0,1,0,0l0,0a0,0,0,0,1,0,.05l.07.07v0c-.06,0-.06,0-.12,0A1,1,0,0,1,38.66,43.58Zm-.16.08a.08.08,0,0,1,0,.13A.09.09,0,0,1,38.5,43.66Zm-.12,0s0,0,0,0h0s0,0,0,0Zm-.06.88.09.09,0,0h-.23a.08.08,0,0,1,0-.11C38.19,44.55,38.26,44.57,38.32,44.56Zm-.26-2s0,0,0,0,.09,0,.09.08,0,.08,0,.11a.31.31,0,0,1-.07-.09A0,0,0,0,1,38.06,42.57Zm-2.46-.8,0,0h0c0-.06,0-.06,0-.12s.06,0,.07,0S35.62,41.75,35.6,41.77ZM37,43.11h0a.41.41,0,0,1-.11,0h0s0,0,0,0H37S37,43.09,37,43.11Zm0-1.06,0,0s0,0,0,0,0,0,0,0S37,42.06,37,42.05Zm-.11.24h.15l.11.09-.15.15s0-.09-.07-.12a.6.6,0,0,1-.08-.08S36.88,42.29,36.9,42.29Zm-.07-.36,0,0s0,0,0,0,0,0,0,0S36.8,41.94,36.83,41.93Zm-.19-.73s.07,0,.08,0,0,0,0,.06l0,0h0A.08.08,0,0,1,36.64,41.2Zm-.17.72h-.06c0-.05,0-.05,0-.11h.06S36.51,41.86,36.47,41.92Zm-.15-.39a.06.06,0,0,1,.1,0s0,0,0,0-.08,0-.1,0Zm-.79-1v0s.07-.05.1,0a.2.2,0,0,1,.08.08v.06l.05.06-.09.08h-.06l-.14-.14Zm-.52.84v0s0,0,0,0,0,0,0,0S35,41.42,35,41.41Zm-2.08-3.62h0s0,0,0,0v0S32.9,37.8,32.93,37.79Zm-.18.83s0,0,.07,0,0,0,0,0,0,0-.06.06S32.7,38.66,32.75,38.62Zm-.13-.11s0,0,0,0h0s0,0,0,0Zm-.06-.41s0,0,0,0h0s0,0,0,0Zm-.07.31v0s0,0,0,0l0,0S32.48,38.42,32.49,38.41Zm-.24.24s0,0,0,0,0,0,0,0v0S32.24,38.66,32.25,38.65Zm-.3-.43H32l0,0a0,0,0,0,1,0,0s-.08,0-.1,0A0,0,0,0,1,32,38.22Zm-.28-.67h0s0,0,0,0,0,0,0,0S31.64,37.56,31.67,37.55Zm-.51-.63s0,0,0,0l0,0s0,0,0,0S31.14,36.94,31.16,36.92Zm-.05,0s0,0,0,0,0,0,0,0v0h0S31.1,37,31.11,37ZM30.8,35.9l0,0,0,0,0,0S30.78,35.92,30.8,35.9Zm-.05,0s0,0,0,0,0,0,0,0v0h0S30.74,36,30.75,35.94Zm-.13.37c-.05,0-.08,0-.13,0A.09.09,0,0,1,30.62,36.31Zm-.23.3s0,0,0,0,0,0,0,0l0,0S30.38,36.62,30.39,36.61Zm-.18-1.75h0s0,.08,0,.1h0A.06.06,0,0,1,30.21,34.86Zm-.34.65h0s0,0,.05,0,0,0-.06,0h0l0,0Zm-.48-.35h0s0,0,0,0h0S29.38,35.15,29.39,35.16Zm20.49,8.59s.08,0,.1,0v0s-.08,0-.1,0ZM49.23,45s0,0,0,0,0,0,0,0l0,0S49.22,45,49.23,45ZM49,44.09s0,0,0,0,0,0,0,0h0S48.92,44.1,49,44.09Zm-.2,1.28v0s0,0,0,0v0S48.74,45.38,48.75,45.37Zm-.3.36,0,0s0,0,0,0,0,0,0,0S48.44,45.74,48.45,45.73ZM48,45.29s0,0,0,0,0,0,0,0l0,0S48,45.3,48,45.29Zm-.06.72v0s0,0,0,0v0S47.9,46,47.93,46Zm-.84.24s0,0,0,0,0,0,0,0h0S47.06,46.26,47.09,46.25Zm-.49,1,0,0s0,0,0,0v0S46.63,47.25,46.6,47.26Zm-.19-.09s0,0,0,0,0,0,0,0h0S46.4,47.18,46.41,47.17Zm-.19-.71,0,0,0,0a0,0,0,0,1,0,0s0,0,0,0,0,0,0-.06S46.21,46.46,46.22,46.46Zm0,2v0s0,0,0,0h0S46.16,48.44,46.17,48.43Zm-.12-1.63h.07l0,0s0,0,0,0a.06.06,0,0,1-.1,0Zm-.11.94.09.09A1,1,0,0,1,46,48a.08.08,0,0,1,0,0s0,0,0-.07,0,0,0-.07S45.91,47.79,45.94,47.74Zm-.37-.94h.13l0,0s0,0,0,.05h-.11S45.56,46.82,45.57,46.8Zm0,.73v0s0,0,0,0h0S45.56,47.54,45.57,47.53Zm-.06-.18v0s0,0,0,0h0S45.5,47.36,45.51,47.35Zm7.71-10.3h-.1c0-.05,0-.07.09-.05l0,0Zm0-.23s0,0,0,0,0,0,0,0h0S53.29,36.81,53.26,36.82Zm0-.24h0l0,0,0,0,0,0a0,0,0,0,1,0,0h-.11s0,0-.06,0,0,0,0,0l.06-.05S53.3,36.53,53.3,36.58Zm-.23-.7s0,0,.06,0l0,0v0s-.08,0-.12,0S53,35.89,53.07,35.88Zm-.13.61s0,0,.05,0h0s0,0,0,0l0,0h0S52.93,36.51,52.94,36.49Zm0,.61L53,37s0,.06.1.06v.09l-.09.08a.08.08,0,0,1-.08,0,.08.08,0,0,1,0,0A.25.25,0,0,0,52.94,37.1Zm-.11-.37v0s0,0,0,0,0,0,0,0S52.82,36.74,52.83,36.73Zm0,1.18H53l0,0-.09.08-.1-.08Zm-.37-1.32s0,0,0,0h0s0,0,0,0Zm-.13.19h0s0,0,0,0,0,0,0,0S52.34,36.8,52.34,36.78Zm0,1.67v0s0,0,0,0,0,0,0,0S52.34,38.46,52.37,38.45ZM45.08,46.3a0,0,0,0,0,0,0c0,.05,0,.05-.11,0l0-.06,0,0S45.08,46.28,45.08,46.3Zm.34.4v0s0,0,0,0,0,0,0,0S45.43,46.69,45.42,46.7Zm0-.84v0s0,0,0,0v0S45.43,45.85,45.42,45.86Zm1-1.79h0s0,0,0,0h0S46.43,44.08,46.41,44.07Zm.2-.6s0,0,0,0v0s0,0,0,0Zm5.67-5.35,0,0,0,0s0,0,0,0S52.26,38.14,52.28,38.12Zm-.05,0s0,0,0,0,0,0,0,0v0h0S52.22,38.18,52.23,38.16Zm-.16.1s0,0,0,0h0s0,0,0,0ZM52,36.9h.07l0,0s0,0,0,0-.08,0-.1,0A0,0,0,0,1,52,36.9Zm-.24.31v0s0,0,0,0v0S51.74,37.22,51.75,37.21Zm0,1.61s0,0,0,0,0,0,.06.06-.09,0-.13,0S51.72,38.84,51.75,38.82Zm-.41-.73s0,0,0,.09a.07.07,0,0,1-.12,0ZM51.11,38v0s0,0,0,0l0,0S51.08,38,51.11,38ZM51,39s0,0,.05,0,0,0,.06.06-.09,0-.13,0S50.94,39,51,39Zm-.12.07v0s0,0,0,0,0,0,0,0S50.84,39.08,50.85,39.07Zm-.12-.9s0,0,0,0,0,0,0,0h0S50.72,38.18,50.73,38.17Zm-.28,1.18v0s0,0,0,0v0S50.42,39.36,50.45,39.35Zm-.08-.28v0s0,0,0,0,0,0,0,0S50.36,39.08,50.37,39.07Zm-.06-.31h0s0,0,0,0,0,0,0,0S50.3,38.78,50.31,38.76Zm0,.61v0s0,0,0,0v0S50.3,39.38,50.31,39.37Zm-.3.75h0a.13.13,0,0,0,.12.06l.11.11s.06,0,.08,0,0,0,0,0h-.18l-.07-.06H50l-.14-.14C49.91,40.1,50,40.14,50,40.12Zm-.3-.39v0s0,0,0,0v0S49.7,39.74,49.71,39.73ZM49.3,40l.09.08,0,0a.41.41,0,0,1-.11,0l0,0Zm-.78,1.75s0,0,0,0v0s0,0,0,0Zm-.06-1.27,0,0,0,0s0,0,0,0S48.44,40.47,48.46,40.49Zm0-.05s0,0,0,0,0,0,0,0h0v0S48.4,40.43,48.42,40.44Zm-.56,2h0v0a0,0,0,0,1,0,.05l0,0h0S47.83,42.43,47.86,42.41Zm-.14-.69s0,.06,0,.07,0,0-.06,0l0,0v0S47.68,41.67,47.72,41.72Zm-.33,1h0s0,0,0,0,0,0-.06,0,0,0,0,0l0,0S47.37,42.72,47.39,42.71Zm0,.74s0,0,0,0,0,0,0,0,0,0,0,0S47.36,43.46,47.37,43.45Zm-.06-1.16s0,0,0,0h0s0,0,0,0Zm-.13-.16s-.08,0-.13,0A.09.09,0,0,1,47.18,42.13Zm-.1.1h0v0a0,0,0,0,1,0,.05l0,0h0S47.05,42.25,47.08,42.23ZM47,41.77s0,0,0,0,0,0,0,0h0S47,41.78,47,41.77Zm0,1.72a.11.11,0,0,1,0-.05s0,0,0,0a.25.25,0,0,1,0-.08,0,0,0,0,1,0,0,0,0,0,0,1,0,0,.11.11,0,0,1,0,0s0,0-.05,0a.27.27,0,0,1,0,.09,0,0,0,0,1,0,0A0,0,0,0,1,47,43.49Zm-.15,0a.09.09,0,0,1,0,.13A.08.08,0,0,1,46.85,43.48Zm0,.63s-.08,0-.13,0A.09.09,0,0,1,46.82,44.11Zm-.07-1.45a.09.09,0,0,1,0,.05,1.36,1.36,0,0,0-.12-.12s0,0,0-.05a.06.06,0,0,1,0,0h0l.07.09A0,0,0,0,1,46.75,42.66Zm-.08-.31,0,0v0h-.1S46.61,42.33,46.67,42.35Zm-.14-.11h.07l0,0v0a.06.06,0,0,1-.1,0Zm0,.18s0,0,0,0,0,0,0,0v0h0S46.52,42.44,46.53,42.42Zm-.09.23h0a.05.05,0,0,1,0,.06s0,0,0,.07a.08.08,0,0,1,0,.11h-.06l-.07.06h-.06s0-.12-.09-.15Zm-.45.14s0,0,0,0,0,0,0,0l0,0S46,42.8,46,42.79Zm-.18.53h0a0,0,0,0,1,.05,0l0,0s0,0,0,0-.08,0-.1,0A0,0,0,0,1,45.81,43.32Zm-.12.49s0,0,0,0,0,0,0,0l0,0S45.68,43.82,45.69,43.81ZM45.5,44h0s0,0,0,0v0S45.5,44,45.5,44Zm0-.23v0s0,0,0,0h0S45.44,43.76,45.45,43.75Zm-.1,1.3v0s0,0,0,0l0,0S45.32,45.06,45.35,45.05Zm-.14-1.3v0s0,0,0,0h0S45.2,43.76,45.21,43.75Zm-.4,1a.71.71,0,0,1,.07.09s0,.07,0,.1a.71.71,0,0,1-.07-.09S44.77,44.83,44.81,44.8Zm-.74.86s0,0,0,0h0s0,0,0,0Zm0-1s0,0,0,0h0s0,0,0,0Zm-.28-.73v0s0,0,0,0h0S43.72,43.91,43.74,43.91ZM53.93,31.19s0,0,0,0,0,0,0,0v0S53.9,31.2,53.93,31.19Zm-.2-.46s0,0,0,0,0,0,0,0l0,0S53.72,30.74,53.73,30.73Zm-.06.17h.1v0l0,0,0,0s0,0,0,0h0c0,.05,0,.07-.09.05l0,0A0,0,0,0,0,53.67,30.9Zm0,.26s0,0,0,0a0,0,0,0,1,0,0,.41.41,0,0,1,0,.11,0,0,0,0,1,0,0s0,0,0,0Zm-.06,1.2,0,0,0,0s0,0,0,0S53.58,32.38,53.6,32.36Zm-.05-.31v0s0,0,0,0l0,0S53.54,32.06,53.55,32.05Zm0,.35s0,0,0,0,0,0,0,0a0,0,0,0,1,0,0h0S53.54,32.42,53.55,32.4Zm-.18-.89v0s0,0,0,0,0,0,0,0S53.36,31.52,53.37,31.51Zm-.06,1.13h0s0,0,0,0,0,0,0,0S53.3,32.66,53.31,32.64Zm0,.29v0s0,0,0,0,0,0,0,0S53.3,32.94,53.33,32.93Zm-.94,1s-.08,0-.1,0v0a.06.06,0,0,1,.1,0ZM53,32.86v0s0,0,0,0h0S53,32.85,53,32.86Zm0-1.37,0,0s0,0,0,0h0S53,31.49,53,31.49Zm-.39,1.23,0,0,0,0s0,0,0,0,0,.07,0,.06,0,0,0,0S52.57,32.73,52.58,32.72Zm-.09,1.22s0,0,.07,0,0,0,0,0,0,0-.06.06S52.44,34,52.49,33.94Zm-.21-1.65s.08,0,.1,0v0s-.08,0-.1,0Zm0,.12v0s0,0,0,0,0,0,0,0S52.28,32.42,52.29,32.41Zm0,.27h.06c.05.06.05.06,0,.13h-.06C52.2,32.75,52.2,32.75,52.24,32.68Zm-.11.73,0,0s0,0,0,0,0,0,0,0S52.1,33.42,52.13,33.41Zm-.11-1v0s0,0,0,0h0S52,32.45,52,32.45Zm-.52,2.36s.08,0,.1,0v0a.06.06,0,0,1-.1,0Zm0-1.4v0s0,0,0,0,0,0,0,0S51.44,33.42,51.47,33.41Zm-.42,1.79h.11s0,0,0,0l-.09.09L51,35.24S51,35.22,51.05,35.2Zm-3,3.4s0,0,0,0,0,0,0,0,0,0,0,0S48,38.59,48,38.6ZM48.42,37s0,0,0,0,0,0,0,0h0S48.43,37,48.42,37Zm1.26-.06s0,0,0,0,0,0,0,0v0S49.69,36.91,49.68,36.92Zm.25-.34s0,.07,0,.06,0,0,0,0,0,0,0,0,0,0,0,0,0,0,0,0S49.93,36.57,49.93,36.58Zm1-1.95s0,0,0,0,0,0,0,0v0S51,34.64,51,34.63Zm0,.7v0s0,0,0,0l0,0S50.9,35.34,50.93,35.33ZM50.69,34s0,0,0,0,0,0,0,0v0S50.66,34,50.69,34Zm-.33,1,.21-.21s.06,0,.08,0l0,.06a.48.48,0,0,0,0,.12l-.06.07v.11s0,0,0,0a0,0,0,0,1-.05,0l-.08-.06ZM50,35.7h0a.06.06,0,0,1,0,.1h0S49.92,35.72,50,35.7Zm0,.53s0,0,0-.06,0-.05,0-.06l0,0a0,0,0,0,0,0,0s.06,0,.06,0a.06.06,0,0,1,0,.08L50,36.23h-.09v.08s0,0-.11,0S49.88,36.25,49.93,36.23ZM49.64,35c.06,0,.06,0,.11,0v.06c-.06,0-.06,0-.11,0Zm-.23,1.78s0,0,0,0h0s0,0,0,0Zm-.3-1.37h0s0,.08,0,.1h0A.06.06,0,0,1,49.11,35.4Zm-.36,1.2s0,0,.06,0l0,0v0s-.08,0-.12,0S48.72,36.61,48.75,36.6Zm-.25-.36h0s0,0,0,0,0,0,0,0S48.5,36.26,48.5,36.24Zm0,.59,0,0,0,0,0,0S48.44,36.81,48.46,36.83Zm0,0s0,0,0,0h0v0S48.4,36.77,48.42,36.78Zm-.46.68s0,0,0,0l0,0s0,0,0,0,0,.07,0,.06,0,0,0,0S48,37.47,48,37.46Zm0,.69s0,0,0,0,0,0,0,0l0,0s0,0,0,0,0,.07,0,.06S48,38.17,48,38.15Zm-.13-.41h0s0,0,0,0h0S47.8,37.73,47.82,37.74Zm-.12-.31v0s0,0,0,0h0S47.68,37.43,47.7,37.43ZM47.55,39s0,0,0,0,0,0,0,0v0S47.54,39,47.55,39Zm-.25-.59,0,0s0,0,0,0,0,0,0,0,0,.07,0,.06,0,0,0,0S47.29,38.43,47.3,38.42Zm-.06-.19a.08.08,0,0,1-.13,0A.09.09,0,0,1,47.24,38.23Zm-.21.71a0,0,0,0,1,0,0s0,0,0,0h0S47,38.93,47,38.94Zm-.32.79v0s0,0,0,0l0,0S46.7,39.74,46.71,39.73Zm-.17-1.23h.07s0,0,.06.06,0,0,0,0a.06.06,0,0,1,0,0h-.08S46.5,38.55,46.54,38.5Zm-.2.39,0,0s0,0,0,0v0S46.34,38.9,46.34,38.89ZM43.75,41v0h0s0,0,0,0,0,0,0,0S43.76,41,43.75,41Zm.08,1.53v0s0,0,0,0h0S43.85,42.52,43.83,42.52Zm.76-1.76,0,0s0,0,0,0v0S44.59,40.75,44.59,40.76Zm1.23-1.58s0,0,0,0h0s0,0,0,0Zm-.11.41s0,0,0,0,0,0,0,0h0S45.68,39.6,45.71,39.59Zm-.12,1.14v0s0,0,0,0v0S45.56,40.74,45.59,40.73Zm-.12.3,0,0s0,0,0,0,0,0,0,0S45.44,41,45.47,41Zm-.2-.41s0,0,0,0h0s0,0,0,0Zm-.7-.49,0,0s0,0,0,0,0,0,0,0S44.54,40.14,44.57,40.13Zm0,.32a.08.08,0,0,1-.13,0A.09.09,0,0,1,44.6,40.45Zm-.39.11h0s0,0,0,0h0S44.2,40.55,44.21,40.56Zm-.12-.07s0,0,0,0,0,0,0,0h0S44.06,40.5,44.09,40.49Zm-.12.6h.09s0,0,.06-.06a.21.21,0,0,1,0-.08l0,0a0,0,0,0,1,0,.05.11.11,0,0,1,0,0s0,0,0,0,0,.06-.06.06,0,.08-.1.06a0,0,0,0,1,0,0v0Zm-.27-.28s0,0,0,0,.08.06.16,0,0,.1,0,.14l-.09.09S43.8,41,43.76,41s0-.05-.06-.09S43.69,40.83,43.7,40.81Zm-.06.84s0,0,0,0h0l0,0,0,0h0S43.63,41.67,43.64,41.65Zm-.06.19c0-.05.07-.05.11,0v.06s0,0-.11,0Zm-.22.2s.08,0,.09,0l-.09.09S43.33,42.09,43.36,42Zm0,.4a.09.09,0,0,1-.13,0A.08.08,0,0,1,43.34,42.44Zm-.41-.74s0,0,0,0,0,.08,0,.1h0S42.9,41.72,42.93,41.7Zm-.4.42h0s0,0,0,0h0S42.52,42.11,42.53,42.12Zm.24.94h0v0s0,0,0,0,0,0,0,0Zm.06.06,0,0s0,0,0,0l0,0Zm.35,1.93a.09.09,0,0,1,0-.13A.08.08,0,0,1,43.18,45.05Zm-1-2.08s0,0,0,0h0l0,0,0,0h0S42.13,43,42.14,43ZM42,42.24s0,0,0,0h0s0,0,0,0Zm-.24,1.26s0,0,0,0h0s0,0,0,0Zm-.19-.71s0,0,0,0,0,0,0,0l0,0S41.54,42.8,41.55,42.79ZM53.62,27.65s0,0,0,0l0,0,0,0S53.6,27.63,53.62,27.65Zm0,0s0,0,0,0h0a0,0,0,0,1,0,0S53.56,27.59,53.58,27.6Zm-1.49,1a.09.09,0,0,1,.13,0C52.17,28.68,52.14,28.68,52.09,28.63Zm1.34-1s0,0,0,0,0,0,0,0v0S53.42,27.68,53.43,27.67Zm-.28-.39h.06l.09.08s0,.07,0,.09,0,.05,0,.06l0,0,0,0h-.06l-.09-.07A.33.33,0,0,1,53.15,27.28Zm0,1.41a.08.08,0,0,1-.13,0A.09.09,0,0,1,53.18,28.69Zm-.15.22s0,0,0,0,0,0,0,0l0,0S53,28.92,53,28.91Zm-.15,0s0,0,0,0l0,0V29l0,0,0,0Zm-.09-1.1h0s0,0,0,0h0S52.78,27.77,52.79,27.78Zm-.14.36h.07l0,0a0,0,0,0,1,0,0s-.08,0-.1,0A0,0,0,0,1,52.65,28.14Zm-.09-.25v0s0,0,0,0h0S52.54,27.89,52.56,27.89Zm-.14.31,0,0s0,0,.07,0,0,0,0,0a.23.23,0,0,1-.24,0Zm0,1.16-.08.08a.07.07,0,0,1-.09,0l.08-.08A.07.07,0,0,1,52.39,29.36Zm-.26-1a.71.71,0,0,1,.07.09s0,.07,0,.1a.71.71,0,0,1-.07-.09S52.09,28.39,52.13,28.36Zm-.28.31h0s0,0,0,0h0s0,0,0,0l0,0s0,0,0,0a0,0,0,0,1,0,0,.11.11,0,0,1-.08,0l0,0A0,0,0,0,1,51.85,28.67Zm-.15,1.61c.08,0,.09,0,.09.08s-.06.07-.08.11-.09,0-.09-.08S51.68,30.32,51.7,30.28Zm-.2-.69s0,0,0,0,0,0,0,0,0,.06,0,.12l-.06-.05S51.5,29.6,51.5,29.59Zm-.65.3s0,0,0,0,0,0,0,0h0S50.84,29.9,50.85,29.89Zm-.43.3s0,0,0,0,0,0,0,0,0,.06,0,.12l-.06-.05Zm-.33.22v0s0,0,0,0v0S50.06,30.42,50.09,30.41Zm-.2.56v0s0,0,0,0h0S49.88,31,49.89,31ZM40.32,42.38v0s0,0,0,0v0S40.33,42.37,40.32,42.38Zm.16.2-.08-.08a.07.07,0,0,1,.07,0s.08,0,.1,0S40.52,42.56,40.48,42.58Zm.19-1.33s0,0,0,0v0s0,0,0,0Zm0-.18s0,0,0,0v0s0,0,0,0Zm.14,1.62h0s0,0,0,0,0,0,0,0S40.81,42.67,40.81,42.69Zm0-1.36s0-.08,0-.13A.09.09,0,0,1,40.79,41.33ZM45.09,36h0s0,0,0,0h0S45.11,36,45.09,36Zm.49.31v0s0,0,0,0v0S45.61,36.27,45.58,36.28Zm1.28-2.12v0s0,0,0,0,0,0,0,0S46.87,34.15,46.86,34.16Zm.07,1.15h0s0,0,0,0,0,0,0,0S46.93,35.29,46.93,35.31Zm2.85-3h-.11s0,0,0,0l.09-.09.08.09Zm-.14-1.46c0-.05.06,0,.1,0s0,0,.08,0a.37.37,0,0,1,0,.11s0,0,0,0a.19.19,0,0,0-.1,0s0,0,0,0Zm-.1,1.65.06.05,0,0s0,0-.05,0h0S49.5,32.57,49.54,32.51Zm-.38.38,0,0h.12l0,0,0,0h-.11Zm-.75-.44s0,0,0,0,0,0,0,0l0,0S48.38,32.46,48.41,32.45Zm-.06,1.07a.09.09,0,0,1,0,.13A.08.08,0,0,1,48.35,33.52ZM48,33.18h0a0,0,0,0,1,.05,0l0,0s0,0,0,0-.08,0-.1,0A0,0,0,0,1,48,33.18Zm0,.74,0,0s0,0,0,0,0,0,0,0S48,34,48,34Zm-.29.36v0s0,0,0,0v.11s0,0,0,0v0A.41.41,0,0,1,47.72,34.28Zm-.78-.55a.08.08,0,0,1-.13,0A.09.09,0,0,1,46.94,33.73ZM46.79,35h0s0,0,0,0h0S46.78,35,46.79,35Zm-.13-1,.1.08,0,0H46.6l0,0Zm-.44.08s0,0,.05,0h0l0,0,0,0h0S46.21,34.05,46.22,34Zm0,1,0,0s0,0,0,0h0S46.18,35,46.19,35Zm-.2-.3h.07l0,0s0,0,0,0-.08,0-.1,0Zm-.49-.09s0,0,0,0l.06.06h.11l.09.08v.07l-.11,0L45.6,35h-.09a.13.13,0,0,1,0,0A1.22,1.22,0,0,1,45.5,34.65Zm-.29,1.71h0a.06.06,0,0,1,0,.1h0S45.18,36.38,45.21,36.36Zm-.07-1s0,.08,0,.09L45,35.35S45.09,35.32,45.14,35.35Zm-.28,1.77h.06c0,.06,0,.06,0,.12h-.06C44.82,37.19,44.82,37.19,44.86,37.12Zm-.44.09s0,0,0,0h0l0,0,0,0h0S44.41,37.23,44.42,37.21Zm-.54-.06s0,0,0,0h0l0,0,0,0h0S43.87,37.17,43.88,37.15Zm-1.07.54s0,0,0,0,0,0,0,0v0S42.8,37.7,42.81,37.69Zm-.17,1.11,0,0s0,0,0,0,0,0,0,0S42.67,38.79,42.64,38.8Zm-.08-1s.08,0,.1,0v0s-.08,0-.1,0Zm0,.78s0,0,0,0h0l0,0,0,0s0,0,0,0S42.55,38.61,42.56,38.59Zm-.1-.68,0,0,0,0,0,0S42.44,37.89,42.46,37.91Zm0,0s0,0,0,0h0a0,0,0,0,1,0,0S42.4,37.85,42.42,37.86Zm-.13.11,0,0s0,0,0,0h0S42.28,38,42.29,38Zm.09,1.82a.08.08,0,0,1-.13,0A.09.09,0,0,1,42.38,39.79Zm-.6.48s0,0,0,0h0s0,0,0,0l0,0s0,0,0,0S41.77,40.29,41.78,40.27ZM41.65,40l0,0s0,0,0,0,0,0,0,0-.06,0-.12,0Zm-.22.41v0s0,0,0,0v0S41.42,40.4,41.43,40.39Zm-.46.52h0s0,0,0,0,0,0,0,0S40.94,40.92,41,40.91Zm.14.17h0l0,0,0,0h0s-.07,0-.06,0S41.09,41.08,41.11,41.08Zm-1.1.19s0,0,0,0,0,0,0,0v0S40,41.28,40,41.27Zm0,.3a0,0,0,0,1,0,0v0h0a.21.21,0,0,1-.08,0S40,41.55,40,41.57Zm-.14.07s0,0,0,0,0,0,0,0v0h0S39.86,41.66,39.87,41.64Zm-.1-.78h0s0,0,0,0h0S39.76,40.85,39.77,40.86Zm-.15,0,0,0a0,0,0,0,1,0,0,.48.48,0,0,1,0,.12s-.07,0-.12,0l.07-.05S39.61,40.89,39.62,40.87Zm-.15-.8s0,0,0,0,0,0,0,0v0S39.44,40.08,39.47,40.07Zm-.11-.35h0s0,0,0,0h0S39.34,39.71,39.36,39.72Zm-.19,1.55s0,0,0,0,0,0,0,0l0,0S39.14,41.28,39.17,41.27ZM52.82,24.86a0,0,0,0,1,0,0s0,.05.07.05.06,0,.08.05a.3.3,0,0,1-.16,0A.06.06,0,0,1,52.82,24.86Zm-.14-.75v0s0,0,0,0h0S52.66,24.11,52.68,24.11Zm-.39.06s0,0,0,0h0s0,0,0,0Zm-5.79,6s0,0,0,0,0,0,0,0l0,0S46.51,30.13,46.5,30.14Zm5-3.71h0s0,0,0,0h0S51.47,26.44,51.45,26.43Zm0-.18h0s0,0,0,0h0S51.47,26.26,51.46,26.25Zm.13-.94,0,0s0,0,0,0,0,0,0,0S51.56,25.32,51.59,25.31Zm-.21-.46s0,0,0,0h0c0,.06,0,.06,0,.12l-.06-.05ZM50.27,26h0s0,0,0,0h0S50.26,26,50.27,26ZM50,27.56s0,0,0,0a.06.06,0,0,1,0-.05s0,0,0,0,.08,0,.13,0S50,27.53,50,27.56Zm0-1s0,0,0,0l0,0s0,0,0,0S50,26.62,50,26.6Zm0,0s0,0,0,0v0l.06.05v.06s0,0-.09,0l0,0A.17.17,0,0,1,50,26.64Zm0,1.23,0,.08c0,.06-.07.08-.1.13l0-.08C49.83,27.94,49.88,27.92,49.91,27.87Zm-.32-1.05h0a.06.06,0,0,1,0,.1h0A.06.06,0,0,1,49.59,26.82Zm-.11,1.24h.18s0,0,0,0l-.09.09-.05-.07h-.06S49.46,28.1,49.48,28.06Zm-.19-.4s0,0,0,0h0s0,0,0,0Zm-.52,1.07v0s0,0,0,0v0S48.74,28.74,48.77,28.73Zm-.27,0a.09.09,0,0,1-.13,0A.08.08,0,0,1,48.5,28.76Zm-.66-.13,0,0s0,0,0,0,0,0,0,0S47.84,28.64,47.84,28.63Zm0,.58h0s0,0,0,0,0,0,0,0S47.84,29.22,47.87,29.21Zm-.24.72v0s0,0,0,0v0S47.6,29.94,47.63,29.93Zm-1.14-.29h0s0,0,0,0h0S46.48,29.63,46.49,29.64Zm-.36.59s0,0,0,0,0,0,0,0h0S46.1,30.24,46.13,30.23Zm0,1.49a.08.08,0,0,1,0,.13A.09.09,0,0,1,46.12,31.72ZM46,30.23s0,0,0,0,0,0,0,0h0S46,30.24,46,30.23Zm-.15,1.28s0,0,0,0h0s0,0,0,0l0,0s0,0,0,0S45.85,31.53,45.86,31.51Zm-.39.4h0s0,0,0,0,0,0-.06,0h0l0,0S45.45,31.92,45.47,31.91Zm-.2-1.31s0,0,0,0v.11s0,0,0,0v0a.41.41,0,0,1,0-.11Zm-.05,2s0,0,0,0l0,0s0,0,0,0Zm-.65.3h0s0,0,0,0h0S44.56,32.93,44.57,32.94Zm-.31.35s0,0,0,0l0,0h0s-.07,0-.06,0,0,0,0,0Zm0-.79a.09.09,0,0,1,0,.13A.08.08,0,0,1,44.21,32.5Zm-1.06,2s-.08,0-.1,0a0,0,0,0,1,0,0,.06.06,0,0,1,.1,0A0,0,0,0,1,43.15,34.52Zm.15.08s0,0,0,0,0,0,0,0l0,0S43.33,34.59,43.3,34.6Zm.45-.87s0-.06,0-.07,0,0,.06,0l0,0v0C43.81,33.78,43.81,33.78,43.75,33.73Zm.2-.54s0,0,0,0,0,0,0,0v0S43.94,33.2,44,33.19Zm-.1.76c-.05-.05-.05-.08,0-.13A.09.09,0,0,1,43.85,34Zm0-.6c0,.06,0,.06,0,.11h-.06c0-.06,0-.06,0-.11Zm-.13-.67a.08.08,0,0,1,0,.13A.09.09,0,0,1,43.72,32.68Zm-.11-.23h0s0,0,0,0,0,0,0,0S43.58,32.46,43.61,32.45Zm-.09.39s0,0,0,0,.1,0,.16.06-.08,0-.12,0a.09.09,0,0,1-.08,0S43.51,32.85,43.52,32.84ZM43.42,34h0v0a0,0,0,0,1,0,.05l0,0h0A.06.06,0,0,1,43.42,34Zm-.11.31h0s0,0,0,0h0S43.3,34.31,43.31,34.32Zm-.2-1.13s0,0,0,0,0,0,0,0l0,0S43.1,33.2,43.11,33.19Zm-.1-.26.09.09s-.08,0-.13,0S43,32.94,43,32.93Zm-.24.65s.07,0,.08,0l-.09.09s-.07,0-.08,0Zm-.42,1.8h.11s0,0,0,0h0a.41.41,0,0,1-.11,0h0S42.33,35.4,42.35,35.38ZM42.26,34l0,0,0,0s0,0,0,0,0,.07,0,.06,0,0,0,0S42.25,34.05,42.26,34ZM42,35s0,0,.06-.06,0,.09,0,.13-.05,0-.07,0S42,35,42,35Zm0,.39v0s0,0,0,0l0,0S42,35.42,42,35.41Zm0,.22h.06l.08.09s0,0,0,0H42.1L42,35.66S42,35.63,42.05,35.63Zm0,.27,0,0,0,0,0,0S42,35.92,42,35.9Zm-.21-1.17v0s0,0,0,0h0S41.78,34.74,41.81,34.73Zm0,1.14h.12s0,.05.07.05,0,0,0,0l0,0a1.16,1.16,0,0,1-.32,0v0a0,0,0,0,1,0,0Zm-.24-1.14.07-.07.08.09s-.06.06-.09.1h-.06C41.52,34.78,41.52,34.77,41.56,34.73Zm-.56.5s.08,0,.1,0,0,0,0,0-.08,0-.1,0A0,0,0,0,1,41,35.23Zm-.41,1.56s0,0,0,0,0,0,0,0l0,0S40.58,36.8,40.59,36.79Zm-.4-1.1,0,0s0,0,0,0h0S40.18,35.69,40.19,35.69Zm0,1.47s0,.06,0,.07,0,0-.06,0l0,0v0C40.16,37.11,40.16,37.11,40.22,37.16ZM40,36s0,0,.05,0,0,0,0,0,0,.06,0,.12l-.06-.05S40,36,40,36Zm0,.7s0,0,0,0h0s0,0,0,0Zm-.22,1h0s0,0,0,0,0,0-.06,0h0l0,0Zm-.43-.13s.08.06.09.11.1.09,0,.18l-.06.06h0v0a1,1,0,0,1,0-.17l-.07-.07Zm-.32.39s0,0,.05,0h0s0,0,0,0l0,0h0S39.07,38,39.08,38Zm-.63.4a.08.08,0,0,1,0-.13A.09.09,0,0,1,38.45,38.39ZM38.38,38s0,0,0,0h0s0,0,0,0Zm-.45,1.12h0s0,0,0,0v0S37.93,39.07,37.93,39.09Zm.15-.59s0,0,0,0,0,0,0,0l0,0S38.11,38.49,38.08,38.5Zm.06.71a0,0,0,0,1,0,0s0,0,0,0l.14-.15h.06s0,0,0,0Zm0-.44v-.05c.06,0,.06,0,.12,0v.06S38.18,38.81,38.11,38.77Zm.45.81v0s0,0,0,0v0S38.59,39.57,38.56,39.58Zm.19.84s0,0,0-.06,0,0,0,0,0,0,0,0l0,0s0,0,0,0S38.78,40.41,38.75,40.42Zm-.81-2.24s0,.06,0,.07,0,0-.06,0l0,0v0C37.88,38.13,37.88,38.13,37.94,38.18Zm-.22.93h.07l.06,0s0,0,0,.05,0,0,0,0h-.08S37.68,39.17,37.72,39.11Zm-.13-.76v0s0,0,0,0h0S37.58,38.36,37.59,38.35Zm-.08,1.18s0,0,0,0,.06,0,.12,0l-.05.06,0,0S37.51,39.55,37.51,39.53Zm-.21-2s0,0,0,0l0,0,0,0S37.28,37.53,37.3,37.55Zm0,0s0,0,0,0h0a0,0,0,0,1,0,0S37.24,37.49,37.26,37.5Zm-.09,1.25s0,0,0,0h0s0,0,0,0ZM46.86,26s0,0,0,0,0,.05-.06.05,0-.05.06-.05a.27.27,0,0,1,0-.09l0,0a0,0,0,0,1,0,0A.11.11,0,0,1,46.86,26Zm2.22-2.23s0,0,0,0,0,0,0,0a0,0,0,0,1,0,0S49.09,23.71,49.08,23.72Zm.28,0h0s0,0,0,0a0,0,0,0,1,0,0S49.37,23.68,49.36,23.67ZM51.1,21.9s0,0,0,0h0s0,0,0,0Zm-.19-1.19s0,0,0,0,0,0,0,0,0,0,0,0S50.9,20.72,50.91,20.71Zm-.58,1.71a.09.09,0,0,1,0,.13A.08.08,0,0,1,50.33,22.42Zm-.06.31h.06c0,.06,0,.06,0,.11h-.06C50.23,22.78,50.23,22.78,50.27,22.73Zm-.56.86s0,0,0,0,0,0,0,0v0S49.7,23.6,49.71,23.59Zm0-.79h0s0,0,0,0h0S49.66,22.79,49.67,22.8Zm-.07-.37,0,0a.41.41,0,0,1,0,.11l0,0-.09-.09Zm-.27.34,0,0h0s0,.08,0,.12-.06,0-.07,0S49.31,22.79,49.33,22.77Zm-.26.61.07.08s0,0,0,0a.4.4,0,0,1-.11,0l0,0Zm-.78,1.44a.07.07,0,0,1,0,.12s-.08,0-.09,0Zm-.18-.29,0,0s0,0,0,0h0S48.1,24.53,48.11,24.53Zm-.47-.24v0s0,0,0,0h0S47.62,24.29,47.64,24.29Zm-.88.86a.08.08,0,0,1,.12,0l-.09.09S46.76,25.19,46.76,25.15Zm-.06.92s0,0,0,0,0,0,0,0,0,0,0,0l.06.05s0,0,0,0A.05.05,0,0,1,46.7,26.07Zm-.29.39h.07l0,0s0,0,0,0a.06.06,0,0,1-.1,0A0,0,0,0,1,46.41,26.46Zm-.29.24s0,0,0,0l0,0s0,0,0,0Zm-.25-.59s0,0,0,0,0,0,0,0h0S45.86,26.12,45.87,26.11Zm-.21.67v0s0,0,0,0l0,0S45.67,26.77,45.66,26.78Zm-.1-.19a.06.06,0,0,1,.1,0,0,0,0,0,1,0,0s-.08,0-.1,0A0,0,0,0,1,45.56,26.59Zm-.17.84s0,0,0,0,0,0,0,0v0S45.38,27.44,45.39,27.43Zm0,.09s.08,0,.09,0l-.09.09S45.37,27.57,45.4,27.52Zm-.17-.78h.07c0,.08,0,.14,0,.19l-.06-.07S45.18,26.8,45.23,26.74Zm-.12,1.76h0s0,0,0,0v0S45.1,28.49,45.11,28.5Zm-.6-.19v0s0,0,0,0v0S44.48,28.32,44.51,28.31Zm-.06.17s.06,0,.07,0,0,0,0,.06l0,0h0C44.4,28.54,44.4,28.54,44.45,28.48Zm-.26-.57s0,0,0,0,0,0,0,0v0S44.18,27.92,44.19,27.91Zm-.84,1.49h0a0,0,0,0,1,.05,0l0,0s0,0,0,0a.06.06,0,0,1-.1,0A0,0,0,0,1,43.35,29.4Zm-2,2.29,0,0s0,0,0,0,0,0,0,0S41.36,31.7,41.36,31.69Zm-.16.69s0,.08,0,.13A.09.09,0,0,1,41.2,32.38Zm-.17,0h0s0,0,0,0h0S41,32.39,41,32.4Zm-.07.16v0s0,0,0,0l0,0S41,32.55,41,32.56ZM40.84,32l0,0v-.13a.05.05,0,0,1,0,0,.06.06,0,0,1,0,0s0,0,0,.05l0,0v.12a.05.05,0,0,1,0,0,.06.06,0,0,1-.05,0S40.82,32,40.84,32Zm-.11.31h0s0,0,.05,0,0,0-.06,0h0l0,0Zm-.2,0v0s0,0,0,0v0S40.52,32.36,40.53,32.35Zm-.1.29,0,0s0,0,0,0h0S40.42,32.63,40.43,32.64Zm0-.4,0,0h0s0,0,0,0a.27.27,0,0,1,0-.09S40.41,32.18,40.39,32.24Zm-.07-.14s0,0,0,0h0v0S40.3,32.09,40.32,32.1Zm-.67.65v0s0,0,0,0,0,0,0,0S39.62,32.76,39.65,32.75Zm-1.08,2.1v0s0,0,0,0v0S38.54,34.86,38.57,34.85Zm0,.13h0s0,0,0,0l0,0S38.56,35,38.57,35Zm-.48-.78h0s0,0,0,0v0S38.08,34.19,38.09,34.2Zm-.21,1.09a.08.08,0,0,1-.13,0A.09.09,0,0,1,37.88,35.29Zm-.27-.19h0s0,0,0,0h0S37.6,35.09,37.61,35.1Zm-.32.43a0,0,0,0,1,0,0s0,0,0,0v0S37.28,35.54,37.29,35.53Zm0,.4a0,0,0,0,0,0,0s0,0,.11,0l0,.06,0,0S37.27,36,37.27,35.93Zm-.43.42v0s0,0,0,0h0S36.82,36.35,36.84,36.35Zm-.34-.93a.09.09,0,0,1-.13,0A.08.08,0,0,1,36.5,35.42Zm-.57,1h0v0s0,0,0,0,0,0,0,0Zm.06.06,0,0s0,0,0,0,0,0,0,0Zm.41.24s0,0,0,0,0,0,0,0v0S36.43,36.75,36.4,36.76Zm.24,1.63h0c-.06,0,0-.11,0-.16s.06,0,.08,0a.09.09,0,0,1,0,.08S36.68,38.36,36.64,38.39ZM35,36h0s0,0,0,0v0S34.94,36,35,36Zm14.2-17.08s0,0,0,0,0,0,0,0v0S49.16,18.92,49.17,18.91Zm-.19,0c0,.05-.08.05-.13,0A.09.09,0,0,1,49,18.91Zm-1,.58s0,0,0,0l0,0,0,0S48,19.47,48,19.49Zm0,0s0,0,0,0h0a0,0,0,0,1,0,0S47.92,19.43,47.94,19.44Zm-.1,1.39s0,0,0,0h0s0,0,0,0l0,0s0,0,0,0S47.83,20.85,47.84,20.83Zm-1.47.7,0,0s0,0,0,0,0,0,0,0S46.34,21.54,46.37,21.53Zm-.36.12h0s0,0,0,0,0,0,0,0S46,21.66,46,21.65Zm-1.42,3,0,0s0,0,0,0,0,0,0,0S44.59,24.61,44.59,24.62Zm0-1.08s0,0,0,0,0,0,0,0l0,0S44.59,23.53,44.58,23.54Zm.13.77s0,0,0,0h0s0-.08,0-.1h0a0,0,0,0,1,0,0A0,0,0,0,1,44.71,24.31Zm.1-1.7v0s0,0,0,0l0,0S44.78,22.62,44.81,22.61Zm-.27.28s0,0,0,0,0,.06.09,0,0-.07.09,0a0,0,0,0,1,0,0,0,0,0,0,0,0,0h0a.21.21,0,0,1-.08,0s0,0,0,0a.08.08,0,0,1-.09,0A.06.06,0,0,1,44.54,22.89Zm-.14,1.76v0s0,0,0,0h0S44.38,24.65,44.4,24.65Zm-.06.29a.07.07,0,0,1,.07,0l-.08.08s-.06-.06-.09-.09S44.31,25,44.34,24.94Zm-.4-.62s0,0,0,0l0,0s0,0,0,0,0,0,0,0,0,0,0-.06S43.93,24.32,43.94,24.32Zm0,.8H44c.06.05,0,.11,0,.16s0,0,0,0a.49.49,0,0,1,0-.11l-.07.06S43.86,25.16,43.91,25.12Zm-.18-.29,0,0s0,0,0,0h0S43.72,24.83,43.73,24.83Zm0,.6v0s0,0,0,0h0S43.66,25.43,43.68,25.43ZM43.47,24s0,0,0,0h0s0,0,0,0Zm-.13,1.28a.08.08,0,0,1-.13,0A.09.09,0,0,1,43.34,25.27Zm-.42.67s0,0,0,0,0,0,0,0,0,0,0,0,0,.07,0,.06,0,0,0-.05S42.91,26,42.92,25.94Zm-.21-.87h0s0,0,0,0v0S42.68,25.08,42.71,25.07Zm0,1.33h0s0,0,0,0h0S42.7,26.39,42.71,26.4Zm-.12-.5a.09.09,0,0,1,0,.13C42.54,26,42.54,26,42.59,25.9Zm-1.33,1s0,0,0,0,0,0,0,0h0S41.29,26.91,41.26,26.92Zm.93-1.27,0,0h0c0,.06,0,.06,0,.12s-.06,0-.07,0S42.17,25.67,42.19,25.65Zm-.85.8v0s0,0,0,0h0S41.32,26.45,41.34,26.45Zm-.08.3s0,0,0,0l0,0s0,0,0,0S41.24,26.73,41.26,26.75Zm0-.05s0,0,0,0,0,0,0,0h0v0S41.2,26.69,41.22,26.7Zm-.13,1.19v0s0,0,0,0v0S41.06,27.9,41.09,27.89Zm-.56-.95h0s0,0,0,0v0S40.52,27,40.53,26.94Zm.09.88a.09.09,0,0,1,.08,0v.05c-.06.05-.08.05-.12,0l0,0-.05,0S40.58,27.83,40.62,27.82Zm-1.53,2.25s0,0,0,0,0,0,0,0h0S39.08,30.08,39.09,30.07Zm-1.15.66,0,0s0,0,0,0,0,0,0,0S37.94,30.74,37.94,30.73Zm-.3.18s0,0,0,0h0s0,0,0,0l0,0h0S37.63,30.93,37.64,30.91Zm-.22-.21h.06c.05.06.05.06,0,.13h-.06C37.38,30.77,37.38,30.77,37.42,30.7Zm-.11.07,0,0s0,0,0,0h0S37.3,30.77,37.31,30.77Zm-.48.23a.09.09,0,0,1,0,.13A.08.08,0,0,1,36.83,31Zm-.14.93s0,0,0,0,0,0,0,0l0,0S36.68,31.94,36.69,31.93Zm-.1-.38h0s0,0,0,0,0,0,0,0S36.56,31.56,36.59,31.55Zm-.23-.24v0s0,0,0,0h0S36.34,31.31,36.36,31.31Zm0,.75s0,0,0,0l0,0,0,0S36.3,32.08,36.32,32.06Zm0,0s0,0,0,0,0,0,0,0v0h0S36.26,32.12,36.27,32.1Zm-.17.35s0,0,0,0h0s0,0,0,0ZM36,31.94s0,0,0,0l0,0a.23.23,0,0,1,0,.14s0,0,0,0A.71.71,0,0,1,36,31.94Zm-.06.19s0,0,0,0,0,0,0,0,0,0,0,0l.07.05s0,0-.05,0A.05.05,0,0,1,35.9,32.13Zm-.09,0h0s0,0,0,0h0S35.8,32.09,35.81,32.1Zm-.12.58s.06,0,.07,0,0,0,0,.06l0,0h0C35.64,32.74,35.64,32.74,35.69,32.68ZM35.58,32v0s0,0,0,0h0S35.56,32,35.58,32Zm-.93,2.24s0,0,0,0,0,0,0,0l0,0S34.64,34.28,34.65,34.27Zm-.18-1s0,0,0,0,0,0,0,0h0S34.46,33.32,34.47,33.31ZM34,33.6h0s0,0,0,0h0S33.94,33.59,34,33.6ZM33.82,35s0,0,0,0l0,0,0,0Zm.06-.24h0s0,0,0,0v0S33.91,34.77,33.88,34.78Zm.06-.6h0c0-.06,0-.06,0-.12H34C34,34.13,34,34.13,33.94,34.18Zm.06.12,0,0s0,0,0,0,0,0,0,0S34,34.29,34,34.3Zm.06.84s0,0,0,0l0,0,0,0Zm0-.47v0s0,0,0,0v0S34,34.68,34.07,34.67Zm.17.65a.14.14,0,0,1-.11,0s0,0,0,0l.09-.09s.06,0,.07,0A.06.06,0,0,1,34.24,35.32Zm.09-.63s0,0,0-.07,0,0,0,0,0,0,.06.06S34.37,34.74,34.33,34.69Zm.18.31,0,0s0,0,0,0,0,0,0,0S34.51,35,34.51,35Zm-.94-.74h.07l0,0v0a.06.06,0,0,1-.1,0Zm-.16,1.26h0s0,0,0,0v0S33.4,35.51,33.41,35.52Zm-.2-.73s0,0,0,0v0s-.06,0-.1,0a.07.07,0,0,1-.07,0l.06-.06A.06.06,0,0,1,33.21,34.79Zm0-.72s0,0,0,0,0,0,0,0v0S33.14,34.08,33.17,34.07Zm-.12.17h.12l0,0,0,0h-.11l0,0Zm-.08,1v0s0,0,0,0v0S33,35.24,33,35.23Zm-.06-2v0s0,0,0,0l0,0S32.9,33.26,32.91,33.25Zm-.1.4v0s0,0,0,0v0S32.78,33.66,32.81,33.65Zm-.27-.17h0s0,0,0,0v0S32.54,33.5,32.54,33.48ZM42.61,12.13s0-.05,0-.07,0,0,0,0,0,0,.06.06S42.65,12.18,42.61,12.13Zm.63.63v0s0,0,0,0h0S43.27,12.75,43.24,12.76Zm1.23,1.31h0s0,0,0,0,0,0,0,0S44.47,14.05,44.47,14.07Zm.69-.29,0,0s0,0,0,0v0S45.19,13.77,45.16,13.78Zm.26.83h0s0,0,0,0v0S45.43,14.59,45.42,14.61Zm.06-.49s0,0,0,0,0,0,0,0h0S45.49,14.11,45.48,14.12Zm.64.62v0s0,0,0,0v0S46.15,14.73,46.12,14.74Zm.12,1.32s0,0,0,0,0,0,0,0l0,0S46.27,16.05,46.24,16.06Zm-9-5.82h0l0,0s0,0,0,0h0s0,0,0,0S37.31,10.24,37.27,10.24Zm1.23.56s0,0,0,0h0s0,0,0,0Zm0,.43v0h0s0,0,0,0,0,0,0,0S38.54,11.22,38.53,11.23Zm.11,0h0a.21.21,0,0,1-.08,0s0-.07.09,0l0,0Zm1.56,2.27v0s0,0,0,0v0S40.21,13.45,40.2,13.46Zm.19.6,0,0h0s-.07,0-.06,0,0,0,0,0h0S40.39,14.05,40.39,14.06Zm0-.18v0s0,0,0,0v0S40.39,13.87,40.38,13.88ZM44,16s0,0,0,0l0,0s0,0,0,0Zm0,.6a0,0,0,0,1,0,0s0,0,0,0h0S44,16.61,44,16.62Zm-2-.56s0,0,0,0,0,0,0,0h0S42,16.05,42,16.06Zm1,.78h0c-.05-.06-.05-.06,0-.12h0C43.05,16.79,43.05,16.79,43,16.84Zm.33-.62-.09.09c-.09,0-.09,0-.08-.1l.08-.08C43.34,16.13,43.34,16.13,43.33,16.22Zm.33,1.15h0s0,0,0,0v0S43.67,17.38,43.66,17.37Zm.09-1.21,0,0s0,0,0,0-.07,0-.06,0,0,0,0,0h0S43.75,16.15,43.75,16.16ZM44,17.33h-.11s0,0,0,0a0,0,0,0,1,0,0H44l.07-.05C44.06,17.27,44.06,17.27,44,17.33Zm.49.9s0,0,0,0,0,0,0,0v0S44.48,18.24,44.51,18.23Zm.39-.89h0s0,0,0,0,0,0,0,0S44.9,17.36,44.9,17.34Zm-.4,0s0,0,0,0h0s0,0,0,0Zm-.07-.46s0,0,0,0,0,0,0,0l0,0S44.42,16.88,44.43,16.87Zm.19,1.65,0,0s0,0,0,0v0S44.65,18.51,44.62,18.52ZM44.77,20h0s0,0,0,0v0S44.77,20,44.77,20Zm1.95-3.3h0s0,0,0,0h0S46.73,16.72,46.72,16.71Zm-.2.34,0,0s0,0,0,0,0,0,0,0S46.52,17.06,46.52,17.05Zm-.27.16s0,0,0,0,0,0,0,0l0,0S46.22,17.22,46.25,17.21Zm-.13.07s0,0,0,0l0,0s0,0,0,0Zm-.54,2.15s0,0,0,0l0,0h0s-.07,0-.06,0,0,0,0,0Zm0-.89v0a.06.06,0,0,1-.1,0v0S45.52,18.51,45.54,18.54Zm0-.28,0,0s0,0,0,0,0,0,0,0S45.49,18.25,45.49,18.26ZM44,19.78s.07,0,.08,0,0,0,0,.06,0,0,0,0h0A.08.08,0,0,1,44,19.78Zm-.08,0c0,.05-.08.05-.13,0A.09.09,0,0,1,43.94,19.81ZM31.15,9.21h0s0,0,0,0v0S31.15,9.19,31.15,9.21Zm.84,0,0,0s0,0,0,0v0S32,9.25,32,9.26Zm.51.86a1,1,0,0,1-.17,0l0,0s0,0,.05,0h0l0-.06.09.09Zm.37.54h0v0s0,0,0,0,0,0,0,0Zm.06.06,0,0s0,0,0,0l0,0Zm.2.29h0s0,0,0,0v0S33.13,11,33.13,11Zm.23-.24a.06.06,0,0,1-.1,0v0h.07l0,0S33.37,10.76,33.36,10.77Zm.75-.32v0s0,0,0,0h0S34.1,10.46,34.11,10.45Zm-.64.44s0,0,0,0v0s0,0,0,0Zm0-.48s0,0,0,0h0s0,0,0,0Zm.17.42h0s0,0,0,0l0,0S33.65,10.84,33.64,10.83Zm.08.95v0s0,0,0,0v0S33.73,11.77,33.72,11.78Zm.36-.95h0s0,0,0,0v0S34.09,10.81,34.08,10.83Zm.1.84a.71.71,0,0,1-.09-.07s.07,0,.1,0a.71.71,0,0,1,.09.07S34.21,11.7,34.18,11.67Zm.18-.24h0s0,0,0,0l0,0S34.37,11.44,34.36,11.43Zm.14-.24h0a.06.06,0,0,1,0-.1h0S34.53,11.17,34.5,11.19ZM35,12.54h0s0,0,0,0h0S35,12.53,35,12.54ZM35,13.3v0s0,0,0,0v0S35,13.29,35,13.3Zm.25.3,0,0v0h-.09L35,13.46a0,0,0,0,1,0-.05s0,0,0,0l.17.18h0l0,0Zm.14-.45a.09.09,0,0,1,.13,0S35.4,13.2,35.35,13.15Zm6.56,5.58a0,0,0,0,1,0,0s0,0,0,0,0,0,0,0S41.9,18.74,41.91,18.73Zm-6-6.32,0,0s0,0,0,0h0S35.86,12.41,35.87,12.41Zm0,1.23,0,0h0s-.07,0-.06,0,0,0,0,0h0S35.89,13.63,35.89,13.64Zm0-.41v0a.06.06,0,0,1,.1,0v0S35.87,13.26,35.85,13.23Zm.09.71v0s0,0,0,0l0,0S36,13.93,35.94,13.94Zm.64,0s0,0-.07,0,0,0,0,0,0,0,.06-.06S36.63,13.93,36.58,14ZM40,18.32l0,0s0,0,0,0v0S40,18.31,40,18.32Zm.11-1.49h0s0-.08,0-.1h0A.06.06,0,0,1,40.08,16.83Zm1,1.2h0s0,0,0,0l0,0S41.09,18,41.08,18Zm.25.13a.48.48,0,0,1-.12,0l0,0,.09-.09.07.08S41.35,18.15,41.33,18.16Zm.07.23h0a.06.06,0,0,1,0-.1s0,0,0,0S41.43,18.37,41.4,18.39Zm.43.88s0,0,0,0h0s0-.08,0-.1h0v0A0,0,0,0,1,41.83,19.27Zm.14.38s0,0-.09,0l0,0,0,0H42c.05,0,.07.06.1.1A.07.07,0,0,1,42,19.65Zm.19-.48h0s0,0,0,0l0,0S42.17,19.18,42.16,19.17Zm.09.66h0s0,0,0,0v0S42.25,19.81,42.25,19.83Zm.22,1.38s0,0,0,0h0s0,0,0,0Zm.24,1s0,0,0,0a.27.27,0,0,1,0-.09h-.15s0,0,0-.07a.17.17,0,0,0,0-.07s0,0,0,0,.1,0,.1-.1l0,0s0,0,0,0a.13.13,0,0,1,0,.06v.2h.08s0,0,0,0Zm-.15-1.1s0,0,0,0h.11l0,0-.08.08Zm.58-.42s0,0,0,0,0,0,0,0l0,0S43.15,20.65,43.14,20.66Zm-15-10.51c-.06,0-.06,0-.13,0V10.1c.06,0,.06,0,.13,0Zm1.47.11h0s0,0,0,0l0,0S29.56,10.25,29.57,10.26Zm-1.36-.65a.09.09,0,0,1,.13,0A.08.08,0,0,1,28.21,9.61Zm.32-.16s0,0,0,0,0,0,0,0,.08-.05.13,0-.05,0-.06.06S28.55,9.46,28.53,9.45Zm.14.12s0,0,0,0l0,0s0,0,0,0Zm.07.19s0,0,0,0h0s0,0,0,0Zm0,.23h0s0,0,0,0l0,0S28.79,10,28.78,10Zm.14,1.09s0,0,0,0h0s0,0,0,0Zm.19-.14,0,0h0s-.07,0-.06,0,0,0,.05,0h0S29.11,10.93,29.11,10.94Zm.49.35,0,0h0c0-.06,0-.06,0-.12s.06,0,.07,0S29.62,11.27,29.6,11.29Zm.16-.28h0s0,0,0,0v0S29.77,11,29.76,11Zm.34-.17h0s0,0,0,0v0S30.13,10.83,30.1,10.84Zm.45,1.84,0,0s0,0,0,0v0S30.55,12.67,30.55,12.68Zm-.12-.25a.09.09,0,0,1,.13,0A.08.08,0,0,1,30.43,12.43Zm.13-.33s0,.07,0,.06,0,0,0-.05,0,0,0,0,0,0,0,0l0,0S30.56,12.09,30.56,12.1Zm.16.05a.06.06,0,0,1-.1,0v0h.07l0,0Zm.06.23v0s0,0,0,0v0S30.79,12.37,30.78,12.38Zm.18.73a.06.06,0,0,1-.1,0v0h.07l0,0Zm.06-.43v0s0,0,0,0v0S31,12.67,31,12.68Zm.13.54,0,0s0,0,0,0,0,0,0,0S31.15,13.21,31.15,13.22Zm.72-.23h0s0,0,0,0v0S31.87,13,31.87,13Zm.18-.25,0,0s0,0,0,0,0,0,0,0S32.05,12.73,32.05,12.74Zm.42.54,0,0h0s-.07,0-.06,0,0,0,0,0h0S32.47,13.27,32.47,13.28Zm.35.84v0s0,0,0,0v0S32.83,14.11,32.82,14.12Zm.88.88s0,0,0,0h0s0,0,0,0Zm-.29-.48h0s0,0,0,0h0S33.4,14.51,33.41,14.52Zm0,1v0h0s0,0,0,0,0,0,0,0S33.44,15.54,33.43,15.55Zm.15,0h-.15s0,0,0,0,.07,0,.09,0l-.06-.07,0-.07h.06s0,0,0,0a1,1,0,0,1,0,.17Zm.12.54L33.62,16a.07.07,0,0,1,0-.09l.08.08A.07.07,0,0,1,33.7,16.06Zm.36-.31h0s0,0,0,0l0,0S34.07,15.76,34.06,15.75Zm.18,0a.08.08,0,0,1,0-.12l.09.09S34.28,15.76,34.24,15.76Zm.39-.44,0,0h0s-.07,0-.06,0,0,0,0,0h0Zm1.77,2.12v0s0,0,0,0v0S36.43,17.43,36.4,17.44Zm.15,1.47a.09.09,0,0,1,.13,0A.08.08,0,0,1,36.55,18.91Zm1.23,1.17h-.07a.23.23,0,0,1,0-.14s0,0,.08,0l.06,0c.07,0,0,.1,0,.14Zm.21-.86a.08.08,0,0,1,.13,0A.09.09,0,0,1,38,19.22Zm.77.36v0s0,0,0,0,0,0,0,0S38.77,19.57,38.76,19.58Zm.32,1.62v0h0a0,0,0,0,1,0,0l0,0v0A.06.06,0,0,1,39.08,21.2Zm.09.45a.08.08,0,0,1,0-.13A.09.09,0,0,1,39.17,21.65Zm.83.28h0s0,0,0,0h0S40,21.94,40,21.93Zm.45,1.37,0,0s0,0,0,0v0S40.45,23.29,40.45,23.3Zm.3-.54,0,0h0s-.07,0-.06,0,0,0,0,0h0S40.75,22.75,40.75,22.76Zm.09.49h0s0,0,0,0l0,0S40.85,23.26,40.84,23.25Zm.63-.8s0,0,0,0,0,0,0,0,0-.08,0-.1h0v0A0,0,0,0,1,41.47,22.45Zm0-.45h0a0,0,0,0,1,0,0s0,0,0,0,0,0,0,0S41.52,22,41.51,22Zm.12.12a.32.32,0,0,1-.1-.11h.09C41.67,22.05,41.67,22.06,41.63,22.12Zm-.12-.6a.09.09,0,0,1,0,.13A.08.08,0,0,1,41.51,21.52Zm-.07.55c.05,0,0,.05,0,.09a.08.08,0,0,1-.12,0Zm-.23.9h0l0,0s0,0,0,0-.08,0-.1,0a0,0,0,0,1,0,0Zm-1.12.21,0,0h0c0,.06,0,.06,0,.12s-.06,0-.07,0S40.07,23.2,40.09,23.18Zm-.2,1H40s0,.06,0,.11h-.11C39.84,24.23,39.84,24.22,39.89,24.17Zm-.12.72a1,1,0,0,1,.17,0l0,0s0,0,0,0h-.17l0,0S39.75,24.9,39.77,24.89Zm-.48.3v0s0,0,0,0,0,0,0,0S39.26,25.2,39.29,25.19Zm-.18.72s0,0,0,0,0,0,0,0h0S39.08,25.92,39.11,25.91ZM24.85,11.42l0,0s0,0,0,0v0S24.85,11.41,24.85,11.42Zm.24.65a.09.09,0,0,1,.13,0S25.14,12.12,25.09,12.07Zm.65-.41v0s0,0,0,0l0,0S25.75,11.65,25.74,11.66Zm.18-.18v0s0,0,0,0l0,0S25.93,11.47,25.92,11.48Zm.19.11v0h0s0,0,0,0,0,0,0,0S26.12,11.58,26.11,11.59Zm0,0s0,0,0,0l0,0,0,0Zm.32,1h0s0-.08,0-.1h0A.06.06,0,0,1,26.46,12.57Zm.19-.61s0,0,0,0h0c-.05-.05-.05-.05,0-.11l.06.05S26.65,12,26.65,12Zm.21.92h-.05c-.06-.05,0-.11,0-.16s.06,0,.08,0a.09.09,0,0,1,0,.08S26.9,12.86,26.86,12.88Zm.24-.67h0s0,0,0,0h0S27.11,12.22,27.1,12.21Zm.21,2,0,0s0,0,0,0v0S27.31,14.17,27.31,14.18Zm.48.56h0l0,0,0,0h0s0,0,.05,0S27.83,14.74,27.79,14.74Zm.15-1h0s0,0,0,0h0S28,13.72,27.94,13.71Zm.82,1.09s0,.07,0,.06,0,0,0,0,0,0,0,0,0,0,0,0l0,0S28.76,14.79,28.76,14.8Zm.28.46v0s0,0,0,0v0S29.05,15.25,29,15.26Zm.6-.23s0,0,0,0h0s0,0,0,0Zm.23.07h0v0s0,0,0,0,0,0,0,0Zm.06.06,0,0s0,0,0,0l0,0Zm1.45,2.09s-.08,0-.1,0v0h0a0,0,0,0,1,.05,0l0,0S31.39,17.24,31.38,17.25Zm1.21,2.21a.06.06,0,0,1-.1,0,0,0,0,0,1,0,0,.06.06,0,0,1,.1,0A0,0,0,0,1,32.59,19.46Zm.93.43h0s0,0,0,0l0,0S33.53,19.9,33.52,19.89Zm.3-.59v0s0,0,0,0l0,0S33.85,19.29,33.82,19.3Zm.48,1.2s0,0,0,0,0,0,0,0l0,0S34.33,20.49,34.3,20.5Zm.3.11h0s0,0,0,0l0,0S34.61,20.62,34.6,20.61Zm.24,1.2h0s0,0,0,0v0S34.85,21.82,34.84,21.81Zm2.22.67v0s0,0,0,0l0,0S37.09,22.47,37.06,22.48ZM37.31,24s0,0,0-.06,0,0,0,0,0,0,0,0,0,0,0,0,0,0,0,0S37.34,24,37.31,24Zm.5,0,0,0s0,0,0,0,0,0,0,0S37.81,24,37.81,24Zm.47,1.14s0,0,0,0,0,0,0,0l0,0S38.29,25.15,38.28,25.16Zm.31,1.2-.09.08-.08-.08V26.3l.08-.09c.06,0,.07.07.11.09Zm0-1.24v0s0,0,0,0h0S38.65,25.11,38.62,25.12ZM38,24.89s0,0,0,0,0,0,0,0l0,0S37.94,24.9,38,24.89Zm.65-.55a.2.2,0,0,1-.11,0l-.07.06h0c0-.06,0-.06,0-.12h.23a0,0,0,0,1,0,0Zm-15-11.24s0,.06,0,.07,0,0-.06,0l0,0v0C23.6,13.05,23.6,13.05,23.66,13.1ZM23,12.31v0s0,0,0,0v0S23,12.32,23,12.31Zm-.21.2s0,0,0,0h0s0,0,0,0ZM23,14.25h0s0,0,0,0v0S23,14.26,23,14.25Zm.18-.4H23L23,13.78a.06.06,0,0,1,0-.07s0,0,0-.05h.11l.07.07a.06.06,0,0,1,0,.07S23.15,13.83,23.14,13.85Zm.18.71,0,0,0,0-.06-.06a.07.07,0,0,1,0-.07s0,0,0-.05h.12C23.37,14.51,23.37,14.52,23.32,14.56Zm.31.12s0,0,0,0h0s0,0,0,0Zm.05-.48h-.11c-.05,0-.05-.06,0-.12h.11C23.73,14.14,23.73,14.15,23.68,14.2Zm.13-.12,0,0a0,0,0,0,1,0,0c-.05,0-.07,0-.05-.09l0,0h0v0a.25.25,0,0,1,0,.08h0l0,0Zm5.55,5.38s0,0,0,0,0,0,0,0,0,0,0,0,0,0,0,.05,0,0,0-.06S29.35,19.46,29.36,19.46Zm-4.1-3.9v0s0,0,0,0,0,0,0,0S25.27,15.55,25.26,15.56Zm.37.77a.09.09,0,0,1,.13,0C25.71,16.38,25.68,16.38,25.63,16.33Zm.64.51s0,0,0,0h0s0,0,0,0Zm.17-.3,0,0s0,0,0,0,0,0,0,0S26.47,16.53,26.44,16.54Zm.19-.24h-.06l-.07.06h-.05l-.06-.05s0,0,0,0,0,0,.05,0a.27.27,0,0,0,.09,0l.07,0h.05C26.67,16.24,26.67,16.24,26.63,16.3Zm.07,1.12v0s0,0,0,0,0,0,0,0S26.71,17.41,26.7,17.42Zm.24-.12v0s0,0,0,0h0S27,17.29,26.94,17.3Zm0-.22s0,.07,0,.06,0,0,0-.05,0,0,0,0l0,0,0,0S27,17.07,27,17.08Zm.7,1.62-.06-.05s0,0,0,0,0,0,.05,0,0,0,0,0S27.69,18.64,27.65,18.7Zm.08-.56,0,0s0,0,0,0-.07,0-.06,0,0,0,.05,0h0S27.73,18.13,27.73,18.14Zm.53,1.09h0s0-.08,0-.1h0A.06.06,0,0,1,28.26,19.23Zm.07-.37s0,.05,0,.07,0,.06,0,.08l-.08-.09c0-.05.07-.06.08-.1h.06A0,0,0,0,1,28.33,18.86Zm.33.87-.05-.07-.06.07c-.05-.07-.05-.07,0-.13h.11C28.7,19.66,28.7,19.66,28.66,19.73Zm.78.35h-.05c-.05-.06-.05-.06,0-.12h.06C29.48,20,29.48,20,29.44,20.08Zm.3-.24h0s0,0,0,0v0S29.77,19.83,29.74,19.84Zm.66,1.85h0s0,0,0,0h0S30.41,21.7,30.4,21.69Zm.81-.5c-.05,0-.05,0-.11,0v-.05c0-.05,0-.05.11,0Zm.29,1s0,0,0,0h0s0,0,0,0Zm.23-.54h0v0s0,0,0,0,0,0,0,0S31.74,21.71,31.73,21.7Zm.05,0,0,0,0,0,0,0S31.76,21.69,31.78,21.71Zm0,.88h0s0,0,0,0h0S31.79,22.6,31.78,22.59Zm.75-.85,0,0h0s-.07,0-.06,0,0,0,0,0h0S32.53,21.73,32.53,21.74Zm.69,1.93h0s0,0,0,0h0S33.23,23.68,33.22,23.67Zm-.06-1.07s0-.05,0-.09l.06-.05,0,0s0,0,0,.05,0,0,0,0l.06.05S33.27,22.61,33.16,22.6Zm.3,1.86,0,0s0,0,0,0,0,0,0,0S33.49,24.45,33.46,24.46Zm0-1.07a.09.09,0,0,1,0-.13A.08.08,0,0,1,33.46,23.39Zm1.07,1.46s0,0,0,0,0,0,0,0h0S34.52,24.86,34.53,24.85Zm-.41-.5s0,0,0,0h0s0,0,0,0Zm-.29-1.2,0,0s0,0,0,0,0,0,0,0S33.8,23.16,33.83,23.15Zm0,1.66h0s0,0,0,0l0,0S33.83,24.82,33.82,24.81Zm.18-.24h0s0,0,0,0l0,0S34,24.58,34,24.57Zm.18.49s0,0-.06,0L34,25s0,0,0,0h.06l.08.09S34.21,25.06,34.18,25.06Zm.21.58a.06.06,0,0,1-.1,0,0,0,0,0,1,0,0s.08,0,.1,0A0,0,0,0,1,34.39,25.64Zm.16,0h0a0,0,0,0,1,0,0s0,0,0,0,0,0,0,0S34.56,25.67,34.55,25.66Zm.06.06,0,0s0,0,0,0l0,0Zm.18-1.56h-.14a.81.81,0,0,1-.06-.08s0,0,0,0a0,0,0,0,1,0,0h.17C34.83,24.1,34.83,24.1,34.79,24.16ZM35,25.84H34.9c0-.06,0-.06,0-.12H35C35,25.79,35,25.79,35,25.84Zm.56.22v0s0,0,0,0,0,0,0,0S35.53,26.05,35.52,26.06Zm.13-.18,0,0s0,0,0,0,0,0,0,0S35.65,25.87,35.65,25.88Zm.45,2.53h0s0,0,0,0h0S36.11,28.42,36.1,28.41Zm.74-1.62h0s0,0,0,0,0,0,0,0,0,0,0,0A0,0,0,0,1,36.84,26.79Zm.76-1.31.09.1v.11c0,.06-.09,0-.13,0s-.08-.06-.09-.09Zm-.17.49v0s0,0,0,0l0,0S37.4,26,37.43,26Zm0,1.26c0,.07,0,.13,0,.18l-.06-.07s0-.06,0-.11Zm-.14-1.15c0,.05,0,.08,0,.13A.09.09,0,0,1,37.24,26.08Zm-.33,2.07s0,0,0,0h0s0,0,0,0Zm0-1.44,0,0s0,0,0,0l0,0Zm-.58-.9v0s0,0,0,0l0,0S36.32,25.82,36.33,25.81Zm-.46.77h0s0,0,0,0h0S35.86,26.57,35.87,26.58Zm.24.28s0,0,0,0a0,0,0,0,1,0,0s0,0,0,0S36.11,26.87,36.11,26.86Zm-.6,2.53h0s0,0,0,0v0S35.48,29.4,35.51,29.39Zm-.24-.18s0,0,0,0,0,0,0,0l0,0S35.24,29.22,35.27,29.21ZM18.38,13.51c-.06.05-.06.05-.13,0s.05,0,.07-.06,0,0,0,0a.06.06,0,0,1,0,.05A0,0,0,0,0,18.38,13.51Zm.5,1h0s0,0,0,0h0S18.89,14.5,18.88,14.49Zm2.63,1.3,0,0s0,0,0,0v0S21.5,15.8,21.51,15.79Zm.08.21s0,.05.06.06,0,0,0,.05,0,0,0,0h0l-.06.07,0-.07C21.51,16.06,21.56,16,21.59,16Zm-1.8-2.32h0s0,0,0,0h0S19.78,13.67,19.79,13.68Zm.08.73c-.06,0-.06,0-.11,0v-.06c.06,0,.06,0,.11,0Zm1.71,2.67a.16.16,0,0,1-.07,0c-.07,0-.07,0-.08-.1a.42.42,0,0,1,.25,0Zm.39.12s0,0,0,0l0,0s0,0,0,0h0s0,0,.05,0S22,17.2,22,17.2Zm.12-.68,0,0s0,0,0,0,0,0,0,0S22.09,16.51,22.09,16.52Zm.15.14,0,0s0,0,0,0v0S22.27,16.65,22.24,16.66Zm.1-.81a.09.09,0,0,1-.08,0s-.08,0-.1,0a.4.4,0,0,1,0-.11,0,0,0,0,1,0,0s0,0,0,0l.05,0s0,0,.05,0Zm.44.57h0s0,0,0,0,0,0,0,0S22.81,16.41,22.78,16.42Zm.27.34s-.08,0-.1,0a0,0,0,0,1,0,0s.08,0,.1,0A0,0,0,0,1,23.05,16.76Zm1,1.88s0,0,0-.06,0,0,0,0l0,0s0,0,0,0a0,0,0,0,1,0,0S24.08,18.63,24.05,18.64Zm.47.24s0,0,0,0,0,0,0,0v0S24.55,18.87,24.52,18.88Zm1.44.68s0,0,0,0h0s0,0,0,0Zm-1.08-1h0s0,0,0,0h0S24.89,18.52,24.88,18.51Zm.42,2.41s0,0,0,0,0,0,0,0l0,0S25.33,20.91,25.3,20.92Zm.14-.14v0s0,0,0,0,0,0,0,0S25.45,20.77,25.44,20.78Zm.62.39s0,0,0,.09l-.09.08a1.21,1.21,0,0,1-.19,0l0-.09s0,0,.05,0,.05,0,.05,0,.11,0,.14-.08,0,0,.05,0S26.06,21.14,26.06,21.17Zm0-.92c-.06,0-.11,0-.18,0l.07-.08s0-.08,0-.09l.09.09S26.13,20.24,26.1,20.25Zm.17-.34s0,0-.06.06-.05-.09,0-.13.05,0,.07,0S26.28,19.89,26.27,19.91Zm.38,1.72h0s0,0,0,0,0,0,0,0S26.65,21.61,26.65,21.63Zm.11-.91c-.05,0,0,.1-.07.15l0,0-.06-.06s0,0,0-.05,0,0,.06-.06h.06S26.78,20.72,26.76,20.72Zm0-.17s0,0-.07,0-.06,0-.08-.05a.3.3,0,0,1,.16,0,.06.06,0,0,1,0,.08S26.75,20.56,26.74,20.55Zm.07.79s0,0,0,0h0s0,0,0,0Zm.15-.09,0,0h0c0-.06,0-.06,0-.12s.06,0,.07,0S27,21.23,27,21.25Zm.22-.41s0,0,0,0,0,0,0,0l0,0S27.19,20.83,27.18,20.84Zm3.63,4.07s0,0,0,0,0,0,0,0v0S30.8,24.92,30.81,24.91Zm-1.92-1.8s0,0,0,0,0,0,0,0l0,0S28.88,23.12,28.89,23.11Zm-1.43-1.75s0,0,0,0h0s0,0,0,0Zm-.05.54a0,0,0,0,1,0,0s0,0,0,0h0S27.4,21.89,27.41,21.9Zm.06,1h-.06s0,0,0-.12h.06C27.51,22.84,27.51,22.84,27.47,22.9Zm.18-.84h-.06s0,0,0-.12h.06C27.69,22,27.69,22,27.65,22.06Zm.23,1.19h0s0,0,0,0h0S27.89,23.26,27.88,23.25Zm.08.35v0s0,0,0,0a0,0,0,0,1,0,0S28,23.59,28,23.6Zm.11-1.67s0,0,0,0h0s0,0,0,0Zm.18-.16v0s0,0,0,0h0S28.22,21.78,28.25,21.77Zm0,.14s0,0,.05,0,0,0,0,0l.05-.06c.07.05,0,.11,0,.15s-.06,0-.1,0L28.25,22S28.22,21.92,28.22,21.91Zm.28,2c-.05,0-.09,0-.13.06s-.07,0-.09,0V23.9s0,0,.05,0h.16S28.52,23.9,28.5,23.91Zm0-.38v0s0,0,0,0,0,0,0,0S28.46,23.54,28.47,23.53Zm.12.15v0s0,0,0,0h0S28.61,23.68,28.59,23.68Zm.09-.67c-.05,0-.1,0-.14,0l-.08-.09,0,0a1.15,1.15,0,0,1,.18,0c.05,0,0,.06,0,.09Zm.13.25a.11.11,0,0,1,0,0s0,0,0,0a.76.76,0,0,1,0,.15s0,0,0,0l0,0a.23.23,0,0,1,0-.14s0,0,.05,0a.21.21,0,0,1,0-.08l0,0A0,0,0,0,1,28.81,23.26Zm.12.09v0h0s0,0,0,0,0,0,0,0S28.94,23.34,28.93,23.35Zm0,0s0,0,0,0,0,0,0,0l0,0Zm.26-.61h0s0,0,0,0,0,0,0,0S29.23,22.69,29.22,22.71Zm0,1.5h0s0,0,0,0h0S29.27,24.22,29.26,24.21Zm.18-.71a1,1,0,0,1-.17,0s0,0,0,0h.08l.05-.05h.07C29.49,23.45,29.49,23.45,29.44,23.5Zm.24,1.79h0s0,0,0,0v0S29.69,25.3,29.68,25.29Zm.07-1.71h0s0,0,0,0h0S29.74,23.57,29.75,23.58Zm0,1.27v0h0s0,0,0,0,0,0,0,0S29.78,24.84,29.77,24.85Zm.06-.09a.11.11,0,0,1,0,0s0,0-.05,0a.25.25,0,0,1,0-.08l0,0A0,0,0,0,1,29.83,24.76Zm.18-.07h0s0,0,0,0,0,0,0,0S30,24.67,30,24.69Zm.43-.49v0h0a0,0,0,0,1,.05,0l0,0v0A.06.06,0,0,1,30.44,24.2Zm.11,1.62,0,0s0,0,0,0v0S30.55,25.81,30.55,25.82Zm.28-.16h-.06c0-.05,0-.05,0-.12h.06C30.87,25.6,30.87,25.6,30.83,25.66ZM31,26s0,0,0,0h0s0,0,0,0Zm.21-.38c0,.05-.08.05-.13,0s0,0,.06-.06,0,0,.05,0,0,0,0,.05S31.16,25.56,31.16,25.57Zm0-.14L31,25.34c0-.05.05,0,.09,0A.08.08,0,0,1,31.13,25.43Zm.2.21,0,0s0,0,0,0v0S31.33,25.63,31.33,25.64Zm.09,1v0s0,0,0,0l0,0S31.45,26.61,31.42,26.62Zm.2.59a.06.06,0,0,1-.1,0v0h0a0,0,0,0,1,.05,0l0,0Zm-.05-.77h0l0,0s0,0,0,0h0s0,0,.05,0S31.61,26.44,31.57,26.44Zm.15-.07h0s0,0,0,0l0,0S31.73,26.38,31.72,26.37Zm1.74,2.71,0,0s0,0,0,0,0,0,0,0S33.49,29.07,33.46,29.08Zm0-.32v0s0,0,0,0l0,0S33.49,28.75,33.48,28.76Zm1.2-.56h0s0,0,0,0h0S34.66,28.19,34.68,28.2Zm-.32,1.9h0s0,0,0,0,0,0,0,0S34.39,30.09,34.36,30.1Zm.06-.37h0s0,0,0,0h0S34.43,29.74,34.42,29.73Zm.06-.29v0s0,0,0,0h0S34.51,29.43,34.48,29.44Zm-1,1.74s0,.05.07.07,0,0,0,0a.06.06,0,0,1,0,0h0S33.43,31.23,33.46,31.18Zm-.07-.27s0,0,0,0,0,0,0,0l0,0S33.38,30.92,33.39,30.91Zm-.53.82H33c.05.05.05.05,0,.11a1.08,1.08,0,0,1-.18,0s0,0,0,0Zm-.11-.36h0s0,0,0,0,0,0,0,0S32.72,31.38,32.75,31.37ZM11.83,20.73h0s0,0,0,0,0,0,0,0S11.83,20.71,11.83,20.73Zm2.33-2.53s0,0,0,0,0,0,0,0l0,0S14.17,18.19,14.16,18.2Zm.08-.43s0,0-.05,0l0,0a.41.41,0,0,1,0-.11,0,0,0,0,1,0,0s0,0,.05,0Zm0,.21v0s0,0,0,0v0S14.29,18,14.26,18Zm.42-.6-.08-.08a.07.07,0,0,1,0-.09l.08.08A.07.07,0,0,1,14.68,17.38Zm.18-.13h0s0,0,0,0h0S14.87,17.26,14.86,17.25Zm.36-.29h0s0,0,0,0,0,0,0,0S15.25,17,15.22,17Zm1-.39v0h0s0,0,0,0,0,0,0,0S16.22,16.56,16.21,16.57Zm0,0s0,0,0,0l0,0,0,0S16.25,16.54,16.24,16.54Zm.1-1.41a.08.08,0,0,1-.13,0A.09.09,0,0,1,16.34,15.13Zm-.33.35h0s0,0,0,0h0S16,15.47,16,15.48Zm.92-.76,0,0s0,0,0,0,0,0,0,0S16.93,14.71,16.93,14.72ZM17.1,17v0s0,0,0,0v0S17.11,17,17.1,17ZM9.78,26.37s-.08,0-.1,0v0h.07l0,0S9.79,26.36,9.78,26.37Zm1.91-2.56h0s0,0,0,0,0,0,0,0S11.66,23.82,11.69,23.81Zm0,.25h0s0,0,0,0h0S11.68,24.05,11.69,24.06ZM10,26.84s0,0,0,0,0,0,0,0v0S10,26.83,10,26.84Zm0-.1-.09-.09s.08,0,.13,0S10.05,26.73,10,26.74Zm.2-.62v0s0,0,0,0v0S10.21,26.11,10.2,26.12Zm.88-1.77H11s0,0,0,0l.08-.09.09.09S11.1,24.33,11.08,24.35Zm.25.77-.06-.05,0,0s0,0,0,0,0,0,0,0S11.36,25.06,11.33,25.12Zm.14-.86a.08.08,0,0,1,.13,0A.09.09,0,0,1,11.47,24.26Zm.21,1.15h0s0,0,0,0l0,0S11.69,25.42,11.68,25.41Zm0-.68a.09.09,0,0,1,.13,0A.08.08,0,0,1,11.65,24.73Zm.54-.76h0s0,0,0,0v0S12.19,24,12.19,24Zm0-.72h0s0,0,0,0h0S12.17,23.26,12.16,23.25Zm.06-.17h0s0,0,0,0,0,0,0,0S12.25,23.07,12.22,23.08Zm1.63-.17h0s0,0,0,0v0S13.82,22.92,13.85,22.91Zm-.18-1.56s0,0,0,0,0,0,0,0l0,0S13.64,21.36,13.67,21.35Zm0,1.5,0,0s0,0,0,0h0S13.66,22.85,13.67,22.85Zm-1.15,1.6h0s0,0,0,0h0S12.53,24.46,12.52,24.45Zm.12-.54h0s0,0,0,0h0S12.65,23.92,12.64,23.91Zm.06-.65s0,0,0,0,0,0,0,0l0,0S12.73,23.25,12.7,23.26Zm.09.46,0,0s0,0,0,0,0,0,0,0S12.79,23.71,12.79,23.72Zm.18-.79a.09.09,0,0,1,.13,0A.08.08,0,0,1,13,22.93Zm.37.09s0,0,0,0a.71.71,0,0,1-.09.07s-.07,0-.1,0l.12-.12s0,0,.05,0S13.34,23,13.34,23Zm.51.24h-.19l0,0c.11,0,.19,0,.26,0Zm.37-1.21a.06.06,0,0,1-.1,0v0h0a0,0,0,0,1,0,0l0,0Zm0-.17s0,0,0,0,0,0,0,0h0S14.29,21.87,14.26,21.88Zm1.35-.44s0,0,0,.06,0,0-.05,0a.06.06,0,0,1,0-.05.22.22,0,0,0,0-.08c.05-.05.05-.05.11,0Zm.95-2.4s0,0,0,0,0,0,0,0l0,0S16.57,19,16.56,19Zm.16.86,0,0s0,0,0,0,0,0,0,0S16.75,19.89,16.72,19.9Zm.44-2s0,0,0,0,0,0,0,0h0S17.17,17.89,17.16,17.9Zm.09,1v0s0,0,0,0h0S17.27,18.94,17.25,18.94Zm.28.33a.09.09,0,0,1,.13,0C17.61,19.32,17.58,19.32,17.53,19.27ZM17.66,18s0,0,0,0h0s0,0,0,0Zm.11,1.14,0,0s0,0,0,0-.07,0-.06,0,0,0,.05,0h0S17.77,19.15,17.77,19.16Zm.16-.21s0,0-.06.05h-.09a.06.06,0,0,1-.05,0s0,0,0,0,0,0,.06-.06.07,0,.09,0a.06.06,0,0,1,.05,0S17.94,18.93,17.93,19ZM18,18.7H18c0-.06,0-.06,0-.12h.06C18.09,18.65,18.09,18.65,18,18.7Zm-.41-2.09v0s0,0,0,0l0,0S17.6,16.62,17.63,16.61Zm-.12.49h0s0,0,0,0h0S17.5,17.09,17.51,17.1Zm1.14,1.43a.08.08,0,0,1,0-.13A.09.09,0,0,1,18.65,18.53Zm.23-1.28h0s0,0,0,0l0,0S18.89,17.26,18.88,17.25Zm.39,1.84s0,0,0,0h0a.06.06,0,0,1,0-.1h0v0A0,0,0,0,1,19.27,19.09ZM10.61,29.45h0s0,0,0,0,0,0-.06,0,0,0,0,0l0,0S10.59,29.46,10.61,29.45Zm.08.21,0,0s0,0,0,0-.07,0-.06,0,0,0,.05,0h0S10.69,29.65,10.69,29.66Zm.06.11a.09.09,0,0,1,.13,0A.08.08,0,0,1,10.75,29.77Zm.34-1.05s0,.05.06.06,0,0,0,0,0,0-.05,0,0,0,0,0S11,28.77,11.09,28.72Zm0,1a.09.09,0,0,1,.13,0C11.13,29.76,11.1,29.76,11.05,29.71Zm.23-.41v0s0,0,0,0v0S11.29,29.29,11.28,29.3Zm.12-1.19h0s0,0,0,0,0,0,0,0S11.41,28.09,11.4,28.11Zm.14,0a.41.41,0,0,1,0-.11l0,0,.08.08-.08.09S11.55,28.17,11.54,28.15Zm.17.19,0,0s0,0,0,0-.07,0-.06,0,0,0,.05,0h0S11.71,28.33,11.71,28.34Zm.39-.76a.08.08,0,0,1,0,.13A.09.09,0,0,1,12.1,27.58Zm0,.58s0-.08,0-.09l.09.09S12.18,28.19,12.13,28.16Zm.21.2s0,0,0,0,0,0,0,0h0S12.37,28.35,12.34,28.36Zm.18-.07h0s0,0,0,0v0S12.53,28.3,12.52,28.29Zm.21-.79,0,0s0,0,0,0-.07,0-.06,0,0,0,.05,0h0S12.73,27.49,12.73,27.5Zm.36-.11h0s0,0,0,0,0,0,0,0S13.09,27.37,13.09,27.39Zm.53-.48s0,0,0,0,0,0-.06-.06.09-.05.13,0S13.65,26.89,13.62,26.91Zm.13-.31c-.06,0-.06,0-.11,0v-.06c.06,0,.06,0,.11,0Zm0-.81s-.08,0-.09,0l.09-.09S13.76,25.74,13.73,25.79ZM14,25.6l-.06-.05,0,0s0,0,0,0h0C14,25.54,14,25.54,14,25.6Zm.17-.13h0s0,0,0,0h0S14.15,25.48,14.14,25.47Zm1.59-.37-.05,0a.13.13,0,0,1,0,.06,0,0,0,0,1,0,0l-.09-.09.07,0V25s.08,0,.11,0Zm.53-.06s0,0,0,0,0,0,0,0v0S16.27,25,16.26,25Zm.07-1.39c0,.05-.07.05-.11,0l0,0-.05,0s.07,0,.11,0a.07.07,0,0,1,.07,0Zm.34.75-.07,0s-.06,0-.09-.05a.41.41,0,0,1,0-.1,0,0,0,0,1,0,0,0,0,0,0,1,.05,0l.14.15Zm.45-.23s0,0,0,0l-.08.09H17a.52.52,0,0,1-.1-.11l0-.08h.16c0-.05,0-.06.06-.06s.05,0,.05.06S17.17,24.15,17.12,24.17Zm0-1s0,0,0,0a.4.4,0,0,1,0-.11s0,0,0,0l.09.09Zm.28-.72h0s0,0,0,0h0S17.39,22.42,17.38,22.41Zm2.54-2v0s0,0,0,0a0,0,0,0,1,0,0S19.93,20.41,19.92,20.42Zm-.1-.73c-.05,0-.08,0-.13,0A.09.09,0,0,1,19.82,19.69ZM9.38,35s0,.07,0,.06,0,0,0-.05,0,0,0,0l0,0,0,0S9.38,35,9.38,35Zm4.23-4.72,0,0s0,0,0,0h0S13.6,30.23,13.61,30.24ZM9.52,35.38l0,0s0,0,0,0v0S9.55,35.37,9.52,35.38Zm.33-.11s-.06-.06-.1-.06-.06,0-.07,0L9.83,35c.05,0,0,.1,0,.15l.05.06A.06.06,0,0,1,9.85,35.27Zm.24.21,0,0h0s-.07,0-.06,0,0,0,0,0h0Zm.18-.06,0,0s0,0,0,0-.07,0-.06,0,0,0,.05,0h0S10.27,35.41,10.27,35.42Zm.09-.45h0c-.05-.07-.05-.07,0-.13h.06C10.4,34.91,10.4,34.91,10.36,35Zm.13-.85s0,0,0,0h0s0,0,0,0Zm0-.9v0s0,0,0,0h0S10.57,33.21,10.54,33.22Zm.27-.07h0s0,0,0,0,0,0,0,0S10.81,33.13,10.81,33.15Zm.51-.23v0s0,0,0,0l0,0S11.35,32.91,11.32,32.92Zm.68.28v0s0,0,0,0h0S12,33.19,12,33.2Zm.1-.17h0s0,0,0,0l0,0S12.11,33,12.1,33Zm1.09-.54s0,0,0,0l0,0s0,0,0,0Zm.29-1.73s0,0,0,0,0,0,0,0l0,0S13.51,30.75,13.48,30.76Zm.12.24c0-.06,0-.06,0-.12s.06,0,.07,0,0,0,0,.06l0,0Zm.15.94,0,0h0s-.07,0-.06,0,0,0,0,0h0S13.75,31.93,13.75,31.94ZM14,30.46s0,0,0-.06,0,0,0,0l0,0s0,0,0,0,0,0,0,0S14,30.45,14,30.46Zm.38.21v0h0s0,0,0,0,0,0,0,0S14.36,30.66,14.35,30.67Zm.11,0h-.11c0-.06,0-.08.1-.06a0,0,0,0,1,0,0Zm.12.41s0,0,0,0,0,0,0,0h0S14.59,31,14.58,31Zm.06-1.49a.06.06,0,0,1-.05,0h0s0-.07,0-.12l.07.07S14.65,29.53,14.64,29.55Zm.28.24h0s0,0,0,0l0,0S14.93,29.8,14.92,29.79Zm.33-1.14h0s0,0,0,0v0S15.25,28.63,15.25,28.65Zm.33.91s0,0,0,0,0,0,0,0l0,0S15.61,29.55,15.58,29.56ZM15.8,29c-.06.05-.06.05-.12,0v0c.05-.05.05-.05.12,0Zm0-.34h0a.06.06,0,0,1,0-.1h0A.06.06,0,0,1,15.84,28.65Zm.23.25H16L16,29h-.08a0,0,0,0,1,0,0l.14-.14h.07S16.11,28.87,16.07,28.9Zm.05-.23H16s0,0,0,0l.08-.09h.07l.07.09S16.14,28.65,16.12,28.67Zm.48-.2h0s0,0,0,0l0,0S16.61,28.48,16.6,28.47Zm.12-.12h0s0,0,0,0l0,0S16.73,28.36,16.72,28.35Zm.2-.12s-.08,0-.1,0v0h0a0,0,0,0,1,0,0l0,0S16.93,28.22,16.92,28.23Zm.46-.66h0s0,0,0,0h0S17.39,27.58,17.38,27.57Zm.15-.67,0,0h0s-.07,0-.06,0,0,0,0,0h0Zm.06-.3,0,0h0s-.07,0-.06,0,0,0,.05,0h0S17.59,26.59,17.59,26.6Zm.12.36a.06.06,0,0,1-.1,0,0,0,0,0,1,0,0,.06.06,0,0,1,.1,0S17.7,27,17.71,27Zm.15-.22s0,0,0,0,0,0,0,0h0S17.89,26.73,17.86,26.74Zm.07-.65a.08.08,0,0,1,0-.13A.09.09,0,0,1,17.93,26.09Zm.2.86a0,0,0,0,1,0,0h0s0,0,0,0,0,0,0,0S18.14,26.94,18.13,27Zm.06-.09a.11.11,0,0,1,0,.05s0,0,0,0a.21.21,0,0,1,0-.08,0,0,0,0,1,0,0A0,0,0,0,1,18.19,26.86Zm.33-1.21h0s0,0,0,0h0S18.53,25.66,18.52,25.65Zm.26.12h0s0,0,0,0,0,0,0,0S18.79,25.75,18.78,25.77Zm.4.36h0s0,0,0,0h0S19.19,26.14,19.18,26.13ZM19.66,25s0,0,0,0,0,0,0,0v0S19.69,25,19.66,25Zm.57-.93v0h0s0,0,0,0,0,0,0,0S20.24,24.06,20.23,24.07Zm0,0s0,0,0,0l0,0,0,0Zm.32.7v0s0,0,0,0,0,0,0,0S20.59,24.73,20.58,24.74Zm.17-1.36h-.08c-.07,0-.07,0-.07-.08a.05.05,0,0,1,.09,0,.31.31,0,0,1,.09.07S20.76,23.38,20.75,23.38Zm.71-.73h0s0,0,0,0h0S21.47,22.66,21.46,22.65Zm2.29.24s-.07,0-.1,0v-.05l-.06-.07v-.06l.09-.09h0s0,0,0,.08,0,.05,0,.07,0,0,0,.06A.34.34,0,0,1,23.75,22.89ZM10.37,38.52h0s0,0,0,0h0S10.36,38.51,10.37,38.52Zm0,.22a.07.07,0,0,1-.09,0l.08-.08a.07.07,0,0,1,.09,0Zm2.93-4s.07,0,.08,0,0,0,0,.06l0,0h0A.08.08,0,0,1,13.3,34.78ZM10.54,39l0,0s0,0,0,0,0,0,0,0S10.57,39,10.54,39Zm.32-.32v0s0,0,0,0h0S10.87,38.71,10.86,38.72Zm.43-1.25h0s0,0,0,0,0,0,0,0S11.29,37.45,11.29,37.47Zm.36.83,0,0s0,0,0,0,0,0,0,0S11.65,38.29,11.65,38.3ZM12.46,37h0s0,0,0,0l0,0S12.47,37,12.46,37Zm.25-.52c-.05,0-.05-.08,0-.13A.09.09,0,0,1,12.71,36.47Zm.13-1h0s0,0,0,0,0,0,0,0S12.85,35.47,12.84,35.49Zm.52.55h0c0,.05,0,.07-.09.05a0,0,0,0,1,0,0v0h.1a0,0,0,0,1,0,0s0,0,0,0l0,0Zm.06-.37h0s0,0,0,0v0S13.43,35.68,13.42,35.67Zm.19-.05h0v0s0,0,0,0,0,0,0,0S13.62,35.63,13.61,35.62Zm.06.06,0,0s0,0,0,0l0,0Zm0,.39a.09.09,0,0,1,.13,0A.08.08,0,0,1,13.69,36.07Zm.87-2.2h0s0,0,0,0h0S14.57,33.88,14.56,33.87Zm.62.6s-.08,0-.1,0v0h.07l0,0S15.19,34.46,15.18,34.47Zm0-.53s0,0,0,0h0s0,0,0,0Zm.23-1.38s0,0,0-.05,0,0,0,0l0,0,0,0s0,0,0,0S15.42,32.57,15.4,32.56Zm.07.54s0,0,0-.06,0,0,0,0,0,0,0,0,0,0,0,0a0,0,0,0,1,0,0S15.5,33.09,15.47,33.1Zm.11-.55h0s0,0,0,0h0S15.59,32.56,15.58,32.55Zm.2,1.44s0,0,0,0h0s0,0,0,0Zm.28-2h0s0,0,0,0h0S16.07,32,16.06,32Zm.09.37s0,.07,0,.06,0,0,0,0,0,0,0,0l0,0,0,0S16.15,32.37,16.15,32.38Zm.06-.56,0,0s0,0,0,0v0S16.21,31.81,16.21,31.82Zm0,.32s0,0,0,0,0,0,0,0h0S16.27,32.13,16.24,32.14Zm.51,1.06a.15.15,0,0,1-.1,0,1.24,1.24,0,0,1,0-.25l.09-.11C16.76,32.93,16.76,32.93,16.75,33.2Zm0-1h0c-.05-.06-.05-.06,0-.12h0C16.77,32.15,16.77,32.15,16.72,32.2Zm.08.28s0,0,0,0,0,0,0,0h0S16.81,32.47,16.8,32.48ZM17.21,31h0a0,0,0,0,1,0,0s0,0,0,0,0,0,0,0S17.22,31,17.21,31Zm.05,0,0,0,0,0,0,0S17.24,31,17.26,31Zm0,.28a0,0,0,0,1,0,0s.08,0,.1,0,0,0,0,0A.06.06,0,0,1,17.25,31.29Zm.14,1.21-.06,0s0,0,0,0,0,0,.05,0h0C17.42,32.44,17.42,32.44,17.39,32.5Zm.47-.53s0,0-.06-.07,0,0,0,0a.06.06,0,0,1,.05,0,0,0,0,0,0,0,0C17.91,31.9,17.91,31.9,17.86,32Zm1.62-3.2h0s0,0,0,0h0S19.49,28.78,19.48,28.77Zm.15,1.43,0,0s0,0,0,0,0,0,0,0S19.63,30.19,19.63,30.2Zm1.21-2.41a.08.08,0,0,1-.13,0A.09.09,0,0,1,20.84,27.79Zm-.23.95h.13l0,0s0,0,0,0h-.11S20.6,28.76,20.61,28.74Zm0,.28L20.57,29s0,0,0,0,0,0,.05,0,0,0,0,0l.05.06h.12s0,0,0,0l0,0A1,1,0,0,1,20.63,29Zm.24.13s0,0-.06.06,0-.09,0-.13.05,0,.07,0S20.88,29.13,20.87,29.15ZM21,26.91h0s0,0,0,0h0S21,26.92,21,26.91Zm.2-.12s0,0,0,0h0s0,0,0,0Zm.17,1.8s0,0,0,0h0s0,0,0,0Zm.6-.83h0v0s0,0,0,0,0,0,0,0Zm.06.06s0,0,0,0,0,0,0,0,0,0,0,0Zm0-.24h0s0,0,0,0,0,0,0,0S22.09,27.57,22.06,27.58Zm.24-1.15h0s0,0,0,0h0S22.31,26.44,22.3,26.43Zm.06.66h0s0,0,0,0h0S22.37,27.1,22.36,27.09Zm.38.12h0s0,0,0,0,0,0,0,0S22.75,27.19,22.74,27.21Zm.22-1h0s0,0,0,0h0S23,26.26,23,26.25ZM23,26h0s0,0,0,0,0,0,0,0S23.05,26,23,26Zm.72-.48v0s0,0,0,0h0S23.77,25.47,23.74,25.48Zm0-.12s0,0,0,0,0,0,0,0l0,0S23.77,25.35,23.74,25.36Zm.12-.23-.06.05h-.12c0-.06,0-.06,0-.12a.75.75,0,0,0,.15,0s0,0,.05,0S23.88,25.11,23.86,25.13Zm0-.86h0s0,0,0,0l0,0S23.87,24.28,23.86,24.27Zm.25.54s0,0,0,0h0s0,0,0,0Zm.47.48h0s0,0,0,0v0S24.59,25.3,24.58,25.29ZM24.85,23h0s0,0,0,0h0l0,0,0,0s0,0,0,0a0,0,0,0,1,0,0,.11.11,0,0,1-.08,0l0,0A0,0,0,0,1,24.85,23Zm-.1.31s0,0,0,0,0,.08,0,.1h0A.06.06,0,0,1,24.75,23.34Zm-.34.29h0s0,0,0,0,0,0-.06,0,0,0,0,0l0,0S24.39,23.64,24.41,23.63ZM24.1,22a.2.2,0,0,1,.09.09l-.08.09L24,22Zm.06.35v0s0,0,0,0v0S24.19,22.29,24.16,22.3Zm1,1.05s0,0,0,0l0,0v-.11l0,0,0,0ZM11.64,41.73a.06.06,0,0,1-.05,0h0q-.08,0,0-.12s0,.05.06.06S11.65,41.71,11.64,41.73Zm0-1s-.07,0-.12,0,.05,0,.06-.06,0,0,.05,0a.06.06,0,0,1,0,0S11.65,40.74,11.65,40.75Zm.09.57s0,0,0,0,0,0,0,0h0S11.77,41.31,11.74,41.32Zm.75-1.23,0,0h0a.06.06,0,0,1,0-.1h0v0A0,0,0,0,1,12.49,40.09Zm.21.15v0s0,0,0,0h0S12.73,40.23,12.7,40.24Zm.36.72,0,0s0,0,0,0v0S13.09,41,13.06,41Zm.08-.19h0a.06.06,0,0,1,0-.1h0S13.17,40.75,13.14,40.77Zm.3-1.75v0s0,0,0,0l0,0S13.45,39,13.44,39Zm.25,1.32,0,0h-.11s0,0,0,0l0,0h.11S13.69,40.33,13.69,40.34Zm.06-1.08,0,0h0s-.07,0-.06,0,0,0,0,0h0Zm.3.6,0,0s0,0,0,0v0S14.05,39.85,14.05,39.86Zm.29.12s0,0,0,0,0,0,0,0l0,0S14.35,40,14.34,40Zm.31-1.5s.08,0,.13,0A.09.09,0,0,1,14.65,38.48Zm.27.92h-.05c0-.06,0-.06,0-.12h.05C15,39.35,15,39.35,14.92,39.4Zm.26-.26s0,0,0,0,0,0,0,0,0,0,0,0S15.19,39.13,15.18,39.14Zm.16-.23h0s0,0,0,0l0,0S15.35,38.92,15.34,38.91Zm.55-1.85h0v0s0,0,0,0,0,0,0,0Zm.06.06,0,0s0,0,0,0l0,0Zm.23.9h-.05c-.05-.05-.05-.05,0-.12h.05C16.22,38,16.22,38,16.18,38Zm1.12-1.77,0,0,0,0v-.11l0,0,0,0Zm.3.12,0,0s0,0,0,0,0,0,0,0,.06,0,.12,0Zm.29-1.43a.06.06,0,0,1-.1,0v0a.06.06,0,0,1,.1,0S17.88,34.94,17.89,34.94Zm.39-.1v0s0,0,0,0,0,0,0,0S18.31,34.83,18.28,34.84Zm0-.73s0,0,0,0v0s0,0,0,0Zm.52-.44v0s0,0,0,0v0S18.8,33.68,18.81,33.67Zm-.29.63H18.4c0-.06,0-.06,0-.12h.11C18.57,34.25,18.57,34.25,18.52,34.3Zm.08-.43h0s0,0,0,0v0S18.61,33.85,18.6,33.87Zm.25.41,0,0s0,0,0,0-.07,0-.06,0,0,0,.05,0h0Zm.06-.18a.08.08,0,0,1-.12,0l.09-.09C18.93,34,18.91,34.06,18.91,34.1Zm.09.19h0s0,0,0,0h0S19,34.3,19,34.29Zm1.63-2.44.08.08s0,0,0,0h-.11s0,0,0,0Zm-.75.68,0,0s0,0,0,0v0S19.88,32.54,19.88,32.53Zm-.44,1.61s0,0,0,0h0v0S19.42,34.13,19.44,34.14Zm-.35-.34a.08.08,0,0,1,.13,0A.09.09,0,0,1,19.09,33.8Zm.15,1.1v0s0,0,0,0l0,0S19.27,34.89,19.24,34.9Zm.09-1.49s0,0,0,0,0,0,0,0,0,0,0,0,0,0,0,0,0,.07,0,.06S19.33,33.43,19.33,33.41Zm.11,1.32s-.08,0-.1,0,0,0,0,0a.08.08,0,0,0,0,0s0,0,0-.06h0l0,0A.3.3,0,0,1,19.44,34.73Zm0-.49,0,0s0,0,0,0l0,0Zm.14-.44a.08.08,0,0,1,.13,0A.09.09,0,0,1,19.63,33.8Zm.17.43h0s0,0,0,0v0S19.81,34.21,19.8,34.23Zm.1-.71-.09-.09s.08,0,.13,0S20,33.51,19.9,33.52ZM20,33a.09.09,0,0,1,.13,0A.08.08,0,0,1,20,33Zm.3-.9a.09.09,0,0,1,.13,0A.08.08,0,0,1,20.29,32.11Zm.4,1h-.14a.81.81,0,0,1-.06-.08s0,0,0,0a0,0,0,0,1,0,0h.17C20.73,33.1,20.73,33.1,20.69,33.16Zm.16.11h0s0,0,0,0h0S20.87,33.28,20.85,33.27Zm.07-.72h0s0,0,0,0h0S20.93,32.56,20.92,32.55Zm.54-1.13v0s0,0,0,0,0,0,0,0S21.49,31.41,21.46,31.42Zm.46,0c-.07.05-.07.05-.12,0v-.12c.06,0,.06,0,.12,0Zm.38-1.06h0s0,0,0,0v0S22.31,30.34,22.3,30.33Zm.43.92s0,0-.06.05h-.12a0,0,0,0,1,0,0l0,0h.06l.05-.06s.06,0,.08,0S22.74,31.23,22.73,31.25Zm0-.92s0,0,0,0l0,0s0,0,0,0Zm.11.6h0s0,0,0,0h0S22.85,30.94,22.84,30.93Zm.42-.16a.09.09,0,0,1,0-.13A.08.08,0,0,1,23.26,30.77Zm.24-.85,0,0s0,0,0,0h0S23.51,29.92,23.5,29.92Zm0-.2v-.06l-.05-.07a.15.15,0,0,1,.16,0c0,.06,0,.13,0,.22S23.57,29.74,23.53,29.72ZM24,30a.09.09,0,0,1,.13,0C24.09,30.06,24.06,30.06,24,30Zm.27-1.71v0s0,0,0,0l0,0S24.31,28.29,24.28,28.3Zm.12.11h0s0,0,0,0h0S24.41,28.42,24.4,28.41Zm.33-.61,0,0h-.11s0,0,0,0l0,0h.12S24.73,27.79,24.73,27.8Zm.1,1.51s0,0,0,0h0s0,0,0,0ZM25,28.4l0,0s0,0,0,0,0,0,0,0S25,28.39,25,28.4Zm.15.79h0s0,0,0,0v0S25.13,29.2,25.12,29.19Zm.08-.72-.07.08L25,28.46s0,0,0,0h.11S25.21,28.45,25.2,28.47Zm0-.28s0,0,0,0,0,0,0,0l0,0S25.16,28.2,25.19,28.19Zm-.1-.94a.09.09,0,0,1,.13,0C25.17,27.3,25.14,27.3,25.09,27.25Zm.41,1.47s0,0,0,0h0s0,0,0,0Zm.37-1.1,0,0s0,0,0,0,0,0,0,0S25.87,27.61,25.87,27.62Zm1.08-1s-.08,0-.1,0a0,0,0,0,1,0,0s.08,0,.1,0A0,0,0,0,1,27,26.66Zm-.23-1.15a.06.06,0,0,1,.1,0v0s-.08,0-.1,0Zm.07.15s0,0,.07-.05a0,0,0,0,1,0,0s0,0,0,.06l-.05.06s.06,0,0,.06-.05,0-.08,0a.6.6,0,0,1-.08-.08V25.7A.07.07,0,0,1,26.79,25.66Zm.88.58,0,0s0,0,0,0,0,0,0,0S27.67,26.23,27.67,26.24Zm-14.51,18s0,.07,0,.06,0,0,0,0,0,0,0,0,0,0,0,0,0,0,0,0S13.16,44.25,13.16,44.26Zm.27.31s0-.08,0-.13A.09.09,0,0,1,13.43,44.57Zm.5-.87a.08.08,0,0,1-.12,0l.09-.09S13.93,43.66,13.93,43.7Zm.05-.54s0,0,0,0,0,0,0,0,0,0,0,0S14,43.15,14,43.16Zm0-.35h0s0,0,0,0h0S14,42.82,14,42.81Zm.45-.43,0,0s0,0,0,0v0S14.41,42.37,14.41,42.38Zm.09-.29h0s0,0,0,0l0,0S14.51,42.1,14.5,42.09Zm.05.49v0s0,0,0,0h0S14.57,42.58,14.55,42.58Zm.14,1.15a.08.08,0,0,1,0-.13A.09.09,0,0,1,14.69,43.73Zm0-.9s0-.08,0-.13.08,0,.09,0Zm5.8-6.4s0,0,.05,0v0s0,0,0,0l0,0,0,0h0v.11h0s0,0,0,0l0,0s0,0,0,0v0s0,0-.05,0A.09.09,0,0,1,20.48,36.43Zm-3,3.7,0,0s0,0,0,0h0S17.5,40.13,17.51,40.13Zm-2.64,2.11h0s0,0,0,0h0S14.86,42.23,14.87,42.24Zm0,.39h0s0,0,0,0h0S14.87,42.64,14.86,42.63Zm.21.59a.06.06,0,0,1-.1,0v0a.06.06,0,0,1,.1,0Zm.08-1.69v0s0,0,0,0v0S15.14,41.54,15.15,41.53Zm.09,1.7a.06.06,0,0,1-.1,0v0h.07l0,0Zm.23-2.15s-.05,0-.06,0l0,0a0,0,0,0,1,0,0h.17s0,0,0,0l-.09.09Zm.31.65a.06.06,0,0,1,0,0h-.09s0,0-.06-.05,0,0,0,0,0,0,0,0,.05,0,.09,0,0,.05.06.06S15.79,41.71,15.78,41.73Zm.3-.37v0s0,0,0,0v0S16.09,41.35,16.08,41.36Zm.32-.12a0,0,0,0,1,0,0h.07l0,0a0,0,0,0,1,0,0A.06.06,0,0,1,16.4,41.24Zm.09.51a.08.08,0,0,1,0-.13A.09.09,0,0,1,16.49,41.75Zm.15-.76,0,0h0c0-.06,0-.06,0-.12s.06,0,.07,0S16.66,41,16.64,41Zm.32.15s0,0,0,0,0,0,0,0h0S17,41.13,17,41.14Zm.19-1.26a.3.3,0,0,1-.16,0s0-.08,0-.1l0,0,0,0,.06,0v0Zm0-.25s0,0,0,0l0,0s0,0,0,0Zm.5.95s0,0,0,0h-.09c-.05-.05-.05-.05,0-.11h.06l.06,0Zm.84-.72,0,0h0s-.07,0-.06,0,0,0,.05,0h0Zm.15-.52,0,0s0,0,0,0,0,0,0,0S18.67,39.33,18.64,39.34Zm.2-1.21s0,0,0,0h0s0,0,0,0Zm.26-.44v0s0,0,.12,0v.06C19.16,37.74,19.16,37.74,19.1,37.69Zm.17.18s0,0,.05,0,0,0,0,0,0,0,0,0-.07,0-.12,0S19.26,37.9,19.27,37.87Zm0,.4c0-.05,0-.08,0-.13A.09.09,0,0,1,19.31,38.27Zm.18.35h-.06s0,0,0-.12h.06C19.53,38.56,19.53,38.56,19.49,38.62Zm.14-1.1,0,0h0s-.07,0-.06,0,0,0,.05,0h0S19.63,37.51,19.63,37.52ZM19.51,37a.09.09,0,0,1,.13,0C19.59,37.08,19.56,37.08,19.51,37Zm.17.25s0,0,0,0,0,0,0,0,0,0,0,0S19.69,37.27,19.68,37.28Zm.12-.17h0s0,0,0,0,0,0,0,0S19.81,37.09,19.8,37.11Zm0-.22a.09.09,0,0,1,0-.13A.08.08,0,0,1,19.78,36.89ZM20,38l0,0s0,0,0,0v0S20,38,20,38Zm0-1.15h0a.06.06,0,0,1,0-.1h0A.06.06,0,0,1,20,36.81Zm.22.25a.08.08,0,0,1,0-.12l.09.09S20.24,37.06,20.2,37.06Zm.29.36a.06.06,0,0,1-.07,0l-.06-.07s.1,0,.15,0,0,.06,0,.08S20.51,37.42,20.49,37.42Zm0-.2a.08.08,0,0,1,.13,0A.09.09,0,0,1,20.47,37.22Zm7.46-7.51v0s0,0,0,0,0,0,0,0S27.92,29.72,27.93,29.71Zm-4.24,4h0s0,0,0,0,0,0,0,0S23.66,33.72,23.69,33.71Zm-.6-.29,0,0s0,0,0,0h0S23.08,33.41,23.09,33.42Zm-1.48,2.29s0,0,0,0h0s0,0,0,0Zm0-.15,0,0s0,0-.05,0h0c-.05,0-.05,0,0-.11ZM21,37.41h0s0,0,0,0l0,0S21,37.42,21,37.41Zm.15-.19c.05,0,.08,0,.13,0A.09.09,0,0,1,21.13,37.22Zm.15-.46s0,0,0,0,0,0,0,0v0S21.31,36.75,21.28,36.76Zm.15-1.65s0,0,.05,0,0,0,0,0,0,0,0,0-.07,0-.12,0S21.42,35.14,21.43,35.11Zm0,1.09v-.07c.06,0,.06,0,.12,0v.11a.09.09,0,0,1-.08,0s-.08,0-.11,0Zm0,.72a.06.06,0,0,1-.1,0,0,0,0,0,1,0,0s.08,0,.1,0S21.48,36.92,21.49,36.92Zm.06.14h0l0,0,0,0h0s0,0,.05,0S21.59,37.06,21.55,37.06ZM21.62,36c-.07.05-.07.05-.13,0V36c.07,0,.07,0,.13,0Zm0-.63v0s0,0,0,0h0S21.67,35.37,21.64,35.38Zm.09.45a.09.09,0,0,1,.13,0A.08.08,0,0,1,21.73,35.83Zm.17-.34s-.08,0-.1,0v0h0a0,0,0,0,1,.05,0l0,0Zm.1-.41s0,0,0,0,0,0,0,0h0S22,35.07,22,35.08Zm.21,1.3,0,0h0s-.07,0-.06,0,0,0,0,0h0S22.21,36.37,22.21,36.38Zm.05-1.68v0s0,0,0,0v0S22.27,34.69,22.26,34.7Zm.13.84a.08.08,0,0,1-.12,0l.09-.09C22.41,35.46,22.39,35.5,22.39,35.54Zm0-.52v0s0,0,0,0h0S22.45,35,22.42,35Zm.18.72v0s0,0,0,0h0S22.63,35.73,22.6,35.74Zm.21-.86a.08.08,0,0,1,.13,0A.09.09,0,0,1,22.81,34.88Zm.18-.79S23,34,23,34s0,0,0,0,0,0,.06.06S23,34.14,23,34.09Zm.15.75,0,0s0,0,0,0h0S23.15,34.84,23.14,34.84Zm.19-.24h-.06c-.05-.05-.05-.05,0-.12h.06C23.37,34.54,23.37,34.54,23.33,34.6Zm.2.46,0,0s0,0,0,0-.07,0-.06,0,0,0,0,0h0S23.53,35.05,23.53,35.06Zm.1-1.64h0s0,0,0,0h0S23.62,33.41,23.63,33.42Zm0,1h0v0s0,0,0,0,0,0,0,0Zm.09.13s0,0-.07,0v-.09h.09a.08.08,0,0,1,0,.07S23.76,34.54,23.72,34.55Zm.15-.42c-.05-.05-.05-.08,0-.13A.09.09,0,0,1,23.87,34.13Zm.41-.24h-.07a.3.3,0,0,1,0-.16s.05,0,.09,0l.07.09S24.31,33.85,24.28,33.89Zm.36-1h-.12l0,0,0,0h.11l0,0Zm.36-.66-.08-.08a.07.07,0,0,1,.07,0s.08,0,.1,0S25,32.24,25,32.26Zm1-1.13c-.05,0-.07-.07-.11-.09s0-.07,0-.09l0,0,0,0,.09.08Zm.11-.6c0-.05,0-.08,0-.13A.09.09,0,0,1,26.15,30.53Zm.26,1.72h0s0,0,0,0v0S26.41,32.23,26.41,32.25Zm.18-1,0,0s0,0,0,0,0,0,0,0S26.59,31.27,26.59,31.28Zm.21-1.23a.09.09,0,0,1,0-.13A.08.08,0,0,1,26.8,30.05Zm.64.25a.74.74,0,0,1-.12.13c0,.09,0,.1-.1.09s0-.05,0-.08l-.05-.06.05-.07v-.06l.07,0,.07.06s0,0,0,0,0-.06,0-.09l0,0C27.47,30.16,27.42,30.24,27.44,30.3Zm.5.09h0s0,0,0,0h0S28,30.4,27.94,30.39Zm.34-1.73s0,.07,0,.06,0,0,0,0,0,0,0,0,0,0,0,0,0,0,0,0S28.28,28.65,28.28,28.66Zm.81-.65s0,0,0,0,0,0,0,0v0S29.06,28,29.09,28Zm-.39-.22s.08,0,.1,0a0,0,0,0,1,0,0,.06.06,0,0,1-.1,0A0,0,0,0,1,28.7,27.79Zm1.91,4.93s0,0-.05,0h0c-.05-.05-.05-.05,0-.11l.06,0Zm0-2.14a.09.09,0,0,1,0,.13C30.6,30.66,30.6,30.63,30.65,30.58Zm0,1.38v0s0,0,0,0h0S30.71,32,30.69,32Zm.6.41h0s0,0,0,0h0S31.31,32.38,31.29,32.37Zm.55-.59h-.06s0,0-.06-.06,0,0,0,0l.05,0a.21.21,0,0,0,.08,0C31.89,31.73,31.89,31.73,31.84,31.78Zm.51,2.45h0s0,0,0,0v0S32.35,34.21,32.35,34.23Zm.16-3.83h.05c0,.06,0,.06,0,.12h-.05C32.46,30.47,32.46,30.47,32.51,30.4Zm-.06,2.23h0s0,0,0,0,0,0,0,0S32.42,32.64,32.45,32.63Zm-.19-2,.07-.07s0,.05.06.06,0,0,0,.05a.06.06,0,0,1,0,0s0,0,0,0l0,.07C32.22,30.7,32.22,30.69,32.26,30.65Zm0,.36s0,0,0,0,0,0,0,0,0,0-.06,0,0,0,0,0l0,0S32.19,31,32.21,31Zm0,2,0,0s0,0,0,0h0S32.2,33,32.21,33Zm0,1.11,0,0s0,0,0,0,0,0,0,0S32.17,34.09,32.17,34.1Zm-.08-.58s0,0,.06.06,0,0,0,.05,0,0,0,0h0Q32,33.6,32.09,33.52Zm-.25-3.82s0,0,.06,0l0,0v0c-.06,0-.06,0-.12,0S31.8,29.71,31.84,29.7Zm-.11.7,0,0c.06,0,.12,0,.16,0s-.14.1-.12.2h-.14c-.06,0,0-.13-.1-.13S31.69,30.43,31.73,30.4Zm-.29,1.22h0s0,0,0,0h0S31.42,31.61,31.44,31.62Zm-.07-2.34h0s0,0,0,0h0S31.36,29.27,31.37,29.28Zm-.06.4s.06,0,.07,0,0,0,0,.06l0,0h0C31.26,29.74,31.26,29.74,31.31,29.68Zm-.14-.51s0,0,0,0,0,0,0,0h0S31.16,29.18,31.17,29.17Zm-.05,1.24a.09.09,0,0,1,0-.13A.08.08,0,0,1,31.12,30.41ZM31.05,29v0s0,0,0,0h0S31,29,31.05,29Zm0,.88.09.09s-.08,0-.13,0S31,29.88,31.07,29.87Zm0,2.78a.08.08,0,0,1-.13,0A.09.09,0,0,1,31,32.65Zm-.17-.85h.07l0,0a0,0,0,0,1,0,0,.06.06,0,0,1-.1,0A0,0,0,0,1,30.87,31.8Zm0,1.14s0,0,0,0h0s0,0,0,0Zm-.06-1.34s0,0,0,0,0,0,0,0h0S30.85,31.59,30.82,31.6Zm0-2s0,0,0,0h-.17l0,0s0,0,0,0h.17Zm-.17-.78s0,0,.05,0h0c0,.06,0,.06,0,.12l-.06,0S30.68,28.82,30.68,28.81Zm0-.18a.08.08,0,0,1-.13,0A.09.09,0,0,1,30.68,28.63Zm-.16,1.24c.05,0,0,.05,0,.09a.08.08,0,0,1-.12,0Zm-1.08-.79v0s0,0,0,0,0,0,0,0S29.47,29.07,29.44,29.08Zm0-.52s0,0,0,0h-.05s0-.06,0-.1a.07.07,0,0,1,0-.07l.06.06A.06.06,0,0,1,29.47,28.56Zm.64,1.24L30,29.75H30l0,0,0,0h.11C30.15,29.74,30.15,29.74,30.11,29.8Zm.2.27s0-.06,0-.07,0,0,.06,0l0,0v0C30.37,30.12,30.37,30.12,30.31,30.07Zm-.16,2.15h.07l0,0a0,0,0,0,1,0,0s-.08,0-.1,0A0,0,0,0,1,30.15,32.22Zm0,.16s0,0,.06.06,0,0,0,.05a.06.06,0,0,1,0,0h0Q30.1,32.46,30.17,32.38Zm-.67-.29h0v0a.48.48,0,0,1,0,.17l0,0,0,0-.06,0,0,0Zm-.34,2.17v0s-.08,0-.1,0v0A.06.06,0,0,1,29.16,34.26ZM29,35h0s0,0,0,0l0,0S29,35,29,35Zm.15-.55s0,0-.05,0h0c-.05,0-.05,0,0-.11l.06.05Zm0,.44v0s0,0,0,0v0S29.23,34.89,29.2,34.9Zm0-.86c-.06,0-.06,0-.12,0s0-.06,0-.08,0,0,0-.05,0,0,.05,0l.05.05Zm-.16-.26h.08l.05,0h.07c0,.06,0,.06,0,.11h-.17S29.06,33.8,29.07,33.78Zm-.31-.71s.08,0,.1,0,0,0,0,0a.06.06,0,0,1-.1,0Zm-.21-.74v0s0,0,0,0l0,0S28.52,32.34,28.55,32.33Zm-.12,1.09h0s0,0,0,0h0S28.42,33.41,28.43,33.42Zm-.27.25s.08,0,.1,0v0s-.08,0-.1,0Zm0-.14h0s0,0,0,0,0,0,0,0S28.1,33.54,28.13,33.53ZM28,34l0,0a.16.16,0,0,1,.16,0s.07,0,.1,0v.06l-.09.08h-.08c-.07,0-.07,0-.08-.09l0,0V34Zm.12.3c-.05,0-.08,0-.13,0A.09.09,0,0,1,28.1,34.27Zm-.29-1.21h.07l0,0v0s-.08,0-.1,0Zm0,1.85v0s0,0,0,0,0,0,0,0S27.74,34.92,27.77,34.91Zm-1.51,1.85c0,.07,0,.07,0,.12h-.11c0-.06,0-.06,0-.12Zm.64-2.9,0,0,0,0,0,0S26.88,33.88,26.9,33.86Zm0,0s0,0,0,0,0,0,0,0a0,0,0,0,1,0,0h0S26.84,33.92,26.85,33.9Zm-.28,1.49v0s0,0,0,0l0,0S26.54,35.4,26.57,35.39Zm0,.32v0s0,0,0,0l0,0S26.54,35.72,26.55,35.71Zm-.35-1.16s0,0,0,0h0s0,0,0,0Zm-.12.12.06,0,0,0s0,0-.05,0h0C26,34.73,26,34.73,26.08,34.67Zm0,.39s0,0,0,0l0,0s0,0,0,0S26,35.08,26.06,35.06Zm0,0s0,0,0,0,0,0,0,0v0h0S26,35.12,26,35.1Zm-1,.73,0,0s0,0,0,0v0S25,35.84,25.05,35.83Zm-.42.34s0,0,0,0h0s0,0,0,0Zm0,.31h0s0,0,0,0h0S24.64,36.47,24.65,36.48Zm-.15,2.11c-.05,0-.08,0-.13,0A.09.09,0,0,1,24.5,38.59ZM24.35,37h0s0,0,0,0,0,0,0,0S24.32,37,24.35,37Zm-.21,0,0,0,0,0s0,0,0,0,0,.07,0,.06,0,0,0-.05S24.13,37,24.14,37Zm-.51,1.35v0s0,0,0,0h0S23.6,38.34,23.63,38.33Zm-.18-.3h0s0,0,.05,0,0,0-.06,0,0,0,0,0l0,0S23.43,38,23.45,38Zm-.09.14a.08.08,0,0,1-.13,0A.09.09,0,0,1,23.36,38.17Zm-.15.83h0s0,0,0,0h0S23.2,39,23.21,39Zm-.12-.54,0,0s0,0,0,0h0S23.08,38.45,23.09,38.46Zm-.24,1.07h0s0,0,.05,0,0,0-.06,0,0,0,0,0l0,0S22.83,39.54,22.85,39.53Zm-.12-1.32h0s0,0,0,0,0,0,0,0S22.7,38.22,22.73,38.21Zm-.36.24v0s0,0,0,0,0,0,0,0S22.34,38.46,22.37,38.45Zm-.12.78v0s0,0,0,0h0S22.22,39.24,22.25,39.23Zm-.08-.64s0,0,0,0,0,0,0,0v0S22.16,38.6,22.17,38.59Zm-.41,1.12s0,.06,0,.1a.08.08,0,0,1,0,.07s0-.06,0-.1A.08.08,0,0,1,21.76,39.71Zm-.11.78,0,0v0h-.1a.71.71,0,0,1,0,.14s0,0,0,0l-.08-.08s0-.07,0-.09h.09C21.57,40.49,21.59,40.47,21.65,40.49Zm-.21-1.06s0,0,0,0h0l0,0,0,0h0S21.43,39.45,21.44,39.43Zm-.06.91s0,0,0,0l.09.09-.08.07s0,0,0,0A.4.4,0,0,1,21.38,40.34Zm-.11,0v0s0,0,0,0v0S21.26,40.4,21.27,40.39Zm-6,6.63v0s0,0,0,0l0,0S15.25,47,15.22,47Zm4.31,3.26s0,0,0,0,0,0,0,0a.3.3,0,0,1,0,.16s0,0,0,0,0-.08,0-.1S19.52,50.3,19.53,50.28ZM18.75,49s0,0,0,0,0,0,0,0,0,0,0,0S18.74,49,18.75,49Zm-.22.46.08.08a.23.23,0,0,1,0,.14s-.09,0-.13,0a.08.08,0,0,1,0-.1s0,0,0-.07S18.5,49.44,18.53,49.43ZM18.4,49h.06c.05.06.05.06,0,.14v.18s0,0,0,0a.68.68,0,0,1,0-.19l-.05-.07ZM18,48.67s.06,0,.08,0,0,0,0,0a.06.06,0,0,1,0,.07l-.07.07C18,48.78,18,48.72,18,48.67Zm-1.14-1.26s0,0,.05,0h0s0,0,0,0l0,0s0,0,0,0S16.87,47.43,16.88,47.41Zm-1-.1s0,0,0,0h0s0,0,0,0Zm.68-1.82a.09.09,0,0,1,.13,0A.08.08,0,0,1,16.57,45.49Zm.15-.46h0s0,0,0,0l0,0S16.73,45,16.72,45Zm.06.24h0s0,0,0,0h0S16.79,45.28,16.78,45.27Zm.06-.35v0s0,0,0,0h0S16.87,44.91,16.84,44.92Zm.3-.3a.08.08,0,0,1,0-.12l.09.09S17.18,44.62,17.14,44.62Zm.23-.06v0s0,0,0,0h0S17.39,44.56,17.37,44.56Zm8.43,7.72v0s0,0,0,0,0,0,0,0S25.81,52.27,25.8,52.28Zm1.4,1.14s0,0,0,0,0,0,0,0,0,0,0,0,0,0,0,0,0,0,0-.06S27.19,53.42,27.2,53.42Zm-.29,0s0,0,0,0,0,0,0,0,0,0,0,0S26.9,53.48,26.91,53.47ZM26,52.64l0,0s0,0,0,0a0,0,0,0,1,0,0s0,0,0,0,0,0,0-.06S26,52.64,26,52.64Zm0-.26h0s0,0,0,0l0,0S26,52.37,26,52.38Zm-.3-.5.06-.05h.06c0,.06,0,.06,0,.11h-.09s0,0-.05,0S25.65,51.9,25.67,51.88Zm-.06-.1h0s0,0,0,0h0S25.6,51.77,25.61,51.78Zm-.12.41v0s0,0,0,0h0S25.46,52.2,25.49,52.19Zm-.12-.72s0,0,0,0,0,0,0,0h0S25.34,51.48,25.37,51.47Zm0,.38s0,0,0,0a.06.06,0,0,1,0,0v0c-.05.05-.05.05-.12,0S25.38,51.88,25.4,51.85Zm-.11.35h.07l0,0v0a.06.06,0,0,1-.1,0Zm0,.54h0s0,0,0,0h0S25.3,52.73,25.31,52.74Zm-.21-.52,0,0,.09.09-.08.07s0,0-.05,0A.45.45,0,0,1,25.1,52.22ZM25,52s0,0,0,0,0,0,0,0l0,0S25,52,25,52Zm-.08-.4v0s0,0,0,0v0S24.92,51.56,24.93,51.55Zm0,.81s0,0,.06.06,0,0,0,0,0,0-.05,0,0,0,0,0S24.84,52.41,24.89,52.36Zm-.2-1.71s0,0,0,0,0,0,0,0v0S24.68,50.66,24.69,50.65Zm-.32.66c-.07-.08-.07-.08,0-.14h.06c.05,0,0,.12.08.14l-.06.07v.07a.25.25,0,0,1-.17,0v-.07C24.28,51.32,24.36,51.37,24.37,51.31Zm-.14-.44v0s0,0,0,0l0,0S24.2,50.88,24.23,50.87Zm0,1a.09.09,0,0,1,0,.13C24.18,51.9,24.18,51.87,24.23,51.82Zm-.4-.14a.06.06,0,0,1-.1,0v0a.06.06,0,0,1,.1,0S23.82,51.68,23.83,51.68ZM24,50.11l0,0s0,0,0,0,0,0,0,0S24,50.12,24,50.11Zm-.24.14a0,0,0,0,1,0,0l0,0h.18l0,.07a.55.55,0,0,1-.12.14l0,0-.1-.07.06-.07Zm-.28.07h.11l0,0,0,0h-.12l0,0ZM23.37,50s0,0,0,0h0s0,0,0,0Zm-2-1.6,0,0s0,0,0,0v0S21.37,48.37,21.37,48.38Zm1.8,1.2,0,0s0,0,0,0v0S23.17,49.57,23.17,49.58Zm0,1.29a.09.09,0,0,1,0-.13C23.25,50.79,23.25,50.82,23.2,50.87Zm-.05-1.56.09.09s-.08,0-.13,0S23.1,49.32,23.15,49.31Zm-.24.54,0,0s0,0,0,0h0S22.9,49.85,22.91,49.85Zm-.24-.72v0s0,0,0,0,0,0,0,0S22.64,49.14,22.67,49.13Zm-.32,1.16s0,0,0,0,0,0,0,0v0S22.34,50.3,22.35,50.29Zm-.09-.45a.09.09,0,0,1,.08,0s0,0,0,0,0,0,0,0-.1-.05-.16-.06S22.22,49.85,22.26,49.84Zm-.2-1.07s0,0,0,0h0s0,0,0,0Zm-.77-1.09h.05c.05.06.05.08,0,.12l0,0,0,0s0-.07,0-.11A.09.09,0,0,1,21.29,47.68Zm-.45-.62s0,0,0,0l0,0s0,0,0,0S20.82,47.08,20.84,47.06Zm-.05,0s0,0,0,0,0,0,0,0v0h0S20.78,47.12,20.79,47.1Zm-.31,1s0,0,0,0,.09,0,.09.08,0,.08,0,.11a.31.31,0,0,1-.07-.09A0,0,0,0,1,20.48,48.15Zm-.23-1.76v0s0,0,0,0l0,0S20.24,46.4,20.25,46.39Zm-.18-.18,0,0s0,0,0,0v0S20.06,46.22,20.07,46.21Zm0,.28.07,0h.05l0,0,0,0h-.11C20,46.55,20,46.55,20.08,46.49Zm0,.45s0,0,0,0l0,0s0,0,0,0,0,.07,0,.06,0,0,0-.05S20.05,47,20.06,46.94Zm-.19-.72s-.08,0-.1,0v0s.08,0,.1,0S19.86,46.22,19.87,46.22Zm-.11-.36,0,0,0,0a0,0,0,0,1,0,0s0,0,0,0,0,0,0-.06S19.75,45.86,19.76,45.86Zm-.22,1.35a.07.07,0,0,1,.09,0l-.08.08a.07.07,0,0,1-.09,0Zm-.17-.12,0,0s0,0,0,0h0a.25.25,0,0,1,0,.08s0,0,0,0l-.08-.08,0,0h.08v0Zm-.2-1.61h.11v-.12c-.06,0-.08,0-.06-.09l0,0h0v0a.25.25,0,0,1,0,.08s0,0,0,0a.09.09,0,0,1,0,.07s0,0,0,0,0,.08-.1.06l0,0A0,0,0,0,0,19.17,45.48Zm-.86-.7h0s0,0,0,0h0S18.3,44.75,18.31,44.78Zm0,.68-.06-.05s0,0,0,0,0,0,.05,0h0C18.33,45.4,18.33,45.4,18.29,45.46Zm0-2s0,0,0,0h0s0,0,0,0Zm-.23.35.09.09c0,.05-.05,0-.09,0A.08.08,0,0,1,18.1,43.78Zm-.19.08s0,0,.05,0h0c.05,0,.05.08,0,.13s0,0-.06-.06S17.9,43.88,17.91,43.86Zm0-.12h0s0,0,0,0h0S17.86,43.73,17.87,43.74Zm-.26,1.31s0,0,0,0h0s0,0,0,0Zm1.13-2.61,0,0,0,0,0,0S18.72,42.46,18.74,42.44Zm0,0s0,0,0,0,0,0,0,0v0h0S18.68,42.5,18.69,42.48Zm0,1.4s0,0,0,0,0,0,0,0,0,0,0,0,.08,0,.13,0S18.75,43.85,18.74,43.88ZM19,42.71s0-.08,0-.13.08,0,.09,0Zm.42-.67,0,0s0,0,0,0,0,0,0,0S19.45,42,19.42,42Zm.06-.24h0s0,0,0,0,0,0,0,0S19.51,41.79,19.48,41.8Zm.06-.36s0,0,0,0,0,0,0,0l0,0S19.57,41.43,19.54,41.44Zm2.35,3,0,0s0,0,0,0,0,0,0,0S21.86,44.4,21.89,44.39Zm-1.25-2.33h0s0,0,0,0h0S20.62,42.05,20.64,42.06Zm-.15-1.43s0,0,0,0,0,0,0,0v0S20.48,40.64,20.49,40.63Zm-.76,1.9.09.09s-.08,0-.13,0S19.68,42.54,19.73,42.53Zm.47.83v0s0,0,0,0,0,0,0,0S20.23,43.35,20.2,43.36Zm.06.12,0,0s0,0,0,0,0,0,0,0S20.29,43.47,20.26,43.48Zm.36-.78a.11.11,0,0,1-.1,0c-.07,0-.16,0-.22,0v0l.05-.07s0-.06,0-.08a.14.14,0,0,1,.08.07.42.42,0,0,1,0,.1h.06c.06,0,0-.09.06-.11s0,0,0,.07,0,.05.05.07A.26.26,0,0,1,20.62,42.7Zm.45.1a.08.08,0,0,1,.13,0A.09.09,0,0,1,21.07,42.8Zm.24.41,0,0-.09-.09.08-.07s0,0,0,0A.48.48,0,0,1,21.31,43.21Zm.11,1.33v0s0,0,0,0v0S21.43,44.53,21.42,44.54Zm.28-.22h0s0,0,0,0,0,0,0,0S21.73,44.31,21.7,44.32Zm.18.41h0s0,0,0,0v0S21.89,44.74,21.88,44.73Zm.72.49h0s0,0,0,0,0,0,0,0S22.63,45.21,22.6,45.22Zm.09,0a.09.09,0,0,1,.13,0A.08.08,0,0,1,22.69,45.25Zm1.5,1.87a.08.08,0,0,1-.12,0l.09-.09C24.21,47,24.19,47.08,24.19,47.12Zm.12-.9s-.08,0-.1,0v0s.08,0,.1,0Zm.11,1v0s0,0,0,0v0S24.43,47.17,24.42,47.18Zm.17.51s0,0-.06.06-.05-.09,0-.13,0,0,.07,0S24.6,47.67,24.59,47.69Zm2.7,1.8s0,0,0,0,0,0,0,0h0S27.26,49.5,27.29,49.49Zm-2.4-1.63h-.06s0,0,0-.12h.06C24.93,47.8,24.93,47.8,24.89,47.86Zm.25.1s0,0,0,0,0,0,0,0h0S25.15,48,25.14,48Zm.05.19s0,0,0,0v0s0,0,0,0Zm.15-.92a.06.06,0,0,1,.1,0s0,0,0,0a.06.06,0,0,1-.1,0A0,0,0,0,1,25.34,47.23Zm.1,1.4s-.08,0-.1,0v0h0a0,0,0,0,1,.05,0l0,0S25.45,48.62,25.44,48.63Zm0-.47,0,0s0,0,0,0,0,0,0,0S25.51,48.15,25.48,48.16Zm.15.69c-.06,0-.06,0-.12,0v-.06c.07,0,.07,0,.12,0Zm.18.66a.09.09,0,0,1,.13,0C25.89,49.56,25.86,49.56,25.81,49.51Zm.17-.16s-.08,0-.1,0a0,0,0,0,1,0,0h0a0,0,0,0,1,.05,0l0,0S26,49.34,26,49.35Zm.32,0,0,0,0,0s-.06,0-.07,0,0,0,0-.06l0,0,0,0s.06,0,.07,0S26.32,49.31,26.3,49.33Zm.1-.82s-.09,0-.13.06-.07,0-.1,0l.11-.09h.11l0,0Zm.05.61s0-.06,0-.1a.11.11,0,0,1,.05-.09C26.47,49,26.5,49.08,26.45,49.12Zm.3,0s0-.05-.07-.07,0,0,0,0a.06.06,0,0,1,0,0h0S26.78,49.08,26.75,49.13Zm.23-.2h0s0,0,0,0h0S27,48.94,27,48.93Zm.31,1.39a.09.09,0,0,1,0,.13A.08.08,0,0,1,27.29,50.32Zm.05.59h0s0,0,0,0l0,0S27.35,50.92,27.34,50.91Zm2.05.45h0s0,0,0,0h0S29.38,51.35,29.39,51.36Zm-1.27-1.27a.09.09,0,0,1,0-.13A.08.08,0,0,1,28.12,50.09Zm.54.95h-.11s0,0,0,0l.07-.08.09.09Zm0-.23a.08.08,0,0,1,0-.13A.09.09,0,0,1,28.67,50.81Zm.32.93,0,0s0,0,0,0v0S29,51.73,29,51.74Zm.19,0s0,0,0,0-.06.05-.12,0l.05-.06,0,0S29.18,51.74,29.18,51.76Zm.22,0a.06.06,0,0,1-.1,0,0,0,0,0,1,0,0h.07l0,0S29.41,51.74,29.4,51.75Zm.14.35s-.08,0-.13,0,.05,0,.07-.07,0,0,0,0a.06.06,0,0,1,0,0S29.54,52.09,29.54,52.1Zm.14.86h0s0,0,0,0v0S29.71,53,29.68,53Zm.57-.26,0,0s0,0,0,0,0,0,0,0S30.25,52.69,30.25,52.7Zm.05.48v0s0,0,0,0,0,0,0,0S30.31,53.17,30.3,53.18Zm.53,0s0,0,0,0l0,0s0,0,0,0Zm.05-.35s0,0,0,0,0,0,0,0l0,0S30.91,52.77,30.88,52.78Zm.41.53h0s0,0,0,0h0S31.31,53.32,31.29,53.31Z" style="fill:#281e53"/><path d="M37.6,44s0,0,0,0h0s0,0,0,0Z" style="fill:#281e53"/><path d="M28.5,51h0A22.5,22.5,0,0,1,6,28.5H6A22.5,22.5,0,0,1,28.5,6h0A22.5,22.5,0,0,1,51,28.5h0A22.5,22.5,0,0,1,28.5,51Z" style="fill:#fffa0c"/><path d="M43.5,48H4.5A4.51,4.51,0,0,1,0,43.5V4.5A4.51,4.51,0,0,1,4.5,0h33A4.51,4.51,0,0,1,42,4.5v8h4.5A1.5,1.5,0,0,1,48,14V43.5A4.51,4.51,0,0,1,43.5,48ZM42,15.5v28a1.5,1.5,0,0,0,3,0v-28ZM4.5,3A1.5,1.5,0,0,0,3,4.5v39A1.5,1.5,0,0,0,4.5,45H39.26A4.38,4.38,0,0,1,39,43.5V4.5A1.5,1.5,0,0,0,37.5,3Z" style="fill:#28282a"/><rect x="5" y="6" width="32" height="5" rx="1.5" style="fill:#28282a"/><path d="M20,26H6.5A1.5,1.5,0,0,1,5,24.5v-10A1.5,1.5,0,0,1,6.5,13H20a1.5,1.5,0,0,1,1.5,1.5v10A1.5,1.5,0,0,1,20,26ZM8,23H18.5V16H8Z" style="fill:#28282a"/><path d="M35.5,16h-11a1.5,1.5,0,1,1,0-3h11a1.5,1.5,0,0,1,0,3Z" style="fill:#28282a"/><path d="M35.5,21h-11a1.5,1.5,0,0,1,0-3h11a1.5,1.5,0,0,1,0,3Z" style="fill:#28282a"/><path d="M35.5,26h-11a1.5,1.5,0,0,1,0-3h11a1.5,1.5,0,0,1,0,3Z" style="fill:#28282a"/><path d="M35.5,31H6.5a1.5,1.5,0,0,1,0-3h29a1.5,1.5,0,0,1,0,3Z" style="fill:#28282a"/><path d="M35.5,36H6.5a1.5,1.5,0,0,1,0-3h29a1.5,1.5,0,0,1,0,3Z" style="fill:#28282a"/><path d="M35.5,41H6.5a1.5,1.5,0,0,1,0-3h29a1.5,1.5,0,0,1,0,3Z" style="fill:#28282a"/></g></g></svg>