<svg xmlns="http://www.w3.org/2000/svg" viewBox="0 0 116 116"><title>youtube</title><g id="a6fb2836-fa8f-452a-abad-aff82cbd66e7" data-name="Layer 2"><g id="a5187037-9776-446b-9be2-3e69418e4568" data-name="Layer 1"><path d="M77,116H3a3,3,0,0,1-3-3V3A3,3,0,0,1,3,0H113a3,3,0,0,1,3,3V77A39.05,39.05,0,0,1,77,116ZM6,110H77a33,33,0,0,0,33-33V6H6Z" style="fill:#ffec00"/><path d="M79.87,36.16h-45a10,10,0,0,0-10,10V70.79a10,10,0,0,0,10,10h45a10,10,0,0,0,10-10V46.16A10,10,0,0,0,79.87,36.16ZM65.76,60.57,53.17,67.34a2.31,2.31,0,0,1-3.41-2V51.64a2.31,2.31,0,0,1,3.42-2L65.77,56.5a2.31,2.31,0,0,1,0,4.07Z" style="fill:#fffa0c"/></g></g></svg>