<svg xmlns="http://www.w3.org/2000/svg" viewBox="0 0 213.5 85.5"><path d="M27.9 77.8c-2.7 2.9-5.9 5-10.7 6.6-2.8.9-5.4.9-7.8.9-4.5 0-8.4-3.7-8.4-10.5 0-5.6 2.4-11.1 11.3-15.1 7.6-3.7 12.2-5.6 14.9-7.6v-6.4c-.2-2.4-.5-5.4-2-6.9-1.2-1.3-3.4-1.8-6.1-1.8-2.2 0-5.1.7-7.1 2.2-1.7 1.2-.5 3.1-.5 6 0 4.4-2.2 7.1-7.3 7.1C2 52.3 0 50.8 0 48.1c0-3.4 2-7.3 5.6-10 5.1-3.9 11.8-6.9 19.8-6.9 6.9 0 9.1 1.5 11.3 3.4 2.7 2.4 2.9 5.9 2.9 9.2l.2 19.3V69c0 6.6 1 8.6 3.2 8.6 1.7 0 3.4-1 3.9-2 .5-.7.7-.7 1.2-.5l1.5 1c.5.2.7.7.2 2-1.2 2.2-4.2 7.1-11.3 7.1-4.7 0-8.6-2.2-10.3-7.5l-.3.1zm-.7-21.2C21.8 60 13.7 62.1 13.7 71c0 5 2.7 7.5 5.6 7.5 3.4-.2 7.8-3.7 7.8-5.9l.1-16zm41-33.7c0-3.7-.7-6.4-2.9-6.4-1.2 0-2.9.2-5.1 1l-7.3 2.2c-.5.2-1 .2-1.2-.2l-1-2.4c-.2-.5 0-1 .7-1.5L79.6.9c.7-.4 1.5-.7 2.2-.7s1 .5 1 2c0 1-.5 20.1-.5 35.9v5.1c0 4.2.2 27.4.2 29 0 6.4.5 7.1 7.3 7.1h4.4c1 0 1.2.4 1.2.9v3.1c0 .7-.2 1-1.2 1s-17.6-.4-19.6-.4c-2.4 0-19.6.4-20.3.4-.6 0-1-.2-1-.9v-3.2c0-.7.5-.9 1.3-.9h4.8c7.3 0 8.3-.2 8.6-6.7.2-3.4.2-22 .2-25.5V22.9zm84.9 33.3c0 11.3-3.4 17.4-7.8 21.5-5.1 5.1-10.3 7.8-18.9 7.8s-14.2-2.7-18.1-7.6c-6.6-7.8-7.8-16.9-7.8-23.3 0-15.9 6.9-30.1 17.4-40.2 7.3-6.9 14.7-10.8 21.3-13.2 2.7-.7 4.4-1.2 5.1-1.2s1.7.7 1.7 1.5c0 1-.5 2-2 2.4-9.8 3.9-24.2 17.9-27.5 34.9l.4.5c3.2-2.9 8.6-5.1 14.7-5.1 15.4.1 21.5 12.9 21.5 22m-35.7-11.3c-2.2 2.7-2.4 7.8-2.4 14.8 0 6.6 1.2 21.5 12.5 21.5 3.4 0 11.5-1.5 11.5-19.7 0-11.3-4.4-20.6-12.5-20.6-4.9 0-7.6 1.8-9.1 4m45.7 38.9c-1.2 0-1.7-.7-.5-2.7l29.6-44.4h-10.8c-7.1 0-9.3 1-19.1 13.5-.4.5-.9.6-1.2.4l-1.7-1c-.5-.4-.5-.6-.2-1.3l7.3-17.4c2.2.5 4.4 1 6.6 1.2 4.4.5 6.6.7 16.7.7h17.9c1.2 0 2 1 1.2 2l-30.6 44.9h14c3.2 0 9.1-2.2 17.9-13.1.5-.6.9-.6 1.3-.4l1.6 1.2c.5.4.5.7.2 1.2l-8.8 16.7c-2.2-.7-7.1-1-12.7-1.2s-11.3-.2-13-.2l-15.7-.1z" fill="#40474f"/></svg>