<svg xmlns="http://www.w3.org/2000/svg" width="1000" height="232"><path d="M183.513 0c-19.138.08-38.177 10.15-47.68 30.203l-4.389 9.256v152.969l4.39 9.256c6.813 14.378 17.358 23.454 33.162 28.465 11.327 3.59 29.382 1.698 40.9-4.26 7.47-3.864 18.041-15.369 22.122-24.074l3.738-7.996V38.069l-4.086-8.257C221.862 9.839 202.651-.079 183.513 0zm.87 37.895a9.852 9.852 0 012.042.217c2.207.485 5.888 3.043 8.215 5.693l4.259 4.824v133.934l-3.13 4.563c-1.72 2.522-4.953 5.22-7.17 5.997-2.219.777-4.722 1.402-5.564 1.39-3.352-.044-8.554-3.751-11.561-8.213l-3.173-4.693v-65.49c.005-62.512.104-65.716 2.695-69.965 3.064-5.025 8.541-8.29 13.386-8.257zm437.625 191.526c-16.122-5.978-26.713-16.278-32.816-31.913-2.147-5.501-2.363-14.793-2.325-100.124l.04-94.06 18.786-.387 18.785-.387.02 90.082c.017 69.613.42 90.872 1.773 93.558.963 1.913 3.964 4.67 6.669 6.128 6.078 3.275 11.171 2.269 16.751-3.31l3.995-3.994V2.55l18.798.387 18.8.387-.005 94.112c-.004 91.967-.07 94.29-2.902 101.859-4.092 10.934-14.53 21.91-26.131 27.478-12.096 5.806-28.766 6.903-40.238 2.648zM0 115.964V2.628h93.185v38.938H38.943v52.987l17.038-.237 17.037-.237.387 18.939.387 18.938H38.943V229.3H0V115.964zm287.9 0V2.628h28.915c31.486 0 40.104 1.304 51.063 7.725 8.266 4.844 16.906 14.583 21.302 24.012 3.556 7.628 3.697 8.898 4.15 37.377.377 23.7.03 31.193-1.767 38.208-2.596 10.129-7.325 18.761-13.86 25.295l-4.62 4.62 12.19 41.743c6.706 22.959 12.617 43.082 13.136 44.718.935 2.944.745 2.974-19.127 2.974h-20.07l-5.842-22.598c-5.82-22.519-20.683-78.936-21.944-83.3-.477-1.652.494-2.549 3.473-3.203 5.517-1.211 15.486-9.909 17.855-15.579 1.375-3.29 1.905-11.566 1.905-29.742V49.695l-4.065-4.064c-3.778-3.778-4.81-4.065-14.604-4.065h-10.538V229.3H287.9V115.964zm182.183 112.293c-.008-.574-.165-42.658-.348-93.52l-.333-92.476-17.038-.39-17.037-.391V2.628h105.702v38.938h-33.38V229.3h-18.776c-10.326 0-18.782-.47-18.79-1.043zm271.224-112.293V2.628h38.369l1.481 5.215c.815 2.868 7.15 23.05 14.076 44.848 6.927 21.798 14.574 46.047 16.994 53.886 2.42 7.84 4.99 14.254 5.712 14.254.802 0 1.277-22.825 1.222-58.754l-.09-58.753 18.838-.387 18.836-.387V229.3h-42.539l-3.981-12.864a4149.563 4149.563 0 00-8.573-27.266c-2.525-7.922-8.167-25.913-12.538-39.98-4.37-14.068-8.466-25.578-9.1-25.578-.635 0-1.155 23.78-1.155 52.844V229.3h-37.552V115.964zm165.508 0V2.628H1000v38.938h-55.694l.378 26.074.379 26.074h35.468l-.001 19.121-.001 19.121h-36.161v58.406H1000V229.3h-93.185V115.964z" fill="#0f0f0f"/></svg>