<svg version="1.1" id="Layer_1" xmlns="http://www.w3.org/2000/svg" x="0" y="0" viewBox="0 0 1116 1436" xml:space="preserve"><style>.st0{fill:#fffa0c}</style><circle cx="13.5" cy="1422.5" r="13.5"/><circle cx="13.5" cy="1322.5" r="13.5"/><circle cx="13.5" cy="1222.5" r="13.5"/><circle cx="13.5" cy="1122.5" r="13.5"/><circle cx="13.5" cy="1022.5" r="13.5"/><circle cx="112.5" cy="1422.5" r="13.5"/><circle cx="112.5" cy="1322.5" r="13.5"/><circle cx="112.5" cy="1222.5" r="13.5"/><circle cx="112.5" cy="1122.5" r="13.5"/><circle cx="112.5" cy="1022.5" r="13.5"/><circle cx="211.5" cy="1422.5" r="13.5"/><circle cx="211.5" cy="1322.5" r="13.5"/><circle cx="211.5" cy="1222.5" r="13.5"/><circle cx="211.5" cy="1122.5" r="13.5"/><circle cx="211.5" cy="1022.5" r="13.5"/><circle cx="310.5" cy="1422.5" r="13.5"/><circle cx="310.5" cy="1322.5" r="13.5"/><circle cx="310.5" cy="1222.5" r="13.5"/><circle cx="310.5" cy="1122.5" r="13.5"/><circle cx="310.5" cy="1022.5" r="13.5"/><circle cx="409.5" cy="1422.5" r="13.5"/><circle cx="409.5" cy="1322.5" r="13.5"/><circle cx="409.5" cy="1222.5" r="13.5"/><circle cx="409.5" cy="1122.5" r="13.5"/><circle cx="409.5" cy="1022.5" r="13.5"/><circle cx="508.5" cy="1422.5" r="13.5"/><circle cx="508.5" cy="1322.5" r="13.5"/><circle cx="508.5" cy="1222.5" r="13.5"/><circle cx="508.5" cy="1122.5" r="13.5"/><circle cx="508.5" cy="1022.5" r="13.5"/><circle cx="607.5" cy="1422.5" r="13.5"/><circle cx="607.5" cy="1322.5" r="13.5"/><circle cx="607.5" cy="1222.5" r="13.5"/><circle cx="607.5" cy="1122.5" r="13.5"/><circle cx="607.5" cy="1022.5" r="13.5"/><circle cx="706.5" cy="1422.5" r="13.5"/><circle cx="706.5" cy="1322.5" r="13.5"/><circle cx="706.5" cy="1222.5" r="13.5"/><circle cx="706.5" cy="1122.5" r="13.5"/><circle cx="706.5" cy="1022.5" r="13.5"/><circle cx="805.5" cy="1422.5" r="13.5"/><circle cx="805.5" cy="1322.5" r="13.5"/><circle cx="805.5" cy="1222.5" r="13.5"/><circle cx="805.5" cy="1122.5" r="13.5"/><circle cx="805.5" cy="1022.5" r="13.5"/><circle cx="904.5" cy="1422.5" r="13.5"/><circle cx="904.5" cy="1322.5" r="13.5"/><circle cx="904.5" cy="1222.5" r="13.5"/><circle cx="904.5" cy="1122.5" r="13.5"/><circle cx="904.5" cy="1022.5" r="13.5"/><circle cx="1003.5" cy="1422.5" r="13.5"/><circle cx="1003.5" cy="1322.5" r="13.5"/><circle cx="1003.5" cy="1222.5" r="13.5"/><circle cx="1003.5" cy="1122.5" r="13.5"/><circle cx="1003.5" cy="1022.5" r="13.5"/><circle cx="1102.5" cy="1422.5" r="13.5"/><circle cx="1102.5" cy="1322.5" r="13.5"/><circle cx="1102.5" cy="1222.5" r="13.5"/><circle cx="1102.5" cy="1122.5" r="13.5"/><circle cx="1102.5" cy="1022.5" r="13.5"/><circle class="st0" cx="13.5" cy="913.5" r="13.5"/><circle class="st0" cx="13.5" cy="813.5" r="13.5"/><circle class="st0" cx="13.5" cy="713.5" r="13.5"/><circle class="st0" cx="13.5" cy="613.5" r="13.5"/><circle class="st0" cx="13.5" cy="513.5" r="13.5"/><circle class="st0" cx="13.5" cy="413.5" r="13.5"/><circle class="st0" cx="13.5" cy="313.5" r="13.5"/><circle class="st0" cx="13.5" cy="213.5" r="13.5"/><circle class="st0" cx="13.5" cy="113.5" r="13.5"/><circle class="st0" cx="13.5" cy="13.5" r="13.5"/><circle class="st0" cx="112.5" cy="913.5" r="13.5"/><circle class="st0" cx="112.5" cy="813.5" r="13.5"/><circle class="st0" cx="112.5" cy="713.5" r="13.5"/><circle class="st0" cx="112.5" cy="613.5" r="13.5"/><circle class="st0" cx="112.5" cy="513.5" r="13.5"/><circle class="st0" cx="112.5" cy="413.5" r="13.5"/><circle class="st0" cx="112.5" cy="313.5" r="13.5"/><circle class="st0" cx="112.5" cy="213.5" r="13.5"/><circle class="st0" cx="112.5" cy="113.5" r="13.5"/><circle class="st0" cx="112.5" cy="13.5" r="13.5"/><circle class="st0" cx="211.5" cy="913.5" r="13.5"/><circle class="st0" cx="211.5" cy="813.5" r="13.5"/><circle class="st0" cx="211.5" cy="713.5" r="13.5"/><circle class="st0" cx="211.5" cy="613.5" r="13.5"/><circle class="st0" cx="211.5" cy="513.5" r="13.5"/><circle class="st0" cx="211.5" cy="413.5" r="13.5"/><circle class="st0" cx="211.5" cy="313.5" r="13.5"/><circle class="st0" cx="211.5" cy="213.5" r="13.5"/><circle class="st0" cx="211.5" cy="113.5" r="13.5"/><circle class="st0" cx="211.5" cy="13.5" r="13.5"/><circle class="st0" cx="310.5" cy="913.5" r="13.5"/><circle class="st0" cx="310.5" cy="813.5" r="13.5"/><circle class="st0" cx="310.5" cy="713.5" r="13.5"/><circle class="st0" cx="310.5" cy="613.5" r="13.5"/><circle class="st0" cx="310.5" cy="513.5" r="13.5"/><circle class="st0" cx="310.5" cy="413.5" r="13.5"/><circle class="st0" cx="310.5" cy="313.5" r="13.5"/><circle class="st0" cx="310.5" cy="213.5" r="13.5"/><circle class="st0" cx="310.5" cy="113.5" r="13.5"/><circle class="st0" cx="310.5" cy="13.5" r="13.5"/><circle class="st0" cx="409.5" cy="913.5" r="13.5"/><circle class="st0" cx="409.5" cy="813.5" r="13.5"/><circle class="st0" cx="409.5" cy="713.5" r="13.5"/><circle class="st0" cx="409.5" cy="613.5" r="13.5"/><circle class="st0" cx="409.5" cy="513.5" r="13.5"/><circle class="st0" cx="409.5" cy="413.5" r="13.5"/><circle class="st0" cx="409.5" cy="313.5" r="13.5"/><circle class="st0" cx="409.5" cy="213.5" r="13.5"/><circle class="st0" cx="409.5" cy="113.5" r="13.5"/><circle class="st0" cx="409.5" cy="13.5" r="13.5"/><circle class="st0" cx="508.5" cy="913.5" r="13.5"/><circle class="st0" cx="508.5" cy="813.5" r="13.5"/><circle class="st0" cx="508.5" cy="713.5" r="13.5"/><circle class="st0" cx="508.5" cy="613.5" r="13.5"/><circle class="st0" cx="508.5" cy="513.5" r="13.5"/><circle class="st0" cx="508.5" cy="413.5" r="13.5"/><circle class="st0" cx="508.5" cy="313.5" r="13.5"/><circle class="st0" cx="508.5" cy="213.5" r="13.5"/><circle class="st0" cx="508.5" cy="113.5" r="13.5"/><circle class="st0" cx="508.5" cy="13.5" r="13.5"/><circle class="st0" cx="607.5" cy="913.5" r="13.5"/><circle class="st0" cx="607.5" cy="813.5" r="13.5"/><circle class="st0" cx="607.5" cy="713.5" r="13.5"/><circle class="st0" cx="607.5" cy="613.5" r="13.5"/><circle class="st0" cx="607.5" cy="513.5" r="13.5"/><circle class="st0" cx="607.5" cy="413.5" r="13.5"/><circle class="st0" cx="607.5" cy="313.5" r="13.5"/><circle class="st0" cx="607.5" cy="213.5" r="13.5"/><circle class="st0" cx="607.5" cy="113.5" r="13.5"/><circle class="st0" cx="607.5" cy="13.5" r="13.5"/><circle class="st0" cx="706.5" cy="913.5" r="13.5"/><circle class="st0" cx="706.5" cy="813.5" r="13.5"/><circle class="st0" cx="706.5" cy="713.5" r="13.5"/><circle class="st0" cx="706.5" cy="613.5" r="13.5"/><circle class="st0" cx="706.5" cy="513.5" r="13.5"/><circle class="st0" cx="706.5" cy="413.5" r="13.5"/><circle class="st0" cx="706.5" cy="313.5" r="13.5"/><circle class="st0" cx="706.5" cy="213.5" r="13.5"/><circle class="st0" cx="706.5" cy="113.5" r="13.5"/><circle class="st0" cx="706.5" cy="13.5" r="13.5"/><circle class="st0" cx="805.5" cy="913.5" r="13.5"/><circle class="st0" cx="805.5" cy="813.5" r="13.5"/><circle class="st0" cx="805.5" cy="713.5" r="13.5"/><circle class="st0" cx="805.5" cy="613.5" r="13.5"/><circle class="st0" cx="805.5" cy="513.5" r="13.5"/><circle class="st0" cx="805.5" cy="413.5" r="13.5"/><circle class="st0" cx="805.5" cy="313.5" r="13.5"/><circle class="st0" cx="805.5" cy="213.5" r="13.5"/><circle class="st0" cx="805.5" cy="113.5" r="13.5"/><circle class="st0" cx="805.5" cy="13.5" r="13.5"/><circle class="st0" cx="904.5" cy="913.5" r="13.5"/><circle class="st0" cx="904.5" cy="813.5" r="13.5"/><circle class="st0" cx="904.5" cy="713.5" r="13.5"/><circle class="st0" cx="904.5" cy="613.5" r="13.5"/><circle class="st0" cx="904.5" cy="513.5" r="13.5"/><circle class="st0" cx="904.5" cy="413.5" r="13.5"/><circle class="st0" cx="904.5" cy="313.5" r="13.5"/><circle class="st0" cx="904.5" cy="213.5" r="13.5"/><circle class="st0" cx="904.5" cy="113.5" r="13.5"/><circle class="st0" cx="904.5" cy="13.5" r="13.5"/><circle class="st0" cx="1003.5" cy="913.5" r="13.5"/><circle class="st0" cx="1003.5" cy="813.5" r="13.5"/><circle class="st0" cx="1003.5" cy="713.5" r="13.5"/><circle class="st0" cx="1003.5" cy="613.5" r="13.5"/><circle class="st0" cx="1003.5" cy="513.5" r="13.5"/><circle class="st0" cx="1003.5" cy="413.5" r="13.5"/><circle class="st0" cx="1003.5" cy="313.5" r="13.5"/><circle class="st0" cx="1003.5" cy="213.5" r="13.5"/><circle class="st0" cx="1003.5" cy="113.5" r="13.5"/><circle class="st0" cx="1003.5" cy="13.5" r="13.5"/><circle class="st0" cx="1102.5" cy="913.5" r="13.5"/><circle class="st0" cx="1102.5" cy="813.5" r="13.5"/><circle class="st0" cx="1102.5" cy="713.5" r="13.5"/><circle class="st0" cx="1102.5" cy="613.5" r="13.5"/><circle class="st0" cx="1102.5" cy="513.5" r="13.5"/><circle class="st0" cx="1102.5" cy="413.5" r="13.5"/><circle class="st0" cx="1102.5" cy="313.5" r="13.5"/><circle class="st0" cx="1102.5" cy="213.5" r="13.5"/><circle class="st0" cx="1102.5" cy="113.5" r="13.5"/><circle class="st0" cx="1102.5" cy="13.5" r="13.5"/></svg>