<svg xmlns="http://www.w3.org/2000/svg" viewBox="0 0 192.2 192.2"><defs><style>.cls-1{opacity:0.8;}.cls-2{fill:#9ba0a5;}</style></defs><title>vw</title><g id="Layer_2" data-name="Layer 2"><g id="svg2"><g class="cls-1"><path class="cls-2" d="M95.3,115.8,76.8,163.7l-.1,1.5a72.28,72.28,0,0,0,37.3.3l-.2-1.8Z"/><path class="cls-2" d="M131.9,34.3l-21,57.8H81.4l-21.1-58A69.87,69.87,0,0,0,40.1,51.4L70,129l11-28.3h28.7l11,28.3,30.2-78.5A70.23,70.23,0,0,0,131.9,34.3Z"/><path class="cls-2" d="M24.3,96.2a71.37,71.37,0,0,0,37.3,62.7L28.3,72.4A72.05,72.05,0,0,0,24.3,96.2Z"/><path class="cls-2" d="M114.2,26.9a72.36,72.36,0,0,0-36.2,0L96.2,77Z"/><path class="cls-2" d="M162.9,70.9l-34.1,88.9a71.7,71.7,0,0,0,38.6-63.5A69,69,0,0,0,162.9,70.9Z"/><path class="cls-2" d="M96.1,0a96.1,96.1,0,1,0,96.1,96.1A96.07,96.07,0,0,0,96.1,0Zm-.2,179.5a83.35,83.35,0,1,1,0-166.7h0a83.63,83.63,0,0,1,83.4,83.5C179.3,142.1,141.8,179.5,95.9,179.5Z"/></g></g></g></svg>