<svg xmlns="http://www.w3.org/2000/svg" viewBox="0 0 623.6 233.8"><defs><style>.cls-1{fill:#9ba0a5;}.cls-2{fill:#fff;}</style></defs><title>ford</title><g id="Layer_2" data-name="Layer 2"><g id="layer"><path class="cls-1" d="M311.8,0C138.7,0,0,51.9,0,116.9c0,64.6,139.9,116.9,311.8,116.9s311.8-52.5,311.8-116.9S483.7,0,311.8,0"/><path class="cls-2" d="M495,83.4c.4-.7,0-1.2-.9-1.2H478.4c-1.2,0-1.8.1-2.3,1.2-1.8,3.5-23.8,36.5-27.9,42.9-.7,1-1.5.8-1.6-.3-.4-3.8-3.7-8.2-8.9-10.3a22.83,22.83,0,0,0-11.8-1.4c-7.2,1-13.7,4.8-19.4,9.1-8.6,6.5-15.9,14.9-25.5,21.2-5.2,3.4-12.3,6.3-17.1,1.9-4.3-4-3.8-12.9,2.8-19.8a.77.77,0,0,1,1.4.5,8.75,8.75,0,0,0,2.5,8.3,9.39,9.39,0,0,0,10.5,1.2,13.65,13.65,0,0,0,7.3-10.6,12,12,0,0,0-11-13.7c-5.5-.4-10.7,1.5-15.9,5.8a30.32,30.32,0,0,0-6.3,6.9c-.5.8-1.4.9-1.3-.3.3-9-3.5-14-10.9-14.2-5.7-.1-11.9,3-16.7,6.8-5.3,4.2-9.8,9.8-14.8,15.1-.6.6-1.1.6-1.3-.6-.2-5.9-1.6-11.7-4.4-15.8a3.72,3.72,0,0,0-4.7-1.2,32.06,32.06,0,0,0-5.6,3.3,3.15,3.15,0,0,0-1,3.5,41.24,41.24,0,0,1-1.5,27.5c-3.3,7.8-9.7,14.9-17.3,17.2-5,1.6-10.2.8-13.4-3.6-4.4-6.1-2.6-16.7,3.9-25.5,5.8-7.7,14.2-12.7,22.5-15.8,1-.4,1.2-1,.9-1.8-.4-1.4-1.2-3.2-1.5-4.1-.8-2-2.9-2.4-5.5-2.1a46.37,46.37,0,0,0-16.9,5.7c-14.1,7.6-21.2,22.2-24.4,30.1a32.09,32.09,0,0,1-4.4,8.2c-2.2,2.8-5,5.4-10.2,9.8a1.76,1.76,0,0,0-.4,2.1,24.33,24.33,0,0,0,3.9,5.2c.8.4,1.8-.2,2.2-.4a52.15,52.15,0,0,0,10-8.9c.7-.9,1.5-.5,1.9.8a22.14,22.14,0,0,0,14.2,15.1c13,4.4,26.5-2,36.6-13,6.5-7,8.8-11.5,11.3-14.6,4.2-5.2,12.5-16.8,22.3-24.3,3.6-2.8,7.9-4.9,10-3.5,1.7,1.1,2.3,3.7-.5,8.8-10,18.3-24.8,39.9-27.5,45.1-.5.9-.1,1.6.9,1.6h15.2a1.78,1.78,0,0,0,1.6-1c7.7-12.1,15-23.6,22.7-35.4.4-.7.8-.2.8.1.2,2.8.8,6.5,2.5,9a13.52,13.52,0,0,0,11.7,6.6c3.7,0,5.5-.5,9.5-2a35,35,0,0,0,7.8-4.2c1.2-.8,1.4.5,1.3.7-1.8,9.6.4,20.9,9.9,25.7,11.4,5.6,23.9-2.3,31.1-9.4.7-.7,1.5-.6,1.5.9a13.52,13.52,0,0,0,3.6,8.2c6,6.1,18.2,3.7,30.4-5.8A155.13,155.13,0,0,0,484.7,151a1.07,1.07,0,0,0,0-1.5c-1.1-1.2-2.8-2.5-3.9-3.6a1.51,1.51,0,0,0-1.7,0c-7.6,7.2-14.5,15.5-24.3,22.3-3.3,2.3-8.7,4.2-11,1-.9-1.2-.8-3,.1-5.3,3-6.9,48.7-76.4,51.1-80.5m-60.4,58.3c.1.5.8,1,1.5,1.3.2.1.4.3.1.8A57.76,57.76,0,0,1,430,154a41.94,41.94,0,0,1-7.8,8.5c-4.6,3.8-11,7.9-16.3,5.2-2.3-1.2-3.4-4.5-3.3-7.2.1-7.5,3.4-15.2,9.6-22.7,7.5-9.2,15.8-14,21.2-11.4,5.6,2.7,3.8,9.2,1.3,14.3a1.18,1.18,0,0,0-.1,1"/><path class="cls-2" d="M163.7,181.3c-17,.1-32-10.4-33.8-28.6a36.59,36.59,0,0,1,7.6-26.5c5.1-6.6,13.6-12.1,20.9-13.4,2.4-.4,5.5-.2,6.8,1.4,2.1,2.4,1.5,5-.6,6.1-5.5,2.8-12.2,7.7-15.5,14.3-2.7,5.4-3.2,11.9.9,18.1,6.8,10.3,25.9,10.6,43.6-5.9a145.34,145.34,0,0,0,12.3-12.5c7.8-8.9,10.4-12.2,20.8-26.6.1-.2.2-.4.1-.5s-.2-.2-.5-.2a31.39,31.39,0,0,0-18.8,6.6c-1.7,1.2-4.1,1.1-5.2-.6s-.3-4.2,1.6-5.6c9.4-6.6,19.8-7.8,30.3-9.5a1.78,1.78,0,0,0,1.3-.8c4.3-5.5,7.6-10.6,12.2-16.2S258.3,70,262.9,66a64.57,64.57,0,0,1,14.7-9.6c1.1-.6-.1-1.3-.5-1.3-23.3-4.4-47.5-10-70.6-1.5-16,6-23,18.7-19.7,27.2,2.4,6,10.3,7,17.7,3.4a41.13,41.13,0,0,0,15.9-14.1c2.3-3.5,7-1,4.5,5.1-6.8,15.9-19.7,28.5-35.4,29-13.4.4-22-9.4-22-21.6.1-24,26.8-39.8,54.8-42.1,33.8-2.8,65.8,6.2,99.4,10.3,25.7,3.1,50.4,3.2,76.2-2.8,3.1-.7,5.2,1.3,5,4.4-.3,4.5-3.7,8.8-12.2,13.4-9.7,5.3-19.8,6.9-30.4,7-25.6.2-49.4-9.8-74.1-15.1,0,1.1.3,2.4-.6,3C272,70.8,259.6,81,251.3,95.4c-.3.3-.1.6.4.6,7.2-.4,13.6-.6,20.3-1.1,1.2-.1,1.2-.4,1.1-1.2a16.61,16.61,0,0,1,5.2-14.5c4.5-4,10-4.5,13.7-1.6,4.2,3.3,3.8,9.2,1.5,13.6a15.93,15.93,0,0,1-9.9,8s-.8.2-.7.9c.2,1.1,5.2,3.9,5.6,4.7a2.27,2.27,0,0,1-.6,2.6,3.29,3.29,0,0,1-2.4,1.2,4.77,4.77,0,0,1-2.5-.9,24.34,24.34,0,0,1-7-5.6c-.7-.8-1-.8-2.6-.7-7.3.4-18.6,1.5-26.2,2.5-1.9.2-2.1.6-2.5,1.2-12.2,20.1-25.3,41.9-39.6,56.4-15.1,15.6-27.8,19.7-41.4,19.8M280.1,91.8c.2,1,.6,1.2,1.1,1.1a11.54,11.54,0,0,0,6.4-4.6c1.4-2,2-4.9.7-6.1-1.2-1-3.2-.8-4.7.5a10.41,10.41,0,0,0-3.5,9.1"/><path class="cls-2" d="M311.8,223.7C146.8,223.7,13,175.9,13,117S146.8,10.3,311.8,10.3,610.6,58.1,610.6,117,476.8,223.7,311.8,223.7m0-204.6c-159.2,0-288.3,44-288.3,97.8s129.1,97.8,288.3,97.8,288.3-44,288.3-97.8S471,19.1,311.8,19.1"/></g></g></svg>
