<svg version="1.0" xmlns="http://www.w3.org/2000/svg" width="933.333" height="933.333" viewBox="0 0 700 700"><path d="M328.5.6c-20.3 2-27.6 2.8-37.5 4.5-61 10.5-119.5 37.6-166.5 77.2-9.5 8.1-31 29.4-39.4 39.2C38.3 175.7 10.9 239.1 1.8 314c-1.7 13.7-1.7 58.3 0 72 6.9 56.9 22.7 102.8 51.4 149.1 14.5 23.6 31.1 44 52.5 64.9 20.4 20 37.1 33.2 59.2 46.8 46.3 28.7 92.2 44.5 149.1 51.4 13.7 1.7 58.3 1.7 72 0 56.9-6.9 102.8-22.7 149.1-51.4 36-22.2 69.2-52.8 95.8-88.2 32.3-43 54.9-96 64-150.1 3.8-22.3 4.6-32.7 4.6-58.5 0-25.8-.8-36.2-4.6-58.5-10.5-62.7-38.2-121.6-80-170-8.4-9.8-29.9-31.1-39.4-39.2-51.8-43.7-114.8-71-184.5-79.8C379.3 1 337.4-.3 328.5.6zm48.1 94.8c8.3.9 14.8 2.1 17.7 3.4 6.4 2.8 12.2 8.5 15.4 15l2.8 5.7.3 187.7.2 187.8h-29l-.2-184.7-.3-184.8-4-.7c-7.8-1.6-39.9-2.1-51.6-.9-47 4.9-90.7 23.6-126.5 54.4-23.3 20.1-41.2 43.4-55.4 72.2-38.9 79.1-27.9 174.1 28.1 243.2 8.1 9.9 22.3 24.2 31.7 31.7 3.9 3.2 7.2 6.1 7.2 6.5 0 .4-3.7 5.8-8.3 11.9l-8.4 11.1-8.9-7.2c-40.6-32.6-72.3-82.6-85.5-134.6-5.7-22.6-7.4-37.1-7.3-63.1 0-29.7 2.8-49 10.6-74.5 24.8-81.3 87.4-144.2 168.7-169.9 16.7-5.3 36.3-9.1 56.1-11 9.5-.8 34.9-.4 46.6.8zm136.9 57.7c11.2 8.9 25.6 23.5 35.5 35.9 28.9 36.3 46.4 75.8 54.1 122.8 3.1 18.1 3.3 55.3.5 73.2-12.8 83.3-59.7 150.8-132.1 190.2-35.5 19.4-72.7 29.2-114.5 30.4-25 .7-44.5-1.2-52.5-5.1-6.2-3-11.8-8.8-14.9-15.4l-2.1-4.6-.3-187.8L287 205h29l.2 184.7.3 184.8 4 .7c7.8 1.6 39.9 2.1 51.6.9 47-4.9 90.7-23.6 126.5-54.4 23.3-20.1 41.2-43.4 55.4-72.2 38.9-79.1 27.9-174.1-28.1-243.2-8.1-9.9-22.3-24.2-31.7-31.7-4.3-3.5-7.1-6.4-6.8-7.2 1.3-3.4 16.2-22.1 17.1-21.5.6.4 4.6 3.6 9 7.2z"/></svg>