<svg xmlns="http://www.w3.org/2000/svg" viewBox="0 0 2371.24 1289.05"><g data-name="Layer 2"><g data-name="Layer 1"><path fill="#fffa0c" d="M588.81 619H795.81V643H588.81z"/><path fill="#fffa0c" d="M328.81 190H816.81V214H328.81z"/><path fill="#fffa0c" d="M567.81 1087H799.81V1111H567.81z"/><path fill="#fffa0c" d="M1676.81 847H1870.81V871H1676.81z"/><path fill="#fffa0c" d="M1684.81 394H1878.81V418H1684.81z"/><path d="M1713.81 395a.4.4 0 0 0 .4.2h22.24a1.21 1.21 0 0 1 .86.35 1.18 1.18 0 0 1 .35.87v7.71a1.2 1.2 0 0 1-1.21 1.21h-35.4a1.18 1.18 0 0 1-.87-.35 1.21 1.21 0 0 1-.35-.86V396a2.29 2.29 0 0 1 .51-1.52l4-5.38q4-5.26 7.76-10.75t6.44-9.84q5.88-9.74 5.89-16.13a10.36 10.36 0 0 0-1.78-6.39 5.64 5.64 0 0 0-4.72-2.33 5.53 5.53 0 0 0-4.66 2.28 9.32 9.32 0 0 0-1.62 6v3.95a1.21 1.21 0 0 1-1.22 1.22h-9.54a1.19 1.19 0 0 1-.86-.35 1.18 1.18 0 0 1-.35-.87v-4.36q.4-8.12 5.52-13.08t13.24-5q8 0 12.93 5.22t4.92 13.75a30.41 30.41 0 0 1-1.72 10 48.73 48.73 0 0 1-5.48 10.65q-2.53 4.05-6 8.92c-2.34 3.25-3.87 5.38-4.62 6.39q-3 4.07-4.46 6.09a.33.33 0 0 0-.2.53zm34.99 6q-5.17-5.42-5.17-14.25v-33.89q0-8.82 5.17-14.25t13.69-5.43q8.63 0 13.85 5.43t5.22 14.25v33.88q0 8.82-5.22 14.25t-13.89 5.43q-8.48 0-13.65-5.42zm19-7.2a9.6 9.6 0 0 0 2-6.34v-35.3a9.6 9.6 0 0 0-2-6.34 6.56 6.56 0 0 0-5.33-2.38 6.31 6.31 0 0 0-5.17 2.38 9.81 9.81 0 0 0-1.93 6.34v35.3a9.81 9.81 0 0 0 1.93 6.34 6.31 6.31 0 0 0 5.17 2.38 6.56 6.56 0 0 0 5.35-2.39zm26.65 7.2q-5.18-5.42-5.18-14.25v-33.89q0-8.82 5.18-14.25t13.69-5.43q8.63 0 13.84 5.43t5.23 14.25v33.88q0 8.82-5.23 14.25t-13.84 5.43q-8.52 0-13.69-5.42zm19-7.2a9.6 9.6 0 0 0 2-6.34v-35.3a9.6 9.6 0 0 0-2-6.34 6.54 6.54 0 0 0-5.32-2.38 6.28 6.28 0 0 0-5.17 2.38 9.75 9.75 0 0 0-1.93 6.34v35.3a9.75 9.75 0 0 0 1.93 6.34 6.28 6.28 0 0 0 5.17 2.38 6.54 6.54 0 0 0 5.32-2.39zm59.15-24.46a1.18 1.18 0 0 1 .35.87v6.49a1.15 1.15 0 0 1-.35.86 1.18 1.18 0 0 1-.86.36h-13.39a.44.44 0 0 0-.51.5v13.39a1.21 1.21 0 0 1-1.22 1.22h-6.49a1.16 1.16 0 0 1-.86-.36 1.15 1.15 0 0 1-.36-.86v-13.39a.44.44 0 0 0-.5-.5h-13.39a1.15 1.15 0 0 1-.86-.36 1.16 1.16 0 0 1-.36-.86v-6.49a1.21 1.21 0 0 1 1.22-1.22h13.43a.45.45 0 0 0 .5-.51v-13.39a1.18 1.18 0 0 1 .36-.86 1.19 1.19 0 0 1 .86-.35h6.49a1.2 1.2 0 0 1 1.22 1.21v13.39a.45.45 0 0 0 .51.51h13.39a1.21 1.21 0 0 1 .82.35z" fill="#271e53"/><path d="M1701.45 504.86v-39.22h3.1v3.55a12.52 12.52 0 0 1 9.41-4.12 13.11 13.11 0 0 1 8.18 2.88 13.71 13.71 0 0 1 4.79 10.54 13.18 13.18 0 0 1-5.47 11 13 13 0 0 1-7.66 2.43 11.32 11.32 0 0 1-9.13-4.23v17.19zm3.22-21.64a10.67 10.67 0 0 0 9.18 5.63 9.91 9.91 0 0 0 9.86-10.36 10.49 10.49 0 0 0-3.6-8.17 9.92 9.92 0 0 0-6.2-2.2 11.29 11.29 0 0 0-9.24 5.18zm42.37-15.05c-.34-.05-1.35-.05-1.52-.05a9 9 0 0 0-8.06 5.69v17.52h-3.21v-25.69h3.2V469a9.9 9.9 0 0 1 8.12-3.95 18.09 18.09 0 0 1 1.91.12zm17.92 23.73a13.42 13.42 0 1 1 13.24-13.41 13.12 13.12 0 0 1-13.24 13.41zm0-23.78a10.37 10.37 0 1 0 10 10.37 10 10 0 0 0-10-10.37zm15.49 34.15a7.12 7.12 0 0 0 1.41.11 6 6 0 0 0 5-2.42c.74-1.08 1.07-2.31 1.07-5.36v-29h3.22v29c0 4-.68 6.09-2 7.72a9.22 9.22 0 0 1-7.1 3.1 8.61 8.61 0 0 1-1.86-.17zm9.07-48.41a2.89 2.89 0 0 1 2.88 2.87 2.84 2.84 0 0 1-2.88 2.82 2.79 2.79 0 0 1-2.82-2.82 2.84 2.84 0 0 1 2.83-2.87zm32.36 33.3a13.31 13.31 0 0 1-10.43 4.74c-7.22 0-12.91-5.41-12.91-13.41 0-7.39 5-13.42 12.29-13.42 6.87 0 11.94 5.41 11.94 12.57a9.15 9.15 0 0 1-.06 1.13h-21c.23 5.46 3.78 10.08 9.7 10.08a10.25 10.25 0 0 0 8.22-3.83zm-20-11.32h17.57a8.7 8.7 0 0 0-8.62-7.72c-4.62 0-8 3.27-8.96 7.72zm50.14 11.61a13.59 13.59 0 0 1-10.14 4.45c-7.16 0-13.81-5.19-13.81-13.41a13.24 13.24 0 0 1 13.3-13.42 13.41 13.41 0 0 1 9.81 4l-2 2.31a11 11 0 0 0-7.78-3.27 10.37 10.37 0 0 0 .46 20.73 10.66 10.66 0 0 0 7.88-3.55zm21.14-18.77h-8.71v14.09c0 2.31.45 3.44 1.13 4.28a5.24 5.24 0 0 0 4.28 1.8 10.27 10.27 0 0 0 2.76-.33l.57 2.93a12.58 12.58 0 0 1-3.33.45 8.61 8.61 0 0 1-6.87-2.93c-1.13-1.41-1.75-3.27-1.75-6.31v-14h-7.21v-3h7.21v-7h3.21v7h8.74zm7.29 17.07a12.13 12.13 0 0 0 7.78 3.1c3.21 0 5.92-1.8 5.92-4.5 0-6.6-14.82-3-14.82-11.78 0-4.68 4.39-7.5 8.73-7.5a14.92 14.92 0 0 1 8.28 2.48l-1.69 2.65a10.53 10.53 0 0 0-6.42-2.08c-2.71 0-5.69 1.41-5.69 4.39 0 5.69 14.82 2.65 14.82 11.67 0 4.79-4.06 7.72-8.91 7.72a14.54 14.54 0 0 1-10-3.67zm48.1 5.58h-2.1l-9.91-25.69h3.32l7.78 20.17 8.22-20.17h2l8.23 20.17 7.78-20.17h3.32l-9.92 25.69h-2.08l-8.34-20.45zm36.18-37.47a2.89 2.89 0 0 1 2.87 2.87 2.84 2.84 0 0 1-2.87 2.82 2.79 2.79 0 0 1-2.82-2.82 2.84 2.84 0 0 1 2.82-2.87zm-1.58 11.78h3.21v25.69h-3.21zm27.44 3.04h-8.73v14.09c0 2.31.45 3.44 1.12 4.28a5.28 5.28 0 0 0 4.29 1.8 10.27 10.27 0 0 0 2.76-.33l.56 2.93a12.51 12.51 0 0 1-3.32.45 8.64 8.64 0 0 1-6.88-2.93c-1.13-1.41-1.74-3.27-1.74-6.31v-14h-7.2v-3h7.22v-7h3.21v7h8.73zm11.1.4a11.89 11.89 0 0 1 18.09.33c1.41 1.86 2.2 4 2.2 8.23v13.69h-3.21v-13.46c0-3.38-.57-5-1.47-6.32a8 8 0 0 0-6.7-3.43 10.19 10.19 0 0 0-8.91 5.35v17.86h-3.24v-40h3.21zm59.17-.4h-8.73v14.09c0 2.31.45 3.44 1.12 4.28a5.28 5.28 0 0 0 4.29 1.8 10.27 10.27 0 0 0 2.76-.33l.56 2.93a12.51 12.51 0 0 1-3.32.45 8.64 8.64 0 0 1-6.88-2.93c-1.13-1.41-1.75-3.27-1.75-6.31v-14h-7.21v-3h7.21v-7h3.22v7h8.73zm20.68-.51c-.34-.05-1.35-.05-1.52-.05a9 9 0 0 0-8.06 5.69v17.52h-3.21v-25.69h3.21V469a9.88 9.88 0 0 1 8.12-3.95 18.26 18.26 0 0 1 1.91.12zm27.05 23.16v-3.77a11.33 11.33 0 0 1-9.24 4.34 13 13 0 0 1-7.67-2.43 13.17 13.17 0 0 1-5.46-11 13.71 13.71 0 0 1 4.79-10.54 13.06 13.06 0 0 1 8.17-2.88 12.52 12.52 0 0 1 9.41 4.12v-3.55h3.1v25.69zm-.11-18a11.32 11.32 0 0 0-9.24-5.18 9.88 9.88 0 0 0-6.2 2.2 10.46 10.46 0 0 0-3.61 8.17 10.27 10.27 0 0 0 4.06 8.45 10.16 10.16 0 0 0 5.8 1.91 10.68 10.68 0 0 0 9.19-5.63zm14.37-19.47a2.89 2.89 0 0 1 2.87 2.87 2.84 2.84 0 0 1-2.87 2.82 2.79 2.79 0 0 1-2.82-2.82 2.84 2.84 0 0 1 2.82-2.87zm-1.58 11.78h3.18v25.69h-3.21zm15.89 3.6a11.86 11.86 0 0 1 18.2.17c1.41 1.86 2.2 4 2.2 8.23v13.69h-3.21v-13.46c0-3.38-.57-5-1.47-6.32a8 8 0 0 0-6.7-3.43 10.19 10.19 0 0 0-8.91 5.35v17.86h-3.21v-25.69h3.1zm30.99-15.38a2.89 2.89 0 0 1 2.88 2.87 2.84 2.84 0 0 1-2.88 2.82 2.79 2.79 0 0 1-2.82-2.82 2.84 2.84 0 0 1 2.82-2.87zm-1.58 11.78h3.22v25.69h-3.22zm15.88 3.6a11.87 11.87 0 0 1 18.21.17c1.4 1.86 2.19 4 2.19 8.23v13.69h-3.21v-13.46c0-3.38-.56-5-1.46-6.32a8 8 0 0 0-6.71-3.43 10.17 10.17 0 0 0-8.9 5.35v17.86h-3.21v-25.69h3.09zm51.24 30.26c-1.86 3.5-5.52 5.92-11.16 5.92a13.66 13.66 0 0 1-11.66-6.14l2.53-1.86a10.46 10.46 0 0 0 9.19 5c4.34 0 7-1.86 8.28-4.4.79-1.57 1-3.43 1-6.65v-3.66a11.35 11.35 0 0 1-9.13 4.23 13 13 0 0 1-7.67-2.43 13.17 13.17 0 0 1-5.46-11 13.71 13.71 0 0 1 4.84-10.51 13.06 13.06 0 0 1 8.17-2.88 12.52 12.52 0 0 1 9.41 4.12v-3.55h3.1v25.58c-.03 3.73-.37 6.21-1.44 8.23zm-1.8-26.2a11.33 11.33 0 0 0-9.25-5.18 9.87 9.87 0 0 0-6.19 2.2 10.46 10.46 0 0 0-3.61 8.17 10.27 10.27 0 0 0 4.06 8.45 10.16 10.16 0 0 0 5.8 1.91 10.68 10.68 0 0 0 9.19-5.63zm31.21 16.17a13.17 13.17 0 0 1-5.46-11 13.71 13.71 0 0 1 4.81-10.47 13.06 13.06 0 0 1 8.17-2.88 12.61 12.61 0 0 1 9.3 4v-17.79h3.21v40h-3.1v-3.77a11.33 11.33 0 0 1-9.24 4.34 13 13 0 0 1-7.69-2.43zm16.8-16.17a11.33 11.33 0 0 0-9.25-5.18 9.87 9.87 0 0 0-6.19 2.2 10.46 10.46 0 0 0-3.61 8.17 10.27 10.27 0 0 0 4.06 8.45 10.16 10.16 0 0 0 5.8 1.91 10.68 10.68 0 0 0 9.19-5.63zm32.91 18.03v-3.77a11.35 11.35 0 0 1-9.25 4.34 13 13 0 0 1-7.66-2.43 13.18 13.18 0 0 1-5.47-11 13.71 13.71 0 0 1 4.79-10.54 13.1 13.1 0 0 1 8.17-2.88 12.56 12.56 0 0 1 9.42 4.12v-3.55h3.09v25.69zm-.12-18a11.31 11.31 0 0 0-9.24-5.18 9.92 9.92 0 0 0-6.2 2.2 10.49 10.49 0 0 0-3.6 8.17 9.91 9.91 0 0 0 9.86 10.36 10.67 10.67 0 0 0 9.18-5.63zm27.45-4.65h-8.69v14.09c0 2.31.45 3.44 1.13 4.28a5.24 5.24 0 0 0 4.28 1.8 10.27 10.27 0 0 0 2.76-.33l.57 2.93a12.58 12.58 0 0 1-3.33.45 8.61 8.61 0 0 1-6.87-2.93c-1.13-1.41-1.75-3.27-1.75-6.31v-14h-7.21v-3h7.21v-7h3.21v7h8.74zm28 22.65v-3.77a11.32 11.32 0 0 1-9.24 4.34 13 13 0 0 1-7.66-2.43 13.18 13.18 0 0 1-5.47-11 13.71 13.71 0 0 1 4.79-10.54 13.06 13.06 0 0 1 8.17-2.88 12.52 12.52 0 0 1 9.41 4.12v-3.55h3.1v25.69zm-.11-18a11.32 11.32 0 0 0-9.24-5.18 9.9 9.9 0 0 0-6.2 2.2 10.46 10.46 0 0 0-3.61 8.17 9.92 9.92 0 0 0 9.86 10.36 10.68 10.68 0 0 0 9.19-5.63zm-662.91-202.04v19h-3.38v-39.4h14.59c3.61 0 6 .9 7.72 2.37a10.3 10.3 0 0 1 0 15.66c-1.75 1.47-4.11 2.37-7.72 2.37zm11-3.21c3 0 4.79-.79 6.09-2.09a6.93 6.93 0 0 0 0-9.8c-1.3-1.3-3-2.09-6.09-2.09h-11v14zm29.01 22.82a13.41 13.41 0 1 1 13.24-13.41 13.13 13.13 0 0 1-13.24 13.41zm0-23.78a10.38 10.38 0 1 0 10 10.37 10 10 0 0 0-10-10.37zm28.9 23.22h-2.08l-9.92-25.7h3.33l7.77 20.17 8.23-20.17h2l8.23 20.17 7.77-20.17h3.33l-9.92 25.7h-2.09l-8.34-20.46zm55.74-4.17a13.34 13.34 0 0 1-10.48 4.73c-7.22 0-12.91-5.41-12.91-13.41 0-7.38 5-13.41 12.29-13.41 6.87 0 11.94 5.41 11.94 12.56a11 11 0 0 1-.05 1.13h-21c.23 5.47 3.78 10.09 9.7 10.09a10.28 10.28 0 0 0 8.22-3.83zm-20-11.33h17.53a8.7 8.7 0 0 0-8.62-7.72c-4.58 0-7.96 3.27-8.92 7.72zm40.96-7.66a14.39 14.39 0 0 0-1.52-.06 9 9 0 0 0-8.06 5.69v17.53h-3.21v-25.7h3.21V268a9.86 9.86 0 0 1 8.11-3.94 18.61 18.61 0 0 1 1.92.11zm28.06 18.99a13.32 13.32 0 0 1-10.48 4.73c-7.21 0-12.9-5.41-12.9-13.41 0-7.38 5-13.41 12.28-13.41 6.88 0 12 5.41 12 12.56a9.15 9.15 0 0 1-.06 1.13h-21c.22 5.47 3.77 10.09 9.69 10.09a10.3 10.3 0 0 0 8.23-3.83zm-20-11.33h17.52a8.69 8.69 0 0 0-8.62-7.72c-4.56 0-7.95 3.27-8.9 7.72zm31.38 13.64a13.21 13.21 0 0 1-5.46-11 13.72 13.72 0 0 1 4.79-10.54 13.05 13.05 0 0 1 8.17-2.87 12.64 12.64 0 0 1 9.3 4v-17.74h3.21v40h-3.1v-3.78a11.33 11.33 0 0 1-9.24 4.34 13.08 13.08 0 0 1-7.67-2.41zm16.8-16.18a11.32 11.32 0 0 0-9.24-5.18 9.88 9.88 0 0 0-6.2 2.2 10.48 10.48 0 0 0-3.61 8.17 9.94 9.94 0 0 0 9.86 10.37 10.67 10.67 0 0 0 9.19-5.64zm-179.99 468.52l-15.21-20.18h-6.65v20.18h-3.38v-39.45h13.46c3.61 0 5.92 1 7.67 2.54a9.68 9.68 0 0 1 0 14.2c-1.64 1.52-3.78 2.42-7.05 2.53l15.22 20.18zm-12-23.39c2.82 0 4.34-.62 5.47-1.69a6.4 6.4 0 0 0 0-9.46c-1.13-1.07-2.65-1.7-5.47-1.7h-9.91v12.85zm41.25 23.39V737a11.33 11.33 0 0 1-9.24 4.34 13 13 0 0 1-13.13-13.34 13.72 13.72 0 0 1 4.79-10.54 13.11 13.11 0 0 1 8.17-2.87 12.51 12.51 0 0 1 9.41 4.11v-3.55h3.1v25.7zm-.11-18a11.31 11.31 0 0 0-9.25-5.19 9.87 9.87 0 0 0-6.19 2.2 10.49 10.49 0 0 0-3.61 8.17 9.94 9.94 0 0 0 9.86 10.37 10.67 10.67 0 0 0 9.19-5.64zm14.33-19.48a2.89 2.89 0 0 1 2.88 2.88 2.84 2.84 0 0 1-2.88 2.78 2.79 2.79 0 0 1-2.81-2.82 2.84 2.84 0 0 1 2.81-2.84zm-1.57 11.78h3.21v25.7h-3.21zm12.25 20.12a12.2 12.2 0 0 0 7.78 3.1c3.21 0 5.92-1.8 5.92-4.51 0-6.59-14.82-3-14.82-11.78 0-4.67 4.39-7.49 8.73-7.49a14.88 14.88 0 0 1 8.29 2.48l-1.7 2.65a10.52 10.52 0 0 0-6.42-2.09c-2.7 0-5.69 1.41-5.69 4.4 0 5.69 14.82 2.65 14.82 11.66 0 4.79-4.06 7.72-8.9 7.72a14.61 14.61 0 0 1-10-3.66zm45.65 1.41a13.34 13.34 0 0 1-10.48 4.73c-7.22 0-12.91-5.41-12.91-13.41 0-7.38 5-13.41 12.29-13.41 6.87 0 11.94 5.41 11.94 12.56a10.86 10.86 0 0 1-.05 1.13h-21c.22 5.47 3.77 10.09 9.69 10.09a10.24 10.24 0 0 0 8.22-3.83zm-20-11.33h17.53a8.7 8.7 0 0 0-8.62-7.72c-4.58 0-7.96 3.27-8.92 7.72zm31.38 13.68a13.21 13.21 0 0 1-5.46-11 13.72 13.72 0 0 1 4.79-10.54 13.11 13.11 0 0 1 8.17-2.87 12.6 12.6 0 0 1 9.29 4v-17.78h3.22v40h-3.1V737a11.33 11.33 0 0 1-9.24 4.34 13.08 13.08 0 0 1-7.67-2.34zm16.79-16.17a11.27 11.27 0 0 0-9.24-5.19 9.92 9.92 0 0 0-6.2 2.2 10.52 10.52 0 0 0-3.6 8.17 9.93 9.93 0 0 0 9.86 10.37 10.65 10.65 0 0 0 9.18-5.64zm29.59-19.49a2.89 2.89 0 0 1 2.87 2.88 2.83 2.83 0 0 1-2.87 2.82 2.79 2.79 0 0 1-2.82-2.82 2.84 2.84 0 0 1 2.82-2.88zm-1.58 11.78h3.21v25.7h-3.21zm15.89 3.61a11.86 11.86 0 0 1 18.2.17c1.41 1.86 2.2 4 2.2 8.22v13.7h-3.21v-13.47c0-3.38-.57-5-1.47-6.31a8 8 0 0 0-6.7-3.44 10.19 10.19 0 0 0-8.91 5.36v17.86h-3.21v-25.7h3.1zm51.39 18.2a13.57 13.57 0 0 1-10.14 4.45c-7.16 0-13.81-5.18-13.81-13.41a13.24 13.24 0 0 1 13.3-13.41 13.45 13.45 0 0 1 9.81 4l-2 2.31a11 11 0 0 0-7.78-3.27 10.372 10.372 0 0 0 .45 20.74 10.7 10.7 0 0 0 7.89-3.55zm17.47 4.45a13.41 13.41 0 1 1 13.24-13.38 13.12 13.12 0 0 1-13.24 13.38zm0-23.78a10.38 10.38 0 1 0 10 10.37 10 10 0 0 0-10-10.37zm23.67 1.02a11 11 0 0 1 8.68-4.06 10.69 10.69 0 0 1 9.63 5.47 12 12 0 0 1 10.09-5.47 10.9 10.9 0 0 1 9.67 5.44 14.35 14.35 0 0 1 1.52 7.27v13.58h-3.21v-13.22c0-3.6-.57-5.3-1.47-6.65a7.64 7.64 0 0 0-6.48-3.38c-4.11 0-7.27 2.88-8.85 6a22.25 22.25 0 0 1 .29 3.66v13.58h-3.22v-13.21c0-3.6-.56-5.3-1.46-6.65a7.64 7.64 0 0 0-6.48-3.38 9.92 9.92 0 0 0-8.64 5.4v17.86h-3.21v-25.7h3.1zm69.71 18.03a13.34 13.34 0 0 1-10.48 4.73c-7.22 0-12.91-5.41-12.91-13.41 0-7.38 5-13.41 12.29-13.41 6.87 0 11.94 5.41 11.94 12.56a9.06 9.06 0 0 1-.06 1.13h-21c.23 5.47 3.78 10.09 9.7 10.09a10.25 10.25 0 0 0 8.22-3.83zm-20-11.33h17.53a8.7 8.7 0 0 0-8.62-7.72c-4.55 0-7.96 3.27-8.92 7.72zm27.6 9.92a12.2 12.2 0 0 0 7.78 3.1c3.21 0 5.92-1.8 5.92-4.51 0-6.59-14.82-3-14.82-11.78 0-4.67 4.39-7.49 8.73-7.49a14.84 14.84 0 0 1 8.28 2.48l-1.69 2.65a10.52 10.52 0 0 0-6.42-2.09c-2.7 0-5.69 1.41-5.69 4.4 0 5.69 14.82 2.65 14.82 11.66 0 4.79-4.06 7.72-8.9 7.72a14.61 14.61 0 0 1-10-3.66z" fill="#27282a"/><path d="M1741.24 828.92a1.19 1.19 0 0 1 .36.87V838a1.21 1.21 0 0 1-1.22 1.22h-3a.45.45 0 0 0-.51.51v16.73a1.2 1.2 0 0 1-1.21 1.22h-9.34a1.19 1.19 0 0 1-.86-.35 1.18 1.18 0 0 1-.35-.87v-16.73a.45.45 0 0 0-.51-.51h-24.95a1.2 1.2 0 0 1-1.22-1.22v-6.59a5 5 0 0 1 .2-1.52l14.1-42.2a1.27 1.27 0 0 1 1.32-1h10.14a1.18 1.18 0 0 1 .92.35 1.15 1.15 0 0 1 .1 1.07l-13 39.86c-.06.41.07.61.41.61h12a.45.45 0 0 0 .51-.51v-12.18a1.21 1.21 0 0 1 1.21-1.22h9.34a1.18 1.18 0 0 1 .86.36 1.19 1.19 0 0 1 .35.86v12.17a.45.45 0 0 0 .51.51h3a1.18 1.18 0 0 1 .84.35zm7.56 26.94a7.21 7.21 0 0 1 5.17-12.38 6.86 6.86 0 0 1 5.13 2 7.71 7.71 0 0 1-.05 10.35 6.91 6.91 0 0 1-5.08 2 7 7 0 0 1-5.17-1.97zm55.08-20.29a44.42 44.42 0 0 1-.71 8.52q-1.21 6.9-5.53 10.65t-11.71 3.75q-7.71 0-12.58-4.11a15.74 15.74 0 0 1-5.48-11.2c-.14-1.49-.27-3.65-.41-6.5a1.07 1.07 0 0 1 1.22-1.21h9.33a1.07 1.07 0 0 1 1.22 1.21c.14 2.3.27 4 .41 5.18a8.63 8.63 0 0 0 2.13 4.82 6 6 0 0 0 8.21.1 8 8 0 0 0 2.13-4.52 49.48 49.48 0 0 0 .51-7.91 44 44 0 0 0-.71-8.62 7.85 7.85 0 0 0-2.13-4.06 5.45 5.45 0 0 0-3.85-1.42 4.44 4.44 0 0 0-2.74.92 1.94 1.94 0 0 1-.92.4 2.11 2.11 0 0 1-.81-.4l-4.76-4.87a1.24 1.24 0 0 1-.41-.92 1.36 1.36 0 0 1 .3-.81l12.68-17.24a.28.28 0 0 0 0-.41.54.54 0 0 0-.45-.2h-19.27a1.22 1.22 0 0 1-.87-.35 1.18 1.18 0 0 1-.35-.87v-7.6a1.18 1.18 0 0 1 .35-.87 1.22 1.22 0 0 1 .87-.35h32.9a1.21 1.21 0 0 1 1.22 1.22v8a2.89 2.89 0 0 1-.51 1.52l-11.56 15.82c-.28.41-.21.65.2.71a11.05 11.05 0 0 1 7.15 4 18.3 18.3 0 0 1 4 8.62 41.82 41.82 0 0 1 .93 9zm7.1 21.71a1.28 1.28 0 0 1 0-1l13.9-33.78a1 1 0 0 0 0-.6l-13.9-33.78a1.4 1.4 0 0 1-.1-.61c0-.54.34-.81 1-.81h9.64a1.28 1.28 0 0 1 1.32 1l8.11 22c.07.21.17.31.31.31s.23-.1.3-.31l8-22a1.29 1.29 0 0 1 1.32-1h9.57c.47 0 .77.13.91.4a1.28 1.28 0 0 1 0 1l-13.91 33.78a1 1 0 0 0 0 .6l13.9 33.78a1.4 1.4 0 0 1 .1.61c0 .54-.34.81-1 .81h-9.44a1.35 1.35 0 0 1-1.42-1l-8-21.91c-.07-.21-.17-.31-.3-.31s-.24.1-.31.31l-8.11 21.91a1.34 1.34 0 0 1-1.42 1h-9.54c-.46 0-.79-.13-.93-.4z" fill="#271e53"/><path d="M1722.19 946.5v-3.77a11.35 11.35 0 0 1-9.25 4.34 13 13 0 0 1-7.66-2.43 13.2 13.2 0 0 1-5.47-11 13.7 13.7 0 0 1 4.79-10.53 13.08 13.08 0 0 1 8.17-2.88 12.52 12.52 0 0 1 9.42 4.12v-3.55h3.09v25.7zm-.12-18a11.28 11.28 0 0 0-9.24-5.18 10 10 0 0 0-6.2 2.19 10.52 10.52 0 0 0-3.6 8.17 9.91 9.91 0 0 0 9.86 10.37 10.67 10.67 0 0 0 9.18-5.63zm12.23 12.42a12.18 12.18 0 0 0 7.78 3.1c3.21 0 5.91-1.8 5.91-4.51 0-6.59-14.82-3-14.82-11.77 0-4.68 4.4-7.5 8.74-7.5a14.92 14.92 0 0 1 8.28 2.48l-1.69 2.65a10.53 10.53 0 0 0-6.42-2.08c-2.71 0-5.69 1.4-5.69 4.39 0 5.69 14.82 2.65 14.82 11.67 0 4.78-4.06 7.72-8.91 7.72a14.54 14.54 0 0 1-10-3.67zm59.85 5.58v-3.77a11.35 11.35 0 0 1-9.25 4.34 13 13 0 0 1-7.66-2.43 13.2 13.2 0 0 1-5.47-11 13.7 13.7 0 0 1 4.79-10.53 13.08 13.08 0 0 1 8.17-2.88 12.52 12.52 0 0 1 9.42 4.12v-3.55h3.09v25.7zm-.12-18a11.28 11.28 0 0 0-9.24-5.18 10 10 0 0 0-6.2 2.19 10.52 10.52 0 0 0-3.6 8.17 9.91 9.91 0 0 0 9.86 10.32 10.67 10.67 0 0 0 9.18-5.63zm40.8-5.16c-.34-.05-1.35-.05-1.52-.05a9 9 0 0 0-8.06 5.69v17.52h-3.21v-25.69h3.21v3.38a9.84 9.84 0 0 1 8.12-4 18.26 18.26 0 0 1 1.91.12zm28.06 18.99a13.33 13.33 0 0 1-10.48 4.74c-7.21 0-12.9-5.41-12.9-13.42 0-7.38 5-13.41 12.28-13.41 6.88 0 12 5.41 12 12.57a9.23 9.23 0 0 1-.06 1.13h-21c.22 5.46 3.72 10.06 9.72 10.06a10.27 10.27 0 0 0 8.23-3.83zm-20-11.32h17.56a8.69 8.69 0 0 0-8.62-7.72c-4.6 0-7.98 3.26-8.94 7.71zm27.61 9.91a12.18 12.18 0 0 0 7.78 3.1c3.21 0 5.91-1.8 5.91-4.51 0-6.59-14.82-3-14.82-11.77 0-4.68 4.4-7.5 8.74-7.5a14.92 14.92 0 0 1 8.28 2.48l-1.69 2.65a10.53 10.53 0 0 0-6.42-2.08c-2.71 0-5.69 1.4-5.69 4.39 0 5.69 14.82 2.65 14.82 11.67 0 4.78-4.06 7.72-8.91 7.72a14.54 14.54 0 0 1-10-3.67zm43.78 2.08a11.1 11.1 0 0 1-8.67 4.06 10.81 10.81 0 0 1-9.64-5.3 14.25 14.25 0 0 1-1.52-7.27v-13.68h3.21V934c0 3.61.57 5.3 1.47 6.65a7.64 7.64 0 0 0 6.48 3.38 9.93 9.93 0 0 0 8.56-5.35v-17.87h3.21v25.69h-3.1zm12.68-36.51h3.22v40h-3.22zm27.49 17.36h-8.74v14.09c0 2.31.45 3.43 1.13 4.28a5.25 5.25 0 0 0 4.28 1.8 9.88 9.88 0 0 0 2.76-.34l.57 2.93a12.18 12.18 0 0 1-3.33.46 8.63 8.63 0 0 1-6.87-2.94c-1.13-1.4-1.75-3.26-1.75-6.31v-14h-7.21v-3h7.16v-7h3.21v7h8.79zm34.05 23.22a13.42 13.42 0 1 1 13.24-13.42 13.12 13.12 0 0 1-13.24 13.42zm0-23.78a10.37 10.37 0 1 0 10 10.36 10 10 0 0 0-10-10.36zm34.32-14.09a7.12 7.12 0 0 0-1.92-.23 5.81 5.81 0 0 0-5 2.43c-.74 1.07-1.19 2.31-1.19 5.35v4.06h8.74v3h-8.74v22.69h-3.26v-22.65h-6.65v-3h6.65v-3.89c0-3.95.79-6.2 2.14-7.84a9.37 9.37 0 0 1 7.33-3.15 11.93 11.93 0 0 1 2.48.28zm21.41 29.02c2.31 3 5.41 5.63 10.59 5.63 4 0 8.12-2.81 8.12-7.38 0-7.15-8.45-7.94-14.2-11.49-2.93-1.81-5.36-4.12-5.36-8.12 0-6.14 4.91-10.37 11.22-10.37a14.82 14.82 0 0 1 10.09 4l-2.15 2.48a11.06 11.06 0 0 0-7.83-3.21c-4.39 0-7.94 2.7-7.94 7 0 6 7.94 6.76 13.58 10.26 3.26 2 6 5 6 9.52 0 6.26-5.07 10.6-11.5 10.6a15.8 15.8 0 0 1-13.07-6.65zm49.53 8.28v-3.77a11.32 11.32 0 0 1-9.24 4.34 13 13 0 0 1-7.66-2.43 13.2 13.2 0 0 1-5.47-11 13.7 13.7 0 0 1 4.79-10.53 13.06 13.06 0 0 1 8.17-2.88 12.48 12.48 0 0 1 9.41 4.12v-3.55h3.1v25.7zm-.11-18a11.3 11.3 0 0 0-9.24-5.18 10 10 0 0 0-6.2 2.19 10.53 10.53 0 0 0-3.61 8.17 9.92 9.92 0 0 0 9.85 10.32 10.68 10.68 0 0 0 9.19-5.63zm15.89-4.2a11.06 11.06 0 0 1 8.68-4.06 10.69 10.69 0 0 1 9.63 5.47 12 12 0 0 1 10.09-5.47 10.9 10.9 0 0 1 9.64 5.41 14.35 14.35 0 0 1 1.52 7.27v13.58h-3.21v-13.18c0-3.61-.57-5.3-1.47-6.65a7.64 7.64 0 0 0-6.48-3.38c-4.11 0-7.27 2.87-8.85 6a22.25 22.25 0 0 1 .29 3.66v13.55h-3.22v-13.18c0-3.61-.56-5.3-1.46-6.65a7.64 7.64 0 0 0-6.48-3.38 9.93 9.93 0 0 0-8.57 5.35v17.86h-3.2v-25.69h3.1zm68.69 22.2v-3.77a11.32 11.32 0 0 1-9.24 4.34 13 13 0 0 1-7.66-2.43 13.2 13.2 0 0 1-5.47-11 13.7 13.7 0 0 1 4.79-10.53 13.06 13.06 0 0 1 8.17-2.88 12.48 12.48 0 0 1 9.41 4.12v-3.55h3.1v25.7zm-.11-18a11.3 11.3 0 0 0-9.24-5.18 10 10 0 0 0-6.2 2.19 10.53 10.53 0 0 0-3.61 8.17 9.92 9.92 0 0 0 9.87 10.37 10.67 10.67 0 0 0 9.18-5.63zm12.23 12.42a12.18 12.18 0 0 0 7.77 3.1c3.22 0 5.92-1.8 5.92-4.51 0-6.59-14.82-3-14.82-11.77 0-4.68 4.4-7.5 8.74-7.5a15 15 0 0 1 8.28 2.48l-1.69 2.65a10.56 10.56 0 0 0-6.43-2.08c-2.7 0-5.69 1.4-5.69 4.39 0 5.69 14.82 2.65 14.82 11.67 0 4.78-4.05 7.72-8.9 7.72a14.54 14.54 0 0 1-10-3.67zm35.5 6.15a13.42 13.42 0 1 1 13.24-13.42 13.13 13.13 0 0 1-13.24 13.42zm0-23.78a10.37 10.37 0 1 0 10 10.36 10 10 0 0 0-10-10.36zm39.84 19.71a11.12 11.12 0 0 1-8.68 4.06 10.79 10.79 0 0 1-9.63-5.3 14.23 14.23 0 0 1-1.53-7.27v-13.68h3.22V934c0 3.61.56 5.3 1.46 6.65a7.64 7.64 0 0 0 6.48 3.38 9.93 9.93 0 0 0 8.57-5.35v-17.87h3.21v25.69h-3.1zm25.47-19.66c-.34-.05-1.35-.05-1.52-.05a9 9 0 0 0-8.06 5.69v17.52h-3.21v-25.69h3.21v3.38a9.84 9.84 0 0 1 8.12-4 18.26 18.26 0 0 1 1.91.12zm28.91 19.27a13.6 13.6 0 0 1-10.15 4.46c-7.15 0-13.8-5.19-13.8-13.42a13.24 13.24 0 0 1 13.3-13.41 13.44 13.44 0 0 1 9.8 4l-2 2.31a11 11 0 0 0-7.77-3.26 10.37 10.37 0 0 0 .45 20.73 10.72 10.72 0 0 0 7.89-3.55zm27.61-.28a13.34 13.34 0 0 1-10.48 4.74c-7.21 0-12.91-5.41-12.91-13.42 0-7.38 5-13.41 12.29-13.41 6.87 0 11.95 5.41 11.95 12.57a9.23 9.23 0 0 1-.06 1.13h-21c.22 5.46 3.77 10.08 9.69 10.08a10.27 10.27 0 0 0 8.23-3.83zm-20-11.32h17.52a8.7 8.7 0 0 0-8.62-7.72c-4.57 0-7.95 3.26-8.9 7.71zm-627.36 76.13a7.13 7.13 0 0 0 6.54 4.34 7 7 0 0 0 6.08-3.38 9 9 0 0 0 1-4.79v-28.63h3.38v28.46c0 3.27-.62 5.35-1.74 7a10.47 10.47 0 0 1-18.26-1.74zm37.25 7.55a13.41 13.41 0 1 1 13.24-13.41 13.12 13.12 0 0 1-13.24 13.41zm0-23.78a10.38 10.38 0 1 0 10 10.37 10 10 0 0 0-10-10.37zm23.67 19.44v3.77h-3.1v-40h3.21v17.75a12.58 12.58 0 0 1 9.3-4 13.05 13.05 0 0 1 8.17 2.87 13.71 13.71 0 0 1 4.79 10.54 13.21 13.21 0 0 1-5.47 11 13.05 13.05 0 0 1-7.66 2.42 11.32 11.32 0 0 1-9.24-4.35zm.11-4.34a10.68 10.68 0 0 0 9.18 5.64 9.94 9.94 0 0 0 9.87-10.37 10.51 10.51 0 0 0-3.61-8.17 9.9 9.9 0 0 0-6.2-2.2 11.32 11.32 0 0 0-9.24 5.18zm29.02 2.54a12.18 12.18 0 0 0 7.78 3.1c3.21 0 5.91-1.81 5.91-4.51 0-6.6-14.82-3-14.82-11.78 0-4.68 4.4-7.49 8.74-7.49a15 15 0 0 1 8.28 2.47l-1.69 2.65a10.56 10.56 0 0 0-6.42-2.08c-2.71 0-5.7 1.41-5.7 4.39 0 5.7 14.83 2.65 14.83 11.67 0 4.79-4.06 7.72-8.91 7.72a14.58 14.58 0 0 1-10-3.66z" fill="#27282a"/><path d="M614.84 553.53h9.74a1.14 1.14 0 0 1 .86.35 1.18 1.18 0 0 1 .36.86v68.57a1.23 1.23 0 0 1-1.22 1.22h-9.33a1.23 1.23 0 0 1-1.22-1.22V566.1a.66.66 0 0 0-.15-.4.25.25 0 0 0-.35-.1l-8.32 1.62h-.31a1 1 0 0 1-1.11-1.12l-.31-6.79a1.44 1.44 0 0 1 .82-1.42l9-4.06a3.89 3.89 0 0 1 1.54-.3zm19.02 79.87a1 1 0 0 1-.25-1l2.64-22.72a1.09 1.09 0 0 1 1.2-1.08h8.12c.88 0 1.22.44 1 1.32l-5 22.72a1.21 1.21 0 0 1-1.32 1.12h-5.47a1.31 1.31 0 0 1-.92-.36zm55.59-25.91q0 8.22-5 13t-13.23 4.82a17 17 0 0 1-12.58-4.87q-4.87-4.86-4.87-13V605a1.18 1.18 0 0 1 .36-.86 1.14 1.14 0 0 1 .86-.35h9.33a1.14 1.14 0 0 1 .86.35 1.18 1.18 0 0 1 .36.86v1.93a9.46 9.46 0 0 0 1.67 5.73 4.88 4.88 0 0 0 4 2.28 5.61 5.61 0 0 0 4.61-2.23 9 9 0 0 0 1.78-5.78v-10.4a.41.41 0 0 0-.2-.4.33.33 0 0 0-.41.1 10.53 10.53 0 0 1-7.3 2.64 15.15 15.15 0 0 1-11.36-4.47q-4.37-4.46-5.08-11.86a47.28 47.28 0 0 1-.5-7.1q0-3.45.3-6.6.4-7.71 5.22-11.92c3.22-2.8 7.49-4.21 12.84-4.21q7.39 0 12.07 3.91t5.68 11.51a39.79 39.79 0 0 1 .5 6.39zm-11.87-31.24q0-3-.31-6.8-1.11-6.69-6.08-6.69a5.33 5.33 0 0 0-4.16 1.82 9.88 9.88 0 0 0-2.13 5.17c-.14 1.63-.2 3.79-.2 6.5a49.23 49.23 0 0 0 .5 7.2 7.78 7.78 0 0 0 2.08 4.36 5.84 5.84 0 0 0 7.91 0 7.79 7.79 0 0 0 2-4.62 60.69 60.69 0 0 0 .34-6.94zm56.45 26.37c0 1.56-.07 3.75-.21 6.59q-.51 7.71-5.32 11.92t-12.73 4.21q-7.52 0-12.17-3.9t-5.58-11.52a29.36 29.36 0 0 1-.61-6.39l-.1-33q0-8.22 5-13t13.23-4.82a17 17 0 0 1 12.58 4.87q4.88 4.88 4.87 13v2.53a1.21 1.21 0 0 1-1.22 1.22h-9.32a1.16 1.16 0 0 1-.86-.36 1.15 1.15 0 0 1-.36-.86v-1.93a9.44 9.44 0 0 0-1.67-5.73 4.88 4.88 0 0 0-4-2.28 5.63 5.63 0 0 0-4.61 2.23 9 9 0 0 0-1.78 5.78v10.45a.41.41 0 0 0 .21.41.33.33 0 0 0 .4-.1 10.3 10.3 0 0 1 7.31-2.74 15.21 15.21 0 0 1 11.36 4.45 19.06 19.06 0 0 1 5.07 11.87 47.15 47.15 0 0 1 .51 7.1zm-11.87-.81a68.6 68.6 0 0 0-.51-7.2c-.81-3.92-2.81-5.89-6-5.89a5.46 5.46 0 0 0-4 1.57 8.29 8.29 0 0 0-2.08 4.62 61 61 0 0 0-.41 6.9c0 2 .11 4.23.31 6.79a9.31 9.31 0 0 0 2.08 5 5.29 5.29 0 0 0 4.11 1.73 5.14 5.14 0 0 0 4.1-1.83 10.07 10.07 0 0 0 2.08-5.17c.22-2.46.32-4.63.32-6.52zm59.29-6.04a1.18 1.18 0 0 1 .36.86v8.22a1.23 1.23 0 0 1-1.22 1.22h-3a.45.45 0 0 0-.51.51v16.73a1.21 1.21 0 0 1-1.22 1.22h-9.41a1.16 1.16 0 0 1-.86-.36 1.14 1.14 0 0 1-.35-.86v-16.73a.45.45 0 0 0-.51-.51h-24.92a1.21 1.21 0 0 1-1.22-1.22v-6.59a5 5 0 0 1 .2-1.52l14.1-42.2a1.27 1.27 0 0 1 1.32-1h10.14a1 1 0 0 1 1 1.42l-13 39.86c-.06.4.07.61.41.61h12a.45.45 0 0 0 .51-.51v-12.18a1.14 1.14 0 0 1 .35-.86 1.16 1.16 0 0 1 .86-.36h9.33a1.21 1.21 0 0 1 1.22 1.22v12.17a.45.45 0 0 0 .51.51h3a1.18 1.18 0 0 1 .91.35z" fill="#271e53"/><path d="M32.71 675.83h3.21v40h-3.21zm23.74 40.57A13.41 13.41 0 1 1 69.73 703a13.12 13.12 0 0 1-13.28 13.4zm0-23.78a10.38 10.38 0 1 0 10 10.37 10 10 0 0 0-10-10.37zm28.94 23.22h-2.08l-9.92-25.7h3.33l7.73 20.18 8.23-20.18h2l8.23 20.18 7.77-20.18h3.33l-9.92 25.7H102l-8.34-20.45zm48.97-15.44v2.76h-14.65v-2.76zm10.88-22.03a2.88 2.88 0 0 1 2.87 2.87 2.83 2.83 0 0 1-2.87 2.82 2.79 2.79 0 0 1-2.82-2.82 2.83 2.83 0 0 1 2.82-2.87zm-1.58 11.77h3.21v25.7h-3.21zm15.89 3.61a11.86 11.86 0 0 1 18.2.17c1.41 1.86 2.2 4 2.2 8.23v13.69h-3.21v-13.47c0-3.38-.56-5-1.47-6.31a8 8 0 0 0-6.7-3.44 10.21 10.21 0 0 0-8.91 5.36v17.86h-3.21v-25.7h3.1zm51.4 18.25a13.59 13.59 0 0 1-10.15 4.45c-7.15 0-13.8-5.18-13.8-13.41a13.23 13.23 0 0 1 13.29-13.41 13.45 13.45 0 0 1 9.81 4l-2 2.31a11 11 0 0 0-7.78-3.27 10.373 10.373 0 0 0 .46 20.74 10.7 10.7 0 0 0 7.88-3.55zm17.5 4.4a13.41 13.41 0 1 1 13.21-13.4 13.12 13.12 0 0 1-13.21 13.4zm0-23.78a10.38 10.38 0 1 0 10 10.38 10 10 0 0 0-10-10.38zm23.63 1.02a11.06 11.06 0 0 1 8.68-4.06 10.71 10.71 0 0 1 9.64 5.47 12 12 0 0 1 10.05-5.47 10.9 10.9 0 0 1 9.64 5.41 14.25 14.25 0 0 1 1.52 7.27v13.58h-3.16v-13.19c0-3.6-.57-5.29-1.47-6.64a7.64 7.64 0 0 0-6.48-3.39c-4.11 0-7.27 2.88-8.85 6a22.25 22.25 0 0 1 .29 3.66v13.58h-3.22v-13.21c0-3.6-.56-5.29-1.46-6.64a7.64 7.64 0 0 0-6.48-3.39 10 10 0 0 0-8.57 5.36v17.86H249v-25.7h3.1zm69.71 18.03a13.34 13.34 0 0 1-10.48 4.73c-7.22 0-12.86-5.4-12.86-13.4 0-7.38 5-13.41 12.29-13.41 6.87 0 11.94 5.41 11.94 12.57a10.79 10.79 0 0 1-.05 1.12h-21c.22 5.47 3.77 10.09 9.69 10.09a10.24 10.24 0 0 0 8.22-3.83zm-20-11.33h17.53a8.71 8.71 0 0 0-8.62-7.72c-4.58 0-7.96 3.27-8.92 7.72zm51.72 15.5h-2.06l-9.92-25.7h3.33l7.77 20.18 8.23-20.18h2l8.22 20.18 7.78-20.18h3.33l-9.92 25.7h-2.09l-8.34-20.45zm45.59.56a13.41 13.41 0 1 1 13.24-13.4 13.12 13.12 0 0 1-13.24 13.4zm0-23.78a10.38 10.38 0 1 0 10 10.37 10 10 0 0 0-10-10.37zm23.67 1.02a11.06 11.06 0 0 1 8.68-4.06 10.69 10.69 0 0 1 9.63 5.47 12 12 0 0 1 10.09-5.47 10.9 10.9 0 0 1 9.64 5.41 14.35 14.35 0 0 1 1.52 7.27v13.58h-3.21v-13.19c0-3.6-.57-5.29-1.47-6.64a7.64 7.64 0 0 0-6.48-3.39c-4.11 0-7.27 2.88-8.85 6a22.25 22.25 0 0 1 .29 3.66v13.58h-3.22v-13.21c0-3.6-.56-5.29-1.46-6.64a7.64 7.64 0 0 0-6.48-3.39 9.94 9.94 0 0 0-8.57 5.36v17.86h-3.21v-25.7h3.1zm69.68 18.03a13.34 13.34 0 0 1-10.48 4.73c-7.22 0-12.91-5.4-12.91-13.41 0-7.38 5-13.41 12.29-13.41 6.87 0 11.94 5.41 11.94 12.57a10.79 10.79 0 0 1-.05 1.12h-21c.23 5.47 3.78 10.09 9.7 10.09a10.25 10.25 0 0 0 8.22-3.83zm-20-11.33h17.53a8.71 8.71 0 0 0-8.62-7.72c-4.55 0-7.91 3.27-8.91 7.72zm31.3-6.59a11.86 11.86 0 0 1 18.2.17c1.41 1.86 2.2 4 2.2 8.23v13.69h-3.22v-13.47c0-3.38-.56-5-1.46-6.31a8 8 0 0 0-6.71-3.44 10.18 10.18 0 0 0-8.9 5.36v17.86h-3.21v-25.7h3.1zm64.7 22.09v-3.77a11.31 11.31 0 0 1-9.24 4.33 13.05 13.05 0 0 1-7.66-2.42 13.21 13.21 0 0 1-5.47-11 13.69 13.69 0 0 1 4.79-10.53 13.06 13.06 0 0 1 8.17-2.88 12.48 12.48 0 0 1 9.41 4.13v-3.56h3.1v25.7zm-.11-18a11.3 11.3 0 0 0-9.24-5.19 10 10 0 0 0-6.2 2.2 10.53 10.53 0 0 0-3.61 8.17 9.92 9.92 0 0 0 9.87 10.37 10.67 10.67 0 0 0 9.18-5.63zm15.93-4.09a11.86 11.86 0 0 1 18.2.17c1.41 1.86 2.2 4 2.2 8.23v13.69h-3.22v-13.47c0-3.38-.56-5-1.47-6.31a8 8 0 0 0-6.7-3.44 10.21 10.21 0 0 0-8.91 5.36v17.86h-3.21v-25.7h3.1zM616.9 714a13.21 13.21 0 0 1-5.45-11 13.69 13.69 0 0 1 4.79-10.53 13.1 13.1 0 0 1 8.17-2.88 12.6 12.6 0 0 1 9.3 4v-17.76h3.21v40h-3.09v-3.77a11.35 11.35 0 0 1-9.25 4.33 13.07 13.07 0 0 1-7.68-2.39zm16.79-16.17a11.29 11.29 0 0 0-9.24-5.19 10 10 0 0 0-6.2 2.2 10.52 10.52 0 0 0-3.6 8.17 9.91 9.91 0 0 0 9.86 10.37 10.67 10.67 0 0 0 9.18-5.63zm28.63 31.54l7-15.61-11.57-23.62h3.61l9.64 20 9.07-20h3.44l-17.81 39.23zm37.81-12.97a13.41 13.41 0 1 1 13.24-13.4 13.12 13.12 0 0 1-13.24 13.4zm0-23.78a10.38 10.38 0 1 0 10 10.37 10 10 0 0 0-10-10.37zm39.84 19.73a11.14 11.14 0 0 1-8.68 4 10.79 10.79 0 0 1-9.63-5.29 14.25 14.25 0 0 1-1.52-7.27v-13.7h3.21v13.19c0 3.61.56 5.3 1.46 6.65a7.65 7.65 0 0 0 6.48 3.38 9.93 9.93 0 0 0 8.57-5.35v-17.82h3.21v25.7h-3.1zm27.33-19.16h-8.73v14.09c0 2.31.45 3.43 1.12 4.28a5.26 5.26 0 0 0 4.29 1.8 10.32 10.32 0 0 0 2.76-.34l.56 2.93a12.16 12.16 0 0 1-3.32.45 8.64 8.64 0 0 1-6.88-2.93c-1.13-1.4-1.75-3.26-1.75-6.31v-14h-7.21v-3.05h7.21v-7h3.22v7h8.73zm11.15.39a11.9 11.9 0 0 1 18.09.34c1.41 1.86 2.2 4 2.2 8.23v13.69h-3.29v-13.47c0-3.38-.57-5-1.47-6.31a8 8 0 0 0-6.7-3.44 10.2 10.2 0 0 0-8.83 5.38v17.86h-3.21v-40h3.21zm-420.76 89.88h-2.09l-9.92-25.69h3.33l7.78 20.17 8.22-20.17h2l8.23 20.17 7.77-20.17h3.33l-9.89 25.69h-2.08L366.03 763zM393.86 746a2.89 2.89 0 0 1 2.88 2.87 2.84 2.84 0 0 1-2.88 2.82 2.79 2.79 0 0 1-2.81-2.82 2.84 2.84 0 0 1 2.81-2.87zm-1.57 11.78h3.21v25.69h-3.21zm27.44 3.03H411v14.09c0 2.31.45 3.43 1.12 4.28a5.26 5.26 0 0 0 4.33 1.82 10.27 10.27 0 0 0 2.76-.33l.56 2.93a12.56 12.56 0 0 1-3.32.4 8.67 8.67 0 0 1-6.88-2.93c-1.13-1.41-1.75-3.27-1.75-6.31v-14h-7.21v-3h7.21v-7h3.22v7h8.73zm11.1.39a11.9 11.9 0 0 1 18.09.34c1.41 1.86 2.2 4 2.2 8.23v13.69h-3.21V770c0-3.39-.57-5-1.47-6.32a8 8 0 0 0-6.71-3.43 10.18 10.18 0 0 0-8.9 5.35v17.86h-3.21v-40h3.21zm64.62 22.26v-3.77a11.35 11.35 0 0 1-9.25 4.34 13 13 0 0 1-7.66-2.43 13.18 13.18 0 0 1-5.47-11 13.71 13.71 0 0 1 4.79-10.54 13.1 13.1 0 0 1 8.17-2.88 12.51 12.51 0 0 1 9.42 4.12v-3.55h3.09v25.69zm-.12-18a11.28 11.28 0 0 0-9.24-5.18 10 10 0 0 0-6.2 2.19 10.53 10.53 0 0 0-3.6 8.18 9.91 9.91 0 0 0 9.88 10.35 10.67 10.67 0 0 0 9.18-5.63zm28.03-22.01h3.21v40h-3.21zm14.37 2.55a2.88 2.88 0 0 1 2.87 2.87 2.83 2.83 0 0 1-2.87 2.82 2.79 2.79 0 0 1-2.82-2.82 2.84 2.84 0 0 1 2.82-2.87zm-1.58 11.78h3.21v25.69h-3.21zm20.79 25.68L545 757.77h3.45l9.47 20.51 9.53-20.51h3.5l-11.89 25.69zM578.13 746a2.88 2.88 0 0 1 2.87 2.87 2.83 2.83 0 0 1-2.87 2.82 2.79 2.79 0 0 1-2.82-2.82 2.84 2.84 0 0 1 2.82-2.87zm-1.58 11.78h3.22v25.69h-3.22zm15.9 3.59a11.87 11.87 0 0 1 18.21.17c1.4 1.86 2.19 4 2.19 8.23v13.69h-3.21V770c0-3.39-.56-5-1.46-6.32a8 8 0 0 0-6.71-3.43 10.17 10.17 0 0 0-8.9 5.35v17.86h-3.22v-25.69h3.1zm51.22 30.26c-1.86 3.5-5.52 5.92-11.16 5.92a13.66 13.66 0 0 1-11.66-6.14l2.53-1.86a10.46 10.46 0 0 0 9.19 5c4.34 0 7-1.86 8.28-4.4.79-1.58 1-3.44 1-6.65v-3.7a11.31 11.31 0 0 1-9.12 4.23 13 13 0 0 1-7.67-2.43 13.17 13.17 0 0 1-5.46-11 13.71 13.71 0 0 1 4.85-10.52 13.06 13.06 0 0 1 8.17-2.88 12.48 12.48 0 0 1 9.41 4.12v-3.55h3.1v25.58c-.05 3.78-.39 6.26-1.46 8.28zm-1.81-26.2a11.27 11.27 0 0 0-9.24-5.18 10 10 0 0 0-6.2 2.19 10.53 10.53 0 0 0-3.6 8.18 9.91 9.91 0 0 0 9.86 10.38 10.66 10.66 0 0 0 9.18-5.63zm36.35 18.03h-2.09l-9.91-25.69h3.32l7.78 20.17 8.22-20.17h2l8.23 20.17 7.78-20.17h3.32l-9.92 25.69h-2.08L686.55 763zm54.72 0v-3.77a11.33 11.33 0 0 1-9.24 4.34 13 13 0 0 1-7.67-2.43 13.17 13.17 0 0 1-5.46-11 13.71 13.71 0 0 1 4.79-10.54 13.06 13.06 0 0 1 8.17-2.88 12.48 12.48 0 0 1 9.41 4.12v-3.55h3.1v25.69zm-.12-18a11.27 11.27 0 0 0-9.24-5.18 10 10 0 0 0-6.2 2.19 10.53 10.53 0 0 0-3.6 8.18 9.92 9.92 0 0 0 9.86 10.35 10.65 10.65 0 0 0 9.18-5.63zm34.64 26.17c-1.86 3.5-5.52 5.92-11.15 5.92a13.66 13.66 0 0 1-11.67-6.14l2.54-1.86a10.44 10.44 0 0 0 9.18 5c4.34 0 7-1.86 8.29-4.4.79-1.58 1-3.44 1-6.65v-3.7a11.35 11.35 0 0 1-9.19 4.2 13 13 0 0 1-7.66-2.43 13.18 13.18 0 0 1-5.47-11 13.71 13.71 0 0 1 4.79-10.54 13.06 13.06 0 0 1 8.17-2.88 12.48 12.48 0 0 1 9.41 4.12v-3.55h3.1v25.58c.03 3.83-.34 6.31-1.34 8.33zm-1.8-26.2a11.3 11.3 0 0 0-9.24-5.18 10 10 0 0 0-6.2 2.19 10.53 10.53 0 0 0-3.61 8.18 9.92 9.92 0 0 0 9.85 10.38 10.67 10.67 0 0 0 9.18-5.63zm33.88 13.86a13.3 13.3 0 0 1-10.48 4.71c-7.21 0-12.9-5.41-12.9-13.41 0-7.39 5-13.42 12.28-13.42 6.88 0 11.95 5.41 11.95 12.57a9.15 9.15 0 0 1-.06 1.13h-21c.23 5.46 3.78 10.08 9.69 10.08a10.27 10.27 0 0 0 8.23-3.83zm-20-11.32h17.52a8.69 8.69 0 0 0-8.62-7.72c-4.56 0-7.98 3.26-8.9 7.75zM489.69 466.84v12.85h14.09v3.21h-14.09v17h18.59v3.21h-22v-39.48h21.41v3.21zm28.76 14.03a11.06 11.06 0 0 1 8.68-4.06 10.69 10.69 0 0 1 9.63 5.47 12 12 0 0 1 10.09-5.47 10.9 10.9 0 0 1 9.64 5.41 14.35 14.35 0 0 1 1.52 7.27v13.58h-3.21v-13.19c0-3.6-.57-5.29-1.47-6.64a7.64 7.64 0 0 0-6.48-3.39c-4.11 0-7.27 2.88-8.85 6a22.35 22.35 0 0 1 .28 3.66v13.58h-3.23v-13.21c0-3.6-.56-5.29-1.46-6.64a7.66 7.66 0 0 0-6.48-3.39 9.94 9.94 0 0 0-8.57 5.36v17.86h-3.21v-25.69h3.12zM567 516.6v-39.22h3.1v3.55a12.48 12.48 0 0 1 9.41-4.12 13.06 13.06 0 0 1 8.17 2.88 13.7 13.7 0 0 1 4.77 10.53 13 13 0 0 1-13.13 13.41 11.31 11.31 0 0 1-9.12-4.22v17.19zm3.22-21.6a10.65 10.65 0 0 0 9.18 5.63 9.92 9.92 0 0 0 9.86-10.37 10.52 10.52 0 0 0-3.6-8.17 10 10 0 0 0-6.2-2.2 11.27 11.27 0 0 0-9.24 5.19zm40.57 8.63a13.41 13.41 0 1 1 13.24-13.41 13.11 13.11 0 0 1-13.24 13.41zm0-23.78a10.38 10.38 0 1 0 10 10.37 10 10 0 0 0-10-10.37zm28.91 23.22h-2.09l-9.92-25.69h3.33l7.78 20.17 8.22-20.17h2l8.23 20.17 7.77-20.17h3.33l-9.9 25.69h-2.08l-8.34-20.45zm55.75-4.17a13.34 13.34 0 0 1-10.48 4.73c-7.22 0-12.91-5.4-12.91-13.41 0-7.38 5-13.41 12.29-13.41 6.87 0 11.94 5.41 11.94 12.57a10.79 10.79 0 0 1-.05 1.12h-21c.23 5.47 3.78 10.09 9.7 10.09a10.24 10.24 0 0 0 8.22-3.83zm-20-11.32h17.5a8.71 8.71 0 0 0-8.62-7.73c-4.57 0-7.95 3.27-8.88 7.73zm40.94-7.67a14.39 14.39 0 0 0-1.52-.06 9 9 0 0 0-8.06 5.7v17.52h-3.21v-25.69h3.21v3.38a9.84 9.84 0 0 1 8.12-3.95c.45 0 1.57.06 1.91.11zm28.06 18.99a13.32 13.32 0 0 1-10.48 4.73c-7.21 0-12.9-5.4-12.9-13.41 0-7.38 5-13.41 12.28-13.41 6.88 0 12 5.41 12 12.57a9 9 0 0 1-.06 1.12h-21c.23 5.47 3.78 10.09 9.69 10.09a10.27 10.27 0 0 0 8.23-3.83zm-20-11.32h17.52a8.7 8.7 0 0 0-8.62-7.73c-4.56 0-7.9 3.27-8.9 7.73zm31.39 13.63a13.21 13.21 0 0 1-5.47-11 13.7 13.7 0 0 1 4.79-10.53 13.06 13.06 0 0 1 8.17-2.88 12.62 12.62 0 0 1 9.3 4v-17.74h3.21v40h-3.1v-3.76a11.31 11.31 0 0 1-9.24 4.33 13.05 13.05 0 0 1-7.66-2.42zM772.63 485a11.3 11.3 0 0 0-9.24-5.19 10 10 0 0 0-6.2 2.2 10.53 10.53 0 0 0-3.61 8.17 9.92 9.92 0 0 0 9.87 10.41 10.68 10.68 0 0 0 9.19-5.63zM543.69 39.33l17 39.44h-3.38l-5.18-11.89h-19.15l-5.18 11.89h-3.35l17-39.44zm-9.36 24.34h16.4l-8.17-19.05zm34.55-6.99a11.86 11.86 0 0 1 18.2.17c1.41 1.86 2.2 4 2.2 8.23v13.69h-3.22V65.31c0-3.39-.56-5-1.46-6.32a8 8 0 0 0-6.71-3.43 10.17 10.17 0 0 0-8.9 5.35v17.86h-3.21V53.08h3.1zm32.51 0a11.86 11.86 0 0 1 18.2.17c1.41 1.86 2.2 4 2.2 8.23v13.69h-3.21V65.31c0-3.39-.56-5-1.47-6.32a8 8 0 0 0-6.7-3.43 10.2 10.2 0 0 0-8.91 5.35v17.86h-3.21V53.08h3.1zm40.41 22.66a13.42 13.42 0 1 1 13.24-13.41 13.13 13.13 0 0 1-13.24 13.41zm0-23.78a10 10 0 0 0-10 10.37 10.03 10.03 0 1 0 20.06 0 10 10 0 0 0-10.06-10.37zm35.22.56h-8.74v14.09c0 2.31.45 3.44 1.13 4.28a5.24 5.24 0 0 0 4.28 1.8 10.27 10.27 0 0 0 2.76-.29l.57 2.93a12.64 12.64 0 0 1-3.33.45 8.64 8.64 0 0 1-6.87-2.93c-1.13-1.41-1.75-3.27-1.75-6.31v-14h-7.21v-3h7.21v-7h3.21v7h8.74zm28 22.65V75a11.32 11.32 0 0 1-9.24 4.34 13 13 0 0 1-7.66-2.43 13.18 13.18 0 0 1-5.47-11 13.71 13.71 0 0 1 4.8-10.52 13.06 13.06 0 0 1 8.17-2.88 12.52 12.52 0 0 1 9.41 4.12v-3.55h3.1v25.69zm-.11-18a11.32 11.32 0 0 0-9.24-5.18 10 10 0 0 0-6.2 2.19 10.53 10.53 0 0 0-3.61 8.18 9.92 9.92 0 0 0 9.86 10.36 10.68 10.68 0 0 0 9.19-5.63zm27.44-4.65h-8.73v14.09c0 2.31.45 3.44 1.12 4.28a5.28 5.28 0 0 0 4.29 1.8 10.27 10.27 0 0 0 2.76-.33l.56 2.93a12.51 12.51 0 0 1-3.32.45 8.67 8.67 0 0 1-6.88-2.93c-1.12-1.41-1.7-3.27-1.7-6.31v-14h-7.22v-3h7.22v-7h3.21v7h8.73zm29.02 18.48a13.3 13.3 0 0 1-10.48 4.74c-7.21 0-12.9-5.41-12.9-13.41 0-7.39 5-13.42 12.28-13.42 6.88 0 11.95 5.41 11.95 12.57a9.15 9.15 0 0 1-.06 1.13h-21c.22 5.46 3.77 10.08 9.69 10.08a10.27 10.27 0 0 0 8.23-3.83zm-20-11.32h17.52a8.69 8.69 0 0 0-8.62-7.72c-4.56 0-7.94 3.27-8.9 7.72zm31.39 13.63a13.16 13.16 0 0 1-5.47-11 13.71 13.71 0 0 1 4.79-10.54 13.06 13.06 0 0 1 8.17-2.88 12.64 12.64 0 0 1 9.3 4V38.76h3.21v40h-3.1V75a11.33 11.33 0 0 1-9.21 4.34 13 13 0 0 1-7.69-2.43zm16.79-16.17a11.32 11.32 0 0 0-9.24-5.18 9.93 9.93 0 0 0-6.2 2.19 10.5 10.5 0 0 0-3.61 8.18 9.92 9.92 0 0 0 9.86 10.36 10.68 10.68 0 0 0 9.19-5.63z" fill="#27282a"/><path d="M355.51 126.66h9.74a1.18 1.18 0 0 1 .86.36 1.19 1.19 0 0 1 .35.86v68.57a1.21 1.21 0 0 1-1.21 1.22h-9.34a1.16 1.16 0 0 1-.86-.36 1.14 1.14 0 0 1-.35-.86v-57.21a.67.67 0 0 0-.16-.41.26.26 0 0 0-.35-.1l-8.32 1.63h-.3a1 1 0 0 1-1.12-1.12l-.3-6.79a1.45 1.45 0 0 1 .81-1.42l9-4.06a3.69 3.69 0 0 1 1.55-.31zm19.02 79.88a1 1 0 0 1-.26-1l2.64-22.72a1.09 1.09 0 0 1 1.22-1.12h8.11q1.32 0 1 1.32l-5 22.72a1.22 1.22 0 0 1-1.32 1.12h-5.47a1.27 1.27 0 0 1-.92-.32zm28.92-79.88h9.74a1.15 1.15 0 0 1 .86.36 1.16 1.16 0 0 1 .36.86v68.57a1.23 1.23 0 0 1-1.22 1.22h-9.33a1.23 1.23 0 0 1-1.22-1.22v-57.21a.72.72 0 0 0-.15-.41.27.27 0 0 0-.35-.1l-8.32 1.63h-.31a1 1 0 0 1-1.11-1.12l-.31-6.79a1.44 1.44 0 0 1 .82-1.42l9-4.06a3.72 3.72 0 0 1 1.54-.31zm24.48 66.7q-5.18-5.43-5.17-14.26v-33.87q0-8.83 5.17-14.26t13.69-5.42q8.63 0 13.85 5.42t5.22 14.26v33.87q0 8.84-5.22 14.26t-13.85 5.42q-8.52 0-13.69-5.42zm19-7.21a9.58 9.58 0 0 0 2-6.34v-35.29a9.6 9.6 0 0 0-2-6.34 6.58 6.58 0 0 0-5.33-2.39 6.3 6.3 0 0 0-5.17 2.39 9.75 9.75 0 0 0-1.93 6.34v35.29a9.73 9.73 0 0 0 1.93 6.34 6.3 6.3 0 0 0 5.17 2.39 6.58 6.58 0 0 0 5.35-2.39zm34.76 1.17c.06.14.2.2.4.2h22.22a1.23 1.23 0 0 1 1.22 1.22v7.71a1.15 1.15 0 0 1-.36.86 1.16 1.16 0 0 1-.86.36h-35.4a1.21 1.21 0 0 1-1.22-1.22v-8.12a2.31 2.31 0 0 1 .51-1.52l3.95-5.37q4-5.28 7.76-10.75t6.44-9.84q5.89-9.75 5.89-16.13a10.32 10.32 0 0 0-1.78-6.39 5.61 5.61 0 0 0-4.72-2.33 5.53 5.53 0 0 0-4.66 2.28 9.29 9.29 0 0 0-1.62 6v4a1.23 1.23 0 0 1-1.22 1.22h-9.54a1.18 1.18 0 0 1-.86-.36 1.15 1.15 0 0 1-.35-.86v-4.36q.4-8.11 5.53-13.09t13.23-5q8 0 12.94 5.23t4.92 13.74a30.42 30.42 0 0 1-1.73 10 48.29 48.29 0 0 1-5.48 10.65q-2.54 4.06-6 8.93c-2.34 3.24-3.87 5.37-4.62 6.39-2 2.7-3.51 4.73-4.46 6.09a.31.31 0 0 0-.13.46zm29.56 19.22a1.05 1.05 0 0 1-.25-1l2.64-22.72a1.09 1.09 0 0 1 1.22-1.12h8.11q1.32 0 1 1.32l-5 22.72a1.21 1.21 0 0 1-1.31 1.12h-5.48a1.31 1.31 0 0 1-.93-.32zm57.26-30.78q0 2.33-.2 6.59-.51 7.71-5.33 11.92t-12.73 4.21q-7.5 0-12.17-3.91t-5.58-11.51a30.18 30.18 0 0 1-.6-6.39l-.11-33q0-8.2 5-13t13.24-4.82a17 17 0 0 1 12.58 4.87q4.88 4.88 4.87 13v2.54a1.23 1.23 0 0 1-1.22 1.22h-9.31a1.23 1.23 0 0 1-1.22-1.22v-1.93a9.46 9.46 0 0 0-1.67-5.73 4.88 4.88 0 0 0-4-2.28 5.61 5.61 0 0 0-4.61 2.23 9 9 0 0 0-1.78 5.78v10.45a.43.43 0 0 0 .2.41.35.35 0 0 0 .41-.11 10.31 10.31 0 0 1 7.3-2.73 15.14 15.14 0 0 1 11.36 4.46 19 19 0 0 1 5.08 11.87 48.54 48.54 0 0 1 .49 7.08zm-11.86-.76a68.93 68.93 0 0 0-.51-7.21q-1.22-5.88-6-5.88a5.43 5.43 0 0 0-4 1.57 8.29 8.29 0 0 0-2.08 4.62 60.86 60.86 0 0 0-.41 6.9q0 2.94.31 6.79a9.34 9.34 0 0 0 2.07 5 5.31 5.31 0 0 0 4.11 1.73 5.16 5.16 0 0 0 4.11-1.83 10.11 10.11 0 0 0 2.08-5.17c.21-2.52.32-4.68.32-6.52zm55.38.76q0 2.33-.21 6.59-.51 7.71-5.32 11.92t-12.73 4.21q-7.52 0-12.17-3.91t-5.58-11.51a29.49 29.49 0 0 1-.61-6.39l-.1-33q0-8.2 5-13t13.24-4.82a17 17 0 0 1 12.57 4.87q4.88 4.88 4.87 13v2.54a1.21 1.21 0 0 1-1.22 1.22h-9.32a1.16 1.16 0 0 1-.86-.36 1.14 1.14 0 0 1-.35-.86v-1.93a9.4 9.4 0 0 0-1.68-5.73 4.87 4.87 0 0 0-4-2.28 5.61 5.61 0 0 0-4.62 2.23 9 9 0 0 0-1.78 5.78v10.45a.42.42 0 0 0 .21.41.33.33 0 0 0 .4-.11 10.34 10.34 0 0 1 7.31-2.73 15.17 15.17 0 0 1 11.37 4.44 19 19 0 0 1 5.07 11.87 47.15 47.15 0 0 1 .51 7.1zm-11.87-.76a68.93 68.93 0 0 0-.51-7.21c-.81-3.92-2.81-5.88-6-5.88a5.46 5.46 0 0 0-4 1.57 8.29 8.29 0 0 0-2.08 4.62 60.86 60.86 0 0 0-.41 6.9c0 2 .11 4.22.31 6.79a9.35 9.35 0 0 0 2.08 5 5.31 5.31 0 0 0 4.11 1.73 5.16 5.16 0 0 0 4.11-1.83 10.11 10.11 0 0 0 2.07-5.17q.33-3.74.32-6.52zm23.83 21.35l16.74-58.93c.14-.41 0-.61-.4-.61h-13.7a.45.45 0 0 0-.51.5V141a1.2 1.2 0 0 1-1.21 1.21h-7.21a1.17 1.17 0 0 1-.86-.35 1.21 1.21 0 0 1-.39-.86l.1-13.09a1.21 1.21 0 0 1 1.22-1.22h34.38a1.15 1.15 0 0 1 .86.36 1.16 1.16 0 0 1 .36.86v8.22a9.12 9.12 0 0 1-.2 1.42l-16.94 59.13a1.34 1.34 0 0 1-1.42 1h-9.84q-1.28-.01-.98-1.33zm34.24 10.19a1.05 1.05 0 0 1-.26-1l2.64-22.72a1.09 1.09 0 0 1 1.22-1.12h8.11q1.32 0 1 1.32l-5 22.72a1.22 1.22 0 0 1-1.32 1.12h-5.48a1.28 1.28 0 0 1-.91-.32zm57.22-30.78q0 2.33-.21 6.59-.51 7.71-5.32 11.92t-12.73 4.21q-7.51 0-12.17-3.91t-5.57-11.51a29.49 29.49 0 0 1-.61-6.39l-.1-33q0-8.2 5-13t13.24-4.82a17 17 0 0 1 12.57 4.87q4.88 4.88 4.87 13v2.54a1.21 1.21 0 0 1-1.22 1.22h-9.33a1.16 1.16 0 0 1-.86-.36 1.14 1.14 0 0 1-.35-.86v-1.93a9.4 9.4 0 0 0-1.68-5.73 4.87 4.87 0 0 0-4-2.28 5.61 5.61 0 0 0-4.62 2.23 9 9 0 0 0-1.78 5.78v10.45a.42.42 0 0 0 .21.41.33.33 0 0 0 .4-.11 10.34 10.34 0 0 1 7.31-2.73 15.17 15.17 0 0 1 11.36 4.46 19 19 0 0 1 5.07 11.87 47.15 47.15 0 0 1 .52 7.08zm-11.83-.76a68.93 68.93 0 0 0-.51-7.21c-.81-3.92-2.81-5.88-6-5.88a5.46 5.46 0 0 0-4 1.57 8.29 8.29 0 0 0-2.08 4.62 60.86 60.86 0 0 0-.41 6.9c0 2 .11 4.22.31 6.79a9.35 9.35 0 0 0 2.08 5 5.31 5.31 0 0 0 4.11 1.73 5.16 5.16 0 0 0 4.11-1.83 10.11 10.11 0 0 0 2.07-5.17q.33-3.74.32-6.52zm47.67-14.25a12.09 12.09 0 0 1 5.07 5.88 26.08 26.08 0 0 1 2.09 10.75 25.31 25.31 0 0 1-1.62 9.43 17.87 17.87 0 0 1-6.34 8.57 18.63 18.63 0 0 1-20.49.06 17.59 17.59 0 0 1-6.34-8.52 28.33 28.33 0 0 1-1.52-9.54 25.86 25.86 0 0 1 1.83-10.24 11.86 11.86 0 0 1 5.37-6.29c.27-.21.27-.41 0-.61a14.13 14.13 0 0 1-5.17-5.89 22.66 22.66 0 0 1-2-9.73 21.34 21.34 0 0 1 2-9.84 14.83 14.83 0 0 1 6.24-6.9 20.91 20.91 0 0 1 19.47 0 15.15 15.15 0 0 1 6.34 6.85 21.09 21.09 0 0 1 2.23 9.94 21.79 21.79 0 0 1-2 9.53 14.12 14.12 0 0 1-5.17 5.89c-.39.22-.39.45.01.66zM734.45 141a13 13 0 0 0-.71 4.66 16.39 16.39 0 0 0 1 5.78 7.29 7.29 0 0 0 2.13 3.35 5 5 0 0 0 3.35 1.22 5.32 5.32 0 0 0 3.6-1.27 7.5 7.5 0 0 0 2.18-3.6 17.29 17.29 0 0 0 .81-5.48 13 13 0 0 0-1-5.58 6.89 6.89 0 0 0-2.13-3.29 5.22 5.22 0 0 0-3.44-1.17 5.05 5.05 0 0 0-3.2 1.06 6.6 6.6 0 0 0-2.08 2.9zm12.38 35.8a20.87 20.87 0 0 0-.92-6.59 7.49 7.49 0 0 0-2.07-3.8 5.08 5.08 0 0 0-3.6-1.38 5 5 0 0 0-3.61 1.43 8 8 0 0 0-2.08 4 20.79 20.79 0 0 0-.81 6.09 26 26 0 0 0 .61 5.78 8.07 8.07 0 0 0 2.08 4.41 5.19 5.19 0 0 0 3.81 1.57 5.38 5.38 0 0 0 4-1.62 8.25 8.25 0 0 0 2.13-4.56 29.39 29.39 0 0 0 .46-5.36zm54.77-1.25a44.45 44.45 0 0 1-.71 8.53q-1.22 6.88-5.53 10.65t-11.71 3.75q-7.71 0-12.58-4.11a15.76 15.76 0 0 1-5.48-11.21c-.13-1.48-.27-3.65-.4-6.49a1.07 1.07 0 0 1 1.21-1.22h9.34a1.07 1.07 0 0 1 1.21 1.22c.14 2.3.27 4 .41 5.17a8.74 8.74 0 0 0 2.13 4.82 6 6 0 0 0 8.21.1 7.87 7.87 0 0 0 2.13-4.51 49.65 49.65 0 0 0 .51-7.91 43.93 43.93 0 0 0-.71-8.62 7.71 7.71 0 0 0-2.13-4.06 5.4 5.4 0 0 0-3.85-1.42 4.43 4.43 0 0 0-2.74.91 2 2 0 0 1-.91.41 2.14 2.14 0 0 1-.82-.41l-4.73-4.87a1.26 1.26 0 0 1-.41-.91 1.31 1.31 0 0 1 .31-.81l12.67-17.25a.27.27 0 0 0 .06-.4.54.54 0 0 0-.46-.2h-19.3a1.21 1.21 0 0 1-1.22-1.22v-7.61a1.21 1.21 0 0 1 1.22-1.22h32.86a1.15 1.15 0 0 1 .86.36 1.16 1.16 0 0 1 .36.86v8a2.9 2.9 0 0 1-.51 1.53l-11.56 15.82c-.27.4-.21.64.2.71a11 11 0 0 1 7.15 4 18.2 18.2 0 0 1 4 8.62 41 41 0 0 1 .92 8.99z" fill="#271e53"/><path d="M2.82 251.39a2.89 2.89 0 0 1 2.87 2.88 2.83 2.83 0 0 1-2.87 2.81A2.79 2.79 0 0 1 0 254.27a2.84 2.84 0 0 1 2.82-2.88zm-1.58 11.78h3.21v25.7H1.24zm15.89 3.49a11 11 0 0 1 8.68-4.05 10.7 10.7 0 0 1 9.64 5.46 12 12 0 0 1 10.09-5.46 10.9 10.9 0 0 1 9.63 5.39 14.32 14.32 0 0 1 1.52 7.27v13.58h-3.24v-13.17c0-3.61-.57-5.3-1.47-6.65a7.64 7.64 0 0 0-6.48-3.38c-4.11 0-7.27 2.87-8.85 6a22.47 22.47 0 0 1 .29 3.67v13.58h-3.19v-13.22c0-3.61-.56-5.3-1.46-6.65a7.64 7.64 0 0 0-6.48-3.38 9.93 9.93 0 0 0-8.57 5.35v17.87h-3.21v-25.7h3.1zm68.69 22.21v-3.78a11.32 11.32 0 0 1-9.24 4.34 13.05 13.05 0 0 1-7.66-2.43 13.21 13.21 0 0 1-5.47-11 13.72 13.72 0 0 1 4.79-10.54 13.05 13.05 0 0 1 8.21-2.85 12.51 12.51 0 0 1 9.41 4.11v-3.55h3.1v25.7zm-.11-18a11.32 11.32 0 0 0-9.26-5.22 9.9 9.9 0 0 0-6.2 2.2 10.51 10.51 0 0 0-3.59 8.15 9.94 9.94 0 0 0 9.87 10.37 10.66 10.66 0 0 0 9.18-5.64zm34.6 26.13c-1.86 3.53-5.52 6-11.16 6a13.66 13.66 0 0 1-11.7-6.19l2.53-1.86a10.44 10.44 0 0 0 9.19 5c4.34 0 7-1.86 8.28-4.39.79-1.58 1-3.44 1-6.65v-3.71a11.35 11.35 0 0 1-9.13 4.23A13 13 0 0 1 96.25 276a13.72 13.72 0 0 1 4.79-10.54 13.05 13.05 0 0 1 8.17-2.87 12.51 12.51 0 0 1 9.41 4.11v-3.55h3.1v25.58c0 3.8-.34 6.27-1.41 8.27zm-1.8-26.21a11.33 11.33 0 0 0-9.25-5.18 9.87 9.87 0 0 0-6.19 2.2 10.48 10.48 0 0 0-3.62 8.19 9.94 9.94 0 0 0 9.86 10.37 10.67 10.67 0 0 0 9.19-5.64zm33.94 13.91a13.34 13.34 0 0 1-10.48 4.73c-7.21 0-12.91-5.41-12.91-13.41 0-7.38 5-13.41 12.29-13.41 6.87 0 11.94 5.41 11.94 12.56a11 11 0 0 1 0 1.13h-21c.22 5.47 3.77 10.09 9.69 10.09a10.25 10.25 0 0 0 8.22-3.84zm-20-11.33h17.5a8.7 8.7 0 0 0-8.62-7.72c-4.57 0-7.95 3.27-8.88 7.72zm43.37 29.02v-39.22h3.09v3.55a12.53 12.53 0 0 1 9.42-4.11 13.1 13.1 0 0 1 8.17 2.87 13.72 13.72 0 0 1 4.79 10.52 13.21 13.21 0 0 1-5.47 11 13.07 13.07 0 0 1-7.66 2.42 11.33 11.33 0 0 1-9.13-4.23v17.19zm3.21-21.64a10.66 10.66 0 0 0 9.18 5.64 9.93 9.93 0 0 0 9.86-10.39 10.5 10.5 0 0 0-3.6-8.17 9.92 9.92 0 0 0-6.2-2.2 11.29 11.29 0 0 0-9.24 5.18zm40.57 8.68A13.41 13.41 0 1 1 232.84 276a13.12 13.12 0 0 1-13.24 13.43zm0-23.78a10.38 10.38 0 1 0 10 10.37 10 10 0 0 0-10-10.37zm22.14-14.26a2.89 2.89 0 0 1 2.88 2.88 2.84 2.84 0 0 1-2.88 2.81 2.79 2.79 0 0 1-2.81-2.81 2.84 2.84 0 0 1 2.81-2.88zm-1.57 11.78h3.21v25.7h-3.21zm15.89 3.61a11.86 11.86 0 0 1 18.2.17c1.41 1.86 2.2 4 2.2 8.22v13.7h-3.21V275.4c0-3.38-.57-5-1.47-6.31a8 8 0 0 0-6.71-3.44 10.18 10.18 0 0 0-8.9 5.35v17.87h-3.21v-25.7h3.1zm44.07-.57h-8.74v14.09c0 2.31.45 3.44 1.13 4.28a5.25 5.25 0 0 0 4.28 1.81 10.32 10.32 0 0 0 2.76-.34l.57 2.93a12.58 12.58 0 0 1-3.33.45 8.61 8.61 0 0 1-6.87-2.93c-1.13-1.41-1.75-3.27-1.75-6.31v-14h-7.21v-3h7.21v-7h3.21v7h8.74zm7.32 17.08a12.18 12.18 0 0 0 7.78 3.1c3.21 0 5.91-1.81 5.91-4.51 0-6.59-14.82-3-14.82-11.78 0-4.68 4.4-7.49 8.74-7.49a14.84 14.84 0 0 1 8.28 2.48l-1.69 2.64a10.6 10.6 0 0 0-6.42-2.08c-2.71 0-5.69 1.41-5.69 4.39 0 5.7 14.82 2.65 14.82 11.67 0 4.79-4.06 7.72-8.91 7.72a14.58 14.58 0 0 1-10-3.66zm50.72 6.14A13.41 13.41 0 1 1 371.45 276a13.13 13.13 0 0 1-13.28 13.43zm0-23.78a10.38 10.38 0 1 0 10 10.37 10 10 0 0 0-10-10.37zm23.66 1.13a11.87 11.87 0 0 1 18.21.17c1.4 1.86 2.19 4 2.19 8.22v13.7h-3.21V275.4c0-3.38-.56-5-1.46-6.31a8 8 0 0 0-6.71-3.44 10.17 10.17 0 0 0-8.9 5.35v17.87h-3.21v-25.7h3.09zm59.29-.57h-8.74v14.09c0 2.31.45 3.44 1.13 4.28a5.25 5.25 0 0 0 4.28 1.81 10.32 10.32 0 0 0 2.76-.34l.57 2.93a12.58 12.58 0 0 1-3.33.45 8.61 8.61 0 0 1-6.87-2.93c-1.13-1.41-1.75-3.27-1.75-6.31v-14h-7.21v-3h7.21v-7h3.21v7h8.74zm11.1.4c2-2.71 5.52-4 9-4a11.1 11.1 0 0 1 9.13 4.34c1.4 1.86 2.19 4 2.19 8.22v13.7h-3.21V275.4c0-3.38-.56-5-1.46-6.31a8 8 0 0 0-6.71-3.44 10.17 10.17 0 0 0-8.9 5.35v17.87h-3.22v-40h3.22zm50.43 18.09a13.32 13.32 0 0 1-10.48 4.73c-7.21 0-12.9-5.41-12.9-13.41 0-7.38 5-13.41 12.28-13.41 6.87 0 11.95 5.41 11.95 12.56a9.15 9.15 0 0 1-.06 1.13h-20.99c.22 5.47 3.77 10.09 9.69 10.09a10.28 10.28 0 0 0 8.23-3.84zm-20-11.33h17.52a8.7 8.7 0 0 0-8.62-7.72c-4.56 0-7.95 3.27-8.9 7.72zm43.05 7.21c2.31 3 5.41 5.64 10.59 5.64 3.95 0 8.12-2.82 8.12-7.38 0-7.16-8.46-7.95-14.2-11.5-2.93-1.8-5.36-4.11-5.36-8.11 0-6.15 4.91-10.37 11.22-10.37a14.77 14.77 0 0 1 10.08 3.94l-2.14 2.48a11.06 11.06 0 0 0-7.83-3.21c-4.4 0-8 2.7-8 7 0 6 8 6.76 13.59 10.25 3.26 2 6 5 6 9.53 0 6.25-5.07 10.59-11.5 10.59a15.8 15.8 0 0 1-13.07-6.65zm49.53 8.29v-3.78a11.32 11.32 0 0 1-9.24 4.34 13.05 13.05 0 0 1-7.66-2.42 13.21 13.21 0 0 1-5.47-11 13.72 13.72 0 0 1 4.79-10.54 13.05 13.05 0 0 1 8.17-2.87 12.51 12.51 0 0 1 9.41 4.11v-3.55h3.1v25.7zm-.11-18a11.32 11.32 0 0 0-9.24-5.18 9.9 9.9 0 0 0-6.2 2.2 10.48 10.48 0 0 0-3.61 8.17 9.94 9.94 0 0 0 9.86 10.37 10.67 10.67 0 0 0 9.19-5.64zm15.89-4.21a11 11 0 0 1 8.68-4.05 10.7 10.7 0 0 1 9.63 5.46 12 12 0 0 1 10.13-5.46 10.9 10.9 0 0 1 9.6 5.39 14.32 14.32 0 0 1 1.52 7.27v13.58h-3.21v-13.17c0-3.61-.57-5.3-1.47-6.65a7.64 7.64 0 0 0-6.48-3.38c-4.11 0-7.27 2.87-8.85 6a22.58 22.58 0 0 1 .28 3.67v13.58h-3.21v-13.22c0-3.61-.56-5.3-1.46-6.65a7.65 7.65 0 0 0-6.48-3.38 9.93 9.93 0 0 0-8.57 5.35v17.87h-3.21v-25.7h3.1zm68.69 22.21v-3.78a11.32 11.32 0 0 1-9.24 4.34 13.05 13.05 0 0 1-7.66-2.42 13.21 13.21 0 0 1-5.47-11 13.72 13.72 0 0 1 4.79-10.54 13.05 13.05 0 0 1 8.17-2.87 12.51 12.51 0 0 1 9.41 4.11v-3.55h3.1v25.7zm-.11-18a11.32 11.32 0 0 0-9.24-5.18 9.9 9.9 0 0 0-6.2 2.2 10.51 10.51 0 0 0-3.61 8.17 9.94 9.94 0 0 0 9.91 10.33 10.67 10.67 0 0 0 9.19-5.64zm41.86-2.18h-25.41v20.18h-3.38v-39.45h3.38v16.06h25.41v-16.06h3.38v39.45h-3.38zm15.22 13.58c-1.46-2.31-2.31-5-2.31-9.18v-23.67h3.38v23.84c0 3.43.62 5.52 1.75 7.32a12.88 12.88 0 0 0 21.3 0c1.13-1.8 1.75-3.89 1.75-7.32v-23.84h3.38v23.67c0 4.17-.85 6.87-2.31 9.18a16.25 16.25 0 0 1-26.94 0zm58.95-15.77a11.84 11.84 0 0 1 6.93 10.7 11.6 11.6 0 0 1-3.89 8.68c-2.09 1.86-4.85 3-9 3h-14.2v-39.46h12.99c3.67 0 6 1 7.72 2.65a9.55 9.55 0 0 1-.5 14.43zm-7.39-1c3 0 4.68-.84 5.86-2.08a6.42 6.42 0 0 0 0-8.68c-1.18-1.24-2.87-2.09-5.86-2.09h-9.35v12.85zm-9.35 3.21v17h10.65c3.44 0 5.52-.9 7-2.36a8.42 8.42 0 0 0 0-12.17c-1.52-1.47-3.6-2.43-7-2.43z" fill="#27282a"/><path d="M593.39 1022.1h9.74a1.23 1.23 0 0 1 1.22 1.22v68.57a1.16 1.16 0 0 1-.36.86 1.14 1.14 0 0 1-.86.35h-9.33a1.14 1.14 0 0 1-.86-.35 1.16 1.16 0 0 1-.36-.86v-57.21a.69.69 0 0 0-.15-.41.27.27 0 0 0-.36-.1l-8.31 1.62h-.31a1 1 0 0 1-1.11-1.11l-.31-6.8a1.46 1.46 0 0 1 .81-1.42l9-4.06a3.85 3.85 0 0 1 1.55-.3zm27.8 0h9.73a1.23 1.23 0 0 1 1.22 1.22v68.57a1.16 1.16 0 0 1-.36.86 1.14 1.14 0 0 1-.86.35h-9.33a1.14 1.14 0 0 1-.86-.35 1.16 1.16 0 0 1-.36-.86v-57.21a.69.69 0 0 0-.15-.41.26.26 0 0 0-.35-.1l-8.32 1.62h-.31a1 1 0 0 1-1.11-1.11l-.3-6.8a1.44 1.44 0 0 1 .81-1.42l9-4.06a3.9 3.9 0 0 1 1.55-.3zm19.01 79.9a1 1 0 0 1-.25-1l2.64-22.73a1.08 1.08 0 0 1 1.21-1.11h8.12c.88 0 1.22.44 1 1.32l-5 22.72a1.21 1.21 0 0 1-1.32 1.11h-5.47a1.34 1.34 0 0 1-.93-.31zm33.73-19.24a.4.4 0 0 0 .4.2h22.22a1.16 1.16 0 0 1 .86.36 1.15 1.15 0 0 1 .36.86v7.71a1.21 1.21 0 0 1-1.22 1.21h-35.4a1.18 1.18 0 0 1-.87-.35 1.19 1.19 0 0 1-.35-.86v-8.12a2.29 2.29 0 0 1 .51-1.52l4-5.38q4-5.26 7.76-10.75t6.44-9.84q5.9-9.73 5.89-16.12a10.37 10.37 0 0 0-1.78-6.4 5.63 5.63 0 0 0-4.71-2.33 5.54 5.54 0 0 0-4.67 2.28 9.34 9.34 0 0 0-1.62 6v4a1.18 1.18 0 0 1-.36.86 1.15 1.15 0 0 1-.86.35h-9.58a1.2 1.2 0 0 1-1.22-1.21v-4.37q.4-8.11 5.53-13.08t13.23-5q8 0 12.94 5.22t4.92 13.75a30.42 30.42 0 0 1-1.73 10 48.73 48.73 0 0 1-5.48 10.65q-2.54 4-6 8.93t-4.62 6.39c-2 2.7-3.51 4.73-4.46 6.08a.33.33 0 0 0-.13.48zm64.91-6.7q0 8.22-5 13t-13.23 4.82a17 17 0 0 1-12.58-4.87q-4.87-4.87-4.87-13v-2.53a1.21 1.21 0 0 1 1.22-1.22h9.33a1.16 1.16 0 0 1 .86.36 1.15 1.15 0 0 1 .36.86v1.92a9.4 9.4 0 0 0 1.67 5.73 4.87 4.87 0 0 0 4 2.29 5.63 5.63 0 0 0 4.61-2.23 9.05 9.05 0 0 0 1.78-5.79v-10.34a.42.42 0 0 0-.21-.41.34.34 0 0 0-.4.1 10.54 10.54 0 0 1-7.31 2.64 15.21 15.21 0 0 1-11.36-4.46 19 19 0 0 1-5.07-11.87 47.15 47.15 0 0 1-.51-7.1c0-2.3.11-4.5.31-6.59q.4-7.71 5.22-11.92t12.83-4.21q7.41 0 12.08 3.9c3.1 2.61 5 6.44 5.68 11.52a39.79 39.79 0 0 1 .5 6.39zm-11.86-31.24c0-2-.11-4.29-.31-6.79q-1.11-6.71-6.08-6.7a5.29 5.29 0 0 0-4.16 1.83 9.68 9.68 0 0 0-2.13 5.17c-.14 1.62-.21 3.79-.21 6.49a49.21 49.21 0 0 0 .51 7.2 7.75 7.75 0 0 0 2.08 4.36 5.81 5.81 0 0 0 7.91-.05 7.73 7.73 0 0 0 2-4.61 61 61 0 0 0 .39-6.9zm24.85 43.97q-5.18-5.41-5.18-14.25v-33.88q0-8.82 5.18-14.25t13.69-5.43q8.63 0 13.85 5.43t5.22 14.25v33.88q0 8.82-5.22 14.25t-13.85 5.43q-8.52 0-13.69-5.43zm19-7.2a9.65 9.65 0 0 0 2-6.34V1040a9.67 9.67 0 0 0-2-6.34 6.57 6.57 0 0 0-5.33-2.38 6.3 6.3 0 0 0-5.17 2.38 9.77 9.77 0 0 0-1.88 6.34v35.3a9.75 9.75 0 0 0 1.93 6.34 6.3 6.3 0 0 0 5.17 2.38 6.57 6.57 0 0 0 5.3-2.43z" fill="#271e53"/><path d="M122.72 1152.85a11.9 11.9 0 0 1 18.09.34c1.41 1.86 2.2 4 2.2 8.23v13.69h-3.21v-13.47c0-3.38-.57-5-1.47-6.31a8 8 0 0 0-6.7-3.43 10.2 10.2 0 0 0-8.91 5.35v17.86h-3.21v-40h3.21zm40.29 22.83a13.42 13.42 0 1 1 13.25-13.42 13.13 13.13 0 0 1-13.25 13.42zm0-23.78a10.37 10.37 0 1 0 10 10.36 10 10 0 0 0-10-10.36zm39.85 19.72a11.13 11.13 0 0 1-8.68 4.06 10.81 10.81 0 0 1-9.64-5.3 14.25 14.25 0 0 1-1.52-7.27v-13.69h3.21v13.18c0 3.61.57 5.3 1.47 6.65a7.64 7.64 0 0 0 6.48 3.38 9.93 9.93 0 0 0 8.56-5.35v-17.86h3.21v25.69h-3.09zm25.47-19.62h-1.53a8.93 8.93 0 0 0-8 5.69v17.52h-3.22v-25.69h3.22v3.38a9.84 9.84 0 0 1 8.11-4 18.46 18.46 0 0 1 1.92.12zm6.36 17.53a12.2 12.2 0 0 0 7.78 3.1c3.21 0 5.92-1.8 5.92-4.51 0-6.59-14.82-3-14.82-11.77 0-4.68 4.39-7.5 8.73-7.5a14.92 14.92 0 0 1 8.28 2.48l-1.69 2.65a10.51 10.51 0 0 0-6.42-2.08c-2.71 0-5.69 1.4-5.69 4.39 0 5.69 14.82 2.65 14.82 11.67 0 4.79-4.06 7.72-8.9 7.72a14.55 14.55 0 0 1-10-3.67zm50.76 6.15a13.42 13.42 0 1 1 13.24-13.42 13.12 13.12 0 0 1-13.24 13.42zm0-23.78a10.37 10.37 0 1 0 10 10.36 10 10 0 0 0-10-10.36zm34.28-14.09a7.12 7.12 0 0 0-1.92-.23 5.81 5.81 0 0 0-5 2.43c-.74 1.07-1.19 2.31-1.19 5.35v4.06h8.74v3h-8.74v22.65h-3.17v-22.65h-6.7v-3h6.7v-3.89c0-4 .79-6.2 2.14-7.83a9.34 9.34 0 0 1 7.33-3.16 11.93 11.93 0 0 1 2.48.28zm21.72-2.71h3.21v40h-3.21zm14.4 2.54a2.89 2.89 0 0 1 2.87 2.87 2.84 2.84 0 0 1-2.87 2.82 2.79 2.79 0 0 1-2.82-2.82 2.84 2.84 0 0 1 2.82-2.87zm-1.58 11.78h3.18v25.69h-3.21zm26.54-11.61a7.12 7.12 0 0 0-1.92-.23 5.82 5.82 0 0 0-5 2.43c-.73 1.07-1.18 2.31-1.18 5.35v4.06h8.74v3h-8.73v22.65h-3.27v-22.65h-6.65v-3h6.65v-3.89c0-4 .79-6.2 2.14-7.83a9.34 9.34 0 0 1 7.33-3.16 11.85 11.85 0 0 1 2.48.28zm27.64 33.13a13.31 13.31 0 0 1-10.48 4.74c-7.22 0-12.91-5.41-12.91-13.42 0-7.38 5-13.41 12.29-13.41 6.87 0 11.94 5.41 11.94 12.57a11.06 11.06 0 0 1-.05 1.13h-21c.23 5.46 3.78 10.08 9.7 10.08a10.24 10.24 0 0 0 8.22-3.83zm-20-11.32h17.53a8.7 8.7 0 0 0-8.62-7.72c-4.55 0-7.91 3.26-8.91 7.72zm42.85 9.91a12.18 12.18 0 0 0 7.78 3.1c3.21 0 5.91-1.8 5.91-4.51 0-6.59-14.82-3-14.82-11.77 0-4.68 4.4-7.5 8.74-7.5a15 15 0 0 1 8.28 2.48l-1.69 2.65a10.56 10.56 0 0 0-6.42-2.08c-2.71 0-5.7 1.4-5.7 4.39 0 5.69 14.82 2.65 14.82 11.67 0 4.79-4.05 7.72-8.9 7.72a14.54 14.54 0 0 1-10-3.67zm42.32 5.58l-14.6-13.58v13.58h-3.21v-40h3.21v25l13.13-10.7h4.79L462.86 1161l15.27 14.14zm11.72-37.47a2.88 2.88 0 0 1 2.87 2.87 2.83 2.83 0 0 1-2.87 2.82 2.79 2.79 0 0 1-2.82-2.82 2.84 2.84 0 0 1 2.82-2.87zm-1.58 11.78h3.21v25.69h-3.21zm12.79-14.32h3.22v40h-3.22zm12.79 0h3.22v40h-3.22zm12.23 34.43a12.18 12.18 0 0 0 7.78 3.1c3.21 0 5.92-1.8 5.92-4.51 0-6.59-14.82-3-14.82-11.77 0-4.68 4.39-7.5 8.73-7.5a14.92 14.92 0 0 1 8.28 2.48l-1.69 2.65a10.53 10.53 0 0 0-6.42-2.08c-2.71 0-5.69 1.4-5.69 4.39 0 5.69 14.82 2.65 14.82 11.67 0 4.79-4.06 7.72-8.91 7.72a14.54 14.54 0 0 1-10-3.67zm54.38-17.07h-8.73v14.09c0 2.31.45 3.43 1.12 4.28a5.26 5.26 0 0 0 4.29 1.8 9.92 9.92 0 0 0 2.76-.34l.56 2.93a12.11 12.11 0 0 1-3.32.46 8.67 8.67 0 0 1-6.88-2.93c-1.13-1.41-1.75-3.27-1.75-6.32v-14h-7.21v-3H564v-7h3.22v7h8.73zm20.68-.46h-1.52a9 9 0 0 0-8.06 5.69v17.52h-3.21v-25.69h3.21v3.38a9.86 9.86 0 0 1 8.12-4 18.26 18.26 0 0 1 1.91.12zm27.05 23.11v-3.77a11.33 11.33 0 0 1-9.24 4.34 13 13 0 0 1-7.67-2.43 13.19 13.19 0 0 1-5.46-11 13.7 13.7 0 0 1 4.79-10.53 13.06 13.06 0 0 1 8.17-2.88 12.48 12.48 0 0 1 9.41 4.12v-3.55h3.1v25.69zm-.11-18a11.3 11.3 0 0 0-9.24-5.18 9.93 9.93 0 0 0-6.2 2.19 10.49 10.49 0 0 0-3.61 8.17 9.92 9.92 0 0 0 9.86 10.37 10.68 10.68 0 0 0 9.19-5.63zm14.37-19.47a2.89 2.89 0 0 1 2.87 2.87 2.84 2.84 0 0 1-2.87 2.82 2.79 2.79 0 0 1-2.82-2.82 2.84 2.84 0 0 1 2.82-2.87zm-1.58 11.78h3.21v25.69h-3.21zm15.89 3.58a11.86 11.86 0 0 1 18.2.17c1.41 1.86 2.2 4 2.2 8.23v13.69h-3.2v-13.47c0-3.38-.57-5-1.47-6.31a8 8 0 0 0-6.7-3.43 10.19 10.19 0 0 0-8.91 5.35v17.86h-3.22v-25.69h3.1zm30.99-15.36a2.89 2.89 0 0 1 2.88 2.87 2.84 2.84 0 0 1-2.88 2.82 2.79 2.79 0 0 1-2.82-2.82 2.84 2.84 0 0 1 2.82-2.87zm-1.58 11.78h3.22v25.69h-3.22zm15.89 3.58a11.87 11.87 0 0 1 18.21.17c1.4 1.86 2.19 4 2.19 8.23v13.69h-3.21v-13.47c0-3.38-.56-5-1.46-6.31a8 8 0 0 0-6.71-3.43 10.17 10.17 0 0 0-8.9 5.35v17.86h-3.22v-25.69h3.09zm51.23 30.28c-1.86 3.5-5.52 5.92-11.16 5.92a13.66 13.66 0 0 1-11.66-6.14l2.53-1.86a10.46 10.46 0 0 0 9.19 5c4.34 0 7-1.86 8.28-4.4.79-1.58 1-3.44 1-6.65v-3.66a11.35 11.35 0 0 1-9.13 4.23 13 13 0 0 1-7.67-2.43 13.19 13.19 0 0 1-5.46-11 13.7 13.7 0 0 1 4.79-10.53 13.06 13.06 0 0 1 8.17-2.88 12.48 12.48 0 0 1 9.41 4.12v-3.55h3.1V1175c.02 3.78-.32 6.25-1.39 8.28zm-1.8-26.2a11.3 11.3 0 0 0-9.25-5.18 9.92 9.92 0 0 0-6.19 2.19 10.49 10.49 0 0 0-3.61 8.17 9.92 9.92 0 0 0 9.86 10.37 10.68 10.68 0 0 0 9.19-5.63zM564.45 961v19h-3.39v-39.43h14.6c3.61 0 6 .9 7.72 2.37a10.3 10.3 0 0 1 0 15.66c-1.75 1.47-4.11 2.37-7.72 2.37zm11-3.21c3 0 4.79-.79 6.09-2.09a6.93 6.93 0 0 0 0-9.8c-1.3-1.3-3-2.09-6.09-2.09h-11v14zm30.81-.93a14.39 14.39 0 0 0-1.52-.06 9 9 0 0 0-8.06 5.69V980h-3.23v-25.7h3.21v3.38a9.86 9.86 0 0 1 8.11-3.94 18.61 18.61 0 0 1 1.92.11zm17.92 23.72a13.41 13.41 0 1 1 13.27-13.41 13.12 13.12 0 0 1-13.27 13.41zm0-23.78a10.38 10.38 0 1 0 10 10.37 10 10 0 0 0-10-10.37zm28.57 23.2l-11.95-25.7h3.49l9.47 20.51 9.47-20.51h3.49L654.83 980zm21.19-37.46a2.89 2.89 0 0 1 2.87 2.88 2.83 2.83 0 0 1-2.87 2.81 2.78 2.78 0 0 1-2.82-2.81 2.84 2.84 0 0 1 2.82-2.88zm-1.58 11.78h3.21V980h-3.21zm16 23.84a13.21 13.21 0 0 1-5.46-11 13.72 13.72 0 0 1 4.78-10.54 13.1 13.1 0 0 1 8.18-2.87 12.6 12.6 0 0 1 9.29 4V940h3.22v40h-3.1v-3.78a11.34 11.34 0 0 1-9.25 4.34 13.07 13.07 0 0 1-7.66-2.4zM705.15 962a11.29 11.29 0 0 0-9.24-5.18 9.92 9.92 0 0 0-6.2 2.2 10.5 10.5 0 0 0-3.6 8.17 9.93 9.93 0 0 0 9.86 10.37 10.66 10.66 0 0 0 9.18-5.64zm33.93 13.85a13.34 13.34 0 0 1-10.48 4.73c-7.22 0-12.91-5.41-12.91-13.41 0-7.38 5-13.41 12.29-13.41 6.87 0 11.94 5.41 11.94 12.56a11 11 0 0 1-.05 1.13h-21c.23 5.47 3.78 10.09 9.7 10.09a10.28 10.28 0 0 0 8.22-3.83zm-20-11.33h17.53a8.7 8.7 0 0 0-8.62-7.72c-4.54 0-7.96 3.27-8.92 7.72zm31.37 13.64a13.21 13.21 0 0 1-5.47-11 13.72 13.72 0 0 1 4.79-10.54 13.07 13.07 0 0 1 8.17-2.87 12.62 12.62 0 0 1 9.3 4V940h3.21v40h-3.09v-3.78a11.35 11.35 0 0 1-9.25 4.34 13.05 13.05 0 0 1-7.66-2.4zm16.8-16.16a11.32 11.32 0 0 0-9.24-5.18 9.92 9.92 0 0 0-6.2 2.2 10.5 10.5 0 0 0-3.6 8.17 9.93 9.93 0 0 0 9.86 10.37 10.66 10.66 0 0 0 9.18-5.64z" fill="#27282a"/><path fill="none" stroke="#271e53" stroke-width="2px" stroke-dasharray="5.938000202178955,3.937999963760376" d="M1236.8 0L1236.8 1289.05"/><path fill="#271e53" d="M1153.98 160.58L1203.18 185.94 1203.18 135.22 1153.98 160.58z"/><path fill="#271e53" d="M1153.98 594.74L1203.18 620.09 1203.18 569.38 1153.98 594.74z"/><path fill="#271e53" d="M1153.98 1046.28L1203.18 1071.64 1203.18 1020.92 1153.98 1046.28z"/><path fill="#271e53" d="M1315.93 825.86L1266.73 800.51 1266.73 851.22 1315.93 825.86z"/><path fill="#271e53" d="M1315.93 380.88L1266.73 355.52 1266.73 406.23 1315.93 380.88z"/><path d="M1506.91 511.44a113 113 0 0 1-113-113 113 113 0 0 1 113-113 113 113 0 0 1 113 113 113 113 0 0 1-113 113z" fill="#fffa0c"/><path d="M1528.82 433.72a12.53 12.53 0 0 0-16.46-4.6 59.31 59.31 0 0 1-28.05 7 60.25 60.25 0 1 1 28.07-113.51 12.49 12.49 0 0 0 16.42-4.58l10.55-17.11a12.7 12.7 0 0 0 1.45-9.85 12.36 12.36 0 0 0-6-7.68 104.2 104.2 0 0 0-20.36-8.5v-12a12.57 12.57 0 0 0-12.55-12.56h-35.15a12.58 12.58 0 0 0-12.56 12.56v12a105 105 0 0 0-20 8.28l-8.51-8.5a12.55 12.55 0 0 0-17.75 0l-24.85 24.85a12.56 12.56 0 0 0 0 17.75l8.51 8.51a104.71 104.71 0 0 0-8.28 20h-12a12.58 12.58 0 0 0-12.56 12.56v35.15a12.57 12.57 0 0 0 12.59 12.51h12a104.8 104.8 0 0 0 8.28 20l-8.5 8.5a12.57 12.57 0 0 0 0 17.76l24.85 24.85a12.57 12.57 0 0 0 17.75 0l8.51-8.5a104.71 104.71 0 0 0 20 8.28v12a12.58 12.58 0 0 0 12.56 12.56h35.15a12.57 12.57 0 0 0 12.52-12.61v-12a104.82 104.82 0 0 0 20.36-8.5 12.36 12.36 0 0 0 6-7.68 12.7 12.7 0 0 0-1.45-9.85zm-20.18 29.11a12.63 12.63 0 0 0-9.26 12.08v11.42h-30.13v-11.42a12.63 12.63 0 0 0-9.25-12.08 89.89 89.89 0 0 1-20-8.29 12.62 12.62 0 0 0-15.09 2l-8.08 8.09-21.31-21.31 8.08-8.08a12.62 12.62 0 0 0 2-15.09 90 90 0 0 1-8.29-20 12.63 12.63 0 0 0-12.09-9.26h-11.41v-30.1h11.41a12.63 12.63 0 0 0 12.09-9.25 89.89 89.89 0 0 1 8.29-20 12.62 12.62 0 0 0-2-15.09l-8.08-8.08 21.31-21.31 8.08 8.08a12.62 12.62 0 0 0 15.09 2 89.89 89.89 0 0 1 20-8.29 12.62 12.62 0 0 0 9.25-12.09v-11.38h30.13v11.41a12.62 12.62 0 0 0 9.25 12.09 89.72 89.72 0 0 1 16.48 6.41l-7.92 12.86a75 75 0 0 0-42.65-7c-34.17 4.38-61.56 32.4-65.13 66.62a75.23 75.23 0 0 0 107.78 75.78l7.92 12.85a89.23 89.23 0 0 1-16.47 6.43z"/><path d="M1623.21 370.24a10.16 10.16 0 0 0-2.72-2.71 9.94 9.94 0 0 0-12.19.79h-8.59a12.51 12.51 0 0 0-9.8 4.71l-6.27 7.85h-114.39v15.06h81.2l21.42 34.28a12.51 12.51 0 0 0 10.65 5.89h10.72a10 10 0 0 0 14.91-1.91 10 10 0 0 0 0-11.23 10.16 10.16 0 0 0-2.71-2.72 10 10 0 0 0-12.2.8h-9.33l-15.69-25.11h16.64a12.51 12.51 0 0 0 9.8-4.71l6.27-7.84h7.38a9.94 9.94 0 0 0 12.19.79 10.16 10.16 0 0 0 2.72-2.71 10.07 10.07 0 0 0 0-11.23z"/><path d="M1597.9 447.87a10 10 0 0 0-5.62-1.71 9.94 9.94 0 0 0-6.58 2.51h-23.06l-25.28-40.3a12.46 12.46 0 0 0-10.63-5.88h-20a12.47 12.47 0 0 0-6.19 1.67 32.65 32.65 0 1 1 0-56.61 12.56 12.56 0 0 0 6.2 1.67h20a12.48 12.48 0 0 0 10.61-5.84l30.29-47.87h25.59a10 10 0 1 0 0-15.07h-27a12.5 12.5 0 0 0-10.61 5.85l-30.29 47.87h-18a47.71 47.71 0 1 0 0 83.39h17.93l25.28 40.3a12.46 12.46 0 0 0 10.63 5.88h24.45a9.94 9.94 0 0 0 6.58 2.51 10 10 0 0 0 5.62-1.71 10.27 10.27 0 0 0 2.71-2.71 10.07 10.07 0 0 0 0-11.23 10.16 10.16 0 0 0-2.63-2.72z"/><path d="M1607.94 332.37a10 10 0 0 0-12.2.8h-3.29a12.54 12.54 0 0 0-10.45 5.59l-11.34 17h-12.43l20.62-32.64h6.84a10 10 0 0 0 12.2.79 10.13 10.13 0 0 0 2.71-2.71 10.07 10.07 0 0 0 0-11.23 10.13 10.13 0 0 0-2.71-2.71 10 10 0 0 0-12.2.79h-8.24a12.49 12.49 0 0 0-10.61 5.85l-26.39 41.87h-71.2v15.06h72.56a12.13 12.13 0 0 0 2.76-.35v.35h27.45a12.52 12.52 0 0 0 10.44-5.59l11.34-17h1.94a10 10 0 0 0 14.91-13.15 10.16 10.16 0 0 0-2.71-2.72z"/><path d="M1008.45 284.56A107.29 107.29 0 0 1 901.2 177.27 107.28 107.28 0 0 1 1008.45 70a107.28 107.28 0 0 1 107.29 107.29 107.29 107.29 0 0 1-107.29 107.27z" fill="#fffa0c"/><path d="M987.12 112.89a12.25 12.25 0 0 1-8.67-3.59l-40.62-40.62a12.28 12.28 0 0 1 0-17.36l11.12-11.12a12.58 12.58 0 0 1 17.37 0l20.8 20.8 20.81-20.8a12.28 12.28 0 0 1 17.36 0l11.16 11.12a12.28 12.28 0 0 1 0 17.36L995.8 109.3a12.23 12.23 0 0 1-8.68 3.59zM949.38 60l37.74 37.75L1024.87 60l-8.26-8.26-20.81 20.81a12.28 12.28 0 0 1-17.36 0l-20.81-20.81zm8.25 215a12.19 12.19 0 0 1-8.68-3.6l-11.12-11.1a12.28 12.28 0 0 1 0-17.36l40.62-40.62a12.3 12.3 0 0 1 17.36 0l40.64 40.62a12.28 12.28 0 0 1 0 17.36l-11.13 11.12a12.28 12.28 0 0 1-17.36 0l-20.81-20.8-20.8 20.8a12.22 12.22 0 0 1-8.72 3.58zm29.49-39.54a12.23 12.23 0 0 1 8.68 3.59l20.81 20.81 8.26-8.26-37.75-37.75-37.74 37.75 8.25 8.26 20.82-20.79a12.25 12.25 0 0 1 8.67-3.59zm95.71-26.76a12.27 12.27 0 0 1-8.68-3.59l-40.61-40.62a12.28 12.28 0 0 1 0-17.36l40.61-40.61a12.29 12.29 0 0 1 17.37 0l11.12 11.12a12.28 12.28 0 0 1 0 17.36l-20.81 20.81 20.81 20.81a12.28 12.28 0 0 1 0 17.36l-11.12 11.13a12.27 12.27 0 0 1-8.69 3.59zm-37.74-52.89l37.74 37.75 8.26-8.26-20.8-20.81a12.28 12.28 0 0 1 0-17.36l20.8-20.81-8.26-8.26zM891.22 208.7a12.23 12.23 0 0 1-8.68-3.59L871.45 194a12.28 12.28 0 0 1 0-17.36l20.81-20.81L871.45 135a12.28 12.28 0 0 1 0-17.36l11.13-11.12a12.28 12.28 0 0 1 17.36 0l40.61 40.61a12.28 12.28 0 0 1 0 17.36l-40.61 40.62a12.25 12.25 0 0 1-8.72 3.59zm-8.26-23.4l8.26 8.26 37.75-37.75-37.75-37.75-8.26 8.26 20.81 20.81a12.28 12.28 0 0 1 0 17.36zm104.07-.88a28.61 28.61 0 1 1 28.61-28.61 28.64 28.64 0 0 1-28.61 28.61zm0-42.91a14.31 14.31 0 1 0 14.3 14.3 14.32 14.32 0 0 0-14.3-14.3z"/><path d="M1506.09 951.2a111.35 111.35 0 0 1-111.35-111.35 111.35 111.35 0 0 1 111.35-111.35 111.35 111.35 0 0 1 111.36 111.35 111.35 111.35 0 0 1-111.36 111.35z" fill="#fffa0c"/><path d="M1602.59 921.5h-5V768.09a9.89 9.89 0 0 0-9.89-9.9h-24.75a9.9 9.9 0 0 0-9.9 9.9V921.5h-14.84v-99a9.9 9.9 0 0 0-9.9-9.9h-24.74a9.9 9.9 0 0 0-9.9 9.9v99h-14.85v-74.23a9.9 9.9 0 0 0-9.9-9.9h-24.74a9.9 9.9 0 0 0-9.9 9.9v74.23h-14.83V872a9.9 9.9 0 0 0-9.9-9.9h-24.75a9.89 9.89 0 0 0-9.89 9.9v49.5h-5a7.43 7.43 0 1 0 0 14.85h232.59a7.43 7.43 0 0 0 0-14.85zm-198 0h-14.85V877h14.85zm59.38 0h-14.84v-69.28h14.84zm59.39 0h-14.85v-94h14.94zm59.39 0h-14.8V773h14.85z" fill="#28282a"/><path d="M1397.21 837.38a7 7 0 0 0 1.63-.19c88.17-19.84 155.83-70.27 177.65-112.06l4.19 13.06a7.42 7.42 0 1 0 14.13-4.54l-10.26-32a7.44 7.44 0 0 0-9.34-4.8l-32 10.27a7.42 7.42 0 1 0 4.54 14.13l16.75-5.37c-16.83 35.12-78.61 86.5-168.92 106.82a7.43 7.43 0 0 0 1.62 14.67z" fill="#28282a"/><path d="M1001.58 719.7a109.16 109.16 0 0 1-109.13-109.16 109.16 109.16 0 0 1 109.16-109.16 109.17 109.17 0 0 1 109.14 109.16 109.17 109.17 0 0 1-109.17 109.16z" fill="#fffa0c"/><path d="M979.75 610.39a69.07 69.07 0 1 0-69.07-69.07 69.07 69.07 0 0 0 69.07 69.07zm0-123.58a54.51 54.51 0 1 1-54.51 54.51 54.57 54.57 0 0 1 54.51-54.51z" fill="#28282a"/><path d="M1083.45 635.74c-13.73-10.93-27.6-19.68-44.3-25.79a22.52 22.52 0 0 0-7.72-1.37 21.23 21.23 0 0 0-12.49 4 66.55 66.55 0 0 1-76.83 1 20.39 20.39 0 0 0-11.57-3.51 22 22 0 0 0-8.1 1.55c-14.94 5.93-33.53 14-46 23.82a34.45 34.45 0 0 0-13.12 27v31.42a11.18 11.18 0 0 0 11.07 11.28h210.74a11.18 11.18 0 0 0 11.07-11.28v-31.42a34.13 34.13 0 0 0-12.75-26.7zm-1.8 54.84H877.86v-28.14a19.77 19.77 0 0 1 7.6-15.57c11.16-8.84 29.5-16.62 42.33-21.71a7.41 7.41 0 0 1 2.73-.53 6 6 0 0 1 3.35 1 81.07 81.07 0 0 0 93.58-1.25 6.72 6.72 0 0 1 4-1.22 7.92 7.92 0 0 1 2.72.49c13.7 5 26.11 12.26 40.23 23.51a19.64 19.64 0 0 1 7.27 15.31z" fill="#28282a"/><path d="M989.32 1154.05a106.72 106.72 0 0 1-106.72-106.72 106.72 106.72 0 0 1 106.72-106.72 106.72 106.72 0 0 1 106.73 106.72 106.72 106.72 0 0 1-106.73 106.72z" fill="#fffa0c"/><path d="M1066.64 1007h3.32a7.12 7.12 0 0 0 0-14.23h-3.32l7.74-14.51a9.49 9.49 0 0 0-8.37-13.95h-34.31a9.47 9.47 0 0 0-8.37 5l-12.5 23.44h-66.57a7.12 7.12 0 0 0 0 14.23h66.57l12.5 23.44a9.47 9.47 0 0 0 8.37 5h34.31a9.49 9.49 0 0 0 8.37-14zm-32.1-28.46h23.56l-5.43 10.19a22.71 22.71 0 0 0-1.65 4h-24.07zm0 42.69l-7.59-14.23h24.07a23.11 23.11 0 0 0 1.65 4l5.43 10.18z" fill="#28282a"/><path d="M1019.32 1036.43a7.11 7.11 0 0 0-9.72 2.59 78.27 78.27 0 1 1 0-78.25 7.113 7.113 0 1 0 12.31-7.13A92.43 92.43 0 1 0 901.6 1083l-25.25 46.3a7.12 7.12 0 1 0 12.5 6.82l26.05-47.77a91.28 91.28 0 0 0 19.88 3.68v45.42a7.11 7.11 0 1 0 14.22 0v-45.36a91.7 91.7 0 0 0 17.81-3.19l25.75 47.22a7.12 7.12 0 0 0 12.5-6.82l-24.76-45.39a92.94 92.94 0 0 0 41.61-37.76 7.11 7.11 0 0 0-2.59-9.72z" fill="#28282a"/><path d="M989.61 981.16a7.11 7.11 0 0 0 13.24-5.16 65.53 65.53 0 1 0 0 47.9 7.114 7.114 0 1 0-13.24-5.21 51.31 51.31 0 1 1 0-37.48z" fill="#28282a"/><path d="M941.89 977.8a22.05 22.05 0 0 1 15 6 7.111 7.111 0 1 0 9.69-10.41 36.32 36.32 0 1 0 0 53.1 7.114 7.114 0 1 0-9.7-10.41 22.08 22.08 0 1 1-15-38.24z" fill="#28282a"/></g></g></svg>