<svg xmlns="http://www.w3.org/2000/svg" viewBox="0 0 675.24 597.83"><title>quality-flow</title><g id="a6ad61e9-273e-457c-80d5-a882f73e188a" data-name="Layer 2"><g id="fbeeba44-0de1-499c-b431-f011fae79178" data-name="Layer 1"><path d="M218,166.64H454.58a0,0,0,0,1,0,0v36.48A17.88,17.88,0,0,1,436.7,221H218a0,0,0,0,1,0,0V166.64A0,0,0,0,1,218,166.64Z" style="fill:#fff;stroke:#8a8f93;stroke-miterlimit:10;stroke-width:2px;stroke-dasharray:3,5"/><path d="M1,1H295.58a0,0,0,0,1,0,0V82.31a28.34,28.34,0,0,1-28.34,28.34H1a0,0,0,0,1,0,0V1A0,0,0,0,1,1,1Z" style="fill:#fff;stroke:#291d54;stroke-miterlimit:10;stroke-width:2px"/><circle cx="35.68" cy="34.74" r="18.9" style="fill:#fff200"/><circle cx="31.48" cy="30.54" r="18.9" style="fill:#291d54"/><path d="M30,20.46h2.6a.33.33,0,0,1,.23.09.32.32,0,0,1,.09.23V39a.32.32,0,0,1-.09.23.34.34,0,0,1-.23.1H30.06a.34.34,0,0,1-.23-.1.32.32,0,0,1-.09-.23V23.8a.21.21,0,0,0,0-.1.07.07,0,0,0-.1,0l-2.21.43h-.08a.27.27,0,0,1-.3-.3L26.93,22a.37.37,0,0,1,.22-.37l2.4-1.08A.9.9,0,0,1,30,20.46Z" style="fill:#fff"/><path d="M81.74,47.37l5.73,13.3H86.33l-1.75-4H78.13l-1.75,4H75.24L81,47.37Zm-3.16,8.21h5.53l-2.75-6.42Z"/><path d="M96.44,63.43a4,4,0,0,1-3.76,2,4.6,4.6,0,0,1-3.93-2.07l.85-.63a3.52,3.52,0,0,0,3.1,1.67,2.89,2.89,0,0,0,2.79-1.48,4.83,4.83,0,0,0,.34-2.24V59.44a3.83,3.83,0,0,1-3.07,1.42,4.4,4.4,0,0,1-4.43-4.52,4.64,4.64,0,0,1,1.61-3.55,4.43,4.43,0,0,1,2.76-1,4.23,4.23,0,0,1,3.17,1.38V52h1v8.62A5.9,5.9,0,0,1,96.44,63.43Zm-.61-8.84a3.82,3.82,0,0,0-3.11-1.75,3.38,3.38,0,0,0-2.09.74,3.56,3.56,0,0,0-1.22,2.76,3.34,3.34,0,0,0,3.33,3.49,3.59,3.59,0,0,0,3.09-1.89Z"/><path d="M107.27,59.27a4.51,4.51,0,0,1-3.53,1.59,4.3,4.3,0,0,1-4.35-4.52,4.24,4.24,0,0,1,4.14-4.52,4,4,0,0,1,4,4.23,3.07,3.07,0,0,1,0,.38h-7.07a3.28,3.28,0,0,0,3.27,3.4,3.44,3.44,0,0,0,2.77-1.29Zm-6.74-3.82h5.9a2.93,2.93,0,0,0-2.9-2.61A3.09,3.09,0,0,0,100.53,55.45Z"/><path d="M111.07,53.22a4,4,0,0,1,6.14.06,4.18,4.18,0,0,1,.74,2.77v4.62h-1.08V56.13a3.4,3.4,0,0,0-.5-2.13,2.69,2.69,0,0,0-2.26-1.16,3.43,3.43,0,0,0-3,1.81v6H110V52h1Z"/><path d="M125.83,53h-2.94v4.75a2.14,2.14,0,0,0,.38,1.45,1.77,1.77,0,0,0,1.44.6,3.21,3.21,0,0,0,.93-.11l.19,1a4.39,4.39,0,0,1-1.12.15,2.9,2.9,0,0,1-2.31-1,3.18,3.18,0,0,1-.59-2.12V53h-2.43V52h2.43V49.65h1.08V52h2.94Z"/><path d="M133.62,65.23V52h1V53.2a4.23,4.23,0,0,1,3.17-1.38,4.43,4.43,0,0,1,2.76,1,4.64,4.64,0,0,1,1.61,3.55,4.4,4.4,0,0,1-4.42,4.52,3.83,3.83,0,0,1-3.08-1.42v5.79Zm1.09-7.29a3.59,3.59,0,0,0,3.09,1.89,3.34,3.34,0,0,0,3.33-3.49,3.56,3.56,0,0,0-1.22-2.76,3.36,3.36,0,0,0-2.09-.74,3.82,3.82,0,0,0-3.11,1.75Z"/><path d="M152,59.27a4.52,4.52,0,0,1-3.54,1.59,4.3,4.3,0,0,1-4.35-4.52,4.24,4.24,0,0,1,4.14-4.52,4,4,0,0,1,4,4.23,3.07,3.07,0,0,1,0,.38H145.2a3.27,3.27,0,0,0,3.26,3.4,3.47,3.47,0,0,0,2.78-1.29Zm-6.75-3.82h5.91a2.94,2.94,0,0,0-2.91-2.61A3.11,3.11,0,0,0,145.25,55.45Z"/><path d="M159.06,52.86a4.79,4.79,0,0,0-.51,0,3,3,0,0,0-2.71,1.92v5.91h-1.09V52h1.09v1.14a3.29,3.29,0,0,1,2.73-1.33,6.48,6.48,0,0,1,.65,0Z"/><path d="M166.23,48.09a2.76,2.76,0,0,0-.65-.07,2,2,0,0,0-1.69.82,2.82,2.82,0,0,0-.4,1.8V52h2.95v1h-2.95v7.64h-1.08V53h-2.24V52h2.24V50.7a3.86,3.86,0,0,1,.72-2.64A3.13,3.13,0,0,1,165.6,47a3.94,3.94,0,0,1,.84.1Z"/><path d="M171.85,60.86a4.52,4.52,0,1,1,4.47-4.52A4.42,4.42,0,0,1,171.85,60.86Zm0-8a3.5,3.5,0,1,0,3.38,3.5A3.38,3.38,0,0,0,171.85,52.84Z"/><path d="M183.1,52.86a4.89,4.89,0,0,0-.51,0,3,3,0,0,0-2.72,1.92v5.91h-1.08V52h1.08v1.14a3.33,3.33,0,0,1,2.74-1.33,6.1,6.1,0,0,1,.64,0Z"/><path d="M186.48,53.19a3.72,3.72,0,0,1,2.93-1.37,3.62,3.62,0,0,1,3.25,1.84,4,4,0,0,1,3.4-1.84,3.66,3.66,0,0,1,3.24,1.82,4.72,4.72,0,0,1,.52,2.45v4.58h-1.09V56.23a3.79,3.79,0,0,0-.49-2.25,2.58,2.58,0,0,0-2.18-1.14,3.48,3.48,0,0,0-3,2,7.19,7.19,0,0,1,.1,1.23v4.58h-1.08V56.23a3.7,3.7,0,0,0-.5-2.25,2.57,2.57,0,0,0-2.18-1.14,3.36,3.36,0,0,0-2.89,1.81v6h-1.08V52h1Z"/><path d="M202.67,58.79a4.08,4.08,0,0,0,2.62,1c1.08,0,2-.6,2-1.51,0-2.23-5-1-5-4a2.73,2.73,0,0,1,2.94-2.52,5.11,5.11,0,0,1,2.8.83l-.57.9a3.55,3.55,0,0,0-2.17-.71c-.91,0-1.92.48-1.92,1.49,0,1.91,5,.89,5,3.93a2.73,2.73,0,0,1-3,2.6A4.93,4.93,0,0,1,202,59.63Z"/><path d="M221,53h-2.94v4.75a2.14,2.14,0,0,0,.38,1.45,1.77,1.77,0,0,0,1.44.6,3.21,3.21,0,0,0,.93-.11l.19,1a4.39,4.39,0,0,1-1.12.15,2.89,2.89,0,0,1-2.31-1,3.12,3.12,0,0,1-.59-2.12V53h-2.44V52H217V49.65h1.08V52H221Z"/><path d="M230.16,60.67V59.4a3.82,3.82,0,0,1-3.11,1.46,4.4,4.4,0,0,1-4.43-4.52,4.64,4.64,0,0,1,1.61-3.55,4.43,4.43,0,0,1,2.76-1,4.23,4.23,0,0,1,3.17,1.38V52h1.05v8.66Zm0-6.08A3.82,3.82,0,0,0,227,52.84a3.38,3.38,0,0,0-2.09.74,3.56,3.56,0,0,0-1.22,2.76A3.34,3.34,0,0,0,227,59.83a3.59,3.59,0,0,0,3.09-1.89Z"/><path d="M234.25,58.79a4.08,4.08,0,0,0,2.62,1c1.08,0,2-.6,2-1.51,0-2.23-5-1-5-4a2.73,2.73,0,0,1,2.94-2.52,5,5,0,0,1,2.79.83l-.57.9a3.52,3.52,0,0,0-2.16-.71c-.91,0-1.92.48-1.92,1.49,0,1.91,5,.89,5,3.93a2.73,2.73,0,0,1-3,2.6,4.93,4.93,0,0,1-3.36-1.23Z"/><path d="M248.51,60.67l-4.92-4.58v4.58h-1.08V47.18h1.08v8.44L248,52h1.62l-4.75,3.89L250,60.67Z"/><path d="M251.56,58.79a4.08,4.08,0,0,0,2.62,1c1.08,0,2-.6,2-1.51,0-2.23-5-1-5-4a2.73,2.73,0,0,1,2.94-2.52,5,5,0,0,1,2.79.83l-.57.9a3.52,3.52,0,0,0-2.16-.71c-.91,0-1.92.48-1.92,1.49,0,1.91,5,.89,5,3.93a2.72,2.72,0,0,1-3,2.6,4.93,4.93,0,0,1-3.36-1.23Z"/><path d="M243.87,184.18a6.84,6.84,0,1,1-6.61,6.84A6.6,6.6,0,0,1,243.87,184.18Zm0,12.6A5.76,5.76,0,1,0,238.4,191,5.51,5.51,0,0,0,243.87,196.78Z"/><path d="M252.76,202.23V189h1.05v1.19a4.23,4.23,0,0,1,3.17-1.38,4.4,4.4,0,0,1,2.75,1,4.61,4.61,0,0,1,1.62,3.55,4.4,4.4,0,0,1-4.43,4.52,3.81,3.81,0,0,1-3.07-1.42v5.79Zm1.09-7.29a3.59,3.59,0,0,0,3.09,1.89,3.34,3.34,0,0,0,3.33-3.49,3.56,3.56,0,0,0-1.22-2.76,3.38,3.38,0,0,0-2.09-.74,3.81,3.81,0,0,0-3.11,1.75Z"/><path d="M268.66,190h-2.94v4.75a2.14,2.14,0,0,0,.38,1.45,1.77,1.77,0,0,0,1.44.6,3.21,3.21,0,0,0,.93-.11l.19,1a4.33,4.33,0,0,1-1.12.15,2.91,2.91,0,0,1-2.31-1,3.18,3.18,0,0,1-.59-2.12V190h-2.43v-1h2.43v-2.36h1.08V189h2.94Z"/><path d="M271.86,185a1,1,0,0,1,1,1,1,1,0,0,1-1,1,.94.94,0,0,1-.95-1A1,1,0,0,1,271.86,185Zm-.53,4h1.08v8.66h-1.08Z"/><path d="M279.34,197.86a4.52,4.52,0,1,1,4.47-4.52A4.42,4.42,0,0,1,279.34,197.86Zm0-8a3.5,3.5,0,1,0,3.38,3.5A3.38,3.38,0,0,0,279.34,189.84Z"/><path d="M287.32,190.22a3.78,3.78,0,0,1,3.06-1.4,3.73,3.73,0,0,1,3.08,1.46,4.18,4.18,0,0,1,.74,2.77v4.62h-1.08v-4.54a3.4,3.4,0,0,0-.5-2.13,2.69,2.69,0,0,0-2.26-1.16,3.45,3.45,0,0,0-3,1.81v6h-1.08V189h1Z"/><path d="M304,197.67V196.4a3.8,3.8,0,0,1-3.11,1.46,4.4,4.4,0,0,1-4.43-4.52,4.61,4.61,0,0,1,1.62-3.55,4.4,4.4,0,0,1,2.75-1A4.23,4.23,0,0,1,304,190.2V189h1.05v8.66Zm0-6.08a3.83,3.83,0,0,0-3.12-1.75,3.38,3.38,0,0,0-2.09.74,3.56,3.56,0,0,0-1.22,2.76,3.34,3.34,0,0,0,3.33,3.49,3.62,3.62,0,0,0,3.1-1.89Z"/><path d="M308.3,184.18h1.08v13.49H308.3Z"/><path d="M322.15,184.37l5.74,13.3h-1.14l-1.75-4h-6.46l-1.75,4h-1.14l5.74-13.3ZM319,192.58h5.52l-2.75-6.42Z"/><path d="M329.6,202.23V189h1v1.19a4.23,4.23,0,0,1,3.18-1.38,4.4,4.4,0,0,1,2.75,1,4.6,4.6,0,0,1,1.61,3.55,4.4,4.4,0,0,1-4.42,4.52,3.85,3.85,0,0,1-3.08-1.42v5.79Zm1.08-7.29a3.6,3.6,0,0,0,3.1,1.89,3.34,3.34,0,0,0,3.32-3.49,3.55,3.55,0,0,0-1.21-2.76,3.38,3.38,0,0,0-2.09-.74,3.83,3.83,0,0,0-3.12,1.75Z"/><path d="M340.66,202.23V189h1v1.19a4.23,4.23,0,0,1,3.17-1.38,4.4,4.4,0,0,1,2.76,1,4.6,4.6,0,0,1,1.61,3.55,4.4,4.4,0,0,1-4.42,4.52,3.83,3.83,0,0,1-3.08-1.42v5.79Zm1.08-7.29a3.59,3.59,0,0,0,3.09,1.89,3.34,3.34,0,0,0,3.33-3.49,3.56,3.56,0,0,0-1.22-2.76,3.34,3.34,0,0,0-2.09-.74,3.82,3.82,0,0,0-3.11,1.75Z"/><path d="M356,189.86a5.07,5.07,0,0,0-.52,0,3,3,0,0,0-2.71,1.92v5.91h-1.09V189h1.09v1.14a3.31,3.31,0,0,1,2.73-1.33,6.48,6.48,0,0,1,.65,0Z"/><path d="M361.78,197.86a4.52,4.52,0,1,1,4.47-4.52A4.42,4.42,0,0,1,361.78,197.86Zm0-8a3.5,3.5,0,1,0,3.38,3.5A3.38,3.38,0,0,0,361.78,189.84Z"/><path d="M371.32,197.67l-4-8.66h1.18l3.19,6.91,3.19-6.91H376l-4,8.66Z"/><path d="M385,196.27a4.5,4.5,0,0,1-3.53,1.59,4.3,4.3,0,0,1-4.35-4.52,4.24,4.24,0,0,1,4.14-4.52,4,4,0,0,1,4,4.23,3.07,3.07,0,0,1,0,.38h-7.07a3.28,3.28,0,0,0,3.27,3.4,3.44,3.44,0,0,0,2.77-1.29Zm-6.74-3.82h5.91a2.94,2.94,0,0,0-2.91-2.61A3.09,3.09,0,0,0,378.22,192.45Z"/><path d="M392,189.86a4.89,4.89,0,0,0-.51,0,3,3,0,0,0-2.72,1.92v5.91h-1.08V189h1.08v1.14a3.33,3.33,0,0,1,2.74-1.33,6.1,6.1,0,0,1,.64,0Z"/><path d="M399.38,194.88a4.3,4.3,0,0,0,3.58,1.9,2.62,2.62,0,0,0,2.73-2.49c0-2.41-2.85-2.68-4.79-3.88a3.13,3.13,0,0,1-1.8-2.73,3.54,3.54,0,0,1,3.78-3.5,5,5,0,0,1,3.4,1.33l-.72.84a3.71,3.71,0,0,0-2.64-1.08,2.44,2.44,0,0,0-2.68,2.35c0,2,2.68,2.28,4.58,3.46a3.7,3.7,0,0,1,2,3.21,3.63,3.63,0,0,1-3.87,3.57,5.33,5.33,0,0,1-4.41-2.24Z"/><path d="M413.86,190h-2.94v4.75a2.14,2.14,0,0,0,.38,1.45,1.75,1.75,0,0,0,1.44.6,3.21,3.21,0,0,0,.93-.11l.19,1a4.39,4.39,0,0,1-1.12.15,2.92,2.92,0,0,1-2.32-1,3.18,3.18,0,0,1-.59-2.12V190H407.4v-1h2.43v-2.36h1.09V189h2.94Z"/><path d="M423.36,196.27a4.51,4.51,0,0,1-3.53,1.59,4.3,4.3,0,0,1-4.35-4.52,4.24,4.24,0,0,1,4.14-4.52,4,4,0,0,1,4,4.23,3.07,3.07,0,0,1,0,.38h-7.07a3.28,3.28,0,0,0,3.27,3.4,3.44,3.44,0,0,0,2.77-1.29Zm-6.74-3.82h5.9a2.93,2.93,0,0,0-2.9-2.61A3.09,3.09,0,0,0,416.62,192.45Z"/><path d="M426.12,202.23V189h1v1.19a4.23,4.23,0,0,1,3.17-1.38,4.4,4.4,0,0,1,2.76,1,4.6,4.6,0,0,1,1.61,3.55,4.4,4.4,0,0,1-4.42,4.52,3.83,3.83,0,0,1-3.08-1.42v5.79Zm1.08-7.29a3.6,3.6,0,0,0,3.1,1.89,3.34,3.34,0,0,0,3.32-3.49,3.56,3.56,0,0,0-1.22-2.76,3.34,3.34,0,0,0-2.09-.74,3.82,3.82,0,0,0-3.11,1.75Z"/><path d="M526.1,385.64,404,323.64l122.14-62,122.14,62Z" style="fill:#fff;stroke:#291d54;stroke-linecap:round;stroke-linejoin:round;stroke-width:2px"/><path d="M487.28,337v4.33H492v1.08h-4.75v6.8h-1.14v-13.3h7.21V337Z"/><path d="M501.56,349.17V347.9a3.8,3.8,0,0,1-3.11,1.46,4.4,4.4,0,0,1-4.43-4.52,4.61,4.61,0,0,1,1.62-3.55,4.4,4.4,0,0,1,2.75-1,4.23,4.23,0,0,1,3.17,1.38v-1.19h1.05v8.66Zm0-6.08a3.83,3.83,0,0,0-3.12-1.75,3.38,3.38,0,0,0-2.09.74,3.56,3.56,0,0,0-1.22,2.76,3.34,3.34,0,0,0,3.33,3.49,3.62,3.62,0,0,0,3.1-1.89Z"/><path d="M506.37,336.54a1,1,0,0,1,1,1,1,1,0,0,1-1,.95.94.94,0,0,1-.95-.95A1,1,0,0,1,506.37,336.54Zm-.53,4h1.08v8.66h-1.08Z"/><path d="M510.15,335.68h1.08v13.49h-1.08Z"/><path d="M514.08,349.17l6.22-13.3h1.1l-6.21,13.3Z"/><path d="M524.91,342.75v6.42h-1.14v-13.3h4.92a3.87,3.87,0,0,1,2.61.8,3.48,3.48,0,0,1,0,5.28,3.82,3.82,0,0,1-2.61.8Zm3.73-1.08a2.66,2.66,0,0,0,2.05-.71,2.3,2.3,0,0,0,.68-1.65,2.34,2.34,0,0,0-.68-1.65,2.66,2.66,0,0,0-2.05-.7h-3.73v4.71Z"/><path d="M540.53,349.17V347.9a3.82,3.82,0,0,1-3.11,1.46,4.4,4.4,0,0,1-4.43-4.52,4.64,4.64,0,0,1,1.61-3.55,4.43,4.43,0,0,1,2.76-1,4.23,4.23,0,0,1,3.17,1.38v-1.19h1.05v8.66Zm0-6.08a3.82,3.82,0,0,0-3.11-1.75,3.38,3.38,0,0,0-2.09.74,3.56,3.56,0,0,0-1.22,2.76,3.34,3.34,0,0,0,3.33,3.49,3.59,3.59,0,0,0,3.09-1.89Z"/><path d="M544.62,347.29a4.08,4.08,0,0,0,2.62,1c1.08,0,2-.6,2-1.51,0-2.23-5-1-5-4a2.73,2.73,0,0,1,2.94-2.52,5,5,0,0,1,2.79.83l-.57.9a3.52,3.52,0,0,0-2.16-.71c-.91,0-1.92.48-1.92,1.49,0,1.91,5,.89,5,3.93a2.73,2.73,0,0,1-3,2.6,4.93,4.93,0,0,1-3.36-1.23Z"/><path d="M552.69,347.29a4.08,4.08,0,0,0,2.62,1c1.09,0,2-.6,2-1.51,0-2.23-5-1-5-4a2.74,2.74,0,0,1,3-2.52,5.1,5.1,0,0,1,2.79.83l-.57.9a3.53,3.53,0,0,0-2.17-.71c-.91,0-1.92.48-1.92,1.49,0,1.91,5,.89,5,3.93a2.73,2.73,0,0,1-3,2.6,4.93,4.93,0,0,1-3.36-1.23Z"/><path d="M560.67,338.25a3.68,3.68,0,0,1,3.71-2.57,3.57,3.57,0,0,1,3.79,3.42,3.82,3.82,0,0,1-1.86,3.16c-.95.7-2,1.12-2,1.72a1.74,1.74,0,0,0,.64,1l-.79.76a2.32,2.32,0,0,1-.93-1.77c0-1.29,1.4-1.76,2.48-2.58a2.87,2.87,0,0,0,1.35-2.3,2.5,2.5,0,0,0-2.71-2.39,2.6,2.6,0,0,0-2.68,1.84Zm3.61,9.14a1,1,0,1,1-1,1A1,1,0,0,1,564.28,347.39Z"/><path d="M379.67,1H674.24a0,0,0,0,1,0,0V82.31a28.34,28.34,0,0,1-28.34,28.34H379.67a0,0,0,0,1,0,0V1A0,0,0,0,1,379.67,1Z" style="fill:#fff;stroke:#291d54;stroke-miterlimit:10;stroke-width:2px"/><path d="M465,29.87h-8.55v6.8h-1.14V23.37h1.14v5.42H465V23.37h1.14v13.3H465Z"/><path d="M475.92,35.49A3.75,3.75,0,0,1,473,36.86a3.63,3.63,0,0,1-3.25-1.78,4.77,4.77,0,0,1-.52-2.46V28h1.09v4.44a3.79,3.79,0,0,0,.49,2.25A2.59,2.59,0,0,0,473,35.83a3.35,3.35,0,0,0,2.88-1.8V28H477v8.66h-1.05Z"/><path d="M481.24,29.19a3.72,3.72,0,0,1,2.93-1.37,3.62,3.62,0,0,1,3.25,1.84,4,4,0,0,1,3.4-1.84,3.69,3.69,0,0,1,3.25,1.82,4.84,4.84,0,0,1,.51,2.45v4.58H493.5V32.23A3.7,3.7,0,0,0,493,30a2.57,2.57,0,0,0-2.18-1.14,3.48,3.48,0,0,0-3,2,7.19,7.19,0,0,1,.1,1.23v4.58h-1.08V32.23a3.7,3.7,0,0,0-.5-2.25,2.57,2.57,0,0,0-2.18-1.14,3.36,3.36,0,0,0-2.89,1.81v6H480.2V28h1Z"/><path d="M504.4,36.67V35.4a3.8,3.8,0,0,1-3.11,1.46,4.4,4.4,0,0,1-4.43-4.52,4.61,4.61,0,0,1,1.62-3.55,4.38,4.38,0,0,1,2.75-1,4.23,4.23,0,0,1,3.17,1.38V28h1.05v8.66Zm0-6.08a3.82,3.82,0,0,0-3.11-1.75,3.38,3.38,0,0,0-2.09.74,3.56,3.56,0,0,0-1.22,2.76,3.34,3.34,0,0,0,3.33,3.49,3.59,3.59,0,0,0,3.09-1.89Z"/><path d="M509.72,29.22a3.78,3.78,0,0,1,3.06-1.4,3.73,3.73,0,0,1,3.08,1.46,4.18,4.18,0,0,1,.74,2.77v4.62h-1.08V32.13A3.4,3.4,0,0,0,515,30a2.69,2.69,0,0,0-2.26-1.16,3.45,3.45,0,0,0-3,1.81v6h-1.08V28h1Z"/><path d="M535.43,36.67h-1.5L532.16,35a5.38,5.38,0,0,1-4.25,1.88c-2.59,0-4.75-1.69-4.75-4a4.72,4.72,0,0,1,2.6-4,4.4,4.4,0,0,1-1.58-3,2.78,2.78,0,0,1,5.55,0c0,1.44-1.12,2.43-2.28,3.15l4.5,4.32a5.58,5.58,0,0,0,.5-2.25,10.08,10.08,0,0,0-.29-2.24l1.06-.24a10.38,10.38,0,0,1,.31,2.48,6.3,6.3,0,0,1-.78,3Zm-7.52-.84a4.18,4.18,0,0,0,3.47-1.57l-4.82-4.64c-1.47.93-2.32,1.9-2.32,3.23C524.24,34.45,525.76,35.83,527.91,35.83ZM527,24.21a1.64,1.64,0,0,0-1.7,1.67,3.39,3.39,0,0,0,1.22,2.22l.21.21c1-.64,2-1.38,2-2.43A1.63,1.63,0,0,0,527,24.21Z"/><path d="M545.63,23.37l5.74,13.3h-1.14l-1.75-4H542l-1.74,4h-1.14l5.73-13.3Zm-3.15,8.21H548l-2.76-6.42Z"/><path d="M559.48,35.49a3.73,3.73,0,0,1-2.92,1.37,3.64,3.64,0,0,1-3.25-1.78,4.88,4.88,0,0,1-.51-2.46V28h1.08v4.44a3.79,3.79,0,0,0,.49,2.25,2.59,2.59,0,0,0,2.19,1.13,3.35,3.35,0,0,0,2.89-1.8V28h1.08v8.66h-1Z"/><path d="M568.7,29h-3v4.75a2.19,2.19,0,0,0,.38,1.45,1.79,1.79,0,0,0,1.45.6,3.25,3.25,0,0,0,.93-.11l.19,1a4.46,4.46,0,0,1-1.12.15,2.92,2.92,0,0,1-2.32-1,3.18,3.18,0,0,1-.59-2.12V29h-2.43V28h2.43V25.65h1.08V28h3Z"/><path d="M574.78,36.86a4.52,4.52,0,1,1,4.46-4.52A4.43,4.43,0,0,1,574.78,36.86Zm0-8a3.5,3.5,0,1,0,3.38,3.5A3.38,3.38,0,0,0,574.78,28.84Z"/><path d="M582.76,29.19a3.72,3.72,0,0,1,2.92-1.37,3.61,3.61,0,0,1,3.25,1.84,4,4,0,0,1,3.4-1.84,3.66,3.66,0,0,1,3.25,1.82,4.84,4.84,0,0,1,.51,2.45v4.58H595V32.23a3.79,3.79,0,0,0-.49-2.25,2.6,2.6,0,0,0-2.19-1.14,3.46,3.46,0,0,0-3,2,7.19,7.19,0,0,1,.1,1.23v4.58h-1.09V32.23a3.79,3.79,0,0,0-.49-2.25,2.6,2.6,0,0,0-2.19-1.14,3.36,3.36,0,0,0-2.88,1.81v6h-1.09V28h1Z"/><path d="M605.92,36.67V35.4a3.84,3.84,0,0,1-3.12,1.46,4.4,4.4,0,0,1-4.42-4.52A4.6,4.6,0,0,1,600,28.79a4.4,4.4,0,0,1,2.76-1,4.23,4.23,0,0,1,3.17,1.38V28h1v8.66Zm0-6.08a3.82,3.82,0,0,0-3.11-1.75,3.34,3.34,0,0,0-2.09.74,3.56,3.56,0,0,0-1.22,2.76,3.34,3.34,0,0,0,3.32,3.49,3.6,3.6,0,0,0,3.1-1.89Z"/><path d="M615.13,29h-2.94v4.75a2.14,2.14,0,0,0,.38,1.45,1.77,1.77,0,0,0,1.44.6,3.21,3.21,0,0,0,.93-.11l.19,1a4.33,4.33,0,0,1-1.12.15,2.9,2.9,0,0,1-2.31-1,3.18,3.18,0,0,1-.59-2.12V29h-2.44V28h2.44V25.65h1.08V28h2.94Z"/><path d="M624.63,35.27a4.5,4.5,0,0,1-3.53,1.59,4.3,4.3,0,0,1-4.35-4.52,4.24,4.24,0,0,1,4.14-4.52,4,4,0,0,1,4,4.23,3.07,3.07,0,0,1,0,.38h-7.07a3.29,3.29,0,0,0,3.27,3.4,3.44,3.44,0,0,0,2.77-1.29Zm-6.74-3.82h5.91a2.94,2.94,0,0,0-2.91-2.61A3.09,3.09,0,0,0,617.89,31.45Z"/><path d="M628.57,36a4.43,4.43,0,0,1-1.85-3.7,4.61,4.61,0,0,1,1.62-3.55,4.4,4.4,0,0,1,2.75-1,4.24,4.24,0,0,1,3.14,1.35v-6h1.08V36.67h-1V35.4a3.84,3.84,0,0,1-3.12,1.46A4.36,4.36,0,0,1,628.57,36Zm5.66-5.45a3.83,3.83,0,0,0-3.12-1.75,3.38,3.38,0,0,0-2.09.74,3.55,3.55,0,0,0-1.21,2.76,3.34,3.34,0,0,0,3.32,3.49,3.62,3.62,0,0,0,3.1-1.89Z"/><path d="M478.77,46a6.6,6.6,0,0,1,6.61,6.84,7.08,7.08,0,0,1-1.57,4.52l1.95,2.13h-1.44l-1.25-1.39a6.5,6.5,0,0,1-4.3,1.58,6.84,6.84,0,0,1,0-13.68Zm.93,6.84,3.35,3.67a6,6,0,0,0,1.19-3.67,5.48,5.48,0,1,0-5.47,5.76,5.32,5.32,0,0,0,3.55-1.31l-3.4-3.76Z"/><path d="M492.55,46.17l5.73,13.3h-1.14l-1.74-4h-6.46l-1.75,4h-1.14l5.74-13.3Zm-3.16,8.21h5.53L492.17,48Z"/><path d="M509.49,51.83h-2.94v4.75a2.14,2.14,0,0,0,.38,1.45,1.77,1.77,0,0,0,1.44.61,3.25,3.25,0,0,0,.93-.12l.19,1a4.33,4.33,0,0,1-1.12.15,2.91,2.91,0,0,1-2.31-1,3.18,3.18,0,0,1-.59-2.12V51.83H503v-1h2.43V48.45h1.08v2.36h2.94Z"/><path d="M519,58.07a4.5,4.5,0,0,1-3.53,1.59,4.3,4.3,0,0,1-4.35-4.52,4.24,4.24,0,0,1,4.14-4.52,4,4,0,0,1,4,4.23,3.07,3.07,0,0,1,0,.38h-7.07a3.3,3.3,0,0,0,3.27,3.41,3.44,3.44,0,0,0,2.77-1.3Zm-6.74-3.82h5.91a2.94,2.94,0,0,0-2.91-2.61A3.09,3.09,0,0,0,512.25,54.25Z"/><path d="M521.56,57.59a4.09,4.09,0,0,0,2.62,1c1.08,0,2-.61,2-1.52,0-2.23-5-1-5-4a2.73,2.73,0,0,1,2.94-2.52,5.11,5.11,0,0,1,2.8.83l-.57.9a3.55,3.55,0,0,0-2.17-.71c-.91,0-1.92.48-1.92,1.49,0,1.91,5,.89,5,3.93a2.73,2.73,0,0,1-3,2.6,4.89,4.89,0,0,1-3.36-1.23Z"/><path d="M534.76,51.83h-2.94v4.75A2.14,2.14,0,0,0,532.2,58a1.77,1.77,0,0,0,1.44.61,3.25,3.25,0,0,0,.93-.12l.19,1a4.33,4.33,0,0,1-1.12.15,2.9,2.9,0,0,1-2.31-1,3.18,3.18,0,0,1-.59-2.12V51.83h-2.43v-1h2.43V48.45h1.08v2.36h2.94Z"/><path d="M537.33,57.59a4.09,4.09,0,0,0,2.62,1c1.08,0,2-.61,2-1.52,0-2.23-5-1-5-4a2.73,2.73,0,0,1,2.94-2.52,5.11,5.11,0,0,1,2.8.83l-.57.9a3.55,3.55,0,0,0-2.17-.71c-.91,0-1.92.48-1.92,1.49,0,1.91,5,.89,5,3.93a2.73,2.73,0,0,1-3,2.6,4.93,4.93,0,0,1-3.37-1.23Z"/><path d="M550.53,57.59a4.13,4.13,0,0,0,2.63,1c1.08,0,2-.61,2-1.52,0-2.23-5-1-5-4a2.74,2.74,0,0,1,3-2.52,5,5,0,0,1,2.79.83l-.57.9a3.52,3.52,0,0,0-2.16-.71c-.92,0-1.92.48-1.92,1.49,0,1.91,5,.89,5,3.93a2.72,2.72,0,0,1-3,2.6,4.93,4.93,0,0,1-3.36-1.23Z"/><path d="M565.58,59.47V58.2a3.82,3.82,0,0,1-3.11,1.46A4.4,4.4,0,0,1,558,55.14a4.64,4.64,0,0,1,1.61-3.55,4.43,4.43,0,0,1,2.76-1A4.2,4.2,0,0,1,565.58,52v-1.2h1v8.66Zm0-6.08a3.82,3.82,0,0,0-3.11-1.75,3.33,3.33,0,0,0-2.09.75,3.53,3.53,0,0,0-1.22,2.75,3.36,3.36,0,0,0,3.33,3.5,3.6,3.6,0,0,0,3.09-1.9Z"/><path d="M570.9,52a3.72,3.72,0,0,1,2.93-1.37,3.62,3.62,0,0,1,3.25,1.84,4,4,0,0,1,3.4-1.84,3.66,3.66,0,0,1,3.24,1.82,4.72,4.72,0,0,1,.52,2.45v4.58h-1.09V55a3.79,3.79,0,0,0-.49-2.25,2.58,2.58,0,0,0-2.18-1.14,3.48,3.48,0,0,0-3,2,7.19,7.19,0,0,1,.1,1.23v4.58h-1.08V55a3.7,3.7,0,0,0-.5-2.25,2.57,2.57,0,0,0-2.18-1.14,3.36,3.36,0,0,0-2.89,1.81v6h-1.08V50.81h1Z"/><path d="M587.28,64V50.81h1V52a4.21,4.21,0,0,1,3.18-1.39,4.4,4.4,0,0,1,2.75,1,4.61,4.61,0,0,1,1.62,3.55,4.43,4.43,0,0,1-1.85,3.7,4.36,4.36,0,0,1-2.58.82,3.85,3.85,0,0,1-3.08-1.42V64Zm1.08-7.29a3.63,3.63,0,0,0,3.1,1.9,3.35,3.35,0,0,0,3.32-3.5,3.52,3.52,0,0,0-1.21-2.75,3.33,3.33,0,0,0-2.09-.75,3.83,3.83,0,0,0-3.12,1.75Z"/><path d="M598.34,46h1.08V59.47h-1.08Z"/><path d="M609.77,58.07a4.5,4.5,0,0,1-3.53,1.59,4.3,4.3,0,0,1-4.35-4.52A4.24,4.24,0,0,1,606,50.62a4,4,0,0,1,4,4.23,3.07,3.07,0,0,1,0,.38H603a3.3,3.3,0,0,0,3.27,3.41,3.44,3.44,0,0,0,2.77-1.3ZM603,54.25h5.91A2.94,2.94,0,0,0,606,51.64,3.09,3.09,0,0,0,603,54.25Z"/><path d="M612.34,57.59a4.09,4.09,0,0,0,2.62,1c1.08,0,2-.61,2-1.52,0-2.23-5-1-5-4a2.73,2.73,0,0,1,2.94-2.52,5.11,5.11,0,0,1,2.8.83l-.57.9a3.55,3.55,0,0,0-2.17-.71c-.91,0-1.92.48-1.92,1.49,0,1.91,5,.89,5,3.93a2.73,2.73,0,0,1-3,2.6,5,5,0,0,1-3.37-1.23Z"/><path d="M494.54,82.27V81a3.82,3.82,0,0,1-3.11,1.46A4.4,4.4,0,0,1,487,77.94a4.64,4.64,0,0,1,1.61-3.55,4.43,4.43,0,0,1,2.76-1,4.2,4.2,0,0,1,3.17,1.39v-1.2h1v8.66Zm0-6.08a3.82,3.82,0,0,0-3.11-1.75,3.38,3.38,0,0,0-2.09.74,3.56,3.56,0,0,0-1.22,2.76,3.34,3.34,0,0,0,3.33,3.49,3.59,3.59,0,0,0,3.09-1.89Z"/><path d="M506.17,85a4,4,0,0,1-3.76,2A4.59,4.59,0,0,1,498.48,85l.85-.63a3.52,3.52,0,0,0,3.1,1.67,2.89,2.89,0,0,0,2.79-1.48,4.83,4.83,0,0,0,.34-2.24V81a3.83,3.83,0,0,1-3.08,1.42,4.4,4.4,0,0,1-4.42-4.52,4.6,4.6,0,0,1,1.61-3.55,4.4,4.4,0,0,1,2.76-1,4.2,4.2,0,0,1,3.17,1.39v-1.2h1v8.62A5.91,5.91,0,0,1,506.17,85Zm-.61-8.84a3.82,3.82,0,0,0-3.11-1.75,3.34,3.34,0,0,0-2.09.74,3.56,3.56,0,0,0-1.22,2.76,3.34,3.34,0,0,0,3.32,3.49,3.6,3.6,0,0,0,3.1-1.89Z"/><path d="M516.66,82.27V81a3.84,3.84,0,0,1-3.12,1.46,4.36,4.36,0,0,1-2.58-.82,4.43,4.43,0,0,1-1.85-3.7,4.61,4.61,0,0,1,1.62-3.55,4.4,4.4,0,0,1,2.75-1,4.21,4.21,0,0,1,3.18,1.39v-1.2h1v8.66Zm0-6.08a3.83,3.83,0,0,0-3.12-1.75,3.38,3.38,0,0,0-2.09.74,3.55,3.55,0,0,0-1.21,2.76,3.34,3.34,0,0,0,3.32,3.49,3.61,3.61,0,0,0,3.1-1.89Z"/><path d="M521.46,69.64a1,1,0,0,1,1,1,1,1,0,0,1-1,1,.94.94,0,0,1-1-1A1,1,0,0,1,521.46,69.64Zm-.53,4H522v8.66h-1.09Z"/><path d="M526.29,74.82a4,4,0,0,1,6.14.06,4.18,4.18,0,0,1,.74,2.77v4.62h-1.09V77.73a3.48,3.48,0,0,0-.49-2.13,2.69,2.69,0,0,0-2.26-1.16,3.43,3.43,0,0,0-3,1.81v6h-1.08V73.61h1Z"/><path d="M536,80.39a4.08,4.08,0,0,0,2.62,1c1.08,0,2-.6,2-1.51,0-2.23-5-1-5-4a2.73,2.73,0,0,1,2.94-2.52,5.11,5.11,0,0,1,2.8.83l-.57.9a3.57,3.57,0,0,0-2.17-.71c-.91,0-1.92.48-1.92,1.49,0,1.91,5,.89,5,3.93a2.73,2.73,0,0,1-3,2.6,4.93,4.93,0,0,1-3.37-1.23Z"/><path d="M549.22,74.63h-2.94v4.75a2.14,2.14,0,0,0,.38,1.45,1.77,1.77,0,0,0,1.44.6,3.21,3.21,0,0,0,.93-.11l.19,1a4.39,4.39,0,0,1-1.12.15,2.92,2.92,0,0,1-2.32-1,3.18,3.18,0,0,1-.58-2.12V74.63h-2.44v-1h2.44V71.25h1.08v2.36h2.94Z"/><path d="M561.33,74.46a5.07,5.07,0,0,0-.52,0,3,3,0,0,0-2.71,1.92v5.91H557V73.61h1.09v1.14a3.29,3.29,0,0,1,2.73-1.33,6.48,6.48,0,0,1,.65,0Z"/><path d="M570.07,81.09a3.75,3.75,0,0,1-2.93,1.37,3.64,3.64,0,0,1-3.25-1.78,4.88,4.88,0,0,1-.51-2.46V73.61h1.08v4.44A3.79,3.79,0,0,0,565,80.3a2.59,2.59,0,0,0,2.19,1.13,3.35,3.35,0,0,0,2.89-1.8v-6h1.08v8.66h-1Z"/><path d="M575.39,81v1.27h-1V68.78h1.08v6a4.24,4.24,0,0,1,3.14-1.35,4.4,4.4,0,0,1,2.75,1,4.61,4.61,0,0,1,1.62,3.55,4.4,4.4,0,0,1-4.43,4.52A3.8,3.8,0,0,1,575.39,81Zm0-1.46a3.62,3.62,0,0,0,3.1,1.89,3.33,3.33,0,0,0,3.32-3.49,3.55,3.55,0,0,0-1.21-2.76,3.38,3.38,0,0,0-2.09-.74,3.83,3.83,0,0,0-3.12,1.75Z"/><path d="M589.71,74.46a4.79,4.79,0,0,0-.51,0,3,3,0,0,0-2.72,1.92v5.91H585.4V73.61h1.08v1.14a3.33,3.33,0,0,1,2.74-1.33,6.1,6.1,0,0,1,.64,0Z"/><path d="M592.58,69.64a1,1,0,0,1,1,1,1,1,0,0,1-1,1,.94.94,0,0,1-1-1A1,1,0,0,1,592.58,69.64Zm-.53,4h1.08v8.66h-1.08Z"/><path d="M603.77,81a4.57,4.57,0,0,1-3.42,1.5,4.51,4.51,0,0,1-4.65-4.52,4.46,4.46,0,0,1,4.48-4.52,4.55,4.55,0,0,1,3.31,1.35l-.69.78a3.69,3.69,0,0,0-2.62-1.11,3.5,3.5,0,0,0,.15,7A3.6,3.6,0,0,0,603,80.24Z"/><circle cx="414.34" cy="34.74" r="18.9" style="fill:#fff200"/><circle cx="410.14" cy="30.54" r="18.9" style="fill:#291d54"/><path d="M408.5,36.6a.09.09,0,0,0,.1.06h5.92a.33.33,0,0,1,.23.09.32.32,0,0,1,.09.23V39a.32.32,0,0,1-.09.23.34.34,0,0,1-.23.1h-9.43a.34.34,0,0,1-.23-.1.32.32,0,0,1-.09-.23V36.87a.58.58,0,0,1,.13-.4L406,35c.7-.94,1.39-1.89,2.06-2.87s1.25-1.84,1.72-2.62a8.87,8.87,0,0,0,1.56-4.29,2.7,2.7,0,0,0-.47-1.7,1.5,1.5,0,0,0-1.25-.62,1.47,1.47,0,0,0-1.25.61,2.49,2.49,0,0,0-.43,1.6v1.06a.31.31,0,0,1-.32.32H405a.32.32,0,0,1-.23-.09.33.33,0,0,1-.09-.23V25.05a5,5,0,0,1,1.47-3.49,4.85,4.85,0,0,1,3.52-1.32,4.49,4.49,0,0,1,3.44,1.39,5.1,5.1,0,0,1,1.31,3.66A8,8,0,0,1,414,28a13,13,0,0,1-1.45,2.84c-.45.72-1,1.51-1.61,2.37s-1,1.43-1.23,1.7c-.54.72-.94,1.26-1.19,1.62C408.49,36.53,408.48,36.57,408.5,36.6Z" style="fill:#fff"/><path d="M1,271H295.58a0,0,0,0,1,0,0v81.31a28.34,28.34,0,0,1-28.34,28.34H1a0,0,0,0,1,0,0V271A0,0,0,0,1,1,271Z" style="fill:#fff;stroke:#291d54;stroke-miterlimit:10;stroke-width:2px"/><path d="M78,294.46v4.33h4.75v1.08H78v6.8H76.9v-13.3h7.22v1.09Z"/><path d="M92.67,305.27a4.51,4.51,0,0,1-3.53,1.59,4.29,4.29,0,0,1-4.35-4.52,4.24,4.24,0,0,1,4.14-4.52,4,4,0,0,1,4,4.23c0,.08,0,.21,0,.38H85.87a3.28,3.28,0,0,0,3.27,3.4,3.44,3.44,0,0,0,2.77-1.29Zm-6.74-3.82h5.9a2.93,2.93,0,0,0-2.9-2.61A3.09,3.09,0,0,0,85.93,301.45Z"/><path d="M102.64,305.27a4.5,4.5,0,0,1-3.53,1.59,4.3,4.3,0,0,1-4.35-4.52,4.24,4.24,0,0,1,4.14-4.52,4,4,0,0,1,4,4.23,3.07,3.07,0,0,1,0,.38H95.84a3.29,3.29,0,0,0,3.27,3.4,3.44,3.44,0,0,0,2.77-1.29Zm-6.74-3.82h5.91a2.94,2.94,0,0,0-2.91-2.61A3.09,3.09,0,0,0,95.9,301.45Z"/><path d="M106.58,306a4.43,4.43,0,0,1-1.84-3.7,4.6,4.6,0,0,1,1.61-3.55,4.4,4.4,0,0,1,2.75-1,4.24,4.24,0,0,1,3.14,1.35v-6h1.08v13.49h-1V305.4a3.84,3.84,0,0,1-3.12,1.46A4.36,4.36,0,0,1,106.58,306Zm5.66-5.45a3.83,3.83,0,0,0-3.12-1.75,3.38,3.38,0,0,0-2.09.74,3.55,3.55,0,0,0-1.21,2.76,3.34,3.34,0,0,0,3.32,3.49,3.6,3.6,0,0,0,3.1-1.89Z"/><path d="M117.6,305.4v1.27h-1V293.18h1.09v6a4.2,4.2,0,0,1,3.13-1.35,4.43,4.43,0,0,1,2.76,1,4.64,4.64,0,0,1,1.61,3.55,4.4,4.4,0,0,1-4.43,4.52A3.8,3.8,0,0,1,117.6,305.4Zm0-1.46a3.59,3.59,0,0,0,3.09,1.89,3.34,3.34,0,0,0,3.33-3.49,3.56,3.56,0,0,0-1.22-2.76,3.38,3.38,0,0,0-2.09-.74,3.82,3.82,0,0,0-3.11,1.75Z"/><path d="M134.58,306.67V305.4a3.8,3.8,0,0,1-3.11,1.46,4.4,4.4,0,0,1-4.43-4.52,4.61,4.61,0,0,1,1.62-3.55,4.38,4.38,0,0,1,2.75-1,4.23,4.23,0,0,1,3.17,1.38V298h1v8.66Zm0-6.08a3.82,3.82,0,0,0-3.11-1.75,3.38,3.38,0,0,0-2.09.74,3.56,3.56,0,0,0-1.22,2.76,3.34,3.34,0,0,0,3.33,3.49,3.59,3.59,0,0,0,3.09-1.89Z"/><path d="M146.27,305.36a4.59,4.59,0,0,1-3.42,1.5,4.51,4.51,0,0,1-4.66-4.52,4.46,4.46,0,0,1,4.49-4.52,4.52,4.52,0,0,1,3.3,1.35l-.68.78a3.71,3.71,0,0,0-2.62-1.11,3.5,3.5,0,0,0,.15,7,3.6,3.6,0,0,0,2.66-1.19Z"/><path d="M154.46,306.67l-4.92-4.58v4.58h-1.09V293.18h1.09v8.44L154,298h1.62l-4.75,3.89,5.15,4.77Z"/><path d="M163,311.23V298h1v1.19a4.23,4.23,0,0,1,3.17-1.38,4.4,4.4,0,0,1,2.76,1,4.6,4.6,0,0,1,1.61,3.55,4.4,4.4,0,0,1-4.42,4.52,3.85,3.85,0,0,1-3.08-1.42v5.79Zm1.08-7.29a3.6,3.6,0,0,0,3.1,1.89,3.34,3.34,0,0,0,3.32-3.49,3.56,3.56,0,0,0-1.22-2.76,3.34,3.34,0,0,0-2.09-.74,3.82,3.82,0,0,0-3.11,1.75Z"/><path d="M178.38,298.86a5.07,5.07,0,0,0-.52,0,3,3,0,0,0-2.71,1.92v5.91h-1.09V298h1.09v1.14a3.31,3.31,0,0,1,2.73-1.33,6.48,6.48,0,0,1,.65,0Z"/><path d="M184.13,306.86a4.52,4.52,0,1,1,4.47-4.52A4.42,4.42,0,0,1,184.13,306.86Zm0-8a3.5,3.5,0,1,0,3.38,3.5A3.38,3.38,0,0,0,184.13,298.84Z"/><path d="M193.67,306.67l-4-8.66h1.18l3.19,6.91,3.2-6.91h1.17l-4,8.66Z"/><path d="M200.82,294a1,1,0,0,1,1,1,1,1,0,0,1-1,.95.94.94,0,0,1-.95-.95A1,1,0,0,1,200.82,294Zm-.54,4h1.09v8.66h-1.09Z"/><path d="M205.68,306a4.43,4.43,0,0,1-1.84-3.7,4.6,4.6,0,0,1,1.61-3.55,4.4,4.4,0,0,1,2.76-1,4.24,4.24,0,0,1,3.13,1.35v-6h1.08v13.49h-1V305.4a3.84,3.84,0,0,1-3.12,1.46A4.38,4.38,0,0,1,205.68,306Zm5.66-5.45a3.82,3.82,0,0,0-3.11-1.75,3.34,3.34,0,0,0-2.09.74,3.56,3.56,0,0,0-1.22,2.76,3.34,3.34,0,0,0,3.32,3.49,3.6,3.6,0,0,0,3.1-1.89Z"/><path d="M222.78,305.27a4.52,4.52,0,0,1-3.54,1.59,4.3,4.3,0,0,1-4.35-4.52,4.25,4.25,0,0,1,4.15-4.52,4,4,0,0,1,4,4.23,3.07,3.07,0,0,1,0,.38H216a3.27,3.27,0,0,0,3.26,3.4,3.47,3.47,0,0,0,2.78-1.29ZM216,301.45h5.91a2.93,2.93,0,0,0-2.9-2.61A3.11,3.11,0,0,0,216,301.45Z"/><path d="M226.71,306a4.43,4.43,0,0,1-1.84-3.7,4.64,4.64,0,0,1,1.61-3.55,4.43,4.43,0,0,1,2.76-1,4.2,4.2,0,0,1,3.13,1.35v-6h1.09v13.49h-1.05V305.4a3.82,3.82,0,0,1-3.11,1.46A4.41,4.41,0,0,1,226.71,306Zm5.66-5.45a3.82,3.82,0,0,0-3.11-1.75,3.38,3.38,0,0,0-2.09.74,3.56,3.56,0,0,0-1.22,2.76,3.34,3.34,0,0,0,3.33,3.49,3.59,3.59,0,0,0,3.09-1.89Z"/><path d="M246.76,299h-2.95v4.75a2.14,2.14,0,0,0,.38,1.45,1.78,1.78,0,0,0,1.44.6,3.32,3.32,0,0,0,.94-.11l.19,1a4.47,4.47,0,0,1-1.13.15,2.91,2.91,0,0,1-2.31-1,3.18,3.18,0,0,1-.59-2.12V299H240.3v-1h2.43v-2.36h1.08V298h2.95Z"/><path d="M252.84,306.86a4.52,4.52,0,1,1,4.46-4.52A4.42,4.42,0,0,1,252.84,306.86Zm0-8a3.5,3.5,0,1,0,3.38,3.5A3.39,3.39,0,0,0,252.84,298.84Z"/><path d="M74.35,329.47V328.2a3.8,3.8,0,0,1-3.11,1.46,4.4,4.4,0,0,1-4.43-4.52,4.61,4.61,0,0,1,1.62-3.55,4.4,4.4,0,0,1,2.75-1A4.2,4.2,0,0,1,74.35,322v-1.2H75.4v8.66Zm0-6.08a3.83,3.83,0,0,0-3.12-1.75,3.33,3.33,0,0,0-2.09.75,3.53,3.53,0,0,0-1.22,2.75,3.36,3.36,0,0,0,3.33,3.5,3.63,3.63,0,0,0,3.1-1.9Z"/><path d="M86,332.23a4,4,0,0,1-3.76,2,4.6,4.6,0,0,1-3.93-2.07l.85-.63a3.52,3.52,0,0,0,3.1,1.67A2.89,2.89,0,0,0,85,331.71a4.83,4.83,0,0,0,.34-2.24v-1.23a3.83,3.83,0,0,1-3.07,1.42,4.4,4.4,0,0,1-4.43-4.52,4.64,4.64,0,0,1,1.61-3.55,4.43,4.43,0,0,1,2.76-1A4.2,4.2,0,0,1,85.41,322v-1.2h1v8.62A5.9,5.9,0,0,1,86,332.23Zm-.61-8.84a3.82,3.82,0,0,0-3.11-1.75,3.33,3.33,0,0,0-2.09.75A3.53,3.53,0,0,0,79,325.14a3.36,3.36,0,0,0,3.33,3.5,3.6,3.6,0,0,0,3.09-1.9Z"/><path d="M96.81,328.07a4.51,4.51,0,0,1-3.53,1.59,4.3,4.3,0,0,1-4.35-4.52,4.24,4.24,0,0,1,4.14-4.52,4,4,0,0,1,4,4.23,3.07,3.07,0,0,1,0,.38H90a3.29,3.29,0,0,0,3.27,3.41,3.44,3.44,0,0,0,2.77-1.3Zm-6.74-3.82H96a2.93,2.93,0,0,0-2.9-2.61A3.09,3.09,0,0,0,90.07,324.25Z"/><path d="M100.61,322a4,4,0,0,1,6.14.06,4.18,4.18,0,0,1,.74,2.77v4.62h-1.08v-4.54a3.4,3.4,0,0,0-.5-2.13,2.69,2.69,0,0,0-2.26-1.16,3.43,3.43,0,0,0-3,1.81v6H99.57v-8.66h1Z"/><path d="M115.37,321.83h-2.94v4.75a2.14,2.14,0,0,0,.38,1.45,1.77,1.77,0,0,0,1.44.61,3.25,3.25,0,0,0,.93-.12l.19,1a4.39,4.39,0,0,1-1.12.15,2.9,2.9,0,0,1-2.31-1,3.18,3.18,0,0,1-.59-2.12v-4.72h-2.43v-1h2.43v-2.36h1.08v2.36h2.94Z"/><path d="M118.8,329.47l6.21-13.3h1.1l-6.21,13.3Z"/><path d="M134.41,321.66a4.79,4.79,0,0,0-.51,0,3,3,0,0,0-2.72,1.92v5.91H130.1v-8.66h1.08V322a3.33,3.33,0,0,1,2.74-1.33,6.1,6.1,0,0,1,.64,0Z"/><path d="M143.59,328.07a4.52,4.52,0,0,1-3.54,1.59,4.3,4.3,0,0,1-4.35-4.52,4.25,4.25,0,0,1,4.15-4.52,4,4,0,0,1,4,4.23,3.07,3.07,0,0,1,0,.38h-7.06a3.28,3.28,0,0,0,3.26,3.41,3.46,3.46,0,0,0,2.78-1.3Zm-6.75-3.82h5.91a2.93,2.93,0,0,0-2.9-2.61A3.11,3.11,0,0,0,136.84,324.25Z"/><path d="M151.28,321.83h-2.94v4.75a2.14,2.14,0,0,0,.38,1.45,1.77,1.77,0,0,0,1.44.61,3.25,3.25,0,0,0,.93-.12l.19,1a4.33,4.33,0,0,1-1.12.15,2.89,2.89,0,0,1-2.31-1,3.18,3.18,0,0,1-.59-2.12v-4.72h-2.44v-1h2.44v-2.36h1.08v2.36h2.94Z"/><path d="M158.26,321.66a5.07,5.07,0,0,0-.52,0,3,3,0,0,0-2.71,1.92v5.91h-1.09v-8.66H155V322a3.31,3.31,0,0,1,2.73-1.33,6.3,6.3,0,0,1,.65,0Z"/><path d="M167.09,329.47V328.2a3.82,3.82,0,0,1-3.11,1.46,4.4,4.4,0,0,1-4.43-4.52,4.64,4.64,0,0,1,1.61-3.55,4.43,4.43,0,0,1,2.76-1,4.2,4.2,0,0,1,3.17,1.39v-1.2h1v8.66Zm0-6.08a3.82,3.82,0,0,0-3.11-1.75,3.33,3.33,0,0,0-2.09.75,3.53,3.53,0,0,0-1.22,2.75,3.36,3.36,0,0,0,3.33,3.5,3.6,3.6,0,0,0,3.09-1.9Z"/><path d="M171.9,316.84a1,1,0,0,1,1,1,1,1,0,0,1-1,.95.94.94,0,0,1-1-.95A1,1,0,0,1,171.9,316.84Zm-.53,4h1.08v8.66h-1.08Z"/><path d="M176.72,322a3.78,3.78,0,0,1,3.06-1.4,3.73,3.73,0,0,1,3.08,1.46,4.12,4.12,0,0,1,.74,2.77v4.62h-1.08v-4.54a3.48,3.48,0,0,0-.49-2.13,2.72,2.72,0,0,0-2.27-1.16,3.45,3.45,0,0,0-3,1.81v6h-1.08v-8.66h1Z"/><path d="M187.17,316.84a1,1,0,0,1,1,1,1,1,0,0,1-1,.95.94.94,0,0,1-.95-.95A1,1,0,0,1,187.17,316.84Zm-.53,4h1.09v8.66h-1.09Z"/><path d="M192,322a4,4,0,0,1,6.14.06,4.18,4.18,0,0,1,.74,2.77v4.62h-1.09v-4.54a3.48,3.48,0,0,0-.49-2.13,2.69,2.69,0,0,0-2.26-1.16,3.43,3.43,0,0,0-3,1.81v6H191v-8.66h1Z"/><path d="M209.27,332.23a4,4,0,0,1-3.76,2,4.6,4.6,0,0,1-3.93-2.07l.85-.63a3.52,3.52,0,0,0,3.1,1.67,2.89,2.89,0,0,0,2.79-1.48,4.83,4.83,0,0,0,.34-2.24v-1.23a3.83,3.83,0,0,1-3.07,1.42,4.4,4.4,0,0,1-4.43-4.52,4.64,4.64,0,0,1,1.61-3.55,4.43,4.43,0,0,1,2.76-1A4.2,4.2,0,0,1,208.7,322v-1.2h1.05v8.62A5.9,5.9,0,0,1,209.27,332.23Zm-.61-8.84a3.82,3.82,0,0,0-3.11-1.75,3.33,3.33,0,0,0-2.09.75,3.53,3.53,0,0,0-1.22,2.75,3.36,3.36,0,0,0,3.33,3.5,3.6,3.6,0,0,0,3.09-1.9Z"/><path d="M213.74,329.47l6.21-13.3h1.1l-6.21,13.3Z"/><path d="M232.17,328.07a4.54,4.54,0,0,1-3.54,1.59,4.3,4.3,0,0,1-4.35-4.52,4.24,4.24,0,0,1,4.14-4.52,4,4,0,0,1,4,4.23,3.07,3.07,0,0,1,0,.38h-7.07a3.3,3.3,0,0,0,3.27,3.41,3.48,3.48,0,0,0,2.78-1.3Zm-6.75-3.82h5.91a2.94,2.94,0,0,0-2.91-2.61A3.09,3.09,0,0,0,225.42,324.25Z"/><path d="M237.5,325.54l-2.83,3.93H233.4l3.34-4.65-2.86-4h1.27l2.35,3.29,2.36-3.29h1.27l-2.87,4,3.35,4.65h-1.27Z"/><path d="M248.92,321.83H246v4.75a2.14,2.14,0,0,0,.38,1.45,1.77,1.77,0,0,0,1.44.61,3.25,3.25,0,0,0,.93-.12l.19,1a4.39,4.39,0,0,1-1.12.15,2.89,2.89,0,0,1-2.31-1,3.12,3.12,0,0,1-.59-2.12v-4.72h-2.44v-1h2.44v-2.36H246v2.36h2.94Z"/><path d="M255.9,321.66a5.07,5.07,0,0,0-.52,0,3,3,0,0,0-2.71,1.92v5.91h-1.09v-8.66h1.09V322a3.31,3.31,0,0,1,2.73-1.33,6.48,6.48,0,0,1,.65,0Z"/><path d="M264.73,329.47V328.2a3.82,3.82,0,0,1-3.11,1.46,4.4,4.4,0,0,1-4.43-4.52,4.64,4.64,0,0,1,1.61-3.55,4.43,4.43,0,0,1,2.76-1,4.2,4.2,0,0,1,3.17,1.39v-1.2h1v8.66Zm0-6.08a3.82,3.82,0,0,0-3.11-1.75,3.33,3.33,0,0,0-2.09.75,3.53,3.53,0,0,0-1.22,2.75,3.36,3.36,0,0,0,3.33,3.5,3.6,3.6,0,0,0,3.09-1.9Z"/><path d="M84.09,351a4.57,4.57,0,0,1-3.42,1.5A4.51,4.51,0,0,1,76,347.94a4.46,4.46,0,0,1,4.48-4.52,4.55,4.55,0,0,1,3.31,1.35l-.69.78a3.69,3.69,0,0,0-2.62-1.11,3.5,3.5,0,0,0,.15,7,3.6,3.6,0,0,0,2.66-1.19Z"/><path d="M90,352.46a4.52,4.52,0,1,1,4.47-4.52A4.42,4.42,0,0,1,90,352.46Zm0-8a3.5,3.5,0,1,0,3.38,3.5A3.38,3.38,0,0,0,90,344.44Z"/><path d="M103.89,352.27V351a3.84,3.84,0,0,1-3.12,1.46,4.4,4.4,0,0,1-4.42-4.52A4.6,4.6,0,0,1,98,344.39a4.4,4.4,0,0,1,2.76-1,4.2,4.2,0,0,1,3.17,1.39v-1.2h1v8.66Zm0-6.08a3.82,3.82,0,0,0-3.11-1.75,3.34,3.34,0,0,0-2.09.74,3.56,3.56,0,0,0-1.22,2.76,3.34,3.34,0,0,0,3.32,3.49,3.6,3.6,0,0,0,3.1-1.89Z"/><path d="M115.57,351a4.57,4.57,0,0,1-3.42,1.5,4.51,4.51,0,0,1-4.65-4.52,4.46,4.46,0,0,1,4.48-4.52,4.53,4.53,0,0,1,3.31,1.35l-.69.78a3.69,3.69,0,0,0-2.62-1.11,3.5,3.5,0,0,0,.15,7,3.6,3.6,0,0,0,2.66-1.19Z"/><path d="M118.84,344.77a4,4,0,0,1,6.1.11,4.18,4.18,0,0,1,.74,2.77v4.62H124.6v-4.54a3.4,3.4,0,0,0-.5-2.13,2.69,2.69,0,0,0-2.26-1.16,3.45,3.45,0,0,0-3,1.81v6h-1.08V338.78h1.08Z"/><path d="M129.25,339.64a1,1,0,0,1,1,1,1,1,0,0,1-1,.95.94.94,0,0,1-.95-.95A1,1,0,0,1,129.25,339.64Zm-.53,4h1.08v8.66h-1.08Z"/><path d="M134.08,344.82a4,4,0,0,1,6.14.06,4.18,4.18,0,0,1,.74,2.77v4.62h-1.09v-4.54a3.48,3.48,0,0,0-.49-2.13,2.69,2.69,0,0,0-2.26-1.16,3.43,3.43,0,0,0-3,1.81v6H133v-8.66h1.05Z"/><path d="M151.35,355a4,4,0,0,1-3.76,2,4.6,4.6,0,0,1-3.93-2.07l.85-.63a3.52,3.52,0,0,0,3.1,1.67,2.89,2.89,0,0,0,2.79-1.48,4.83,4.83,0,0,0,.34-2.24V351a3.83,3.83,0,0,1-3.08,1.42,4.4,4.4,0,0,1-4.42-4.52,4.6,4.6,0,0,1,1.61-3.55,4.4,4.4,0,0,1,2.76-1,4.2,4.2,0,0,1,3.17,1.39v-1.2h1v8.62A5.91,5.91,0,0,1,151.35,355Zm-.61-8.84a3.82,3.82,0,0,0-3.11-1.75,3.34,3.34,0,0,0-2.09.74,3.56,3.56,0,0,0-1.22,2.76,3.34,3.34,0,0,0,3.33,3.49,3.59,3.59,0,0,0,3.09-1.89Z"/><path d="M160.72,339.64a1,1,0,0,1,1,1,1,1,0,0,1-1,.95.94.94,0,0,1-.95-.95A1,1,0,0,1,160.72,339.64Zm-.53,4h1.08v8.66h-1.08Z"/><path d="M169.13,339.69a2.67,2.67,0,0,0-.64-.07,1.94,1.94,0,0,0-1.69.82,2.82,2.82,0,0,0-.4,1.8v1.37h2.94v1H166.4v7.64h-1.08v-7.64h-2.25v-1h2.25V342.3a3.86,3.86,0,0,1,.72-2.64,3.13,3.13,0,0,1,2.47-1.07,3.77,3.77,0,0,1,.83.1Z"/><path d="M177.32,344.82a3.78,3.78,0,0,1,3.06-1.4,3.73,3.73,0,0,1,3.08,1.46,4.18,4.18,0,0,1,.74,2.77v4.62h-1.08v-4.54a3.4,3.4,0,0,0-.5-2.13,2.69,2.69,0,0,0-2.26-1.16,3.45,3.45,0,0,0-3,1.81v6h-1.08v-8.66h1Z"/><path d="M194.36,350.87a4.5,4.5,0,0,1-3.53,1.59,4.3,4.3,0,0,1-4.35-4.52,4.24,4.24,0,0,1,4.14-4.52,4,4,0,0,1,4,4.23,3.07,3.07,0,0,1,0,.38h-7.07a3.29,3.29,0,0,0,3.27,3.4,3.47,3.47,0,0,0,2.78-1.29Zm-6.74-3.82h5.91a2.94,2.94,0,0,0-2.91-2.61A3.09,3.09,0,0,0,187.62,347.05Z"/><path d="M204.62,351a4.57,4.57,0,0,1-3.42,1.5,4.51,4.51,0,0,1-4.65-4.52,4.46,4.46,0,0,1,4.48-4.52,4.53,4.53,0,0,1,3.31,1.35l-.68.78a3.71,3.71,0,0,0-2.63-1.11,3.5,3.5,0,0,0,.16,7,3.63,3.63,0,0,0,2.66-1.19Z"/><path d="M213.93,350.87a4.5,4.5,0,0,1-3.53,1.59,4.3,4.3,0,0,1-4.35-4.52,4.24,4.24,0,0,1,4.14-4.52,4,4,0,0,1,4,4.23,3.07,3.07,0,0,1,0,.38h-7.07a3.29,3.29,0,0,0,3.27,3.4,3.44,3.44,0,0,0,2.77-1.29Zm-6.74-3.82h5.91a2.94,2.94,0,0,0-2.91-2.61A3.09,3.09,0,0,0,207.19,347.05Z"/><path d="M216.5,350.39a4.08,4.08,0,0,0,2.62,1c1.08,0,2-.6,2-1.51,0-2.23-5-1-5-4a2.73,2.73,0,0,1,2.94-2.52,5.11,5.11,0,0,1,2.8.83l-.57.9a3.55,3.55,0,0,0-2.17-.71c-.91,0-1.92.48-1.92,1.49,0,1.91,5,.89,5,3.93a2.73,2.73,0,0,1-3,2.6,4.89,4.89,0,0,1-3.36-1.23Z"/><path d="M224.57,350.39a4.12,4.12,0,0,0,2.63,1c1.08,0,2-.6,2-1.51,0-2.23-5-1-5-4a2.73,2.73,0,0,1,2.94-2.52,5,5,0,0,1,2.79.83l-.57.9a3.52,3.52,0,0,0-2.16-.71c-.92,0-1.92.48-1.92,1.49,0,1.91,5,.89,5,3.93a2.72,2.72,0,0,1-3,2.6,4.93,4.93,0,0,1-3.36-1.23Z"/><path d="M239.62,352.27V351a3.82,3.82,0,0,1-3.11,1.46,4.4,4.4,0,0,1-4.43-4.52,4.64,4.64,0,0,1,1.61-3.55,4.43,4.43,0,0,1,2.76-1,4.2,4.2,0,0,1,3.17,1.39v-1.2h1v8.66Zm0-6.08a3.82,3.82,0,0,0-3.11-1.75,3.38,3.38,0,0,0-2.09.74,3.56,3.56,0,0,0-1.22,2.76,3.34,3.34,0,0,0,3.33,3.49,3.59,3.59,0,0,0,3.09-1.89Z"/><path d="M248.21,344.46a4.89,4.89,0,0,0-.51,0,3,3,0,0,0-2.72,1.92v5.91H243.9v-8.66H245v1.14a3.33,3.33,0,0,1,2.74-1.33,6.1,6.1,0,0,1,.64,0Z"/><path d="M251.23,356.83l2.38-5.26-3.92-8h1.22l3.25,6.72,3.06-6.72h1.15l-6,13.22Z"/><circle cx="35.68" cy="304.74" r="18.9" style="fill:#fff200"/><circle cx="31.48" cy="300.54" r="18.9" style="fill:#291d54"/><path d="M36,301.7a.32.32,0,0,1,.09.23v2.19a.33.33,0,0,1-.09.23.32.32,0,0,1-.23.09H35a.13.13,0,0,0-.14.14V309a.32.32,0,0,1-.09.23.33.33,0,0,1-.23.1H32.05a.33.33,0,0,1-.23-.1.29.29,0,0,1-.1-.23v-4.45c0-.09,0-.14-.13-.14H25a.32.32,0,0,1-.23-.09.3.3,0,0,1-.1-.23v-1.76a1.16,1.16,0,0,1,.06-.4l3.75-11.23a.34.34,0,0,1,.35-.27h2.7a.3.3,0,0,1,.24.09.27.27,0,0,1,0,.28l-3.46,10.61c0,.11,0,.17.11.17h3.19c.09,0,.13-.05.13-.14v-3.24a.3.3,0,0,1,.1-.23.32.32,0,0,1,.23-.09h2.48a.32.32,0,0,1,.23.09.33.33,0,0,1,.09.23v3.24a.13.13,0,0,0,.14.14h.81A.32.32,0,0,1,36,301.7Z" style="fill:#fff"/><path d="M189.87,487.18H484.45a0,0,0,0,1,0,0v81.31a28.34,28.34,0,0,1-28.34,28.34H189.87a0,0,0,0,1,0,0V487.18A0,0,0,0,1,189.87,487.18Z" style="fill:#fff;stroke:#291d54;stroke-miterlimit:10;stroke-width:2px"/><path d="M274.09,528.31a4,4,0,0,1,2.34,3.61,3.93,3.93,0,0,1-1.31,2.93,4.31,4.31,0,0,1-3,1h-4.79v-13.3h4.35a3.54,3.54,0,0,1,2.6.9,3.21,3.21,0,0,1,1,2.35A3.26,3.26,0,0,1,274.09,528.31ZM271.6,528a2.55,2.55,0,0,0,2-.7,2.12,2.12,0,0,0,.57-1.47,2.1,2.1,0,0,0-.57-1.46,2.51,2.51,0,0,0-2-.7h-3.15V528Zm-3.15,1.08v5.72H272a3.18,3.18,0,0,0,2.38-.8,2.85,2.85,0,0,0,0-4.1,3.18,3.18,0,0,0-2.38-.82Z"/><path d="M285.49,535.85v-1.27a3.8,3.8,0,0,1-3.11,1.46,4.38,4.38,0,0,1-4.43-4.52,4.61,4.61,0,0,1,1.62-3.55,4.4,4.4,0,0,1,2.75-1,4.2,4.2,0,0,1,3.17,1.39v-1.2h1.05v8.66Zm0-6.08a3.82,3.82,0,0,0-3.11-1.75,3.33,3.33,0,0,0-2.09.75,3.53,3.53,0,0,0-1.22,2.75,3.36,3.36,0,0,0,3.33,3.5,3.6,3.6,0,0,0,3.09-1.9Z"/><path d="M294.71,528.22h-2.95V533a2.14,2.14,0,0,0,.38,1.45,1.79,1.79,0,0,0,1.45.61,3.34,3.34,0,0,0,.93-.12l.19,1a4.46,4.46,0,0,1-1.12.15,2.92,2.92,0,0,1-2.32-1,3.18,3.18,0,0,1-.59-2.12v-4.71h-2.43v-1h2.43v-2.36h1.08v2.36h2.95Z"/><path d="M304.49,534.54a4.57,4.57,0,0,1-3.42,1.5,4.51,4.51,0,0,1-4.65-4.52A4.46,4.46,0,0,1,300.9,527a4.53,4.53,0,0,1,3.31,1.35l-.69.78A3.69,3.69,0,0,0,300.9,528a3.5,3.5,0,0,0,.15,7,3.61,3.61,0,0,0,2.66-1.2Z"/><path d="M307.76,528.35a4,4,0,0,1,6.1.11,4.19,4.19,0,0,1,.74,2.78v4.61h-1.08v-4.54a3.4,3.4,0,0,0-.5-2.13,2.69,2.69,0,0,0-2.26-1.16,3.45,3.45,0,0,0-3,1.81v6h-1.08V522.36h1.08Z"/><path d="M323.3,523.22a1,1,0,0,1,1,1,1,1,0,0,1-1,.95.94.94,0,0,1-.95-.95A1,1,0,0,1,323.3,523.22Zm-.53,4h1.08v8.66h-1.08Z"/><path d="M326.89,534a4.11,4.11,0,0,0,2.63,1c1.08,0,2-.61,2-1.52,0-2.23-5-1-5-4a2.74,2.74,0,0,1,2.95-2.53,5,5,0,0,1,2.79.84l-.57.89a3.52,3.52,0,0,0-2.16-.71c-.92,0-1.92.48-1.92,1.49,0,1.92,5,.89,5,3.93a2.72,2.72,0,0,1-3,2.6,4.93,4.93,0,0,1-3.36-1.23Z"/><path d="M346,522.36a6.6,6.6,0,0,1,6.61,6.84,7,7,0,0,1-1.58,4.52l2,2.13H351.5l-1.26-1.38A6.51,6.51,0,0,1,346,536a6.84,6.84,0,0,1,0-13.68Zm.93,6.84,3.34,3.67a6,6,0,0,0,1.2-3.67A5.48,5.48,0,1,0,346,535a5.27,5.27,0,0,0,3.55-1.31l-3.4-3.76Z"/><path d="M359.72,522.55l5.74,13.3h-1.14l-1.75-4h-6.46l-1.74,4h-1.14l5.73-13.3Zm-3.15,8.21h5.53l-2.76-6.42Z"/><path d="M371.64,530.65v.93H366.7v-.93Z"/><path d="M381.56,535.85v-1.27a3.84,3.84,0,0,1-3.12,1.46,4.42,4.42,0,0,1-2.58-.81,4.47,4.47,0,0,1-1.85-3.71,4.61,4.61,0,0,1,1.62-3.55,4.4,4.4,0,0,1,2.75-1,4.21,4.21,0,0,1,3.18,1.39v-1.2h1v8.66Zm0-6.08A3.83,3.83,0,0,0,378.4,528a3.33,3.33,0,0,0-2.09.75,3.52,3.52,0,0,0-1.21,2.75,3.35,3.35,0,0,0,3.32,3.5,3.63,3.63,0,0,0,3.1-1.9Z"/><path d="M385.83,540.41V527.19h1.05v1.2a4.17,4.17,0,0,1,3.17-1.39,4.4,4.4,0,0,1,2.75,1,4.61,4.61,0,0,1,1.62,3.55A4.38,4.38,0,0,1,390,536a3.85,3.85,0,0,1-3.08-1.42v5.79Zm1.08-7.29A3.63,3.63,0,0,0,390,535a3.36,3.36,0,0,0,3.33-3.5,3.53,3.53,0,0,0-1.22-2.75A3.33,3.33,0,0,0,390,528a3.83,3.83,0,0,0-3.12,1.75Z"/><path d="M396.89,540.41V527.19h1v1.2a4.21,4.21,0,0,1,3.18-1.39,4.4,4.4,0,0,1,2.75,1,4.61,4.61,0,0,1,1.62,3.55,4.47,4.47,0,0,1-1.85,3.71,4.42,4.42,0,0,1-2.58.81,3.85,3.85,0,0,1-3.08-1.42v5.79Zm1.08-7.29a3.63,3.63,0,0,0,3.1,1.9,3.35,3.35,0,0,0,3.32-3.5,3.52,3.52,0,0,0-1.21-2.75,3.33,3.33,0,0,0-2.09-.75,3.83,3.83,0,0,0-3.12,1.75Z"/><path d="M412.26,528a5,5,0,0,0-.51,0,3,3,0,0,0-2.72,1.92v5.91H408v-8.66H409v1.14a3.32,3.32,0,0,1,2.73-1.33,6.12,6.12,0,0,1,.65,0Z"/><path d="M418,536a4.52,4.52,0,1,1,4.46-4.52A4.42,4.42,0,0,1,418,536Zm0-8a3.5,3.5,0,1,0,3.38,3.5A3.39,3.39,0,0,0,418,528Z"/><path d="M427.55,535.85l-4-8.66h1.17l3.2,6.91,3.19-6.91h1.18l-4,8.66Z"/><path d="M441.2,534.45a4.52,4.52,0,0,1-3.54,1.59,4.3,4.3,0,0,1-4.35-4.52,4.24,4.24,0,0,1,4.14-4.52,4,4,0,0,1,4,4.24,3.24,3.24,0,0,1,0,.38h-7.07a3.29,3.29,0,0,0,3.27,3.4,3.48,3.48,0,0,0,2.78-1.3Zm-6.75-3.82h5.91a2.94,2.94,0,0,0-2.91-2.61A3.1,3.1,0,0,0,434.45,530.63Z"/><path d="M445.13,535.23a4.46,4.46,0,0,1-1.84-3.71A4.6,4.6,0,0,1,444.9,528a4.4,4.4,0,0,1,2.76-1,4.24,4.24,0,0,1,3.13,1.35v-6h1.08v13.49h-1v-1.27a3.84,3.84,0,0,1-3.12,1.46A4.44,4.44,0,0,1,445.13,535.23Zm5.66-5.46a3.83,3.83,0,0,0-3.12-1.75,3.28,3.28,0,0,0-2.08.75,3.53,3.53,0,0,0-1.22,2.75,3.36,3.36,0,0,0,3.32,3.5,3.61,3.61,0,0,0,3.1-1.9Z"/><path d="M293.13,546.08a2.32,2.32,0,0,0-.65-.08,2,2,0,0,0-1.69.82,2.92,2.92,0,0,0-.39,1.8V550h2.94v1H290.4v7.63h-1.09V551h-2.24v-1h2.24v-1.31A3.91,3.91,0,0,1,290,546,3.18,3.18,0,0,1,292.5,545a3.86,3.86,0,0,1,.84.1Z"/><path d="M298.75,558.84a4.52,4.52,0,1,1,4.47-4.52A4.42,4.42,0,0,1,298.75,558.84Zm0-8a3.5,3.5,0,1,0,3.39,3.49A3.38,3.38,0,0,0,298.75,550.83Z"/><path d="M310,550.84h-.51a3,3,0,0,0-2.72,1.91v5.91h-1.08V550h1.08v1.14a3.33,3.33,0,0,1,2.74-1.33,6.1,6.1,0,0,1,.64,0Z"/><path d="M324.88,557.34a4.59,4.59,0,0,1-3.42,1.5,4.52,4.52,0,0,1-4.66-4.52,4.55,4.55,0,0,1,7.79-3.17l-.68.78a3.7,3.7,0,0,0-2.62-1.1,3.5,3.5,0,0,0,.15,7,3.61,3.61,0,0,0,2.66-1.2Z"/><path d="M327.06,545.16h1.09v13.49h-1.09Z"/><path d="M331.91,546a1,1,0,0,1,1,1,1,1,0,0,1-1,1,.94.94,0,0,1-1-1A1,1,0,0,1,331.91,546Zm-.53,4h1.08v8.66h-1.08Z"/><path d="M342.81,557.25a4.5,4.5,0,0,1-3.53,1.59,4.3,4.3,0,0,1-4.35-4.52,4.24,4.24,0,0,1,4.14-4.52,4,4,0,0,1,4,4.24,3.24,3.24,0,0,1,0,.38H336a3.29,3.29,0,0,0,3.27,3.4,3.44,3.44,0,0,0,2.77-1.3Zm-6.74-3.82H342a2.93,2.93,0,0,0-2.91-2.6A3.08,3.08,0,0,0,336.07,553.43Z"/><path d="M346.62,551.21a4,4,0,0,1,6.13,0,4.13,4.13,0,0,1,.74,2.78v4.61h-1.08v-4.54a3.48,3.48,0,0,0-.49-2.13,2.71,2.71,0,0,0-2.27-1.15,3.44,3.44,0,0,0-3,1.8v6h-1.08V550h1.05Z"/><path d="M361.38,551h-2.95v4.74a2.19,2.19,0,0,0,.38,1.45,1.79,1.79,0,0,0,1.45.61,3.34,3.34,0,0,0,.93-.12l.19,1a4.46,4.46,0,0,1-1.12.15,2.89,2.89,0,0,1-2.32-1,3.18,3.18,0,0,1-.59-2.12V551h-2.43v-1h2.43v-2.36h1.08V550h2.95Z"/><path d="M370.25,558a4.43,4.43,0,0,1-1.84-3.7,4.64,4.64,0,0,1,1.61-3.55,4.43,4.43,0,0,1,2.76-1,4.22,4.22,0,0,1,3.13,1.35v-6H377v13.49H376v-1.27a3.83,3.83,0,0,1-3.11,1.46A4.41,4.41,0,0,1,370.25,558Zm5.66-5.45a3.82,3.82,0,0,0-3.11-1.74,3.32,3.32,0,0,0-2.09.74,3.53,3.53,0,0,0-1.22,2.75,3.36,3.36,0,0,0,3.33,3.5,3.6,3.6,0,0,0,3.09-1.9Z"/><path d="M387.35,557.25a4.51,4.51,0,0,1-3.53,1.59,4.29,4.29,0,0,1-4.35-4.52,4.24,4.24,0,0,1,4.14-4.52,4,4,0,0,1,4,4.24c0,.07,0,.2,0,.38h-7.07a3.29,3.29,0,0,0,3.27,3.4,3.44,3.44,0,0,0,2.77-1.3Zm-6.74-3.82h5.9a2.92,2.92,0,0,0-2.9-2.6A3.08,3.08,0,0,0,380.61,553.43Z"/><path d="M390.11,545.16h1.08v13.49h-1.08Z"/><path d="M395,546a1,1,0,0,1,1,1,1,1,0,0,1-1,1,.94.94,0,0,1-.95-1A1,1,0,0,1,395,546Zm-.53,4h1.08v8.66h-1.08Z"/><path d="M401.43,558.65l-4-8.66h1.18l3.19,6.91L405,550h1.18l-4,8.66Z"/><path d="M415.07,557.25a4.51,4.51,0,0,1-3.53,1.59,4.3,4.3,0,0,1-4.35-4.52,4.24,4.24,0,0,1,4.14-4.52,4,4,0,0,1,4,4.24,3.24,3.24,0,0,1,0,.38h-7.07a3.29,3.29,0,0,0,3.27,3.4,3.44,3.44,0,0,0,2.77-1.3Zm-6.74-3.82h5.91a2.93,2.93,0,0,0-2.91-2.6A3.08,3.08,0,0,0,408.33,553.43Z"/><path d="M422.14,550.84h-.51a3,3,0,0,0-2.72,1.91v5.91h-1.08V550h1.08v1.14a3.33,3.33,0,0,1,2.74-1.33,6.1,6.1,0,0,1,.64,0Z"/><path d="M425.16,563.21l2.38-5.26-3.92-8h1.22l3.25,6.72,3.05-6.72h1.16l-6,13.22Z"/><circle cx="224.55" cy="520.93" r="18.9" style="fill:#fff200"/><circle cx="220.35" cy="516.73" r="18.9" style="fill:#291d54"/><path d="M225.25,519.7a12.82,12.82,0,0,1-.11,1.89,4.19,4.19,0,0,1-1.4,3.08,5,5,0,0,1-3.37,1.08,4.91,4.91,0,0,1-3.24-1,4.59,4.59,0,0,1-1.52-3.08l-.08-.76a.29.29,0,0,1,.33-.32h2.48a.31.31,0,0,1,.35.32,3,3,0,0,0,.06.49c.21,1.11.75,1.67,1.62,1.67a1.44,1.44,0,0,0,1.09-.43,2.23,2.23,0,0,0,.55-1.21,11.57,11.57,0,0,0,.11-1.73A7.9,7.9,0,0,0,222,518a1.93,1.93,0,0,0-.56-1.09,1.44,1.44,0,0,0-1-.4,1.61,1.61,0,0,0-1.68,1.25.34.34,0,0,1-.35.29h-2.51a.31.31,0,0,1-.32-.32V507a.31.31,0,0,1,.32-.32h8.8a.32.32,0,0,1,.23.09.33.33,0,0,1,.1.23V509a.33.33,0,0,1-.1.23.29.29,0,0,1-.23.1h-5.86c-.09,0-.13,0-.13.13v5.27s0,.08.05.09a.11.11,0,0,0,.11,0,3.66,3.66,0,0,1,5.12,0,4.88,4.88,0,0,1,1.17,2.93A10.4,10.4,0,0,1,225.25,519.7Z" style="fill:#fff"/><circle cx="530.59" cy="302.24" r="18.9" style="fill:#fff200"/><circle cx="526.39" cy="298.04" r="18.9" style="fill:#291d54"/><path d="M531,301a11.46,11.46,0,0,1-.19,2.27,4.62,4.62,0,0,1-1.47,2.83,4.55,4.55,0,0,1-3.12,1,5,5,0,0,1-3.35-1.09,4.19,4.19,0,0,1-1.45-3c0-.39-.08-1-.11-1.72a.29.29,0,0,1,.32-.33h2.49a.29.29,0,0,1,.32.33c0,.61.07,1.07.11,1.37a2.34,2.34,0,0,0,.57,1.29,1.47,1.47,0,0,0,1.1.44,1.49,1.49,0,0,0,1.08-.42,2.12,2.12,0,0,0,.57-1.2,13.32,13.32,0,0,0,.13-2.1,12.25,12.25,0,0,0-.18-2.3,2.07,2.07,0,0,0-.57-1.08,1.45,1.45,0,0,0-1-.38,1.15,1.15,0,0,0-.73.25.48.48,0,0,1-.24.1.52.52,0,0,1-.22-.1l-1.26-1.3a.3.3,0,0,1-.11-.24.32.32,0,0,1,.08-.22l3.37-4.59a.08.08,0,0,0,0-.11.17.17,0,0,0-.12-.05h-5.13a.34.34,0,0,1-.33-.33v-2a.29.29,0,0,1,.1-.23.32.32,0,0,1,.23-.09h8.74a.32.32,0,0,1,.23.09.29.29,0,0,1,.1.23v2.13a.8.8,0,0,1-.14.41L527.7,295c-.07.11-.05.17.06.19a2.92,2.92,0,0,1,1.9,1,4.86,4.86,0,0,1,1.07,2.3A11.08,11.08,0,0,1,531,301Z" style="fill:#fff"/><line x1="418.52" y1="157.28" x2="453.45" y2="122.35" style="fill:#fff"/><line x1="418.52" y1="157.28" x2="419.58" y2="156.22" style="fill:none;stroke:#8a8f93;stroke-linecap:round;stroke-miterlimit:10;stroke-width:2px"/><line x1="423.23" y1="152.58" x2="450.57" y2="125.23" style="fill:none;stroke:#8a8f93;stroke-linecap:round;stroke-miterlimit:10;stroke-width:2px;stroke-dasharray:3.0935678482055664,5.155946254730225"/><line x1="452.39" y1="123.41" x2="453.45" y2="122.35" style="fill:none;stroke:#8a8f93;stroke-linecap:round;stroke-miterlimit:10;stroke-width:2px"/><line x1="442.14" y1="121.64" x2="443.64" y2="121.64" style="fill:none;stroke:#8a8f93;stroke-linecap:round;stroke-linejoin:round;stroke-width:2px"/><line x1="447.07" y1="121.64" x2="450.84" y2="121.64" style="fill:none;stroke:#8a8f93;stroke-linecap:round;stroke-linejoin:round;stroke-width:2px;stroke-dasharray:2.05712628364563,3.42854380607605"/><polyline points="452.56 121.64 454.06 121.64 454.06 123.14" style="fill:none;stroke:#8a8f93;stroke-linecap:round;stroke-linejoin:round;stroke-width:2px"/><line x1="454.06" y1="126.57" x2="454.06" y2="130.34" style="fill:none;stroke:#8a8f93;stroke-linecap:round;stroke-linejoin:round;stroke-width:2px;stroke-dasharray:2.05712628364563,3.42854380607605"/><line x1="454.06" y1="132.06" x2="454.06" y2="133.56" style="fill:none;stroke:#8a8f93;stroke-linecap:round;stroke-linejoin:round;stroke-width:2px"/><line x1="218.47" y1="121.7" x2="253.4" y2="156.63" style="fill:#fff"/><line x1="218.47" y1="121.7" x2="219.53" y2="122.76" style="fill:none;stroke:#8a8f93;stroke-linecap:round;stroke-miterlimit:10;stroke-width:2px"/><line x1="223.17" y1="126.4" x2="250.52" y2="153.75" style="fill:none;stroke:#8a8f93;stroke-linecap:round;stroke-miterlimit:10;stroke-width:2px;stroke-dasharray:3.0935678482055664,5.155946254730225"/><line x1="252.34" y1="155.57" x2="253.4" y2="156.63" style="fill:none;stroke:#8a8f93;stroke-linecap:round;stroke-miterlimit:10;stroke-width:2px"/><line x1="254.11" y1="145.32" x2="254.11" y2="146.82" style="fill:none;stroke:#8a8f93;stroke-linecap:round;stroke-linejoin:round;stroke-width:2px"/><line x1="254.11" y1="150.25" x2="254.11" y2="154.02" style="fill:none;stroke:#8a8f93;stroke-linecap:round;stroke-linejoin:round;stroke-width:2px;stroke-dasharray:2.05712628364563,3.42854380607605"/><polyline points="254.11 155.73 254.11 157.23 252.61 157.23" style="fill:none;stroke:#8a8f93;stroke-linecap:round;stroke-linejoin:round;stroke-width:2px"/><line x1="249.18" y1="157.23" x2="245.41" y2="157.23" style="fill:none;stroke:#8a8f93;stroke-linecap:round;stroke-linejoin:round;stroke-width:2px;stroke-dasharray:2.05712628364563,3.42854380607605"/><line x1="243.69" y1="157.23" x2="242.19" y2="157.23" style="fill:none;stroke:#8a8f93;stroke-linecap:round;stroke-linejoin:round;stroke-width:2px"/><line x1="312.66" y1="53.82" x2="361.66" y2="53.82" style="fill:#fff;stroke:#8a8f93;stroke-linecap:round;stroke-miterlimit:10;stroke-width:2px"/><polyline points="354.16 45.4 362.58 53.82 354.16 62.25" style="fill:none;stroke:#8a8f93;stroke-linecap:round;stroke-linejoin:round;stroke-width:2px"/><line x1="526.59" y1="129.6" x2="526.59" y2="245.28" style="fill:#fff;stroke:#8a8f93;stroke-linecap:round;stroke-miterlimit:10;stroke-width:2px"/><polyline points="535.01 237.78 526.59 246.21 518.17 237.78" style="fill:none;stroke:#8a8f93;stroke-linecap:round;stroke-linejoin:round;stroke-width:2px"/><polyline points="337.16 477.36 337.16 436.33 526.1 436.33 526.1 396.04" style="fill:#fff;stroke:#8a8f93;stroke-linecap:round;stroke-linejoin:round;stroke-width:2px"/><polyline points="345.58 469.86 337.16 478.28 328.74 469.86" style="fill:none;stroke:#8a8f93;stroke-linecap:round;stroke-linejoin:round;stroke-width:2px"/><line x1="148.29" y1="246.21" x2="148.29" y2="130.53" style="fill:#fff;stroke:#8a8f93;stroke-linecap:round;stroke-miterlimit:10;stroke-width:2px"/><polyline points="139.86 138.03 148.29 129.6 156.71 138.03" style="fill:none;stroke:#8a8f93;stroke-linecap:round;stroke-linejoin:round;stroke-width:2px"/><line x1="387.26" y1="323.64" x2="313.58" y2="323.64" style="fill:#fff;stroke:#8a8f93;stroke-linecap:round;stroke-miterlimit:10;stroke-width:2px"/><polyline points="321.08 332.07 312.66 323.64 321.08 315.22" style="fill:none;stroke:#8a8f93;stroke-linecap:round;stroke-linejoin:round;stroke-width:2px"/></g></g></svg>