<?xml version="1.0" encoding="utf-8"?>
<!-- Generator: Adobe Illustrator 23.0.4, SVG Export Plug-In . SVG Version: 6.00 Build 0)  -->
<svg version="1.1" id="Layer_1" xmlns="http://www.w3.org/2000/svg" xmlns:xlink="http://www.w3.org/1999/xlink" x="0px" y="0px"
	 width="20px" height="20px" viewBox="0 0 20 20" style="enable-background:new 0 0 20 20;" xml:space="preserve">
<g>
	<circle style="fill:#28282A;" cx="10" cy="10" r="10"/>
	<g>
		<path style="fill:#FFFA0C;" d="M16.5,6.7c-0.5-1-1.2-1.9-2.1-2.5l-0.5,0.7c0.8,0.6,1.4,1.4,1.9,2.2c1.2,2.3,0.9,5.1-0.8,7.1
			c-1.2,1.5-3.1,2.4-5,2.4c-0.3,0-0.6,0-0.9-0.1c0,0,0,0,0,0V5.9H8.2v10.5c0,0.4,0.3,0.8,0.8,0.9c2.5,0.4,5.1-0.6,6.7-2.6
			C17.5,12.4,17.8,9.3,16.5,6.7L16.5,6.7z"/>
		<path style="fill:#FFFA0C;" d="M4.2,12.9C3,10.6,3.3,7.9,5,5.9c1.2-1.5,3.1-2.4,5-2.4c0.3,0,0.6,0,0.9,0.1c0,0,0,0,0,0v10.5h0.8
			V3.6c0-0.4-0.3-0.8-0.8-0.9C8.5,2.4,6,3.4,4.4,5.3c-1.9,2.2-2.2,5.4-0.9,8c0.5,1,1.2,1.9,2.1,2.5l0.5-0.7
			C5.3,14.6,4.7,13.8,4.2,12.9z"/>
	</g>
</g>
</svg>
