<svg height="518" width="518" xmlns="http://www.w3.org/2000/svg"><g fill="none"><circle cx="259" cy="259" fill="#28282a" r="259"/><g fill="#fffa0c"><path d="M427.93 172.87a191.3 191.3 0 0 0-55.17-65.53l-12.89 17.16a169.75 169.75 0 0 1 48.95 58.14c30.464 59.67 22.536 131.74-20.17 183.36A167.6 167.6 0 0 1 259 427.12a170.7 170.7 0 0 1-23.95-1.69 1.22 1.22 0 0 1-1.09-1.19V151.69H212.5v272.55c.06 11.27 8.348 20.803 19.5 22.43 65.465 9.432 131.109-15.965 173.18-67 48.074-58.275 57.001-139.516 22.73-206.84z"/><path d="M109.18 335.36C78.716 275.69 86.644 203.62 129.35 152A167.6 167.6 0 0 1 259 90.88c8.03-.001 16.05.563 24 1.69a1.22 1.22 0 0 1 1 1.19v272.55h21.5V93.76c-.06-11.27-8.348-20.803-19.5-22.43-65.465-9.432-131.109 15.965-173.18 67-48.063 58.263-56.998 139.482-22.75 206.8a191.3 191.3 0 0 0 55.17 65.53l12.89-17.16a169.75 169.75 0 0 1-48.95-58.14z"/></g></g></svg>